<svg width="90" height="84" viewBox="0 0 90 84" fill="none" xmlns="http://www.w3.org/2000/svg">
<path d="M40.8051 74.6619C41.4389 74.0966 42.5164 73.3638 43.2136 73.0288C43.9108 72.6938 44.6292 72.4216 44.8405 72.4216C45.0517 72.4216 45.6222 72.6101 46.1081 72.8194C46.6152 73.0288 47.4603 73.5313 47.9885 73.9082C48.5167 74.306 49.2773 74.9969 49.6787 75.4575C50.1013 75.9182 50.6506 76.6719 50.9041 77.1325C51.1788 77.5931 51.6224 78.5772 51.8971 79.3309C52.1718 80.0847 52.5309 81.299 52.7 82.0528C52.8901 82.8065 53.038 83.5393 53.038 83.665C53.038 83.8743 52.7633 83.8953 52.045 83.8325C51.4745 83.7696 50.3759 83.3928 49.5519 83.0159C48.6012 82.5553 47.7772 81.99 47.2701 81.4037C46.8265 80.9012 46.256 80.0009 45.9814 79.4356C45.7067 78.8494 45.3687 77.8863 45.2419 77.2791C45.1151 76.6928 44.9461 76.1903 44.8616 76.1903C44.756 76.1903 44.5658 76.7347 44.4179 77.3838C44.27 78.0538 43.9108 79.0588 43.6151 79.645C43.3193 80.2103 42.6432 81.1315 42.0939 81.6759C41.5446 82.2412 40.5727 82.9112 39.9388 83.1834C39.305 83.4765 38.312 83.7696 36.6641 84L36.8331 82.8693C36.9387 82.2412 37.2979 80.8803 37.6359 79.8544C37.9951 78.8284 38.5867 77.4466 38.9881 76.8185C39.3684 76.1903 40.1924 75.2063 40.8051 74.6619Z" fill="#FFB800"/>
<path d="M53.9581 63.9429C54.7821 63.1263 56.3667 61.8701 57.4653 61.1582C58.564 60.4464 59.5358 59.8601 59.6204 59.8601C59.7049 59.8601 59.895 60.1114 60.0218 60.4464C60.1697 60.7604 60.2753 61.8073 60.2753 62.7913C60.2964 64.2569 60.2119 64.7804 59.7682 65.7226C59.4725 66.3507 58.8598 67.2929 58.3738 67.8163C57.909 68.3397 56.916 69.0725 56.1765 69.4703C55.4371 69.8681 54.4441 70.3078 53.9793 70.4544C53.5145 70.58 53.113 70.8103 53.0919 70.9359C53.0497 71.0825 53.4722 71.1663 54.3596 71.1663C55.0779 71.1663 56.7047 71.2709 57.9935 71.3756C59.2823 71.5012 60.9303 71.7525 61.6909 71.92C62.4515 72.0875 63.8248 72.59 64.7544 73.0506C65.684 73.4903 66.8038 74.1603 67.2474 74.4953C67.67 74.8512 68.0292 75.2072 68.0292 75.3118C68.0503 75.3956 67.501 75.7096 66.8249 76.0237C66.1488 76.3168 64.8389 76.7984 63.9093 77.0496C62.5148 77.4474 61.712 77.5312 59.3668 77.5312C56.8526 77.5312 56.3667 77.4893 55.2469 77.0496C54.5497 76.7774 53.5778 76.275 53.0919 75.9609C52.5848 75.6259 51.8454 74.914 51.4439 74.3697C51.0214 73.8044 50.4932 72.8622 49.8594 71.1663L50.3664 69.6588C50.6411 68.8213 51.2327 67.5232 51.6764 66.7694C52.0989 66.0157 53.1342 64.7385 53.9581 63.9429Z" fill="#FFB800"/>
<path d="M30.0052 62.8332C30.0052 62.0585 30.1109 61.0745 30.2376 60.6557V60.6348C30.3855 60.216 30.5545 59.8601 30.6602 59.8601C30.7658 59.8601 31.7799 60.4673 32.8997 61.2001C34.0406 61.9538 35.4984 63.0635 36.1322 63.6707C36.7872 64.2779 37.7379 65.3876 38.245 66.1413C38.7521 66.895 39.4493 68.1513 39.7662 68.9678C40.0831 69.7635 40.3366 70.7056 40.3578 71.0616C40.3578 71.3966 40.0831 72.255 39.7451 72.9459C39.4282 73.6369 38.7309 74.6 38.2239 75.1025C37.7168 75.605 36.7238 76.275 36.0266 76.6099C35.3294 76.924 34.2519 77.3009 33.6392 77.4265C33.0476 77.5521 31.8011 77.6568 30.8926 77.6568C30.0052 77.6568 28.6108 77.5103 27.7868 77.3428C26.9628 77.1753 25.5895 76.7984 24.7233 76.5053C23.8571 76.2331 22.9486 75.8353 22.7162 75.6678C22.3148 75.3537 22.3148 75.3328 23.2444 74.4953C23.7726 74.0347 24.7656 73.3856 25.4628 73.0506C26.16 72.7365 27.153 72.3178 27.6812 72.1503C28.2094 71.9828 29.3925 71.7316 30.3221 71.6059C31.2518 71.4594 33.2166 71.2919 34.7167 71.2081C36.1956 71.1244 37.3999 70.9988 37.3999 70.8941C37.3999 70.8103 36.8928 70.6009 36.2801 70.4125C35.6886 70.2241 34.6956 69.8053 34.1251 69.4913C33.5335 69.1563 32.5828 68.4025 31.9912 67.7744C31.3151 67.0625 30.7658 66.225 30.47 65.4504C30.1531 64.6547 30.0052 63.7963 30.0052 62.8332Z" fill="#FFB800"/>
<path d="M21.9333 57.0345C22.208 56.4482 22.5671 55.7782 22.7362 55.527V55.506C22.9052 55.2548 23.1376 55.0454 23.2432 55.0454C23.37 55.0454 24.0672 55.862 24.8278 56.867C25.5884 57.8929 26.5391 59.3585 26.9406 60.1751C27.342 60.9707 27.8279 62.2478 28.0181 63.0016C28.2505 63.9647 28.335 64.9697 28.2082 68.4243L27.2575 69.3665C26.7293 69.89 25.7785 70.5809 25.1447 70.895C24.0883 71.4393 23.7925 71.4812 21.6586 71.4603C19.6304 71.4603 19.1445 71.3765 17.8557 70.874C17.0317 70.56 15.7006 69.89 14.8978 69.3875C14.0738 68.885 12.8695 68.0056 12.1935 67.4194C11.3695 66.6866 11.0526 66.2678 11.1793 66.0794C11.285 65.9537 11.961 65.6397 12.7005 65.4094C13.6724 65.1163 14.6443 65.0116 16.1655 65.0116C17.4331 65.0116 18.8275 65.1581 19.6515 65.3884C20.4121 65.5769 21.9544 66.0794 23.0742 66.5191C24.2151 66.9378 25.187 67.2309 25.2503 67.1262C25.3137 67.0425 24.7855 66.3934 24.0672 65.6606C23.2855 64.8859 22.5037 63.8181 22.1023 63.0016C21.5319 61.8082 21.4474 61.4313 21.4474 59.861C21.4474 58.4582 21.553 57.8719 21.9333 57.0345Z" fill="#FFB800"/>
<path d="M64.5472 57.9765C65.0543 57.2227 65.836 56.1968 66.2797 55.6943C67.0403 54.8359 67.1037 54.8149 67.3783 55.1709C67.5262 55.4012 67.9065 56.0921 68.2234 56.7202C68.6882 57.7043 68.7727 58.144 68.7727 59.7561C68.7727 61.4311 68.7094 61.787 68.1389 62.8967C67.8009 63.5877 66.9135 64.7601 66.1952 65.5139C65.4768 66.2676 64.9275 66.9167 64.9698 66.9795C65.0331 67.0423 65.9628 66.7701 67.0403 66.3932C68.0967 65.9954 69.7869 65.4929 70.7799 65.2626C72.1954 64.9276 73.0405 64.8648 74.6885 64.9486C76.104 65.0114 77.2027 65.1789 78.0055 65.4929C78.6816 65.7233 79.2309 66.0164 79.2309 66.142C79.2309 66.2676 78.5971 66.8748 77.7942 67.5239C77.0125 68.152 75.766 69.0523 75.0054 69.492C74.2448 69.9526 72.9138 70.5598 72.0475 70.8738C70.801 71.3135 70.0615 71.4391 68.5615 71.4601C66.8501 71.481 66.5121 71.4182 65.2867 70.832C64.5261 70.476 63.5331 69.806 63.0683 69.3454C62.4978 68.7801 62.1809 68.2357 62.0753 67.6914C61.9908 67.2517 61.9062 66.3514 61.9062 65.7233C61.9062 65.0951 62.0541 63.9017 62.2232 63.1061C62.4133 62.3105 62.7936 61.117 63.0894 60.4889C63.3852 59.8608 64.0401 58.7302 64.5472 57.9765Z" fill="#FFB800"/>
<path d="M14.7659 50.8143C14.9983 50.249 15.6532 49.3487 16.1814 48.7624C16.7308 48.1762 17.2589 47.7156 17.3435 47.7156C17.4491 47.7156 17.6604 47.9668 17.8294 48.2809C17.9984 48.6159 18.421 49.8512 18.8013 51.0655C19.3295 52.8033 19.4562 53.6618 19.4773 55.1483C19.4773 56.5092 19.3506 57.4095 19.0337 58.3936C18.7801 59.1473 18.3787 60.1314 18.104 60.592C17.7449 61.2411 17.3646 61.5342 16.4772 61.9111C15.4842 62.3089 15.0194 62.3717 13.4137 62.3089C11.9348 62.2461 11.2798 62.1204 10.4558 61.7226C9.86426 61.4504 8.80788 60.7595 8.08954 60.1733C7.3712 59.608 6.3782 58.603 5.85001 57.9749C5.34294 57.3467 4.58235 56.258 4.1598 55.5671C3.58935 54.6458 3.46258 54.269 3.65273 54.1643C3.7795 54.0805 4.43446 53.9968 5.06829 53.9968C5.70211 53.9968 6.82188 54.1433 7.54022 54.3108C8.27969 54.4783 9.37833 54.8761 9.9699 55.1693C10.5826 55.4833 11.5545 56.0486 12.146 56.4674C12.7165 56.8652 13.7306 57.6608 14.3645 58.2052C14.9983 58.7705 15.5899 59.1473 15.6744 59.0636C15.7589 58.9798 15.5899 58.4774 15.3152 57.912C15.0194 57.3677 14.6391 56.3417 14.449 55.6299C14.2377 54.7924 14.132 53.8502 14.1954 53.0546C14.2588 52.3637 14.5123 51.3587 14.7659 50.8143Z" fill="#FFB800"/>
<path d="M71.0946 51.8001C71.3904 50.6486 71.8341 49.2248 72.0665 48.6177C72.4256 47.7383 72.5947 47.5708 72.8693 47.6964C73.0595 47.8011 73.5665 48.2617 73.9891 48.7433C74.4328 49.2039 74.9821 49.9786 75.2145 50.4392C75.4469 50.8998 75.7427 51.7792 75.8483 52.3654C76.0173 53.2029 75.9962 53.831 75.7849 54.9407C75.6159 55.7363 75.1934 56.9716 74.8342 57.6626C74.475 58.3535 74.2215 58.9816 74.2637 59.0654C74.3271 59.1701 75.1089 58.6047 75.9962 57.851C76.9047 57.0973 78.2569 56.1132 79.0175 55.6526C79.7781 55.2129 80.8133 54.7104 81.3415 54.522C81.8697 54.3335 82.8838 54.1032 83.6022 53.9985C84.3416 53.8729 85.3135 53.852 85.7783 53.9357C86.4121 54.0614 86.6023 54.187 86.5178 54.4173C86.4544 54.5848 86.0952 55.2548 85.7149 55.8829C85.3346 56.511 84.236 57.8301 83.243 58.8141C82.0598 60.0075 80.9823 60.845 80.0739 61.3266C78.9118 61.9338 78.4259 62.0594 76.9047 62.1222C75.6159 62.185 74.8131 62.1222 74.0525 61.8919C73.4609 61.7035 72.7848 61.3266 72.5524 61.0754C72.2989 60.8032 71.8974 60.2169 71.665 59.7563C71.4326 59.2957 71.0946 58.3116 70.9044 57.5579C70.7143 56.8041 70.5664 55.6735 70.5664 55.0454C70.5664 54.4173 70.7988 52.9517 71.0946 51.8001Z" fill="#FFB800"/>
<path d="M75.5087 42.797C75.4242 41.7711 75.4242 40.4729 75.5087 39.9286V39.9076C75.6143 39.1748 75.7411 38.9236 76.0158 38.9236C76.2059 38.9236 76.8609 39.2167 77.4313 39.5726C78.0229 39.9286 78.8046 40.5567 79.1638 40.9754C79.5652 41.4151 80.03 42.3364 80.2835 43.111C80.5159 43.8857 80.7061 45.0163 80.7061 45.7282C80.7061 46.4191 80.6005 47.3404 80.4948 47.7591C80.3258 48.3872 80.3469 48.5338 80.5582 48.4501C80.685 48.3872 81.2765 47.5498 81.8681 46.6076C82.4386 45.6654 83.5372 44.2626 84.2978 43.5089C85.1852 42.6295 86.157 41.8967 87.0444 41.457C87.805 41.1011 88.798 40.7242 89.2417 40.6404C90.0023 40.5148 90.0656 40.5358 89.96 40.9126C89.8755 41.1429 89.7065 41.8548 89.5586 42.4829C89.4107 43.111 89.0726 44.1788 88.798 44.8279C88.5445 45.4979 87.9951 46.5448 87.5937 47.131C87.1923 47.7382 86.5162 48.5966 86.0514 49.0154C85.6077 49.4341 84.7204 50.0204 84.0865 50.3135C83.4527 50.5857 82.5442 50.8997 82.0794 50.9625C81.6146 51.0463 80.854 51.0672 80.3892 50.9835C79.7765 50.8997 79.2905 50.6275 78.6145 49.9785C78.1074 49.476 77.4102 48.6594 77.0721 48.136C76.7341 47.6126 76.2904 46.6285 76.058 45.9376C75.8467 45.2466 75.5932 43.8229 75.5087 42.797Z" fill="#FFB800"/>
<path d="M11.1131 40.7033C11.5568 40.2426 12.3597 39.6564 12.8879 39.3842C13.4161 39.133 13.9654 38.9236 14.1133 38.9236C14.2823 38.9236 14.3668 39.3423 14.3879 40.2426C14.4091 40.9545 14.3879 42.2107 14.3668 43.0064C14.3457 43.8229 14.1978 44.9745 14.0288 45.5816C13.8597 46.1679 13.5006 47.1519 13.2048 47.7173C12.909 48.3035 12.1695 49.2875 10.4582 51.0672H8.76798C7.43693 51.0672 6.84536 50.9625 6.02138 50.5857C5.45093 50.3135 4.54245 49.7272 4.03538 49.2666C3.52832 48.8269 2.72547 47.801 2.2184 46.9844C1.71134 46.1888 1.07751 44.807 0.781723 43.9485C0.485936 43.0901 0.190149 41.9804 0 40.5986L0.676085 40.7242C1.05638 40.787 1.986 41.122 2.74659 41.4779C3.76072 41.9386 4.54245 42.5248 5.70447 43.7182C6.5707 44.5976 7.66934 45.9795 8.13415 46.7541C8.59896 47.5498 9.06376 48.2407 9.19053 48.2826C9.3173 48.3244 9.40181 47.4241 9.40181 45.8957C9.40181 43.8229 9.46519 43.2785 9.84549 42.4829C10.099 41.9595 10.6695 41.1639 11.1131 40.7033Z" fill="#FFB800"/>
<path d="M85.7395 29.2902C86.0564 28.8924 86.7747 28.2224 87.3452 27.7827C87.9156 27.3221 88.4861 27.008 88.6128 27.0499C88.7396 27.0918 88.9086 27.678 88.9931 28.3689C89.0776 29.0389 89.0565 30.4208 88.9509 31.4258C88.8241 32.4517 88.5495 33.7708 88.317 34.357C88.1058 34.9642 87.5987 35.8854 87.1973 36.4089C86.7113 37.0579 86.0564 37.5604 85.1268 38.042C84.3873 38.4188 83.4577 38.712 83.0985 38.712C82.7182 38.712 82.0844 38.5654 81.7252 38.377C81.3449 38.1885 80.6266 37.7488 80.1406 37.4348C79.6336 37.0998 78.7885 36.2414 78.2603 35.5086C77.7321 34.7967 77.0349 33.4776 76.6757 32.5773C76.3377 31.698 75.9996 30.5673 75.7461 29.2274L76.6968 29.3949C77.225 29.4786 78.218 29.7927 78.8941 30.0858C79.5702 30.3998 80.4153 30.9652 80.7322 31.3211C81.0703 31.698 81.5773 32.4517 81.852 32.9961C82.1266 33.5614 82.4224 34.3361 82.5069 34.7339C82.5703 35.1317 82.676 35.6342 82.7393 35.8226C82.7816 36.032 82.8872 36.1995 82.9929 36.1995C83.0774 36.1995 83.3309 35.3829 83.5633 34.3779C83.7746 33.352 84.2394 31.9701 84.5775 31.2792C84.9155 30.5883 85.4437 29.688 85.7395 29.2902Z" fill="#FFB800"/>
<path d="M0.78125 29.7083C0.78125 28.6195 0.865761 27.5098 0.950271 27.2377C1.03478 26.9655 1.2038 26.8399 1.3517 26.9236C1.47846 26.9864 2.00665 27.3423 2.51372 27.6983C2.99965 28.0542 3.73912 28.7661 4.11942 29.2895C4.52084 29.8129 5.07016 30.8179 5.36595 31.5507C5.66174 32.2626 6.06316 33.5817 6.25331 34.482C6.42233 35.3613 6.63361 36.2407 6.69699 36.4082C6.76038 36.5757 6.99278 36.0104 7.22518 35.152C7.43646 34.2935 7.75338 33.3095 7.9224 32.9535C8.09142 32.6185 8.57735 31.9067 9.02103 31.4042C9.46472 30.9017 10.3098 30.2526 10.8803 29.9804C11.4507 29.6873 12.3803 29.3942 12.9508 29.3105C13.8593 29.2058 13.9438 29.2267 13.9438 29.6036C13.9438 29.8339 13.7114 30.7551 13.4156 31.6554C13.1198 32.5348 12.6339 33.7701 12.3169 34.3773C12.0212 34.9635 11.2394 35.9895 10.5845 36.6176C9.92952 37.2457 8.87314 38.0204 8.23931 38.3344C7.20406 38.8369 6.97165 38.8788 6.12655 38.6904C5.59835 38.5647 4.71099 38.1669 4.14055 37.811C3.44333 37.3713 2.8095 36.7013 2.28131 35.8848C1.79538 35.1101 1.33057 34.0632 1.14042 33.1629C0.950271 32.3673 0.78125 30.797 0.78125 29.7083Z" fill="#FFB800"/>
<path d="M82.0996 17.0423C82.3954 16.4561 82.9236 15.6814 83.3039 15.3255V15.3045C83.6631 14.9486 84.0011 14.6345 84.0645 14.6345C84.1279 14.6345 84.318 14.9905 84.4659 15.4092C84.6138 15.8489 84.8885 16.8329 85.0575 17.6076C85.2265 18.4032 85.3533 19.6176 85.3533 20.3295C85.3533 21.0623 85.2054 22.1091 85.0364 22.6954C84.8674 23.2607 84.4871 24.0772 84.2124 24.4751C83.9166 24.8729 83.325 25.4591 82.8814 25.7732C82.332 26.171 81.8038 26.3594 81.2334 26.3594C80.7686 26.3594 79.9235 26.2338 79.3319 26.0663C78.7615 25.8779 77.8107 25.4382 77.2403 25.0613C76.6487 24.6844 75.7613 23.8469 75.2754 23.2188C74.7683 22.5907 74.0711 21.5648 73.7331 20.9576C73.3739 20.3713 73.1626 19.806 73.226 19.7014C73.2894 19.6176 74.0289 19.5548 74.8528 19.5757C76.0571 19.5757 76.6064 19.7014 77.4304 20.1201C78.022 20.4132 78.8248 21.0204 79.2263 21.4601C79.6488 21.9207 80.177 22.6326 80.4517 23.0513C80.7052 23.491 81.0221 23.8469 81.1278 23.8469C81.2545 23.8469 81.2968 23.2607 81.2123 22.2138C81.1278 21.2926 81.1911 20.0782 81.3179 19.3454C81.4658 18.6545 81.8038 17.6076 82.0996 17.0423Z" fill="#FFB800"/>
<path d="M4.416 18.5711C4.54276 17.7755 4.85968 16.5402 5.09208 15.7865C5.34561 15.0327 5.59914 14.4255 5.68366 14.4255C5.74704 14.4255 6.10621 14.7187 6.48651 15.0955C6.8668 15.4724 7.43725 16.3518 7.75417 17.0427C8.28236 18.1733 8.36687 18.5921 8.55702 23.9101L9.52889 22.4655C10.0571 21.6698 10.8599 20.7695 11.3247 20.4345C11.7684 20.1205 12.529 19.7227 12.9938 19.5552C13.4586 19.3877 14.3249 19.2621 14.8953 19.2621C15.4869 19.2621 16.1207 19.3249 16.332 19.4086C16.6489 19.5342 16.6067 19.7017 15.9094 20.8952C15.4658 21.6489 14.5361 22.8633 13.8389 23.5961C13.0995 24.3708 12.1276 25.1454 11.5149 25.4386C10.9444 25.7107 9.93031 26.0248 9.29648 26.1295C8.6204 26.2342 7.92319 26.2342 7.66965 26.1295C7.395 26.0248 6.78229 25.5851 6.29636 25.1245C5.78929 24.6848 5.17659 23.8683 4.92306 23.303C4.69066 22.7376 4.416 21.7536 4.33149 21.1255C4.2681 20.4974 4.28923 19.3458 4.416 18.5711Z" fill="#FFB800"/>
<path d="M75.1264 7.80962C75.1264 6.49057 75.2532 5.90433 75.6335 5.12965C75.887 4.58528 76.225 4.18747 76.3518 4.22934C76.4786 4.27122 76.9434 4.81559 77.3659 5.44371C77.8096 6.07182 78.3589 7.07682 78.5913 7.684C78.8237 8.27024 79.0773 9.27523 79.1407 9.88241C79.2252 10.6152 79.1618 11.369 78.9294 12.1855C78.7181 12.9183 78.3167 13.6721 77.873 14.1746C77.1758 14.9074 77.0701 14.9492 75.5912 15.0121C74.5348 15.0749 73.7109 14.9702 72.9925 14.7399C72.4009 14.5514 71.3657 13.9861 70.6685 13.4836C69.9713 12.9811 69.0628 12.2483 67.9219 11.1177L68.9783 10.7199C69.5698 10.5105 70.5628 10.343 71.1967 10.364C71.9713 10.364 72.6756 10.5245 73.3094 10.8455C73.8376 11.1177 74.6193 11.683 75.0419 12.1018C75.4856 12.5205 75.887 12.8136 75.9504 12.7508C76.0138 12.688 75.8447 11.9343 75.5912 11.0758C75.2532 9.96616 75.1053 9.02398 75.1264 7.80962Z" fill="#FFB800"/>
<path d="M11.4109 6.574C11.749 5.88306 12.2983 4.91995 12.6575 4.43839V4.41745C13.0166 3.93589 13.3547 3.53809 13.4181 3.53809C13.4814 3.53809 13.7561 4.04058 14.0519 4.62683C14.4744 5.50619 14.5801 6.0715 14.5801 7.34868C14.5801 8.43742 14.4251 9.50522 14.1153 10.5521C13.8406 11.4105 13.6716 12.1643 13.735 12.2271C13.7984 12.2689 14.2209 11.9758 14.6857 11.5571C15.1505 11.1383 16.0168 10.573 16.5872 10.3008C17.2633 10.0077 18.045 9.81928 18.7633 9.81928C19.3549 9.81928 20.2423 9.96584 20.7071 10.1333C21.1719 10.3008 21.5522 10.5102 21.5522 10.594C21.5733 10.6986 20.9606 11.3268 20.2423 12.0177C19.5028 12.7086 18.3831 13.5461 17.7492 13.9021C16.7562 14.4255 16.2914 14.5302 14.6857 14.593C12.9321 14.6767 12.742 14.6349 12.1715 14.1952C11.8335 13.923 11.3475 13.2739 11.094 12.7505C10.8405 12.2271 10.5658 11.4314 10.5024 10.9708C10.4391 10.5102 10.4813 9.6099 10.5869 8.98178C10.7137 8.35367 11.0729 7.26493 11.4109 6.574Z" fill="#FFB800"/>
<path d="M63.8545 1.59223C63.7066 1.40379 63.6644 1.13161 63.7277 1.00598C63.8123 0.880359 64.2982 0.838484 65.0588 0.922233C65.7137 1.00598 66.58 1.15254 66.9814 1.27817C67.3828 1.40379 68.1857 1.73879 68.7773 2.03191C69.3477 2.32503 70.3407 3.05784 70.9323 3.68596C71.6295 4.35595 72.3267 5.38188 72.7704 6.30312C73.1718 7.14061 73.5521 8.18748 73.7422 9.40184L72.9394 9.06685C72.5168 8.89935 71.5872 8.43873 70.89 8.04092C70.1928 7.66405 69.0519 6.93124 68.3547 6.40781C67.6575 5.90531 66.411 4.69095 65.6081 3.72783C64.7841 2.76472 64.0024 1.8016 63.8545 1.59223Z" fill="#FFB800"/>
<path d="M21.5932 1.13061C22.4383 0.732806 23.706 0.31406 24.4032 0.209373C25.1004 0.104687 25.8399 0.0209373 26.0511 0C26.2413 0 26.4103 0.0628119 26.4103 0.188436C26.4103 0.31406 25.9666 0.984053 25.4173 1.69592C24.8469 2.40779 23.9595 3.47559 23.4313 4.06184C22.9031 4.62714 21.8045 5.59026 21.0016 6.17651C20.1988 6.76275 18.9311 7.57931 18.1705 7.99805C17.4099 8.4168 16.6282 8.77273 16.4381 8.77273C16.1211 8.77273 16.0789 8.64711 16.1845 8.10274C16.2479 7.72587 16.6705 6.63713 17.1353 5.69495C17.6635 4.56433 18.3396 3.58028 19.0156 2.91029C19.6495 2.28217 20.6847 1.5703 21.5932 1.13061Z" fill="#FFB800"/>
</svg>
