<svg width="24" height="24" viewBox="0 0 24 24" fill="none" xmlns="http://www.w3.org/2000/svg">
<path d="M5.98804 12.7504L16.178 12.7504L13.168 15.7604C12.878 16.0504 12.878 16.5304 13.168 16.8204C13.318 16.9704 13.508 17.0404 13.698 17.0404C13.888 17.0404 14.078 16.9704 14.228 16.8204L18.518 12.5304C18.658 12.3904 18.738 12.2004 18.738 12.0004C18.738 11.8004 18.658 11.6104 18.518 11.4704L14.228 7.18039C13.938 6.89039 13.458 6.89039 13.168 7.18039C12.878 7.47039 12.878 7.95039 13.168 8.24039L16.178 11.2504L5.98804 11.2504C5.57804 11.2504 5.23804 11.5904 5.23804 12.0004C5.23804 12.4104 5.57804 12.7504 5.98804 12.7504Z" fill="#7C8EB5"/>
</svg>
