<svg width="32" height="32" viewBox="0 0 32 32" fill="none" xmlns="http://www.w3.org/2000/svg">
<g id="add">
<g id="vuesax/outline/add">
<g id="add_2">
<path id="Vector" d="M23 25.0001L6.99994 9.00001C6.45327 8.45334 6.45327 7.54667 6.99994 7C7.5466 6.45333 8.45327 6.45333 8.99994 7L25 23.0001C25.5467 23.5467 25.5467 24.4534 25 25.0001C24.4533 25.5467 23.5467 25.5467 23 25.0001Z" fill="white"/>
<path id="Vector_2" d="M7.00001 25.0001C6.45334 24.4534 6.45334 23.5467 7.00001 23.0001L23.0001 7C23.5467 6.45333 24.4534 6.45333 25.0001 7C25.5467 7.54667 25.5467 8.45334 25.0001 9.00001L9.00001 25.0001C8.45334 25.5467 7.54667 25.5467 7.00001 25.0001Z" fill="white"/>
</g>
</g>
</g>
</svg>
