<svg width="24" height="24" viewBox="0 0 24 24" fill="none" xmlns="http://www.w3.org/2000/svg">
<path d="M22 7.81098L22 16.191C22 19.831 19.83 22.001 16.19 22.001L7.82 22.001C4.17 22.001 2 19.831 2 16.191L2 7.82098C2 4.18098 4.17 2.01098 7.81 2.01098L16.19 2.01098C19.83 2.00098 22 4.17098 22 7.81098ZM11.25 6.00098L11.25 16.191L8.24 13.181C7.95 12.891 7.47 12.891 7.18 13.181C7.03 13.331 6.96 13.521 6.96 13.711C6.96 13.901 7.03 14.091 7.18 14.241L11.47 18.531C11.61 18.671 11.8 18.751 12 18.751C12.2 18.751 12.39 18.671 12.53 18.531L16.82 14.241C17.11 13.951 17.11 13.471 16.82 13.181C16.53 12.891 16.05 12.891 15.76 13.181L12.75 16.191L12.75 6.00098C12.75 5.59098 12.41 5.25098 12 5.25098C11.59 5.25098 11.25 5.59098 11.25 6.00098Z" fill="#FFB800"/>
</svg>
