<svg width="36" height="37" viewBox="0 0 36 37" fill="none" xmlns="http://www.w3.org/2000/svg">
<path d="M11.715 3.8335H24.285C29.745 3.8335 33 7.0885 33 12.5485V25.1035C33 30.5785 29.745 33.8335 24.285 33.8335H11.73C6.27 33.8335 3.015 30.5785 3.015 25.1185V12.5485C3 7.0885 6.255 3.8335 11.715 3.8335ZM9 19.9585H24.285L19.77 24.4735C19.335 24.9085 19.335 25.6285 19.77 26.0635C19.995 26.2885 20.28 26.3935 20.565 26.3935C20.85 26.3935 21.135 26.2885 21.36 26.0635L27.795 19.6285C28.005 19.4185 28.125 19.1335 28.125 18.8335C28.125 18.5335 28.005 18.2485 27.795 18.0385L21.36 11.6035C20.925 11.1685 20.205 11.1685 19.77 11.6035C19.335 12.0385 19.335 12.7585 19.77 13.1935L24.285 17.7085H9C8.385 17.7085 7.875 18.2185 7.875 18.8335C7.875 19.4485 8.385 19.9585 9 19.9585Z" fill="#E5EAF3"/>
</svg>
