<svg width="24" height="24" viewBox="0 0 24 24" fill="none" xmlns="http://www.w3.org/2000/svg">
<path d="M2 16.191L2 7.81098C2 4.17098 4.17 2.00098 7.81 2.00098L16.18 2.00098C19.83 2.00098 22 4.17098 22 7.81098L22 16.181C22 19.821 19.83 21.991 16.19 21.991L7.81 21.991C4.17 22.001 2 19.831 2 16.191ZM12.75 18.001L12.75 7.81098L15.76 10.821C16.05 11.111 16.53 11.111 16.82 10.821C16.97 10.671 17.04 10.481 17.04 10.291C17.04 10.101 16.97 9.91098 16.82 9.76098L12.53 5.47098C12.39 5.33098 12.2 5.25098 12 5.25098C11.8 5.25098 11.61 5.33098 11.47 5.47098L7.18 9.76098C6.89 10.051 6.89 10.531 7.18 10.821C7.47 11.111 7.95 11.111 8.24 10.821L11.25 7.81098L11.25 18.001C11.25 18.411 11.59 18.751 12 18.751C12.41 18.751 12.75 18.411 12.75 18.001Z" fill="#FFB800"/>
</svg>
