<svg width="69" height="64" viewBox="0 0 69 64" fill="none" xmlns="http://www.w3.org/2000/svg">
<ellipse cx="35.1325" cy="32.1325" rx="20.1324" ry="20.1325" fill="#EBEFF9"/>
<ellipse cx="19.9546" cy="3.5" rx="3.49998" ry="3.5" fill="#EBEFF9"/>
<ellipse cx="3.5001" cy="32.3145" rx="3.49998" ry="3.5" fill="#EBEFF9"/>
<ellipse cx="19.9547" cy="60.5" rx="3.49998" ry="3.5" fill="#2477F4"/>
<ellipse cx="49.9547" cy="3.5" rx="3.49998" ry="3.5" fill="#2477F4"/>
<ellipse cx="65.5001" cy="32.3145" rx="3.49998" ry="3.5" fill="#2477F4"/>
<ellipse cx="49.9546" cy="60.5" rx="3.49998" ry="3.5" fill="#2477F4"/>
<path d="M47.2092 21.3328L47.8213 21.5045C47.8297 21.5069 47.8371 21.512 47.8423 21.5191C47.8475 21.5261 47.8502 21.5347 47.8501 21.5436L47.8358 22.1451L47.8296 22.4454L47.8233 22.727L47.8171 23.0085L47.792 23.9594L47.7357 26.5433L47.6687 29.2902C47.6683 29.2992 47.6643 29.306 47.6566 29.3105L46.6114 29.9146C46.608 29.9166 46.6044 29.9172 46.6006 29.9164L46.5898 29.9144L46.7785 21.2317L46.7835 21.2222C46.7867 21.2162 46.7915 21.2141 46.798 21.216L47.2092 21.3328Z" fill="#C6C6C6"/>
<path d="M46.7785 21.2317L46.5898 29.9143C46.5868 29.9142 46.5838 29.9144 46.5806 29.9151C46.5726 29.9162 46.5654 29.9143 46.5591 29.9093L45.9234 29.4028L44.7953 28.5077L44.413 28.2011C44.4076 28.1966 44.4029 28.1972 44.3987 28.2029L37.0107 38.2111L37.0044 38.2173C36.9931 38.2153 36.9855 38.2127 36.9819 38.2096C36.8019 38.0511 36.6231 37.8952 36.4456 37.7418L35.6989 37.0912L35.1378 36.597L35.0239 36.5009L34.8595 36.352L34.4431 35.9888L34.0275 35.6282L33.6538 35.2977C33.6528 35.2968 33.6516 35.2961 33.6503 35.2957C33.6489 35.2953 33.6476 35.2952 33.6462 35.2954C33.6448 35.2956 33.6435 35.296 33.6424 35.2967C33.6412 35.2974 33.6401 35.2983 33.6393 35.2994L29.6346 40.726C29.6218 40.7351 29.6091 40.7335 29.5966 40.7213C29.4932 40.6225 29.3518 40.4982 29.1724 40.3484L28.0899 39.4005L27.9527 39.2819L27.5809 38.9563C27.5742 38.9505 27.5682 38.9511 27.5628 38.9583C26.567 40.3055 25.5723 41.6531 24.5787 43.0013C24.5683 43.0152 24.5605 43.0306 24.5551 43.0476C24.5416 43.0454 24.5385 43.0377 24.5459 43.0243C25.4833 41.329 26.4221 39.6338 27.3621 37.9388L29.3083 39.2914C29.3157 39.2964 29.3215 39.295 29.3258 39.2871L29.8744 38.2924L30.3864 37.3737L30.8493 36.5354C31.5896 35.2092 32.3262 33.881 33.0593 32.5507C33.0631 32.5438 33.0705 32.5383 33.0815 32.5339L36.2644 34.7514C36.2721 34.7567 36.2782 34.7553 36.2827 34.7471L36.838 33.7466L37.9261 31.7797L40.196 27.6766L41.2851 25.7139C41.2869 25.7106 41.2874 25.7068 41.2867 25.7032C41.286 25.6995 41.284 25.6962 41.2811 25.6939L39.6653 24.4036L39.1663 23.9987C39.1581 23.9922 39.1589 23.9871 39.1688 23.9834L40.659 23.4392L43.931 22.2442L44.3574 22.0888L44.8444 21.9126L45.1196 21.8125L45.5273 21.6634L45.9214 21.5195L46.1394 21.4434L46.2207 21.4121L46.4219 21.3381C46.5068 21.3108 46.7377 21.2054 46.7785 21.2317Z" fill="#2477F4"/>
<path d="M44.7954 28.5078L44.3054 29.1709C42.2501 31.9515 40.1958 34.733 38.1426 37.5152C38.0859 37.592 38.0113 37.6526 37.9189 37.6972L37.7522 37.7885L37.4737 37.9547C37.3879 37.9894 37.3189 38.0242 37.2665 38.0593C37.2084 38.0983 37.0157 38.2319 37.0107 38.2112L44.3988 28.203C44.4029 28.1973 44.4077 28.1967 44.413 28.2012L44.7954 28.5078Z" fill="#C6C6C6"/>
<path d="M34.4081 32.0734L34.5592 32.1807L34.6396 32.236L36.2186 33.3401L36.6613 33.6447C36.7104 33.6932 36.7693 33.7271 36.838 33.7463L36.2827 34.7468C36.2782 34.755 36.2721 34.7564 36.2644 34.751L33.0815 32.5336L33.8398 32.0806L33.9659 32.0046L34.1361 31.9075C34.1412 31.9046 34.147 31.9031 34.1529 31.9033C34.1588 31.9036 34.1645 31.9054 34.1694 31.9087L34.4081 32.0734Z" fill="#C6C6C6"/>
<path d="M34.0275 35.6283C34.0029 35.6507 33.9724 35.6866 33.9359 35.7359C32.8738 37.175 31.8117 38.6143 30.7495 40.0537C30.7238 40.0886 30.6923 40.117 30.6549 40.1391C30.3179 40.3381 29.9799 40.5352 29.6409 40.7304C29.6379 40.7321 29.6358 40.7306 29.6346 40.7261L33.6393 35.2995C33.6402 35.2984 33.6412 35.2975 33.6424 35.2968C33.6435 35.2961 33.6449 35.2956 33.6462 35.2955C33.6476 35.2953 33.649 35.2954 33.6503 35.2958C33.6516 35.2962 33.6528 35.2969 33.6539 35.2978L34.0275 35.6283Z" fill="#C6C6C6"/>
<path d="M28.9943 37.689L29.1539 37.7989L29.2978 37.9032L29.3504 37.942L29.8744 38.2921L29.3259 39.2868C29.3215 39.2947 29.3157 39.2961 29.3084 39.2911L27.3622 37.9385C27.3632 37.9145 27.3862 37.9165 27.399 37.9095C27.7431 37.7143 28.0871 37.5157 28.431 37.3136C28.4383 37.3093 28.4456 37.3095 28.4528 37.3144L28.9943 37.689Z" fill="#C6C6C6"/>
<path d="M27.9527 39.2817C27.9414 39.2872 27.9357 39.2872 27.9279 39.2977C27.6536 39.6715 27.3805 40.0454 27.1084 40.4193C27.0932 40.4321 27.0729 40.4557 27.0475 40.4901C26.5737 41.1334 26.0995 41.7768 25.6249 42.4203C25.5999 42.4541 25.5693 42.4816 25.5331 42.5026C25.2047 42.6938 24.8767 42.8851 24.5488 43.0767C24.5413 43.0812 24.5395 43.0794 24.5433 43.0714L24.5551 43.0474C24.5604 43.0304 24.5683 43.0149 24.5786 43.0011C25.5723 41.6529 26.567 40.3052 27.5628 38.9581C27.5681 38.9509 27.5741 38.9502 27.5808 38.9561L27.9527 39.2817Z" fill="#C6C6C6"/>
</svg>
