<svg width="36" height="37" viewBox="0 0 36 37" fill="none" xmlns="http://www.w3.org/2000/svg">
<path d="M24.285 3.8335H11.715C6.255 3.8335 3 7.0885 3 12.5485V25.1035C3 30.5785 6.255 33.8335 11.715 33.8335H24.27C29.73 33.8335 32.985 30.5785 32.985 25.1185V12.5485C33 7.0885 29.745 3.8335 24.285 3.8335ZM27 19.9585H11.715L16.23 24.4735C16.665 24.9085 16.665 25.6285 16.23 26.0635C16.005 26.2885 15.72 26.3935 15.435 26.3935C15.15 26.3935 14.865 26.2885 14.64 26.0635L8.205 19.6285C7.995 19.4185 7.875 19.1335 7.875 18.8335C7.875 18.5335 7.995 18.2485 8.205 18.0385L14.64 11.6035C15.075 11.1685 15.795 11.1685 16.23 11.6035C16.665 12.0385 16.665 12.7585 16.23 13.1935L11.715 17.7085H27C27.615 17.7085 28.125 18.2185 28.125 18.8335C28.125 19.4485 27.615 19.9585 27 19.9585Z" fill="#E5EAF3"/>
</svg>
