<svg width="69" height="64" viewBox="0 0 69 64" fill="none" xmlns="http://www.w3.org/2000/svg">
<ellipse cx="35.1324" cy="32.1325" rx="20.1324" ry="20.1325" fill="#EBEFF9"/>
<ellipse cx="19.9544" cy="3.5" rx="3.49998" ry="3.5" fill="#EBEFF9"/>
<ellipse cx="3.49998" cy="32.3145" rx="3.49998" ry="3.5" fill="#EBEFF9"/>
<ellipse cx="19.9546" cy="60.5" rx="3.49998" ry="3.5" fill="#EBEFF9"/>
<ellipse cx="49.9546" cy="3.5" rx="3.49998" ry="3.5" fill="#2477F4"/>
<ellipse cx="65.5" cy="32.3145" rx="3.49998" ry="3.5" fill="#2477F4"/>
<ellipse cx="49.9544" cy="60.5" rx="3.49998" ry="3.5" fill="#EBEFF9"/>
<path d="M30.5699 45.7357C29.0559 45.5074 27.9994 44.2102 28 42.6847C28.0017 36.4137 28.0028 30.1425 28.0034 23.871C28.0034 23.5085 27.9946 23.1657 28.0175 22.8844C28.1308 21.4953 29.2606 20.3368 30.6483 20.1716C30.7599 20.1584 30.9476 20.1517 31.2112 20.1513C31.8101 20.1504 32.4091 20.15 33.0082 20.1502C33.0182 20.1502 33.0232 20.1451 33.0232 20.1349C33.0194 19.7431 33.0186 19.4877 33.0206 19.3688C33.0325 18.73 33.497 18.1801 34.1107 18.0406C34.2219 18.0152 34.4088 18.0021 34.6713 18.0014C35.1218 18.0001 35.5722 17.9997 36.0227 18.0003C36.6702 18.0011 37.2497 18.4296 37.4017 19.0652C37.4761 19.377 37.4389 19.7956 37.4448 20.1352C37.445 20.1446 37.4498 20.1493 37.4592 20.1493C38.5095 20.1512 39.1699 20.1518 39.4405 20.151C40.9277 20.1465 42.2007 21.2363 42.4257 22.7046C42.4461 22.838 42.4564 23.0254 42.4564 23.2667C42.4568 29.7659 42.4569 36.2651 42.4567 42.7641C42.4567 44.2449 41.374 45.5032 39.909 45.7343C39.7754 45.7554 39.588 45.7659 39.3469 45.7659C36.6087 45.7663 33.8704 45.7664 31.132 45.7662C30.8915 45.7662 30.7041 45.756 30.5699 45.7357ZM28.8158 43.1269C28.9719 44.0695 29.7279 44.8219 30.6754 44.9651C30.7896 44.9824 30.9772 44.991 31.238 44.991C33.9082 44.991 36.5784 44.9909 39.2486 44.9907C39.503 44.9907 39.6905 44.9811 39.8109 44.962C40.9322 44.7835 41.6863 43.8142 41.6866 42.6866C41.6883 36.1757 41.6887 29.6648 41.688 23.1539C41.688 22.0159 40.8237 21.0863 39.7075 20.9459C39.5945 20.9316 39.4068 20.9246 39.1443 20.9248C36.4431 20.9255 33.7418 20.9259 31.0404 20.9259C29.9382 20.9259 29.0159 21.6932 28.8211 22.7669C28.7973 22.8986 28.7853 23.0858 28.7853 23.3284C28.7853 29.7406 28.7854 36.1529 28.7856 42.5651C28.7856 42.8173 28.7957 43.0046 28.8158 43.1269Z" fill="#2477F4"/>
<path d="M40.9294 29.6279H29.5999C29.59 29.6279 29.5819 29.636 29.5819 29.646V32.436C29.5819 32.446 29.59 32.4541 29.5999 32.4541H40.9294C40.9394 32.4541 40.9474 32.446 40.9474 32.436V29.646C40.9474 29.636 40.9394 29.6279 40.9294 29.6279Z" fill="#2477F4"/>
<path d="M40.8575 33.5889H29.545C29.5302 33.5889 29.5182 33.6009 29.5182 33.6156V36.395C29.5182 36.4098 29.5302 36.4218 29.545 36.4218H40.8575C40.8723 36.4218 40.8843 36.4098 40.8843 36.395V33.6156C40.8843 33.6009 40.8723 33.5889 40.8575 33.5889Z" fill="#2477F4"/>
<path d="M40.8717 37.458H29.5383C29.5307 37.458 29.5245 37.4642 29.5245 37.4718V40.2771C29.5245 40.2847 29.5307 40.2909 29.5383 40.2909H40.8717C40.8794 40.2909 40.8856 40.2847 40.8856 40.2771V37.4718C40.8856 37.4642 40.8794 37.458 40.8717 37.458Z" fill="#2477F4"/>
<path d="M29.5333 41.3205L40.8765 41.3188C40.879 41.3188 40.8814 41.3199 40.8831 41.3217C40.8848 41.3236 40.8858 41.3261 40.8858 41.3287C40.8832 41.7504 40.8859 42.1725 40.894 42.5949C40.9081 43.3134 40.5292 43.9722 39.789 44.1216C39.6902 44.1415 39.503 44.1516 39.2275 44.1518C36.4609 44.1527 33.6943 44.1521 30.9277 44.1501C30.1537 44.1495 29.5333 43.5725 29.5245 42.7906C29.5193 42.3052 29.5171 41.8202 29.518 41.3358C29.518 41.3338 29.5184 41.3318 29.5192 41.3299C29.52 41.3281 29.5211 41.3264 29.5225 41.325C29.5239 41.3236 29.5256 41.3225 29.5274 41.3217C29.5293 41.3209 29.5313 41.3205 29.5333 41.3205Z" fill="#2477F4"/>
</svg>
