<svg width="69" height="64" viewBox="0 0 69 64" fill="none" xmlns="http://www.w3.org/2000/svg">
<ellipse cx="35.1324" cy="32.1325" rx="20.1324" ry="20.1325" fill="#EBEFF9"/>
<ellipse cx="19.9544" cy="3.5" rx="3.49998" ry="3.5" fill="#EBEFF9"/>
<ellipse cx="3.49998" cy="32.3145" rx="3.49998" ry="3.5" fill="#EBEFF9"/>
<ellipse cx="19.9546" cy="60.5" rx="3.49998" ry="3.5" fill="#EBEFF9"/>
<ellipse cx="49.9546" cy="3.5" rx="3.49998" ry="3.5" fill="#2477F4"/>
<ellipse cx="65.5" cy="32.3145" rx="3.49998" ry="3.5" fill="#2477F4"/>
<ellipse cx="49.9544" cy="60.5" rx="3.49998" ry="3.5" fill="#2477F4"/>
<path d="M39.0451 20.9147C39.3519 21.0664 39.6533 21.2293 39.9493 21.4032C40.1015 21.5519 40.2746 21.6687 40.4688 21.7536C40.5432 21.7862 40.6058 21.8361 40.6795 21.8743C40.8075 21.9402 40.9123 22.0099 41.0349 22.0661C41.1196 22.1051 41.2043 22.1701 41.2968 22.2052C41.413 22.2496 41.4716 22.272 41.4724 22.2723C41.5942 22.3345 41.7019 22.4388 41.8039 22.4948C41.9615 22.5811 42.1175 22.6705 42.2718 22.763C42.3427 22.8054 42.4421 22.8428 42.5209 22.9008C42.5806 22.9448 42.7063 22.9503 42.7864 23.001C42.8906 23.0667 43.0119 23.1356 43.1503 23.2078C43.2801 23.2757 43.3412 23.2434 43.4663 23.2146C43.6811 23.1651 43.8967 23.1069 44.1151 23.0754C44.3077 23.0478 44.5372 22.9066 44.6976 23.0832C44.7597 23.1513 44.7512 23.3535 44.7527 23.4354C44.7589 23.7391 44.7618 24.0876 44.7615 24.4809C44.7584 29.1016 44.7569 33.7222 44.7571 38.3427C44.7571 38.9184 44.753 39.3478 44.7448 39.6308C44.7409 39.7692 44.7556 39.9365 44.745 40.091C44.7342 40.2487 44.5725 40.3121 44.4393 40.3277C44.1764 40.3584 43.9417 40.4055 43.6754 40.4758C43.4882 40.5247 43.2987 40.5509 43.1104 40.5988C42.8848 40.6566 42.6597 40.6683 42.4454 40.7252C42.1642 40.7999 41.8845 40.8405 41.595 40.9123C41.5554 40.9219 41.5162 40.9432 41.4796 40.9461C41.1222 40.9724 40.8139 41.0905 40.4729 41.1438C40.255 41.1779 40.041 41.2393 39.8234 41.2673C39.7206 41.2805 39.6532 41.2948 39.6212 41.3103C39.5138 41.3623 39.3827 41.3665 39.2905 41.3852C39.1726 41.4094 39.0703 41.3935 38.9581 41.4562C38.9505 41.4604 38.9424 41.4623 38.9338 41.4619C38.912 41.4611 38.7824 41.495 38.8246 41.5353L38.5102 41.5993L38.4909 41.5819C38.4852 41.5766 38.4786 41.5743 38.471 41.5748C38.3294 41.5861 38.1908 41.6115 38.0554 41.651C37.7762 41.7325 37.5078 41.7348 37.2081 41.8121C37.0705 41.8474 36.9317 41.8672 36.7929 41.8951C36.7527 41.9031 36.6768 41.9073 36.6219 41.9296C36.3749 42.0298 36.0975 42.0204 35.8351 42.1042C35.6887 42.1508 35.507 42.1863 35.2902 42.2106C35.1954 42.221 35.1531 42.222 35.0666 42.2689C35.0237 42.2923 34.9693 42.3054 34.9033 42.3081C34.6883 42.3175 34.4652 42.4083 34.2417 42.4426C33.9965 42.4801 33.7452 42.5529 33.517 42.5919C33.3176 42.6258 33.1192 42.6645 32.9215 42.7082C32.6316 42.7722 32.2779 42.8295 31.9609 42.9143C31.8618 42.9408 31.7734 42.9504 31.6748 42.9632C31.5859 42.9749 31.5007 43.0199 31.3946 43.0311C31.2414 43.047 31.0568 43.0824 30.8406 43.1372C30.8339 43.1388 30.8277 43.1416 30.8221 43.1458C30.8152 43.1506 30.8076 43.1535 30.7991 43.1544C30.6494 43.1712 30.5024 43.2019 30.358 43.2464C30.3168 43.2591 30.2772 43.2634 30.2392 43.2592C29.9338 43.2259 29.7422 42.9647 29.4646 42.8292C29.2773 42.7379 29.0924 42.6336 28.9232 42.5202C28.7574 42.4088 28.5789 42.3198 28.4151 42.2083C28.3117 42.138 28.2054 42.0725 28.0962 42.0119C28.0646 41.9942 28.02 41.9942 27.9912 41.9528C27.9864 41.9459 27.9802 41.9406 27.9726 41.9369C27.8135 41.8584 27.685 41.7395 27.5369 41.6588C27.3259 41.5442 27.0816 41.3964 26.8042 41.2153C26.7885 41.2051 26.7554 41.1892 26.7047 41.1677C26.629 41.1357 26.5762 41.0738 26.4943 41.0343C26.4229 40.9998 26.3217 40.9401 26.1907 40.8553C26.1828 40.8503 26.1748 40.8502 26.1667 40.855L26.1279 40.8784C26.0053 40.8046 26.0035 40.6485 26.0027 40.5083C25.9937 38.9397 26.0102 37.3716 26.0107 35.803C26.0122 31.9147 26.0126 28.0263 26.012 24.1378C26.0118 24.0479 26.0162 23.9063 26.0251 23.713C26.0333 23.5322 26.0897 23.4151 26.2502 23.3433L26.2837 23.3589C26.2921 23.3629 26.3001 23.3623 26.3076 23.3571C26.3251 23.345 26.3444 23.3405 26.3653 23.3436C26.3737 23.3448 26.3816 23.3432 26.389 23.3389C26.4616 23.2965 26.5543 23.2884 26.6136 23.2689C26.9384 23.1619 27.1585 23.0785 27.2737 23.0187C27.399 22.9535 27.5385 22.9054 27.6922 22.8746C27.7952 22.854 27.8969 22.7963 27.9958 22.7718C28.1006 22.746 28.2384 22.7213 28.3278 22.6589C28.3764 22.6246 28.4385 22.6126 28.49 22.5809C28.5907 22.5187 28.7113 22.4924 28.8217 22.4498C28.8902 22.4232 28.9541 22.4201 29.0244 22.4128C29.033 22.4118 29.0405 22.4083 29.0468 22.4024C29.0659 22.3849 29.0883 22.3737 29.114 22.3689C29.1225 22.3673 29.1298 22.3635 29.1362 22.3574C29.1874 22.3082 29.2475 22.2932 29.3165 22.3127C29.3256 22.3153 29.3345 22.3147 29.3433 22.3108C29.5673 22.2139 29.7968 22.1341 30.0317 22.0715C30.136 22.0437 30.2408 21.9919 30.3513 21.9633C30.3849 21.9545 30.4147 21.9389 30.4406 21.9165C30.5501 21.8223 30.6863 21.808 30.8161 21.7552C30.8687 21.7339 30.9212 21.7453 30.9732 21.7084C30.9801 21.7035 30.9877 21.7007 30.9959 21.7C31.0141 21.6983 31.0314 21.6936 31.0477 21.686C31.2511 21.59 31.4574 21.5008 31.6606 21.404C31.8144 21.3309 31.9823 21.308 32.1319 21.2401C32.1398 21.2367 32.148 21.2353 32.1564 21.236C32.2288 21.2427 32.2965 21.2302 32.3593 21.1982C32.4889 21.1324 32.6364 21.1093 32.765 21.0484C32.8523 21.0071 32.9284 20.9767 32.9931 20.9571C33.185 20.8988 33.3699 20.8104 33.5633 20.7628C33.62 20.749 33.6548 20.7092 33.7063 20.6928C33.8438 20.6486 33.9715 20.564 34.1078 20.5279C34.2566 20.4883 34.413 20.415 34.5327 20.3736C34.9214 20.2394 35.301 20.0755 35.6906 19.9473C35.8024 19.9103 35.8977 19.8521 36.0056 19.8164C36.1998 19.7526 36.3373 19.7042 36.4182 19.6713C36.5477 19.6187 36.685 19.5924 36.7988 19.5456C36.9626 19.4777 37.1308 19.4241 37.2946 19.3575C37.3788 19.3235 37.463 19.3099 37.5617 19.2579C37.6186 19.228 37.6868 19.2178 37.7561 19.1898C37.8545 19.1497 37.9768 19.1175 38.1231 19.0932C38.1307 19.092 38.1372 19.0888 38.1427 19.0836C38.2364 18.9985 38.3441 18.9784 38.4656 19.0233C38.4735 19.0262 38.4801 19.0309 38.4855 19.0373L38.5818 19.1541C38.5871 19.1607 38.59 19.1682 38.5905 19.1767C38.607 19.4473 38.5939 19.7907 38.596 19.9868C38.5984 20.2102 38.5998 20.4335 38.6003 20.6569C38.6006 20.7911 38.7767 20.8106 38.8792 20.8856C38.9284 20.9215 38.9836 20.9312 39.0451 20.9147ZM27.9628 23.9546L27.626 24.0556C27.6157 24.0587 27.6127 24.0653 27.617 24.0753C27.6214 24.0859 27.6298 24.0937 27.6419 24.0987C27.6323 24.1078 27.6274 24.119 27.6273 24.1323C27.6271 24.141 27.6305 24.1478 27.6376 24.1529C27.763 24.2421 27.9265 24.4882 28.0996 24.4C28.1387 24.38 28.1939 24.3651 28.2495 24.3383C28.3059 24.3113 28.3739 24.3061 28.4264 24.2873C28.5588 24.2403 28.6933 24.2005 28.83 24.1677C28.9402 24.1414 29.0898 24.0899 29.2258 24.0717C29.2544 24.0678 29.2737 24.053 29.3021 24.0465C29.5341 23.9944 29.7566 23.9075 29.9825 23.8553C30.2122 23.8019 30.42 23.734 30.6665 23.6805C30.7723 23.6574 30.8816 23.6257 30.9944 23.5855C31.0745 23.5569 31.1715 23.5517 31.2519 23.527C31.3683 23.4909 31.5554 23.4387 31.8131 23.3704C31.9081 23.3454 32.0601 23.2622 32.1966 23.2476C32.4034 23.225 32.6807 23.1162 32.9357 23.0561C33.1016 23.0169 33.289 22.9646 33.4979 22.899C33.7196 22.8296 34.0047 22.7536 34.3532 22.6709C34.5495 22.6243 34.764 22.5442 34.9757 22.495C35.2162 22.4388 35.4539 22.3535 35.6942 22.2981C35.813 22.2708 35.9301 22.2208 36.0522 22.1912C36.2874 22.134 36.4991 22.0551 36.7321 22.0112C36.89 21.9815 37.035 21.9225 37.1947 21.8868C37.4125 21.8379 37.6116 21.7508 37.8403 21.7089C38.018 21.6766 38.18 21.6035 38.3559 21.5762C38.3971 21.57 38.7505 21.4964 38.734 21.4443C38.733 21.4414 38.731 21.4396 38.7281 21.4389C38.726 21.4384 38.7239 21.438 38.7216 21.4378L38.7353 21.4214C38.7425 21.4129 38.7422 21.4049 38.7345 21.3973L38.717 21.3796C38.7842 21.3418 38.5208 21.2167 38.4219 21.1678C38.3271 21.121 38.3054 21.0796 38.1808 21.1002C38.0091 21.1288 37.8613 21.165 37.7373 21.2089C37.5825 21.2638 37.4172 21.2685 37.2657 21.3361C37.1215 21.4006 36.9629 21.4147 36.8114 21.4589C36.676 21.4986 36.5743 21.5273 36.5063 21.545C36.3694 21.5804 36.2339 21.6205 36.0996 21.6655C35.995 21.7006 35.8933 21.7203 35.788 21.744C35.457 21.8181 35.1392 21.9464 34.8049 22.0226C34.6321 22.0619 34.4562 22.1332 34.2713 22.1626C34.2389 22.1678 34.2116 22.1886 34.176 22.1935C34.1413 22.1984 34.1175 22.2033 34.1044 22.2084C33.9563 22.2658 33.8043 22.3088 33.6486 22.3376C33.4698 22.3707 33.3089 22.438 33.1304 22.4719C33.0045 22.4958 32.8332 22.5595 32.7606 22.5793C32.6643 22.6055 32.5679 22.6315 32.4714 22.6573C32.3398 22.6925 32.1801 22.752 32.0299 22.7879C31.9297 22.812 31.842 22.8364 31.767 22.861C31.5818 22.9216 31.4008 22.9547 31.2303 23.0049C31.1475 23.0292 31.0627 23.0499 30.9758 23.0671C30.8048 23.1011 30.6119 23.1719 30.4775 23.2083C30.3233 23.2498 30.1693 23.2916 30.0154 23.334C29.9408 23.3542 29.8457 23.3688 29.761 23.3956C29.6396 23.4341 29.5775 23.4538 29.5745 23.4547C29.0682 23.593 28.5632 23.7363 28.0594 23.8844C28.0428 23.8894 28.0143 23.9015 27.9742 23.9206C27.9666 23.9242 27.9628 23.9302 27.9628 23.9385V23.9546ZM33.1137 23.7205C32.9274 23.7793 32.7389 23.8295 32.5481 23.8711C32.499 23.8548 32.454 23.8532 32.4132 23.8662C32.161 23.9466 31.8628 24.0043 31.6719 24.0569C31.1402 24.2027 30.7859 24.3011 30.6091 24.3521C30.349 24.427 30.0901 24.484 29.8583 24.555C29.5544 24.648 29.2446 24.735 28.9289 24.8162C28.9252 24.8172 28.9214 24.8206 28.9179 24.8261C28.9143 24.8315 28.9113 24.8388 28.909 24.8469C28.9078 24.8512 28.9101 24.858 28.9157 24.8672L28.8681 24.8916C28.8651 24.8932 28.8626 24.8955 28.8607 24.8983C28.8589 24.9012 28.8578 24.9044 28.8576 24.9078C28.8574 24.9112 28.858 24.9146 28.8595 24.9176C28.861 24.9207 28.8633 24.9233 28.866 24.9252L29.1872 25.1458C29.182 25.1527 29.1797 25.1602 29.1802 25.1682C29.1808 25.178 29.1858 25.1818 29.1954 25.1793C29.2742 25.1589 29.3527 25.1373 29.4308 25.1146C29.6387 25.0547 29.8831 25.0342 30.0615 24.9764C30.2295 24.9221 30.3827 24.9109 30.5298 24.8664C30.8169 24.7795 31.1479 24.7124 31.399 24.6466C31.7875 24.545 32.1784 24.4531 32.5715 24.3711C32.5853 24.3682 32.6028 24.3627 32.6241 24.3547C32.7335 24.3131 32.8487 24.3006 32.9607 24.2694C33.2633 24.1851 33.5705 24.1307 33.8724 24.0392C33.9602 24.0126 34.0488 24.0015 34.1389 23.9827C34.2672 23.9559 34.4063 23.8875 34.5531 23.8638C34.8431 23.817 35.1264 23.7338 35.4099 23.6576C35.4704 23.6414 35.5536 23.6295 35.626 23.6045C35.8261 23.5348 36.0437 23.5085 36.2485 23.4461C36.3862 23.4042 36.565 23.3654 36.7182 23.3053C36.8327 23.2672 36.9495 23.2401 37.0685 23.2242C37.3957 23.1604 37.7219 23.0913 38.0469 23.0171C38.0695 23.0119 38.1324 22.994 38.2354 22.9635C38.3387 22.9328 38.4492 22.9294 38.5499 22.8969C38.7381 22.8363 38.9349 22.8015 39.1306 22.7497C39.2066 22.7294 39.2967 22.7221 39.3786 22.6984C39.5401 22.6519 39.6866 22.6097 39.8422 22.584C39.8851 22.5769 39.9322 22.5616 39.9833 22.5382C40.0427 22.511 40.1246 22.4927 40.229 22.4833C40.2813 22.4786 40.3287 22.4542 40.3799 22.4412C40.3885 22.4391 40.3938 22.4339 40.3959 22.4256C40.3976 22.4191 40.3954 22.4129 40.3892 22.4068L40.4801 22.3696C40.4909 22.3653 40.4921 22.3591 40.4835 22.3509L40.4567 22.3259C40.4215 22.2609 40.3769 22.2151 40.323 22.1886C40.1755 22.1161 40.0297 22.0401 39.8855 21.9607C39.8257 21.9279 39.7698 21.8608 39.683 21.8413C39.6745 21.8394 39.6663 21.8408 39.6586 21.8455C39.5558 21.9066 39.4664 21.9542 39.3436 21.9784C39.2001 22.0068 39.0586 22.0431 38.9192 22.0871C38.7013 22.1563 38.4803 22.194 38.2606 22.264C37.9204 22.3725 37.6729 22.4357 37.3796 22.5205C37.1424 22.5892 36.8939 22.6295 36.6554 22.7177C36.57 22.7493 36.4894 22.7729 36.4135 22.7887C36.2352 22.8262 36.0584 22.8703 35.8833 22.9211C35.7962 22.9466 35.6886 22.962 35.5938 22.9932C35.2111 23.1196 34.8181 23.1956 34.4361 23.3298C34.2778 23.3855 34.1304 23.3847 33.9857 23.4289C33.8695 23.4643 33.8107 23.4821 33.8093 23.4825C33.5595 23.5413 33.3859 23.6323 33.1644 23.6664C33.1311 23.6714 33.1142 23.6895 33.1137 23.7205ZM34.4722 24.605L33.7521 24.7816C33.6283 24.7653 33.5142 24.7721 33.4098 24.8019C33.1365 24.8803 32.8945 24.9447 32.6838 24.9952C32.4726 25.0459 32.1425 25.1148 31.8721 25.1884C31.5653 25.2722 31.248 25.3313 30.9467 25.4319C30.8765 25.4553 30.8039 25.473 30.7291 25.485C30.581 25.5089 30.437 25.549 30.2905 25.5813C30.2374 25.593 30.1869 25.6132 30.1388 25.6419C30.1204 25.642 30.1144 25.6523 30.1208 25.6726L30.0585 25.6994C30.0466 25.7044 30.0455 25.7113 30.0551 25.7202L30.094 25.7561C30.0255 25.8063 30.3945 26.004 30.4327 26.0198C30.4406 26.0231 30.4487 26.0238 30.4571 26.0219C30.5241 26.0066 30.5818 25.9915 30.6516 25.9834C31.0126 25.9415 31.3297 25.8396 31.7698 25.7428C31.8059 25.735 31.8494 25.7363 31.8924 25.7217C31.9357 25.707 31.965 25.6982 31.9805 25.6955C32.2684 25.6468 32.5463 25.5542 32.8335 25.5123C32.9125 25.5009 32.9906 25.4678 33.0735 25.4525C33.2821 25.4137 33.4866 25.3633 33.6931 25.3157C33.7743 25.2969 33.8659 25.2961 33.9641 25.2639C34.0663 25.2306 34.1825 25.2275 34.2716 25.2064C34.4941 25.1533 34.7135 25.0875 34.9306 25.0651C35.1127 25.0467 35.3053 24.9686 35.4895 24.9374C35.8016 24.8844 36.1362 24.7863 36.4115 24.7317C36.6922 24.676 36.9723 24.6182 37.2518 24.5584C37.3631 24.5345 37.4656 24.4871 37.5748 24.4694C37.679 24.4528 37.7823 24.4313 37.8846 24.4049C37.9045 24.3997 37.9379 24.4086 37.9616 24.4005C38.0935 24.3561 38.2287 24.3288 38.3673 24.3186C38.4443 24.3127 38.6233 24.2701 38.9042 24.1908C38.974 24.1713 39.0541 24.1677 39.1288 24.1482C39.307 24.1013 39.4863 24.0665 39.6668 24.029C39.8728 23.9864 40.1373 23.9057 40.3781 23.8618C40.532 23.8337 40.6469 23.8116 40.723 23.7954C40.8923 23.7597 41.1373 23.7114 41.458 23.6505C41.5525 23.6326 41.681 23.5782 41.7954 23.5566C41.9714 23.5237 42.1473 23.4903 42.3231 23.4565C42.346 23.4521 42.3731 23.4354 42.3535 23.4086C42.3607 23.3895 42.362 23.3705 42.3573 23.3514C42.3615 23.3115 42.3458 23.2821 42.3102 23.2632C42.0621 23.1312 41.8144 22.9981 41.5669 22.8639C41.5057 22.8306 41.458 22.842 41.3972 22.8608C41.1878 22.9253 40.9769 22.9487 40.759 23.0106C40.1433 23.1857 39.5097 23.3118 38.8883 23.476C38.7617 23.5095 38.6348 23.5412 38.5074 23.5712C38.3042 23.6192 38.1015 23.6692 37.899 23.721C37.788 23.7494 37.6863 23.7965 37.5758 23.8233C37.2493 23.9022 36.9208 23.9725 36.5905 24.0342C36.5099 24.0493 36.4135 24.0935 36.3224 24.1123C36.0046 24.1768 35.6024 24.276 35.1158 24.4099C35.0691 24.4229 34.9683 24.4424 34.8134 24.4684C34.6986 24.4876 34.593 24.5269 34.4807 24.5597C34.4716 24.5623 34.4669 24.5683 34.4665 24.5777C34.4664 24.5867 34.4682 24.5958 34.4722 24.605ZM26.7385 40.4157C26.729 40.4181 26.7231 40.4227 26.7207 40.4295C26.7176 40.4378 26.7195 40.4448 26.7264 40.4505L27.0143 40.6852C27.0205 40.6902 27.0275 40.6924 27.0354 40.6919C27.0402 40.6916 27.0445 40.6931 27.0483 40.6964C27.0948 40.7373 27.1444 40.7648 27.1969 40.7788C27.217 40.7842 27.2242 40.8 27.2185 40.8262C27.217 40.8331 27.2189 40.8389 27.2242 40.8436L27.3615 40.9656C27.3697 40.9727 27.3788 40.9742 27.3888 40.97C27.4041 40.9634 27.4186 40.9675 27.4323 40.9822C27.4373 40.9876 27.4431 40.992 27.4498 40.9955C27.4675 41.0047 27.4861 41.0088 27.5057 41.0077C27.5145 41.0072 27.5222 41.0099 27.5289 41.0158C27.626 41.1001 27.7511 41.1412 27.8428 41.2008C28.1155 41.3776 28.3926 41.5473 28.6742 41.7098C28.7566 41.7574 28.8381 41.8088 28.9188 41.8641C29.0862 41.9786 29.2026 42.0366 29.3381 42.1188C29.4501 42.1864 29.5872 42.2517 29.6917 42.356C29.6982 42.3624 29.706 42.3661 29.7149 42.3669C29.7379 42.369 29.7534 42.3612 29.7615 42.3435C29.766 42.3336 29.7736 42.3286 29.7844 42.3284L29.8498 42.3271C29.8624 42.3268 29.8686 42.3204 29.8686 42.3079C29.8681 41.7507 29.8496 41.1935 29.8493 40.6365C29.8493 36.3422 29.8589 32.0477 29.8576 27.7536C29.8576 27.4862 29.8601 27.2189 29.8653 26.9516C29.8681 26.8161 29.8596 26.6629 29.8619 26.518C29.863 26.4535 29.8553 26.4056 29.7991 26.3645C29.5946 26.2142 29.3816 26.0602 29.162 25.9335C29.0674 25.8786 28.966 25.8042 28.8931 25.723C28.8598 25.6859 28.8176 25.6625 28.7666 25.6528C28.7582 25.6512 28.7514 25.6469 28.7463 25.6398C28.7169 25.6002 28.6785 25.5726 28.6312 25.5568C28.6047 25.548 28.5718 25.512 28.5325 25.4488C28.5277 25.4414 28.5213 25.4361 28.5132 25.433C28.4342 25.4033 28.3616 25.3633 28.2953 25.3131C28.1493 25.2028 28.0087 25.1289 27.8632 25.0334C27.7591 24.9651 27.6698 24.9078 27.5951 24.8615C27.4029 24.7421 27.2124 24.6078 26.9942 24.5048C26.9863 24.5012 26.9783 24.5006 26.97 24.503C26.9578 24.5068 26.9472 24.513 26.9381 24.5215L26.7761 24.4151C26.7654 24.408 26.7599 24.4108 26.7596 24.4237C26.7586 24.4549 26.7581 24.4858 26.7581 24.5165C26.7543 28.1397 26.7524 31.7628 26.7524 35.386C26.7524 35.4575 26.7449 35.5434 26.7454 35.6227C26.7534 37.2199 26.7467 38.8182 26.7385 40.4157ZM32.8111 31.0844C32.7268 31.1081 32.5934 31.133 32.5929 31.2459C32.5842 32.7537 32.5822 34.529 32.587 36.5719C32.5878 36.8344 32.8293 36.74 32.9785 36.7163C32.9704 36.7262 32.9691 36.7365 32.9746 36.7473C32.9775 36.7529 32.9823 36.7574 32.9881 36.76C32.9939 36.7626 33.0004 36.7632 33.0065 36.7616C33.0773 36.7427 33.1471 36.7245 33.2162 36.7072C33.2795 36.6911 33.4057 36.6697 33.4977 36.6375C33.6239 36.593 33.7513 36.586 33.8788 36.5394C33.9169 36.5254 33.97 36.5308 34.0138 36.5139C34.1678 36.4546 34.3658 36.4315 34.4812 36.4039C34.5974 36.3758 34.6986 36.3521 34.8281 36.3167C34.9298 36.2892 35.0481 36.2803 35.1369 36.2579C35.1804 36.247 35.2968 36.2075 35.335 36.2187C35.3434 36.2209 35.3515 36.2202 35.3594 36.2166C35.4623 36.1689 35.5696 36.138 35.6814 36.124C35.7705 36.1128 35.85 36.0779 35.9397 36.0667C36.0324 36.0553 36.093 36.0458 36.1215 36.0384C36.1725 36.0254 36.5972 35.8984 36.6085 35.9042C36.6145 35.9071 36.6206 35.9076 36.6268 35.9057C36.7575 35.866 36.8899 35.8351 37.0242 35.8131C37.2163 35.7816 37.4002 35.7228 37.5964 35.6854C37.8123 35.6441 38.0264 35.5951 38.2387 35.5384C38.3407 35.5114 38.4468 35.4984 38.545 35.4674C38.6983 35.4194 38.8541 35.3818 39.0124 35.3548C39.2414 35.316 39.4523 35.2411 39.6851 35.201C39.9748 35.1516 40.2545 35.0743 40.5417 35.0135C40.6764 34.9851 40.8003 34.9307 40.9352 34.9164C41.013 34.9078 41.3959 34.8686 41.4397 34.8254C41.4457 34.8195 41.4528 34.8156 41.4608 34.8137C41.5105 34.8019 41.6015 34.7767 41.7338 34.738C41.8721 34.6976 41.9388 34.613 41.9342 34.4843C41.9012 33.57 41.9319 32.5172 41.9234 31.4132C41.9175 30.6658 41.9347 29.9734 41.909 29.1721C41.9005 28.9138 41.6792 28.9888 41.5206 29.0132C41.3455 29.0403 41.1693 29.0964 40.9934 29.1339C40.9661 29.1399 40.9244 29.1352 40.8919 29.1578C40.8851 29.1627 40.8775 29.1651 40.8693 29.1651C40.7505 29.1656 40.631 29.2208 40.5432 29.24C40.4593 29.2583 40.3846 29.2791 40.2955 29.291C40.1203 29.3142 39.939 29.3844 39.7899 29.4159C39.4435 29.4887 39.1031 29.5787 38.7538 29.6396C38.7062 29.6479 38.6763 29.6773 38.6315 29.6843C38.5142 29.7026 38.3977 29.7246 38.282 29.7504C38.2442 29.759 38.1952 29.745 38.1586 29.7762C38.1523 29.7817 38.1451 29.7857 38.137 29.7881C38.067 29.8087 38.0059 29.8373 37.9354 29.8495C37.7891 29.8749 37.6434 29.9036 37.4983 29.9356C37.3886 29.9598 37.3067 30.0098 37.1903 30.0202C37.0203 30.0351 36.8648 30.068 36.7239 30.1188C36.5967 30.1646 36.4506 30.183 36.3559 30.208C36.0988 30.2756 35.8057 30.3264 35.5794 30.382C35.2592 30.4606 34.9479 30.5251 34.6149 30.6151C34.372 30.6807 34.1055 30.7527 33.8672 30.7949C33.5795 30.8457 33.2935 30.9052 33.0094 30.9736C32.9381 30.9907 32.8707 31.0148 32.8072 31.0456C32.803 31.0478 32.7996 31.0513 32.7977 31.0556C32.7958 31.0599 32.7954 31.0648 32.7966 31.0693C32.7996 31.0804 32.8044 31.0854 32.8111 31.0844Z" fill="#2477F4"/>
<path d="M38.928 21.5224C38.829 21.4767 38.4699 21.2775 38.3802 21.2997C34.9007 22.1511 31.4222 23.0072 27.9409 23.8525V23.8379C27.9409 23.8303 27.9448 23.8249 27.9525 23.8216C27.9935 23.8044 28.0226 23.7935 28.0396 23.7889C28.5542 23.6549 29.0702 23.5253 29.5875 23.4C29.5905 23.3993 29.654 23.3814 29.778 23.3466C29.8646 23.3224 29.9617 23.3092 30.038 23.2908C30.1951 23.2525 30.3525 23.2146 30.51 23.1771C30.6474 23.1442 30.8444 23.0802 31.0191 23.0493C31.1079 23.0338 31.1946 23.015 31.2791 22.9931C31.4533 22.9476 31.6383 22.9177 31.8274 22.8629C31.9041 22.8406 31.9937 22.8186 32.0961 22.7967C32.2495 22.7643 32.4126 22.7104 32.5471 22.6786C32.6457 22.6552 32.7442 22.6317 32.8426 22.608C32.9168 22.5901 33.0917 22.5324 33.2204 22.5107C33.4027 22.4801 33.5672 22.4192 33.7498 22.3893C33.9089 22.3632 34.0641 22.3242 34.2155 22.2723C34.2288 22.2677 34.2532 22.2633 34.2887 22.2589C34.325 22.2544 34.3529 22.2356 34.386 22.2309C34.5749 22.2043 34.7546 22.1398 34.9312 22.1042C35.2727 22.0353 35.5974 21.9192 35.9355 21.8521C36.0431 21.8307 36.1471 21.8128 36.2539 21.781C36.3911 21.7404 36.5296 21.7041 36.6694 21.6721C36.7388 21.6561 36.8428 21.6301 36.9812 21.5941C37.1359 21.5541 37.298 21.5414 37.4453 21.483C37.6 21.4218 37.7689 21.4176 37.9271 21.3679C38.0537 21.3282 38.2048 21.2954 38.3802 21.2695C38.5075 21.2509 38.5296 21.2884 38.6264 21.3307C38.7275 21.375 38.9967 21.4882 38.928 21.5224Z" fill="#2477F4"/>
<path d="M38.9151 21.5134L38.9329 21.5312C38.9408 21.5388 38.9411 21.5469 38.9337 21.5554L38.9198 21.5719L28.041 24.4983C28.032 24.5007 28.0236 24.4993 28.0159 24.4941L27.6448 24.2412C27.6324 24.2362 27.6239 24.2283 27.6194 24.2177C27.615 24.2076 27.618 24.201 27.6285 24.1979L27.9713 24.0966C31.4389 23.1595 34.9037 22.2104 38.3695 21.2665C38.4588 21.242 38.8166 21.4628 38.9151 21.5134Z" fill="white"/>
<path d="M38.9259 21.5879C38.9281 21.5881 38.9303 21.5884 38.9324 21.5889C38.9354 21.5896 38.9374 21.5914 38.9385 21.5942C38.9553 21.6451 38.5951 21.717 38.5531 21.723C38.3738 21.7497 38.2087 21.8211 38.0276 21.8526C37.7944 21.8935 37.5915 21.9786 37.3694 22.0264C37.2067 22.0612 37.0589 22.1189 36.898 22.1478C36.6604 22.1908 36.4446 22.2677 36.2049 22.3236C36.0805 22.3526 35.9611 22.4014 35.8401 22.4281C35.5951 22.4822 35.3528 22.5655 35.1077 22.6204C34.8919 22.6684 34.6732 22.7466 34.4732 22.7921C34.1179 22.8729 33.8273 22.9472 33.6014 23.0149C33.3884 23.079 33.1974 23.1301 33.0283 23.1684C32.7684 23.2271 32.4857 23.3333 32.2749 23.3554C32.1358 23.3696 31.9809 23.4509 31.884 23.4753C31.6213 23.542 31.4307 23.593 31.312 23.6282C31.2301 23.6524 31.1311 23.6574 31.0495 23.6854C30.9345 23.7247 30.8231 23.7556 30.7153 23.7781C30.4641 23.8305 30.2523 23.8968 30.0181 23.9488C29.7879 23.9999 29.5611 24.0848 29.3245 24.1356C29.2957 24.1419 29.276 24.1564 29.2468 24.1602C29.1082 24.178 28.9557 24.2283 28.8434 24.254C28.7041 24.286 28.5669 24.3249 28.432 24.3708C28.3785 24.3891 28.3092 24.3942 28.2517 24.4206C28.195 24.4468 28.1388 24.4613 28.0989 24.4808C27.9225 24.567 27.7558 24.3266 27.6279 24.2395C27.6208 24.2346 27.6173 24.2279 27.6174 24.2194C27.6176 24.2064 27.6226 24.1954 27.6324 24.1866L28.0041 24.4328C28.0118 24.4379 28.0202 24.4393 28.0293 24.4369L38.9259 21.5879Z" fill="#2477F4"/>
<path d="M40.5564 22.4123L39.7929 21.9931C39.7869 21.9899 39.7809 21.9892 39.7746 21.9912C39.5733 22.0544 39.3746 22.1131 39.1783 22.1674C37.1573 22.727 35.1367 23.2886 33.1165 23.852C33.117 23.8199 33.1341 23.8013 33.1679 23.7961C33.3923 23.761 33.5681 23.667 33.8213 23.6063C33.8226 23.6059 33.8822 23.5875 34 23.5509C34.1466 23.5053 34.2959 23.5061 34.4564 23.4486C34.8434 23.3101 35.2415 23.2316 35.6293 23.1011C35.7253 23.0689 35.8344 23.0531 35.9226 23.0267C36.1 22.9743 36.2791 22.9287 36.4599 22.89C36.5368 22.8738 36.6184 22.8493 36.7049 22.8167C36.9465 22.7257 37.1983 22.6841 37.4387 22.6132C37.7359 22.5256 37.9866 22.4604 38.3313 22.3484C38.5539 22.2761 38.7778 22.2372 38.9986 22.1658C39.1398 22.1203 39.2832 22.0829 39.4286 22.0535C39.5531 22.0285 39.6436 21.9794 39.7477 21.9163C39.7555 21.9115 39.7638 21.91 39.7725 21.912C39.8604 21.9321 39.9171 22.0014 39.9776 22.0353C40.1237 22.1172 40.2715 22.1957 40.4209 22.2705C40.4756 22.2979 40.5207 22.3452 40.5564 22.4123Z" fill="#2477F4"/>
<path d="M40.5239 22.3209L40.5508 22.3459C40.5594 22.354 40.5582 22.3603 40.5474 22.3646L40.4564 22.4019C39.6657 22.5935 38.875 22.7857 38.0843 22.9784C37.7664 23.0559 37.449 23.1367 37.1318 23.2208C37.0127 23.2367 36.8958 23.2638 36.7811 23.3021C34.8116 23.788 32.8416 24.2723 30.8712 24.755C30.054 24.9551 29.5108 25.0854 29.2414 25.1459L28.9199 24.9249C28.9171 24.923 28.9149 24.9204 28.9134 24.9173C28.9119 24.9143 28.9112 24.9109 28.9114 24.9075C28.9116 24.9041 28.9127 24.9008 28.9146 24.898C28.9164 24.8951 28.919 24.8928 28.922 24.8913L28.9697 24.8668L32.6062 23.8689C32.7972 23.8272 32.9859 23.7769 33.1724 23.718C35.1686 23.1712 37.1652 22.6263 39.1623 22.0832C39.3562 22.0305 39.5526 21.9736 39.7515 21.9122C39.7576 21.9103 39.7637 21.9109 39.7695 21.914L40.5239 22.3209Z" fill="white"/>
<path d="M40.5485 22.5581C40.5551 22.5629 40.5575 22.5679 40.5557 22.5729C40.5535 22.5795 40.5478 22.5836 40.5386 22.5853C40.4838 22.5956 40.4331 22.6149 40.3772 22.6186C40.2656 22.6261 40.1781 22.6405 40.1145 22.6621C40.0598 22.6806 40.0095 22.6927 39.9636 22.6983C39.7973 22.7187 39.6407 22.7521 39.468 22.7889C39.3804 22.8077 39.2841 22.8134 39.2028 22.8295C38.9936 22.8705 38.7832 22.8981 38.5819 22.946C38.4742 22.9718 38.3561 22.9744 38.2457 22.9987C38.1355 23.0229 38.0684 23.037 38.0441 23.0412C37.6966 23.0999 37.3479 23.1545 36.998 23.2051C37.3367 23.1386 37.6758 23.0748 38.0152 23.0136C38.8596 22.8613 39.7041 22.7095 40.5485 22.5581Z" fill="#2477F4"/>
<path d="M42.4966 23.3487L41.6378 22.9285C41.6252 22.9224 41.6106 22.9206 41.5966 22.9235C41.1561 23.0118 40.7178 23.1066 40.2818 23.2078C39.9651 23.2814 39.6202 23.3487 39.3467 23.4101C37.7057 23.7784 36.1206 24.1158 34.4162 24.4992C34.4122 24.4908 34.4102 24.4824 34.4104 24.4742C34.4108 24.4656 34.4156 24.4601 34.4249 24.4577C34.54 24.4276 34.6482 24.3915 34.7659 24.3739C34.9246 24.35 35.0279 24.3321 35.0757 24.3202C35.5744 24.1973 35.9865 24.1062 36.3122 24.047C36.4056 24.0298 36.5043 23.9893 36.5869 23.9754C36.9255 23.9187 37.262 23.8542 37.5967 23.7818C37.7099 23.7572 37.8142 23.714 37.9279 23.688C38.1354 23.6404 38.3431 23.5945 38.5513 23.5504C38.6818 23.5229 38.812 23.4938 38.9416 23.4631C39.5785 23.3124 40.2277 23.1966 40.8587 23.0359C41.082 22.9791 41.2982 22.9576 41.5127 22.8984C41.575 22.8812 41.6238 22.8707 41.6866 22.9013C41.9402 23.0245 42.1941 23.1466 42.4483 23.2678C42.4847 23.2851 42.5008 23.3121 42.4966 23.3487Z" fill="#2477F4"/>
<path d="M42.4946 23.3662C42.4993 23.3861 42.498 23.4059 42.4908 23.4258L30.6157 26.1158C30.607 26.1177 30.5989 26.1162 30.5916 26.1112L30.2506 25.8721L30.2118 25.8346C30.2022 25.8254 30.2033 25.8182 30.2151 25.813L30.2773 25.785L33.903 24.8566L34.6219 24.6725C36.2825 24.2372 37.8269 23.8541 39.4257 23.4359C39.6921 23.3662 40.0282 23.2897 40.3368 23.2062C40.7615 23.0913 41.1886 22.9837 41.6178 22.8834C41.6314 22.8801 41.6457 22.8821 41.6579 22.8891L42.4946 23.3662Z" fill="white"/>
<path d="M36.6748 23.2051C36.5235 23.2673 36.3471 23.3074 36.2111 23.3508C36.0091 23.4154 35.7943 23.4426 35.5968 23.5148C35.5253 23.5406 35.4432 23.553 35.3835 23.5697C35.1036 23.6486 34.824 23.7348 34.5378 23.7833C34.3929 23.8078 34.2557 23.8786 34.1291 23.9064C34.0401 23.9258 33.9527 23.9373 33.866 23.9648C33.5681 24.0596 33.2648 24.1159 32.9662 24.2031C32.8556 24.2355 32.742 24.2484 32.6339 24.2915C32.6129 24.2997 32.5956 24.3054 32.5821 24.3084C32.194 24.3934 31.8083 24.4884 31.4248 24.5936C31.1769 24.6618 30.8503 24.7313 30.5669 24.8212C30.4217 24.8673 30.2705 24.8788 30.1048 24.9351C29.9286 24.9949 29.6874 25.0162 29.4823 25.0781C29.4052 25.1017 29.3277 25.124 29.2499 25.1452C29.2404 25.1477 29.2354 25.1438 29.2349 25.1336C29.2344 25.1254 29.2367 25.1176 29.2418 25.1105C29.5073 25.048 30.0429 24.9133 30.8485 24.7065C32.791 24.2077 34.7331 23.7073 36.6748 23.2051Z" fill="#2477F4"/>
<path d="M42.4906 23.5293C42.5102 23.5558 42.4831 23.5723 42.4602 23.5767C42.2841 23.6101 42.108 23.6432 41.9317 23.6758C41.8172 23.6972 41.6885 23.751 41.5939 23.7688C41.2727 23.829 41.0273 23.8768 40.8578 23.9122C40.7816 23.9282 40.6665 23.95 40.5125 23.9778C40.2713 24.0214 40.0065 24.1012 39.8001 24.1434C39.6193 24.1805 39.4398 24.215 39.2614 24.2613C39.1866 24.2807 39.1064 24.2843 39.0365 24.3036C38.7552 24.382 38.5759 24.4242 38.4987 24.43C38.36 24.4401 38.2246 24.4672 38.0925 24.5111C38.0688 24.5191 38.0353 24.5103 38.0154 24.5155C37.913 24.5416 37.8095 24.5629 37.7052 24.5794C37.5958 24.5969 37.4932 24.6437 37.3818 24.6674C37.1018 24.7266 36.8213 24.7838 36.5402 24.8389C36.2645 24.893 35.9295 24.9901 35.6169 25.0426C35.4325 25.0735 35.2396 25.1507 35.0573 25.169C34.8398 25.1912 34.6201 25.2563 34.3973 25.3088C34.308 25.3297 34.1917 25.3328 34.0893 25.3657C33.9911 25.3977 33.8993 25.3984 33.818 25.417C33.6112 25.4641 33.4064 25.5141 33.1975 25.5524C33.1145 25.5676 33.0363 25.6003 32.9571 25.6116C32.6696 25.6531 32.3913 25.7448 32.1029 25.7929C32.0875 25.7957 32.0581 25.8043 32.0147 25.8189C31.9717 25.8333 31.9281 25.8321 31.892 25.8398C31.4512 25.9356 31.1337 26.0365 30.7722 26.078C30.7023 26.0859 30.6445 26.1009 30.5774 26.1161C30.569 26.118 30.5608 26.1173 30.5529 26.114C30.5148 26.0983 30.1452 25.9026 30.2138 25.8529L30.5558 26.08C30.5632 26.0848 30.5712 26.0863 30.58 26.0844L42.4906 23.5293Z" fill="#2477F4"/>
<path d="M32.4695 23.8651L28.9181 24.8225C28.9126 24.8136 28.9104 24.8071 28.9116 24.803C28.9137 24.7952 28.9167 24.7882 28.9202 24.7829C28.9236 24.7777 28.9274 24.7744 28.931 24.7735C29.2397 24.6955 29.5426 24.6118 29.8397 24.5224C30.0663 24.4542 30.3194 24.3994 30.5737 24.3274C30.7466 24.2784 31.093 24.1838 31.6129 24.0436C31.7994 23.9931 32.091 23.9376 32.3375 23.8604C32.3775 23.8479 32.4215 23.8495 32.4695 23.8651Z" fill="#2477F4"/>
<path d="M26.8566 24.6091C27.4171 24.9569 27.9743 25.3094 28.5283 25.6667C28.953 25.9402 29.3869 26.2037 29.8137 26.4761C29.8367 26.4906 29.8735 26.5049 29.8738 26.537C29.8833 31.768 29.883 36.9987 29.8795 42.2297C29.8795 42.2508 29.8763 42.2668 29.87 42.2778C29.8683 42.2808 29.866 42.2834 29.8632 42.2854C29.8604 42.2875 29.8572 42.289 29.8539 42.2899C29.8505 42.2907 29.847 42.2909 29.8435 42.2905C29.84 42.29 29.8367 42.2889 29.8338 42.2872L26.647 40.4199C26.6556 38.8308 26.6627 37.2409 26.6543 35.6521C26.6537 35.5731 26.6616 35.4878 26.6616 35.4166C26.6616 31.8125 26.6636 28.2083 26.6675 24.6042C26.6675 24.5737 26.6681 24.5429 26.6692 24.5118C26.6695 24.4991 26.6753 24.4962 26.6865 24.5033L26.8566 24.6091Z" fill="white"/>
<path d="M33.1767 36.7556C33.0315 36.7794 32.7962 36.8743 32.7955 36.6106C32.7908 34.5581 32.7927 32.7745 32.8012 31.2597C32.8017 31.1463 32.9317 31.1212 33.0137 31.0974C33.1334 31.0642 33.3342 31.0139 33.6159 30.9466C36.2599 30.3145 38.9039 29.6827 41.548 29.0511C41.6997 29.0148 41.8422 28.9949 41.8425 29.2097C41.8435 29.9166 41.8436 31.6127 41.8427 34.2982C41.8427 34.4811 41.9044 34.6727 41.6747 34.7268C39.5894 35.2197 37.5045 35.7145 35.4199 36.2112C34.6716 36.3896 33.9239 36.5711 33.1767 36.7556Z" fill="white"/>
<path d="M38.6155 41.458C35.9041 42.0393 33.1927 42.6202 30.4811 43.2009C30.1996 43.2613 30.0896 43.3083 29.8684 43.1742C29.2636 42.8082 28.6743 42.4181 28.0771 42.0393C27.4442 41.6378 26.8105 41.2374 26.1761 40.8383C26.1131 40.7986 26.0544 40.7529 26 40.7012L26.0396 40.6766C26.0478 40.6715 26.056 40.6716 26.064 40.6769C26.1975 40.7659 26.3006 40.8286 26.3734 40.8648C26.4568 40.9063 26.5106 40.9713 26.5878 41.0049C26.6394 41.0275 26.6731 41.0442 26.689 41.0549C26.9717 41.245 27.2206 41.4002 27.4355 41.5206C27.5864 41.6053 27.7174 41.7301 27.8795 41.8126C27.8872 41.8164 27.8935 41.822 27.8984 41.8292C27.9278 41.8727 27.9732 41.8727 28.0055 41.8912C28.1167 41.955 28.225 42.0237 28.3303 42.0975C28.4972 42.2146 28.679 42.308 28.848 42.4249C29.0204 42.544 29.2088 42.6536 29.3995 42.7494C29.6824 42.8917 29.8776 43.166 30.1888 43.2009C30.2275 43.2053 30.2678 43.2008 30.3098 43.1875C30.4569 43.1407 30.6067 43.1085 30.7593 43.0909C30.7678 43.0899 30.7756 43.0869 30.7826 43.0818C30.7884 43.0775 30.7947 43.0745 30.8015 43.0728C31.0217 43.0153 31.2099 42.9781 31.3659 42.9614C31.474 42.9496 31.5609 42.9024 31.6514 42.8901C31.7519 42.8767 31.8419 42.8666 31.9429 42.8387C32.2659 42.7497 32.6262 42.6896 32.9216 42.6224C33.123 42.5765 33.3252 42.5358 33.5283 42.5003C33.7607 42.4594 34.0168 42.3829 34.2666 42.3436C34.4944 42.3075 34.7216 42.2122 34.9407 42.2023C35.0079 42.1994 35.0633 42.1857 35.1071 42.1611C35.1952 42.1119 35.2383 42.1108 35.3348 42.0999C35.5558 42.0744 35.7408 42.0372 35.89 41.9882C36.1574 41.9003 36.44 41.9101 36.6917 41.8049C36.7475 41.7814 36.8249 41.7771 36.8659 41.7686C37.0073 41.7394 37.1487 41.7186 37.2889 41.6815C37.5943 41.6004 37.8677 41.5979 38.1521 41.5124C38.2901 41.4709 38.4313 41.4442 38.5756 41.4324C38.5833 41.4318 38.5901 41.4343 38.5958 41.4397L38.6155 41.458Z" fill="#2477F4"/>
</svg>
