<svg width="352" height="230" viewBox="0 0 352 230" fill="none" xmlns="http://www.w3.org/2000/svg">
<path d="M190.412 4.3522C188.718 4.13922 187.142 4.7186 185.72 5.64994C177.673 10.9143 169.633 16.1908 161.601 21.4792C160.204 22.3985 159.229 23.094 158.678 23.5657C154.756 26.9157 151.505 33.2131 151.483 38.4276C151.457 45.0613 151.469 51.6908 151.521 58.3161C151.521 58.3302 151.517 58.3441 151.51 58.3563C151.503 58.3684 151.492 58.3784 151.48 58.3851C151.468 58.3918 151.454 58.3949 151.44 58.3942C151.426 58.3935 151.412 58.389 151.4 58.3811C150.484 57.7434 149.537 57.1664 148.56 56.6502L148.388 56.522C147.644 56.013 146.863 55.5588 146.045 55.1593C146.019 55.1467 145.997 55.1274 145.982 55.1036C145.966 55.0797 145.958 55.0522 145.957 55.0239L145.853 52.3237C145.885 52.0801 146.082 48.7427 145.741 48.851C145.856 48.6224 145.914 48.4082 145.915 48.2085C145.921 45.7105 145.903 41.653 145.86 36.036C145.813 29.9642 149.167 23.1975 153.973 19.5299C154.304 19.2772 155.298 18.6094 156.957 17.5264C164.579 12.5508 172.19 7.55836 179.788 2.54907C181.372 1.50221 183.254 0.653887 185.156 1.14122C185.645 1.26636 186.415 1.65563 187.464 2.30901C188.411 2.89862 189.368 3.47259 190.334 4.03092C190.385 4.061 190.41 4.10492 190.412 4.16268V4.3522Z" fill="#557FBF"/>
<path d="M190.412 4.35193C193.27 5.01254 194.307 7.91487 194.311 10.5988C194.313 12.6408 194.361 14.6822 194.456 16.7229C194.408 16.7976 194.385 16.8842 194.386 16.9829C194.429 20.6565 194.466 24.3301 194.497 28.0038C194.503 28.5976 195.477 29.0308 195.974 29.2149C196.202 29.4905 196.484 29.6884 196.819 29.8087C198.373 31.0974 199.977 32.684 200.806 34.4943C201.152 35.2524 201.17 36.052 201.123 36.8624C201.119 36.9611 201.075 37.0381 200.992 37.0934C198.696 38.6336 196.388 40.1504 194.07 41.6437C193.704 41.8801 193.467 42.2068 192.916 42.2628C193.071 37.9887 188.587 35.2362 185.477 33.4258C183.487 32.2309 181.388 30.5975 178.935 30.7365C178.841 30.787 178.763 30.784 178.702 30.7274C178.639 30.6685 178.644 30.6155 178.716 30.5686L183.26 27.6663C183.317 27.6302 183.366 27.6398 183.407 27.6951C183.473 27.783 183.502 27.8859 183.496 28.0038L183.514 30.2221C183.514 30.2894 183.543 30.3406 183.6 30.3755L185.843 31.749L184.706 32.5793C184.638 32.6298 184.639 32.678 184.709 32.7237C184.986 32.9042 185.903 32.1335 186.195 31.9674C186.207 31.9698 186.22 31.9722 186.233 31.9746L188.949 33.5684C189.015 33.6057 189.047 33.5865 189.046 33.5106C188.979 27.4076 188.891 21.3039 188.782 15.1996C188.768 14.3982 188.699 13.8543 188.574 13.5679C187.342 10.7378 184.93 12.6889 183.19 13.873C176.024 18.5526 168.87 23.2496 161.727 27.9641C159.414 29.4911 157.946 31.3465 157.3 34.09C157.148 34.7386 157.074 35.6236 157.078 36.7451C157.084 38.3418 157.088 39.9404 157.09 41.5408L157.155 53.0364C157.155 53.0731 157.164 53.1091 157.183 53.1405C157.201 53.1719 157.227 53.1977 157.259 53.2151L158.608 53.9858C158.866 54.2903 159.11 54.4605 159.338 54.4966C160.869 55.6879 163.09 57.8646 163.539 59.7724C163.637 60.1858 163.874 61.6279 163.46 61.8968C160.88 63.5694 158.32 65.2739 155.782 67.0102C155.599 67.1348 155.441 67.1023 155.43 66.855C155.468 63.4635 152.271 60.8157 149.673 59.2255C148.158 58.299 146.641 57.3773 145.121 56.4604C143.833 55.6855 142.545 55.375 141.256 55.529C141.204 55.4256 141.242 55.3305 141.37 55.2439C142.841 54.2391 144.335 53.2656 145.853 52.3235L145.957 55.0237C145.958 55.052 145.966 55.0795 145.982 55.1033C145.997 55.1271 146.019 55.1464 146.045 55.159C146.863 55.5585 147.644 56.0128 148.388 56.5218L147.159 57.3141C147.091 57.3574 147.088 57.405 147.15 57.4567C147.167 57.4699 147.185 57.4814 147.204 57.491C147.257 57.5187 147.312 57.5181 147.367 57.4892C147.8 57.263 148.198 56.9832 148.56 56.6499C149.537 57.1661 150.484 57.7431 151.4 58.3808C151.412 58.3887 151.426 58.3933 151.44 58.394C151.454 58.3946 151.468 58.3915 151.48 58.3848C151.492 58.3781 151.503 58.3682 151.51 58.356C151.517 58.3439 151.521 58.33 151.521 58.3159C151.469 51.6905 151.457 45.061 151.483 38.4273C151.505 33.2128 154.756 26.9154 158.678 23.5655C159.229 23.0938 160.204 22.3983 161.601 21.479C169.633 16.1905 177.673 10.9141 185.72 5.64968C187.142 4.71833 188.718 4.13895 190.412 4.35193Z" fill="#EEF5FF"/>
<path d="M229.041 8.55566L229.123 8.7885C228.19 9.08451 227.491 9.38654 227.026 9.69458C224.313 11.4959 221.6 13.2972 218.889 15.0986C211.628 19.8961 204.367 24.693 197.108 29.4893C196.943 29.5976 196.927 29.6662 196.819 29.8088C196.484 29.6884 196.202 29.4905 195.974 29.2149C196.582 28.8876 197.413 28.3714 198.468 27.6663C204.456 23.6702 213.567 17.6513 225.8 9.60975C226.889 8.89319 227.817 8.58635 229.041 8.55566Z" fill="#557FBF"/>
<path d="M186.233 31.9749C186.344 31.8738 186.353 31.7896 186.26 31.7222C185.752 31.3492 184.984 30.8516 183.954 30.2295C183.898 30.1959 183.868 30.1459 183.866 30.0797L183.78 26.9626C183.777 26.8964 183.752 26.8423 183.703 26.8002C183.621 26.7292 183.54 26.7418 183.459 26.8381L183.396 24.1108C183.395 24.0952 183.387 24.0856 183.373 24.0819C183.356 24.0783 183.34 24.0747 183.324 24.0711C183.385 23.9652 183.414 23.8323 183.412 23.6722C183.38 20.5918 183.333 17.5114 183.27 14.431C183.269 14.3696 183.282 14.3112 183.31 14.2559C183.389 14.0995 183.349 13.9719 183.19 13.8732C184.93 12.6892 187.342 10.7381 188.574 13.5682C188.699 13.8546 188.768 14.3985 188.782 15.1999C188.891 21.3041 188.979 27.4078 189.046 33.5109C189.047 33.5867 189.015 33.606 188.949 33.5687L186.233 31.9749Z" fill="#557FBF"/>
<path d="M186.233 31.975C186.22 31.9726 186.207 31.9702 186.195 31.9678L185.843 31.7494L183.6 30.3759C183.543 30.341 183.514 30.2899 183.514 30.2225L183.496 28.0044L183.459 26.8385C183.54 26.7422 183.621 26.7296 183.703 26.8006C183.752 26.8427 183.778 26.8968 183.78 26.963L183.866 30.0799C183.868 30.1461 183.898 30.1961 183.954 30.2297C184.984 30.8518 185.752 31.3493 186.26 31.7223C186.353 31.7897 186.344 31.8739 186.233 31.975Z" fill="#557FBF"/>
<path d="M178.935 30.7366C181.388 30.5976 183.487 32.231 185.477 33.4258C185.335 33.5208 185.184 33.5305 185.025 33.4547C185 33.4429 184.973 33.4374 184.945 33.4387C184.917 33.4399 184.891 33.4479 184.867 33.462C184.843 33.476 184.823 33.4956 184.808 33.5192C184.794 33.5428 184.785 33.5695 184.783 33.5972C184.7 34.8053 184.714 36.0127 184.824 37.2195C184.834 37.3242 184.793 37.3501 184.702 37.2971C184.624 37.2514 184.545 37.2105 184.465 37.1744C184.407 37.1491 184.359 37.11 184.324 37.0571C184.254 36.956 184.245 36.8838 184.295 36.8405C184.333 36.8068 184.351 36.7641 184.349 36.7124C184.289 35.6668 184.287 34.62 184.343 33.572C184.358 33.3067 184.306 32.9439 184.078 32.8356C182.21 31.9404 180.489 30.6355 178.332 31.2329C178.257 31.254 178.191 31.2996 178.145 31.3626C178.098 31.4256 178.073 31.5025 178.074 31.5812L178.096 32.9511C178.097 33.0016 178.119 33.0395 178.162 33.0648L179.52 33.9077C179.573 33.9401 179.611 33.9847 179.633 34.0412C179.691 34.1916 179.65 34.2873 179.511 34.3282L177.902 33.3337C177.86 33.3085 177.832 33.2724 177.818 33.2254C177.438 31.932 177.811 31.1024 178.935 30.7366Z" fill="#557FBF"/>
<path d="M185.477 33.426C188.587 35.2364 193.071 37.9889 192.916 42.263L192.871 42.4435C190.247 40.7854 187.586 39.1892 184.887 37.655C184.833 37.6249 184.78 37.6267 184.727 37.6604L173.77 44.9181L159.338 54.4968C159.11 54.4607 158.866 54.2905 158.608 53.9861L184.054 37.1641C184.109 37.128 184.109 37.0925 184.053 37.0576L179.511 34.3285C179.65 34.2876 179.691 34.1919 179.633 34.0415C179.611 33.985 179.573 33.9404 179.52 33.908L178.162 33.0651C178.119 33.0398 178.097 33.0019 178.096 32.9513L178.074 31.5814C178.073 31.5026 178.098 31.4257 178.145 31.3627C178.191 31.2997 178.257 31.2541 178.332 31.2331C180.489 30.6356 182.21 31.9406 184.078 32.8358C184.306 32.9441 184.358 33.3069 184.343 33.5722C184.287 34.6203 184.289 35.6672 184.349 36.7128C184.351 36.7646 184.333 36.8073 184.295 36.841C184.245 36.8843 184.254 36.9565 184.324 37.0576C184.359 37.1105 184.407 37.1496 184.465 37.1749C184.545 37.211 184.624 37.2519 184.702 37.2976C184.793 37.3506 184.834 37.3247 184.824 37.22C184.714 36.0131 184.7 34.8056 184.783 33.5975C184.785 33.5698 184.794 33.543 184.808 33.5195C184.823 33.4959 184.843 33.4763 184.867 33.4622C184.891 33.4482 184.917 33.4402 184.945 33.4389C184.973 33.4377 185 33.4432 185.025 33.4549C185.184 33.5307 185.335 33.5211 185.477 33.426Z" fill="#557FBF"/>
<path d="M185.843 31.7493L186.195 31.9677C185.903 32.1337 184.986 32.9044 184.709 32.7239C184.639 32.6782 184.638 32.63 184.706 32.5795L185.843 31.7493Z" fill="#A6CAFF"/>
<path fill-rule="evenodd" clip-rule="evenodd" d="M229.04 8.55632C227.817 8.587 226.889 8.89384 225.8 9.6104C213.567 17.652 204.456 23.6708 198.468 27.667C197.413 28.3721 196.581 28.8883 195.974 29.2156C195.477 29.0315 194.502 28.5983 194.497 28.0045C194.466 24.3308 194.429 20.6572 194.386 16.9836C194.385 16.8849 194.408 16.7983 194.456 16.7236C204.026 10.4509 210.802 5.9873 214.781 3.33284C215.799 2.65418 217.184 2.221 218.318 2.82565C221.897 4.73166 225.471 6.64188 229.04 8.55632ZM183.324 24.0718C183.34 24.0754 183.356 24.079 183.373 24.0826C183.387 24.0863 183.395 24.0959 183.396 24.1115L183.459 26.8388L183.493 27.9128C183.484 27.8325 183.455 27.7603 183.407 27.6961C183.366 27.6408 183.317 27.6311 183.26 27.6672L178.716 30.5696C178.644 30.6165 178.639 30.6695 178.702 30.7284C178.74 30.7637 178.785 30.7781 178.836 30.7717C177.789 31.1536 177.45 31.9718 177.818 33.2264C177.832 33.2734 177.86 33.3095 177.902 33.3347L179.511 34.3293L184.053 37.0583C184.109 37.0932 184.109 37.1287 184.054 37.1648L158.608 53.9868L157.259 53.2161C157.227 53.1986 157.201 53.1729 157.183 53.1415C157.164 53.11 157.155 53.0741 157.155 53.0374L157.09 41.5418C157.162 41.4763 157.232 41.4086 157.3 41.3412C157.452 41.193 157.601 41.0465 157.779 40.9299C166.298 35.3178 174.813 29.6984 183.324 24.0718ZM178.935 30.7374C178.902 30.7485 178.868 30.7599 178.836 30.7717C178.867 30.7679 178.9 30.7564 178.935 30.7374ZM183.496 28.0048C183.498 27.973 183.497 27.9424 183.493 27.9128L183.496 28.0048ZM145.853 52.3241C145.885 52.0805 146.082 48.7431 145.741 48.8514C129.698 59.4452 113.652 70.0341 97.6027 80.6183C95.4843 82.0153 93.9568 83.8503 93.0201 86.1233L104.042 92.5308C104.096 92.5621 104.137 92.5495 104.164 92.4929C105.081 90.6212 106.404 88.6647 108.157 87.4879C112.191 84.7744 116.245 82.0887 120.316 79.4306C122.798 77.8107 125.26 76.1595 127.722 74.5082C130.28 72.7924 132.838 71.0765 135.419 69.3952C137.424 68.0886 139.411 66.7531 141.398 65.4178C143.089 64.2814 144.779 63.1453 146.481 62.0275C146.492 62.0204 146.501 62.0105 146.507 61.9988C146.513 61.9871 146.516 61.9739 146.516 61.9605C146.515 61.9471 146.512 61.934 146.505 61.9223C146.498 61.9107 146.488 61.9009 146.477 61.8939L140.17 58.0656C140.115 58.0319 140.091 57.9826 140.096 57.9176L140.267 56.0315C140.274 55.959 140.303 55.8903 140.349 55.8348C140.396 55.7793 140.459 55.7395 140.529 55.721L141.256 55.5297C141.204 55.4262 141.242 55.3312 141.37 55.2445C142.841 54.2398 144.335 53.2663 145.853 52.3241Z" fill="#A6CAFF"/>
<path d="M155.43 66.855C155.4 67.0126 155.323 67.0999 155.197 67.1167C155.151 67.1237 155.104 67.1141 155.064 67.0896L147.43 62.4437C147.383 62.4149 147.337 62.4155 147.292 62.4455L135.821 69.9613C126.075 76.3267 119.898 80.389 117.29 82.1482C114.022 84.352 111.501 85.8501 108.738 87.915C107.094 89.1423 105.916 91.1783 105.112 93.05C105.087 93.1078 105.102 93.1523 105.157 93.1836C109.12 95.4674 113.061 97.7855 116.981 100.138C117.254 100.302 117.412 100.459 117.661 100.652C116.967 102.26 116.547 103.854 116.4 105.435C116.242 107.127 116.342 109.424 116.344 110.738C116.37 145.179 116.409 179.619 116.461 214.058C116.462 215.556 116.889 216.904 117.743 218.101C117.54 218.172 117.377 218.173 117.254 218.103C113.711 216.072 110.147 214.077 106.563 212.118C106.37 212.012 106.029 211.857 105.542 211.652C104.76 211.324 103.797 210.616 103.346 210.362C100.424 208.704 97.5011 207.046 94.5776 205.389C93.9388 205.026 93.3629 205.068 92.8425 204.472C92.1787 203.715 91.7791 203.204 91.644 202.938C90.946 201.572 90.9998 199.464 91.0016 197.861C91.0465 173.584 91.0034 149.306 91.1631 125.03C91.1978 119.792 91.2038 114.554 91.181 109.316C91.2349 104.112 91.2654 98.9076 91.2725 93.7034C91.2761 91.3967 91.6996 89.1742 92.5429 87.036C92.6697 86.7135 92.8288 86.409 93.0202 86.1227L104.042 92.5302C104.096 92.5615 104.137 92.5488 104.164 92.4923C105.081 90.6206 106.404 88.664 108.157 87.4872C112.191 84.7738 116.245 82.088 120.316 79.43C125.376 76.1269 130.354 72.694 135.419 69.3945C139.131 66.9759 142.781 64.458 146.481 62.0268C146.492 62.0197 146.501 62.0099 146.507 61.9981C146.513 61.9864 146.516 61.9732 146.516 61.9599C146.515 61.9465 146.512 61.9333 146.505 61.9217C146.498 61.91 146.488 61.9002 146.477 61.8932L140.17 58.065C140.115 58.0313 140.091 57.9819 140.097 57.917L140.267 56.0308C140.274 55.9583 140.303 55.8896 140.349 55.8341C140.396 55.7786 140.459 55.7389 140.529 55.7204L141.256 55.529C142.545 55.375 143.833 55.6855 145.12 56.4604C146.641 57.3773 148.158 58.299 149.673 59.2255C152.271 60.8157 155.468 63.4635 155.43 66.855Z" fill="#557FBF"/>
<path d="M148.388 56.522L148.56 56.6501C148.198 56.9834 147.8 57.2632 147.367 57.4894C147.312 57.5182 147.258 57.5188 147.204 57.4912C147.185 57.4815 147.167 57.4701 147.15 57.4569C147.088 57.4051 147.091 57.3576 147.159 57.3143L148.388 56.522Z" fill="#A6CAFF"/>
<path d="M229.123 8.78857C229.456 8.86558 229.938 9.07015 230.569 9.40225C234.633 11.5357 238.683 13.7034 242.722 15.9054C241.581 15.8778 240.64 16.1094 239.901 16.6003C235.387 19.5965 230.867 22.5831 226.342 25.56L214.365 33.5162L181.088 55.5291L172.559 61.2075L142.826 80.8885L140.351 82.5652C134.733 86.2762 129.117 89.992 123.503 93.7125C120.821 95.4904 119.157 97.1437 117.973 100.021C117.916 100.16 117.812 100.371 117.661 100.652C117.584 100.593 117.515 100.536 117.449 100.482C117.303 100.361 117.169 100.251 116.981 100.138C113.061 97.7857 109.12 95.4675 105.157 93.1837C105.102 93.1524 105.087 93.1079 105.112 93.0501C105.916 91.1784 107.094 89.1424 108.738 87.9151C110.535 86.572 112.23 85.4687 114.095 84.255C115.097 83.6028 116.147 82.9186 117.29 82.1483C119.898 80.3891 126.075 76.3268 135.821 69.9614L147.292 62.4456C147.337 62.4156 147.383 62.415 147.43 62.4438L155.064 67.0897C155.104 67.1142 155.151 67.1238 155.197 67.1168C155.323 67.1 155.4 67.0127 155.43 66.8551C155.441 67.1024 155.599 67.1349 155.782 67.0103C158.32 65.274 160.88 63.5695 163.46 61.8969C163.874 61.628 163.637 60.1859 163.539 59.7725C163.09 57.8647 160.869 55.688 159.338 54.4967L184.727 37.6603C184.78 37.6266 184.833 37.6248 184.887 37.6549C187.586 39.1891 190.247 40.7852 192.871 42.4434L192.916 42.2629C193.318 42.2221 193.553 42.0371 193.793 41.8483C193.882 41.7783 193.971 41.7077 194.07 41.6438C196.388 40.1505 198.696 38.6338 200.992 37.0935C201.075 37.0382 201.119 36.9612 201.123 36.8625C201.17 36.0521 201.152 35.2525 200.806 34.4944C199.977 32.6841 198.373 31.0976 196.819 29.8088C196.824 29.8019 196.829 29.795 196.834 29.7884C196.839 29.7822 196.843 29.7761 196.847 29.7702C196.862 29.7499 196.874 29.7312 196.887 29.7135C196.944 29.6294 196.984 29.5704 197.108 29.4894C204.367 24.693 211.628 19.8961 218.888 15.0986C221.6 13.2973 224.313 11.496 227.025 9.69465C227.491 9.38661 228.19 9.08458 229.123 8.78857Z" fill="#A6CAFF"/>
<path d="M191.04 83.1971C191.088 83.336 191.111 83.5129 191.04 83.6537C188.231 89.1985 185.486 94.7745 182.806 100.382C180.687 104.815 178.417 109.175 176.285 113.605C174.611 117.085 172.904 120.55 171.164 123.999C171.107 122.541 171.283 120.868 171.06 119.473C171.048 119.396 171.009 119.376 170.942 119.415L161.095 125.117C161.085 125.123 161.073 125.125 161.061 125.124C161.049 125.122 161.038 125.117 161.029 125.109C161.02 125.1 161.015 125.089 161.013 125.077C161.01 125.066 161.012 125.053 161.018 125.043L179.519 87.2961L184.419 77.4123C184.422 77.4044 184.428 77.3976 184.435 77.3922C184.442 77.3869 184.45 77.3833 184.459 77.3815C184.467 77.3798 184.476 77.38 184.485 77.3822C184.493 77.3844 184.502 77.3885 184.508 77.3942C186.577 79.21 188.638 81.0179 190.691 82.818C190.775 82.8902 190.891 83.0166 191.04 83.1971Z" fill="#A6CAFF"/>
<path fill-rule="evenodd" clip-rule="evenodd" d="M245.557 22.3168C245.477 19.8968 245.38 16.9322 242.722 15.9053C241.581 15.8776 240.64 16.1093 239.901 16.6002C235.387 19.5964 230.867 22.5829 226.342 25.5599L214.365 33.516L181.088 55.529L172.559 61.2074L142.826 80.8884L140.351 82.5652C134.733 86.2761 129.117 89.9919 123.503 93.7124C120.821 95.4903 119.157 97.1436 117.973 100.021C117.916 100.16 117.812 100.371 117.661 100.652C116.967 102.26 116.547 103.854 116.4 105.435C116.281 106.706 116.308 108.32 116.33 109.601C116.337 110.024 116.343 110.412 116.344 110.738C116.37 145.179 116.409 179.619 116.461 214.058C116.462 215.556 116.889 216.904 117.743 218.101C119.276 219.782 121.178 219.148 122.789 218.051C129.507 213.479 136.228 208.914 142.953 204.353L176.289 181.784C172.917 173.989 171.082 165.126 171.075 156.82C171.069 148.29 171.071 139.761 171.082 131.232C171.082 130.806 171.09 130.28 171.098 129.695C171.118 128.22 171.144 126.374 171.078 124.846C170.98 124.544 171.009 124.262 171.164 123.999C171.143 123.462 171.154 122.896 171.164 122.325C171.182 121.346 171.201 120.354 171.06 119.472C171.048 119.395 171.009 119.376 170.942 119.415L161.095 125.116C161.085 125.122 161.072 125.125 161.061 125.123C161.049 125.122 161.038 125.117 161.029 125.108C161.02 125.1 161.014 125.089 161.012 125.077C161.012 125.073 161.012 125.069 161.012 125.065C161.012 125.058 161.014 125.05 161.018 125.042L179.518 87.2959L184.419 77.4121C184.422 77.4042 184.428 77.3974 184.435 77.3921C184.436 77.3912 184.437 77.3903 184.438 77.3895C184.44 77.3887 184.441 77.3879 184.442 77.3871C184.447 77.3844 184.453 77.3825 184.459 77.3813C184.464 77.3801 184.47 77.3799 184.476 77.3805C184.479 77.3808 184.482 77.3813 184.485 77.382C184.487 77.3827 184.49 77.3835 184.492 77.3845C184.494 77.3852 184.496 77.386 184.498 77.3869C184.501 77.3889 184.505 77.3913 184.508 77.394C186.577 79.2098 188.638 81.0177 190.691 82.8178C190.775 82.89 190.891 83.0164 191.04 83.1969L191.172 83.1481C191.221 83.1289 191.252 83.094 191.266 83.0435C191.317 82.8461 191.377 82.6867 191.447 82.5651C192.24 81.1645 192.94 79.7176 193.548 78.2243C193.602 78.0919 193.75 77.8663 193.993 77.5474C194.03 77.4981 194.075 77.4873 194.129 77.5149C194.756 77.835 195.165 78.0835 195.355 78.2604C196.899 79.7007 198.466 81.1158 200.056 82.5056L217.446 97.741C217.579 97.8565 217.569 97.9588 217.417 98.0478L207.482 103.836C207.432 103.865 207.408 103.908 207.409 103.966C207.418 105.389 207.429 106.812 207.441 108.236C207.493 114.717 207.545 121.207 207.405 127.681C207.413 132.78 207.416 137.879 207.412 142.978C207.411 144.54 207.533 146.42 207.778 148.618C208.214 151.824 208.88 155.748 210.014 158.959C220.585 151.796 231.157 144.634 241.731 137.475C245.103 135.193 247.032 130.683 247.466 126.764C247.548 126.018 247.575 124.816 247.545 123.158C247.39 114.422 247.218 105.687 247.028 96.9522C246.954 92.097 246.857 87.2423 246.737 82.3882C246.706 81.135 246.691 79.8728 246.676 78.614C246.657 77.1081 246.639 75.6072 246.594 74.1325C246.441 69.1858 246.366 64.2359 246.291 59.2858C246.218 54.4825 246.146 49.679 246.002 44.8781C245.929 42.4158 245.886 39.9521 245.844 37.4881L245.844 37.4856L245.844 37.4838C245.802 35.0564 245.761 32.6288 245.689 30.2022C245.656 29.0496 245.644 27.8359 245.633 26.6039C245.619 25.2162 245.606 23.8049 245.56 22.4319L245.557 22.3168ZM214.552 33.6604C214.549 33.7112 214.547 33.7611 214.544 33.8102L214.544 33.8068C214.547 33.7588 214.549 33.71 214.552 33.6604Z" fill="#C5DCFF"/>
<path d="M180.819 144.738C180.798 148.373 180.807 152.739 180.846 157.835C180.885 162.917 181.568 167.864 182.895 172.675L184.031 176.413C184.045 176.461 184.039 176.506 184.011 176.548C184.002 176.564 183.995 176.58 183.99 176.595L176.289 181.784C172.917 173.989 171.082 165.127 171.075 156.82C171.069 148.29 171.071 139.761 171.082 131.232C171.084 129.732 171.17 126.979 171.078 124.846L180.532 119.42C180.72 119.313 180.813 119.368 180.812 119.585C180.811 125.677 180.812 131.835 180.816 138.058C180.816 139.558 180.904 142.507 180.819 144.738Z" fill="#A6CAFF"/>
<path fill-rule="evenodd" clip-rule="evenodd" d="M200.056 82.5058L217.446 97.7413C217.579 97.8568 217.569 97.9591 217.417 98.0481L207.482 103.837C207.432 103.865 207.408 103.909 207.409 103.966C207.418 105.389 207.429 106.812 207.441 108.236C207.493 114.717 207.545 121.207 207.405 127.682C207.413 132.78 207.416 137.879 207.412 142.978C207.411 144.54 207.533 146.42 207.778 148.619C208.214 151.824 208.88 155.748 210.014 158.959L209.989 159.048C209.973 159.104 209.974 159.16 209.991 159.215C212.467 167.321 216.08 174.874 220.832 181.875C225.856 189.268 232.066 195.874 239.478 200.736L247.2 205.391L260.941 213.502C261.02 213.549 261.02 213.597 260.941 213.645C258.56 215.083 256.145 216.5 253.696 217.897C249.296 220.405 244.921 222.958 240.546 225.511C238.682 226.598 236.819 227.685 234.954 228.769C234.899 228.801 234.852 228.839 234.808 228.876C234.684 228.978 234.58 229.063 234.366 228.936C231.265 227.118 228.172 225.285 225.086 223.437L221.46 221.358L214.57 217.217C207.461 212.945 201.244 206.933 196.378 200.202C190.962 193.105 186.857 185.051 183.99 176.595C183.995 176.58 184.002 176.564 184.011 176.548C184.039 176.506 184.045 176.461 184.031 176.413L182.895 172.675C181.568 167.864 180.885 162.917 180.846 157.835C180.807 152.739 180.798 148.373 180.819 144.738C180.879 143.168 180.853 141.241 180.832 139.715C180.824 139.073 180.816 138.502 180.816 138.058C180.812 131.835 180.811 125.677 180.812 119.585C180.813 119.368 180.72 119.313 180.532 119.42L171.078 124.846C170.98 124.544 171.009 124.262 171.164 123.999C172.904 120.55 174.611 117.085 176.285 113.605C177.308 111.479 178.363 109.369 179.418 107.258C180.561 104.973 181.704 102.687 182.806 100.382C185.486 94.7745 188.231 89.1985 191.04 83.6537C191.111 83.513 191.088 83.3361 191.04 83.1971L191.172 83.1484C191.221 83.1291 191.252 83.0942 191.266 83.0437C191.317 82.8463 191.377 82.6869 191.447 82.5654C192.24 81.1647 192.94 79.7178 193.548 78.2245C193.602 78.0921 193.75 77.8665 193.993 77.5477C194.03 77.4983 194.075 77.4875 194.129 77.5152C194.756 77.8352 195.165 78.0837 195.355 78.2606C196.899 79.7009 198.466 81.116 200.056 82.5058Z" fill="#FFB800"/>
</svg>
