<svg width="352" height="230" viewBox="0 0 352 230" fill="none" xmlns="http://www.w3.org/2000/svg">
<path d="M169.834 12.6856C169.481 12.998 169.062 13.0628 168.575 12.88C168.504 12.8541 168.434 12.8555 168.363 12.8843C166.795 13.5603 165.247 14.1628 163.806 15.1584C162.368 16.1539 160.371 16.9876 159.304 17.5728C154.984 19.9441 150.976 22.8056 146.584 25.0602C143.551 26.6173 140.437 28.5998 137.749 30.1245C133.111 32.7535 129.913 34.6028 128.153 35.6725C124.825 37.7004 121.621 39.9378 118.148 41.7173C113.935 43.8747 109.954 46.4036 105.73 48.5179C105.208 48.7792 104.687 49.2047 104.121 49.4811C103.506 49.782 103.094 49.9994 102.884 50.1333C100.484 51.6565 98.0427 53.11 95.5605 54.4936C93.3556 55.7202 91.0513 57.1758 89.3106 58.1563C85.7732 60.1474 83.389 63.0283 81.2963 66.1749C79.1928 69.3366 78.2772 74.403 78.3787 78.232C78.6184 87.4212 78.0634 96.4764 78.4219 105.771C78.501 107.819 79.3346 109.406 80.9227 110.533C80.9832 110.578 81.0076 110.637 80.9961 110.71L80.9486 111.013C79.5233 110.248 77.7956 109.361 76.8497 108.156C75.6619 106.642 75.1155 104.312 75.1414 102.383C75.1587 101.016 75.0637 99.4977 75.0658 98.2797C75.0766 90.3798 74.893 82.4325 75.096 74.5391C75.2559 68.2892 78.3743 62.5036 83.0326 58.4089C83.8993 57.6473 85.4291 56.6388 87.6218 55.3833C92.0447 52.8508 96.4683 50.3212 100.893 47.7944C106.145 44.7969 111.339 41.7043 116.602 38.7219C117.884 37.9948 119.131 37.275 120.342 36.5623C126.825 32.7484 133.386 29.0706 139.867 25.261C146.11 21.5926 152.387 17.9846 158.699 14.4371C162.318 12.4027 165.69 9.89323 169.834 12.6856Z" fill="#A6CAFF"/>
<path d="M169.834 12.6855C174.19 14.5536 174.913 17.2726 174.931 21.7192C174.981 34.638 174.992 43.9611 174.963 49.6884C174.954 51.4959 174.453 53.202 173.808 55.0334C171.797 60.7413 168.221 64.5918 163.018 67.5311C160.183 69.1335 157.361 70.7842 154.553 72.4831C154.516 72.5052 154.485 72.5357 154.462 72.5721C154.439 72.6085 154.425 72.6497 154.421 72.6925L152.978 88.8292C152.972 88.8925 152.938 88.9184 152.875 88.9069C147.45 87.8595 142.066 86.5378 136.684 85.3349C136.556 84.9404 136.289 84.7072 135.885 84.6352C135.133 84.497 134.021 83.9225 133.308 84.2832C131.146 85.3788 129.125 86.5292 127.244 87.7343C126.873 87.9718 126.378 88.2468 125.761 88.5592C124.888 88.9998 124.197 89.5699 123.275 89.9522C122.454 90.2912 121.387 90.9888 120.917 91.2415C119.965 91.7511 119.033 92.2939 118.12 92.8698C118.075 92.8972 118.065 92.9346 118.09 92.9821C118.177 93.1477 118.125 93.3089 117.932 93.4659C115.435 94.8891 112.773 96.5433 110.503 97.8477C104.129 101.51 97.7756 105.208 91.4422 108.942C88.22 110.84 84.5509 113.203 80.9486 111.013L80.9961 110.71C81.0077 110.637 80.9832 110.578 80.9227 110.533C79.3347 109.406 78.5011 107.819 78.4219 105.771C78.0634 96.4764 78.6184 87.4211 78.3787 78.232C78.2772 74.403 79.1929 69.3365 81.2963 66.1748C83.389 63.0283 85.7732 60.1474 89.3106 58.1562C91.0513 57.1757 93.3556 55.7202 95.5606 54.4935C98.0427 53.1099 100.484 51.6565 102.884 50.1332C103.094 49.9993 103.506 49.7819 104.121 49.481C104.687 49.2046 105.208 48.7792 105.73 48.5178C109.954 46.4036 113.935 43.8747 118.148 41.7172C121.621 39.9377 124.825 37.7003 128.153 35.6725C129.913 34.6027 133.111 32.7534 137.749 30.1244C140.437 28.5997 143.551 26.6172 146.584 25.0601C150.976 22.8055 154.984 19.944 159.304 17.5727C160.371 16.9875 162.368 16.1539 163.806 15.1583C165.247 14.1627 166.795 13.5602 168.363 12.8842C168.434 12.8554 168.504 12.854 168.575 12.8799C169.062 13.0628 169.481 12.998 169.834 12.6855ZM138.588 60.4476C139.128 60.7582 139.77 60.8806 140.476 60.8077C141.182 60.7349 141.938 60.4683 142.702 60.0231C143.467 59.578 144.223 58.963 144.93 58.2132C145.636 57.4635 146.277 56.5937 146.818 55.6536C147.91 53.7549 148.524 51.6847 148.524 49.8986C148.525 48.1124 147.912 46.7566 146.822 46.1293C146.281 45.8187 145.64 45.6963 144.934 45.7691C144.228 45.842 143.472 46.1086 142.707 46.5537C141.943 46.9989 141.186 47.6139 140.48 48.3636C139.774 49.1133 139.132 49.9831 138.592 50.9233C137.5 52.822 136.886 54.8921 136.886 56.6783C136.885 58.4644 137.497 59.8203 138.588 60.4476ZM124.07 58.7486C122.227 61.6057 120.439 63.8122 121.035 67.3561C121.4 69.5309 123.106 70.4595 125.225 69.8915C128.186 69.0946 129.96 66.1074 131.483 63.6908C131.64 63.5972 131.051 63.5411 131.13 63.6908C131.172 63.77 130.359 62.6625 131.13 63.3378C131.38 62.772 131.315 62.8856 131.43 62.2788C131.987 59.3438 133.396 56.5519 129.718 55.5714C127.817 55.0661 124.575 56.8481 124.07 58.7486ZM106.486 79.0144C107.585 79.6435 109.069 79.4947 110.612 78.6009C112.155 77.707 113.632 76.1413 114.716 74.2481C115.253 73.3107 115.677 72.3212 115.965 71.3359C116.253 70.3507 116.398 69.389 116.393 68.5059C116.388 67.6228 116.233 66.8356 115.936 66.1891C115.639 65.5426 115.206 65.0495 114.662 64.738C113.564 64.1089 112.08 64.2577 110.536 65.1516C108.993 66.0454 107.517 67.6111 106.433 69.5043C105.896 70.4417 105.471 71.4313 105.183 72.4165C104.896 73.4018 104.75 74.3634 104.755 75.2465C104.76 76.1296 104.915 76.9169 105.212 77.5634C105.509 78.2099 105.942 78.7029 106.486 79.0144Z" fill="#DEEBFF"/>
<path d="M272.191 16.7012L272.325 16.9323C272.379 17.0302 272.351 17.0792 272.238 17.0792H271.737C271.665 17.0792 271.601 17.0583 271.543 17.0166C271.033 16.6429 270.686 16.6127 270.118 16.9474C267.597 18.4419 265.011 19.8168 262.36 21.0723C260.486 21.9599 258.387 23.4976 256.424 24.5385C251.018 27.4021 245.867 30.6696 240.615 33.7989C239.639 34.3806 238.373 35.0644 236.819 35.8505C233.592 37.4832 230.653 39.5327 227.467 41.1913C226.903 41.4835 226.246 41.873 225.496 42.3596C221.997 44.625 217.646 46.8689 213.661 49.1322C210.069 51.1708 206.492 53.2347 202.93 55.3238C197.259 58.6496 192.743 61.1741 188.979 65.6661C186.741 68.3376 185.558 72.4905 185.415 75.8206C185.235 79.9945 185.233 85.1595 185.409 91.3159C185.428 91.9767 185.428 92.5526 185.409 93.0435C185.288 96.2614 185.51 99.4036 185.379 101.25C185.268 102.824 185.254 104.118 185.338 105.133C185.4 105.9 185.746 106.528 186.033 107.247C186.062 107.318 186.064 107.388 186.04 107.459C185.969 107.656 186.013 107.807 186.171 107.912C186.213 107.94 186.226 107.977 186.21 108.025L186.182 108.118C186.161 108.187 186.178 108.244 186.234 108.288C187.783 109.558 189.565 110.187 191.579 110.176C191.641 110.176 191.675 110.207 191.683 110.269L191.691 110.374C190.322 110.567 189.002 110.298 187.731 109.567C186.262 108.72 184.629 107.951 183.701 106.792C181.979 104.641 182.057 100.665 182.072 98.0582C182.11 91.0049 182.126 83.9509 182.122 76.8961C182.122 75.0835 182.214 73.651 182.398 72.5985C183.064 68.8177 184.619 65.4012 187.065 62.349C188.782 60.2066 190.817 58.7144 193.188 57.4294C198.025 54.8098 202.615 51.8619 207.487 49.2401C210.7 47.5103 214.581 45.085 218.136 43.0658C221.654 41.066 225.135 39.0079 228.644 36.993C242.251 29.1766 252.963 22.9857 260.779 18.4203C262.599 17.3578 264.227 16.5234 265.662 15.9173C268.002 14.9296 270.178 15.191 272.191 16.7012Z" fill="#D0990B"/>
<path d="M272.191 16.7019C275.791 18.503 276.826 20.4575 276.854 24.5327C276.918 33.2589 276.94 41.9866 276.918 50.7158C276.917 51.5552 276.832 52.3859 276.664 53.208L276.489 53.2577C276.417 53.2778 276.368 53.3239 276.344 53.3959C276.004 54.4008 275.688 55.413 275.396 56.4323C274.938 58.0304 274.137 59.3823 273.379 60.8249C272.686 62.1509 271.863 62.9738 270.647 64.2846C269.469 65.5545 268.13 66.5961 266.63 67.4096C265.773 67.8718 265.039 68.3253 264.427 68.7702C264.125 68.9883 263.602 68.9688 263.436 69.485C263.412 69.5584 263.437 69.5858 263.512 69.5671C263.578 69.5498 263.643 69.5498 263.706 69.5671C261.744 70.7131 259.787 71.8678 257.836 73.0311C257.527 73.2168 257.074 73.7135 256.795 74.072C251.246 81.1771 245.688 88.2751 240.121 95.3658C240.01 95.2981 239.89 95.2614 239.762 95.2556C239.69 95.2528 239.633 95.2794 239.592 95.3355L236.866 98.9227C236.832 98.9672 236.785 99 236.732 99.0163C236.678 99.0326 236.621 99.0316 236.568 99.0134C236.515 98.9952 236.47 98.9607 236.437 98.915C236.405 98.8692 236.388 98.8145 236.389 98.7585C236.406 97.5772 236.223 96.383 236.292 95.2967C236.488 92.2415 236.837 89.3081 237.341 86.4963C237.405 86.1464 237.428 85.8246 237.41 85.5309C237.406 85.456 237.367 85.4143 237.292 85.4057C236.216 85.2718 235.886 85.6842 235.048 86.0276C234.986 86.0535 234.931 86.0895 234.882 86.1356L233.858 87.1053C233.874 87.0405 233.871 86.9901 233.849 86.9541C233.809 86.8893 233.756 86.8756 233.692 86.9131L226.893 90.8306C226.752 90.7457 226.604 90.7464 226.448 90.8328C224.925 91.6793 221.59 93.515 216.443 96.3398C216.207 96.4693 216.132 96.6896 216.41 96.8322C213.501 98.6095 210.37 100.333 207.595 101.979C201.967 105.314 197.471 107.899 194.108 109.732C193.499 110.063 192.694 110.277 191.691 110.375L191.683 110.269C191.676 110.207 191.641 110.176 191.579 110.176C189.565 110.188 187.783 109.559 186.234 108.289C186.178 108.244 186.161 108.187 186.182 108.118L186.21 108.025C186.226 107.978 186.213 107.94 186.172 107.913C186.013 107.808 185.969 107.657 186.04 107.46C186.064 107.389 186.062 107.319 186.033 107.248C185.746 106.529 185.401 105.9 185.338 105.134C185.254 104.119 185.268 102.824 185.379 101.251C185.511 99.4043 185.288 96.262 185.409 93.0442C185.428 92.5532 185.428 91.9773 185.409 91.3165C185.234 85.1602 185.236 79.9951 185.416 75.8213C185.558 72.4912 186.742 68.3382 188.979 65.6668C192.743 61.1748 197.259 58.6502 202.93 55.3244C206.492 53.2353 210.069 51.1715 213.661 49.1328C217.646 46.8695 221.997 44.6257 225.496 42.3603C226.246 41.8736 226.903 41.4842 227.468 41.1919C230.653 39.5333 233.592 37.4839 236.819 35.8512C238.374 35.0651 239.639 34.3812 240.615 33.7996C245.868 30.6703 251.018 27.4028 256.424 24.5391C258.387 23.4982 260.486 21.9606 262.361 21.073C265.011 19.8175 267.597 18.4426 270.118 16.9481C270.686 16.6134 271.034 16.6436 271.543 17.0172C271.601 17.059 271.666 17.0798 271.738 17.0798H272.239C272.351 17.0798 272.38 17.0309 272.325 16.933L272.191 16.7019ZM241.147 54.1712C241.054 53.8775 240.654 54.1625 240.607 54.3871C240.354 55.5706 240.043 56.5273 240.006 57.8447C239.988 58.5545 240.191 59.1325 240.618 59.5788C241.162 61.2273 242.289 62.0732 243.999 62.1164C243.971 62.1538 243.934 62.1769 243.889 62.1855C243.856 62.1913 243.84 62.2114 243.84 62.246C243.838 62.2704 243.837 62.2971 243.835 62.3259C243.835 62.3432 243.844 62.3525 243.861 62.354C244.522 62.4303 245.08 62.2445 245.535 61.7968C247.313 60.848 248.796 59.5479 249.984 57.8965C249.984 57.9152 249.985 57.9332 249.988 57.9505C249.994 57.9951 250.018 58.0254 250.059 58.0412C250.908 58.3392 253.204 52.2686 252.107 52.6055C252.32 50.5754 252.126 47.7377 249.878 47.1136C246.03 46.0424 242.399 51.2514 241.147 54.1712ZM230.772 70.3056C233.659 68.0899 235.983 64.4768 236.121 60.758C236.133 60.47 236.159 60.1828 236.201 59.8963C236.414 57.9555 235.637 56.5928 233.871 55.8082C232.67 55.2747 231.815 55.8168 230.798 56.2466C229.251 56.9009 227.835 58.3306 226.738 59.5767C226.433 59.9222 226.401 60.4168 226.135 60.799C225.67 61.4671 225.368 61.9983 225.228 62.3928C224.885 63.3647 224.371 64.425 224.159 65.2975C223.636 67.4614 224.081 71.0507 226.828 71.5733C228.248 71.8426 229.586 71.5777 230.843 70.7786C230.904 70.7412 230.928 70.6872 230.917 70.6166C230.899 70.5 230.851 70.3964 230.772 70.3056ZM213.387 66.8675C212.31 67.7242 211.374 68.714 210.579 69.837C210.459 69.8212 210.352 69.7578 210.26 69.647C210.208 69.5822 210.146 69.5714 210.074 69.6146C209.595 69.904 209.066 71.1285 208.742 71.6468C208.704 71.7072 208.682 71.7735 208.675 71.8455C208.646 72.1363 208.527 72.5128 208.318 72.9749C207.552 74.6738 207.487 76.4721 208.122 78.3696C208.223 78.6763 208.623 79.6049 209.122 79.376C210.449 80.7927 211.997 81.0324 213.765 80.0952L213.985 80.2355C214.04 80.2687 214.097 80.2723 214.156 80.2463C217.412 78.7778 219.747 74.7458 220.412 71.4589C221.043 68.349 219.732 64.3019 215.663 65.2435C214.903 65.4206 214.158 65.9346 213.45 66.3384C213.378 66.3788 213.339 66.4407 213.333 66.5242C213.327 66.6062 213.294 66.6775 213.234 66.738C213.165 66.8071 213.178 66.8467 213.275 66.8567L213.387 66.8675Z" fill="#FFB800"/>
<path d="M138.592 50.9237C136.318 54.8776 136.317 59.1418 138.588 60.448C140.86 61.7542 144.545 59.6079 146.818 55.654C149.092 51.7001 149.093 47.436 146.822 46.1297C144.55 44.8235 140.865 46.9698 138.592 50.9237Z" fill="#ADB9D5"/>
<path d="M131.43 63.9333C129.907 66.3499 128.186 69.0947 125.225 69.8916C123.106 70.4596 121.4 69.531 121.035 67.3562C120.439 63.8123 121.767 61.4 123.61 58.5429C124.882 56.8001 127.477 54.6728 129.754 55.0011C130.757 55.1451 131.511 55.6987 132.015 56.6618C133.101 58.7329 132.321 61.8838 131.43 63.9333Z" fill="#ADB9D5"/>
<path d="M106.432 69.5042C104.175 73.4465 104.199 77.7044 106.486 79.0143C108.773 80.3243 112.458 78.1904 114.716 74.2481C116.974 70.3057 116.95 66.0479 114.662 64.7379C112.375 63.428 108.69 65.5619 106.432 69.5042Z" fill="#ADB9D5"/>
<path d="M252.106 52.605C251.808 54.5328 251.101 56.2965 249.984 57.896C248.796 59.5474 247.313 60.8475 245.535 61.7963C245.022 61.9849 244.51 62.0914 243.999 62.1159C242.289 62.0727 241.162 61.2269 240.617 59.5784C240.295 57.724 240.471 55.9214 241.146 54.1707C242.399 51.2509 246.029 46.0419 249.878 47.1131C252.126 47.7372 252.32 50.5749 252.106 52.605Z" fill="white"/>
<path d="M252.107 52.6046C253.204 52.2677 250.908 58.3384 250.059 58.0403C250.017 58.0245 249.994 57.9943 249.988 57.9496C249.985 57.9324 249.984 57.9144 249.984 57.8956C251.101 56.2961 251.809 54.5324 252.107 52.6046Z" fill="#FFB800"/>
<path d="M276.663 53.2078C275.659 58.7882 272.169 64.6991 267.23 67.5195C266.05 68.1948 264.875 68.8772 263.706 69.5668C263.642 69.5495 263.578 69.5495 263.511 69.5668C263.437 69.5855 263.411 69.5582 263.436 69.4848C263.602 68.9686 264.125 68.988 264.427 68.7699C265.039 68.325 265.773 67.8715 266.63 67.4094C268.13 66.5959 269.469 65.5543 270.647 64.2844C271.863 62.9735 272.685 62.1507 273.379 60.8247C274.137 59.3821 274.938 58.0302 275.396 56.4321C275.688 55.4127 276.004 54.4006 276.344 53.3956C276.368 53.3237 276.417 53.2776 276.488 53.2574L276.663 53.2078Z" fill="#D0990B"/>
<path d="M241.146 54.1708C240.471 55.9215 240.295 57.724 240.617 59.5784C240.191 59.1321 239.987 58.5541 240.006 57.8443C240.043 56.5269 240.354 55.5702 240.606 54.3867C240.654 54.1621 241.053 53.8771 241.146 54.1708Z" fill="#FFB800"/>
<path d="M236.201 59.8959C236.107 58.5497 235.59 57.5066 234.65 56.7666C232.551 55.1123 229.608 57.1359 228.13 58.7103C225.774 61.2219 224.01 64.7809 224.457 68.2644C224.906 71.7889 228.385 72.1387 230.772 70.3052C230.851 70.3959 230.899 70.4996 230.916 70.6162C230.928 70.6868 230.903 70.7407 230.843 70.7782C229.586 71.5772 228.248 71.8421 226.828 71.5729C224.081 71.0503 223.636 67.461 224.159 65.2971C224.371 64.4246 224.885 63.3642 225.228 62.3924C225.368 61.9979 225.67 61.4666 226.135 60.7986C226.401 60.4164 226.433 59.9218 226.737 59.5763C227.835 58.3302 229.251 56.9005 230.798 56.2461C231.815 55.8164 232.67 55.2743 233.871 55.8077C235.637 56.5924 236.414 57.9551 236.201 59.8959Z" fill="#FFB800"/>
<path d="M236.201 59.8958C236.159 60.1823 236.133 60.4696 236.121 60.7575C235.983 64.4764 233.659 68.0894 230.772 70.3052C228.385 72.1387 224.906 71.7888 224.457 68.2643C224.01 64.7809 225.774 61.2218 228.131 58.7102C229.608 57.1358 232.551 55.1123 234.65 56.7665C235.591 57.5066 236.107 58.5497 236.201 59.8958Z" fill="white"/>
<path d="M136.684 85.3349L133.576 84.6114C133.493 84.5927 133.414 84.6042 133.341 84.646L120.996 91.7792C120.933 91.8166 120.865 91.8404 120.793 91.8504C120.772 91.8533 120.75 91.854 120.727 91.8526C120.679 91.8483 120.636 91.8598 120.597 91.8872C119.746 92.4775 118.858 93.0037 117.932 93.4658C118.125 93.3089 118.177 93.1476 118.09 92.9821C118.065 92.9346 118.075 92.8971 118.12 92.8698C119.033 92.2939 119.965 91.7511 120.917 91.2414C121.387 90.9888 122.454 90.2912 123.275 89.9521C124.197 89.5699 124.888 88.9998 125.761 88.5592C126.378 88.2468 126.873 87.9718 127.244 87.7342C129.125 86.5292 131.146 85.3788 133.308 84.2832C134.021 83.9225 135.133 84.497 135.885 84.6352C136.289 84.7072 136.556 84.9404 136.684 85.3349Z" fill="#A6CAFF"/>
<path d="M245.535 61.7964C245.08 62.2441 244.522 62.4299 243.861 62.3536C243.844 62.3521 243.835 62.3428 243.835 62.3255C243.837 62.2967 243.838 62.2701 243.84 62.2456C243.84 62.211 243.856 62.1909 243.889 62.1851C243.934 62.1765 243.971 62.1534 243.999 62.116C244.51 62.0915 245.022 61.985 245.535 61.7964Z" fill="#FFB800"/>
<path d="M213.765 80.0944C216.561 78.7598 218.678 75.6305 219.671 72.7604C221.23 68.2619 218.734 62.7743 213.387 66.8668L213.274 66.856C213.178 66.8459 213.164 66.8063 213.233 66.7372C213.294 66.6767 213.327 66.6055 213.333 66.5234C213.339 66.4399 213.377 66.378 213.449 66.3377C214.158 65.9338 214.903 65.4198 215.663 65.2427C219.732 64.3012 221.043 68.3483 220.412 71.4581C219.747 74.745 217.412 78.777 214.156 80.2456C214.097 80.2715 214.04 80.2679 213.985 80.2348L213.765 80.0944Z" fill="#FFB800"/>
<path d="M213.765 80.0945C211.997 81.0317 210.449 80.792 209.122 79.3753C207.355 76.421 208.778 72.4538 210.579 69.8363C211.374 68.7133 212.31 67.7235 213.387 66.8668C218.734 62.7744 221.231 68.262 219.671 72.7604C218.678 75.6306 216.562 78.7598 213.765 80.0945Z" fill="white"/>
<path d="M210.579 69.8367C208.778 72.4542 207.355 76.4214 209.121 79.3757C208.623 79.6047 208.223 78.676 208.122 78.3694C207.487 76.4718 207.552 74.6735 208.318 72.9747C208.527 72.5125 208.646 72.136 208.674 71.8452C208.682 71.7732 208.704 71.707 208.741 71.6465C209.065 71.1282 209.594 69.9037 210.074 69.6143C210.146 69.5711 210.208 69.5819 210.26 69.6467C210.352 69.7575 210.458 69.8209 210.579 69.8367Z" fill="#FFB800"/>
<path d="M240.121 95.3654L235.825 100.812C235.805 100.838 235.775 100.856 235.742 100.863C235.71 100.869 235.675 100.863 235.646 100.847L232.756 99.1706C232.625 99.0958 232.573 98.9835 232.601 98.8337C232.782 97.8245 232.914 96.8303 232.996 95.8513C233.206 93.3311 233.525 90.8108 233.685 88.2884C233.711 87.8895 233.768 87.4951 233.858 87.1049L234.881 86.1352C234.93 86.0892 234.986 86.0532 235.048 86.0272C235.886 85.6839 236.216 85.2714 237.292 85.4053C237.366 85.4139 237.406 85.4557 237.41 85.5305C237.428 85.8242 237.405 86.146 237.341 86.4959C236.837 89.3077 236.487 92.2412 236.292 95.2963C236.223 96.3826 236.406 97.5769 236.389 98.7582C236.388 98.8141 236.405 98.8689 236.437 98.9146C236.469 98.9604 236.515 98.9948 236.568 99.013C236.621 99.0312 236.678 99.0322 236.732 99.0159C236.785 98.9996 236.832 98.9669 236.866 98.9223L239.592 95.3352C239.633 95.279 239.69 95.2524 239.762 95.2553C239.89 95.261 240.01 95.2977 240.121 95.3654Z" fill="#D0990B"/>
<path d="M226.893 90.8308L216.41 96.8323C216.132 96.6898 216.207 96.4695 216.443 96.3399C221.59 93.5152 224.925 91.6795 226.448 90.8329C226.604 90.7465 226.752 90.7458 226.893 90.8308Z" fill="#D0990B"/>
<path d="M182.783 123.555C182.463 123.812 182.107 124.131 181.72 124.278C179.055 125.306 177.343 126.043 176.583 126.49C170.051 130.319 163.487 134.094 156.891 137.815C151.952 140.603 147.171 143.663 142.165 146.332C139.995 147.487 137.856 148.696 135.747 149.958C130.535 153.075 125.177 155.945 120.061 159.214C116.995 161.173 113.658 162.652 110.527 164.529C108.125 165.969 105.886 167.434 103.808 168.924C100.525 171.278 98.5753 175.29 97.3249 179.055C96.4913 181.566 96.5755 184.672 96.6446 187.52C96.7166 190.495 96.7015 197.752 96.5993 209.291C96.5842 211.013 96.6144 213.615 97.6985 215.086C97.7178 215.112 97.7287 215.144 97.7298 215.177C97.731 215.21 97.7223 215.242 97.705 215.27C97.6876 215.298 97.6623 215.321 97.6324 215.334C97.6024 215.348 97.569 215.352 97.5365 215.347L96.7677 215.222C94.2712 213.729 93.4095 211.01 93.3944 208.253C93.3793 205.866 93.1612 180.631 93.4765 180.566C93.5081 180.561 93.5269 180.541 93.5326 180.508C93.8335 178.58 94.2503 176.893 94.783 175.446C96.6749 170.306 100.035 166.961 104.709 164.266C118.515 156.303 132.311 148.321 146.141 140.4C155.14 135.245 164.079 129.98 173.084 124.829C176.211 123.043 179.243 121.216 182.783 123.555Z" fill="#A6CAFF"/>
<path d="M182.783 123.555C184.614 124.55 186.424 125.509 187.195 127.5C187.614 128.58 187.829 129.843 187.841 131.288C187.887 137.237 187.904 145.871 187.893 157.191C187.888 163.501 184.802 169.326 180.112 173.23C179.346 173.868 178.151 174.648 176.529 175.571C174.389 176.788 172.264 178.025 170.154 179.284C169.701 179.553 169.236 179.79 168.756 179.996C168.686 180.026 168.64 180.078 168.62 180.152C168.551 180.404 168.505 180.655 168.482 180.905C168.031 185.851 167.346 190.82 167.156 195.779C167.152 195.869 167.107 195.9 167.022 195.869C166.746 195.774 166.461 195.632 166.201 195.573C160.825 194.361 155.444 193.173 150.058 192.01C149.311 191.848 149.102 191.628 148.367 191.98C146.175 193.029 143.843 194.483 142.079 195.5C130.209 202.337 118.347 209.187 106.49 216.049C104.644 217.116 102.37 217.923 100.366 217.133C99.0929 216.632 97.8936 215.995 96.7677 215.222L97.5366 215.347C97.5691 215.352 97.6024 215.348 97.6324 215.334C97.6624 215.321 97.6876 215.298 97.705 215.27C97.7223 215.242 97.731 215.21 97.7298 215.177C97.7287 215.144 97.7178 215.112 97.6985 215.086C96.6144 213.615 96.5842 211.013 96.5993 209.291C96.7015 197.752 96.7166 190.495 96.6446 187.52C96.5755 184.672 96.4913 181.566 97.3249 179.055C98.5753 175.29 100.525 171.278 103.808 168.924C105.886 167.434 108.125 165.969 110.527 164.529C113.658 162.652 116.995 161.173 120.061 159.214C125.177 155.945 130.535 153.074 135.747 149.958C137.856 148.695 139.995 147.487 142.165 146.332C147.171 143.663 151.952 140.603 156.891 137.815C163.487 134.094 170.051 130.319 176.583 126.49C177.343 126.043 179.055 125.306 181.72 124.278C182.107 124.131 182.463 123.812 182.783 123.555ZM152.54 172.348C153.08 172.661 153.721 172.787 154.426 172.719C155.132 172.65 155.889 172.389 156.653 171.95C157.417 171.511 158.174 170.902 158.881 170.159C159.587 169.416 160.23 168.553 160.771 167.619C161.312 166.685 161.742 165.699 162.036 164.716C162.329 163.734 162.481 162.775 162.482 161.893C162.484 161.012 162.334 160.225 162.043 159.579C161.752 158.933 161.324 158.439 160.785 158.126C160.245 157.813 159.604 157.688 158.899 157.756C158.193 157.825 157.436 158.086 156.672 158.525C155.908 158.964 155.151 159.573 154.444 160.316C153.737 161.059 153.095 161.922 152.554 162.856C152.013 163.79 151.583 164.776 151.289 165.758C150.995 166.741 150.844 167.7 150.842 168.582C150.841 169.463 150.99 170.249 151.282 170.896C151.573 171.542 152.001 172.036 152.54 172.348ZM136.484 181.672C137.579 182.299 139.06 182.148 140.602 181.251C142.143 180.355 143.619 178.787 144.704 176.892C145.789 174.998 146.395 172.932 146.388 171.148C146.381 169.365 145.762 168.011 144.667 167.384C143.572 166.757 142.091 166.908 140.549 167.805C139.008 168.701 137.532 170.269 136.447 172.164C135.362 174.058 134.756 176.124 134.763 177.908C134.77 179.691 135.389 181.045 136.484 181.672ZM120.439 190.95C120.981 191.26 121.622 191.382 122.328 191.309C123.034 191.236 123.79 190.969 124.553 190.524C125.316 190.079 126.072 189.464 126.776 188.715C127.48 187.966 128.119 187.097 128.657 186.157C129.195 185.218 129.621 184.227 129.911 183.24C130.201 182.254 130.349 181.291 130.347 180.408C130.345 179.524 130.192 178.737 129.898 178.092C129.604 177.446 129.174 176.954 128.633 176.644C128.092 176.334 127.45 176.212 126.744 176.285C126.038 176.358 125.282 176.625 124.519 177.07C123.756 177.515 123.001 178.13 122.296 178.879C121.592 179.628 120.953 180.498 120.415 181.437C119.877 182.376 119.451 183.368 119.161 184.354C118.871 185.341 118.723 186.303 118.725 187.186C118.728 188.07 118.88 188.857 119.174 189.503C119.468 190.148 119.898 190.64 120.439 190.95Z" fill="#DEEBFF"/>
<path d="M152.554 162.856C150.277 166.783 150.271 171.033 152.54 172.349C154.81 173.664 158.495 171.547 160.771 167.619C163.048 163.692 163.054 159.442 160.785 158.126C158.516 156.811 154.831 158.928 152.554 162.856Z" fill="#ADB9D5"/>
<path d="M136.447 172.164C134.187 176.11 134.204 180.367 136.484 181.673C138.764 182.978 142.444 180.839 144.704 176.893C146.963 172.948 146.947 168.691 144.667 167.385C142.387 166.079 138.706 168.219 136.447 172.164Z" fill="#ADB9D5"/>
<path d="M120.415 181.437C118.152 185.388 118.163 189.647 120.439 190.95C122.715 192.254 126.394 190.108 128.657 186.157C130.92 182.207 130.909 177.947 128.633 176.644C126.357 175.341 122.678 177.486 120.415 181.437Z" fill="#ADB9D5"/>
</svg>
