<svg width="69" height="64" viewBox="0 0 69 64" fill="none" xmlns="http://www.w3.org/2000/svg">
<rect width="69" height="64" fill="#F5F5F5"/>
<g id="&#208;&#187;&#208;&#181;&#208;&#189;&#208;&#180;&#208;&#184;&#208;&#189;&#208;&#179;" clip-path="url(#clip0_203_2)">
<rect width="1280" height="11520" transform="translate(-80 -6588)" fill="white"/>
<g id="&#208;&#191;&#209;&#131;&#208;&#189;&#208;&#186;&#209;&#130;">
<g id="&#208;&#186;&#208;&#176;&#209;&#128;&#209;&#130;&#208;&#184;&#208;&#189;&#208;&#186;&#208;&#176;">
<ellipse id="Ellipse 81" cx="35.1324" cy="32.1325" rx="20.1324" ry="20.1325" fill="#EBEFF9"/>
<ellipse id="Ellipse 82" cx="19.9544" cy="3.5" rx="3.49998" ry="3.5" fill="#EBEFF9"/>
<ellipse id="Ellipse 84" cx="3.49998" cy="32.3145" rx="3.49998" ry="3.5" fill="#EBEFF9"/>
<ellipse id="Ellipse 87" cx="19.9546" cy="60.5" rx="3.49998" ry="3.5" fill="#EBEFF9"/>
<ellipse id="Ellipse 83" cx="49.9546" cy="3.5" rx="3.49998" ry="3.5" fill="#2477F4"/>
<ellipse id="Ellipse 85" cx="65.5" cy="32.3145" rx="3.49998" ry="3.5" fill="#EDD8E1"/>
<ellipse id="Ellipse 86" cx="49.9544" cy="60.5" rx="3.49998" ry="3.5" fill="#EBEFF9"/>
<g id="&#208;&#179;&#208;&#176;&#208;&#187;&#208;&#190;&#209;&#135;&#208;&#186;&#208;&#176;">
<g id="Group">
<path id="Vector" d="M33.4425 37.0287C33.812 37.4572 34.1915 37.7423 34.7764 37.7909C35.23 37.8286 35.6317 37.7174 35.9815 37.4572C36.0998 37.3695 36.2849 37.1799 36.5368 36.8883C39.8462 33.0596 43.1571 29.2322 46.4694 25.4061C46.7489 25.0835 46.9209 24.8737 46.9852 24.7767C47.7726 23.5915 46.945 21.996 45.5166 22C44.9646 22.0019 44.4931 22.2288 44.1021 22.6809C41.0498 26.2098 37.9987 29.742 34.949 33.2773C34.9466 33.2801 34.9436 33.2823 34.9402 33.2839C34.9368 33.2854 34.9332 33.2862 34.9295 33.2862C34.9258 33.2862 34.9222 33.2854 34.9189 33.2839C34.9156 33.2823 34.9126 33.2801 34.9103 33.2773C34.2597 32.5219 33.607 31.766 32.9521 31.0093C32.7193 30.7401 32.5488 30.5663 32.4406 30.4879C31.9559 30.1362 31.2702 30.0605 30.7244 30.2921C29.7768 30.6948 29.3558 31.8166 29.8167 32.7399C29.8874 32.8813 30.0329 33.0797 30.2532 33.3351C31.3166 34.5659 32.3796 35.7971 33.4425 37.0287Z" fill="#2477F4"/>
<path id="Vector_2" d="M43.8226 34.0704C43.8119 33.1962 42.7251 32.8597 42.2268 33.5454C42.0785 33.7495 42.0394 34.0098 42.0394 34.2618C42.0397 35.8243 42.0392 37.3866 42.0378 38.9488C42.0376 39.2638 42.0248 39.4851 41.9996 39.613C41.8517 40.3581 41.2473 40.9553 40.521 41.1099C40.3681 41.1426 40.1034 41.159 39.7268 41.159C36.0725 41.1587 32.4181 41.1586 28.7638 41.1586C27.6571 41.159 26.8004 40.2987 26.8004 39.1844C26.8001 35.4681 26.8003 31.7518 26.8008 28.0355C26.8008 27.7445 26.8189 27.5266 26.855 27.3817C27.0304 26.6805 27.6033 26.12 28.2989 25.9677C28.4518 25.9345 28.7162 25.9181 29.0923 25.9186C31.657 25.9226 34.2218 25.9213 36.7867 25.9147C37.2588 25.9135 37.6363 25.8138 37.8157 25.3617C38.0062 24.8825 37.7726 24.3463 37.2942 24.1765C37.1882 24.139 37.027 24.12 36.8107 24.1195C34.2521 24.115 31.6935 24.1141 29.1349 24.1167C28.7759 24.117 28.5106 24.1273 28.3392 24.1478C26.6485 24.3487 25.2576 25.6428 25.0383 27.359C25.0176 27.5219 25.0071 27.787 25.0068 28.1543C25.0066 31.5528 25.0063 34.9513 25.006 38.35C25.0056 38.7379 24.9797 39.3407 25.0383 39.7629C25.2668 41.4093 26.6222 42.6831 28.2471 42.9147C28.4294 42.9407 28.6947 42.9537 29.0428 42.9537C32.6664 42.9524 36.2899 42.9519 39.9134 42.9522C40.2493 42.9522 40.5139 42.9351 40.7071 42.9011C42.4473 42.5954 43.7868 41.1143 43.8354 39.3351C43.859 38.4679 43.8548 36.713 43.8226 34.0704Z" fill="#2477F4"/>
</g>
<path id="Vector_3" d="M34.7764 37.7909C34.1915 37.7423 33.812 37.4572 33.4425 37.0287C32.3796 35.7971 31.3166 34.5659 30.2532 33.3351C30.0329 33.0797 29.8874 32.8813 29.8167 32.7399C29.3558 31.8166 29.7768 30.6948 30.7244 30.2921C31.2702 30.0605 31.9559 30.1362 32.4406 30.4879C32.5488 30.5663 32.7193 30.7401 32.9521 31.0093C33.607 31.766 34.2597 32.5219 34.9103 33.2773C34.9126 33.2801 34.9156 33.2823 34.9189 33.2839C34.9222 33.2854 34.9258 33.2862 34.9295 33.2862C34.9332 33.2862 34.9368 33.2854 34.9402 33.2839C34.9436 33.2823 34.9466 33.2801 34.949 33.2773C37.9987 29.742 41.0498 26.2098 44.1021 22.6809C44.4931 22.2288 44.9646 22.0019 45.5166 22C46.945 21.996 47.7726 23.5915 46.9852 24.7767C46.9209 24.8737 46.7489 25.0835 46.4694 25.4061C43.1571 29.2322 39.8462 33.0596 36.5368 36.8883C36.2849 37.1799 36.0998 37.3695 35.9815 37.4572C35.6317 37.7174 35.23 37.8286 34.7764 37.7909Z" fill="#2477F4"/>
<path id="Vector_4" d="M42.2268 33.5454C42.7251 32.8597 43.8119 33.1962 43.8226 34.0704C43.8548 36.713 43.859 38.4679 43.8354 39.3351C43.7868 41.1143 42.4473 42.5954 40.7071 42.9011C40.5139 42.9351 40.2493 42.9522 39.9134 42.9522C36.2899 42.9519 32.6664 42.9524 29.0428 42.9537C28.6947 42.9537 28.4294 42.9407 28.2471 42.9147C26.6222 42.6831 25.2668 41.4093 25.0383 39.7629C24.9797 39.3407 25.0056 38.7379 25.006 38.35C25.0063 34.9513 25.0066 31.5528 25.0068 28.1543C25.0071 27.787 25.0176 27.5219 25.0383 27.359C25.2576 25.6428 26.6485 24.3487 28.3392 24.1478C28.5106 24.1273 28.7759 24.117 29.1349 24.1167C31.6935 24.1141 34.2521 24.115 36.8107 24.1195C37.027 24.12 37.1882 24.139 37.2942 24.1765C37.7726 24.3463 38.0062 24.8825 37.8157 25.3617C37.6363 25.8138 37.2588 25.9135 36.7867 25.9147C34.2218 25.9213 31.657 25.9226 29.0923 25.9186C28.7162 25.9181 28.4518 25.9345 28.2989 25.9677C27.6033 26.12 27.0304 26.6805 26.855 27.3817C26.8189 27.5266 26.8008 27.7445 26.8008 28.0355C26.8003 31.7518 26.8001 35.4681 26.8004 39.1844C26.8004 40.2987 27.6571 41.159 28.7638 41.1586C32.4181 41.1586 36.0725 41.1587 39.7268 41.159C40.1034 41.159 40.3681 41.1426 40.521 41.1099C41.2473 40.9553 41.8517 40.3581 41.9996 39.613C42.0248 39.4851 42.0376 39.2638 42.0378 38.9488C42.0392 37.3866 42.0397 35.8243 42.0394 34.2618C42.0394 34.0098 42.0785 33.7495 42.2268 33.5454Z" fill="#2477F4"/>
</g>
</g>
</g>
</g>
<defs>
<clipPath id="clip0_203_2">
<rect width="1280" height="11520" fill="white" transform="translate(-80 -6588)"/>
</clipPath>
</defs>
</svg>
