<svg width="353" height="185" viewBox="0 0 353 185" fill="none" xmlns="http://www.w3.org/2000/svg">
<g filter="url(#filter0_d_119_6)">
<path fill-rule="evenodd" clip-rule="evenodd" d="M33 8C19.7452 8 9 18.7452 9 32V120C9 133.255 19.7452 144 33 144H246.101L258.395 169.901C261.009 175.376 267.744 175.364 270.372 169.879L282.772 144H320C333.255 144 344 133.255 344 120V32C344 18.7452 333.255 8 320 8H33Z" fill="white"/>
</g>
<path d="M35.44 31.28C34.6 31.28 33.88 31.4333 33.28 31.74C32.6933 32.0467 32.2067 32.46 31.82 32.98C31.4467 33.5 31.1733 34.1 31 34.78C30.8267 35.4467 30.74 36.1467 30.74 36.88C30.74 37.6667 30.8333 38.4067 31.02 39.1C31.2067 39.7933 31.4933 40.4 31.88 40.92C32.2667 41.4267 32.76 41.8333 33.36 42.14C33.96 42.4333 34.6733 42.58 35.5 42.58C36.5 42.58 37.34 42.3733 38.02 41.96C38.7 41.5467 39.14 40.9933 39.34 40.3H41.24C40.9333 41.4733 40.2867 42.4133 39.3 43.12C38.3133 43.8133 37.0333 44.16 35.46 44.16C34.3667 44.16 33.4133 43.98 32.6 43.62C31.7867 43.26 31.1067 42.76 30.56 42.12C30.0267 41.48 29.6267 40.72 29.36 39.84C29.0933 38.96 28.96 37.9933 28.96 36.94C28.96 35.9 29.0933 34.94 29.36 34.06C29.6267 33.18 30.0333 32.42 30.58 31.78C31.1267 31.1267 31.8067 30.62 32.62 30.26C33.4333 29.8867 34.3933 29.7 35.5 29.7C36.2733 29.7 36.9667 29.7933 37.58 29.98C38.2067 30.1667 38.7467 30.4333 39.2 30.78C39.6667 31.1133 40.0467 31.52 40.34 32C40.6333 32.4667 40.8467 32.9867 40.98 33.56H39.22C39.02 32.8667 38.5867 32.3133 37.92 31.9C37.2667 31.4867 36.44 31.28 35.44 31.28ZM48.1792 33.34C49.0192 33.34 49.7459 33.4733 50.3592 33.74C50.9726 34.0067 51.4859 34.38 51.8992 34.86C52.3259 35.34 52.6392 35.9133 52.8392 36.58C53.0526 37.2333 53.1592 37.9533 53.1592 38.74C53.1592 39.5267 53.0526 40.2533 52.8392 40.92C52.6392 41.5733 52.3259 42.14 51.8992 42.62C51.4859 43.0867 50.9659 43.4533 50.3392 43.72C49.7126 43.9867 48.9792 44.12 48.1392 44.12C47.2992 44.12 46.5659 43.9867 45.9392 43.72C45.3259 43.4533 44.8059 43.0867 44.3792 42.62C43.9659 42.14 43.6526 41.5733 43.4392 40.92C43.2392 40.2533 43.1392 39.5267 43.1392 38.74C43.1392 37.9533 43.2392 37.2333 43.4392 36.58C43.6526 35.9133 43.9659 35.34 44.3792 34.86C44.8059 34.38 45.3326 34.0067 45.9592 33.74C46.5859 33.4733 47.3259 33.34 48.1792 33.34ZM48.1392 42.62C48.7126 42.62 49.2059 42.52 49.6192 42.32C50.0459 42.12 50.3926 41.8467 50.6592 41.5C50.9392 41.14 51.1392 40.7267 51.2592 40.26C51.3926 39.7933 51.4592 39.2867 51.4592 38.74C51.4592 38.2067 51.3926 37.7067 51.2592 37.24C51.1392 36.76 50.9392 36.3467 50.6592 36C50.3926 35.64 50.0459 35.36 49.6192 35.16C49.2059 34.96 48.7126 34.86 48.1392 34.86C47.5659 34.86 47.0726 34.96 46.6592 35.16C46.2459 35.36 45.8992 35.64 45.6192 36C45.3526 36.3467 45.1526 36.76 45.0192 37.24C44.8992 37.7067 44.8392 38.2067 44.8392 38.74C44.8392 39.2867 44.8992 39.7933 45.0192 40.26C45.1526 40.7267 45.3526 41.14 45.6192 41.5C45.8992 41.8467 46.2459 42.12 46.6592 42.32C47.0726 42.52 47.5659 42.62 48.1392 42.62ZM55.4338 33.46H59.5138C60.1938 33.46 60.7738 33.5067 61.2538 33.6C61.7471 33.6933 62.1604 33.86 62.4938 34.1C62.7871 34.3 63.0138 34.5667 63.1738 34.9C63.3471 35.2333 63.4338 35.6267 63.4338 36.08C63.4338 37.1333 62.9604 37.8867 62.0138 38.34C62.7338 38.5 63.2538 38.8133 63.5738 39.28C63.8938 39.7467 64.0538 40.28 64.0538 40.88C64.0404 41.44 63.9471 41.9 63.7738 42.26C63.6004 42.6067 63.3538 42.9133 63.0338 43.18C62.7271 43.4333 62.3471 43.6333 61.8938 43.78C61.4404 43.9267 60.9271 44 60.3538 44H55.4338V33.46ZM57.1738 34.96V37.96H58.6338C58.9671 37.96 59.3071 37.9533 59.6538 37.94C60.0004 37.9133 60.3071 37.8533 60.5738 37.76C60.9071 37.6533 61.1871 37.48 61.4138 37.24C61.6404 37 61.7604 36.7133 61.7738 36.38C61.7738 35.9933 61.6871 35.7133 61.5138 35.54C61.3538 35.3533 61.1538 35.22 60.9138 35.14C60.6738 35.0467 60.4138 34.9933 60.1338 34.98C59.8538 34.9667 59.5938 34.96 59.3538 34.96H57.1738ZM57.1738 42.52H59.9538C60.2604 42.52 60.5538 42.5 60.8338 42.46C61.1271 42.42 61.3804 42.3467 61.5938 42.24C61.8071 42.12 61.9804 41.96 62.1138 41.76C62.2471 41.56 62.3204 41.3067 62.3338 41C62.3338 40.6 62.2404 40.2867 62.0538 40.06C61.8671 39.82 61.6138 39.6467 61.2938 39.54C61.0271 39.46 60.7271 39.4133 60.3938 39.4C60.0604 39.3867 59.7138 39.38 59.3538 39.38L57.1738 39.4V42.52ZM67.6913 39.36C67.7313 39.8267 67.8246 40.26 67.9712 40.66C68.1313 41.0467 68.3446 41.3867 68.6113 41.68C68.8779 41.9733 69.2046 42.2067 69.5913 42.38C69.9913 42.54 70.4513 42.62 70.9713 42.62C71.2246 42.62 71.4846 42.6 71.7513 42.56C72.0313 42.5067 72.2913 42.4267 72.5313 42.32C72.7713 42.2 72.9846 42.0467 73.1713 41.86C73.3579 41.6733 73.4979 41.4467 73.5913 41.18H75.3313C75.2113 41.6867 75.0046 42.1267 74.7113 42.5C74.4313 42.8733 74.0913 43.18 73.6913 43.42C73.3046 43.66 72.8713 43.84 72.3913 43.96C71.9113 44.0667 71.4246 44.12 70.9313 44.12C70.0913 44.12 69.3579 43.9867 68.7313 43.72C68.1179 43.4533 67.6046 43.0867 67.1913 42.62C66.7779 42.14 66.4713 41.5733 66.2713 40.92C66.0713 40.2533 65.9713 39.5267 65.9713 38.74C65.9713 37.9533 66.0779 37.2333 66.2913 36.58C66.5179 35.9133 66.8379 35.34 67.2513 34.86C67.6646 34.38 68.1713 34.0067 68.7713 33.74C69.3713 33.4733 70.0846 33.34 70.9112 33.34C71.7513 33.34 72.4779 33.5067 73.0913 33.84C73.7046 34.1733 74.1979 34.6133 74.5713 35.16C74.9446 35.6933 75.2046 36.2733 75.3513 36.9C75.5113 37.5267 75.5779 38.1067 75.5513 38.64C75.5513 38.76 75.5446 38.88 75.5313 39C75.5313 39.12 75.5246 39.24 75.5113 39.36H67.6913ZM73.8313 37.88C73.8046 36.9867 73.5246 36.26 72.9913 35.7C72.4579 35.14 71.7446 34.86 70.8513 34.86C70.3579 34.86 69.9246 34.94 69.5513 35.1C69.1779 35.26 68.8646 35.48 68.6113 35.76C68.3579 36.04 68.1579 36.3667 68.0113 36.74C67.8646 37.1 67.7713 37.48 67.7313 37.88H73.8313ZM79.5361 47.8H77.8361V33.46H79.4561L79.5361 35.08C79.8961 34.5067 80.3828 34.08 80.9961 33.8C81.6228 33.5067 82.2961 33.3533 83.0161 33.34C83.8294 33.34 84.5161 33.48 85.0761 33.76C85.6494 34.0267 86.1228 34.4067 86.4961 34.9C86.8828 35.38 87.1694 35.9533 87.3561 36.62C87.5428 37.2733 87.6361 37.98 87.6361 38.74C87.6361 39.5133 87.5428 40.2267 87.3561 40.88C87.1694 41.5333 86.8828 42.1 86.4961 42.58C86.1094 43.06 85.6228 43.44 85.0361 43.72C84.4494 43.9867 83.7494 44.12 82.9361 44.12C82.1361 44.12 81.4561 43.9933 80.8961 43.74C80.3361 43.4867 79.8828 43.1533 79.5361 42.74V47.8ZM82.7961 42.62C83.3694 42.62 83.8494 42.52 84.2361 42.32C84.6361 42.1067 84.9561 41.8267 85.1961 41.48C85.4494 41.12 85.6294 40.7067 85.7361 40.24C85.8561 39.7733 85.9228 39.2733 85.9361 38.74C85.9361 38.2067 85.8761 37.7067 85.7561 37.24C85.6494 36.76 85.4694 36.3467 85.2161 36C84.9628 35.6533 84.6294 35.38 84.2161 35.18C83.8161 34.9667 83.3294 34.86 82.7561 34.86C82.0761 34.86 81.4894 35.0467 80.9961 35.42C80.5028 35.78 80.1294 36.24 79.8761 36.8C79.7294 37.1067 79.6294 37.4267 79.5761 37.76C79.5228 38.08 79.4961 38.4133 79.4961 38.76C79.4961 39.16 79.5228 39.5333 79.5761 39.88C79.6294 40.2133 79.7294 40.5333 79.8761 40.84C80.1294 41.3467 80.4961 41.7733 80.9761 42.12C81.4694 42.4533 82.0761 42.62 82.7961 42.62ZM89.8283 33.46H91.5283V42.52H95.4883V33.46H97.1883V42.52H101.188V33.46H102.888V44H89.8283V33.46ZM106.89 39.36C106.93 39.8267 107.024 40.26 107.17 40.66C107.33 41.0467 107.544 41.3867 107.81 41.68C108.077 41.9733 108.404 42.2067 108.79 42.38C109.19 42.54 109.65 42.62 110.17 42.62C110.424 42.62 110.684 42.6 110.95 42.56C111.23 42.5067 111.49 42.4267 111.73 42.32C111.97 42.2 112.184 42.0467 112.37 41.86C112.557 41.6733 112.697 41.4467 112.79 41.18H114.53C114.41 41.6867 114.204 42.1267 113.91 42.5C113.63 42.8733 113.29 43.18 112.89 43.42C112.504 43.66 112.07 43.84 111.59 43.96C111.11 44.0667 110.624 44.12 110.13 44.12C109.29 44.12 108.557 43.9867 107.93 43.72C107.317 43.4533 106.804 43.0867 106.39 42.62C105.977 42.14 105.67 41.5733 105.47 40.92C105.27 40.2533 105.17 39.5267 105.17 38.74C105.17 37.9533 105.277 37.2333 105.49 36.58C105.717 35.9133 106.037 35.34 106.45 34.86C106.864 34.38 107.37 34.0067 107.97 33.74C108.57 33.4733 109.284 33.34 110.11 33.34C110.95 33.34 111.677 33.5067 112.29 33.84C112.904 34.1733 113.397 34.6133 113.77 35.16C114.144 35.6933 114.404 36.2733 114.55 36.9C114.71 37.5267 114.777 38.1067 114.75 38.64C114.75 38.76 114.744 38.88 114.73 39C114.73 39.12 114.724 39.24 114.71 39.36H106.89ZM113.03 37.88C113.004 36.9867 112.724 36.26 112.19 35.7C111.657 35.14 110.944 34.86 110.05 34.86C109.557 34.86 109.124 34.94 108.75 35.1C108.377 35.26 108.064 35.48 107.81 35.76C107.557 36.04 107.357 36.3667 107.21 36.74C107.064 37.1 106.97 37.48 106.93 37.88H113.03ZM117.035 44V33.46H118.735V38.08H124.015V33.46H125.715V44H124.015V39.58H118.735V44H117.035ZM132.903 44.12C132.063 44.12 131.336 43.9867 130.723 43.72C130.109 43.4533 129.603 43.08 129.203 42.6C128.803 42.12 128.503 41.5533 128.303 40.9C128.103 40.2467 128.003 39.5333 128.003 38.76C128.003 38.0133 128.109 37.3133 128.323 36.66C128.536 35.9933 128.849 35.42 129.263 34.94C129.676 34.4467 130.196 34.06 130.823 33.78C131.449 33.4867 132.209 33.34 133.103 33.34C133.636 33.34 134.109 33.4 134.523 33.52C134.936 33.6267 135.323 33.8067 135.683 34.06C136.056 34.3 136.376 34.62 136.643 35.02C136.909 35.42 137.103 35.9067 137.223 36.48H135.483C135.283 35.8933 134.963 35.4733 134.523 35.22C134.096 34.9667 133.589 34.8467 133.003 34.86C132.429 34.86 131.923 34.9733 131.483 35.2C131.056 35.4133 130.709 35.7 130.443 36.06C130.189 36.42 130.003 36.84 129.883 37.32C129.763 37.7867 129.702 38.2667 129.702 38.76C129.702 39.28 129.763 39.7733 129.883 40.24C130.016 40.7067 130.209 41.12 130.463 41.48C130.729 41.8267 131.069 42.1067 131.483 42.32C131.896 42.52 132.389 42.62 132.963 42.62C133.243 42.62 133.516 42.5933 133.783 42.54C134.063 42.4867 134.316 42.4 134.543 42.28C134.783 42.1467 134.989 41.9733 135.163 41.76C135.336 41.5467 135.463 41.2867 135.543 40.98H137.303C137.196 41.5267 137.003 42 136.723 42.4C136.456 42.7867 136.123 43.1133 135.723 43.38C135.323 43.6333 134.883 43.82 134.403 43.94C133.923 44.06 133.423 44.12 132.903 44.12ZM147.237 33.46V34.96H143.617V44H141.917V34.96H138.297V33.46H147.237ZM148.754 33.46H152.834C153.514 33.46 154.094 33.5067 154.574 33.6C155.067 33.6933 155.481 33.86 155.814 34.1C156.107 34.3 156.334 34.5667 156.494 34.9C156.667 35.2333 156.754 35.6267 156.754 36.08C156.754 37.1333 156.281 37.8867 155.334 38.34C156.054 38.5 156.574 38.8133 156.894 39.28C157.214 39.7467 157.374 40.28 157.374 40.88C157.361 41.44 157.267 41.9 157.094 42.26C156.921 42.6067 156.674 42.9133 156.354 43.18C156.047 43.4333 155.667 43.6333 155.214 43.78C154.761 43.9267 154.247 44 153.674 44H148.754V33.46ZM150.494 34.96V37.96H151.954C152.287 37.96 152.627 37.9533 152.974 37.94C153.321 37.9133 153.627 37.8533 153.894 37.76C154.227 37.6533 154.507 37.48 154.734 37.24C154.961 37 155.081 36.7133 155.094 36.38C155.094 35.9933 155.007 35.7133 154.834 35.54C154.674 35.3533 154.474 35.22 154.234 35.14C153.994 35.0467 153.734 34.9933 153.454 34.98C153.174 34.9667 152.914 34.96 152.674 34.96H150.494ZM150.494 42.52H153.274C153.581 42.52 153.874 42.5 154.154 42.46C154.447 42.42 154.701 42.3467 154.914 42.24C155.127 42.12 155.301 41.96 155.434 41.76C155.567 41.56 155.641 41.3067 155.654 41C155.654 40.6 155.561 40.2867 155.374 40.06C155.187 39.82 154.934 39.6467 154.614 39.54C154.347 39.46 154.047 39.4133 153.714 39.4C153.381 39.3867 153.034 39.38 152.674 39.38L150.494 39.4V42.52ZM167.272 33.46H169.192L166.212 41.76C166.052 42.1867 165.878 42.6733 165.692 43.22C165.518 43.7533 165.318 44.2867 165.092 44.82C164.878 45.3667 164.632 45.88 164.352 46.36C164.085 46.84 163.785 47.2267 163.452 47.52C162.958 47.96 162.485 48.2333 162.032 48.34C161.578 48.46 161.065 48.52 160.492 48.52H160.132V46.9C160.612 46.9 161.018 46.8467 161.352 46.74C161.685 46.6467 161.972 46.4933 162.212 46.28C162.465 46.0667 162.678 45.8 162.852 45.48C163.038 45.16 163.225 44.78 163.412 44.34L158.692 33.46H160.692L164.352 42.34L167.272 33.46ZM175.546 30.76C176.106 30.76 176.552 30.6533 176.886 30.44C177.232 30.2267 177.406 29.8533 177.406 29.32H178.966C178.939 30.28 178.619 30.98 178.006 31.42C177.406 31.86 176.579 32.08 175.526 32.08C174.472 32.08 173.646 31.86 173.046 31.42C172.459 30.98 172.152 30.28 172.126 29.32H173.686C173.699 29.8533 173.872 30.2267 174.206 30.44C174.539 30.6533 174.986 30.76 175.546 30.76ZM172.426 44H170.766V33.46H172.466V41.54C172.559 41.3533 172.686 41.1533 172.846 40.94C173.006 40.7133 173.132 40.54 173.226 40.42L178.326 33.46H180.006V44H178.306V35.92C178.199 36.12 178.079 36.3133 177.946 36.5C177.826 36.6733 177.712 36.8267 177.606 36.96L172.426 44ZM190.46 33.46V34.96H186.84V44H185.14V34.96H181.52V33.46H190.46ZM193.297 39.36C193.337 39.8267 193.43 40.26 193.577 40.66C193.737 41.0467 193.95 41.3867 194.217 41.68C194.483 41.9733 194.81 42.2067 195.197 42.38C195.597 42.54 196.057 42.62 196.577 42.62C196.83 42.62 197.09 42.6 197.357 42.56C197.637 42.5067 197.897 42.4267 198.137 42.32C198.377 42.2 198.59 42.0467 198.777 41.86C198.963 41.6733 199.103 41.4467 199.197 41.18H200.937C200.817 41.6867 200.61 42.1267 200.317 42.5C200.037 42.8733 199.697 43.18 199.297 43.42C198.91 43.66 198.477 43.84 197.997 43.96C197.517 44.0667 197.03 44.12 196.537 44.12C195.697 44.12 194.963 43.9867 194.337 43.72C193.723 43.4533 193.21 43.0867 192.797 42.62C192.383 42.14 192.077 41.5733 191.877 40.92C191.677 40.2533 191.577 39.5267 191.577 38.74C191.577 37.9533 191.683 37.2333 191.897 36.58C192.123 35.9133 192.443 35.34 192.857 34.86C193.27 34.38 193.777 34.0067 194.377 33.74C194.977 33.4733 195.69 33.34 196.517 33.34C197.357 33.34 198.083 33.5067 198.697 33.84C199.31 34.1733 199.803 34.6133 200.177 35.16C200.55 35.6933 200.81 36.2733 200.957 36.9C201.117 37.5267 201.183 38.1067 201.157 38.64C201.157 38.76 201.15 38.88 201.137 39C201.137 39.12 201.13 39.24 201.117 39.36H193.297ZM199.437 37.88C199.41 36.9867 199.13 36.26 198.597 35.7C198.063 35.14 197.35 34.86 196.457 34.86C195.963 34.86 195.53 34.94 195.157 35.1C194.783 35.26 194.47 35.48 194.217 35.76C193.963 36.04 193.763 36.3667 193.617 36.74C193.47 37.1 193.377 37.48 193.337 37.88H199.437ZM208.832 44V33.46H210.532V38.08H215.812V33.46H217.512V44H215.812V39.58H210.532V44H208.832ZM227.139 42.66C226.913 42.9667 226.653 43.2133 226.359 43.4C226.066 43.5867 225.759 43.7333 225.439 43.84C225.133 43.9467 224.819 44.02 224.499 44.06C224.193 44.1 223.886 44.12 223.579 44.12C223.086 44.12 222.619 44.06 222.179 43.94C221.739 43.82 221.339 43.6267 220.979 43.36C220.633 43.0933 220.353 42.76 220.139 42.36C219.939 41.96 219.839 41.5067 219.839 41C219.839 40.4 219.946 39.9 220.159 39.5C220.386 39.0867 220.686 38.7533 221.059 38.5C221.433 38.2467 221.859 38.0733 222.339 37.98C222.833 37.8733 223.353 37.82 223.899 37.82H226.999C226.999 36.9267 226.806 36.22 226.419 35.7C226.033 35.1667 225.379 34.8867 224.459 34.86C223.899 34.86 223.406 34.9533 222.979 35.14C222.553 35.3267 222.259 35.6333 222.099 36.06H220.279C220.373 35.58 220.559 35.1733 220.839 34.84C221.119 34.4933 221.453 34.2133 221.839 34C222.226 33.7733 222.646 33.6067 223.099 33.5C223.553 33.3933 224.006 33.34 224.459 33.34C225.246 33.34 225.906 33.4733 226.439 33.74C226.986 33.9933 227.426 34.3333 227.759 34.76C228.093 35.1733 228.326 35.68 228.459 36.28C228.593 36.88 228.659 37.5533 228.659 38.3V44H227.239L227.139 42.66ZM225.139 39.24C224.819 39.24 224.446 39.2467 224.019 39.26C223.606 39.26 223.206 39.3 222.819 39.38C222.433 39.46 222.119 39.6267 221.879 39.88C221.653 40.1333 221.539 40.4667 221.539 40.88C221.539 41.1867 221.599 41.4467 221.719 41.66C221.839 41.8733 221.999 42.0533 222.199 42.2C222.413 42.3467 222.653 42.4533 222.919 42.52C223.186 42.5867 223.459 42.62 223.739 42.62C224.739 42.62 225.526 42.38 226.099 41.9C226.686 41.4067 226.986 40.6933 226.999 39.76V39.24H225.139ZM231.293 33.46H235.373C236.053 33.46 236.633 33.5067 237.113 33.6C237.606 33.6933 238.02 33.86 238.353 34.1C238.646 34.3 238.873 34.5667 239.033 34.9C239.206 35.2333 239.293 35.6267 239.293 36.08C239.293 37.1333 238.82 37.8867 237.873 38.34C238.593 38.5 239.113 38.8133 239.433 39.28C239.753 39.7467 239.913 40.28 239.913 40.88C239.9 41.44 239.806 41.9 239.633 42.26C239.46 42.6067 239.213 42.9133 238.893 43.18C238.586 43.4333 238.206 43.6333 237.753 43.78C237.3 43.9267 236.786 44 236.213 44H231.293V33.46ZM233.033 34.96V37.96H234.493C234.826 37.96 235.166 37.9533 235.513 37.94C235.86 37.9133 236.166 37.8533 236.433 37.76C236.766 37.6533 237.046 37.48 237.273 37.24C237.5 37 237.62 36.7133 237.633 36.38C237.633 35.9933 237.546 35.7133 237.373 35.54C237.213 35.3533 237.013 35.22 236.773 35.14C236.533 35.0467 236.273 34.9933 235.993 34.98C235.713 34.9667 235.453 34.96 235.213 34.96H233.033ZM233.033 42.52H235.813C236.12 42.52 236.413 42.5 236.693 42.46C236.986 42.42 237.24 42.3467 237.453 42.24C237.666 42.12 237.84 41.96 237.973 41.76C238.106 41.56 238.18 41.3067 238.193 41C238.193 40.6 238.1 40.2867 237.913 40.06C237.726 39.82 237.473 39.6467 237.153 39.54C236.886 39.46 236.586 39.4133 236.253 39.4C235.92 39.3867 235.573 39.38 235.213 39.38L233.033 39.4V42.52ZM242.231 33.46H243.971V37.48H245.871C246.471 37.48 247.017 37.5267 247.511 37.62C248.017 37.7 248.464 37.8733 248.851 38.14C249.211 38.4067 249.484 38.7467 249.671 39.16C249.871 39.56 249.971 40.06 249.971 40.66C249.944 41.26 249.831 41.76 249.631 42.16C249.444 42.5467 249.197 42.8733 248.891 43.14C248.517 43.4467 248.064 43.6667 247.531 43.8C246.997 43.9333 246.451 44 245.891 44H242.231V33.46ZM251.431 44V33.46H253.131V44H251.431ZM244.531 42.52C245.037 42.52 245.544 42.5133 246.051 42.5C246.571 42.4733 247.017 42.3667 247.391 42.18C247.644 42.0733 247.844 41.8933 247.991 41.64C248.151 41.3733 248.237 41.0667 248.251 40.72C248.251 40.3067 248.164 39.98 247.991 39.74C247.831 39.5 247.617 39.3267 247.351 39.22C247.097 39.1 246.811 39.0267 246.491 39C246.171 38.9733 245.857 38.96 245.551 38.96H243.971V42.52H244.531ZM255.805 44V33.46H257.505V38H259.345L262.465 33.46H264.405L260.885 38.48L264.705 44H262.705L259.545 39.48H257.505V44H255.805ZM267.836 44H266.176V33.46H267.876V41.54C267.969 41.3533 268.096 41.1533 268.256 40.94C268.416 40.7133 268.543 40.54 268.636 40.42L273.736 33.46H275.416V44H273.716V35.92C273.609 36.12 273.489 36.3133 273.356 36.5C273.236 36.6733 273.123 36.8267 273.016 36.96L267.836 44ZM29.34 70V59.46H38.08V70H36.38V60.96H31.04V70H29.34ZM48.3458 59.46H50.2658L47.2858 67.76C47.1258 68.1867 46.9524 68.6733 46.7658 69.22C46.5924 69.7533 46.3924 70.2867 46.1658 70.82C45.9524 71.3667 45.7058 71.88 45.4258 72.36C45.1591 72.84 44.8591 73.2267 44.5258 73.52C44.0324 73.96 43.5591 74.2333 43.1058 74.34C42.6524 74.46 42.1391 74.52 41.5658 74.52H41.2058V72.9C41.6858 72.9 42.0924 72.8467 42.4258 72.74C42.7591 72.6467 43.0458 72.4933 43.2858 72.28C43.5391 72.0667 43.7524 71.8 43.9258 71.48C44.1124 71.16 44.2991 70.78 44.4858 70.34L39.7658 59.46H41.7658L45.4258 68.34L48.3458 59.46ZM53.12 61.84C53.32 61.56 53.5533 61.3267 53.82 61.14C54.0867 60.94 54.3733 60.7733 54.68 60.64C55 60.5067 55.32 60.4133 55.64 60.36C55.9733 60.2933 56.2933 60.26 56.6 60.26C57.32 60.26 57.9533 60.3733 58.5 60.6C59.06 60.8267 59.5267 61.1533 59.9 61.58C60.2867 61.9933 60.58 62.4933 60.78 63.08C60.98 63.6667 61.08 64.32 61.08 65.04C61.08 65.76 60.9733 66.4333 60.76 67.06C60.5467 67.6733 60.2333 68.2067 59.82 68.66C59.42 69.1133 58.92 69.4733 58.32 69.74C57.7333 69.9933 57.0533 70.12 56.28 70.12C55.4 70.12 54.66 69.9667 54.06 69.66C53.46 69.34 52.9733 68.92 52.6 68.4C52.24 67.8667 51.9733 67.2333 51.8 66.5C51.6267 65.7667 51.5333 65.0467 51.52 64.34C51.4933 64.1267 51.48 63.7 51.48 63.06C51.4933 62.4067 51.5267 61.82 51.58 61.3C51.6333 60.7667 51.72 60.2533 51.84 59.76C51.9733 59.2533 52.1533 58.8067 52.38 58.42C52.74 57.78 53.1933 57.3067 53.74 57C54.3 56.6933 54.94 56.48 55.66 56.36C55.8867 56.32 56.3933 56.2467 57.18 56.14C57.98 56.02 58.5267 55.94 58.82 55.9C59.0733 55.8733 59.3467 55.84 59.64 55.8C59.9467 55.7467 60.2467 55.6933 60.54 55.64V57.2C60.34 57.2667 60.0933 57.3267 59.8 57.38C59.5067 57.42 59.1733 57.46 58.8 57.5C58.5333 57.54 58.2533 57.58 57.96 57.62C57.68 57.6467 57.3867 57.68 57.08 57.72C56.7867 57.7467 56.3333 57.8067 55.72 57.9C55.2667 57.9667 54.8933 58.0933 54.6 58.28C54.32 58.4667 54.0733 58.7133 53.86 59.02C53.6067 59.3933 53.42 59.8467 53.3 60.38C53.1933 60.9 53.1333 61.3867 53.12 61.84ZM56.32 68.62C56.8133 68.62 57.2467 68.5267 57.62 68.34C58.0067 68.1533 58.3267 67.9 58.58 67.58C58.8467 67.26 59.0467 66.8867 59.18 66.46C59.3133 66.0333 59.38 65.58 59.38 65.1C59.38 64.6333 59.3067 64.2 59.16 63.8C59.0267 63.3867 58.8333 63.0333 58.58 62.74C58.3267 62.4333 58.02 62.2 57.66 62.04C57.3 61.8667 56.86 61.78 56.34 61.78C55.86 61.7933 55.4333 61.8867 55.06 62.06C54.6867 62.2333 54.3667 62.48 54.1 62.8C53.8333 63.1067 53.6333 63.4667 53.5 63.88C53.3667 64.28 53.2933 64.7 53.28 65.14C53.28 65.6067 53.34 66.0533 53.46 66.48C53.5933 66.8933 53.7867 67.26 54.04 67.58C54.2933 67.9 54.6067 68.1533 54.98 68.34C55.3667 68.5267 55.8133 68.62 56.32 68.62ZM64.2458 65.06C64.3124 64.1 64.3591 63.1667 64.3858 62.26C64.4258 61.3533 64.4524 60.42 64.4658 59.46H71.7858V70H70.0858V60.96H66.1258L65.9458 65.1C65.9191 65.6333 65.8591 66.2333 65.7658 66.9C65.6724 67.5667 65.4791 68.1733 65.1858 68.72C64.9591 69.1067 64.6524 69.42 64.2658 69.66C63.8791 69.9 63.4324 70.02 62.9258 70.02H62.3058V68.52C62.8391 68.52 63.2658 68.2933 63.5858 67.84C63.7724 67.5733 63.9191 67.1867 64.0258 66.68C64.1324 66.1733 64.2058 65.6333 64.2458 65.06ZM76.1172 70H74.4572V59.46H76.1572V67.54C76.2505 67.3533 76.3772 67.1533 76.5372 66.94C76.6972 66.7133 76.8239 66.54 76.9172 66.42L82.0172 59.46H83.6972V70H81.9972V61.92C81.8905 62.12 81.7705 62.3133 81.6372 62.5C81.5172 62.6733 81.4039 62.8267 81.2972 62.96L76.1172 70ZM85.9113 59.46H87.6113V61.82C87.6113 62.2867 87.6379 62.7 87.6913 63.06C87.7579 63.4067 87.8779 63.7 88.0513 63.94C88.2246 64.18 88.4713 64.3667 88.7913 64.5C89.1113 64.62 89.5313 64.68 90.0513 64.68C90.4513 64.68 90.8713 64.66 91.3113 64.62C91.7646 64.58 92.1846 64.52 92.5713 64.44V59.46H94.2713V70H92.5713V65.94C92.0646 66.0333 91.5713 66.1 91.0913 66.14C90.6246 66.1667 90.2046 66.18 89.8313 66.18C89.0846 66.18 88.4579 66.0933 87.9513 65.92C87.4579 65.7467 87.0579 65.4867 86.7513 65.14C86.4446 64.78 86.2246 64.34 86.0913 63.82C85.9713 63.2867 85.9113 62.66 85.9113 61.94V59.46ZM96.9572 70V59.46H98.6572V64.08H103.937V59.46H105.637V70H103.937V65.58H98.6572V70H96.9572ZM108.324 59.46H110.064V63.48H111.964C112.564 63.48 113.111 63.5267 113.604 63.62C114.111 63.7 114.558 63.8733 114.944 64.14C115.304 64.4067 115.578 64.7467 115.764 65.16C115.964 65.56 116.064 66.06 116.064 66.66C116.038 67.26 115.924 67.76 115.724 68.16C115.538 68.5467 115.291 68.8733 114.984 69.14C114.611 69.4467 114.158 69.6667 113.624 69.8C113.091 69.9333 112.544 70 111.984 70H108.324V59.46ZM117.524 70V59.46H119.224V70H117.524ZM110.624 68.52C111.131 68.52 111.638 68.5133 112.144 68.5C112.664 68.4733 113.111 68.3667 113.484 68.18C113.738 68.0733 113.938 67.8933 114.084 67.64C114.244 67.3733 114.331 67.0667 114.344 66.72C114.344 66.3067 114.258 65.98 114.084 65.74C113.924 65.5 113.711 65.3267 113.444 65.22C113.191 65.1 112.904 65.0267 112.584 65C112.264 64.9733 111.951 64.96 111.644 64.96H110.064V68.52H110.624ZM125.639 65.98L122.759 70H120.839L124.599 64.62L121.019 59.46H123.059L125.739 63.46L128.339 59.46H130.319L126.759 64.68L130.579 70H128.559L125.639 65.98ZM137.582 59.46H141.662C142.342 59.46 142.922 59.5067 143.402 59.6C143.896 59.6933 144.309 59.86 144.642 60.1C144.936 60.3 145.162 60.5667 145.322 60.9C145.496 61.2333 145.582 61.6267 145.582 62.08C145.582 63.1333 145.109 63.8867 144.162 64.34C144.882 64.5 145.402 64.8133 145.722 65.28C146.042 65.7467 146.202 66.28 146.202 66.88C146.189 67.44 146.096 67.9 145.922 68.26C145.749 68.6067 145.502 68.9133 145.182 69.18C144.876 69.4333 144.496 69.6333 144.042 69.78C143.589 69.9267 143.076 70 142.502 70H137.582V59.46ZM139.322 60.96V63.96H140.782C141.116 63.96 141.456 63.9533 141.802 63.94C142.149 63.9133 142.456 63.8533 142.722 63.76C143.056 63.6533 143.336 63.48 143.562 63.24C143.789 63 143.909 62.7133 143.922 62.38C143.922 61.9933 143.836 61.7133 143.662 61.54C143.502 61.3533 143.302 61.22 143.062 61.14C142.822 61.0467 142.562 60.9933 142.282 60.98C142.002 60.9667 141.742 60.96 141.502 60.96H139.322ZM139.322 68.52H142.102C142.409 68.52 142.702 68.5 142.982 68.46C143.276 68.42 143.529 68.3467 143.742 68.24C143.956 68.12 144.129 67.96 144.262 67.76C144.396 67.56 144.469 67.3067 144.482 67C144.482 66.6 144.389 66.2867 144.202 66.06C144.016 65.82 143.762 65.6467 143.442 65.54C143.176 65.46 142.876 65.4133 142.542 65.4C142.209 65.3867 141.862 65.38 141.502 65.38L139.322 65.4V68.52ZM148.52 59.46H150.26V63.48H152.16C152.76 63.48 153.306 63.5267 153.8 63.62C154.306 63.7 154.753 63.8733 155.14 64.14C155.5 64.4067 155.773 64.7467 155.96 65.16C156.16 65.56 156.26 66.06 156.26 66.66C156.233 67.26 156.12 67.76 155.92 68.16C155.733 68.5467 155.486 68.8733 155.18 69.14C154.806 69.4467 154.353 69.6667 153.82 69.8C153.286 69.9333 152.74 70 152.18 70H148.52V59.46ZM157.72 70V59.46H159.42V70H157.72ZM150.82 68.52C151.326 68.52 151.833 68.5133 152.34 68.5C152.86 68.4733 153.306 68.3667 153.68 68.18C153.933 68.0733 154.133 67.8933 154.28 67.64C154.44 67.3733 154.526 67.0667 154.54 66.72C154.54 66.3067 154.453 65.98 154.28 65.74C154.12 65.5 153.906 65.3267 153.64 65.22C153.386 65.1 153.1 65.0267 152.78 65C152.46 64.9733 152.146 64.96 151.84 64.96H150.26V68.52H150.82ZM166.594 70.12C165.754 70.12 165.027 69.9867 164.414 69.72C163.801 69.4533 163.294 69.08 162.894 68.6C162.494 68.12 162.194 67.5533 161.994 66.9C161.794 66.2467 161.694 65.5333 161.694 64.76C161.694 64.0133 161.801 63.3133 162.014 62.66C162.227 61.9933 162.541 61.42 162.954 60.94C163.367 60.4467 163.887 60.06 164.514 59.78C165.141 59.4867 165.901 59.34 166.794 59.34C167.327 59.34 167.801 59.4 168.214 59.52C168.627 59.6267 169.014 59.8067 169.374 60.06C169.747 60.3 170.067 60.62 170.334 61.02C170.601 61.42 170.794 61.9067 170.914 62.48H169.174C168.974 61.8933 168.654 61.4733 168.214 61.22C167.787 60.9667 167.281 60.8467 166.694 60.86C166.121 60.86 165.614 60.9733 165.174 61.2C164.747 61.4133 164.401 61.7 164.134 62.06C163.881 62.42 163.694 62.84 163.574 63.32C163.454 63.7867 163.394 64.2667 163.394 64.76C163.394 65.28 163.454 65.7733 163.574 66.24C163.707 66.7067 163.901 67.12 164.154 67.48C164.421 67.8267 164.761 68.1067 165.174 68.32C165.587 68.52 166.081 68.62 166.654 68.62C166.934 68.62 167.207 68.5933 167.474 68.54C167.754 68.4867 168.007 68.4 168.234 68.28C168.474 68.1467 168.681 67.9733 168.854 67.76C169.027 67.5467 169.154 67.2867 169.234 66.98H170.994C170.887 67.5267 170.694 68 170.414 68.4C170.147 68.7867 169.814 69.1133 169.414 69.38C169.014 69.6333 168.574 69.82 168.094 69.94C167.614 70.06 167.114 70.12 166.594 70.12ZM180.929 59.46V60.96H177.309V70H175.609V60.96H171.989V59.46H180.929ZM190.416 59.46H192.336L189.356 67.76C189.196 68.1867 189.023 68.6733 188.836 69.22C188.663 69.7533 188.463 70.2867 188.236 70.82C188.023 71.3667 187.776 71.88 187.496 72.36C187.229 72.84 186.929 73.2267 186.596 73.52C186.103 73.96 185.629 74.2333 185.176 74.34C184.723 74.46 184.209 74.52 183.636 74.52H183.276V72.9C183.756 72.9 184.163 72.8467 184.496 72.74C184.829 72.6467 185.116 72.4933 185.356 72.28C185.609 72.0667 185.823 71.8 185.996 71.48C186.183 71.16 186.369 70.78 186.556 70.34L181.836 59.46H183.836L187.496 68.34L190.416 59.46ZM193.91 70V59.46H202.65V70H200.95V60.96H195.61V70H193.91ZM206.316 65.06C206.383 64.1 206.429 63.1667 206.456 62.26C206.496 61.3533 206.523 60.42 206.536 59.46H213.856V70H212.156V60.96H208.196L208.016 65.1C207.989 65.6333 207.929 66.2333 207.836 66.9C207.743 67.5667 207.549 68.1733 207.256 68.72C207.029 69.1067 206.723 69.42 206.336 69.66C205.949 69.9 205.503 70.02 204.996 70.02H204.376V68.52C204.909 68.52 205.336 68.2933 205.656 67.84C205.843 67.5733 205.989 67.1867 206.096 66.68C206.203 66.1733 206.276 65.6333 206.316 65.06ZM217.848 65.36C217.888 65.8267 217.981 66.26 218.127 66.66C218.288 67.0467 218.501 67.3867 218.768 67.68C219.034 67.9733 219.361 68.2067 219.748 68.38C220.148 68.54 220.608 68.62 221.128 68.62C221.381 68.62 221.641 68.6 221.908 68.56C222.188 68.5067 222.448 68.4267 222.688 68.32C222.928 68.2 223.141 68.0467 223.328 67.86C223.514 67.6733 223.654 67.4467 223.748 67.18H225.488C225.368 67.6867 225.161 68.1267 224.868 68.5C224.588 68.8733 224.248 69.18 223.848 69.42C223.461 69.66 223.028 69.84 222.548 69.96C222.068 70.0667 221.581 70.12 221.088 70.12C220.248 70.12 219.514 69.9867 218.888 69.72C218.274 69.4533 217.761 69.0867 217.348 68.62C216.934 68.14 216.628 67.5733 216.428 66.92C216.228 66.2533 216.128 65.5267 216.128 64.74C216.128 63.9533 216.234 63.2333 216.448 62.58C216.674 61.9133 216.994 61.34 217.408 60.86C217.821 60.38 218.328 60.0067 218.928 59.74C219.528 59.4733 220.241 59.34 221.067 59.34C221.908 59.34 222.634 59.5067 223.248 59.84C223.861 60.1733 224.354 60.6133 224.728 61.16C225.101 61.6933 225.361 62.2733 225.508 62.9C225.668 63.5267 225.734 64.1067 225.708 64.64C225.708 64.76 225.701 64.88 225.688 65C225.688 65.12 225.681 65.24 225.668 65.36H217.848ZM223.988 63.88C223.961 62.9867 223.681 62.26 223.148 61.7C222.614 61.14 221.901 60.86 221.008 60.86C220.514 60.86 220.081 60.94 219.708 61.1C219.334 61.26 219.021 61.48 218.768 61.76C218.514 62.04 218.314 62.3667 218.168 62.74C218.021 63.1 217.928 63.48 217.888 63.88H223.988ZM227.992 70V59.46H229.692V64.08H234.972V59.46H236.672V70H234.972V65.58H229.692V70H227.992ZM241.02 70H239.36V59.46H241.06V67.54C241.153 67.3533 241.28 67.1533 241.44 66.94C241.6 66.7133 241.726 66.54 241.82 66.42L246.92 59.46H248.6V70H246.9V61.92C246.793 62.12 246.673 62.3133 246.54 62.5C246.42 62.6733 246.306 62.8267 246.2 62.96L241.02 70ZM256.054 56.76C256.614 56.76 257.06 56.6533 257.394 56.44C257.74 56.2267 257.914 55.8533 257.914 55.32H259.474C259.447 56.28 259.127 56.98 258.514 57.42C257.914 57.86 257.087 58.08 256.034 58.08C254.98 58.08 254.154 57.86 253.554 57.42C252.967 56.98 252.66 56.28 252.634 55.32H254.194C254.207 55.8533 254.38 56.2267 254.714 56.44C255.047 56.6533 255.494 56.76 256.054 56.76ZM252.934 70H251.274V59.46H252.974V67.54C253.067 67.3533 253.194 67.1533 253.354 66.94C253.514 66.7133 253.64 66.54 253.734 66.42L258.834 59.46H260.514V70H258.814V61.92C258.707 62.12 258.587 62.3133 258.454 62.5C258.334 62.6733 258.22 62.8267 258.114 62.96L252.934 70ZM264.408 70.04C264.061 70.0133 263.781 69.9 263.568 69.7C263.354 69.5 263.248 69.2333 263.248 68.9C263.261 68.5533 263.381 68.28 263.608 68.08C263.848 67.8667 264.121 67.76 264.428 67.76C264.814 67.76 265.121 67.9 265.348 68.18C265.588 68.46 265.708 68.8533 265.708 69.36C265.708 69.64 265.648 69.9467 265.528 70.28C265.421 70.6267 265.274 70.94 265.088 71.22C264.901 71.5 264.681 71.7467 264.428 71.96C264.188 72.1733 263.934 72.3267 263.668 72.42L263.188 71.76C263.454 71.5733 263.701 71.32 263.928 71C264.168 70.68 264.328 70.36 264.408 70.04ZM31.04 99.8H29.34V85.46H30.96L31.04 87.08C31.4 86.5067 31.8867 86.08 32.5 85.8C33.1267 85.5067 33.8 85.3533 34.52 85.34C35.3333 85.34 36.02 85.48 36.58 85.76C37.1533 86.0267 37.6267 86.4067 38 86.9C38.3867 87.38 38.6733 87.9533 38.86 88.62C39.0467 89.2733 39.14 89.98 39.14 90.74C39.14 91.5133 39.0467 92.2267 38.86 92.88C38.6733 93.5333 38.3867 94.1 38 94.58C37.6133 95.06 37.1267 95.44 36.54 95.72C35.9533 95.9867 35.2533 96.12 34.44 96.12C33.64 96.12 32.96 95.9933 32.4 95.74C31.84 95.4867 31.3867 95.1533 31.04 94.74V99.8ZM34.3 94.62C34.8733 94.62 35.3533 94.52 35.74 94.32C36.14 94.1067 36.46 93.8267 36.7 93.48C36.9533 93.12 37.1333 92.7067 37.24 92.24C37.36 91.7733 37.4267 91.2733 37.44 90.74C37.44 90.2067 37.38 89.7067 37.26 89.24C37.1533 88.76 36.9733 88.3467 36.72 88C36.4667 87.6533 36.1333 87.38 35.72 87.18C35.32 86.9667 34.8333 86.86 34.26 86.86C33.58 86.86 32.9933 87.0467 32.5 87.42C32.0067 87.78 31.6333 88.24 31.38 88.8C31.2333 89.1067 31.1333 89.4267 31.08 89.76C31.0267 90.08 31 90.4133 31 90.76C31 91.16 31.0267 91.5333 31.08 91.88C31.1333 92.2133 31.2333 92.5333 31.38 92.84C31.6333 93.3467 32 93.7733 32.48 94.12C32.9733 94.4533 33.58 94.62 34.3 94.62ZM42.6522 91.36C42.6922 91.8267 42.7855 92.26 42.9322 92.66C43.0922 93.0467 43.3055 93.3867 43.5722 93.68C43.8389 93.9733 44.1655 94.2067 44.5522 94.38C44.9522 94.54 45.4122 94.62 45.9322 94.62C46.1855 94.62 46.4455 94.6 46.7122 94.56C46.9922 94.5067 47.2522 94.4267 47.4922 94.32C47.7322 94.2 47.9455 94.0467 48.1322 93.86C48.3189 93.6733 48.4589 93.4467 48.5522 93.18H50.2922C50.1722 93.6867 49.9655 94.1267 49.6722 94.5C49.3922 94.8733 49.0522 95.18 48.6522 95.42C48.2655 95.66 47.8322 95.84 47.3522 95.96C46.8722 96.0667 46.3855 96.12 45.8922 96.12C45.0522 96.12 44.3189 95.9867 43.6922 95.72C43.0789 95.4533 42.5655 95.0867 42.1522 94.62C41.7389 94.14 41.4322 93.5733 41.2322 92.92C41.0322 92.2533 40.9322 91.5267 40.9322 90.74C40.9322 89.9533 41.0389 89.2333 41.2522 88.58C41.4789 87.9133 41.7989 87.34 42.2122 86.86C42.6255 86.38 43.1322 86.0067 43.7322 85.74C44.3322 85.4733 45.0455 85.34 45.8722 85.34C46.7122 85.34 47.4389 85.5067 48.0522 85.84C48.6655 86.1733 49.1589 86.6133 49.5322 87.16C49.9055 87.6933 50.1655 88.2733 50.3122 88.9C50.4722 89.5267 50.5389 90.1067 50.5122 90.64C50.5122 90.76 50.5055 90.88 50.4922 91C50.4922 91.12 50.4855 91.24 50.4722 91.36H42.6522ZM48.7922 89.88C48.7655 88.9867 48.4855 88.26 47.9522 87.7C47.4189 87.14 46.7055 86.86 45.8122 86.86C45.3189 86.86 44.8855 86.94 44.5122 87.1C44.1389 87.26 43.8255 87.48 43.5722 87.76C43.3189 88.04 43.1189 88.3667 42.9722 88.74C42.8255 89.1 42.7322 89.48 42.6922 89.88H48.7922ZM52.797 96V85.46H61.537V96H59.837V86.96H54.497V96H52.797ZM65.5428 91.36C65.5828 91.8267 65.6761 92.26 65.8228 92.66C65.9828 93.0467 66.1961 93.3867 66.4628 93.68C66.7295 93.9733 67.0561 94.2067 67.4428 94.38C67.8428 94.54 68.3028 94.62 68.8228 94.62C69.0761 94.62 69.3361 94.6 69.6028 94.56C69.8828 94.5067 70.1428 94.4267 70.3828 94.32C70.6228 94.2 70.8361 94.0467 71.0228 93.86C71.2095 93.6733 71.3495 93.4467 71.4428 93.18H73.1828C73.0628 93.6867 72.8561 94.1267 72.5628 94.5C72.2828 94.8733 71.9428 95.18 71.5428 95.42C71.1561 95.66 70.7228 95.84 70.2428 95.96C69.7628 96.0667 69.2761 96.12 68.7828 96.12C67.9428 96.12 67.2095 95.9867 66.5828 95.72C65.9695 95.4533 65.4561 95.0867 65.0428 94.62C64.6295 94.14 64.3228 93.5733 64.1228 92.92C63.9228 92.2533 63.8228 91.5267 63.8228 90.74C63.8228 89.9533 63.9295 89.2333 64.1428 88.58C64.3695 87.9133 64.6895 87.34 65.1028 86.86C65.5161 86.38 66.0228 86.0067 66.6228 85.74C67.2228 85.4733 67.9361 85.34 68.7628 85.34C69.6028 85.34 70.3295 85.5067 70.9428 85.84C71.5561 86.1733 72.0495 86.6133 72.4228 87.16C72.7961 87.6933 73.0561 88.2733 73.2028 88.9C73.3628 89.5267 73.4295 90.1067 73.4028 90.64C73.4028 90.76 73.3961 90.88 73.3828 91C73.3828 91.12 73.3761 91.24 73.3628 91.36H65.5428ZM71.6828 89.88C71.6561 88.9867 71.3761 88.26 70.8428 87.7C70.3095 87.14 69.5961 86.86 68.7028 86.86C68.2095 86.86 67.7761 86.94 67.4028 87.1C67.0295 87.26 66.7161 87.48 66.4628 87.76C66.2095 88.04 66.0095 88.3667 65.8628 88.74C65.7161 89.1 65.6228 89.48 65.5828 89.88H71.6828ZM83.4677 85.46V86.96H79.8477V96H78.1477V86.96H74.5277V85.46H83.4677ZM86.6445 96H84.9845V85.46H86.6845V93.54C86.7779 93.3533 86.9045 93.1533 87.0645 92.94C87.2245 92.7133 87.3512 92.54 87.4445 92.42L92.5445 85.46H94.2245V96H92.5245V87.92C92.4179 88.12 92.2979 88.3133 92.1645 88.5C92.0445 88.6733 91.9312 88.8267 91.8245 88.96L86.6445 96ZM98.5986 99.8H96.8986V85.46H98.5186L98.5986 87.08C98.9586 86.5067 99.4453 86.08 100.059 85.8C100.685 85.5067 101.359 85.3533 102.079 85.34C102.892 85.34 103.579 85.48 104.139 85.76C104.712 86.0267 105.185 86.4067 105.559 86.9C105.945 87.38 106.232 87.9533 106.419 88.62C106.605 89.2733 106.699 89.98 106.699 90.74C106.699 91.5133 106.605 92.2267 106.419 92.88C106.232 93.5333 105.945 94.1 105.559 94.58C105.172 95.06 104.685 95.44 104.099 95.72C103.512 95.9867 102.812 96.12 101.999 96.12C101.199 96.12 100.519 95.9933 99.9586 95.74C99.3986 95.4867 98.9453 95.1533 98.5986 94.74V99.8ZM101.859 94.62C102.432 94.62 102.912 94.52 103.299 94.32C103.699 94.1067 104.019 93.8267 104.259 93.48C104.512 93.12 104.692 92.7067 104.799 92.24C104.919 91.7733 104.985 91.2733 104.999 90.74C104.999 90.2067 104.939 89.7067 104.819 89.24C104.712 88.76 104.532 88.3467 104.279 88C104.025 87.6533 103.692 87.38 103.279 87.18C102.879 86.9667 102.392 86.86 101.819 86.86C101.139 86.86 100.552 87.0467 100.059 87.42C99.5653 87.78 99.1919 88.24 98.9386 88.8C98.7919 89.1067 98.6919 89.4267 98.6386 89.76C98.5853 90.08 98.5586 90.4133 98.5586 90.76C98.5586 91.16 98.5853 91.5333 98.6386 91.88C98.6919 92.2133 98.7919 92.5333 98.9386 92.84C99.1919 93.3467 99.5586 93.7733 100.039 94.12C100.532 94.4533 101.139 94.62 101.859 94.62ZM116.471 85.46H118.391L115.411 93.76C115.251 94.1867 115.077 94.6733 114.891 95.22C114.717 95.7533 114.517 96.2867 114.291 96.82C114.077 97.3667 113.831 97.88 113.551 98.36C113.284 98.84 112.984 99.2267 112.651 99.52C112.157 99.96 111.684 100.233 111.231 100.34C110.777 100.46 110.264 100.52 109.691 100.52H109.331V98.9C109.811 98.9 110.217 98.8467 110.551 98.74C110.884 98.6467 111.171 98.4933 111.411 98.28C111.664 98.0667 111.877 97.8 112.051 97.48C112.237 97.16 112.424 96.78 112.611 96.34L107.891 85.46H109.891L113.551 94.34L116.471 85.46ZM127.965 96H126.265V92.1H123.845L121.285 96H119.305L122.045 91.84C121.285 91.6267 120.692 91.28 120.265 90.8C119.838 90.3067 119.612 89.6533 119.585 88.84C119.572 88.1333 119.678 87.5667 119.905 87.14C120.145 86.7 120.458 86.3467 120.845 86.08C121.218 85.8133 121.652 85.6467 122.145 85.58C122.638 85.5 123.165 85.46 123.725 85.46H127.965V96ZM126.265 86.96L124.005 86.94C123.672 86.94 123.332 86.9533 122.985 86.98C122.652 87.0067 122.352 87.0933 122.085 87.24C121.858 87.3733 121.672 87.5667 121.525 87.82C121.392 88.06 121.318 88.3733 121.305 88.76C121.318 89.12 121.405 89.4267 121.565 89.68C121.725 89.92 121.952 90.1133 122.245 90.26C122.632 90.4467 123.058 90.5533 123.525 90.58C124.005 90.6067 124.498 90.62 125.005 90.62H126.265V86.96ZM136.039 96V85.46H137.739V90.08H143.019V85.46H144.719V96H143.019V91.58H137.739V96H136.039ZM154.346 94.66C154.12 94.9667 153.86 95.2133 153.566 95.4C153.273 95.5867 152.966 95.7333 152.646 95.84C152.34 95.9467 152.026 96.02 151.706 96.06C151.4 96.1 151.093 96.12 150.786 96.12C150.293 96.12 149.826 96.06 149.386 95.94C148.946 95.82 148.546 95.6267 148.186 95.36C147.84 95.0933 147.56 94.76 147.346 94.36C147.146 93.96 147.046 93.5067 147.046 93C147.046 92.4 147.153 91.9 147.366 91.5C147.593 91.0867 147.893 90.7533 148.266 90.5C148.64 90.2467 149.066 90.0733 149.546 89.98C150.04 89.8733 150.56 89.82 151.106 89.82H154.206C154.206 88.9267 154.013 88.22 153.626 87.7C153.24 87.1667 152.586 86.8867 151.666 86.86C151.106 86.86 150.613 86.9533 150.186 87.14C149.76 87.3267 149.466 87.6333 149.306 88.06H147.486C147.58 87.58 147.766 87.1733 148.046 86.84C148.326 86.4933 148.66 86.2133 149.046 86C149.433 85.7733 149.853 85.6067 150.306 85.5C150.76 85.3933 151.213 85.34 151.666 85.34C152.453 85.34 153.113 85.4733 153.646 85.74C154.193 85.9933 154.633 86.3333 154.966 86.76C155.3 87.1733 155.533 87.68 155.666 88.28C155.8 88.88 155.866 89.5533 155.866 90.3V96H154.446L154.346 94.66ZM152.346 91.24C152.026 91.24 151.653 91.2467 151.226 91.26C150.813 91.26 150.413 91.3 150.026 91.38C149.64 91.46 149.326 91.6267 149.086 91.88C148.86 92.1333 148.746 92.4667 148.746 92.88C148.746 93.1867 148.806 93.4467 148.926 93.66C149.046 93.8733 149.206 94.0533 149.406 94.2C149.62 94.3467 149.86 94.4533 150.126 94.52C150.393 94.5867 150.666 94.62 150.946 94.62C151.946 94.62 152.733 94.38 153.306 93.9C153.893 93.4067 154.193 92.6933 154.206 91.76V91.24H152.346ZM159.82 91.36C159.86 91.8267 159.953 92.26 160.1 92.66C160.26 93.0467 160.473 93.3867 160.74 93.68C161.007 93.9733 161.333 94.2067 161.72 94.38C162.12 94.54 162.58 94.62 163.1 94.62C163.353 94.62 163.613 94.6 163.88 94.56C164.16 94.5067 164.42 94.4267 164.66 94.32C164.9 94.2 165.113 94.0467 165.3 93.86C165.487 93.6733 165.627 93.4467 165.72 93.18H167.46C167.34 93.6867 167.133 94.1267 166.84 94.5C166.56 94.8733 166.22 95.18 165.82 95.42C165.433 95.66 165 95.84 164.52 95.96C164.04 96.0667 163.553 96.12 163.06 96.12C162.22 96.12 161.487 95.9867 160.86 95.72C160.247 95.4533 159.733 95.0867 159.32 94.62C158.907 94.14 158.6 93.5733 158.4 92.92C158.2 92.2533 158.1 91.5267 158.1 90.74C158.1 89.9533 158.207 89.2333 158.42 88.58C158.647 87.9133 158.967 87.34 159.38 86.86C159.793 86.38 160.3 86.0067 160.9 85.74C161.5 85.4733 162.213 85.34 163.04 85.34C163.88 85.34 164.607 85.5067 165.22 85.84C165.833 86.1733 166.327 86.6133 166.7 87.16C167.073 87.6933 167.333 88.2733 167.48 88.9C167.64 89.5267 167.707 90.1067 167.68 90.64C167.68 90.76 167.673 90.88 167.66 91C167.66 91.12 167.653 91.24 167.64 91.36H159.82ZM165.96 89.88C165.933 88.9867 165.653 88.26 165.12 87.7C164.587 87.14 163.873 86.86 162.98 86.86C162.487 86.86 162.053 86.94 161.68 87.1C161.307 87.26 160.993 87.48 160.74 87.76C160.487 88.04 160.287 88.3667 160.14 88.74C159.993 89.1 159.9 89.48 159.86 89.88H165.96ZM170.931 87.78C170.944 87.3933 170.951 87.0067 170.951 86.62C170.951 86.2333 170.951 85.8467 170.951 85.46H178.431V94.52H179.811V99.24H178.171V96H170.471V99.24H168.831V94.52C169.364 94.52 169.784 94.28 170.091 93.8C170.277 93.5333 170.424 93.1533 170.531 92.66C170.637 92.1533 170.717 91.62 170.771 91.06C170.837 90.4467 170.877 89.84 170.891 89.24C170.917 88.6267 170.931 88.14 170.931 87.78ZM176.731 86.96H172.571C172.557 87.52 172.544 88.1467 172.531 88.84C172.517 89.5333 172.491 90.18 172.451 90.78C172.437 91.0467 172.417 91.34 172.391 91.66C172.364 91.9667 172.317 92.2867 172.251 92.62C172.197 92.94 172.111 93.2667 171.991 93.6C171.884 93.9333 171.731 94.24 171.531 94.52H176.731V86.96ZM183.246 96H181.586V85.46H183.286V93.54C183.379 93.3533 183.506 93.1533 183.666 92.94C183.826 92.7133 183.953 92.54 184.046 92.42L189.146 85.46H190.826V96H189.126V87.92C189.019 88.12 188.899 88.3133 188.766 88.5C188.646 88.6733 188.533 88.8267 188.426 88.96L183.246 96ZM193.5 96V85.46H195.2V90.08H200.48V85.46H202.18V96H200.48V91.58H195.2V96H193.5ZM206.187 91.36C206.227 91.8267 206.321 92.26 206.467 92.66C206.627 93.0467 206.841 93.3867 207.107 93.68C207.374 93.9733 207.701 94.2067 208.087 94.38C208.487 94.54 208.947 94.62 209.467 94.62C209.721 94.62 209.981 94.6 210.247 94.56C210.527 94.5067 210.787 94.4267 211.027 94.32C211.267 94.2 211.481 94.0467 211.667 93.86C211.854 93.6733 211.994 93.4467 212.087 93.18H213.827C213.707 93.6867 213.501 94.1267 213.207 94.5C212.927 94.8733 212.587 95.18 212.187 95.42C211.801 95.66 211.367 95.84 210.887 95.96C210.407 96.0667 209.921 96.12 209.427 96.12C208.587 96.12 207.854 95.9867 207.227 95.72C206.614 95.4533 206.101 95.0867 205.687 94.62C205.274 94.14 204.967 93.5733 204.767 92.92C204.567 92.2533 204.467 91.5267 204.467 90.74C204.467 89.9533 204.574 89.2333 204.787 88.58C205.014 87.9133 205.334 87.34 205.747 86.86C206.161 86.38 206.667 86.0067 207.267 85.74C207.867 85.4733 208.581 85.34 209.407 85.34C210.247 85.34 210.974 85.5067 211.587 85.84C212.201 86.1733 212.694 86.6133 213.067 87.16C213.441 87.6933 213.701 88.2733 213.847 88.9C214.007 89.5267 214.074 90.1067 214.047 90.64C214.047 90.76 214.041 90.88 214.027 91C214.027 91.12 214.021 91.24 214.007 91.36H206.187ZM212.327 89.88C212.301 88.9867 212.021 88.26 211.487 87.7C210.954 87.14 210.241 86.86 209.347 86.86C208.854 86.86 208.421 86.94 208.047 87.1C207.674 87.26 207.361 87.48 207.107 87.76C206.854 88.04 206.654 88.3667 206.507 88.74C206.361 89.1 206.267 89.48 206.227 89.88H212.327ZM226.223 96.12C225.383 96.12 224.656 95.9867 224.043 95.72C223.429 95.4533 222.923 95.08 222.523 94.6C222.123 94.12 221.823 93.5533 221.623 92.9C221.423 92.2467 221.323 91.5333 221.323 90.76C221.323 90.0133 221.429 89.3133 221.643 88.66C221.856 87.9933 222.169 87.42 222.583 86.94C222.996 86.4467 223.516 86.06 224.143 85.78C224.769 85.4867 225.529 85.34 226.423 85.34C226.956 85.34 227.429 85.4 227.843 85.52C228.256 85.6267 228.643 85.8067 229.003 86.06C229.376 86.3 229.696 86.62 229.963 87.02C230.229 87.42 230.423 87.9067 230.543 88.48H228.803C228.603 87.8933 228.283 87.4733 227.843 87.22C227.416 86.9667 226.909 86.8467 226.323 86.86C225.749 86.86 225.243 86.9733 224.803 87.2C224.376 87.4133 224.029 87.7 223.763 88.06C223.509 88.42 223.323 88.84 223.203 89.32C223.083 89.7867 223.023 90.2667 223.023 90.76C223.023 91.28 223.083 91.7733 223.203 92.24C223.336 92.7067 223.529 93.12 223.783 93.48C224.049 93.8267 224.389 94.1067 224.803 94.32C225.216 94.52 225.709 94.62 226.283 94.62C226.563 94.62 226.836 94.5933 227.103 94.54C227.383 94.4867 227.636 94.4 227.863 94.28C228.103 94.1467 228.309 93.9733 228.483 93.76C228.656 93.5467 228.783 93.2867 228.863 92.98H230.623C230.516 93.5267 230.323 94 230.043 94.4C229.776 94.7867 229.443 95.1133 229.043 95.38C228.643 95.6333 228.203 95.82 227.723 95.94C227.243 96.06 226.743 96.12 226.223 96.12ZM242.668 96.12C241.828 96.12 241.101 95.9867 240.488 95.72C239.875 95.4533 239.368 95.08 238.968 94.6C238.568 94.12 238.268 93.5533 238.068 92.9C237.868 92.2467 237.768 91.5333 237.768 90.76C237.768 90.0133 237.875 89.3133 238.088 88.66C238.301 87.9933 238.615 87.42 239.028 86.94C239.441 86.4467 239.961 86.06 240.588 85.78C241.215 85.4867 241.975 85.34 242.868 85.34C243.401 85.34 243.875 85.4 244.288 85.52C244.701 85.6267 245.088 85.8067 245.448 86.06C245.821 86.3 246.141 86.62 246.408 87.02C246.675 87.42 246.868 87.9067 246.988 88.48H245.248C245.048 87.8933 244.728 87.4733 244.288 87.22C243.861 86.9667 243.355 86.8467 242.768 86.86C242.195 86.86 241.688 86.9733 241.248 87.2C240.821 87.4133 240.475 87.7 240.208 88.06C239.955 88.42 239.768 88.84 239.648 89.32C239.528 89.7867 239.468 90.2667 239.468 90.76C239.468 91.28 239.528 91.7733 239.648 92.24C239.781 92.7067 239.975 93.12 240.228 93.48C240.495 93.8267 240.835 94.1067 241.248 94.32C241.661 94.52 242.155 94.62 242.728 94.62C243.008 94.62 243.281 94.5933 243.548 94.54C243.828 94.4867 244.081 94.4 244.308 94.28C244.548 94.1467 244.755 93.9733 244.928 93.76C245.101 93.5467 245.228 93.2867 245.308 92.98H247.068C246.961 93.5267 246.768 94 246.488 94.4C246.221 94.7867 245.888 95.1133 245.488 95.38C245.088 95.6333 244.648 95.82 244.168 95.94C243.688 96.06 243.188 96.12 242.668 96.12ZM253.863 85.34C254.703 85.34 255.429 85.4733 256.043 85.74C256.656 86.0067 257.169 86.38 257.583 86.86C258.009 87.34 258.323 87.9133 258.523 88.58C258.736 89.2333 258.843 89.9533 258.843 90.74C258.843 91.5267 258.736 92.2533 258.523 92.92C258.323 93.5733 258.009 94.14 257.583 94.62C257.169 95.0867 256.649 95.4533 256.023 95.72C255.396 95.9867 254.663 96.12 253.823 96.12C252.983 96.12 252.249 95.9867 251.623 95.72C251.009 95.4533 250.489 95.0867 250.063 94.62C249.649 94.14 249.336 93.5733 249.123 92.92C248.923 92.2533 248.823 91.5267 248.823 90.74C248.823 89.9533 248.923 89.2333 249.123 88.58C249.336 87.9133 249.649 87.34 250.063 86.86C250.489 86.38 251.016 86.0067 251.643 85.74C252.269 85.4733 253.009 85.34 253.863 85.34ZM253.823 94.62C254.396 94.62 254.889 94.52 255.303 94.32C255.729 94.12 256.076 93.8467 256.343 93.5C256.623 93.14 256.823 92.7267 256.943 92.26C257.076 91.7933 257.143 91.2867 257.143 90.74C257.143 90.2067 257.076 89.7067 256.943 89.24C256.823 88.76 256.623 88.3467 256.343 88C256.076 87.64 255.729 87.36 255.303 87.16C254.889 86.96 254.396 86.86 253.823 86.86C253.249 86.86 252.756 86.96 252.343 87.16C251.929 87.36 251.583 87.64 251.303 88C251.036 88.3467 250.836 88.76 250.703 89.24C250.583 89.7067 250.523 90.2067 250.523 90.74C250.523 91.2867 250.583 91.7933 250.703 92.26C250.836 92.7267 251.036 93.14 251.303 93.5C251.583 93.8467 251.929 94.12 252.343 94.32C252.756 94.52 253.249 94.62 253.823 94.62ZM262.593 87.84C262.793 87.56 263.026 87.3267 263.293 87.14C263.559 86.94 263.846 86.7733 264.153 86.64C264.473 86.5067 264.793 86.4133 265.113 86.36C265.446 86.2933 265.766 86.26 266.073 86.26C266.793 86.26 267.426 86.3733 267.973 86.6C268.533 86.8267 268.999 87.1533 269.373 87.58C269.759 87.9933 270.053 88.4933 270.253 89.08C270.453 89.6667 270.553 90.32 270.553 91.04C270.553 91.76 270.446 92.4333 270.233 93.06C270.019 93.6733 269.706 94.2067 269.293 94.66C268.893 95.1133 268.393 95.4733 267.793 95.74C267.206 95.9933 266.526 96.12 265.753 96.12C264.873 96.12 264.133 95.9667 263.533 95.66C262.933 95.34 262.446 94.92 262.073 94.4C261.713 93.8667 261.446 93.2333 261.273 92.5C261.099 91.7667 261.006 91.0467 260.993 90.34C260.966 90.1267 260.953 89.7 260.953 89.06C260.966 88.4067 260.999 87.82 261.053 87.3C261.106 86.7667 261.193 86.2533 261.313 85.76C261.446 85.2533 261.626 84.8067 261.853 84.42C262.213 83.78 262.666 83.3067 263.213 83C263.773 82.6933 264.413 82.48 265.133 82.36C265.359 82.32 265.866 82.2467 266.653 82.14C267.453 82.02 267.999 81.94 268.293 81.9C268.546 81.8733 268.819 81.84 269.113 81.8C269.419 81.7467 269.719 81.6933 270.013 81.64V83.2C269.813 83.2667 269.566 83.3267 269.273 83.38C268.979 83.42 268.646 83.46 268.273 83.5C268.006 83.54 267.726 83.58 267.433 83.62C267.153 83.6467 266.859 83.68 266.553 83.72C266.259 83.7467 265.806 83.8067 265.193 83.9C264.739 83.9667 264.366 84.0933 264.073 84.28C263.793 84.4667 263.546 84.7133 263.333 85.02C263.079 85.3933 262.893 85.8467 262.773 86.38C262.666 86.9 262.606 87.3867 262.593 87.84ZM265.793 94.62C266.286 94.62 266.719 94.5267 267.093 94.34C267.479 94.1533 267.799 93.9 268.053 93.58C268.319 93.26 268.519 92.8867 268.653 92.46C268.786 92.0333 268.853 91.58 268.853 91.1C268.853 90.6333 268.779 90.2 268.633 89.8C268.499 89.3867 268.306 89.0333 268.053 88.74C267.799 88.4333 267.493 88.2 267.133 88.04C266.773 87.8667 266.333 87.78 265.813 87.78C265.333 87.7933 264.906 87.8867 264.533 88.06C264.159 88.2333 263.839 88.48 263.573 88.8C263.306 89.1067 263.106 89.4667 262.973 89.88C262.839 90.28 262.766 90.7 262.753 91.14C262.753 91.6067 262.813 92.0533 262.933 92.48C263.066 92.8933 263.259 93.26 263.513 93.58C263.766 93.9 264.079 94.1533 264.453 94.34C264.839 94.5267 265.286 94.62 265.793 94.62ZM277.476 85.34C278.316 85.34 279.043 85.4733 279.656 85.74C280.269 86.0067 280.783 86.38 281.196 86.86C281.623 87.34 281.936 87.9133 282.136 88.58C282.349 89.2333 282.456 89.9533 282.456 90.74C282.456 91.5267 282.349 92.2533 282.136 92.92C281.936 93.5733 281.623 94.14 281.196 94.62C280.783 95.0867 280.263 95.4533 279.636 95.72C279.009 95.9867 278.276 96.12 277.436 96.12C276.596 96.12 275.863 95.9867 275.236 95.72C274.623 95.4533 274.103 95.0867 273.676 94.62C273.263 94.14 272.949 93.5733 272.736 92.92C272.536 92.2533 272.436 91.5267 272.436 90.74C272.436 89.9533 272.536 89.2333 272.736 88.58C272.949 87.9133 273.263 87.34 273.676 86.86C274.103 86.38 274.629 86.0067 275.256 85.74C275.883 85.4733 276.623 85.34 277.476 85.34ZM277.436 94.62C278.009 94.62 278.503 94.52 278.916 94.32C279.343 94.12 279.689 93.8467 279.956 93.5C280.236 93.14 280.436 92.7267 280.556 92.26C280.689 91.7933 280.756 91.2867 280.756 90.74C280.756 90.2067 280.689 89.7067 280.556 89.24C280.436 88.76 280.236 88.3467 279.956 88C279.689 87.64 279.343 87.36 278.916 87.16C278.503 86.96 278.009 86.86 277.436 86.86C276.863 86.86 276.369 86.96 275.956 87.16C275.543 87.36 275.196 87.64 274.916 88C274.649 88.3467 274.449 88.76 274.316 89.24C274.196 89.7067 274.136 90.2067 274.136 90.74C274.136 91.2867 274.196 91.7933 274.316 92.26C274.449 92.7267 274.649 93.14 274.916 93.5C275.196 93.8467 275.543 94.12 275.956 94.32C276.369 94.52 276.863 94.62 277.436 94.62ZM289.511 82.76C290.071 82.76 290.517 82.6533 290.851 82.44C291.197 82.2267 291.371 81.8533 291.371 81.32H292.931C292.904 82.28 292.584 82.98 291.971 83.42C291.371 83.86 290.544 84.08 289.491 84.08C288.437 84.08 287.611 83.86 287.011 83.42C286.424 82.98 286.117 82.28 286.091 81.32H287.651C287.664 81.8533 287.837 82.2267 288.171 82.44C288.504 82.6533 288.951 82.76 289.511 82.76ZM286.391 96H284.731V85.46H286.431V93.54C286.524 93.3533 286.651 93.1533 286.811 92.94C286.971 92.7133 287.097 92.54 287.191 92.42L292.291 85.46H293.971V96H292.271V87.92C292.164 88.12 292.044 88.3133 291.911 88.5C291.791 88.6733 291.677 88.8267 291.571 88.96L286.391 96ZM30.62 113.84C30.82 113.56 31.0533 113.327 31.32 113.14C31.5867 112.94 31.8733 112.773 32.18 112.64C32.5 112.507 32.82 112.413 33.14 112.36C33.4733 112.293 33.7933 112.26 34.1 112.26C34.82 112.26 35.4533 112.373 36 112.6C36.56 112.827 37.0267 113.153 37.4 113.58C37.7867 113.993 38.08 114.493 38.28 115.08C38.48 115.667 38.58 116.32 38.58 117.04C38.58 117.76 38.4733 118.433 38.26 119.06C38.0467 119.673 37.7333 120.207 37.32 120.66C36.92 121.113 36.42 121.473 35.82 121.74C35.2333 121.993 34.5533 122.12 33.78 122.12C32.9 122.12 32.16 121.967 31.56 121.66C30.96 121.34 30.4733 120.92 30.1 120.4C29.74 119.867 29.4733 119.233 29.3 118.5C29.1267 117.767 29.0333 117.047 29.02 116.34C28.9933 116.127 28.98 115.7 28.98 115.06C28.9933 114.407 29.0267 113.82 29.08 113.3C29.1333 112.767 29.22 112.253 29.34 111.76C29.4733 111.253 29.6533 110.807 29.88 110.42C30.24 109.78 30.6933 109.307 31.24 109C31.8 108.693 32.44 108.48 33.16 108.36C33.3867 108.32 33.8933 108.247 34.68 108.14C35.48 108.02 36.0267 107.94 36.32 107.9C36.5733 107.873 36.8467 107.84 37.14 107.8C37.4467 107.747 37.7467 107.693 38.04 107.64V109.2C37.84 109.267 37.5933 109.327 37.3 109.38C37.0067 109.42 36.6733 109.46 36.3 109.5C36.0333 109.54 35.7533 109.58 35.46 109.62C35.18 109.647 34.8867 109.68 34.58 109.72C34.2867 109.747 33.8333 109.807 33.22 109.9C32.7667 109.967 32.3933 110.093 32.1 110.28C31.82 110.467 31.5733 110.713 31.36 111.02C31.1067 111.393 30.92 111.847 30.8 112.38C30.6933 112.9 30.6333 113.387 30.62 113.84ZM33.82 120.62C34.3133 120.62 34.7467 120.527 35.12 120.34C35.5067 120.153 35.8267 119.9 36.08 119.58C36.3467 119.26 36.5467 118.887 36.68 118.46C36.8133 118.033 36.88 117.58 36.88 117.1C36.88 116.633 36.8067 116.2 36.66 115.8C36.5267 115.387 36.3333 115.033 36.08 114.74C35.8267 114.433 35.52 114.2 35.16 114.04C34.8 113.867 34.36 113.78 33.84 113.78C33.36 113.793 32.9333 113.887 32.56 114.06C32.1867 114.233 31.8667 114.48 31.6 114.8C31.3333 115.107 31.1333 115.467 31 115.88C30.8667 116.28 30.7933 116.7 30.78 117.14C30.78 117.607 30.84 118.053 30.96 118.48C31.0933 118.893 31.2867 119.26 31.54 119.58C31.7933 119.9 32.1067 120.153 32.48 120.34C32.8667 120.527 33.3133 120.62 33.82 120.62ZM42.1834 117.36C42.2234 117.827 42.3168 118.26 42.4634 118.66C42.6234 119.047 42.8368 119.387 43.1034 119.68C43.3701 119.973 43.6968 120.207 44.0834 120.38C44.4834 120.54 44.9434 120.62 45.4634 120.62C45.7168 120.62 45.9768 120.6 46.2434 120.56C46.5234 120.507 46.7834 120.427 47.0234 120.32C47.2634 120.2 47.4768 120.047 47.6634 119.86C47.8501 119.673 47.9901 119.447 48.0834 119.18H49.8234C49.7034 119.687 49.4968 120.127 49.2034 120.5C48.9234 120.873 48.5834 121.18 48.1834 121.42C47.7968 121.66 47.3634 121.84 46.8834 121.96C46.4034 122.067 45.9168 122.12 45.4234 122.12C44.5834 122.12 43.8501 121.987 43.2234 121.72C42.6101 121.453 42.0968 121.087 41.6834 120.62C41.2701 120.14 40.9634 119.573 40.7634 118.92C40.5634 118.253 40.4634 117.527 40.4634 116.74C40.4634 115.953 40.5701 115.233 40.7834 114.58C41.0101 113.913 41.3301 113.34 41.7434 112.86C42.1568 112.38 42.6634 112.007 43.2634 111.74C43.8634 111.473 44.5768 111.34 45.4034 111.34C46.2434 111.34 46.9701 111.507 47.5834 111.84C48.1968 112.173 48.6901 112.613 49.0634 113.16C49.4368 113.693 49.6968 114.273 49.8434 114.9C50.0034 115.527 50.0701 116.107 50.0434 116.64C50.0434 116.76 50.0368 116.88 50.0234 117C50.0234 117.12 50.0168 117.24 50.0034 117.36H42.1834ZM48.3234 115.88C48.2968 114.987 48.0168 114.26 47.4834 113.7C46.9501 113.14 46.2368 112.86 45.3434 112.86C44.8501 112.86 44.4168 112.94 44.0434 113.1C43.6701 113.26 43.3568 113.48 43.1034 113.76C42.8501 114.04 42.6501 114.367 42.5034 114.74C42.3568 115.1 42.2634 115.48 42.2234 115.88H48.3234ZM58.5883 116.34C59.2683 116.553 59.7416 116.887 60.0083 117.34C60.2749 117.793 60.4083 118.333 60.4083 118.96C60.3949 119.52 60.2616 120 60.0083 120.4C59.7683 120.8 59.4483 121.127 59.0483 121.38C58.6483 121.633 58.1949 121.82 57.6883 121.94C57.1816 122.06 56.6616 122.12 56.1283 122.12C55.6216 122.12 55.1083 122.073 54.5883 121.98C54.0816 121.887 53.6216 121.727 53.2083 121.5C52.7949 121.273 52.4483 120.973 52.1683 120.6C51.9016 120.227 51.7549 119.753 51.7283 119.18H53.3883C53.4416 119.46 53.5683 119.693 53.7683 119.88C53.9683 120.053 54.2016 120.2 54.4683 120.32C54.7483 120.427 55.0349 120.507 55.3283 120.56C55.6349 120.6 55.9083 120.62 56.1483 120.62C56.4283 120.62 56.7149 120.6 57.0083 120.56C57.3149 120.52 57.5949 120.44 57.8483 120.32C58.1016 120.2 58.3083 120.033 58.4683 119.82C58.6283 119.593 58.7083 119.307 58.7083 118.96C58.7083 118.68 58.6483 118.427 58.5283 118.2C58.4083 117.96 58.2216 117.78 57.9683 117.66C57.7416 117.553 57.4816 117.493 57.1883 117.48C56.8949 117.453 56.6216 117.44 56.3683 117.44H54.4883V115.94H56.0283C56.2816 115.94 56.5416 115.92 56.8083 115.88C57.0749 115.827 57.3149 115.74 57.5283 115.62C57.7549 115.5 57.9349 115.347 58.0683 115.16C58.2149 114.96 58.2949 114.68 58.3083 114.32C58.3083 114.04 58.2416 113.807 58.1083 113.62C57.9883 113.433 57.8216 113.287 57.6083 113.18C57.4083 113.06 57.1749 112.98 56.9083 112.94C56.6549 112.887 56.4016 112.86 56.1483 112.86C55.9083 112.86 55.6549 112.88 55.3883 112.92C55.1216 112.947 54.8749 113.013 54.6483 113.12C54.4216 113.213 54.2283 113.347 54.0683 113.52C53.9083 113.693 53.8083 113.92 53.7683 114.2H52.0883C52.1016 113.667 52.2283 113.22 52.4683 112.86C52.7216 112.487 53.0416 112.193 53.4283 111.98C53.8149 111.753 54.2416 111.593 54.7083 111.5C55.1883 111.393 55.6616 111.34 56.1283 111.34C56.5949 111.34 57.0549 111.387 57.5083 111.48C57.9749 111.573 58.3883 111.733 58.7483 111.96C59.1083 112.173 59.4016 112.46 59.6283 112.82C59.8549 113.18 59.9683 113.627 59.9683 114.16C59.9683 114.64 59.8549 115.067 59.6283 115.44C59.4016 115.813 59.0549 116.113 58.5883 116.34ZM67.9923 122V111.46H69.6923V116H71.5323L74.6523 111.46H76.5923L73.0723 116.48L76.8923 122H74.8923L71.7323 117.48H69.6923V122H67.9923ZM85.1081 120.66C84.8815 120.967 84.6215 121.213 84.3281 121.4C84.0348 121.587 83.7281 121.733 83.4081 121.84C83.1015 121.947 82.7881 122.02 82.4681 122.06C82.1615 122.1 81.8548 122.12 81.5481 122.12C81.0548 122.12 80.5881 122.06 80.1481 121.94C79.7081 121.82 79.3081 121.627 78.9481 121.36C78.6015 121.093 78.3215 120.76 78.1081 120.36C77.9081 119.96 77.8081 119.507 77.8081 119C77.8081 118.4 77.9148 117.9 78.1281 117.5C78.3548 117.087 78.6548 116.753 79.0281 116.5C79.4015 116.247 79.8281 116.073 80.3081 115.98C80.8015 115.873 81.3215 115.82 81.8681 115.82H84.9681C84.9681 114.927 84.7748 114.22 84.3881 113.7C84.0015 113.167 83.3481 112.887 82.4281 112.86C81.8681 112.86 81.3748 112.953 80.9481 113.14C80.5215 113.327 80.2281 113.633 80.0681 114.06H78.2481C78.3415 113.58 78.5281 113.173 78.8081 112.84C79.0881 112.493 79.4215 112.213 79.8081 112C80.1948 111.773 80.6148 111.607 81.0681 111.5C81.5215 111.393 81.9748 111.34 82.4281 111.34C83.2148 111.34 83.8748 111.473 84.4081 111.74C84.9548 111.993 85.3948 112.333 85.7281 112.76C86.0615 113.173 86.2948 113.68 86.4281 114.28C86.5615 114.88 86.6281 115.553 86.6281 116.3V122H85.2081L85.1081 120.66ZM83.1081 117.24C82.7881 117.24 82.4148 117.247 81.9881 117.26C81.5748 117.26 81.1748 117.3 80.7881 117.38C80.4015 117.46 80.0881 117.627 79.8481 117.88C79.6215 118.133 79.5081 118.467 79.5081 118.88C79.5081 119.187 79.5681 119.447 79.6881 119.66C79.8081 119.873 79.9681 120.053 80.1681 120.2C80.3815 120.347 80.6215 120.453 80.8881 120.52C81.1548 120.587 81.4281 120.62 81.7081 120.62C82.7081 120.62 83.4948 120.38 84.0681 119.9C84.6548 119.407 84.9548 118.693 84.9681 117.76V117.24H83.1081ZM89.2619 122V111.46H90.9619V116H92.8019L95.9219 111.46H97.8619L94.3419 116.48L98.1619 122H96.1619L93.0019 117.48H90.9619V122H89.2619ZM104.078 111.34C104.918 111.34 105.644 111.473 106.258 111.74C106.871 112.007 107.384 112.38 107.798 112.86C108.224 113.34 108.538 113.913 108.738 114.58C108.951 115.233 109.058 115.953 109.058 116.74C109.058 117.527 108.951 118.253 108.738 118.92C108.538 119.573 108.224 120.14 107.798 120.62C107.384 121.087 106.864 121.453 106.238 121.72C105.611 121.987 104.878 122.12 104.038 122.12C103.198 122.12 102.464 121.987 101.838 121.72C101.224 121.453 100.704 121.087 100.278 120.62C99.8643 120.14 99.551 119.573 99.3377 118.92C99.1377 118.253 99.0377 117.527 99.0377 116.74C99.0377 115.953 99.1377 115.233 99.3377 114.58C99.551 113.913 99.8643 113.34 100.278 112.86C100.704 112.38 101.231 112.007 101.858 111.74C102.484 111.473 103.224 111.34 104.078 111.34ZM104.038 120.62C104.611 120.62 105.104 120.52 105.518 120.32C105.944 120.12 106.291 119.847 106.558 119.5C106.838 119.14 107.038 118.727 107.158 118.26C107.291 117.793 107.358 117.287 107.358 116.74C107.358 116.207 107.291 115.707 107.158 115.24C107.038 114.76 106.838 114.347 106.558 114C106.291 113.64 105.944 113.36 105.518 113.16C105.104 112.96 104.611 112.86 104.038 112.86C103.464 112.86 102.971 112.96 102.558 113.16C102.144 113.36 101.798 113.64 101.518 114C101.251 114.347 101.051 114.76 100.918 115.24C100.798 115.707 100.738 116.207 100.738 116.74C100.738 117.287 100.798 117.793 100.918 118.26C101.051 118.727 101.251 119.14 101.518 119.5C101.798 119.847 102.144 120.12 102.558 120.32C102.971 120.52 103.464 120.62 104.038 120.62ZM111.332 122V111.46H118.612V112.96H113.032V122H111.332ZM124.859 111.34C125.699 111.34 126.426 111.473 127.039 111.74C127.652 112.007 128.166 112.38 128.579 112.86C129.006 113.34 129.319 113.913 129.519 114.58C129.732 115.233 129.839 115.953 129.839 116.74C129.839 117.527 129.732 118.253 129.519 118.92C129.319 119.573 129.006 120.14 128.579 120.62C128.166 121.087 127.646 121.453 127.019 121.72C126.392 121.987 125.659 122.12 124.819 122.12C123.979 122.12 123.246 121.987 122.619 121.72C122.006 121.453 121.486 121.087 121.059 120.62C120.646 120.14 120.332 119.573 120.119 118.92C119.919 118.253 119.819 117.527 119.819 116.74C119.819 115.953 119.919 115.233 120.119 114.58C120.332 113.913 120.646 113.34 121.059 112.86C121.486 112.38 122.012 112.007 122.639 111.74C123.266 111.473 124.006 111.34 124.859 111.34ZM124.819 120.62C125.392 120.62 125.886 120.52 126.299 120.32C126.726 120.12 127.072 119.847 127.339 119.5C127.619 119.14 127.819 118.727 127.939 118.26C128.072 117.793 128.139 117.287 128.139 116.74C128.139 116.207 128.072 115.707 127.939 115.24C127.819 114.76 127.619 114.347 127.339 114C127.072 113.64 126.726 113.36 126.299 113.16C125.886 112.96 125.392 112.86 124.819 112.86C124.246 112.86 123.752 112.96 123.339 113.16C122.926 113.36 122.579 113.64 122.299 114C122.032 114.347 121.832 114.76 121.699 115.24C121.579 115.707 121.519 116.207 121.519 116.74C121.519 117.287 121.579 117.793 121.699 118.26C121.832 118.727 122.032 119.14 122.299 119.5C122.579 119.847 122.926 120.12 123.339 120.32C123.752 120.52 124.246 120.62 124.819 120.62ZM132.253 115.58H138.453V117.14H132.253V115.58ZM142.254 117.06C142.32 116.1 142.367 115.167 142.394 114.26C142.434 113.353 142.46 112.42 142.474 111.46H149.794V122H148.094V112.96H144.134L143.954 117.1C143.927 117.633 143.867 118.233 143.774 118.9C143.68 119.567 143.487 120.173 143.194 120.72C142.967 121.107 142.66 121.42 142.274 121.66C141.887 121.9 141.44 122.02 140.934 122.02H140.314V120.52C140.847 120.52 141.274 120.293 141.594 119.84C141.78 119.573 141.927 119.187 142.034 118.68C142.14 118.173 142.214 117.633 142.254 117.06ZM154.125 122H152.465V111.46H154.165V119.54C154.258 119.353 154.385 119.153 154.545 118.94C154.705 118.713 154.832 118.54 154.925 118.42L160.025 111.46H161.705V122H160.005V113.92C159.898 114.12 159.778 114.313 159.645 114.5C159.525 114.673 159.412 114.827 159.305 114.96L154.125 122ZM165.659 113.84C165.859 113.56 166.092 113.327 166.359 113.14C166.626 112.94 166.912 112.773 167.219 112.64C167.539 112.507 167.859 112.413 168.179 112.36C168.512 112.293 168.832 112.26 169.139 112.26C169.859 112.26 170.492 112.373 171.039 112.6C171.599 112.827 172.066 113.153 172.439 113.58C172.826 113.993 173.119 114.493 173.319 115.08C173.519 115.667 173.619 116.32 173.619 117.04C173.619 117.76 173.512 118.433 173.299 119.06C173.086 119.673 172.772 120.207 172.359 120.66C171.959 121.113 171.459 121.473 170.859 121.74C170.272 121.993 169.592 122.12 168.819 122.12C167.939 122.12 167.199 121.967 166.599 121.66C165.999 121.34 165.512 120.92 165.139 120.4C164.779 119.867 164.512 119.233 164.339 118.5C164.166 117.767 164.072 117.047 164.059 116.34C164.032 116.127 164.019 115.7 164.019 115.06C164.032 114.407 164.066 113.82 164.119 113.3C164.172 112.767 164.259 112.253 164.379 111.76C164.512 111.253 164.692 110.807 164.919 110.42C165.279 109.78 165.732 109.307 166.279 109C166.839 108.693 167.479 108.48 168.199 108.36C168.426 108.32 168.932 108.247 169.719 108.14C170.519 108.02 171.066 107.94 171.359 107.9C171.612 107.873 171.886 107.84 172.179 107.8C172.486 107.747 172.786 107.693 173.079 107.64V109.2C172.879 109.267 172.632 109.327 172.339 109.38C172.046 109.42 171.712 109.46 171.339 109.5C171.072 109.54 170.792 109.58 170.499 109.62C170.219 109.647 169.926 109.68 169.619 109.72C169.326 109.747 168.872 109.807 168.259 109.9C167.806 109.967 167.432 110.093 167.139 110.28C166.859 110.467 166.612 110.713 166.399 111.02C166.146 111.393 165.959 111.847 165.839 112.38C165.732 112.9 165.672 113.387 165.659 113.84ZM168.859 120.62C169.352 120.62 169.786 120.527 170.159 120.34C170.546 120.153 170.866 119.9 171.119 119.58C171.386 119.26 171.586 118.887 171.719 118.46C171.852 118.033 171.919 117.58 171.919 117.1C171.919 116.633 171.846 116.2 171.699 115.8C171.566 115.387 171.372 115.033 171.119 114.74C170.866 114.433 170.559 114.2 170.199 114.04C169.839 113.867 169.399 113.78 168.879 113.78C168.399 113.793 167.972 113.887 167.599 114.06C167.226 114.233 166.906 114.48 166.639 114.8C166.372 115.107 166.172 115.467 166.039 115.88C165.906 116.28 165.832 116.7 165.819 117.14C165.819 117.607 165.879 118.053 165.999 118.48C166.132 118.893 166.326 119.26 166.579 119.58C166.832 119.9 167.146 120.153 167.519 120.34C167.906 120.527 168.352 120.62 168.859 120.62ZM180.543 111.34C181.383 111.34 182.109 111.473 182.723 111.74C183.336 112.007 183.849 112.38 184.263 112.86C184.689 113.34 185.003 113.913 185.203 114.58C185.416 115.233 185.523 115.953 185.523 116.74C185.523 117.527 185.416 118.253 185.203 118.92C185.003 119.573 184.689 120.14 184.263 120.62C183.849 121.087 183.329 121.453 182.703 121.72C182.076 121.987 181.343 122.12 180.503 122.12C179.663 122.12 178.929 121.987 178.303 121.72C177.689 121.453 177.169 121.087 176.743 120.62C176.329 120.14 176.016 119.573 175.803 118.92C175.603 118.253 175.503 117.527 175.503 116.74C175.503 115.953 175.603 115.233 175.803 114.58C176.016 113.913 176.329 113.34 176.743 112.86C177.169 112.38 177.696 112.007 178.323 111.74C178.949 111.473 179.689 111.34 180.543 111.34ZM180.503 120.62C181.076 120.62 181.569 120.52 181.983 120.32C182.409 120.12 182.756 119.847 183.023 119.5C183.303 119.14 183.503 118.727 183.623 118.26C183.756 117.793 183.823 117.287 183.823 116.74C183.823 116.207 183.756 115.707 183.623 115.24C183.503 114.76 183.303 114.347 183.023 114C182.756 113.64 182.409 113.36 181.983 113.16C181.569 112.96 181.076 112.86 180.503 112.86C179.929 112.86 179.436 112.96 179.023 113.16C178.609 113.36 178.263 113.64 177.983 114C177.716 114.347 177.516 114.76 177.383 115.24C177.263 115.707 177.202 116.207 177.202 116.74C177.202 117.287 177.263 117.793 177.383 118.26C177.516 118.727 177.716 119.14 177.983 119.5C178.263 119.847 178.609 120.12 179.023 120.32C179.436 120.52 179.929 120.62 180.503 120.62ZM197.688 122.12C196.848 122.12 196.121 121.987 195.508 121.72C194.894 121.453 194.388 121.08 193.988 120.6C193.588 120.12 193.288 119.553 193.088 118.9C192.888 118.247 192.788 117.533 192.788 116.76C192.788 116.013 192.894 115.313 193.108 114.66C193.321 113.993 193.634 113.42 194.048 112.94C194.461 112.447 194.981 112.06 195.608 111.78C196.234 111.487 196.994 111.34 197.888 111.34C198.421 111.34 198.894 111.4 199.308 111.52C199.721 111.627 200.108 111.807 200.468 112.06C200.841 112.3 201.161 112.62 201.428 113.02C201.694 113.42 201.888 113.907 202.008 114.48H200.268C200.068 113.893 199.748 113.473 199.308 113.22C198.881 112.967 198.374 112.847 197.788 112.86C197.214 112.86 196.708 112.973 196.268 113.2C195.841 113.413 195.494 113.7 195.228 114.06C194.974 114.42 194.788 114.84 194.668 115.32C194.548 115.787 194.488 116.267 194.488 116.76C194.488 117.28 194.548 117.773 194.668 118.24C194.801 118.707 194.994 119.12 195.248 119.48C195.514 119.827 195.854 120.107 196.268 120.32C196.681 120.52 197.174 120.62 197.748 120.62C198.028 120.62 198.301 120.593 198.568 120.54C198.848 120.487 199.101 120.4 199.328 120.28C199.568 120.147 199.774 119.973 199.948 119.76C200.121 119.547 200.248 119.287 200.328 118.98H202.088C201.981 119.527 201.788 120 201.508 120.4C201.241 120.787 200.908 121.113 200.508 121.38C200.108 121.633 199.668 121.82 199.188 121.94C198.708 122.06 198.208 122.12 197.688 122.12ZM204.242 111.46H206.522L209.942 116.74L213.302 111.46H215.542V122H213.862V113.34L210.142 119.3H209.662L205.922 113.34V122H204.242V111.46ZM225.807 111.46H227.727L224.747 119.76C224.587 120.187 224.413 120.673 224.227 121.22C224.053 121.753 223.853 122.287 223.627 122.82C223.413 123.367 223.167 123.88 222.887 124.36C222.62 124.84 222.32 125.227 221.987 125.52C221.493 125.96 221.02 126.233 220.567 126.34C220.113 126.46 219.6 126.52 219.027 126.52H218.667V124.9C219.147 124.9 219.553 124.847 219.887 124.74C220.22 124.647 220.507 124.493 220.747 124.28C221 124.067 221.213 123.8 221.387 123.48C221.573 123.16 221.76 122.78 221.947 122.34L217.227 111.46H219.227L222.887 120.34L225.807 111.46ZM229.301 111.46H231.001V120.52H234.961V111.46H236.661V120.52H240.661V111.46H242.361V120.52H243.741V125.24H242.101V122H229.301V111.46ZM246.832 117.36C246.872 117.827 246.965 118.26 247.112 118.66C247.272 119.047 247.485 119.387 247.752 119.68C248.019 119.973 248.345 120.207 248.732 120.38C249.132 120.54 249.592 120.62 250.112 120.62C250.365 120.62 250.625 120.6 250.892 120.56C251.172 120.507 251.432 120.427 251.672 120.32C251.912 120.2 252.125 120.047 252.312 119.86C252.499 119.673 252.639 119.447 252.732 119.18H254.472C254.352 119.687 254.145 120.127 253.852 120.5C253.572 120.873 253.232 121.18 252.832 121.42C252.445 121.66 252.012 121.84 251.532 121.96C251.052 122.067 250.565 122.12 250.072 122.12C249.232 122.12 248.499 121.987 247.872 121.72C247.259 121.453 246.745 121.087 246.332 120.62C245.919 120.14 245.612 119.573 245.412 118.92C245.212 118.253 245.112 117.527 245.112 116.74C245.112 115.953 245.219 115.233 245.432 114.58C245.659 113.913 245.979 113.34 246.392 112.86C246.805 112.38 247.312 112.007 247.912 111.74C248.512 111.473 249.225 111.34 250.052 111.34C250.892 111.34 251.619 111.507 252.232 111.84C252.845 112.173 253.339 112.613 253.712 113.16C254.085 113.693 254.345 114.273 254.492 114.9C254.652 115.527 254.719 116.107 254.692 116.64C254.692 116.76 254.685 116.88 254.672 117C254.672 117.12 254.665 117.24 254.652 117.36H246.832ZM252.972 115.88C252.945 114.987 252.665 114.26 252.132 113.7C251.599 113.14 250.885 112.86 249.992 112.86C249.499 112.86 249.065 112.94 248.692 113.1C248.319 113.26 248.005 113.48 247.752 113.76C247.499 114.04 247.299 114.367 247.152 114.74C247.005 115.1 246.912 115.48 246.872 115.88H252.972ZM256.977 122V111.46H258.677V116.08H263.957V111.46H265.657V122H263.957V117.58H258.677V122H256.977ZM270.004 122H268.344V111.46H270.044V119.54C270.137 119.353 270.264 119.153 270.424 118.94C270.584 118.713 270.711 118.54 270.804 118.42L275.904 111.46H277.584V122H275.884V113.92C275.777 114.12 275.657 114.313 275.524 114.5C275.404 114.673 275.291 114.827 275.184 114.96L270.004 122ZM288.258 122H286.558V118.1H284.138L281.578 122H279.598L282.338 117.84C281.578 117.627 280.985 117.28 280.558 116.8C280.131 116.307 279.905 115.653 279.878 114.84C279.865 114.133 279.971 113.567 280.198 113.14C280.438 112.7 280.751 112.347 281.138 112.08C281.511 111.813 281.945 111.647 282.438 111.58C282.931 111.5 283.458 111.46 284.018 111.46H288.258V122ZM286.558 112.96L284.298 112.94C283.965 112.94 283.625 112.953 283.278 112.98C282.945 113.007 282.645 113.093 282.378 113.24C282.151 113.373 281.965 113.567 281.818 113.82C281.685 114.06 281.611 114.373 281.598 114.76C281.611 115.12 281.698 115.427 281.858 115.68C282.018 115.92 282.245 116.113 282.538 116.26C282.925 116.447 283.351 116.553 283.818 116.58C284.298 116.607 284.791 116.62 285.298 116.62H286.558V112.96ZM291.582 117.6L291.342 107.86H293.282L293.042 117.6H291.582ZM292.322 119.76C292.655 119.76 292.935 119.873 293.162 120.1C293.402 120.327 293.522 120.613 293.522 120.96C293.522 121.307 293.402 121.593 293.162 121.82C292.935 122.047 292.655 122.16 292.322 122.16C291.975 122.16 291.688 122.047 291.462 121.82C291.248 121.593 291.142 121.307 291.142 120.96C291.142 120.613 291.248 120.327 291.462 120.1C291.688 119.873 291.975 119.76 292.322 119.76Z" fill="#041028"/>
<defs>
<filter id="filter0_d_119_6" x="5" y="8" width="343" height="174" filterUnits="userSpaceOnUse" color-interpolation-filters="sRGB">
<feFlood flood-opacity="0" result="BackgroundImageFix"/>
<feColorMatrix in="SourceAlpha" type="matrix" values="0 0 0 0 0 0 0 0 0 0 0 0 0 0 0 0 0 0 127 0" result="hardAlpha"/>
<feOffset dy="4"/>
<feGaussianBlur stdDeviation="2"/>
<feComposite in2="hardAlpha" operator="out"/>
<feColorMatrix type="matrix" values="0 0 0 0 0.738333 0 0 0 0 0.738333 0 0 0 0 0.738333 0 0 0 0.59 0"/>
<feBlend mode="normal" in2="BackgroundImageFix" result="effect1_dropShadow_119_6"/>
<feBlend mode="normal" in="SourceGraphic" in2="effect1_dropShadow_119_6" result="shape"/>
</filter>
</defs>
</svg>
