<svg width="675" height="143" viewBox="0 0 675 143" fill="none" xmlns="http://www.w3.org/2000/svg">
<g clip-path="url(#clip0_489_65)">
<g filter="url(#filter0_d_489_65)">
<path fill-rule="evenodd" clip-rule="evenodd" d="M44.0944 83.398L28.1209 75.7446C22.636 73.1166 22.6239 66.3812 28.0993 63.7676L44.0101 56.215C44.4263 40.0093 57.6939 27 74 27H626C642.569 27 656 40.4315 656 57V81C656 97.5685 642.569 111 626 111H74C58.2387 111 45.3162 98.8454 44.0944 83.398Z" fill="white"/>
</g>
<path d="M71.562 61.9998V46.5998H78.602C80.0393 46.5998 81.176 46.9371 82.012 47.6118C82.8627 48.2864 83.288 49.4231 83.288 51.0218C83.288 52.6204 82.8627 53.7644 82.012 54.4538C81.176 55.1431 80.0393 55.4878 78.602 55.4878H74.092V61.9998H71.562ZM74.092 53.1118H78.25C78.998 53.1118 79.5773 52.9504 79.988 52.6278C80.3987 52.3051 80.604 51.7698 80.604 51.0218C80.604 50.2884 80.3987 49.7604 79.988 49.4378C79.5773 49.1151 78.998 48.9538 78.25 48.9538H74.092V53.1118ZM88.6969 62.1538C87.5529 62.1978 86.6069 61.9484 85.8589 61.4058C85.1256 60.8631 84.7589 60.0784 84.7589 59.0518C84.7589 58.3038 84.9862 57.6658 85.4409 57.1378C85.8956 56.6098 86.4822 56.1991 87.2009 55.9058C87.9196 55.5978 88.6602 55.4364 89.4229 55.4218C89.8042 55.3924 90.1636 55.4218 90.5009 55.5098C90.8382 55.5978 91.1389 55.7224 91.4029 55.8838V54.5858C91.4029 53.8964 91.2562 53.4491 90.9629 53.2438C90.6696 53.0384 90.2369 52.9358 89.6649 52.9358C89.0489 52.9358 88.3962 53.0458 87.7069 53.2658C87.0322 53.4858 86.4529 53.7718 85.9689 54.1238L84.8469 52.2098C85.4482 51.8284 86.1742 51.4984 87.0249 51.2198C87.8756 50.9264 88.7556 50.7798 89.6649 50.7798C91.0289 50.7798 92.0556 51.0584 92.7449 51.6158C93.4342 52.1584 93.7789 53.1484 93.7789 54.5858V59.8218C93.7789 60.1298 93.8449 60.3058 93.9769 60.3498C94.1236 60.3938 94.4462 60.3424 94.9449 60.1958V61.7578C94.7249 61.8604 94.4462 61.9484 94.1089 62.0218C93.7862 62.1098 93.4342 62.1538 93.0529 62.1538C92.5982 62.1538 92.2462 62.0804 91.9969 61.9338C91.7622 61.7724 91.5936 61.5084 91.4909 61.1418C91.1242 61.4498 90.6989 61.6918 90.2149 61.8678C89.7309 62.0291 89.2249 62.1244 88.6969 62.1538ZM88.6529 59.9978C89.4742 59.9684 90.1489 59.8071 90.6769 59.5138C91.2196 59.2204 91.4762 58.8024 91.4469 58.2598C91.4322 57.9078 91.2489 57.6658 90.8969 57.5338C90.5596 57.4018 90.1342 57.3504 89.6209 57.3798C88.9022 57.3944 88.3082 57.5778 87.8389 57.9298C87.3696 58.2671 87.1422 58.6484 87.1569 59.0738C87.1862 59.7338 87.6849 60.0418 88.6529 59.9978ZM101.097 62.2418C100.129 62.2418 99.2565 62.0071 98.4792 61.5378C97.7165 61.0538 97.1078 60.3864 96.6532 59.5358C96.2132 58.6851 95.9932 57.6878 95.9932 56.5438C95.9932 55.3851 96.2132 54.3804 96.6532 53.5298C97.1078 52.6644 97.7165 51.9971 98.4792 51.5278C99.2565 51.0438 100.129 50.8018 101.097 50.8018C101.963 50.8018 102.747 50.9851 103.451 51.3518C104.17 51.7038 104.757 52.2244 105.211 52.9138L103.231 54.4098C102.777 53.5444 102.065 53.1118 101.097 53.1118C100.335 53.1118 99.7112 53.4124 99.2272 54.0138C98.7432 54.6004 98.5012 55.4438 98.5012 56.5438C98.5012 57.6144 98.7432 58.4431 99.2272 59.0298C99.7112 59.6164 100.335 59.9098 101.097 59.9098C102.065 59.9098 102.784 59.4844 103.253 58.6338L105.211 60.1298C104.757 60.8044 104.17 61.3251 103.451 61.6918C102.747 62.0584 101.963 62.2418 101.097 62.2418ZM107.35 61.9998V50.9118H109.836V55.2458C110.188 55.1724 110.452 55.0404 110.628 54.8498C110.818 54.6444 110.987 54.3291 111.134 53.9038C111.412 53.0531 111.691 52.4151 111.97 51.9898C112.248 51.5644 112.578 51.2784 112.96 51.1318C113.341 50.9851 113.832 50.9118 114.434 50.9118H115.754V53.0458H114.632C114.382 53.0458 114.17 53.0751 113.994 53.1338C113.832 53.1924 113.678 53.3318 113.532 53.5518C113.4 53.7718 113.246 54.1238 113.07 54.6078C112.923 55.0624 112.703 55.3998 112.41 55.6198C112.131 55.8398 111.764 56.0231 111.31 56.1698C111.779 56.2431 112.182 56.3971 112.52 56.6318C112.857 56.8664 113.158 57.2111 113.422 57.6658C113.51 57.7978 113.642 58.0178 113.818 58.3258C113.994 58.6191 114.258 59.0591 114.61 59.6458C114.962 60.2178 115.438 61.0024 116.04 61.9998H113.29L111.42 58.6778C111.214 58.3111 110.994 58.0398 110.76 57.8638C110.54 57.6878 110.232 57.5631 109.836 57.4898V61.9998H107.35ZM117.813 66.3338V50.9338H119.969L120.101 52.1218C120.467 51.6524 120.9 51.2931 121.399 51.0438C121.897 50.7944 122.447 50.6698 123.049 50.6698C124.031 50.6698 124.904 50.8971 125.667 51.3518C126.444 51.8064 127.053 52.4738 127.493 53.3538C127.933 54.2191 128.153 55.2898 128.153 56.5658C128.153 57.7684 127.933 58.7951 127.493 59.6458C127.053 60.4818 126.444 61.1271 125.667 61.5818C124.904 62.0218 124.031 62.2418 123.049 62.2418C122.506 62.2418 122 62.1391 121.531 61.9338C121.061 61.7138 120.651 61.4131 120.299 61.0318V66.3338H117.813ZM122.961 59.9978C123.738 59.9978 124.383 59.7044 124.897 59.1178C125.41 58.5311 125.667 57.6804 125.667 56.5658C125.667 55.3338 125.41 54.4244 124.897 53.8378C124.383 53.2364 123.738 52.9358 122.961 52.9358C122.183 52.9358 121.538 53.2364 121.025 53.8378C120.511 54.4391 120.255 55.3924 120.255 56.6978C120.255 57.7538 120.511 58.5678 121.025 59.1398C121.538 59.7118 122.183 59.9978 122.961 59.9978ZM134.849 62.2418C133.881 62.2418 133.008 62.0071 132.231 61.5378C131.468 61.0538 130.86 60.3864 130.405 59.5358C129.965 58.6704 129.745 57.6658 129.745 56.5218C129.745 55.3778 129.965 54.3731 130.405 53.5078C130.86 52.6424 131.468 51.9751 132.231 51.5058C133.008 51.0218 133.881 50.7798 134.849 50.7798C135.846 50.7798 136.726 51.0218 137.489 51.5058C138.266 51.9751 138.875 52.6424 139.315 53.5078C139.755 54.3731 139.975 55.3778 139.975 56.5218C139.975 57.6658 139.755 58.6704 139.315 59.5358C138.875 60.3864 138.266 61.0538 137.489 61.5378C136.726 62.0071 135.846 62.2418 134.849 62.2418ZM134.849 59.9098C135.626 59.9098 136.257 59.6164 136.741 59.0298C137.24 58.4431 137.489 57.6071 137.489 56.5218C137.489 55.4364 137.24 54.6004 136.741 54.0138C136.257 53.4124 135.626 53.1118 134.849 53.1118C134.086 53.1118 133.463 53.4124 132.979 54.0138C132.495 54.6004 132.253 55.4364 132.253 56.5218C132.253 57.6071 132.495 58.4431 132.979 59.0298C133.463 59.6164 134.086 59.9098 134.849 59.9098ZM142.112 61.9998V50.9118H144.598V58.0398L149.086 50.9118H151.55V61.9998H149.064V54.9378L144.598 61.9998H142.112ZM146.842 50.0538C145.786 50.0538 145.03 49.8411 144.576 49.4158C144.136 48.9758 143.85 48.2644 143.718 47.2818H145.148C145.221 47.7804 145.382 48.1178 145.632 48.2938C145.881 48.4551 146.284 48.5358 146.842 48.5358C147.399 48.5358 147.802 48.4551 148.052 48.2938C148.316 48.1178 148.477 47.7804 148.536 47.2818H149.944C149.826 48.2644 149.54 48.9758 149.086 49.4158C148.631 49.8411 147.883 50.0538 146.842 50.0538ZM157.88 61.9998V53.0678H154.25V50.9118H164.018V53.0678H160.366V61.9998H157.88ZM169.806 62.2418C168.266 62.2418 167.019 61.7651 166.066 60.8118C165.112 59.8438 164.636 58.4211 164.636 56.5438C164.636 55.3558 164.848 54.3364 165.274 53.4858C165.699 52.6204 166.293 51.9604 167.056 51.5058C167.818 51.0364 168.691 50.8018 169.674 50.8018C170.656 50.8018 171.492 51.0511 172.182 51.5498C172.871 52.0338 173.399 52.7011 173.766 53.5518C174.132 54.3878 174.316 55.3411 174.316 56.4118V57.0058H167.078C167.136 58.0911 167.415 58.8684 167.914 59.3378C168.412 59.7924 169.058 60.0198 169.85 60.0198C170.539 60.0198 171.104 59.8511 171.544 59.5138C171.984 59.1618 172.365 58.6484 172.688 57.9738L174.514 59.2718C173.971 60.3278 173.304 61.0904 172.512 61.5598C171.734 62.0144 170.832 62.2418 169.806 62.2418ZM167.188 55.0038H171.874C171.756 54.3144 171.5 53.7791 171.104 53.3978C170.722 53.0164 170.231 52.8258 169.63 52.8258C168.984 52.8258 168.449 53.0018 168.024 53.3538C167.613 53.7058 167.334 54.2558 167.188 55.0038ZM187.378 62.2418C186.41 62.2418 185.538 62.0071 184.76 61.5378C183.998 61.0538 183.389 60.3864 182.934 59.5358C182.494 58.6851 182.274 57.6878 182.274 56.5438C182.274 55.3851 182.494 54.3804 182.934 53.5298C183.389 52.6644 183.998 51.9971 184.76 51.5278C185.538 51.0438 186.41 50.8018 187.378 50.8018C188.244 50.8018 189.028 50.9851 189.732 51.3518C190.451 51.7038 191.038 52.2244 191.492 52.9138L189.512 54.4098C189.058 53.5444 188.346 53.1118 187.378 53.1118C186.616 53.1118 185.992 53.4124 185.508 54.0138C185.024 54.6004 184.782 55.4438 184.782 56.5438C184.782 57.6144 185.024 58.4431 185.508 59.0298C185.992 59.6164 186.616 59.9098 187.378 59.9098C188.346 59.9098 189.065 59.4844 189.534 58.6338L191.492 60.1298C191.038 60.8044 190.451 61.3251 189.732 61.6918C189.028 62.0584 188.244 62.2418 187.378 62.2418ZM193.631 61.9998V50.9118H198.713C200.033 50.9118 201.03 51.1538 201.705 51.6378C202.38 52.1218 202.717 52.9138 202.717 54.0138C202.717 54.5418 202.585 55.0184 202.321 55.4438C202.072 55.8691 201.734 56.1478 201.309 56.2798C201.852 56.4118 202.306 56.7124 202.673 57.1818C203.054 57.6364 203.245 58.2011 203.245 58.8758C203.245 59.9464 202.944 60.7384 202.343 61.2518C201.756 61.7504 200.693 61.9998 199.153 61.9998H193.631ZM196.095 59.8438H198.911C199.6 59.8438 200.07 59.7484 200.319 59.5578C200.568 59.3524 200.693 59.0444 200.693 58.6338C200.693 58.1791 200.554 57.8638 200.275 57.6878C200.011 57.5118 199.556 57.4238 198.911 57.4238H196.095V59.8438ZM196.095 55.2678H198.647C199.204 55.2678 199.6 55.1798 199.835 55.0038C200.07 54.8278 200.187 54.5418 200.187 54.1458C200.187 53.7498 200.062 53.4711 199.813 53.3098C199.564 53.1484 199.153 53.0678 198.581 53.0678H196.095V55.2678ZM210.496 62.2418C209.528 62.2418 208.655 62.0071 207.878 61.5378C207.115 61.0538 206.506 60.3864 206.052 59.5358C205.612 58.6704 205.392 57.6658 205.392 56.5218C205.392 55.3778 205.612 54.3731 206.052 53.5078C206.506 52.6424 207.115 51.9751 207.878 51.5058C208.655 51.0218 209.528 50.7798 210.496 50.7798C211.493 50.7798 212.373 51.0218 213.136 51.5058C213.913 51.9751 214.522 52.6424 214.962 53.5078C215.402 54.3731 215.622 55.3778 215.622 56.5218C215.622 57.6658 215.402 58.6704 214.962 59.5358C214.522 60.3864 213.913 61.0538 213.136 61.5378C212.373 62.0071 211.493 62.2418 210.496 62.2418ZM210.496 59.9098C211.273 59.9098 211.904 59.6164 212.388 59.0298C212.886 58.4431 213.136 57.6071 213.136 56.5218C213.136 55.4364 212.886 54.6004 212.388 54.0138C211.904 53.4124 211.273 53.1118 210.496 53.1118C209.733 53.1118 209.11 53.4124 208.626 54.0138C208.142 54.6004 207.9 55.4364 207.9 56.5218C207.9 57.6071 208.142 58.4431 208.626 59.0298C209.11 59.6164 209.733 59.9098 210.496 59.9098ZM217.758 61.9998V50.9118H220.244V58.0398L224.732 50.9118H227.196V61.9998H224.71V54.9378L220.244 61.9998H217.758ZM222.488 50.0538C221.432 50.0538 220.677 49.8411 220.222 49.4158C219.782 48.9758 219.496 48.2644 219.364 47.2818H220.794C220.867 47.7804 221.029 48.1178 221.278 48.2938C221.527 48.4551 221.931 48.5358 222.488 48.5358C223.045 48.5358 223.449 48.4551 223.698 48.2938C223.962 48.1178 224.123 47.7804 224.182 47.2818H225.59C225.473 48.2644 225.187 48.9758 224.732 49.4158C224.277 49.8411 223.529 50.0538 222.488 50.0538ZM236.063 61.9998V50.9118H244.533V61.9998H242.069V53.0678H238.549V61.9998H236.063ZM251.789 62.2418C250.821 62.2418 249.948 62.0071 249.171 61.5378C248.408 61.0538 247.799 60.3864 247.345 59.5358C246.905 58.6704 246.685 57.6658 246.685 56.5218C246.685 55.3778 246.905 54.3731 247.345 53.5078C247.799 52.6424 248.408 51.9751 249.171 51.5058C249.948 51.0218 250.821 50.7798 251.789 50.7798C252.786 50.7798 253.666 51.0218 254.429 51.5058C255.206 51.9751 255.815 52.6424 256.255 53.5078C256.695 54.3731 256.915 55.3778 256.915 56.5218C256.915 57.6658 256.695 58.6704 256.255 59.5358C255.815 60.3864 255.206 61.0538 254.429 61.5378C253.666 62.0071 252.786 62.2418 251.789 62.2418ZM251.789 59.9098C252.566 59.9098 253.197 59.6164 253.681 59.0298C254.179 58.4431 254.429 57.6071 254.429 56.5218C254.429 55.4364 254.179 54.6004 253.681 54.0138C253.197 53.4124 252.566 53.1118 251.789 53.1118C251.026 53.1118 250.403 53.4124 249.919 54.0138C249.435 54.6004 249.193 55.4364 249.193 56.5218C249.193 57.6071 249.435 58.4431 249.919 59.0298C250.403 59.6164 251.026 59.9098 251.789 59.9098ZM261.134 61.9998V53.0678H257.504V50.9118H267.272V53.0678H263.62V61.9998H261.134ZM273.06 62.2418C271.52 62.2418 270.273 61.7651 269.32 60.8118C268.366 59.8438 267.89 58.4211 267.89 56.5438C267.89 55.3558 268.102 54.3364 268.528 53.4858C268.953 52.6204 269.547 51.9604 270.31 51.5058C271.072 51.0364 271.945 50.8018 272.928 50.8018C273.91 50.8018 274.746 51.0511 275.436 51.5498C276.125 52.0338 276.653 52.7011 277.02 53.5518C277.386 54.3878 277.57 55.3411 277.57 56.4118V57.0058H270.332C270.39 58.0911 270.669 58.8684 271.168 59.3378C271.666 59.7924 272.312 60.0198 273.104 60.0198C273.793 60.0198 274.358 59.8511 274.798 59.5138C275.238 59.1618 275.619 58.6484 275.942 57.9738L277.768 59.2718C277.225 60.3278 276.558 61.0904 275.766 61.5598C274.988 62.0144 274.086 62.2418 273.06 62.2418ZM270.442 55.0038H275.128C275.01 54.3144 274.754 53.7791 274.358 53.3978C273.976 53.0164 273.485 52.8258 272.884 52.8258C272.238 52.8258 271.703 53.0018 271.278 53.3538C270.867 53.7058 270.588 54.2558 270.442 55.0038ZM279.912 61.9998V50.9118H282.398V55.1358H286.314V50.9118H288.756V61.9998H286.314V57.2698H282.398V61.9998H279.912ZM298.621 64.8598V61.9998H291.471V50.9118H293.957V59.8438H297.477V50.9118H299.941V59.8438H300.799V64.8598H298.621ZM302.578 61.9998V50.9118H305.064V58.0398L309.552 50.9118H312.016V61.9998H309.53V54.9378L305.064 61.9998H302.578ZM318.193 62.1538C317.049 62.1978 316.103 61.9484 315.355 61.4058C314.622 60.8631 314.255 60.0784 314.255 59.0518C314.255 58.3038 314.482 57.6658 314.937 57.1378C315.392 56.6098 315.978 56.1991 316.697 55.9058C317.416 55.5978 318.156 55.4364 318.919 55.4218C319.3 55.3924 319.66 55.4218 319.997 55.5098C320.334 55.5978 320.635 55.7224 320.899 55.8838V54.5858C320.899 53.8964 320.752 53.4491 320.459 53.2438C320.166 53.0384 319.733 52.9358 319.161 52.9358C318.545 52.9358 317.892 53.0458 317.203 53.2658C316.528 53.4858 315.949 53.7718 315.465 54.1238L314.343 52.2098C314.944 51.8284 315.67 51.4984 316.521 51.2198C317.372 50.9264 318.252 50.7798 319.161 50.7798C320.525 50.7798 321.552 51.0584 322.241 51.6158C322.93 52.1584 323.275 53.1484 323.275 54.5858V59.8218C323.275 60.1298 323.341 60.3058 323.473 60.3498C323.62 60.3938 323.942 60.3424 324.441 60.1958V61.7578C324.221 61.8604 323.942 61.9484 323.605 62.0218C323.282 62.1098 322.93 62.1538 322.549 62.1538C322.094 62.1538 321.742 62.0804 321.493 61.9338C321.258 61.7724 321.09 61.5084 320.987 61.1418C320.62 61.4498 320.195 61.6918 319.711 61.8678C319.227 62.0291 318.721 62.1244 318.193 62.1538ZM318.149 59.9978C318.97 59.9684 319.645 59.8071 320.173 59.5138C320.716 59.2204 320.972 58.8024 320.943 58.2598C320.928 57.9078 320.745 57.6658 320.393 57.5338C320.056 57.4018 319.63 57.3504 319.117 57.3798C318.398 57.3944 317.804 57.5778 317.335 57.9298C316.866 58.2671 316.638 58.6484 316.653 59.0738C316.682 59.7338 317.181 60.0418 318.149 59.9978ZM325.435 61.9998V59.8438H325.919C326.212 59.8438 326.41 59.8144 326.513 59.7558C326.63 59.6971 326.711 59.5064 326.755 59.1838C326.872 58.5384 326.96 57.6584 327.019 56.5438C327.092 55.4291 327.129 54.2558 327.129 53.0238V50.9118H334.697V61.9998H332.211V53.0678H329.615C329.615 53.9771 329.593 54.8864 329.549 55.7958C329.505 56.7051 329.439 57.5484 329.351 58.3258C329.278 59.1031 329.19 59.7631 329.087 60.3058C328.955 60.9364 328.684 61.3764 328.273 61.6258C327.877 61.8751 327.254 61.9998 326.403 61.9998H325.435ZM348.125 62.2418C347.157 62.2418 346.284 62.0071 345.507 61.5378C344.744 61.0538 344.135 60.3864 343.681 59.5358C343.241 58.6851 343.021 57.6878 343.021 56.5438C343.021 55.3851 343.241 54.3804 343.681 53.5298C344.135 52.6644 344.744 51.9971 345.507 51.5278C346.284 51.0438 347.157 50.8018 348.125 50.8018C348.99 50.8018 349.775 50.9851 350.479 51.3518C351.197 51.7038 351.784 52.2244 352.239 52.9138L350.259 54.4098C349.804 53.5444 349.093 53.1118 348.125 53.1118C347.362 53.1118 346.739 53.4124 346.255 54.0138C345.771 54.6004 345.529 55.4438 345.529 56.5438C345.529 57.6144 345.771 58.4431 346.255 59.0298C346.739 59.6164 347.362 59.9098 348.125 59.9098C349.093 59.9098 349.811 59.4844 350.281 58.6338L352.239 60.1298C351.784 60.8044 351.197 61.3251 350.479 61.6918C349.775 62.0584 348.99 62.2418 348.125 62.2418ZM358.501 62.2418C357.533 62.2418 356.661 62.0071 355.883 61.5378C355.121 61.0538 354.512 60.3864 354.057 59.5358C353.617 58.6704 353.397 57.6658 353.397 56.5218C353.397 55.3778 353.617 54.3731 354.057 53.5078C354.512 52.6424 355.121 51.9751 355.883 51.5058C356.661 51.0218 357.533 50.7798 358.501 50.7798C359.499 50.7798 360.379 51.0218 361.141 51.5058C361.919 51.9751 362.527 52.6424 362.967 53.5078C363.407 54.3731 363.627 55.3778 363.627 56.5218C363.627 57.6658 363.407 58.6704 362.967 59.5358C362.527 60.3864 361.919 61.0538 361.141 61.5378C360.379 62.0071 359.499 62.2418 358.501 62.2418ZM358.501 59.9098C359.279 59.9098 359.909 59.6164 360.393 59.0298C360.892 58.4431 361.141 57.6071 361.141 56.5218C361.141 55.4364 360.892 54.6004 360.393 54.0138C359.909 53.4124 359.279 53.1118 358.501 53.1118C357.739 53.1118 357.115 53.4124 356.631 54.0138C356.147 54.6004 355.905 55.4364 355.905 56.5218C355.905 57.6071 356.147 58.4431 356.631 59.0298C357.115 59.6164 357.739 59.9098 358.501 59.9098ZM481.576 54.1458V53.1338H503.576V54.1458H481.576ZM71.342 93.9998V82.9118H79.812V93.9998H77.348V85.0678H73.828V93.9998H71.342ZM87.1339 94.2418C85.5939 94.2418 84.3472 93.7651 83.3939 92.8118C82.4405 91.8438 81.9639 90.4211 81.9639 88.5438C81.9639 87.3558 82.1765 86.3364 82.6019 85.4858C83.0272 84.6204 83.6212 83.9604 84.3839 83.5058C85.1465 83.0364 86.0192 82.8018 87.0019 82.8018C87.9845 82.8018 88.8205 83.0511 89.5099 83.5498C90.1992 84.0338 90.7272 84.7011 91.0939 85.5518C91.4605 86.3878 91.6439 87.3411 91.6439 88.4118V89.0058H84.4059C84.4645 90.0911 84.7432 90.8684 85.2419 91.3378C85.7405 91.7924 86.3859 92.0198 87.1779 92.0198C87.8672 92.0198 88.4319 91.8511 88.8719 91.5138C89.3119 91.1618 89.6932 90.6484 90.0159 89.9738L91.8419 91.2718C91.2992 92.3278 90.6319 93.0904 89.8399 93.5598C89.0625 94.0144 88.1605 94.2418 87.1339 94.2418ZM84.5159 87.0038H89.2019C89.0845 86.3144 88.8279 85.7791 88.4319 85.3978C88.0505 85.0164 87.5592 84.8258 86.9579 84.8258C86.3125 84.8258 85.7772 85.0018 85.3519 85.3538C84.9412 85.7058 84.6625 86.2558 84.5159 87.0038ZM93.9865 98.3338V82.9338H96.1425L96.2745 84.1218C96.6412 83.6524 97.0739 83.2931 97.5725 83.0438C98.0712 82.7944 98.6212 82.6698 99.2225 82.6698C100.205 82.6698 101.078 82.8971 101.841 83.3518C102.618 83.8064 103.227 84.4738 103.667 85.3538C104.107 86.2191 104.327 87.2898 104.327 88.5658C104.327 89.7684 104.107 90.7951 103.667 91.6458C103.227 92.4818 102.618 93.1271 101.841 93.5818C101.078 94.0218 100.205 94.2418 99.2225 94.2418C98.6799 94.2418 98.1739 94.1391 97.7045 93.9338C97.2352 93.7138 96.8245 93.4131 96.4725 93.0318V98.3338H93.9865ZM99.1345 91.9978C99.9119 91.9978 100.557 91.7044 101.071 91.1178C101.584 90.5311 101.841 89.6804 101.841 88.5658C101.841 87.3338 101.584 86.4244 101.071 85.8378C100.557 85.2364 99.9119 84.9358 99.1345 84.9358C98.3572 84.9358 97.7119 85.2364 97.1985 85.8378C96.6852 86.4391 96.4285 87.3924 96.4285 88.6978C96.4285 89.7538 96.6852 90.5678 97.1985 91.1398C97.7119 91.7118 98.3572 91.9978 99.1345 91.9978ZM111.023 94.2418C110.055 94.2418 109.182 94.0071 108.405 93.5378C107.642 93.0538 107.034 92.3864 106.579 91.5358C106.139 90.6851 105.919 89.6878 105.919 88.5438C105.919 87.3851 106.139 86.3804 106.579 85.5298C107.034 84.6644 107.642 83.9971 108.405 83.5278C109.182 83.0438 110.055 82.8018 111.023 82.8018C111.888 82.8018 112.673 82.9851 113.377 83.3518C114.096 83.7038 114.682 84.2244 115.137 84.9138L113.157 86.4098C112.702 85.5444 111.991 85.1118 111.023 85.1118C110.26 85.1118 109.637 85.4124 109.153 86.0138C108.669 86.6004 108.427 87.4438 108.427 88.5438C108.427 89.6144 108.669 90.4431 109.153 91.0298C109.637 91.6164 110.26 91.9098 111.023 91.9098C111.991 91.9098 112.71 91.4844 113.179 90.6338L115.137 92.1298C114.682 92.8044 114.096 93.3251 113.377 93.6918C112.673 94.0584 111.888 94.2418 111.023 94.2418ZM121.4 94.2418C120.432 94.2418 119.559 94.0071 118.782 93.5378C118.019 93.0538 117.411 92.3864 116.956 91.5358C116.516 90.6704 116.296 89.6658 116.296 88.5218C116.296 87.3778 116.516 86.3731 116.956 85.5078C117.411 84.6424 118.019 83.9751 118.782 83.5058C119.559 83.0218 120.432 82.7798 121.4 82.7798C122.397 82.7798 123.277 83.0218 124.04 83.5058C124.817 83.9751 125.426 84.6424 125.866 85.5078C126.306 86.3731 126.526 87.3778 126.526 88.5218C126.526 89.6658 126.306 90.6704 125.866 91.5358C125.426 92.3864 124.817 93.0538 124.04 93.5378C123.277 94.0071 122.397 94.2418 121.4 94.2418ZM121.4 91.9098C122.177 91.9098 122.808 91.6164 123.292 91.0298C123.791 90.4431 124.04 89.6071 124.04 88.5218C124.04 87.4364 123.791 86.6004 123.292 86.0138C122.808 85.4124 122.177 85.1118 121.4 85.1118C120.637 85.1118 120.014 85.4124 119.53 86.0138C119.046 86.6004 118.804 87.4364 118.804 88.5218C118.804 89.6071 119.046 90.4431 119.53 91.0298C120.014 91.6164 120.637 91.9098 121.4 91.9098ZM128.662 93.9998V82.9118H131.148V87.1358H135.064V82.9118H137.506V93.9998H135.064V89.2698H131.148V93.9998H128.662ZM143.697 94.1538C142.553 94.1978 141.607 93.9484 140.859 93.4058C140.126 92.8631 139.759 92.0784 139.759 91.0518C139.759 90.3038 139.986 89.6658 140.441 89.1378C140.896 88.6098 141.482 88.1991 142.201 87.9058C142.92 87.5978 143.66 87.4364 144.423 87.4218C144.804 87.3924 145.164 87.4218 145.501 87.5098C145.838 87.5978 146.139 87.7224 146.403 87.8838V86.5858C146.403 85.8964 146.256 85.4491 145.963 85.2438C145.67 85.0384 145.237 84.9358 144.665 84.9358C144.049 84.9358 143.396 85.0458 142.707 85.2658C142.032 85.4858 141.453 85.7718 140.969 86.1238L139.847 84.2098C140.448 83.8284 141.174 83.4984 142.025 83.2198C142.876 82.9264 143.756 82.7798 144.665 82.7798C146.029 82.7798 147.056 83.0584 147.745 83.6158C148.434 84.1584 148.779 85.1484 148.779 86.5858V91.8218C148.779 92.1298 148.845 92.3058 148.977 92.3498C149.124 92.3938 149.446 92.3424 149.945 92.1958V93.7578C149.725 93.8604 149.446 93.9484 149.109 94.0218C148.786 94.1098 148.434 94.1538 148.053 94.1538C147.598 94.1538 147.246 94.0804 146.997 93.9338C146.762 93.7724 146.594 93.5084 146.491 93.1418C146.124 93.4498 145.699 93.6918 145.215 93.8678C144.731 94.0291 144.225 94.1244 143.697 94.1538ZM143.653 91.9978C144.474 91.9684 145.149 91.8071 145.677 91.5138C146.22 91.2204 146.476 90.8024 146.447 90.2598C146.432 89.9078 146.249 89.6658 145.897 89.5338C145.56 89.4018 145.134 89.3504 144.621 89.3798C143.902 89.3944 143.308 89.5778 142.839 89.9298C142.37 90.2671 142.142 90.6484 142.157 91.0738C142.186 91.7338 142.685 92.0418 143.653 91.9978ZM150.939 93.9998V91.8438H151.423C151.716 91.8438 151.914 91.8144 152.017 91.7558C152.134 91.6971 152.215 91.5064 152.259 91.1838C152.376 90.5384 152.464 89.6584 152.523 88.5438C152.596 87.4291 152.633 86.2558 152.633 85.0238V82.9118H160.201V93.9998H157.715V85.0678H155.119C155.119 85.9771 155.097 86.8864 155.053 87.7958C155.009 88.7051 154.943 89.5484 154.855 90.3258C154.782 91.1031 154.694 91.7631 154.591 92.3058C154.459 92.9364 154.188 93.3764 153.777 93.6258C153.381 93.8751 152.758 93.9998 151.907 93.9998H150.939ZM162.908 93.9998V82.9118H165.416V87.2678H168.452C170.007 87.2678 171.078 87.5464 171.664 88.1038C172.251 88.6611 172.544 89.5044 172.544 90.6338C172.544 91.7631 172.251 92.6064 171.664 93.1638C171.078 93.7211 170.007 93.9998 168.452 93.9998H162.908ZM165.394 91.8438H168.232C168.907 91.8438 169.369 91.7484 169.618 91.5578C169.868 91.3524 169.992 91.0444 169.992 90.6338C169.992 90.2084 169.868 89.9004 169.618 89.7098C169.369 89.5191 168.907 89.4238 168.232 89.4238H165.394V91.8438ZM174.682 93.9998V82.9118H177.168V87.1358H181.084V82.9118H183.526V93.9998H181.084V89.2698H177.168V93.9998H174.682ZM186.24 93.9998V82.9118H188.726V87.2678H191.784C193.31 87.2678 194.366 87.5464 194.952 88.1038C195.554 88.6611 195.854 89.5044 195.854 90.6338C195.854 91.7631 195.554 92.6064 194.952 93.1638C194.366 93.7211 193.31 93.9998 191.784 93.9998H186.24ZM196.91 93.9998V82.9118H199.374V93.9998H196.91ZM188.726 91.8438H191.52C192.21 91.8438 192.679 91.7484 192.928 91.5578C193.192 91.3524 193.324 91.0444 193.324 90.6338C193.324 90.2084 193.192 89.9004 192.928 89.7098C192.679 89.5191 192.21 89.4238 191.52 89.4238H188.726V91.8438ZM202.074 93.9998V82.9118H204.56L207.574 87.3778L210.566 82.9118H213.052V93.9998H210.588V86.6078L208.256 90.2598H206.87L204.56 86.6078V93.9998H202.074ZM220.804 93.9998L226.678 78.5998H228.922L234.796 93.9998H231.914L230.726 90.6118H224.808L223.62 93.9998H220.804ZM225.644 88.2578H229.912L227.8 82.2518L225.644 88.2578ZM236.583 93.9998V78.5998H239.113V93.9998H236.583ZM241.992 89.7318V87.3998H248.834V89.7318H241.992ZM255.118 93.9998V85.0678H251.488V82.9118H261.256V85.0678H257.604V93.9998H255.118ZM263.971 98.3338V82.9338H266.127L266.259 84.1218C266.626 83.6524 267.058 83.2931 267.557 83.0438C268.056 82.7944 268.606 82.6698 269.207 82.6698C270.19 82.6698 271.062 82.8971 271.825 83.3518C272.602 83.8064 273.211 84.4738 273.651 85.3538C274.091 86.2191 274.311 87.2898 274.311 88.5658C274.311 89.7684 274.091 90.7951 273.651 91.6458C273.211 92.4818 272.602 93.1271 271.825 93.5818C271.062 94.0218 270.19 94.2418 269.207 94.2418C268.664 94.2418 268.158 94.1391 267.689 93.9338C267.22 93.7138 266.809 93.4131 266.457 93.0318V98.3338H263.971ZM269.119 91.9978C269.896 91.9978 270.542 91.7044 271.055 91.1178C271.568 90.5311 271.825 89.6804 271.825 88.5658C271.825 87.3338 271.568 86.4244 271.055 85.8378C270.542 85.2364 269.896 84.9358 269.119 84.9358C268.342 84.9358 267.696 85.2364 267.183 85.8378C266.67 86.4391 266.413 87.3924 266.413 88.6978C266.413 89.7538 266.67 90.5678 267.183 91.1398C267.696 91.7118 268.342 91.9978 269.119 91.9978ZM281.073 94.2418C279.533 94.2418 278.287 93.7651 277.333 92.8118C276.38 91.8438 275.903 90.4211 275.903 88.5438C275.903 87.3558 276.116 86.3364 276.541 85.4858C276.967 84.6204 277.561 83.9604 278.323 83.5058C279.086 83.0364 279.959 82.8018 280.941 82.8018C281.924 82.8018 282.76 83.0511 283.449 83.5498C284.139 84.0338 284.667 84.7011 285.033 85.5518C285.4 86.3878 285.583 87.3411 285.583 88.4118V89.0058H278.345C278.404 90.0911 278.683 90.8684 279.181 91.3378C279.68 91.7924 280.325 92.0198 281.117 92.0198C281.807 92.0198 282.371 91.8511 282.811 91.5138C283.251 91.1618 283.633 90.6484 283.955 89.9738L285.781 91.2718C285.239 92.3278 284.571 93.0904 283.779 93.5598C283.002 94.0144 282.1 94.2418 281.073 94.2418ZM278.455 87.0038H283.141C283.024 86.3144 282.767 85.7791 282.371 85.3978C281.99 85.0164 281.499 84.8258 280.897 84.8258C280.252 84.8258 279.717 85.0018 279.291 85.3538C278.881 85.7058 278.602 86.2558 278.455 87.0038ZM287.926 93.9998V82.9118H290.412V87.1358H294.328V82.9118H296.77V93.9998H294.328V89.2698H290.412V93.9998H287.926ZM304.105 94.2418C302.565 94.2418 301.318 93.7651 300.365 92.8118C299.411 91.8438 298.935 90.4211 298.935 88.5438C298.935 87.3558 299.147 86.3364 299.573 85.4858C299.998 84.6204 300.592 83.9604 301.355 83.5058C302.117 83.0364 302.99 82.8018 303.973 82.8018C304.955 82.8018 305.791 83.0511 306.481 83.5498C307.17 84.0338 307.698 84.7011 308.065 85.5518C308.431 86.3878 308.615 87.3411 308.615 88.4118V89.0058H301.377C301.435 90.0911 301.714 90.8684 302.213 91.3378C302.711 91.7924 303.357 92.0198 304.149 92.0198C304.838 92.0198 305.403 91.8511 305.843 91.5138C306.283 91.1618 306.664 90.6484 306.987 89.9738L308.813 91.2718C308.27 92.3278 307.603 93.0904 306.811 93.5598C306.033 94.0144 305.131 94.2418 304.105 94.2418ZM301.487 87.0038H306.173C306.055 86.3144 305.799 85.7791 305.403 85.3978C305.021 85.0164 304.53 84.8258 303.929 84.8258C303.283 84.8258 302.748 85.0018 302.323 85.3538C301.912 85.7058 301.633 86.2558 301.487 87.0038ZM310.957 98.3338V82.9338H313.113L313.245 84.1218C313.612 83.6524 314.045 83.2931 314.543 83.0438C315.042 82.7944 315.592 82.6698 316.193 82.6698C317.176 82.6698 318.049 82.8971 318.811 83.3518C319.589 83.8064 320.197 84.4738 320.637 85.3538C321.077 86.2191 321.297 87.2898 321.297 88.5658C321.297 89.7684 321.077 90.7951 320.637 91.6458C320.197 92.4818 319.589 93.1271 318.811 93.5818C318.049 94.0218 317.176 94.2418 316.193 94.2418C315.651 94.2418 315.145 94.1391 314.675 93.9338C314.206 93.7138 313.795 93.4131 313.443 93.0318V98.3338H310.957ZM316.105 91.9978C316.883 91.9978 317.528 91.7044 318.041 91.1178C318.555 90.5311 318.811 89.6804 318.811 88.5658C318.811 87.3338 318.555 86.4244 318.041 85.8378C317.528 85.2364 316.883 84.9358 316.105 84.9358C315.328 84.9358 314.683 85.2364 314.169 85.8378C313.656 86.4391 313.399 87.3924 313.399 88.6978C313.399 89.7538 313.656 90.5678 314.169 91.1398C314.683 91.7118 315.328 91.9978 316.105 91.9978ZM327.994 94.2418C327.026 94.2418 326.153 94.0071 325.376 93.5378C324.613 93.0538 324.004 92.3864 323.55 91.5358C323.11 90.6704 322.89 89.6658 322.89 88.5218C322.89 87.3778 323.11 86.3731 323.55 85.5078C324.004 84.6424 324.613 83.9751 325.376 83.5058C326.153 83.0218 327.026 82.7798 327.994 82.7798C328.991 82.7798 329.871 83.0218 330.634 83.5058C331.411 83.9751 332.02 84.6424 332.46 85.5078C332.9 86.3731 333.12 87.3778 333.12 88.5218C333.12 89.6658 332.9 90.6704 332.46 91.5358C332.02 92.3864 331.411 93.0538 330.634 93.5378C329.871 94.0071 328.991 94.2418 327.994 94.2418ZM327.994 91.9098C328.771 91.9098 329.402 91.6164 329.886 91.0298C330.384 90.4431 330.634 89.6071 330.634 88.5218C330.634 87.4364 330.384 86.6004 329.886 86.0138C329.402 85.4124 328.771 85.1118 327.994 85.1118C327.231 85.1118 326.608 85.4124 326.124 86.0138C325.64 86.6004 325.398 87.4364 325.398 88.5218C325.398 89.6071 325.64 90.4431 326.124 91.0298C326.608 91.6164 327.231 91.9098 327.994 91.9098ZM335.256 93.9998V82.9118H337.742L340.756 87.3778L343.748 82.9118H346.234V93.9998H343.77V86.6078L341.438 90.2598H340.052L337.742 86.6078V93.9998H335.256ZM356.428 98.3778C356.076 98.3778 355.746 98.3631 355.438 98.3338C355.13 98.3191 354.851 98.2824 354.602 98.2238V95.9578C354.851 96.0164 355.108 96.0604 355.372 96.0898C355.65 96.1338 355.914 96.1558 356.164 96.1558C356.56 96.1558 356.86 96.1118 357.066 96.0238C357.271 95.9504 357.432 95.8111 357.55 95.6058C357.667 95.4004 357.792 95.1144 357.924 94.7478L358.21 93.9778L354.03 82.9118H356.604L359.288 91.0078L361.818 82.9118H364.348L360.036 95.4738C359.698 96.4564 359.273 97.1824 358.76 97.6518C358.246 98.1358 357.469 98.3778 356.428 98.3778ZM370.232 94.2418C369.264 94.2418 368.391 94.0071 367.614 93.5378C366.851 93.0538 366.243 92.3864 365.788 91.5358C365.348 90.6851 365.128 89.6878 365.128 88.5438C365.128 87.3851 365.348 86.3804 365.788 85.5298C366.243 84.6644 366.851 83.9971 367.614 83.5278C368.391 83.0438 369.264 82.8018 370.232 82.8018C371.097 82.8018 371.882 82.9851 372.586 83.3518C373.305 83.7038 373.891 84.2244 374.346 84.9138L372.366 86.4098C371.911 85.5444 371.2 85.1118 370.232 85.1118C369.469 85.1118 368.846 85.4124 368.362 86.0138C367.878 86.6004 367.636 87.4438 367.636 88.5438C367.636 89.6144 367.878 90.4431 368.362 91.0298C368.846 91.6164 369.469 91.9098 370.232 91.9098C371.2 91.9098 371.919 91.4844 372.388 90.6338L374.346 92.1298C373.891 92.8044 373.305 93.3251 372.586 93.6918C371.882 94.0584 371.097 94.2418 370.232 94.2418ZM376.485 93.9998V82.9118H384.955V93.9998H382.491V85.0678H378.971V93.9998H376.485ZM392.276 94.2418C390.736 94.2418 389.49 93.7651 388.536 92.8118C387.583 91.8438 387.106 90.4211 387.106 88.5438C387.106 87.3558 387.319 86.3364 387.744 85.4858C388.17 84.6204 388.764 83.9604 389.526 83.5058C390.289 83.0364 391.162 82.8018 392.144 82.8018C393.127 82.8018 393.963 83.0511 394.652 83.5498C395.342 84.0338 395.87 84.7011 396.236 85.5518C396.603 86.3878 396.786 87.3411 396.786 88.4118V89.0058H389.548C389.607 90.0911 389.886 90.8684 390.384 91.3378C390.883 91.7924 391.528 92.0198 392.32 92.0198C393.01 92.0198 393.574 91.8511 394.014 91.5138C394.454 91.1618 394.836 90.6484 395.158 89.9738L396.984 91.2718C396.442 92.3278 395.774 93.0904 394.982 93.5598C394.205 94.0144 393.303 94.2418 392.276 94.2418ZM389.658 87.0038H394.344C394.227 86.3144 393.97 85.7791 393.574 85.3978C393.193 85.0164 392.702 84.8258 392.1 84.8258C391.455 84.8258 390.92 85.0018 390.494 85.3538C390.084 85.7058 389.805 86.2558 389.658 87.0038ZM399.129 93.9998V82.9338H401.615V91.8438H403.815V82.9338H406.301V91.8438H408.501V82.9338H410.987V93.9998H399.129ZM413.696 93.9998V82.9118H416.182V87.1358H420.098V82.9118H422.54V93.9998H420.098V89.2698H416.182V93.9998H413.696ZM425.254 93.9998V82.9118H427.74V87.2678H430.798C432.323 87.2678 433.379 87.5464 433.966 88.1038C434.567 88.6611 434.868 89.5044 434.868 90.6338C434.868 91.7631 434.567 92.6064 433.966 93.1638C433.379 93.7211 432.323 93.9998 430.798 93.9998H425.254ZM435.924 93.9998V82.9118H438.388V93.9998H435.924ZM427.74 91.8438H430.534C431.223 91.8438 431.693 91.7484 431.942 91.5578C432.206 91.3524 432.338 91.0444 432.338 90.6338C432.338 90.2084 432.206 89.9004 431.942 89.7098C431.693 89.5191 431.223 89.4238 430.534 89.4238H427.74V91.8438ZM440.186 93.9998L444.3 88.2138L440.648 82.9118H443.508L445.642 86.3218L447.82 82.9118H450.57L446.962 88.1258L451.12 93.9998H448.216L445.62 90.0398L443.024 93.9998H440.186ZM459.071 93.9998V82.9118H464.153C465.473 82.9118 466.47 83.1538 467.145 83.6378C467.819 84.1218 468.157 84.9138 468.157 86.0138C468.157 86.5418 468.025 87.0184 467.761 87.4438C467.511 87.8691 467.174 88.1478 466.749 88.2798C467.291 88.4118 467.746 88.7124 468.113 89.1818C468.494 89.6364 468.685 90.2011 468.685 90.8758C468.685 91.9464 468.384 92.7384 467.783 93.2518C467.196 93.7504 466.133 93.9998 464.593 93.9998H459.071ZM461.535 91.8438H464.351C465.04 91.8438 465.509 91.7484 465.759 91.5578C466.008 91.3524 466.133 91.0444 466.133 90.6338C466.133 90.1791 465.993 89.8638 465.715 89.6878C465.451 89.5118 464.996 89.4238 464.351 89.4238H461.535V91.8438ZM461.535 87.2678H464.087C464.644 87.2678 465.04 87.1798 465.275 87.0038C465.509 86.8278 465.627 86.5418 465.627 86.1458C465.627 85.7498 465.502 85.4711 465.253 85.3098C465.003 85.1484 464.593 85.0678 464.021 85.0678H461.535V87.2678ZM471.381 93.9998V82.9118H473.867V87.2678H476.925C478.45 87.2678 479.506 87.5464 480.093 88.1038C480.694 88.6611 480.995 89.5044 480.995 90.6338C480.995 91.7631 480.694 92.6064 480.093 93.1638C479.506 93.7211 478.45 93.9998 476.925 93.9998H471.381ZM482.051 93.9998V82.9118H484.515V93.9998H482.051ZM473.867 91.8438H476.661C477.35 91.8438 477.82 91.7484 478.069 91.5578C478.333 91.3524 478.465 91.0444 478.465 90.6338C478.465 90.2084 478.333 89.9004 478.069 89.7098C477.82 89.5191 477.35 89.4238 476.661 89.4238H473.867V91.8438ZM491.769 94.2418C490.801 94.2418 489.928 94.0071 489.151 93.5378C488.388 93.0538 487.78 92.3864 487.325 91.5358C486.885 90.6851 486.665 89.6878 486.665 88.5438C486.665 87.3851 486.885 86.3804 487.325 85.5298C487.78 84.6644 488.388 83.9971 489.151 83.5278C489.928 83.0438 490.801 82.8018 491.769 82.8018C492.634 82.8018 493.419 82.9851 494.123 83.3518C494.842 83.7038 495.428 84.2244 495.883 84.9138L493.903 86.4098C493.448 85.5444 492.737 85.1118 491.769 85.1118C491.006 85.1118 490.383 85.4124 489.899 86.0138C489.415 86.6004 489.173 87.4438 489.173 88.5438C489.173 89.6144 489.415 90.4431 489.899 91.0298C490.383 91.6164 491.006 91.9098 491.769 91.9098C492.737 91.9098 493.456 91.4844 493.925 90.6338L495.883 92.1298C495.428 92.8044 494.842 93.3251 494.123 93.6918C493.419 94.0584 492.634 94.2418 491.769 94.2418ZM501.652 93.9998V85.0678H498.022V82.9118H507.79V85.0678H504.138V93.9998H501.652ZM511.824 98.3778C511.472 98.3778 511.142 98.3631 510.834 98.3338C510.526 98.3191 510.247 98.2824 509.998 98.2238V95.9578C510.247 96.0164 510.504 96.0604 510.768 96.0898C511.047 96.1338 511.311 96.1558 511.56 96.1558C511.956 96.1558 512.257 96.1118 512.462 96.0238C512.667 95.9504 512.829 95.8111 512.946 95.6058C513.063 95.4004 513.188 95.1144 513.32 94.7478L513.606 93.9778L509.426 82.9118H512L514.684 91.0078L517.214 82.9118H519.744L515.432 95.4738C515.095 96.4564 514.669 97.1824 514.156 97.6518C513.643 98.1358 512.865 98.3778 511.824 98.3778ZM521.504 93.9998V82.9118H529.974V93.9998H527.51V85.0678H523.99V93.9998H521.504ZM531.642 93.9998V91.8438H532.126C532.419 91.8438 532.617 91.8144 532.72 91.7558C532.837 91.6971 532.918 91.5064 532.962 91.1838C533.079 90.5384 533.167 89.6584 533.226 88.5438C533.299 87.4291 533.336 86.2558 533.336 85.0238V82.9118H540.904V93.9998H538.418V85.0678H535.822C535.822 85.9771 535.8 86.8864 535.756 87.7958C535.712 88.7051 535.646 89.5484 535.558 90.3258C535.485 91.1031 535.397 91.7631 535.294 92.3058C535.162 92.9364 534.891 93.3764 534.48 93.6258C534.084 93.8751 533.461 93.9998 532.61 93.9998H531.642ZM548.232 94.2418C546.692 94.2418 545.445 93.7651 544.492 92.8118C543.538 91.8438 543.062 90.4211 543.062 88.5438C543.062 87.3558 543.274 86.3364 543.7 85.4858C544.125 84.6204 544.719 83.9604 545.482 83.5058C546.244 83.0364 547.117 82.8018 548.1 82.8018C549.082 82.8018 549.918 83.0511 550.608 83.5498C551.297 84.0338 551.825 84.7011 552.192 85.5518C552.558 86.3878 552.742 87.3411 552.742 88.4118V89.0058H545.504C545.562 90.0911 545.841 90.8684 546.34 91.3378C546.838 91.7924 547.484 92.0198 548.276 92.0198C548.965 92.0198 549.53 91.8511 549.97 91.5138C550.41 91.1618 550.791 90.6484 551.114 89.9738L552.94 91.2718C552.397 92.3278 551.73 93.0904 550.938 93.5598C550.16 94.0144 549.258 94.2418 548.232 94.2418ZM545.614 87.0038H550.3C550.182 86.3144 549.926 85.7791 549.53 85.3978C549.148 85.0164 548.657 84.8258 548.056 84.8258C547.41 84.8258 546.875 85.0018 546.45 85.3538C546.039 85.7058 545.76 86.2558 545.614 87.0038ZM555.084 93.9998V82.9118H557.57V87.1358H561.486V82.9118H563.928V93.9998H561.486V89.2698H557.57V93.9998H555.084ZM566.643 93.9998V82.9118H569.129V90.0398L573.617 82.9118H576.081V93.9998H573.595V86.9378L569.129 93.9998H566.643ZM578.781 93.9998V82.9118H581.267V90.0398L585.755 82.9118H588.219V93.9998H585.733V86.9378L581.267 93.9998H578.781ZM583.511 82.0538C582.455 82.0538 581.7 81.8411 581.245 81.4158C580.805 80.9758 580.519 80.2644 580.387 79.2818H581.817C581.891 79.7804 582.052 80.1178 582.301 80.2938C582.551 80.4551 582.954 80.5358 583.511 80.5358C584.069 80.5358 584.472 80.4551 584.721 80.2938C584.985 80.1178 585.147 79.7804 585.205 79.2818H586.613C586.496 80.2644 586.21 80.9758 585.755 81.4158C585.301 81.8411 584.553 82.0538 583.511 82.0538Z" fill="#041028"/>
<path d="M377.716 62.3078C376.425 62.3078 375.237 62.0364 374.152 61.4938C373.081 60.9511 372.223 60.0344 371.578 58.7438L373.712 57.5338C374.152 58.2671 374.687 58.8464 375.318 59.2718C375.949 59.6824 376.777 59.8878 377.804 59.8878C378.831 59.8878 379.549 59.7044 379.96 59.3378C380.385 58.9564 380.598 58.4431 380.598 57.7978C380.598 57.3871 380.503 57.0351 380.312 56.7418C380.136 56.4484 379.755 56.1771 379.168 55.9278C378.596 55.6638 377.709 55.3998 376.506 55.1358C375.083 54.7984 374.027 54.2631 373.338 53.5298C372.663 52.7964 372.326 51.8651 372.326 50.7358C372.326 49.8411 372.539 49.0564 372.964 48.3818C373.404 47.6924 374.013 47.1571 374.79 46.7758C375.582 46.3944 376.506 46.2038 377.562 46.2038C378.955 46.2038 380.129 46.5118 381.082 47.1278C382.035 47.7291 382.761 48.4404 383.26 49.2618L381.258 50.8018C381.009 50.4498 380.715 50.1124 380.378 49.7898C380.041 49.4524 379.645 49.1811 379.19 48.9758C378.735 48.7558 378.185 48.6458 377.54 48.6458C376.777 48.6458 376.154 48.8144 375.67 49.1518C375.201 49.4744 374.966 49.9658 374.966 50.6258C374.966 50.9191 375.032 51.2051 375.164 51.4838C375.311 51.7478 375.619 52.0044 376.088 52.2538C376.572 52.5031 377.313 52.7451 378.31 52.9798C380.07 53.3758 381.339 53.9698 382.116 54.7618C382.893 55.5538 383.282 56.5511 383.282 57.7538C383.282 59.2204 382.769 60.3498 381.742 61.1418C380.73 61.9191 379.388 62.3078 377.716 62.3078ZM385.658 66.3338V51.4178H387.814L387.946 52.5838C388.694 51.6304 389.677 51.1538 390.894 51.1538C391.877 51.1538 392.75 51.3738 393.512 51.8138C394.29 52.2538 394.898 52.8918 395.338 53.7278C395.778 54.5491 395.998 55.5391 395.998 56.6978C395.998 57.8564 395.778 58.8538 395.338 59.6898C394.898 60.5111 394.29 61.1418 393.512 61.5818C392.75 62.0218 391.877 62.2418 390.894 62.2418C390.352 62.2418 389.846 62.1391 389.376 61.9338C388.907 61.7138 388.496 61.4131 388.144 61.0318V66.3338H385.658ZM390.806 59.9978C391.584 59.9978 392.229 59.7118 392.742 59.1398C393.256 58.5678 393.512 57.7538 393.512 56.6978C393.512 55.6418 393.256 54.8278 392.742 54.2558C392.229 53.6838 391.584 53.3978 390.806 53.3978C390.029 53.3978 389.384 53.6838 388.87 54.2558C388.357 54.8278 388.1 55.6418 388.1 56.6978C388.1 57.7538 388.357 58.5678 388.87 59.1398C389.384 59.7118 390.029 59.9978 390.806 59.9978ZM402.761 62.2418C401.221 62.2418 399.974 61.7798 399.021 60.8558C398.067 59.9171 397.591 58.5311 397.591 56.6978C397.591 55.5538 397.803 54.5711 398.229 53.7498C398.654 52.9138 399.248 52.2758 400.011 51.8358C400.773 51.3811 401.646 51.1538 402.629 51.1538C403.611 51.1538 404.447 51.3958 405.137 51.8798C405.826 52.3491 406.354 52.9944 406.721 53.8158C407.087 54.6371 407.271 55.5611 407.271 56.5878V57.1598H400.033C400.091 58.2158 400.37 58.9711 400.869 59.4258C401.367 59.8658 402.013 60.0858 402.805 60.0858C403.494 60.0858 404.059 59.9244 404.499 59.6018C404.939 59.2644 405.32 58.7658 405.643 58.1058L407.469 59.3818C406.926 60.3938 406.259 61.1271 405.467 61.5818C404.689 62.0218 403.787 62.2418 402.761 62.2418ZM400.143 55.2458H404.829C404.711 54.5564 404.455 54.0284 404.059 53.6618C403.677 53.2804 403.186 53.0898 402.585 53.0898C401.939 53.0898 401.404 53.2658 400.979 53.6178C400.568 53.9698 400.289 54.5124 400.143 55.2458ZM414.233 62.2418C412.693 62.2418 411.447 61.7798 410.493 60.8558C409.54 59.9171 409.063 58.5311 409.063 56.6978C409.063 55.5538 409.276 54.5711 409.701 53.7498C410.127 52.9138 410.721 52.2758 411.483 51.8358C412.246 51.3811 413.119 51.1538 414.101 51.1538C415.084 51.1538 415.92 51.3958 416.609 51.8798C417.299 52.3491 417.827 52.9944 418.193 53.8158C418.56 54.6371 418.743 55.5611 418.743 56.5878V57.1598H411.505C411.564 58.2158 411.843 58.9711 412.341 59.4258C412.84 59.8658 413.485 60.0858 414.277 60.0858C414.967 60.0858 415.531 59.9244 415.971 59.6018C416.411 59.2644 416.793 58.7658 417.115 58.1058L418.941 59.3818C418.399 60.3938 417.731 61.1271 416.939 61.5818C416.162 62.0218 415.26 62.2418 414.233 62.2418ZM411.615 55.2458H416.301C416.184 54.5564 415.927 54.0284 415.531 53.6618C415.15 53.2804 414.659 53.0898 414.057 53.0898C413.412 53.0898 412.877 53.2658 412.451 53.6178C412.041 53.9698 411.762 54.5124 411.615 55.2458ZM425.64 62.2418C424.672 62.2418 423.799 62.0144 423.022 61.5598C422.259 61.0904 421.651 60.4451 421.196 59.6238C420.756 58.7878 420.536 57.8124 420.536 56.6978C420.536 55.5831 420.756 54.6151 421.196 53.7938C421.651 52.9578 422.259 52.3124 423.022 51.8578C423.799 51.3884 424.672 51.1538 425.64 51.1538C426.505 51.1538 427.29 51.3298 427.994 51.6818C428.713 52.0338 429.299 52.5398 429.754 53.1998L427.774 54.6518C427.319 53.8158 426.608 53.3978 425.64 53.3978C424.877 53.3978 424.254 53.6838 423.77 54.2558C423.286 54.8278 423.044 55.6418 423.044 56.6978C423.044 57.7538 423.286 58.5678 423.77 59.1398C424.254 59.7118 424.877 59.9978 425.64 59.9978C426.593 59.9978 427.312 59.5871 427.796 58.7658L429.754 60.1958C429.299 60.8411 428.713 61.3471 427.994 61.7138C427.29 62.0658 426.505 62.2418 425.64 62.2418ZM431.893 61.9998V46.3138H434.379V52.6718C434.613 52.2611 434.965 51.9091 435.435 51.6158C435.904 51.3078 436.469 51.1538 437.129 51.1538C438.229 51.1538 439.123 51.5058 439.813 52.2098C440.517 52.9138 440.869 53.9478 440.869 55.3118V61.9998H438.383V55.9058C438.383 55.0698 438.214 54.4464 437.877 54.0358C437.539 53.6104 437.085 53.3978 436.513 53.3978C435.882 53.3978 435.369 53.6178 434.973 54.0578C434.577 54.4831 434.379 55.1211 434.379 55.9718V61.9998H431.893ZM455.664 62.2858C453.743 62.2858 452.276 61.7798 451.264 60.7678C450.252 59.7411 449.746 58.2084 449.746 56.1698V46.5998H452.32V56.0378C452.32 57.3578 452.614 58.3184 453.2 58.9198C453.802 59.5064 454.623 59.7998 455.664 59.7998C456.706 59.7998 457.52 59.5064 458.106 58.9198C458.693 58.3184 458.986 57.3578 458.986 56.0378V46.5998H461.538V56.1698C461.538 58.2084 461.04 59.7411 460.042 60.7678C459.045 61.7798 457.586 62.2858 455.664 62.2858ZM464.27 66.3338V51.4178H466.426L466.558 52.5838C467.306 51.6304 468.288 51.1538 469.506 51.1538C470.488 51.1538 471.361 51.3738 472.124 51.8138C472.901 52.2538 473.51 52.8918 473.95 53.7278C474.39 54.5491 474.61 55.5391 474.61 56.6978C474.61 57.8564 474.39 58.8538 473.95 59.6898C473.51 60.5111 472.901 61.1418 472.124 61.5818C471.361 62.0218 470.488 62.2418 469.506 62.2418C468.963 62.2418 468.457 62.1391 467.988 61.9338C467.518 61.7138 467.108 61.4131 466.756 61.0318V66.3338H464.27ZM469.418 59.9978C470.195 59.9978 470.84 59.7118 471.354 59.1398C471.867 58.5678 472.124 57.7538 472.124 56.6978C472.124 55.6418 471.867 54.8278 471.354 54.2558C470.84 53.6838 470.195 53.3978 469.418 53.3978C468.64 53.3978 467.995 53.6838 467.482 54.2558C466.968 54.8278 466.712 55.6418 466.712 56.6978C466.712 57.7538 466.968 58.5678 467.482 59.1398C467.995 59.7118 468.64 59.9978 469.418 59.9978Z" fill="#2477F4"/>
</g>
<defs>
<filter id="filter0_d_489_65" x="-32.8889" y="-26.3333" width="745.778" height="197.778" filterUnits="userSpaceOnUse" color-interpolation-filters="sRGB">
<feFlood flood-opacity="0" result="BackgroundImageFix"/>
<feColorMatrix in="SourceAlpha" type="matrix" values="0 0 0 0 0 0 0 0 0 0 0 0 0 0 0 0 0 0 127 0" result="hardAlpha"/>
<feOffset dy="3.55556"/>
<feGaussianBlur stdDeviation="28.4444"/>
<feComposite in2="hardAlpha" operator="out"/>
<feColorMatrix type="matrix" values="0 0 0 0 0.00830861 0 0 0 0 0.0427516 0 0 0 0 0.108767 0 0 0 0.7 0"/>
<feBlend mode="normal" in2="BackgroundImageFix" result="effect1_dropShadow_489_65"/>
<feBlend mode="normal" in="SourceGraphic" in2="effect1_dropShadow_489_65" result="shape"/>
</filter>
<clipPath id="clip0_489_65">
<rect width="675" height="143" fill="white"/>
</clipPath>
</defs>
</svg>
