<svg width="636" height="121" viewBox="0 0 636 121" fill="none" xmlns="http://www.w3.org/2000/svg">
<g clip-path="url(#clip0_11_6)">
<g filter="url(#filter0_d_11_6)">
<path fill-rule="evenodd" clip-rule="evenodd" d="M63 20C46.4315 20 33 33.4315 33 50V52.2915L12.215 85.068C8.97546 90.2012 12.5873 95.8899 18.6377 95.1838L39.5723 92.7406C45.0701 99.6045 53.5217 104 63 104H589C605.569 104 619 90.5685 619 74V50C619 33.4315 605.569 20 589 20H63Z" fill="white"/>
</g>
<path d="M62.44 42.28C61.6 42.28 60.88 42.4333 60.28 42.74C59.6933 43.0467 59.2067 43.46 58.82 43.98C58.4467 44.5 58.1733 45.1 58 45.78C57.8267 46.4467 57.74 47.1467 57.74 47.88C57.74 48.6667 57.8333 49.4067 58.02 50.1C58.2067 50.7933 58.4933 51.4 58.88 51.92C59.2667 52.4267 59.76 52.8333 60.36 53.14C60.96 53.4333 61.6733 53.58 62.5 53.58C63.5 53.58 64.34 53.3733 65.02 52.96C65.7 52.5467 66.14 51.9933 66.34 51.3H68.24C67.9333 52.4733 67.2867 53.4133 66.3 54.12C65.3133 54.8133 64.0333 55.16 62.46 55.16C61.3667 55.16 60.4133 54.98 59.6 54.62C58.7867 54.26 58.1067 53.76 57.56 53.12C57.0267 52.48 56.6267 51.72 56.36 50.84C56.0933 49.96 55.96 48.9933 55.96 47.94C55.96 46.9 56.0933 45.94 56.36 45.06C56.6267 44.18 57.0333 43.42 57.58 42.78C58.1267 42.1267 58.8067 41.62 59.62 41.26C60.4333 40.8867 61.3933 40.7 62.5 40.7C63.2733 40.7 63.9667 40.7933 64.58 40.98C65.2067 41.1667 65.7467 41.4333 66.2 41.78C66.6667 42.1133 67.0467 42.52 67.34 43C67.6333 43.4667 67.8467 43.9867 67.98 44.56H66.22C66.02 43.8667 65.5867 43.3133 64.92 42.9C64.2667 42.4867 63.44 42.28 62.44 42.28ZM75.1792 44.34C76.0192 44.34 76.7459 44.4733 77.3592 44.74C77.9726 45.0067 78.4859 45.38 78.8992 45.86C79.3259 46.34 79.6392 46.9133 79.8392 47.58C80.0526 48.2333 80.1592 48.9533 80.1592 49.74C80.1592 50.5267 80.0526 51.2533 79.8392 51.92C79.6392 52.5733 79.3259 53.14 78.8992 53.62C78.4859 54.0867 77.9659 54.4533 77.3392 54.72C76.7126 54.9867 75.9792 55.12 75.1392 55.12C74.2992 55.12 73.5659 54.9867 72.9392 54.72C72.3259 54.4533 71.8059 54.0867 71.3792 53.62C70.9659 53.14 70.6526 52.5733 70.4392 51.92C70.2392 51.2533 70.1392 50.5267 70.1392 49.74C70.1392 48.9533 70.2392 48.2333 70.4392 47.58C70.6526 46.9133 70.9659 46.34 71.3792 45.86C71.8059 45.38 72.3326 45.0067 72.9592 44.74C73.5859 44.4733 74.3259 44.34 75.1792 44.34ZM75.1392 53.62C75.7126 53.62 76.2059 53.52 76.6192 53.32C77.0459 53.12 77.3926 52.8467 77.6592 52.5C77.9392 52.14 78.1392 51.7267 78.2592 51.26C78.3926 50.7933 78.4592 50.2867 78.4592 49.74C78.4592 49.2067 78.3926 48.7067 78.2592 48.24C78.1392 47.76 77.9392 47.3467 77.6592 47C77.3926 46.64 77.0459 46.36 76.6192 46.16C76.2059 45.96 75.7126 45.86 75.1392 45.86C74.5659 45.86 74.0726 45.96 73.6592 46.16C73.2459 46.36 72.8992 46.64 72.6192 47C72.3526 47.3467 72.1526 47.76 72.0192 48.24C71.8992 48.7067 71.8392 49.2067 71.8392 49.74C71.8392 50.2867 71.8992 50.7933 72.0192 51.26C72.1526 51.7267 72.3526 52.14 72.6192 52.5C72.8992 52.8467 73.2459 53.12 73.6592 53.32C74.0726 53.52 74.5659 53.62 75.1392 53.62ZM82.4338 44.46H86.5138C87.1938 44.46 87.7738 44.5067 88.2538 44.6C88.7471 44.6933 89.1604 44.86 89.4938 45.1C89.7871 45.3 90.0138 45.5667 90.1738 45.9C90.3471 46.2333 90.4338 46.6267 90.4338 47.08C90.4338 48.1333 89.9604 48.8867 89.0138 49.34C89.7338 49.5 90.2538 49.8133 90.5738 50.28C90.8938 50.7467 91.0538 51.28 91.0538 51.88C91.0404 52.44 90.9471 52.9 90.7738 53.26C90.6004 53.6067 90.3538 53.9133 90.0338 54.18C89.7271 54.4333 89.3471 54.6333 88.8938 54.78C88.4404 54.9267 87.9271 55 87.3538 55H82.4338V44.46ZM84.1738 45.96V48.96H85.6338C85.9671 48.96 86.3071 48.9533 86.6538 48.94C87.0004 48.9133 87.3071 48.8533 87.5738 48.76C87.9071 48.6533 88.1871 48.48 88.4138 48.24C88.6404 48 88.7604 47.7133 88.7738 47.38C88.7738 46.9933 88.6871 46.7133 88.5138 46.54C88.3538 46.3533 88.1538 46.22 87.9138 46.14C87.6738 46.0467 87.4138 45.9933 87.1338 45.98C86.8538 45.9667 86.5938 45.96 86.3538 45.96H84.1738ZM84.1738 53.52H86.9538C87.2604 53.52 87.5538 53.5 87.8338 53.46C88.1271 53.42 88.3804 53.3467 88.5938 53.24C88.8071 53.12 88.9804 52.96 89.1138 52.76C89.2471 52.56 89.3204 52.3067 89.3338 52C89.3338 51.6 89.2404 51.2867 89.0538 51.06C88.8671 50.82 88.6138 50.6467 88.2938 50.54C88.0271 50.46 87.7271 50.4133 87.3938 50.4C87.0604 50.3867 86.7138 50.38 86.3538 50.38L84.1738 50.4V53.52ZM94.6913 50.36C94.7313 50.8267 94.8246 51.26 94.9712 51.66C95.1313 52.0467 95.3446 52.3867 95.6113 52.68C95.8779 52.9733 96.2046 53.2067 96.5913 53.38C96.9913 53.54 97.4513 53.62 97.9713 53.62C98.2246 53.62 98.4846 53.6 98.7513 53.56C99.0313 53.5067 99.2913 53.4267 99.5313 53.32C99.7713 53.2 99.9846 53.0467 100.171 52.86C100.358 52.6733 100.498 52.4467 100.591 52.18H102.331C102.211 52.6867 102.005 53.1267 101.711 53.5C101.431 53.8733 101.091 54.18 100.691 54.42C100.305 54.66 99.8713 54.84 99.3913 54.96C98.9113 55.0667 98.4246 55.12 97.9313 55.12C97.0913 55.12 96.3579 54.9867 95.7313 54.72C95.1179 54.4533 94.6046 54.0867 94.1913 53.62C93.7779 53.14 93.4713 52.5733 93.2713 51.92C93.0713 51.2533 92.9713 50.5267 92.9713 49.74C92.9713 48.9533 93.0779 48.2333 93.2913 47.58C93.5179 46.9133 93.8379 46.34 94.2513 45.86C94.6646 45.38 95.1713 45.0067 95.7713 44.74C96.3713 44.4733 97.0846 44.34 97.9112 44.34C98.7513 44.34 99.4779 44.5067 100.091 44.84C100.705 45.1733 101.198 45.6133 101.571 46.16C101.945 46.6933 102.205 47.2733 102.351 47.9C102.511 48.5267 102.578 49.1067 102.551 49.64C102.551 49.76 102.545 49.88 102.531 50C102.531 50.12 102.525 50.24 102.511 50.36H94.6913ZM100.831 48.88C100.805 47.9867 100.525 47.26 99.9913 46.7C99.4579 46.14 98.7446 45.86 97.8513 45.86C97.3579 45.86 96.9246 45.94 96.5513 46.1C96.1779 46.26 95.8646 46.48 95.6113 46.76C95.3579 47.04 95.1579 47.3667 95.0113 47.74C94.8646 48.1 94.7713 48.48 94.7313 48.88H100.831ZM106.536 58.8H104.836V44.46H106.456L106.536 46.08C106.896 45.5067 107.383 45.08 107.996 44.8C108.623 44.5067 109.296 44.3533 110.016 44.34C110.829 44.34 111.516 44.48 112.076 44.76C112.649 45.0267 113.123 45.4067 113.496 45.9C113.883 46.38 114.169 46.9533 114.356 47.62C114.543 48.2733 114.636 48.98 114.636 49.74C114.636 50.5133 114.543 51.2267 114.356 51.88C114.169 52.5333 113.883 53.1 113.496 53.58C113.109 54.06 112.623 54.44 112.036 54.72C111.449 54.9867 110.749 55.12 109.936 55.12C109.136 55.12 108.456 54.9933 107.896 54.74C107.336 54.4867 106.883 54.1533 106.536 53.74V58.8ZM109.796 53.62C110.369 53.62 110.849 53.52 111.236 53.32C111.636 53.1067 111.956 52.8267 112.196 52.48C112.449 52.12 112.629 51.7067 112.736 51.24C112.856 50.7733 112.923 50.2733 112.936 49.74C112.936 49.2067 112.876 48.7067 112.756 48.24C112.649 47.76 112.469 47.3467 112.216 47C111.963 46.6533 111.629 46.38 111.216 46.18C110.816 45.9667 110.329 45.86 109.756 45.86C109.076 45.86 108.489 46.0467 107.996 46.42C107.503 46.78 107.129 47.24 106.876 47.8C106.729 48.1067 106.629 48.4267 106.576 48.76C106.523 49.08 106.496 49.4133 106.496 49.76C106.496 50.16 106.523 50.5333 106.576 50.88C106.629 51.2133 106.729 51.5333 106.876 51.84C107.129 52.3467 107.496 52.7733 107.976 53.12C108.469 53.4533 109.076 53.62 109.796 53.62ZM116.828 44.46H118.528V53.52H122.488V44.46H124.188V53.52H128.188V44.46H129.888V55H116.828V44.46ZM133.89 50.36C133.93 50.8267 134.024 51.26 134.17 51.66C134.33 52.0467 134.544 52.3867 134.81 52.68C135.077 52.9733 135.404 53.2067 135.79 53.38C136.19 53.54 136.65 53.62 137.17 53.62C137.424 53.62 137.684 53.6 137.95 53.56C138.23 53.5067 138.49 53.4267 138.73 53.32C138.97 53.2 139.184 53.0467 139.37 52.86C139.557 52.6733 139.697 52.4467 139.79 52.18H141.53C141.41 52.6867 141.204 53.1267 140.91 53.5C140.63 53.8733 140.29 54.18 139.89 54.42C139.504 54.66 139.07 54.84 138.59 54.96C138.11 55.0667 137.624 55.12 137.13 55.12C136.29 55.12 135.557 54.9867 134.93 54.72C134.317 54.4533 133.804 54.0867 133.39 53.62C132.977 53.14 132.67 52.5733 132.47 51.92C132.27 51.2533 132.17 50.5267 132.17 49.74C132.17 48.9533 132.277 48.2333 132.49 47.58C132.717 46.9133 133.037 46.34 133.45 45.86C133.864 45.38 134.37 45.0067 134.97 44.74C135.57 44.4733 136.284 44.34 137.11 44.34C137.95 44.34 138.677 44.5067 139.29 44.84C139.904 45.1733 140.397 45.6133 140.77 46.16C141.144 46.6933 141.404 47.2733 141.55 47.9C141.71 48.5267 141.777 49.1067 141.75 49.64C141.75 49.76 141.744 49.88 141.73 50C141.73 50.12 141.724 50.24 141.71 50.36H133.89ZM140.03 48.88C140.004 47.9867 139.724 47.26 139.19 46.7C138.657 46.14 137.944 45.86 137.05 45.86C136.557 45.86 136.124 45.94 135.75 46.1C135.377 46.26 135.064 46.48 134.81 46.76C134.557 47.04 134.357 47.3667 134.21 47.74C134.064 48.1 133.97 48.48 133.93 48.88H140.03ZM144.035 55V44.46H145.735V49.08H151.015V44.46H152.715V55H151.015V50.58H145.735V55H144.035ZM159.903 55.12C159.063 55.12 158.336 54.9867 157.723 54.72C157.109 54.4533 156.603 54.08 156.203 53.6C155.803 53.12 155.503 52.5533 155.303 51.9C155.103 51.2467 155.003 50.5333 155.003 49.76C155.003 49.0133 155.109 48.3133 155.323 47.66C155.536 46.9933 155.849 46.42 156.263 45.94C156.676 45.4467 157.196 45.06 157.823 44.78C158.449 44.4867 159.209 44.34 160.103 44.34C160.636 44.34 161.109 44.4 161.523 44.52C161.936 44.6267 162.323 44.8067 162.683 45.06C163.056 45.3 163.376 45.62 163.643 46.02C163.909 46.42 164.103 46.9067 164.223 47.48H162.483C162.283 46.8933 161.963 46.4733 161.523 46.22C161.096 45.9667 160.589 45.8467 160.003 45.86C159.429 45.86 158.923 45.9733 158.483 46.2C158.056 46.4133 157.709 46.7 157.443 47.06C157.189 47.42 157.003 47.84 156.883 48.32C156.763 48.7867 156.702 49.2667 156.702 49.76C156.702 50.28 156.763 50.7733 156.883 51.24C157.016 51.7067 157.209 52.12 157.463 52.48C157.729 52.8267 158.069 53.1067 158.483 53.32C158.896 53.52 159.389 53.62 159.963 53.62C160.243 53.62 160.516 53.5933 160.783 53.54C161.063 53.4867 161.316 53.4 161.543 53.28C161.783 53.1467 161.989 52.9733 162.163 52.76C162.336 52.5467 162.463 52.2867 162.543 51.98H164.303C164.196 52.5267 164.003 53 163.723 53.4C163.456 53.7867 163.123 54.1133 162.723 54.38C162.323 54.6333 161.883 54.82 161.403 54.94C160.923 55.06 160.423 55.12 159.903 55.12ZM174.237 44.46V45.96H170.617V55H168.917V45.96H165.297V44.46H174.237ZM175.754 44.46H179.834C180.514 44.46 181.094 44.5067 181.574 44.6C182.067 44.6933 182.481 44.86 182.814 45.1C183.107 45.3 183.334 45.5667 183.494 45.9C183.667 46.2333 183.754 46.6267 183.754 47.08C183.754 48.1333 183.281 48.8867 182.334 49.34C183.054 49.5 183.574 49.8133 183.894 50.28C184.214 50.7467 184.374 51.28 184.374 51.88C184.361 52.44 184.267 52.9 184.094 53.26C183.921 53.6067 183.674 53.9133 183.354 54.18C183.047 54.4333 182.667 54.6333 182.214 54.78C181.761 54.9267 181.247 55 180.674 55H175.754V44.46ZM177.494 45.96V48.96H178.954C179.287 48.96 179.627 48.9533 179.974 48.94C180.321 48.9133 180.627 48.8533 180.894 48.76C181.227 48.6533 181.507 48.48 181.734 48.24C181.961 48 182.081 47.7133 182.094 47.38C182.094 46.9933 182.007 46.7133 181.834 46.54C181.674 46.3533 181.474 46.22 181.234 46.14C180.994 46.0467 180.734 45.9933 180.454 45.98C180.174 45.9667 179.914 45.96 179.674 45.96H177.494ZM177.494 53.52H180.274C180.581 53.52 180.874 53.5 181.154 53.46C181.447 53.42 181.701 53.3467 181.914 53.24C182.127 53.12 182.301 52.96 182.434 52.76C182.567 52.56 182.641 52.3067 182.654 52C182.654 51.6 182.561 51.2867 182.374 51.06C182.187 50.82 181.934 50.6467 181.614 50.54C181.347 50.46 181.047 50.4133 180.714 50.4C180.381 50.3867 180.034 50.38 179.674 50.38L177.494 50.4V53.52ZM194.272 44.46H196.192L193.212 52.76C193.052 53.1867 192.878 53.6733 192.692 54.22C192.518 54.7533 192.318 55.2867 192.092 55.82C191.878 56.3667 191.632 56.88 191.352 57.36C191.085 57.84 190.785 58.2267 190.452 58.52C189.958 58.96 189.485 59.2333 189.032 59.34C188.578 59.46 188.065 59.52 187.492 59.52H187.132V57.9C187.612 57.9 188.018 57.8467 188.352 57.74C188.685 57.6467 188.972 57.4933 189.212 57.28C189.465 57.0667 189.678 56.8 189.852 56.48C190.038 56.16 190.225 55.78 190.412 55.34L185.692 44.46H187.692L191.352 53.34L194.272 44.46ZM202.546 41.76C203.106 41.76 203.552 41.6533 203.886 41.44C204.232 41.2267 204.406 40.8533 204.406 40.32H205.966C205.939 41.28 205.619 41.98 205.006 42.42C204.406 42.86 203.579 43.08 202.526 43.08C201.472 43.08 200.646 42.86 200.046 42.42C199.459 41.98 199.152 41.28 199.126 40.32H200.686C200.699 40.8533 200.872 41.2267 201.206 41.44C201.539 41.6533 201.986 41.76 202.546 41.76ZM199.426 55H197.766V44.46H199.466V52.54C199.559 52.3533 199.686 52.1533 199.846 51.94C200.006 51.7133 200.132 51.54 200.226 51.42L205.326 44.46H207.006V55H205.306V46.92C205.199 47.12 205.079 47.3133 204.946 47.5C204.826 47.6733 204.712 47.8267 204.606 47.96L199.426 55ZM217.46 44.46V45.96H213.84V55H212.14V45.96H208.52V44.46H217.46ZM220.297 50.36C220.337 50.8267 220.43 51.26 220.577 51.66C220.737 52.0467 220.95 52.3867 221.217 52.68C221.483 52.9733 221.81 53.2067 222.197 53.38C222.597 53.54 223.057 53.62 223.577 53.62C223.83 53.62 224.09 53.6 224.357 53.56C224.637 53.5067 224.897 53.4267 225.137 53.32C225.377 53.2 225.59 53.0467 225.777 52.86C225.963 52.6733 226.103 52.4467 226.197 52.18H227.937C227.817 52.6867 227.61 53.1267 227.317 53.5C227.037 53.8733 226.697 54.18 226.297 54.42C225.91 54.66 225.477 54.84 224.997 54.96C224.517 55.0667 224.03 55.12 223.537 55.12C222.697 55.12 221.963 54.9867 221.337 54.72C220.723 54.4533 220.21 54.0867 219.797 53.62C219.383 53.14 219.077 52.5733 218.877 51.92C218.677 51.2533 218.577 50.5267 218.577 49.74C218.577 48.9533 218.683 48.2333 218.897 47.58C219.123 46.9133 219.443 46.34 219.857 45.86C220.27 45.38 220.777 45.0067 221.377 44.74C221.977 44.4733 222.69 44.34 223.517 44.34C224.357 44.34 225.083 44.5067 225.697 44.84C226.31 45.1733 226.803 45.6133 227.177 46.16C227.55 46.6933 227.81 47.2733 227.957 47.9C228.117 48.5267 228.183 49.1067 228.157 49.64C228.157 49.76 228.15 49.88 228.137 50C228.137 50.12 228.13 50.24 228.117 50.36H220.297ZM226.437 48.88C226.41 47.9867 226.13 47.26 225.597 46.7C225.063 46.14 224.35 45.86 223.457 45.86C222.963 45.86 222.53 45.94 222.157 46.1C221.783 46.26 221.47 46.48 221.217 46.76C220.963 47.04 220.763 47.3667 220.617 47.74C220.47 48.1 220.377 48.48 220.337 48.88H226.437ZM235.832 55V44.46H237.532V49.08H242.812V44.46H244.512V55H242.812V50.58H237.532V55H235.832ZM254.139 53.66C253.913 53.9667 253.653 54.2133 253.359 54.4C253.066 54.5867 252.759 54.7333 252.439 54.84C252.133 54.9467 251.819 55.02 251.499 55.06C251.193 55.1 250.886 55.12 250.579 55.12C250.086 55.12 249.619 55.06 249.179 54.94C248.739 54.82 248.339 54.6267 247.979 54.36C247.633 54.0933 247.353 53.76 247.139 53.36C246.939 52.96 246.839 52.5067 246.839 52C246.839 51.4 246.946 50.9 247.159 50.5C247.386 50.0867 247.686 49.7533 248.059 49.5C248.433 49.2467 248.859 49.0733 249.339 48.98C249.833 48.8733 250.353 48.82 250.899 48.82H253.999C253.999 47.9267 253.806 47.22 253.419 46.7C253.033 46.1667 252.379 45.8867 251.459 45.86C250.899 45.86 250.406 45.9533 249.979 46.14C249.553 46.3267 249.259 46.6333 249.099 47.06H247.279C247.373 46.58 247.559 46.1733 247.839 45.84C248.119 45.4933 248.453 45.2133 248.839 45C249.226 44.7733 249.646 44.6067 250.099 44.5C250.553 44.3933 251.006 44.34 251.459 44.34C252.246 44.34 252.906 44.4733 253.439 44.74C253.986 44.9933 254.426 45.3333 254.759 45.76C255.093 46.1733 255.326 46.68 255.459 47.28C255.593 47.88 255.659 48.5533 255.659 49.3V55H254.239L254.139 53.66ZM252.139 50.24C251.819 50.24 251.446 50.2467 251.019 50.26C250.606 50.26 250.206 50.3 249.819 50.38C249.433 50.46 249.119 50.6267 248.879 50.88C248.653 51.1333 248.539 51.4667 248.539 51.88C248.539 52.1867 248.599 52.4467 248.719 52.66C248.839 52.8733 248.999 53.0533 249.199 53.2C249.413 53.3467 249.653 53.4533 249.919 53.52C250.186 53.5867 250.459 53.62 250.739 53.62C251.739 53.62 252.526 53.38 253.099 52.9C253.686 52.4067 253.986 51.6933 253.999 50.76V50.24H252.139ZM258.293 44.46H262.373C263.053 44.46 263.633 44.5067 264.113 44.6C264.606 44.6933 265.02 44.86 265.353 45.1C265.646 45.3 265.873 45.5667 266.033 45.9C266.206 46.2333 266.293 46.6267 266.293 47.08C266.293 48.1333 265.82 48.8867 264.873 49.34C265.593 49.5 266.113 49.8133 266.433 50.28C266.753 50.7467 266.913 51.28 266.913 51.88C266.9 52.44 266.806 52.9 266.633 53.26C266.46 53.6067 266.213 53.9133 265.893 54.18C265.586 54.4333 265.206 54.6333 264.753 54.78C264.3 54.9267 263.786 55 263.213 55H258.293V44.46ZM260.033 45.96V48.96H261.493C261.826 48.96 262.166 48.9533 262.513 48.94C262.86 48.9133 263.166 48.8533 263.433 48.76C263.766 48.6533 264.046 48.48 264.273 48.24C264.5 48 264.62 47.7133 264.633 47.38C264.633 46.9933 264.546 46.7133 264.373 46.54C264.213 46.3533 264.013 46.22 263.773 46.14C263.533 46.0467 263.273 45.9933 262.993 45.98C262.713 45.9667 262.453 45.96 262.213 45.96H260.033ZM260.033 53.52H262.813C263.12 53.52 263.413 53.5 263.693 53.46C263.986 53.42 264.24 53.3467 264.453 53.24C264.666 53.12 264.84 52.96 264.973 52.76C265.106 52.56 265.18 52.3067 265.193 52C265.193 51.6 265.1 51.2867 264.913 51.06C264.726 50.82 264.473 50.6467 264.153 50.54C263.886 50.46 263.586 50.4133 263.253 50.4C262.92 50.3867 262.573 50.38 262.213 50.38L260.033 50.4V53.52ZM269.231 44.46H270.971V48.48H272.871C273.471 48.48 274.017 48.5267 274.511 48.62C275.017 48.7 275.464 48.8733 275.851 49.14C276.211 49.4067 276.484 49.7467 276.671 50.16C276.871 50.56 276.971 51.06 276.971 51.66C276.944 52.26 276.831 52.76 276.631 53.16C276.444 53.5467 276.197 53.8733 275.891 54.14C275.517 54.4467 275.064 54.6667 274.531 54.8C273.997 54.9333 273.451 55 272.891 55H269.231V44.46ZM278.431 55V44.46H280.131V55H278.431ZM271.531 53.52C272.037 53.52 272.544 53.5133 273.051 53.5C273.571 53.4733 274.017 53.3667 274.391 53.18C274.644 53.0733 274.844 52.8933 274.991 52.64C275.151 52.3733 275.237 52.0667 275.251 51.72C275.251 51.3067 275.164 50.98 274.991 50.74C274.831 50.5 274.617 50.3267 274.351 50.22C274.097 50.1 273.811 50.0267 273.491 50C273.171 49.9733 272.857 49.96 272.551 49.96H270.971V53.52H271.531ZM282.805 55V44.46H284.505V49H286.345L289.465 44.46H291.405L287.885 49.48L291.705 55H289.705L286.545 50.48H284.505V55H282.805ZM294.836 55H293.176V44.46H294.876V52.54C294.969 52.3533 295.096 52.1533 295.256 51.94C295.416 51.7133 295.543 51.54 295.636 51.42L300.736 44.46H302.416V55H300.716V46.92C300.609 47.12 300.489 47.3133 300.356 47.5C300.236 47.6733 300.123 47.8267 300.016 47.96L294.836 55ZM310.481 55V44.46H319.221V55H317.521V45.96H312.181V55H310.481ZM329.486 44.46H331.406L328.426 52.76C328.266 53.1867 328.093 53.6733 327.906 54.22C327.733 54.7533 327.533 55.2867 327.306 55.82C327.093 56.3667 326.846 56.88 326.566 57.36C326.3 57.84 326 58.2267 325.666 58.52C325.173 58.96 324.7 59.2333 324.246 59.34C323.793 59.46 323.28 59.52 322.706 59.52H322.346V57.9C322.826 57.9 323.233 57.8467 323.566 57.74C323.9 57.6467 324.186 57.4933 324.426 57.28C324.68 57.0667 324.893 56.8 325.066 56.48C325.253 56.16 325.44 55.78 325.626 55.34L320.906 44.46H322.906L326.566 53.34L329.486 44.46ZM334.261 46.84C334.461 46.56 334.694 46.3267 334.961 46.14C335.227 45.94 335.514 45.7733 335.821 45.64C336.141 45.5067 336.461 45.4133 336.781 45.36C337.114 45.2933 337.434 45.26 337.741 45.26C338.461 45.26 339.094 45.3733 339.641 45.6C340.201 45.8267 340.667 46.1533 341.041 46.58C341.427 46.9933 341.721 47.4933 341.921 48.08C342.121 48.6667 342.221 49.32 342.221 50.04C342.221 50.76 342.114 51.4333 341.901 52.06C341.687 52.6733 341.374 53.2067 340.961 53.66C340.561 54.1133 340.061 54.4733 339.461 54.74C338.874 54.9933 338.194 55.12 337.421 55.12C336.541 55.12 335.801 54.9667 335.201 54.66C334.601 54.34 334.114 53.92 333.741 53.4C333.381 52.8667 333.114 52.2333 332.941 51.5C332.767 50.7667 332.674 50.0467 332.661 49.34C332.634 49.1267 332.621 48.7 332.621 48.06C332.634 47.4067 332.667 46.82 332.721 46.3C332.774 45.7667 332.861 45.2533 332.981 44.76C333.114 44.2533 333.294 43.8067 333.521 43.42C333.881 42.78 334.334 42.3067 334.881 42C335.441 41.6933 336.081 41.48 336.801 41.36C337.027 41.32 337.534 41.2467 338.321 41.14C339.121 41.02 339.667 40.94 339.961 40.9C340.214 40.8733 340.487 40.84 340.781 40.8C341.087 40.7467 341.387 40.6933 341.681 40.64V42.2C341.481 42.2667 341.234 42.3267 340.941 42.38C340.647 42.42 340.314 42.46 339.941 42.5C339.674 42.54 339.394 42.58 339.101 42.62C338.821 42.6467 338.527 42.68 338.221 42.72C337.927 42.7467 337.474 42.8067 336.861 42.9C336.407 42.9667 336.034 43.0933 335.741 43.28C335.461 43.4667 335.214 43.7133 335.001 44.02C334.747 44.3933 334.561 44.8467 334.441 45.38C334.334 45.9 334.274 46.3867 334.261 46.84ZM337.461 53.62C337.954 53.62 338.387 53.5267 338.761 53.34C339.147 53.1533 339.467 52.9 339.721 52.58C339.987 52.26 340.187 51.8867 340.321 51.46C340.454 51.0333 340.521 50.58 340.521 50.1C340.521 49.6333 340.447 49.2 340.301 48.8C340.167 48.3867 339.974 48.0333 339.721 47.74C339.467 47.4333 339.161 47.2 338.801 47.04C338.441 46.8667 338.001 46.78 337.481 46.78C337.001 46.7933 336.574 46.8867 336.201 47.06C335.827 47.2333 335.507 47.48 335.241 47.8C334.974 48.1067 334.774 48.4667 334.641 48.88C334.507 49.28 334.434 49.7 334.421 50.14C334.421 50.6067 334.481 51.0533 334.601 51.48C334.734 51.8933 334.927 52.26 335.181 52.58C335.434 52.9 335.747 53.1533 336.121 53.34C336.507 53.5267 336.954 53.62 337.461 53.62ZM345.386 50.06C345.453 49.1 345.5 48.1667 345.526 47.26C345.566 46.3533 345.593 45.42 345.606 44.46H352.926V55H351.226V45.96H347.266L347.086 50.1C347.06 50.6333 347 51.2333 346.906 51.9C346.813 52.5667 346.62 53.1733 346.326 53.72C346.1 54.1067 345.793 54.42 345.406 54.66C345.02 54.9 344.573 55.02 344.066 55.02H343.446V53.52C343.98 53.52 344.406 53.2933 344.726 52.84C344.913 52.5733 345.06 52.1867 345.166 51.68C345.273 51.1733 345.346 50.6333 345.386 50.06ZM357.258 55H355.598V44.46H357.298V52.54C357.391 52.3533 357.518 52.1533 357.678 51.94C357.838 51.7133 357.964 51.54 358.058 51.42L363.158 44.46H364.838V55H363.138V46.92C363.031 47.12 362.911 47.3133 362.778 47.5C362.658 47.6733 362.544 47.8267 362.438 47.96L357.258 55ZM367.052 44.46H368.752V46.82C368.752 47.2867 368.779 47.7 368.832 48.06C368.899 48.4067 369.019 48.7 369.192 48.94C369.365 49.18 369.612 49.3667 369.932 49.5C370.252 49.62 370.672 49.68 371.192 49.68C371.592 49.68 372.012 49.66 372.452 49.62C372.905 49.58 373.325 49.52 373.712 49.44V44.46H375.412V55H373.712V50.94C373.205 51.0333 372.712 51.1 372.232 51.14C371.765 51.1667 371.345 51.18 370.972 51.18C370.225 51.18 369.599 51.0933 369.092 50.92C368.599 50.7467 368.199 50.4867 367.892 50.14C367.585 49.78 367.365 49.34 367.232 48.82C367.112 48.2867 367.052 47.66 367.052 46.94V44.46ZM378.098 55V44.46H379.798V49.08H385.078V44.46H386.778V55H385.078V50.58H379.798V55H378.098ZM389.465 44.46H391.205V48.48H393.105C393.705 48.48 394.252 48.5267 394.745 48.62C395.252 48.7 395.698 48.8733 396.085 49.14C396.445 49.4067 396.718 49.7467 396.905 50.16C397.105 50.56 397.205 51.06 397.205 51.66C397.178 52.26 397.065 52.76 396.865 53.16C396.678 53.5467 396.432 53.8733 396.125 54.14C395.752 54.4467 395.298 54.6667 394.765 54.8C394.232 54.9333 393.685 55 393.125 55H389.465V44.46ZM398.665 55V44.46H400.365V55H398.665ZM391.765 53.52C392.272 53.52 392.778 53.5133 393.285 53.5C393.805 53.4733 394.252 53.3667 394.625 53.18C394.878 53.0733 395.078 52.8933 395.225 52.64C395.385 52.3733 395.472 52.0667 395.485 51.72C395.485 51.3067 395.398 50.98 395.225 50.74C395.065 50.5 394.852 50.3267 394.585 50.22C394.332 50.1 394.045 50.0267 393.725 50C393.405 49.9733 393.092 49.96 392.785 49.96H391.205V53.52H391.765ZM406.779 50.98L403.899 55H401.979L405.739 49.62L402.159 44.46H404.199L406.879 48.46L409.479 44.46H411.459L407.899 49.68L411.719 55H409.699L406.779 50.98ZM418.723 44.46H422.803C423.483 44.46 424.063 44.5067 424.543 44.6C425.036 44.6933 425.449 44.86 425.783 45.1C426.076 45.3 426.303 45.5667 426.463 45.9C426.636 46.2333 426.723 46.6267 426.723 47.08C426.723 48.1333 426.249 48.8867 425.303 49.34C426.023 49.5 426.543 49.8133 426.863 50.28C427.183 50.7467 427.343 51.28 427.343 51.88C427.329 52.44 427.236 52.9 427.063 53.26C426.889 53.6067 426.643 53.9133 426.323 54.18C426.016 54.4333 425.636 54.6333 425.183 54.78C424.729 54.9267 424.216 55 423.643 55H418.723V44.46ZM420.463 45.96V48.96H421.923C422.256 48.96 422.596 48.9533 422.943 48.94C423.289 48.9133 423.596 48.8533 423.863 48.76C424.196 48.6533 424.476 48.48 424.703 48.24C424.929 48 425.049 47.7133 425.063 47.38C425.063 46.9933 424.976 46.7133 424.803 46.54C424.643 46.3533 424.443 46.22 424.203 46.14C423.963 46.0467 423.703 45.9933 423.423 45.98C423.143 45.9667 422.883 45.96 422.643 45.96H420.463ZM420.463 53.52H423.243C423.549 53.52 423.843 53.5 424.123 53.46C424.416 53.42 424.669 53.3467 424.883 53.24C425.096 53.12 425.269 52.96 425.403 52.76C425.536 52.56 425.609 52.3067 425.623 52C425.623 51.6 425.529 51.2867 425.343 51.06C425.156 50.82 424.903 50.6467 424.583 50.54C424.316 50.46 424.016 50.4133 423.683 50.4C423.349 50.3867 423.003 50.38 422.643 50.38L420.463 50.4V53.52ZM429.66 44.46H431.4V48.48H433.3C433.9 48.48 434.447 48.5267 434.94 48.62C435.447 48.7 435.894 48.8733 436.28 49.14C436.64 49.4067 436.914 49.7467 437.1 50.16C437.3 50.56 437.4 51.06 437.4 51.66C437.374 52.26 437.26 52.76 437.06 53.16C436.874 53.5467 436.627 53.8733 436.32 54.14C435.947 54.4467 435.494 54.6667 434.96 54.8C434.427 54.9333 433.88 55 433.32 55H429.66V44.46ZM438.86 55V44.46H440.56V55H438.86ZM431.96 53.52C432.467 53.52 432.974 53.5133 433.48 53.5C434 53.4733 434.447 53.3667 434.82 53.18C435.074 53.0733 435.274 52.8933 435.42 52.64C435.58 52.3733 435.667 52.0667 435.68 51.72C435.68 51.3067 435.594 50.98 435.42 50.74C435.26 50.5 435.047 50.3267 434.78 50.22C434.527 50.1 434.24 50.0267 433.92 50C433.6 49.9733 433.287 49.96 432.98 49.96H431.4V53.52H431.96ZM447.735 55.12C446.895 55.12 446.168 54.9867 445.555 54.72C444.941 54.4533 444.435 54.08 444.035 53.6C443.635 53.12 443.335 52.5533 443.135 51.9C442.935 51.2467 442.835 50.5333 442.835 49.76C442.835 49.0133 442.941 48.3133 443.155 47.66C443.368 46.9933 443.681 46.42 444.095 45.94C444.508 45.4467 445.028 45.06 445.655 44.78C446.281 44.4867 447.041 44.34 447.935 44.34C448.468 44.34 448.941 44.4 449.355 44.52C449.768 44.6267 450.155 44.8067 450.515 45.06C450.888 45.3 451.208 45.62 451.475 46.02C451.741 46.42 451.935 46.9067 452.055 47.48H450.315C450.115 46.8933 449.795 46.4733 449.355 46.22C448.928 45.9667 448.421 45.8467 447.835 45.86C447.261 45.86 446.755 45.9733 446.315 46.2C445.888 46.4133 445.541 46.7 445.275 47.06C445.021 47.42 444.835 47.84 444.715 48.32C444.595 48.7867 444.535 49.2667 444.535 49.76C444.535 50.28 444.595 50.7733 444.715 51.24C444.848 51.7067 445.041 52.12 445.295 52.48C445.561 52.8267 445.901 53.1067 446.315 53.32C446.728 53.52 447.221 53.62 447.795 53.62C448.075 53.62 448.348 53.5933 448.615 53.54C448.895 53.4867 449.148 53.4 449.375 53.28C449.615 53.1467 449.821 52.9733 449.995 52.76C450.168 52.5467 450.295 52.2867 450.375 51.98H452.135C452.028 52.5267 451.835 53 451.555 53.4C451.288 53.7867 450.955 54.1133 450.555 54.38C450.155 54.6333 449.715 54.82 449.235 54.94C448.755 55.06 448.255 55.12 447.735 55.12ZM462.069 44.46V45.96H458.449V55H456.749V45.96H453.129V44.46H462.069ZM471.557 44.46H473.477L470.497 52.76C470.337 53.1867 470.163 53.6733 469.977 54.22C469.803 54.7533 469.603 55.2867 469.377 55.82C469.163 56.3667 468.917 56.88 468.637 57.36C468.37 57.84 468.07 58.2267 467.737 58.52C467.243 58.96 466.77 59.2333 466.317 59.34C465.863 59.46 465.35 59.52 464.777 59.52H464.417V57.9C464.897 57.9 465.303 57.8467 465.637 57.74C465.97 57.6467 466.257 57.4933 466.497 57.28C466.75 57.0667 466.963 56.8 467.137 56.48C467.323 56.16 467.51 55.78 467.697 55.34L462.977 44.46H464.977L468.637 53.34L471.557 44.46ZM475.051 55V44.46H483.791V55H482.091V45.96H476.751V55H475.051ZM487.457 50.06C487.523 49.1 487.57 48.1667 487.597 47.26C487.637 46.3533 487.663 45.42 487.677 44.46H494.997V55H493.297V45.96H489.337L489.157 50.1C489.13 50.6333 489.07 51.2333 488.977 51.9C488.883 52.5667 488.69 53.1733 488.397 53.72C488.17 54.1067 487.863 54.42 487.477 54.66C487.09 54.9 486.643 55.02 486.137 55.02H485.517V53.52C486.05 53.52 486.477 53.2933 486.797 52.84C486.983 52.5733 487.13 52.1867 487.237 51.68C487.343 51.1733 487.417 50.6333 487.457 50.06ZM498.988 50.36C499.028 50.8267 499.121 51.26 499.268 51.66C499.428 52.0467 499.641 52.3867 499.908 52.68C500.175 52.9733 500.501 53.2067 500.888 53.38C501.288 53.54 501.748 53.62 502.268 53.62C502.521 53.62 502.781 53.6 503.048 53.56C503.328 53.5067 503.588 53.4267 503.828 53.32C504.068 53.2 504.281 53.0467 504.468 52.86C504.655 52.6733 504.795 52.4467 504.888 52.18H506.628C506.508 52.6867 506.301 53.1267 506.008 53.5C505.728 53.8733 505.388 54.18 504.988 54.42C504.601 54.66 504.168 54.84 503.688 54.96C503.208 55.0667 502.721 55.12 502.228 55.12C501.388 55.12 500.655 54.9867 500.028 54.72C499.415 54.4533 498.901 54.0867 498.488 53.62C498.075 53.14 497.768 52.5733 497.568 51.92C497.368 51.2533 497.268 50.5267 497.268 49.74C497.268 48.9533 497.375 48.2333 497.588 47.58C497.815 46.9133 498.135 46.34 498.548 45.86C498.961 45.38 499.468 45.0067 500.068 44.74C500.668 44.4733 501.381 44.34 502.208 44.34C503.048 44.34 503.775 44.5067 504.388 44.84C505.001 45.1733 505.495 45.6133 505.868 46.16C506.241 46.6933 506.501 47.2733 506.648 47.9C506.808 48.5267 506.875 49.1067 506.848 49.64C506.848 49.76 506.841 49.88 506.828 50C506.828 50.12 506.821 50.24 506.808 50.36H498.988ZM505.128 48.88C505.101 47.9867 504.821 47.26 504.288 46.7C503.755 46.14 503.041 45.86 502.148 45.86C501.655 45.86 501.221 45.94 500.848 46.1C500.475 46.26 500.161 46.48 499.908 46.76C499.655 47.04 499.455 47.3667 499.308 47.74C499.161 48.1 499.068 48.48 499.028 48.88H505.128ZM509.133 55V44.46H510.833V49.08H516.113V44.46H517.813V55H516.113V50.58H510.833V55H509.133ZM522.16 55H520.5V44.46H522.2V52.54C522.293 52.3533 522.42 52.1533 522.58 51.94C522.74 51.7133 522.867 51.54 522.96 51.42L528.06 44.46H529.74V55H528.04V46.92C527.933 47.12 527.813 47.3133 527.68 47.5C527.56 47.6733 527.447 47.8267 527.34 47.96L522.16 55ZM537.194 41.76C537.754 41.76 538.201 41.6533 538.534 41.44C538.881 41.2267 539.054 40.8533 539.054 40.32H540.614C540.588 41.28 540.268 41.98 539.654 42.42C539.054 42.86 538.228 43.08 537.174 43.08C536.121 43.08 535.294 42.86 534.694 42.42C534.108 41.98 533.801 41.28 533.774 40.32H535.334C535.348 40.8533 535.521 41.2267 535.854 41.44C536.188 41.6533 536.634 41.76 537.194 41.76ZM534.074 55H532.414V44.46H534.114V52.54C534.208 52.3533 534.334 52.1533 534.494 51.94C534.654 51.7133 534.781 51.54 534.874 51.42L539.974 44.46H541.654V55H539.954V46.92C539.848 47.12 539.728 47.3133 539.594 47.5C539.474 47.6733 539.361 47.8267 539.254 47.96L534.074 55ZM545.548 55.04C545.202 55.0133 544.922 54.9 544.708 54.7C544.495 54.5 544.388 54.2333 544.388 53.9C544.402 53.5533 544.522 53.28 544.748 53.08C544.988 52.8667 545.262 52.76 545.568 52.76C545.955 52.76 546.262 52.9 546.488 53.18C546.728 53.46 546.848 53.8533 546.848 54.36C546.848 54.64 546.788 54.9467 546.668 55.28C546.562 55.6267 546.415 55.94 546.228 56.22C546.042 56.5 545.822 56.7467 545.568 56.96C545.328 57.1733 545.075 57.3267 544.808 57.42L544.328 56.76C544.595 56.5733 544.842 56.32 545.068 56C545.308 55.68 545.468 55.36 545.548 55.04ZM58.04 84.8H56.34V70.46H57.96L58.04 72.08C58.4 71.5067 58.8867 71.08 59.5 70.8C60.1267 70.5067 60.8 70.3533 61.52 70.34C62.3333 70.34 63.02 70.48 63.58 70.76C64.1533 71.0267 64.6267 71.4067 65 71.9C65.3867 72.38 65.6733 72.9533 65.86 73.62C66.0467 74.2733 66.14 74.98 66.14 75.74C66.14 76.5133 66.0467 77.2267 65.86 77.88C65.6733 78.5333 65.3867 79.1 65 79.58C64.6133 80.06 64.1267 80.44 63.54 80.72C62.9533 80.9867 62.2533 81.12 61.44 81.12C60.64 81.12 59.96 80.9933 59.4 80.74C58.84 80.4867 58.3867 80.1533 58.04 79.74V84.8ZM61.3 79.62C61.8733 79.62 62.3533 79.52 62.74 79.32C63.14 79.1067 63.46 78.8267 63.7 78.48C63.9533 78.12 64.1333 77.7067 64.24 77.24C64.36 76.7733 64.4267 76.2733 64.44 75.74C64.44 75.2067 64.38 74.7067 64.26 74.24C64.1533 73.76 63.9733 73.3467 63.72 73C63.4667 72.6533 63.1333 72.38 62.72 72.18C62.32 71.9667 61.8333 71.86 61.26 71.86C60.58 71.86 59.9933 72.0467 59.5 72.42C59.0067 72.78 58.6333 73.24 58.38 73.8C58.2333 74.1067 58.1333 74.4267 58.08 74.76C58.0267 75.08 58 75.4133 58 75.76C58 76.16 58.0267 76.5333 58.08 76.88C58.1333 77.2133 58.2333 77.5333 58.38 77.84C58.6333 78.3467 59 78.7733 59.48 79.12C59.9733 79.4533 60.58 79.62 61.3 79.62ZM69.6522 76.36C69.6922 76.8267 69.7855 77.26 69.9322 77.66C70.0922 78.0467 70.3055 78.3867 70.5722 78.68C70.8389 78.9733 71.1655 79.2067 71.5522 79.38C71.9522 79.54 72.4122 79.62 72.9322 79.62C73.1855 79.62 73.4455 79.6 73.7122 79.56C73.9922 79.5067 74.2522 79.4267 74.4922 79.32C74.7322 79.2 74.9455 79.0467 75.1322 78.86C75.3189 78.6733 75.4589 78.4467 75.5522 78.18H77.2922C77.1722 78.6867 76.9655 79.1267 76.6722 79.5C76.3922 79.8733 76.0522 80.18 75.6522 80.42C75.2655 80.66 74.8322 80.84 74.3522 80.96C73.8722 81.0667 73.3855 81.12 72.8922 81.12C72.0522 81.12 71.3189 80.9867 70.6922 80.72C70.0789 80.4533 69.5655 80.0867 69.1522 79.62C68.7389 79.14 68.4322 78.5733 68.2322 77.92C68.0322 77.2533 67.9322 76.5267 67.9322 75.74C67.9322 74.9533 68.0389 74.2333 68.2522 73.58C68.4789 72.9133 68.7989 72.34 69.2122 71.86C69.6255 71.38 70.1322 71.0067 70.7322 70.74C71.3322 70.4733 72.0455 70.34 72.8722 70.34C73.7122 70.34 74.4389 70.5067 75.0522 70.84C75.6655 71.1733 76.1589 71.6133 76.5322 72.16C76.9055 72.6933 77.1655 73.2733 77.3122 73.9C77.4722 74.5267 77.5389 75.1067 77.5122 75.64C77.5122 75.76 77.5055 75.88 77.4922 76C77.4922 76.12 77.4855 76.24 77.4722 76.36H69.6522ZM75.7922 74.88C75.7655 73.9867 75.4855 73.26 74.9522 72.7C74.4189 72.14 73.7055 71.86 72.8122 71.86C72.3189 71.86 71.8855 71.94 71.5122 72.1C71.1389 72.26 70.8255 72.48 70.5722 72.76C70.3189 73.04 70.1189 73.3667 69.9722 73.74C69.8255 74.1 69.7322 74.48 69.6922 74.88H75.7922ZM79.797 81V70.46H88.537V81H86.837V71.96H81.497V81H79.797ZM92.5428 76.36C92.5828 76.8267 92.6761 77.26 92.8228 77.66C92.9828 78.0467 93.1961 78.3867 93.4628 78.68C93.7295 78.9733 94.0561 79.2067 94.4428 79.38C94.8428 79.54 95.3028 79.62 95.8228 79.62C96.0761 79.62 96.3361 79.6 96.6028 79.56C96.8828 79.5067 97.1428 79.4267 97.3828 79.32C97.6228 79.2 97.8361 79.0467 98.0228 78.86C98.2095 78.6733 98.3495 78.4467 98.4428 78.18H100.183C100.063 78.6867 99.8561 79.1267 99.5628 79.5C99.2828 79.8733 98.9428 80.18 98.5428 80.42C98.1561 80.66 97.7228 80.84 97.2428 80.96C96.7628 81.0667 96.2761 81.12 95.7828 81.12C94.9428 81.12 94.2095 80.9867 93.5828 80.72C92.9695 80.4533 92.4561 80.0867 92.0428 79.62C91.6295 79.14 91.3228 78.5733 91.1228 77.92C90.9228 77.2533 90.8228 76.5267 90.8228 75.74C90.8228 74.9533 90.9295 74.2333 91.1428 73.58C91.3695 72.9133 91.6895 72.34 92.1028 71.86C92.5161 71.38 93.0228 71.0067 93.6228 70.74C94.2228 70.4733 94.9361 70.34 95.7628 70.34C96.6028 70.34 97.3295 70.5067 97.9428 70.84C98.5561 71.1733 99.0495 71.6133 99.4228 72.16C99.7961 72.6933 100.056 73.2733 100.203 73.9C100.363 74.5267 100.429 75.1067 100.403 75.64C100.403 75.76 100.396 75.88 100.383 76C100.383 76.12 100.376 76.24 100.363 76.36H92.5428ZM98.6828 74.88C98.6561 73.9867 98.3761 73.26 97.8428 72.7C97.3095 72.14 96.5961 71.86 95.7028 71.86C95.2095 71.86 94.7761 71.94 94.4028 72.1C94.0295 72.26 93.7161 72.48 93.4628 72.76C93.2095 73.04 93.0095 73.3667 92.8628 73.74C92.7161 74.1 92.6228 74.48 92.5828 74.88H98.6828ZM110.468 70.46V71.96H106.848V81H105.148V71.96H101.528V70.46H110.468ZM113.645 81H111.985V70.46H113.685V78.54C113.778 78.3533 113.905 78.1533 114.065 77.94C114.225 77.7133 114.351 77.54 114.445 77.42L119.545 70.46H121.225V81H119.525V72.92C119.418 73.12 119.298 73.3133 119.165 73.5C119.045 73.6733 118.931 73.8267 118.825 73.96L113.645 81ZM125.599 84.8H123.899V70.46H125.519L125.599 72.08C125.959 71.5067 126.445 71.08 127.059 70.8C127.685 70.5067 128.359 70.3533 129.079 70.34C129.892 70.34 130.579 70.48 131.139 70.76C131.712 71.0267 132.185 71.4067 132.559 71.9C132.945 72.38 133.232 72.9533 133.419 73.62C133.605 74.2733 133.699 74.98 133.699 75.74C133.699 76.5133 133.605 77.2267 133.419 77.88C133.232 78.5333 132.945 79.1 132.559 79.58C132.172 80.06 131.685 80.44 131.099 80.72C130.512 80.9867 129.812 81.12 128.999 81.12C128.199 81.12 127.519 80.9933 126.959 80.74C126.399 80.4867 125.945 80.1533 125.599 79.74V84.8ZM128.859 79.62C129.432 79.62 129.912 79.52 130.299 79.32C130.699 79.1067 131.019 78.8267 131.259 78.48C131.512 78.12 131.692 77.7067 131.799 77.24C131.919 76.7733 131.985 76.2733 131.999 75.74C131.999 75.2067 131.939 74.7067 131.819 74.24C131.712 73.76 131.532 73.3467 131.279 73C131.025 72.6533 130.692 72.38 130.279 72.18C129.879 71.9667 129.392 71.86 128.819 71.86C128.139 71.86 127.552 72.0467 127.059 72.42C126.565 72.78 126.192 73.24 125.939 73.8C125.792 74.1067 125.692 74.4267 125.639 74.76C125.585 75.08 125.559 75.4133 125.559 75.76C125.559 76.16 125.585 76.5333 125.639 76.88C125.692 77.2133 125.792 77.5333 125.939 77.84C126.192 78.3467 126.559 78.7733 127.039 79.12C127.532 79.4533 128.139 79.62 128.859 79.62ZM143.471 70.46H145.391L142.411 78.76C142.251 79.1867 142.077 79.6733 141.891 80.22C141.717 80.7533 141.517 81.2867 141.291 81.82C141.077 82.3667 140.831 82.88 140.551 83.36C140.284 83.84 139.984 84.2267 139.651 84.52C139.157 84.96 138.684 85.2333 138.231 85.34C137.777 85.46 137.264 85.52 136.691 85.52H136.331V83.9C136.811 83.9 137.217 83.8467 137.551 83.74C137.884 83.6467 138.171 83.4933 138.411 83.28C138.664 83.0667 138.877 82.8 139.051 82.48C139.237 82.16 139.424 81.78 139.611 81.34L134.891 70.46H136.891L140.551 79.34L143.471 70.46ZM154.965 81H153.265V77.1H150.845L148.285 81H146.305L149.045 76.84C148.285 76.6267 147.692 76.28 147.265 75.8C146.838 75.3067 146.612 74.6533 146.585 73.84C146.572 73.1333 146.678 72.5667 146.905 72.14C147.145 71.7 147.458 71.3467 147.845 71.08C148.218 70.8133 148.652 70.6467 149.145 70.58C149.638 70.5 150.165 70.46 150.725 70.46H154.965V81ZM153.265 71.96L151.005 71.94C150.672 71.94 150.332 71.9533 149.985 71.98C149.652 72.0067 149.352 72.0933 149.085 72.24C148.858 72.3733 148.672 72.5667 148.525 72.82C148.392 73.06 148.318 73.3733 148.305 73.76C148.318 74.12 148.405 74.4267 148.565 74.68C148.725 74.92 148.952 75.1133 149.245 75.26C149.632 75.4467 150.058 75.5533 150.525 75.58C151.005 75.6067 151.498 75.62 152.005 75.62H153.265V71.96ZM163.039 81V70.46H164.739V75.08H170.019V70.46H171.719V81H170.019V76.58H164.739V81H163.039ZM181.346 79.66C181.12 79.9667 180.86 80.2133 180.566 80.4C180.273 80.5867 179.966 80.7333 179.646 80.84C179.34 80.9467 179.026 81.02 178.706 81.06C178.4 81.1 178.093 81.12 177.786 81.12C177.293 81.12 176.826 81.06 176.386 80.94C175.946 80.82 175.546 80.6267 175.186 80.36C174.84 80.0933 174.56 79.76 174.346 79.36C174.146 78.96 174.046 78.5067 174.046 78C174.046 77.4 174.153 76.9 174.366 76.5C174.593 76.0867 174.893 75.7533 175.266 75.5C175.64 75.2467 176.066 75.0733 176.546 74.98C177.04 74.8733 177.56 74.82 178.106 74.82H181.206C181.206 73.9267 181.013 73.22 180.626 72.7C180.24 72.1667 179.586 71.8867 178.666 71.86C178.106 71.86 177.613 71.9533 177.186 72.14C176.76 72.3267 176.466 72.6333 176.306 73.06H174.486C174.58 72.58 174.766 72.1733 175.046 71.84C175.326 71.4933 175.66 71.2133 176.046 71C176.433 70.7733 176.853 70.6067 177.306 70.5C177.76 70.3933 178.213 70.34 178.666 70.34C179.453 70.34 180.113 70.4733 180.646 70.74C181.193 70.9933 181.633 71.3333 181.966 71.76C182.3 72.1733 182.533 72.68 182.666 73.28C182.8 73.88 182.866 74.5533 182.866 75.3V81H181.446L181.346 79.66ZM179.346 76.24C179.026 76.24 178.653 76.2467 178.226 76.26C177.813 76.26 177.413 76.3 177.026 76.38C176.64 76.46 176.326 76.6267 176.086 76.88C175.86 77.1333 175.746 77.4667 175.746 77.88C175.746 78.1867 175.806 78.4467 175.926 78.66C176.046 78.8733 176.206 79.0533 176.406 79.2C176.62 79.3467 176.86 79.4533 177.126 79.52C177.393 79.5867 177.666 79.62 177.946 79.62C178.946 79.62 179.733 79.38 180.306 78.9C180.893 78.4067 181.193 77.6933 181.206 76.76V76.24H179.346ZM186.82 76.36C186.86 76.8267 186.953 77.26 187.1 77.66C187.26 78.0467 187.473 78.3867 187.74 78.68C188.007 78.9733 188.333 79.2067 188.72 79.38C189.12 79.54 189.58 79.62 190.1 79.62C190.353 79.62 190.613 79.6 190.88 79.56C191.16 79.5067 191.42 79.4267 191.66 79.32C191.9 79.2 192.113 79.0467 192.3 78.86C192.487 78.6733 192.627 78.4467 192.72 78.18H194.46C194.34 78.6867 194.133 79.1267 193.84 79.5C193.56 79.8733 193.22 80.18 192.82 80.42C192.433 80.66 192 80.84 191.52 80.96C191.04 81.0667 190.553 81.12 190.06 81.12C189.22 81.12 188.487 80.9867 187.86 80.72C187.247 80.4533 186.733 80.0867 186.32 79.62C185.907 79.14 185.6 78.5733 185.4 77.92C185.2 77.2533 185.1 76.5267 185.1 75.74C185.1 74.9533 185.207 74.2333 185.42 73.58C185.647 72.9133 185.967 72.34 186.38 71.86C186.793 71.38 187.3 71.0067 187.9 70.74C188.5 70.4733 189.213 70.34 190.04 70.34C190.88 70.34 191.607 70.5067 192.22 70.84C192.833 71.1733 193.327 71.6133 193.7 72.16C194.073 72.6933 194.333 73.2733 194.48 73.9C194.64 74.5267 194.707 75.1067 194.68 75.64C194.68 75.76 194.673 75.88 194.66 76C194.66 76.12 194.653 76.24 194.64 76.36H186.82ZM192.96 74.88C192.933 73.9867 192.653 73.26 192.12 72.7C191.587 72.14 190.873 71.86 189.98 71.86C189.487 71.86 189.053 71.94 188.68 72.1C188.307 72.26 187.993 72.48 187.74 72.76C187.487 73.04 187.287 73.3667 187.14 73.74C186.993 74.1 186.9 74.48 186.86 74.88H192.96ZM197.931 72.78C197.944 72.3933 197.951 72.0067 197.951 71.62C197.951 71.2333 197.951 70.8467 197.951 70.46H205.431V79.52H206.811V84.24H205.171V81H197.471V84.24H195.831V79.52C196.364 79.52 196.784 79.28 197.091 78.8C197.277 78.5333 197.424 78.1533 197.531 77.66C197.637 77.1533 197.717 76.62 197.771 76.06C197.837 75.4467 197.877 74.84 197.891 74.24C197.917 73.6267 197.931 73.14 197.931 72.78ZM203.731 71.96H199.571C199.557 72.52 199.544 73.1467 199.531 73.84C199.517 74.5333 199.491 75.18 199.451 75.78C199.437 76.0467 199.417 76.34 199.391 76.66C199.364 76.9667 199.317 77.2867 199.251 77.62C199.197 77.94 199.111 78.2667 198.991 78.6C198.884 78.9333 198.731 79.24 198.531 79.52H203.731V71.96ZM210.246 81H208.586V70.46H210.286V78.54C210.379 78.3533 210.506 78.1533 210.666 77.94C210.826 77.7133 210.953 77.54 211.046 77.42L216.146 70.46H217.826V81H216.126V72.92C216.019 73.12 215.899 73.3133 215.766 73.5C215.646 73.6733 215.533 73.8267 215.426 73.96L210.246 81ZM220.5 81V70.46H222.2V75.08H227.48V70.46H229.18V81H227.48V76.58H222.2V81H220.5ZM233.187 76.36C233.227 76.8267 233.321 77.26 233.467 77.66C233.627 78.0467 233.841 78.3867 234.107 78.68C234.374 78.9733 234.701 79.2067 235.087 79.38C235.487 79.54 235.947 79.62 236.467 79.62C236.721 79.62 236.981 79.6 237.247 79.56C237.527 79.5067 237.787 79.4267 238.027 79.32C238.267 79.2 238.481 79.0467 238.667 78.86C238.854 78.6733 238.994 78.4467 239.087 78.18H240.827C240.707 78.6867 240.501 79.1267 240.207 79.5C239.927 79.8733 239.587 80.18 239.187 80.42C238.801 80.66 238.367 80.84 237.887 80.96C237.407 81.0667 236.921 81.12 236.427 81.12C235.587 81.12 234.854 80.9867 234.227 80.72C233.614 80.4533 233.101 80.0867 232.687 79.62C232.274 79.14 231.967 78.5733 231.767 77.92C231.567 77.2533 231.467 76.5267 231.467 75.74C231.467 74.9533 231.574 74.2333 231.787 73.58C232.014 72.9133 232.334 72.34 232.747 71.86C233.161 71.38 233.667 71.0067 234.267 70.74C234.867 70.4733 235.581 70.34 236.407 70.34C237.247 70.34 237.974 70.5067 238.587 70.84C239.201 71.1733 239.694 71.6133 240.067 72.16C240.441 72.6933 240.701 73.2733 240.847 73.9C241.007 74.5267 241.074 75.1067 241.047 75.64C241.047 75.76 241.041 75.88 241.027 76C241.027 76.12 241.021 76.24 241.007 76.36H233.187ZM239.327 74.88C239.301 73.9867 239.021 73.26 238.487 72.7C237.954 72.14 237.241 71.86 236.347 71.86C235.854 71.86 235.421 71.94 235.047 72.1C234.674 72.26 234.361 72.48 234.107 72.76C233.854 73.04 233.654 73.3667 233.507 73.74C233.361 74.1 233.267 74.48 233.227 74.88H239.327ZM253.223 81.12C252.383 81.12 251.656 80.9867 251.043 80.72C250.429 80.4533 249.923 80.08 249.523 79.6C249.123 79.12 248.823 78.5533 248.623 77.9C248.423 77.2467 248.323 76.5333 248.323 75.76C248.323 75.0133 248.429 74.3133 248.643 73.66C248.856 72.9933 249.169 72.42 249.583 71.94C249.996 71.4467 250.516 71.06 251.143 70.78C251.769 70.4867 252.529 70.34 253.423 70.34C253.956 70.34 254.429 70.4 254.843 70.52C255.256 70.6267 255.643 70.8067 256.003 71.06C256.376 71.3 256.696 71.62 256.963 72.02C257.229 72.42 257.423 72.9067 257.543 73.48H255.803C255.603 72.8933 255.283 72.4733 254.843 72.22C254.416 71.9667 253.909 71.8467 253.323 71.86C252.749 71.86 252.243 71.9733 251.803 72.2C251.376 72.4133 251.029 72.7 250.763 73.06C250.509 73.42 250.323 73.84 250.203 74.32C250.083 74.7867 250.023 75.2667 250.023 75.76C250.023 76.28 250.083 76.7733 250.203 77.24C250.336 77.7067 250.529 78.12 250.783 78.48C251.049 78.8267 251.389 79.1067 251.803 79.32C252.216 79.52 252.709 79.62 253.283 79.62C253.563 79.62 253.836 79.5933 254.103 79.54C254.383 79.4867 254.636 79.4 254.863 79.28C255.103 79.1467 255.309 78.9733 255.483 78.76C255.656 78.5467 255.783 78.2867 255.863 77.98H257.623C257.516 78.5267 257.323 79 257.043 79.4C256.776 79.7867 256.443 80.1133 256.043 80.38C255.643 80.6333 255.203 80.82 254.723 80.94C254.243 81.06 253.743 81.12 253.223 81.12ZM269.668 81.12C268.828 81.12 268.101 80.9867 267.488 80.72C266.875 80.4533 266.368 80.08 265.968 79.6C265.568 79.12 265.268 78.5533 265.068 77.9C264.868 77.2467 264.768 76.5333 264.768 75.76C264.768 75.0133 264.875 74.3133 265.088 73.66C265.301 72.9933 265.615 72.42 266.028 71.94C266.441 71.4467 266.961 71.06 267.588 70.78C268.215 70.4867 268.975 70.34 269.868 70.34C270.401 70.34 270.875 70.4 271.288 70.52C271.701 70.6267 272.088 70.8067 272.448 71.06C272.821 71.3 273.141 71.62 273.408 72.02C273.675 72.42 273.868 72.9067 273.988 73.48H272.248C272.048 72.8933 271.728 72.4733 271.288 72.22C270.861 71.9667 270.355 71.8467 269.768 71.86C269.195 71.86 268.688 71.9733 268.248 72.2C267.821 72.4133 267.475 72.7 267.208 73.06C266.955 73.42 266.768 73.84 266.648 74.32C266.528 74.7867 266.468 75.2667 266.468 75.76C266.468 76.28 266.528 76.7733 266.648 77.24C266.781 77.7067 266.975 78.12 267.228 78.48C267.495 78.8267 267.835 79.1067 268.248 79.32C268.661 79.52 269.155 79.62 269.728 79.62C270.008 79.62 270.281 79.5933 270.548 79.54C270.828 79.4867 271.081 79.4 271.308 79.28C271.548 79.1467 271.755 78.9733 271.928 78.76C272.101 78.5467 272.228 78.2867 272.308 77.98H274.068C273.961 78.5267 273.768 79 273.488 79.4C273.221 79.7867 272.888 80.1133 272.488 80.38C272.088 80.6333 271.648 80.82 271.168 80.94C270.688 81.06 270.188 81.12 269.668 81.12ZM280.863 70.34C281.703 70.34 282.429 70.4733 283.043 70.74C283.656 71.0067 284.169 71.38 284.583 71.86C285.009 72.34 285.323 72.9133 285.523 73.58C285.736 74.2333 285.843 74.9533 285.843 75.74C285.843 76.5267 285.736 77.2533 285.523 77.92C285.323 78.5733 285.009 79.14 284.583 79.62C284.169 80.0867 283.649 80.4533 283.023 80.72C282.396 80.9867 281.663 81.12 280.823 81.12C279.983 81.12 279.249 80.9867 278.623 80.72C278.009 80.4533 277.489 80.0867 277.063 79.62C276.649 79.14 276.336 78.5733 276.123 77.92C275.923 77.2533 275.823 76.5267 275.823 75.74C275.823 74.9533 275.923 74.2333 276.123 73.58C276.336 72.9133 276.649 72.34 277.063 71.86C277.489 71.38 278.016 71.0067 278.643 70.74C279.269 70.4733 280.009 70.34 280.863 70.34ZM280.823 79.62C281.396 79.62 281.889 79.52 282.303 79.32C282.729 79.12 283.076 78.8467 283.343 78.5C283.623 78.14 283.823 77.7267 283.943 77.26C284.076 76.7933 284.143 76.2867 284.143 75.74C284.143 75.2067 284.076 74.7067 283.943 74.24C283.823 73.76 283.623 73.3467 283.343 73C283.076 72.64 282.729 72.36 282.303 72.16C281.889 71.96 281.396 71.86 280.823 71.86C280.249 71.86 279.756 71.96 279.343 72.16C278.929 72.36 278.583 72.64 278.303 73C278.036 73.3467 277.836 73.76 277.703 74.24C277.583 74.7067 277.523 75.2067 277.523 75.74C277.523 76.2867 277.583 76.7933 277.703 77.26C277.836 77.7267 278.036 78.14 278.303 78.5C278.583 78.8467 278.929 79.12 279.343 79.32C279.756 79.52 280.249 79.62 280.823 79.62ZM289.593 72.84C289.793 72.56 290.026 72.3267 290.293 72.14C290.559 71.94 290.846 71.7733 291.153 71.64C291.473 71.5067 291.793 71.4133 292.113 71.36C292.446 71.2933 292.766 71.26 293.073 71.26C293.793 71.26 294.426 71.3733 294.973 71.6C295.533 71.8267 295.999 72.1533 296.373 72.58C296.759 72.9933 297.053 73.4933 297.253 74.08C297.453 74.6667 297.553 75.32 297.553 76.04C297.553 76.76 297.446 77.4333 297.233 78.06C297.019 78.6733 296.706 79.2067 296.293 79.66C295.893 80.1133 295.393 80.4733 294.793 80.74C294.206 80.9933 293.526 81.12 292.753 81.12C291.873 81.12 291.133 80.9667 290.533 80.66C289.933 80.34 289.446 79.92 289.073 79.4C288.713 78.8667 288.446 78.2333 288.273 77.5C288.099 76.7667 288.006 76.0467 287.993 75.34C287.966 75.1267 287.953 74.7 287.953 74.06C287.966 73.4067 287.999 72.82 288.053 72.3C288.106 71.7667 288.193 71.2533 288.313 70.76C288.446 70.2533 288.626 69.8067 288.853 69.42C289.213 68.78 289.666 68.3067 290.213 68C290.773 67.6933 291.413 67.48 292.133 67.36C292.359 67.32 292.866 67.2467 293.653 67.14C294.453 67.02 294.999 66.94 295.293 66.9C295.546 66.8733 295.819 66.84 296.113 66.8C296.419 66.7467 296.719 66.6933 297.013 66.64V68.2C296.813 68.2667 296.566 68.3267 296.273 68.38C295.979 68.42 295.646 68.46 295.273 68.5C295.006 68.54 294.726 68.58 294.433 68.62C294.153 68.6467 293.859 68.68 293.553 68.72C293.259 68.7467 292.806 68.8067 292.193 68.9C291.739 68.9667 291.366 69.0933 291.073 69.28C290.793 69.4667 290.546 69.7133 290.333 70.02C290.079 70.3933 289.893 70.8467 289.773 71.38C289.666 71.9 289.606 72.3867 289.593 72.84ZM292.793 79.62C293.286 79.62 293.719 79.5267 294.093 79.34C294.479 79.1533 294.799 78.9 295.053 78.58C295.319 78.26 295.519 77.8867 295.653 77.46C295.786 77.0333 295.853 76.58 295.853 76.1C295.853 75.6333 295.779 75.2 295.633 74.8C295.499 74.3867 295.306 74.0333 295.053 73.74C294.799 73.4333 294.493 73.2 294.133 73.04C293.773 72.8667 293.333 72.78 292.813 72.78C292.333 72.7933 291.906 72.8867 291.533 73.06C291.159 73.2333 290.839 73.48 290.573 73.8C290.306 74.1067 290.106 74.4667 289.973 74.88C289.839 75.28 289.766 75.7 289.753 76.14C289.753 76.6067 289.813 77.0533 289.933 77.48C290.066 77.8933 290.259 78.26 290.513 78.58C290.766 78.9 291.079 79.1533 291.453 79.34C291.839 79.5267 292.286 79.62 292.793 79.62ZM304.476 70.34C305.316 70.34 306.043 70.4733 306.656 70.74C307.269 71.0067 307.783 71.38 308.196 71.86C308.623 72.34 308.936 72.9133 309.136 73.58C309.349 74.2333 309.456 74.9533 309.456 75.74C309.456 76.5267 309.349 77.2533 309.136 77.92C308.936 78.5733 308.623 79.14 308.196 79.62C307.783 80.0867 307.263 80.4533 306.636 80.72C306.009 80.9867 305.276 81.12 304.436 81.12C303.596 81.12 302.863 80.9867 302.236 80.72C301.623 80.4533 301.103 80.0867 300.676 79.62C300.263 79.14 299.949 78.5733 299.736 77.92C299.536 77.2533 299.436 76.5267 299.436 75.74C299.436 74.9533 299.536 74.2333 299.736 73.58C299.949 72.9133 300.263 72.34 300.676 71.86C301.103 71.38 301.629 71.0067 302.256 70.74C302.883 70.4733 303.623 70.34 304.476 70.34ZM304.436 79.62C305.009 79.62 305.503 79.52 305.916 79.32C306.343 79.12 306.689 78.8467 306.956 78.5C307.236 78.14 307.436 77.7267 307.556 77.26C307.689 76.7933 307.756 76.2867 307.756 75.74C307.756 75.2067 307.689 74.7067 307.556 74.24C307.436 73.76 307.236 73.3467 306.956 73C306.689 72.64 306.343 72.36 305.916 72.16C305.503 71.96 305.009 71.86 304.436 71.86C303.863 71.86 303.369 71.96 302.956 72.16C302.543 72.36 302.196 72.64 301.916 73C301.649 73.3467 301.449 73.76 301.316 74.24C301.196 74.7067 301.136 75.2067 301.136 75.74C301.136 76.2867 301.196 76.7933 301.316 77.26C301.449 77.7267 301.649 78.14 301.916 78.5C302.196 78.8467 302.543 79.12 302.956 79.32C303.369 79.52 303.863 79.62 304.436 79.62ZM316.511 67.76C317.071 67.76 317.517 67.6533 317.851 67.44C318.197 67.2267 318.371 66.8533 318.371 66.32H319.931C319.904 67.28 319.584 67.98 318.971 68.42C318.371 68.86 317.544 69.08 316.491 69.08C315.437 69.08 314.611 68.86 314.011 68.42C313.424 67.98 313.117 67.28 313.091 66.32H314.651C314.664 66.8533 314.837 67.2267 315.171 67.44C315.504 67.6533 315.951 67.76 316.511 67.76ZM313.391 81H311.731V70.46H313.431V78.54C313.524 78.3533 313.651 78.1533 313.811 77.94C313.971 77.7133 314.097 77.54 314.191 77.42L319.291 70.46H320.971V81H319.271V72.92C319.164 73.12 319.044 73.3133 318.911 73.5C318.791 73.6733 318.677 73.8267 318.571 73.96L313.391 81ZM330.315 72.84C330.515 72.56 330.749 72.3267 331.015 72.14C331.282 71.94 331.569 71.7733 331.875 71.64C332.195 71.5067 332.515 71.4133 332.835 71.36C333.169 71.2933 333.489 71.26 333.795 71.26C334.515 71.26 335.149 71.3733 335.695 71.6C336.255 71.8267 336.722 72.1533 337.095 72.58C337.482 72.9933 337.775 73.4933 337.975 74.08C338.175 74.6667 338.275 75.32 338.275 76.04C338.275 76.76 338.169 77.4333 337.955 78.06C337.742 78.6733 337.429 79.2067 337.015 79.66C336.615 80.1133 336.115 80.4733 335.515 80.74C334.929 80.9933 334.249 81.12 333.475 81.12C332.595 81.12 331.855 80.9667 331.255 80.66C330.655 80.34 330.169 79.92 329.795 79.4C329.435 78.8667 329.169 78.2333 328.995 77.5C328.822 76.7667 328.729 76.0467 328.715 75.34C328.689 75.1267 328.675 74.7 328.675 74.06C328.689 73.4067 328.722 72.82 328.775 72.3C328.829 71.7667 328.915 71.2533 329.035 70.76C329.169 70.2533 329.349 69.8067 329.575 69.42C329.935 68.78 330.389 68.3067 330.935 68C331.495 67.6933 332.135 67.48 332.855 67.36C333.082 67.32 333.589 67.2467 334.375 67.14C335.175 67.02 335.722 66.94 336.015 66.9C336.269 66.8733 336.542 66.84 336.835 66.8C337.142 66.7467 337.442 66.6933 337.735 66.64V68.2C337.535 68.2667 337.289 68.3267 336.995 68.38C336.702 68.42 336.369 68.46 335.995 68.5C335.729 68.54 335.449 68.58 335.155 68.62C334.875 68.6467 334.582 68.68 334.275 68.72C333.982 68.7467 333.529 68.8067 332.915 68.9C332.462 68.9667 332.089 69.0933 331.795 69.28C331.515 69.4667 331.269 69.7133 331.055 70.02C330.802 70.3933 330.615 70.8467 330.495 71.38C330.389 71.9 330.329 72.3867 330.315 72.84ZM333.515 79.62C334.009 79.62 334.442 79.5267 334.815 79.34C335.202 79.1533 335.522 78.9 335.775 78.58C336.042 78.26 336.242 77.8867 336.375 77.46C336.509 77.0333 336.575 76.58 336.575 76.1C336.575 75.6333 336.502 75.2 336.355 74.8C336.222 74.3867 336.029 74.0333 335.775 73.74C335.522 73.4333 335.215 73.2 334.855 73.04C334.495 72.8667 334.055 72.78 333.535 72.78C333.055 72.7933 332.629 72.8867 332.255 73.06C331.882 73.2333 331.562 73.48 331.295 73.8C331.029 74.1067 330.829 74.4667 330.695 74.88C330.562 75.28 330.489 75.7 330.475 76.14C330.475 76.6067 330.535 77.0533 330.655 77.48C330.789 77.8933 330.982 78.26 331.235 78.58C331.489 78.9 331.802 79.1533 332.175 79.34C332.562 79.5267 333.009 79.62 333.515 79.62ZM341.879 76.36C341.919 76.8267 342.012 77.26 342.159 77.66C342.319 78.0467 342.532 78.3867 342.799 78.68C343.065 78.9733 343.392 79.2067 343.779 79.38C344.179 79.54 344.639 79.62 345.159 79.62C345.412 79.62 345.672 79.6 345.939 79.56C346.219 79.5067 346.479 79.4267 346.719 79.32C346.959 79.2 347.172 79.0467 347.359 78.86C347.545 78.6733 347.685 78.4467 347.779 78.18H349.519C349.399 78.6867 349.192 79.1267 348.899 79.5C348.619 79.8733 348.279 80.18 347.879 80.42C347.492 80.66 347.059 80.84 346.579 80.96C346.099 81.0667 345.612 81.12 345.119 81.12C344.279 81.12 343.545 80.9867 342.919 80.72C342.305 80.4533 341.792 80.0867 341.379 79.62C340.965 79.14 340.659 78.5733 340.459 77.92C340.259 77.2533 340.159 76.5267 340.159 75.74C340.159 74.9533 340.265 74.2333 340.479 73.58C340.705 72.9133 341.025 72.34 341.439 71.86C341.852 71.38 342.359 71.0067 342.959 70.74C343.559 70.4733 344.272 70.34 345.099 70.34C345.939 70.34 346.665 70.5067 347.279 70.84C347.892 71.1733 348.385 71.6133 348.759 72.16C349.132 72.6933 349.392 73.2733 349.539 73.9C349.699 74.5267 349.765 75.1067 349.739 75.64C349.739 75.76 349.732 75.88 349.719 76C349.719 76.12 349.712 76.24 349.699 76.36H341.879ZM348.019 74.88C347.992 73.9867 347.712 73.26 347.179 72.7C346.645 72.14 345.932 71.86 345.039 71.86C344.545 71.86 344.112 71.94 343.739 72.1C343.365 72.26 343.052 72.48 342.799 72.76C342.545 73.04 342.345 73.3667 342.199 73.74C342.052 74.1 341.959 74.48 341.919 74.88H348.019ZM358.284 75.34C358.964 75.5533 359.437 75.8867 359.704 76.34C359.97 76.7933 360.104 77.3333 360.104 77.96C360.09 78.52 359.957 79 359.704 79.4C359.464 79.8 359.144 80.1267 358.744 80.38C358.344 80.6333 357.89 80.82 357.384 80.94C356.877 81.06 356.357 81.12 355.824 81.12C355.317 81.12 354.804 81.0733 354.284 80.98C353.777 80.8867 353.317 80.7267 352.904 80.5C352.49 80.2733 352.144 79.9733 351.864 79.6C351.597 79.2267 351.45 78.7533 351.424 78.18H353.084C353.137 78.46 353.264 78.6933 353.464 78.88C353.664 79.0533 353.897 79.2 354.164 79.32C354.444 79.4267 354.73 79.5067 355.024 79.56C355.33 79.6 355.604 79.62 355.844 79.62C356.124 79.62 356.41 79.6 356.704 79.56C357.01 79.52 357.29 79.44 357.544 79.32C357.797 79.2 358.004 79.0333 358.164 78.82C358.324 78.5933 358.404 78.3067 358.404 77.96C358.404 77.68 358.344 77.4267 358.224 77.2C358.104 76.96 357.917 76.78 357.664 76.66C357.437 76.5533 357.177 76.4933 356.884 76.48C356.59 76.4533 356.317 76.44 356.064 76.44H354.184V74.94H355.724C355.977 74.94 356.237 74.92 356.504 74.88C356.77 74.8267 357.01 74.74 357.224 74.62C357.45 74.5 357.63 74.3467 357.764 74.16C357.91 73.96 357.99 73.68 358.004 73.32C358.004 73.04 357.937 72.8067 357.804 72.62C357.684 72.4333 357.517 72.2867 357.304 72.18C357.104 72.06 356.87 71.98 356.604 71.94C356.35 71.8867 356.097 71.86 355.844 71.86C355.604 71.86 355.35 71.88 355.084 71.92C354.817 71.9467 354.57 72.0133 354.344 72.12C354.117 72.2133 353.924 72.3467 353.764 72.52C353.604 72.6933 353.504 72.92 353.464 73.2H351.784C351.797 72.6667 351.924 72.22 352.164 71.86C352.417 71.4867 352.737 71.1933 353.124 70.98C353.51 70.7533 353.937 70.5933 354.404 70.5C354.884 70.3933 355.357 70.34 355.824 70.34C356.29 70.34 356.75 70.3867 357.204 70.48C357.67 70.5733 358.084 70.7333 358.444 70.96C358.804 71.1733 359.097 71.46 359.324 71.82C359.55 72.18 359.664 72.6267 359.664 73.16C359.664 73.64 359.55 74.0667 359.324 74.44C359.097 74.8133 358.75 75.1133 358.284 75.34ZM367.688 81V70.46H369.388V75H371.228L374.348 70.46H376.288L372.768 75.48L376.588 81H374.588L371.428 76.48H369.388V81H367.688ZM384.803 79.66C384.577 79.9667 384.317 80.2133 384.023 80.4C383.73 80.5867 383.423 80.7333 383.103 80.84C382.797 80.9467 382.483 81.02 382.163 81.06C381.857 81.1 381.55 81.12 381.243 81.12C380.75 81.12 380.283 81.06 379.843 80.94C379.403 80.82 379.003 80.6267 378.643 80.36C378.297 80.0933 378.017 79.76 377.803 79.36C377.603 78.96 377.503 78.5067 377.503 78C377.503 77.4 377.61 76.9 377.823 76.5C378.05 76.0867 378.35 75.7533 378.723 75.5C379.097 75.2467 379.523 75.0733 380.003 74.98C380.497 74.8733 381.017 74.82 381.563 74.82H384.663C384.663 73.9267 384.47 73.22 384.083 72.7C383.697 72.1667 383.043 71.8867 382.123 71.86C381.563 71.86 381.07 71.9533 380.643 72.14C380.217 72.3267 379.923 72.6333 379.763 73.06H377.943C378.037 72.58 378.223 72.1733 378.503 71.84C378.783 71.4933 379.117 71.2133 379.503 71C379.89 70.7733 380.31 70.6067 380.763 70.5C381.217 70.3933 381.67 70.34 382.123 70.34C382.91 70.34 383.57 70.4733 384.103 70.74C384.65 70.9933 385.09 71.3333 385.423 71.76C385.757 72.1733 385.99 72.68 386.123 73.28C386.257 73.88 386.323 74.5533 386.323 75.3V81H384.903L384.803 79.66ZM382.803 76.24C382.483 76.24 382.11 76.2467 381.683 76.26C381.27 76.26 380.87 76.3 380.483 76.38C380.097 76.46 379.783 76.6267 379.543 76.88C379.317 77.1333 379.203 77.4667 379.203 77.88C379.203 78.1867 379.263 78.4467 379.383 78.66C379.503 78.8733 379.663 79.0533 379.863 79.2C380.077 79.3467 380.317 79.4533 380.583 79.52C380.85 79.5867 381.123 79.62 381.403 79.62C382.403 79.62 383.19 79.38 383.763 78.9C384.35 78.4067 384.65 77.6933 384.663 76.76V76.24H382.803ZM388.957 81V70.46H390.657V75H392.497L395.617 70.46H397.557L394.037 75.48L397.857 81H395.857L392.697 76.48H390.657V81H388.957ZM403.773 70.34C404.613 70.34 405.34 70.4733 405.953 70.74C406.566 71.0067 407.08 71.38 407.493 71.86C407.92 72.34 408.233 72.9133 408.433 73.58C408.646 74.2333 408.753 74.9533 408.753 75.74C408.753 76.5267 408.646 77.2533 408.433 77.92C408.233 78.5733 407.92 79.14 407.493 79.62C407.08 80.0867 406.56 80.4533 405.933 80.72C405.306 80.9867 404.573 81.12 403.733 81.12C402.893 81.12 402.16 80.9867 401.533 80.72C400.92 80.4533 400.4 80.0867 399.973 79.62C399.56 79.14 399.246 78.5733 399.033 77.92C398.833 77.2533 398.733 76.5267 398.733 75.74C398.733 74.9533 398.833 74.2333 399.033 73.58C399.246 72.9133 399.56 72.34 399.973 71.86C400.4 71.38 400.926 71.0067 401.553 70.74C402.18 70.4733 402.92 70.34 403.773 70.34ZM403.733 79.62C404.306 79.62 404.8 79.52 405.213 79.32C405.64 79.12 405.986 78.8467 406.253 78.5C406.533 78.14 406.733 77.7267 406.853 77.26C406.986 76.7933 407.053 76.2867 407.053 75.74C407.053 75.2067 406.986 74.7067 406.853 74.24C406.733 73.76 406.533 73.3467 406.253 73C405.986 72.64 405.64 72.36 405.213 72.16C404.8 71.96 404.306 71.86 403.733 71.86C403.16 71.86 402.666 71.96 402.253 72.16C401.84 72.36 401.493 72.64 401.213 73C400.946 73.3467 400.746 73.76 400.613 74.24C400.493 74.7067 400.433 75.2067 400.433 75.74C400.433 76.2867 400.493 76.7933 400.613 77.26C400.746 77.7267 400.946 78.14 401.213 78.5C401.493 78.8467 401.84 79.12 402.253 79.32C402.666 79.52 403.16 79.62 403.733 79.62ZM411.028 81V70.46H418.308V71.96H412.728V81H411.028ZM424.554 70.34C425.394 70.34 426.121 70.4733 426.734 70.74C427.348 71.0067 427.861 71.38 428.274 71.86C428.701 72.34 429.014 72.9133 429.214 73.58C429.428 74.2333 429.534 74.9533 429.534 75.74C429.534 76.5267 429.428 77.2533 429.214 77.92C429.014 78.5733 428.701 79.14 428.274 79.62C427.861 80.0867 427.341 80.4533 426.714 80.72C426.088 80.9867 425.354 81.12 424.514 81.12C423.674 81.12 422.941 80.9867 422.314 80.72C421.701 80.4533 421.181 80.0867 420.754 79.62C420.341 79.14 420.028 78.5733 419.814 77.92C419.614 77.2533 419.514 76.5267 419.514 75.74C419.514 74.9533 419.614 74.2333 419.814 73.58C420.028 72.9133 420.341 72.34 420.754 71.86C421.181 71.38 421.708 71.0067 422.334 70.74C422.961 70.4733 423.701 70.34 424.554 70.34ZM424.514 79.62C425.088 79.62 425.581 79.52 425.994 79.32C426.421 79.12 426.768 78.8467 427.034 78.5C427.314 78.14 427.514 77.7267 427.634 77.26C427.768 76.7933 427.834 76.2867 427.834 75.74C427.834 75.2067 427.768 74.7067 427.634 74.24C427.514 73.76 427.314 73.3467 427.034 73C426.768 72.64 426.421 72.36 425.994 72.16C425.581 71.96 425.088 71.86 424.514 71.86C423.941 71.86 423.448 71.96 423.034 72.16C422.621 72.36 422.274 72.64 421.994 73C421.728 73.3467 421.528 73.76 421.394 74.24C421.274 74.7067 421.214 75.2067 421.214 75.74C421.214 76.2867 421.274 76.7933 421.394 77.26C421.528 77.7267 421.728 78.14 421.994 78.5C422.274 78.8467 422.621 79.12 423.034 79.32C423.448 79.52 423.941 79.62 424.514 79.62ZM431.949 74.58H438.149V76.14H431.949V74.58ZM441.949 76.06C442.016 75.1 442.062 74.1667 442.089 73.26C442.129 72.3533 442.156 71.42 442.169 70.46H449.489V81H447.789V71.96H443.829L443.649 76.1C443.622 76.6333 443.562 77.2333 443.469 77.9C443.376 78.5667 443.182 79.1733 442.889 79.72C442.662 80.1067 442.356 80.42 441.969 80.66C441.582 80.9 441.136 81.02 440.629 81.02H440.009V79.52C440.542 79.52 440.969 79.2933 441.289 78.84C441.476 78.5733 441.622 78.1867 441.729 77.68C441.836 77.1733 441.909 76.6333 441.949 76.06ZM453.82 81H452.16V70.46H453.86V78.54C453.954 78.3533 454.08 78.1533 454.24 77.94C454.4 77.7133 454.527 77.54 454.62 77.42L459.72 70.46H461.4V81H459.7V72.92C459.594 73.12 459.474 73.3133 459.34 73.5C459.22 73.6733 459.107 73.8267 459 73.96L453.82 81ZM465.354 72.84C465.554 72.56 465.788 72.3267 466.054 72.14C466.321 71.94 466.608 71.7733 466.914 71.64C467.234 71.5067 467.554 71.4133 467.874 71.36C468.208 71.2933 468.528 71.26 468.834 71.26C469.554 71.26 470.188 71.3733 470.734 71.6C471.294 71.8267 471.761 72.1533 472.134 72.58C472.521 72.9933 472.814 73.4933 473.014 74.08C473.214 74.6667 473.314 75.32 473.314 76.04C473.314 76.76 473.208 77.4333 472.994 78.06C472.781 78.6733 472.468 79.2067 472.054 79.66C471.654 80.1133 471.154 80.4733 470.554 80.74C469.968 80.9933 469.288 81.12 468.514 81.12C467.634 81.12 466.894 80.9667 466.294 80.66C465.694 80.34 465.208 79.92 464.834 79.4C464.474 78.8667 464.208 78.2333 464.034 77.5C463.861 76.7667 463.768 76.0467 463.754 75.34C463.728 75.1267 463.714 74.7 463.714 74.06C463.728 73.4067 463.761 72.82 463.814 72.3C463.868 71.7667 463.954 71.2533 464.074 70.76C464.208 70.2533 464.388 69.8067 464.614 69.42C464.974 68.78 465.428 68.3067 465.974 68C466.534 67.6933 467.174 67.48 467.894 67.36C468.121 67.32 468.628 67.2467 469.414 67.14C470.214 67.02 470.761 66.94 471.054 66.9C471.308 66.8733 471.581 66.84 471.874 66.8C472.181 66.7467 472.481 66.6933 472.774 66.64V68.2C472.574 68.2667 472.328 68.3267 472.034 68.38C471.741 68.42 471.408 68.46 471.034 68.5C470.768 68.54 470.488 68.58 470.194 68.62C469.914 68.6467 469.621 68.68 469.314 68.72C469.021 68.7467 468.568 68.8067 467.954 68.9C467.501 68.9667 467.128 69.0933 466.834 69.28C466.554 69.4667 466.308 69.7133 466.094 70.02C465.841 70.3933 465.654 70.8467 465.534 71.38C465.428 71.9 465.368 72.3867 465.354 72.84ZM468.554 79.62C469.048 79.62 469.481 79.5267 469.854 79.34C470.241 79.1533 470.561 78.9 470.814 78.58C471.081 78.26 471.281 77.8867 471.414 77.46C471.548 77.0333 471.614 76.58 471.614 76.1C471.614 75.6333 471.541 75.2 471.394 74.8C471.261 74.3867 471.068 74.0333 470.814 73.74C470.561 73.4333 470.254 73.2 469.894 73.04C469.534 72.8667 469.094 72.78 468.574 72.78C468.094 72.7933 467.668 72.8867 467.294 73.06C466.921 73.2333 466.601 73.48 466.334 73.8C466.068 74.1067 465.868 74.4667 465.734 74.88C465.601 75.28 465.528 75.7 465.514 76.14C465.514 76.6067 465.574 77.0533 465.694 77.48C465.828 77.8933 466.021 78.26 466.274 78.58C466.528 78.9 466.841 79.1533 467.214 79.34C467.601 79.5267 468.048 79.62 468.554 79.62ZM480.238 70.34C481.078 70.34 481.804 70.4733 482.418 70.74C483.031 71.0067 483.544 71.38 483.958 71.86C484.384 72.34 484.698 72.9133 484.898 73.58C485.111 74.2333 485.218 74.9533 485.218 75.74C485.218 76.5267 485.111 77.2533 484.898 77.92C484.698 78.5733 484.384 79.14 483.958 79.62C483.544 80.0867 483.024 80.4533 482.398 80.72C481.771 80.9867 481.038 81.12 480.198 81.12C479.358 81.12 478.624 80.9867 477.998 80.72C477.384 80.4533 476.864 80.0867 476.438 79.62C476.024 79.14 475.711 78.5733 475.498 77.92C475.298 77.2533 475.198 76.5267 475.198 75.74C475.198 74.9533 475.298 74.2333 475.498 73.58C475.711 72.9133 476.024 72.34 476.438 71.86C476.864 71.38 477.391 71.0067 478.018 70.74C478.644 70.4733 479.384 70.34 480.238 70.34ZM480.198 79.62C480.771 79.62 481.264 79.52 481.678 79.32C482.104 79.12 482.451 78.8467 482.718 78.5C482.998 78.14 483.198 77.7267 483.318 77.26C483.451 76.7933 483.518 76.2867 483.518 75.74C483.518 75.2067 483.451 74.7067 483.318 74.24C483.198 73.76 482.998 73.3467 482.718 73C482.451 72.64 482.104 72.36 481.678 72.16C481.264 71.96 480.771 71.86 480.198 71.86C479.624 71.86 479.131 71.96 478.718 72.16C478.304 72.36 477.958 72.64 477.678 73C477.411 73.3467 477.211 73.76 477.078 74.24C476.958 74.7067 476.898 75.2067 476.898 75.74C476.898 76.2867 476.958 76.7933 477.078 77.26C477.211 77.7267 477.411 78.14 477.678 78.5C477.958 78.8467 478.304 79.12 478.718 79.32C479.131 79.52 479.624 79.62 480.198 79.62ZM497.383 81.12C496.543 81.12 495.816 80.9867 495.203 80.72C494.59 80.4533 494.083 80.08 493.683 79.6C493.283 79.12 492.983 78.5533 492.783 77.9C492.583 77.2467 492.483 76.5333 492.483 75.76C492.483 75.0133 492.59 74.3133 492.803 73.66C493.016 72.9933 493.33 72.42 493.743 71.94C494.156 71.4467 494.676 71.06 495.303 70.78C495.93 70.4867 496.69 70.34 497.583 70.34C498.116 70.34 498.59 70.4 499.003 70.52C499.416 70.6267 499.803 70.8067 500.163 71.06C500.536 71.3 500.856 71.62 501.123 72.02C501.39 72.42 501.583 72.9067 501.703 73.48H499.963C499.763 72.8933 499.443 72.4733 499.003 72.22C498.576 71.9667 498.07 71.8467 497.483 71.86C496.91 71.86 496.403 71.9733 495.963 72.2C495.536 72.4133 495.19 72.7 494.923 73.06C494.67 73.42 494.483 73.84 494.363 74.32C494.243 74.7867 494.183 75.2667 494.183 75.76C494.183 76.28 494.243 76.7733 494.363 77.24C494.496 77.7067 494.69 78.12 494.943 78.48C495.21 78.8267 495.55 79.1067 495.963 79.32C496.376 79.52 496.87 79.62 497.443 79.62C497.723 79.62 497.996 79.5933 498.263 79.54C498.543 79.4867 498.796 79.4 499.023 79.28C499.263 79.1467 499.47 78.9733 499.643 78.76C499.816 78.5467 499.943 78.2867 500.023 77.98H501.783C501.676 78.5267 501.483 79 501.203 79.4C500.936 79.7867 500.603 80.1133 500.203 80.38C499.803 80.6333 499.363 80.82 498.883 80.94C498.403 81.06 497.903 81.12 497.383 81.12ZM503.938 70.46H506.218L509.638 75.74L512.998 70.46H515.238V81H513.558V72.34L509.838 78.3H509.358L505.618 72.34V81H503.938V70.46ZM525.502 70.46H527.422L524.442 78.76C524.282 79.1867 524.109 79.6733 523.922 80.22C523.749 80.7533 523.549 81.2867 523.322 81.82C523.109 82.3667 522.862 82.88 522.582 83.36C522.315 83.84 522.015 84.2267 521.682 84.52C521.189 84.96 520.715 85.2333 520.262 85.34C519.809 85.46 519.295 85.52 518.722 85.52H518.362V83.9C518.842 83.9 519.249 83.8467 519.582 83.74C519.915 83.6467 520.202 83.4933 520.442 83.28C520.695 83.0667 520.909 82.8 521.082 82.48C521.269 82.16 521.455 81.78 521.642 81.34L516.922 70.46H518.922L522.582 79.34L525.502 70.46ZM528.996 70.46H530.696V79.52H534.656V70.46H536.356V79.52H540.356V70.46H542.056V79.52H543.436V84.24H541.796V81H528.996V70.46ZM546.527 76.36C546.567 76.8267 546.661 77.26 546.807 77.66C546.967 78.0467 547.181 78.3867 547.447 78.68C547.714 78.9733 548.041 79.2067 548.427 79.38C548.827 79.54 549.287 79.62 549.807 79.62C550.061 79.62 550.321 79.6 550.587 79.56C550.867 79.5067 551.127 79.4267 551.367 79.32C551.607 79.2 551.821 79.0467 552.007 78.86C552.194 78.6733 552.334 78.4467 552.427 78.18H554.167C554.047 78.6867 553.841 79.1267 553.547 79.5C553.267 79.8733 552.927 80.18 552.527 80.42C552.141 80.66 551.707 80.84 551.227 80.96C550.747 81.0667 550.261 81.12 549.767 81.12C548.927 81.12 548.194 80.9867 547.567 80.72C546.954 80.4533 546.441 80.0867 546.027 79.62C545.614 79.14 545.307 78.5733 545.107 77.92C544.907 77.2533 544.807 76.5267 544.807 75.74C544.807 74.9533 544.914 74.2333 545.127 73.58C545.354 72.9133 545.674 72.34 546.087 71.86C546.501 71.38 547.007 71.0067 547.607 70.74C548.207 70.4733 548.921 70.34 549.747 70.34C550.587 70.34 551.314 70.5067 551.927 70.84C552.541 71.1733 553.034 71.6133 553.407 72.16C553.781 72.6933 554.041 73.2733 554.187 73.9C554.347 74.5267 554.414 75.1067 554.387 75.64C554.387 75.76 554.381 75.88 554.367 76C554.367 76.12 554.361 76.24 554.347 76.36H546.527ZM552.667 74.88C552.641 73.9867 552.361 73.26 551.827 72.7C551.294 72.14 550.581 71.86 549.687 71.86C549.194 71.86 548.761 71.94 548.387 72.1C548.014 72.26 547.701 72.48 547.447 72.76C547.194 73.04 546.994 73.3667 546.847 73.74C546.701 74.1 546.607 74.48 546.567 74.88H552.667ZM556.672 81V70.46H558.372V75.08H563.652V70.46H565.352V81H563.652V76.58H558.372V81H556.672ZM569.699 81H568.039V70.46H569.739V78.54C569.833 78.3533 569.959 78.1533 570.119 77.94C570.279 77.7133 570.406 77.54 570.499 77.42L575.599 70.46H577.279V81H575.579V72.92C575.473 73.12 575.353 73.3133 575.219 73.5C575.099 73.6733 574.986 73.8267 574.879 73.96L569.699 81ZM587.953 81H586.253V77.1H583.833L581.273 81H579.293L582.033 76.84C581.273 76.6267 580.68 76.28 580.253 75.8C579.827 75.3067 579.6 74.6533 579.573 73.84C579.56 73.1333 579.667 72.5667 579.893 72.14C580.133 71.7 580.447 71.3467 580.833 71.08C581.207 70.8133 581.64 70.6467 582.133 70.58C582.627 70.5 583.153 70.46 583.713 70.46H587.953V81ZM586.253 71.96L583.993 71.94C583.66 71.94 583.32 71.9533 582.973 71.98C582.64 72.0067 582.34 72.0933 582.073 72.24C581.847 72.3733 581.66 72.5667 581.513 72.82C581.38 73.06 581.307 73.3733 581.293 73.76C581.307 74.12 581.393 74.4267 581.553 74.68C581.713 74.92 581.94 75.1133 582.233 75.26C582.62 75.4467 583.047 75.5533 583.513 75.58C583.993 75.6067 584.487 75.62 584.993 75.62H586.253V71.96ZM591.277 76.6L591.037 66.86H592.977L592.737 76.6H591.277ZM592.017 78.76C592.35 78.76 592.63 78.8733 592.857 79.1C593.097 79.3267 593.217 79.6133 593.217 79.96C593.217 80.3067 593.097 80.5933 592.857 80.82C592.63 81.0467 592.35 81.16 592.017 81.16C591.67 81.16 591.384 81.0467 591.157 80.82C590.944 80.5933 590.837 80.3067 590.837 79.96C590.837 79.6133 590.944 79.3267 591.157 79.1C591.384 78.8733 591.67 78.76 592.017 78.76Z" fill="#041028"/>
</g>
<defs>
<filter id="filter0_d_11_6" x="-4" y="8.55556" width="638" height="114" filterUnits="userSpaceOnUse" color-interpolation-filters="sRGB">
<feFlood flood-opacity="0" result="BackgroundImageFix"/>
<feColorMatrix in="SourceAlpha" type="matrix" values="0 0 0 0 0 0 0 0 0 0 0 0 0 0 0 0 0 0 127 0" result="hardAlpha"/>
<feOffset dy="3.55556"/>
<feGaussianBlur stdDeviation="7.5"/>
<feComposite in2="hardAlpha" operator="out"/>
<feColorMatrix type="matrix" values="0 0 0 0 0.00830861 0 0 0 0 0.0427516 0 0 0 0 0.108767 0 0 0 0.7 0"/>
<feBlend mode="normal" in2="BackgroundImageFix" result="effect1_dropShadow_11_6"/>
<feBlend mode="normal" in="SourceGraphic" in2="effect1_dropShadow_11_6" result="shape"/>
</filter>
<clipPath id="clip0_11_6">
<rect width="636" height="121" fill="white"/>
</clipPath>
</defs>
</svg>
