<svg width="396" height="189" viewBox="0 0 396 189" fill="none" xmlns="http://www.w3.org/2000/svg">
<g clip-path="url(#clip0_489_70)">
<g filter="url(#filter0_d_489_70)">
<path fill-rule="evenodd" clip-rule="evenodd" d="M62 14C45.4315 14 32 27.4315 32 44V124C32 140.569 45.4315 154 62 154H72.7464L78.3954 165.901C81.009 171.376 87.7444 171.364 90.3724 165.879L96.0641 154H337C353.569 154 367 140.569 367 124V44C367 27.4315 353.569 14 337 14H62Z" fill="white"/>
</g>
<path d="M57.292 34.292C59.3453 34.292 60.8413 34.6953 61.78 35.502C62.7187 36.3087 63.188 37.4453 63.188 38.912C63.188 39.5573 63.078 40.1807 62.858 40.782C62.6527 41.3687 62.308 41.8967 61.824 42.366C61.34 42.8353 60.6947 43.2093 59.888 43.488C59.0813 43.752 58.0913 43.884 56.918 43.884H55.114V50H53.134V34.292H57.292ZM57.116 35.986H55.114V42.19H56.698C57.6953 42.19 58.524 42.0873 59.184 41.882C59.844 41.662 60.3353 41.3173 60.658 40.848C60.9807 40.3787 61.142 39.7627 61.142 39C61.142 37.988 60.8193 37.2327 60.174 36.734C59.5287 36.2353 58.5093 35.986 57.116 35.986ZM70.6563 38.01C72.0936 38.01 73.157 38.3253 73.8463 38.956C74.5356 39.5867 74.8803 40.5913 74.8803 41.97V50H73.4723L73.0983 48.328H73.0103C72.673 48.7533 72.321 49.1127 71.9543 49.406C71.6023 49.6847 71.1916 49.89 70.7223 50.022C70.2676 50.154 69.7103 50.22 69.0503 50.22C68.3463 50.22 67.7083 50.0953 67.1363 49.846C66.579 49.5967 66.139 49.2153 65.8163 48.702C65.4936 48.174 65.3323 47.514 65.3323 46.722C65.3323 45.5487 65.7943 44.6467 66.7183 44.016C67.6423 43.3707 69.065 43.0187 70.9863 42.96L72.9883 42.894V42.19C72.9883 41.2073 72.7756 40.5253 72.3503 40.144C71.925 39.7627 71.3236 39.572 70.5463 39.572C69.9303 39.572 69.3436 39.6673 68.7863 39.858C68.229 40.034 67.7083 40.2393 67.2243 40.474L66.6303 39.022C67.1436 38.7433 67.7523 38.5087 68.4563 38.318C69.1603 38.1127 69.8936 38.01 70.6563 38.01ZM71.2283 44.302C69.7616 44.3607 68.7423 44.5953 68.1703 45.006C67.613 45.4167 67.3343 45.996 67.3343 46.744C67.3343 47.404 67.5323 47.888 67.9283 48.196C68.339 48.504 68.8596 48.658 69.4903 48.658C70.4876 48.658 71.3163 48.3867 71.9763 47.844C72.6363 47.2867 72.9663 46.436 72.9663 45.292V44.236L71.2283 44.302ZM83.2523 50.22C82.211 50.22 81.2797 50.0073 80.4583 49.582C79.6517 49.1567 79.0137 48.4967 78.5443 47.602C78.0897 46.7073 77.8623 45.5633 77.8623 44.17C77.8623 42.718 78.1043 41.5373 78.5883 40.628C79.0723 39.7187 79.725 39.0513 80.5463 38.626C81.3823 38.2007 82.3283 37.988 83.3843 37.988C83.9857 37.988 84.565 38.054 85.1223 38.186C85.6797 38.3033 86.1343 38.45 86.4863 38.626L85.8923 40.232C85.5403 40.1 85.1297 39.9753 84.6603 39.858C84.191 39.7407 83.751 39.682 83.3403 39.682C82.5483 39.682 81.8957 39.8507 81.3823 40.188C80.869 40.5253 80.4877 41.024 80.2383 41.684C79.989 42.344 79.8643 43.1653 79.8643 44.148C79.8643 45.0867 79.989 45.886 80.2383 46.546C80.4877 47.206 80.8617 47.7047 81.3603 48.042C81.859 48.3793 82.4823 48.548 83.2303 48.548C83.8757 48.548 84.4403 48.482 84.9243 48.35C85.423 48.218 85.8777 48.0567 86.2883 47.866V49.582C85.8923 49.7873 85.4523 49.9413 84.9683 50.044C84.499 50.1613 83.927 50.22 83.2523 50.22ZM96.0667 38.208H98.1787L93.1407 43.884L98.5967 50H96.3527L91.0287 44.016V50H89.0927V38.208H91.0287V43.928L96.0667 38.208ZM106.347 37.988C107.799 37.988 108.965 38.494 109.845 39.506C110.74 40.518 111.187 42.0433 111.187 44.082C111.187 45.4167 110.982 46.546 110.571 47.47C110.175 48.3793 109.611 49.0687 108.877 49.538C108.159 49.9927 107.308 50.22 106.325 50.22C105.724 50.22 105.189 50.1393 104.719 49.978C104.25 49.8167 103.847 49.6113 103.509 49.362C103.187 49.098 102.908 48.812 102.673 48.504H102.541C102.571 48.7533 102.6 49.0687 102.629 49.45C102.659 49.8313 102.673 50.1613 102.673 50.44V55.28H100.737V38.208H102.321L102.585 39.814H102.673C102.908 39.4767 103.187 39.1687 103.509 38.89C103.847 38.6113 104.243 38.3913 104.697 38.23C105.167 38.0687 105.717 37.988 106.347 37.988ZM105.995 39.616C105.203 39.616 104.565 39.77 104.081 40.078C103.597 40.3713 103.245 40.8187 103.025 41.42C102.805 42.0213 102.688 42.784 102.673 43.708V44.082C102.673 45.05 102.776 45.8713 102.981 46.546C103.187 47.2207 103.531 47.734 104.015 48.086C104.514 48.438 105.189 48.614 106.039 48.614C106.758 48.614 107.345 48.416 107.799 48.02C108.269 47.624 108.613 47.0887 108.833 46.414C109.068 45.7247 109.185 44.94 109.185 44.06C109.185 42.7107 108.921 41.6327 108.393 40.826C107.88 40.0193 107.081 39.616 105.995 39.616ZM124.524 44.082C124.524 45.0647 124.392 45.9373 124.128 46.7C123.879 47.448 123.512 48.086 123.028 48.614C122.559 49.142 121.98 49.5453 121.29 49.824C120.616 50.088 119.86 50.22 119.024 50.22C118.247 50.22 117.528 50.088 116.868 49.824C116.208 49.5453 115.636 49.142 115.152 48.614C114.668 48.086 114.287 47.448 114.008 46.7C113.744 45.9373 113.612 45.0647 113.612 44.082C113.612 42.7767 113.832 41.6767 114.272 40.782C114.712 39.8727 115.343 39.1833 116.164 38.714C116.986 38.23 117.961 37.988 119.09 37.988C120.161 37.988 121.1 38.23 121.906 38.714C122.728 39.1833 123.366 39.8727 123.82 40.782C124.29 41.6767 124.524 42.7767 124.524 44.082ZM115.614 44.082C115.614 45.006 115.732 45.8127 115.966 46.502C116.216 47.1767 116.597 47.6973 117.11 48.064C117.624 48.4307 118.276 48.614 119.068 48.614C119.86 48.614 120.513 48.4307 121.026 48.064C121.54 47.6973 121.914 47.1767 122.148 46.502C122.398 45.8127 122.522 45.006 122.522 44.082C122.522 43.1433 122.398 42.344 122.148 41.684C121.899 41.024 121.518 40.518 121.004 40.166C120.506 39.7993 119.853 39.616 119.046 39.616C117.844 39.616 116.971 40.012 116.428 40.804C115.886 41.596 115.614 42.6887 115.614 44.082ZM137.141 33.324C137.082 34.0573 136.899 34.6733 136.591 35.172C136.297 35.6707 135.857 36.0447 135.271 36.294C134.684 36.5433 133.921 36.668 132.983 36.668C132.029 36.668 131.259 36.5433 130.673 36.294C130.101 36.0447 129.683 35.678 129.419 35.194C129.155 34.6953 128.993 34.072 128.935 33.324H130.739C130.812 34.116 131.017 34.6513 131.355 34.93C131.707 35.194 132.264 35.326 133.027 35.326C133.701 35.326 134.229 35.1867 134.611 34.908C135.007 34.6147 135.241 34.0867 135.315 33.324H137.141ZM129.419 45.402C129.419 45.534 129.411 45.7247 129.397 45.974C129.397 46.2087 129.389 46.4653 129.375 46.744C129.36 47.008 129.345 47.2647 129.331 47.514C129.316 47.7487 129.301 47.9393 129.287 48.086L135.601 38.208H137.977V50H136.173V43.048C136.173 42.8133 136.173 42.5053 136.173 42.124C136.187 41.7427 136.202 41.3687 136.217 41.002C136.231 40.6207 136.246 40.3347 136.261 40.144L129.991 50H127.593V38.208H129.419V45.402ZM149.869 39.836H146.019V50H144.105V39.836H140.299V38.208H149.869V39.836ZM156.531 37.988C157.543 37.988 158.409 38.208 159.127 38.648C159.861 39.088 160.418 39.7113 160.799 40.518C161.195 41.31 161.393 42.2413 161.393 43.312V44.478H153.319C153.349 45.8127 153.686 46.832 154.331 47.536C154.991 48.2253 155.908 48.57 157.081 48.57C157.829 48.57 158.489 48.504 159.061 48.372C159.648 48.2253 160.249 48.02 160.865 47.756V49.45C160.264 49.714 159.67 49.9047 159.083 50.022C158.497 50.154 157.8 50.22 156.993 50.22C155.879 50.22 154.889 49.9927 154.023 49.538C153.173 49.0833 152.505 48.4087 152.021 47.514C151.552 46.6047 151.317 45.4973 151.317 44.192C151.317 42.9013 151.53 41.794 151.955 40.87C152.395 39.946 153.004 39.2347 153.781 38.736C154.573 38.2373 155.49 37.988 156.531 37.988ZM156.509 39.572C155.585 39.572 154.852 39.8727 154.309 40.474C153.781 41.0607 153.466 41.882 153.363 42.938H159.369C159.369 42.2633 159.267 41.6767 159.061 41.178C158.856 40.6793 158.541 40.2907 158.115 40.012C157.705 39.7187 157.169 39.572 156.509 39.572ZM174.067 50.22C173.025 50.22 172.094 50.0073 171.273 49.582C170.466 49.1567 169.828 48.4967 169.359 47.602C168.904 46.7073 168.677 45.5633 168.677 44.17C168.677 42.718 168.919 41.5373 169.403 40.628C169.887 39.7187 170.539 39.0513 171.361 38.626C172.197 38.2007 173.143 37.988 174.199 37.988C174.8 37.988 175.379 38.054 175.937 38.186C176.494 38.3033 176.949 38.45 177.301 38.626L176.707 40.232C176.355 40.1 175.944 39.9753 175.475 39.858C175.005 39.7407 174.565 39.682 174.155 39.682C173.363 39.682 172.71 39.8507 172.197 40.188C171.683 40.5253 171.302 41.024 171.053 41.684C170.803 42.344 170.679 43.1653 170.679 44.148C170.679 45.0867 170.803 45.886 171.053 46.546C171.302 47.206 171.676 47.7047 172.175 48.042C172.673 48.3793 173.297 48.548 174.045 48.548C174.69 48.548 175.255 48.482 175.739 48.35C176.237 48.218 176.692 48.0567 177.103 47.866V49.582C176.707 49.7873 176.267 49.9413 175.783 50.044C175.313 50.1613 174.741 50.22 174.067 50.22ZM189.389 41.178C189.389 41.9113 189.169 42.4833 188.729 42.894C188.289 43.3047 187.724 43.5833 187.035 43.73V43.818C187.768 43.9207 188.406 44.1847 188.949 44.61C189.492 45.0207 189.763 45.666 189.763 46.546C189.763 47.0447 189.668 47.5067 189.477 47.932C189.301 48.3573 189.022 48.724 188.641 49.032C188.26 49.34 187.768 49.582 187.167 49.758C186.566 49.9193 185.84 50 184.989 50H179.907V38.208H184.967C185.803 38.208 186.551 38.3033 187.211 38.494C187.886 38.67 188.414 38.978 188.795 39.418C189.191 39.8433 189.389 40.43 189.389 41.178ZM187.761 46.546C187.761 45.8713 187.504 45.3873 186.991 45.094C186.478 44.8007 185.722 44.654 184.725 44.654H181.843V48.438H184.769C185.737 48.438 186.478 48.2987 186.991 48.02C187.504 47.7267 187.761 47.2353 187.761 46.546ZM187.431 41.42C187.431 40.8627 187.226 40.4593 186.815 40.21C186.419 39.946 185.766 39.814 184.857 39.814H181.843V43.048H184.505C185.458 43.048 186.184 42.916 186.683 42.652C187.182 42.388 187.431 41.9773 187.431 41.42ZM202.835 44.082C202.835 45.0647 202.703 45.9373 202.439 46.7C202.19 47.448 201.823 48.086 201.339 48.614C200.87 49.142 200.29 49.5453 199.601 49.824C198.926 50.088 198.171 50.22 197.335 50.22C196.558 50.22 195.839 50.088 195.179 49.824C194.519 49.5453 193.947 49.142 193.463 48.614C192.979 48.086 192.598 47.448 192.319 46.7C192.055 45.9373 191.923 45.0647 191.923 44.082C191.923 42.7767 192.143 41.6767 192.583 40.782C193.023 39.8727 193.654 39.1833 194.475 38.714C195.296 38.23 196.272 37.988 197.401 37.988C198.472 37.988 199.41 38.23 200.217 38.714C201.038 39.1833 201.676 39.8727 202.131 40.782C202.6 41.6767 202.835 42.7767 202.835 44.082ZM193.925 44.082C193.925 45.006 194.042 45.8127 194.277 46.502C194.526 47.1767 194.908 47.6973 195.421 48.064C195.934 48.4307 196.587 48.614 197.379 48.614C198.171 48.614 198.824 48.4307 199.337 48.064C199.85 47.6973 200.224 47.1767 200.459 46.502C200.708 45.8127 200.833 45.006 200.833 44.082C200.833 43.1433 200.708 42.344 200.459 41.684C200.21 41.024 199.828 40.518 199.315 40.166C198.816 39.7993 198.164 39.616 197.357 39.616C196.154 39.616 195.282 40.012 194.739 40.804C194.196 41.596 193.925 42.6887 193.925 44.082ZM215.451 33.324C215.393 34.0573 215.209 34.6733 214.901 35.172C214.608 35.6707 214.168 36.0447 213.581 36.294C212.995 36.5433 212.232 36.668 211.293 36.668C210.34 36.668 209.57 36.5433 208.983 36.294C208.411 36.0447 207.993 35.678 207.729 35.194C207.465 34.6953 207.304 34.072 207.245 33.324H209.049C209.123 34.116 209.328 34.6513 209.665 34.93C210.017 35.194 210.575 35.326 211.337 35.326C212.012 35.326 212.54 35.1867 212.921 34.908C213.317 34.6147 213.552 34.0867 213.625 33.324H215.451ZM207.729 45.402C207.729 45.534 207.722 45.7247 207.707 45.974C207.707 46.2087 207.7 46.4653 207.685 46.744C207.671 47.008 207.656 47.2647 207.641 47.514C207.627 47.7487 207.612 47.9393 207.597 48.086L213.911 38.208H216.287V50H214.483V43.048C214.483 42.8133 214.483 42.5053 214.483 42.124C214.498 41.7427 214.513 41.3687 214.527 41.002C214.542 40.6207 214.557 40.3347 214.571 40.144L208.301 50H205.903V38.208H207.729V45.402ZM234.947 38.208V50H233.011V39.858H226.917V50H224.981V38.208H234.947ZM248.962 44.082C248.962 45.0647 248.83 45.9373 248.566 46.7C248.317 47.448 247.95 48.086 247.466 48.614C246.997 49.142 246.417 49.5453 245.728 49.824C245.053 50.088 244.298 50.22 243.462 50.22C242.685 50.22 241.966 50.088 241.306 49.824C240.646 49.5453 240.074 49.142 239.59 48.614C239.106 48.086 238.725 47.448 238.446 46.7C238.182 45.9373 238.05 45.0647 238.05 44.082C238.05 42.7767 238.27 41.6767 238.71 40.782C239.15 39.8727 239.781 39.1833 240.602 38.714C241.423 38.23 242.399 37.988 243.528 37.988C244.599 37.988 245.537 38.23 246.344 38.714C247.165 39.1833 247.803 39.8727 248.258 40.782C248.727 41.6767 248.962 42.7767 248.962 44.082ZM240.052 44.082C240.052 45.006 240.169 45.8127 240.404 46.502C240.653 47.1767 241.035 47.6973 241.548 48.064C242.061 48.4307 242.714 48.614 243.506 48.614C244.298 48.614 244.951 48.4307 245.464 48.064C245.977 47.6973 246.351 47.1767 246.586 46.502C246.835 45.8127 246.96 45.006 246.96 44.082C246.96 43.1433 246.835 42.344 246.586 41.684C246.337 41.024 245.955 40.518 245.442 40.166C244.943 39.7993 244.291 39.616 243.484 39.616C242.281 39.616 241.409 40.012 240.866 40.804C240.323 41.596 240.052 42.6887 240.052 44.082ZM259.955 39.836H256.105V50H254.191V39.836H250.385V38.208H259.955V39.836ZM266.617 37.988C267.629 37.988 268.495 38.208 269.213 38.648C269.947 39.088 270.504 39.7113 270.885 40.518C271.281 41.31 271.479 42.2413 271.479 43.312V44.478H263.405C263.435 45.8127 263.772 46.832 264.417 47.536C265.077 48.2253 265.994 48.57 267.167 48.57C267.915 48.57 268.575 48.504 269.147 48.372C269.734 48.2253 270.335 48.02 270.951 47.756V49.45C270.35 49.714 269.756 49.9047 269.169 50.022C268.583 50.154 267.886 50.22 267.079 50.22C265.965 50.22 264.975 49.9927 264.109 49.538C263.259 49.0833 262.591 48.4087 262.107 47.514C261.638 46.6047 261.403 45.4973 261.403 44.192C261.403 42.9013 261.616 41.794 262.041 40.87C262.481 39.946 263.09 39.2347 263.867 38.736C264.659 38.2373 265.576 37.988 266.617 37.988ZM266.595 39.572C265.671 39.572 264.938 39.8727 264.395 40.474C263.867 41.0607 263.552 41.882 263.449 42.938H269.455C269.455 42.2633 269.353 41.6767 269.147 41.178C268.942 40.6793 268.627 40.2907 268.201 40.012C267.791 39.7187 267.255 39.572 266.595 39.572ZM276.417 38.208V43.114H282.819V38.208H284.755V50H282.819V44.742H276.417V50H274.481V38.208H276.417ZM300.127 54.092H298.235V50H288.489V38.208H290.425V48.372H296.519V38.208H298.455V48.394H300.127V54.092ZM304.216 45.402C304.216 45.534 304.208 45.7247 304.194 45.974C304.194 46.2087 304.186 46.4653 304.172 46.744C304.157 47.008 304.142 47.2647 304.128 47.514C304.113 47.7487 304.098 47.9393 304.084 48.086L310.398 38.208H312.774V50H310.97V43.048C310.97 42.8133 310.97 42.5053 310.97 42.124C310.984 41.7427 310.999 41.3687 311.014 41.002C311.028 40.6207 311.043 40.3347 311.058 40.144L304.788 50H302.39V38.208H304.216V45.402ZM320.992 38.01C322.43 38.01 323.493 38.3253 324.182 38.956C324.872 39.5867 325.216 40.5913 325.216 41.97V50H323.808L323.434 48.328H323.346C323.009 48.7533 322.657 49.1127 322.29 49.406C321.938 49.6847 321.528 49.89 321.058 50.022C320.604 50.154 320.046 50.22 319.386 50.22C318.682 50.22 318.044 50.0953 317.472 49.846C316.915 49.5967 316.475 49.2153 316.152 48.702C315.83 48.174 315.668 47.514 315.668 46.722C315.668 45.5487 316.13 44.6467 317.054 44.016C317.978 43.3707 319.401 43.0187 321.322 42.96L323.324 42.894V42.19C323.324 41.2073 323.112 40.5253 322.686 40.144C322.261 39.7627 321.66 39.572 320.882 39.572C320.266 39.572 319.68 39.6673 319.122 39.858C318.565 40.034 318.044 40.2393 317.56 40.474L316.966 39.022C317.48 38.7433 318.088 38.5087 318.792 38.318C319.496 38.1127 320.23 38.01 320.992 38.01ZM321.564 44.302C320.098 44.3607 319.078 44.5953 318.506 45.006C317.949 45.4167 317.67 45.996 317.67 46.744C317.67 47.404 317.868 47.888 318.264 48.196C318.675 48.504 319.196 48.658 319.826 48.658C320.824 48.658 321.652 48.3867 322.312 47.844C322.972 47.2867 323.302 46.436 323.302 45.292V44.236L321.564 44.302ZM337.834 50H335.876V39.814H332.4C332.254 41.6767 332.07 43.268 331.85 44.588C331.63 45.8933 331.352 46.9567 331.014 47.778C330.677 48.5993 330.274 49.2007 329.804 49.582C329.335 49.9633 328.785 50.154 328.154 50.154C327.964 50.154 327.773 50.1393 327.582 50.11C327.406 50.0953 327.26 50.0587 327.142 50V48.548C327.23 48.5773 327.326 48.5993 327.428 48.614C327.531 48.6287 327.634 48.636 327.736 48.636C328.059 48.636 328.352 48.504 328.616 48.24C328.88 47.976 329.115 47.5727 329.32 47.03C329.54 46.4873 329.738 45.8053 329.914 44.984C330.09 44.148 330.244 43.1653 330.376 42.036C330.508 40.9067 330.626 39.6307 330.728 38.208H337.834V50ZM57.6 77.22C56.5587 77.22 55.6273 77.0073 54.806 76.582C53.9993 76.1567 53.3613 75.4967 52.892 74.602C52.4373 73.7073 52.21 72.5633 52.21 71.17C52.21 69.718 52.452 68.5373 52.936 67.628C53.42 66.7187 54.0727 66.0513 54.894 65.626C55.73 65.2007 56.676 64.988 57.732 64.988C58.3333 64.988 58.9127 65.054 59.47 65.186C60.0273 65.3033 60.482 65.45 60.834 65.626L60.24 67.232C59.888 67.1 59.4773 66.9753 59.008 66.858C58.5387 66.7407 58.0987 66.682 57.688 66.682C56.896 66.682 56.2433 66.8507 55.73 67.188C55.2167 67.5253 54.8353 68.024 54.586 68.684C54.3367 69.344 54.212 70.1653 54.212 71.148C54.212 72.0867 54.3367 72.886 54.586 73.546C54.8353 74.206 55.2093 74.7047 55.708 75.042C56.2067 75.3793 56.83 75.548 57.578 75.548C58.2233 75.548 58.788 75.482 59.272 75.35C59.7707 75.218 60.2253 75.0567 60.636 74.866V76.582C60.24 76.7873 59.8 76.9413 59.316 77.044C58.8467 77.1613 58.2747 77.22 57.6 77.22ZM73.6923 71.082C73.6923 72.0647 73.5603 72.9373 73.2963 73.7C73.047 74.448 72.6803 75.086 72.1963 75.614C71.727 76.142 71.1476 76.5453 70.4583 76.824C69.7836 77.088 69.0283 77.22 68.1923 77.22C67.415 77.22 66.6963 77.088 66.0363 76.824C65.3763 76.5453 64.8043 76.142 64.3203 75.614C63.8363 75.086 63.455 74.448 63.1763 73.7C62.9123 72.9373 62.7803 72.0647 62.7803 71.082C62.7803 69.7767 63.0003 68.6767 63.4403 67.782C63.8803 66.8727 64.511 66.1833 65.3323 65.714C66.1536 65.23 67.129 64.988 68.2583 64.988C69.329 64.988 70.2676 65.23 71.0743 65.714C71.8956 66.1833 72.5336 66.8727 72.9883 67.782C73.4576 68.6767 73.6923 69.7767 73.6923 71.082ZM64.7823 71.082C64.7823 72.006 64.8996 72.8127 65.1343 73.502C65.3836 74.1767 65.765 74.6973 66.2783 75.064C66.7916 75.4307 67.4443 75.614 68.2363 75.614C69.0283 75.614 69.681 75.4307 70.1943 75.064C70.7076 74.6973 71.0816 74.1767 71.3163 73.502C71.5656 72.8127 71.6903 72.006 71.6903 71.082C71.6903 70.1433 71.5656 69.344 71.3163 68.684C71.067 68.024 70.6856 67.518 70.1723 67.166C69.6736 66.7993 69.021 66.616 68.2143 66.616C67.0116 66.616 66.139 67.012 65.5963 67.804C65.0536 68.596 64.7823 69.6887 64.7823 71.082ZM189.68 69.894C190.824 70.026 193.244 70.092 196.94 70.092C200.636 70.092 203.232 70.092 204.728 70.092C206.224 70.0773 207.309 70.0553 207.984 70.026C208.673 69.9967 209.194 69.982 209.546 69.982L208.886 71.654H208.732C207.661 71.522 202.828 71.456 194.234 71.456L188.866 71.588L189.526 69.894H189.68ZM62.836 92.208V104H60.9V93.858H54.806V104H52.87V92.208H62.836ZM71.1525 91.988C72.1645 91.988 73.0298 92.208 73.7485 92.648C74.4818 93.088 75.0392 93.7113 75.4205 94.518C75.8165 95.31 76.0145 96.2413 76.0145 97.312V98.478H67.9405C67.9698 99.8127 68.3072 100.832 68.9525 101.536C69.6125 102.225 70.5292 102.57 71.7025 102.57C72.4505 102.57 73.1105 102.504 73.6825 102.372C74.2692 102.225 74.8705 102.02 75.4865 101.756V103.45C74.8852 103.714 74.2912 103.905 73.7045 104.022C73.1178 104.154 72.4212 104.22 71.6145 104.22C70.4998 104.22 69.5098 103.993 68.6445 103.538C67.7938 103.083 67.1265 102.409 66.6425 101.514C66.1732 100.605 65.9385 99.4973 65.9385 98.192C65.9385 96.9013 66.1512 95.794 66.5765 94.87C67.0165 93.946 67.6252 93.2347 68.4025 92.736C69.1945 92.2373 70.1112 91.988 71.1525 91.988ZM71.1305 93.572C70.2065 93.572 69.4732 93.8727 68.9305 94.474C68.4025 95.0607 68.0872 95.882 67.9845 96.938H73.9905C73.9905 96.2633 73.8878 95.6767 73.6825 95.178C73.4772 94.6793 73.1618 94.2907 72.7365 94.012C72.3258 93.7187 71.7905 93.572 71.1305 93.572ZM84.6265 91.988C86.0785 91.988 87.2445 92.494 88.1245 93.506C89.0192 94.518 89.4665 96.0433 89.4665 98.082C89.4665 99.4167 89.2612 100.546 88.8505 101.47C88.4545 102.379 87.8898 103.069 87.1565 103.538C86.4378 103.993 85.5872 104.22 84.6045 104.22C84.0032 104.22 83.4678 104.139 82.9985 103.978C82.5292 103.817 82.1258 103.611 81.7885 103.362C81.4658 103.098 81.1872 102.812 80.9525 102.504H80.8205C80.8498 102.753 80.8792 103.069 80.9085 103.45C80.9378 103.831 80.9525 104.161 80.9525 104.44V109.28H79.0165V92.208H80.6005L80.8645 93.814H80.9525C81.1872 93.4767 81.4658 93.1687 81.7885 92.89C82.1258 92.6113 82.5218 92.3913 82.9765 92.23C83.4458 92.0687 83.9958 91.988 84.6265 91.988ZM84.2745 93.616C83.4825 93.616 82.8445 93.77 82.3605 94.078C81.8765 94.3713 81.5245 94.8187 81.3045 95.42C81.0845 96.0213 80.9672 96.784 80.9525 97.708V98.082C80.9525 99.05 81.0552 99.8713 81.2605 100.546C81.4658 101.221 81.8105 101.734 82.2945 102.086C82.7932 102.438 83.4678 102.614 84.3185 102.614C85.0372 102.614 85.6238 102.416 86.0785 102.02C86.5478 101.624 86.8925 101.089 87.1125 100.414C87.3472 99.7247 87.4645 98.94 87.4645 98.06C87.4645 96.7107 87.2005 95.6327 86.6725 94.826C86.1592 94.0193 85.3598 93.616 84.2745 93.616ZM97.2816 104.22C96.2403 104.22 95.309 104.007 94.4876 103.582C93.681 103.157 93.043 102.497 92.5736 101.602C92.119 100.707 91.8916 99.5633 91.8916 98.17C91.8916 96.718 92.1336 95.5373 92.6176 94.628C93.1016 93.7187 93.7543 93.0513 94.5756 92.626C95.4116 92.2007 96.3576 91.988 97.4136 91.988C98.015 91.988 98.5943 92.054 99.1516 92.186C99.709 92.3033 100.164 92.45 100.516 92.626L99.9216 94.232C99.5696 94.1 99.159 93.9753 98.6896 93.858C98.2203 93.7407 97.7803 93.682 97.3696 93.682C96.5776 93.682 95.925 93.8507 95.4116 94.188C94.8983 94.5253 94.517 95.024 94.2676 95.684C94.0183 96.344 93.8936 97.1653 93.8936 98.148C93.8936 99.0867 94.0183 99.886 94.2676 100.546C94.517 101.206 94.891 101.705 95.3896 102.042C95.8883 102.379 96.5116 102.548 97.2596 102.548C97.905 102.548 98.4696 102.482 98.9536 102.35C99.4523 102.218 99.907 102.057 100.318 101.866V103.582C99.9216 103.787 99.4816 103.941 98.9976 104.044C98.5283 104.161 97.9563 104.22 97.2816 104.22ZM113.374 98.082C113.374 99.0647 113.242 99.9373 112.978 100.7C112.729 101.448 112.362 102.086 111.878 102.614C111.409 103.142 110.829 103.545 110.14 103.824C109.465 104.088 108.71 104.22 107.874 104.22C107.097 104.22 106.378 104.088 105.718 103.824C105.058 103.545 104.486 103.142 104.002 102.614C103.518 102.086 103.137 101.448 102.858 100.7C102.594 99.9373 102.462 99.0647 102.462 98.082C102.462 96.7767 102.682 95.6767 103.122 94.782C103.562 93.8727 104.193 93.1833 105.014 92.714C105.835 92.23 106.811 91.988 107.94 91.988C109.011 91.988 109.949 92.23 110.756 92.714C111.577 93.1833 112.215 93.8727 112.67 94.782C113.139 95.6767 113.374 96.7767 113.374 98.082ZM104.464 98.082C104.464 99.006 104.581 99.8127 104.816 100.502C105.065 101.177 105.447 101.697 105.96 102.064C106.473 102.431 107.126 102.614 107.918 102.614C108.71 102.614 109.363 102.431 109.876 102.064C110.389 101.697 110.763 101.177 110.998 100.502C111.247 99.8127 111.372 99.006 111.372 98.082C111.372 97.1433 111.247 96.344 110.998 95.684C110.749 95.024 110.367 94.518 109.854 94.166C109.355 93.7993 108.703 93.616 107.896 93.616C106.693 93.616 105.821 94.012 105.278 94.804C104.735 95.596 104.464 96.6887 104.464 98.082ZM118.378 92.208V97.114H124.78V92.208H126.716V104H124.78V98.742H118.378V104H116.442V92.208H118.378ZM134.916 92.01C136.353 92.01 137.417 92.3253 138.106 92.956C138.795 93.5867 139.14 94.5913 139.14 95.97V104H137.732L137.358 102.328H137.27C136.933 102.753 136.581 103.113 136.214 103.406C135.862 103.685 135.451 103.89 134.982 104.022C134.527 104.154 133.97 104.22 133.31 104.22C132.606 104.22 131.968 104.095 131.396 103.846C130.839 103.597 130.399 103.215 130.076 102.702C129.753 102.174 129.592 101.514 129.592 100.722C129.592 99.5487 130.054 98.6467 130.978 98.016C131.902 97.3707 133.325 97.0187 135.246 96.96L137.248 96.894V96.19C137.248 95.2073 137.035 94.5253 136.61 94.144C136.185 93.7627 135.583 93.572 134.806 93.572C134.19 93.572 133.603 93.6673 133.046 93.858C132.489 94.034 131.968 94.2393 131.484 94.474L130.89 93.022C131.403 92.7433 132.012 92.5087 132.716 92.318C133.42 92.1127 134.153 92.01 134.916 92.01ZM135.488 98.302C134.021 98.3607 133.002 98.5953 132.43 99.006C131.873 99.4167 131.594 99.996 131.594 100.744C131.594 101.404 131.792 101.888 132.188 102.196C132.599 102.504 133.119 102.658 133.75 102.658C134.747 102.658 135.576 102.387 136.236 101.844C136.896 101.287 137.226 100.436 137.226 99.292V98.236L135.488 98.302ZM151.758 104H149.8V93.814H146.324C146.177 95.6767 145.994 97.268 145.774 98.588C145.554 99.8933 145.275 100.957 144.938 101.778C144.601 102.599 144.197 103.201 143.728 103.582C143.259 103.963 142.709 104.154 142.078 104.154C141.887 104.154 141.697 104.139 141.506 104.11C141.33 104.095 141.183 104.059 141.066 104V102.548C141.154 102.577 141.249 102.599 141.352 102.614C141.455 102.629 141.557 102.636 141.66 102.636C141.983 102.636 142.276 102.504 142.54 102.24C142.804 101.976 143.039 101.573 143.244 101.03C143.464 100.487 143.662 99.8053 143.838 98.984C144.014 98.148 144.168 97.1653 144.3 96.036C144.432 94.9067 144.549 93.6307 144.652 92.208H151.758V104ZM160.935 97.048C161.962 97.048 162.812 97.1727 163.487 97.422C164.162 97.6713 164.668 98.0453 165.005 98.544C165.357 99.028 165.533 99.644 165.533 100.392C165.533 101.125 165.364 101.763 165.027 102.306C164.704 102.849 164.198 103.267 163.509 103.56C162.82 103.853 161.932 104 160.847 104H155.501V92.208H157.437V97.048H160.935ZM163.597 100.502C163.597 99.7833 163.34 99.2993 162.827 99.05C162.328 98.786 161.624 98.654 160.715 98.654H157.437V102.438H160.759C161.58 102.438 162.255 102.291 162.783 101.998C163.326 101.705 163.597 101.206 163.597 100.502ZM170.499 92.208V97.114H176.901V92.208H178.837V104H176.901V98.742H170.499V104H168.563V92.208H170.499ZM182.571 104V92.208H184.507V97.048H187.565C188.592 97.048 189.435 97.1727 190.095 97.422C190.755 97.6713 191.247 98.0453 191.569 98.544C191.892 99.028 192.053 99.644 192.053 100.392C192.053 101.125 191.892 101.763 191.569 102.306C191.261 102.849 190.77 103.267 190.095 103.56C189.435 103.853 188.563 104 187.477 104H182.571ZM187.301 102.438C188.137 102.438 188.819 102.299 189.347 102.02C189.875 101.727 190.139 101.221 190.139 100.502C190.139 99.7833 189.897 99.2993 189.413 99.05C188.929 98.786 188.233 98.654 187.323 98.654H184.507V102.438H187.301ZM194.011 104V92.208H195.947V104H194.011ZM212.344 92.208V104H210.606V96.476C210.606 96.168 210.614 95.8453 210.628 95.508C210.658 95.1707 210.687 94.8407 210.716 94.518H210.65L206.8 104H205.172L201.432 94.518H201.366C201.396 94.8407 201.41 95.1707 201.41 95.508C201.425 95.8453 201.432 96.19 201.432 96.542V104H199.694V92.208H202.268L205.986 101.69L209.77 92.208H212.344ZM227.408 98.632C226.821 98.6173 225.992 98.61 224.922 98.61C223.851 98.61 223.037 98.6173 222.48 98.632C222.069 100.275 221.812 101.367 221.71 101.91C221.622 102.438 221.578 103.01 221.578 103.626V104H218.586V103.78C219.246 103.267 220.126 101.235 221.226 97.686C222.34 94.122 223.059 91.79 223.382 90.69C223.719 89.59 223.902 88.886 223.932 88.578L226.506 88.314C226.506 88.8273 226.968 90.4333 227.892 93.132C228.816 95.816 229.556 97.8913 230.114 99.358C230.686 100.825 231.126 101.844 231.434 102.416C231.742 102.988 232.086 103.443 232.468 103.78V104H228.772V103.626C228.772 103.098 228.698 102.607 228.552 102.152C228.42 101.697 228.332 101.404 228.288 101.272L227.408 98.632ZM224.856 90.228C224.562 91.0053 223.858 93.3887 222.744 97.378H227.034C226.77 96.5713 226.381 95.3027 225.868 93.572C225.354 91.8413 225.017 90.7267 224.856 90.228ZM236.763 93.44V99.38C236.763 99.9227 236.792 100.722 236.851 101.778C236.924 102.819 237.005 103.509 237.093 103.846V104H234.167V103.846C234.387 102.995 234.497 101.433 234.497 99.16V93.22C234.497 91.0933 234.387 89.6047 234.167 88.754V88.6H237.093V88.754C237.005 89.0913 236.924 89.8173 236.851 90.932C236.792 92.0467 236.763 92.8827 236.763 93.44ZM240.297 96.894C240.884 97.026 241.544 97.092 242.277 97.092L244.169 97.07C244.492 97.07 244.99 97.0553 245.665 97.026C246.354 96.9967 246.875 96.982 247.227 96.982L246.567 98.698H246.413C245.416 98.566 244.088 98.5 242.431 98.5L239.483 98.632L240.143 96.894H240.297ZM257.248 93.836H253.398V104H251.484V93.836H247.678V92.208H257.248V93.836ZM265.181 91.988C266.633 91.988 267.799 92.494 268.679 93.506C269.574 94.518 270.021 96.0433 270.021 98.082C270.021 99.4167 269.816 100.546 269.405 101.47C269.009 102.379 268.445 103.069 267.711 103.538C266.993 103.993 266.142 104.22 265.159 104.22C264.558 104.22 264.023 104.139 263.553 103.978C263.084 103.817 262.681 103.611 262.343 103.362C262.021 103.098 261.742 102.812 261.507 102.504H261.375C261.405 102.753 261.434 103.069 261.463 103.45C261.493 103.831 261.507 104.161 261.507 104.44V109.28H259.571V92.208H261.155L261.419 93.814H261.507C261.742 93.4767 262.021 93.1687 262.343 92.89C262.681 92.6113 263.077 92.3913 263.531 92.23C264.001 92.0687 264.551 91.988 265.181 91.988ZM264.829 93.616C264.037 93.616 263.399 93.77 262.915 94.078C262.431 94.3713 262.079 94.8187 261.859 95.42C261.639 96.0213 261.522 96.784 261.507 97.708V98.082C261.507 99.05 261.61 99.8713 261.815 100.546C262.021 101.221 262.365 101.734 262.849 102.086C263.348 102.438 264.023 102.614 264.873 102.614C265.592 102.614 266.179 102.416 266.633 102.02C267.103 101.624 267.447 101.089 267.667 100.414C267.902 99.7247 268.019 98.94 268.019 98.06C268.019 96.7107 267.755 95.6327 267.227 94.826C266.714 94.0193 265.915 93.616 264.829 93.616ZM277.66 91.988C278.672 91.988 279.538 92.208 280.256 92.648C280.99 93.088 281.547 93.7113 281.928 94.518C282.324 95.31 282.522 96.2413 282.522 97.312V98.478H274.448C274.478 99.8127 274.815 100.832 275.46 101.536C276.12 102.225 277.037 102.57 278.21 102.57C278.958 102.57 279.618 102.504 280.19 102.372C280.777 102.225 281.378 102.02 281.994 101.756V103.45C281.393 103.714 280.799 103.905 280.212 104.022C279.626 104.154 278.929 104.22 278.122 104.22C277.008 104.22 276.018 103.993 275.152 103.538C274.302 103.083 273.634 102.409 273.15 101.514C272.681 100.605 272.446 99.4973 272.446 98.192C272.446 96.9013 272.659 95.794 273.084 94.87C273.524 93.946 274.133 93.2347 274.91 92.736C275.702 92.2373 276.619 91.988 277.66 91.988ZM277.638 93.572C276.714 93.572 275.981 93.8727 275.438 94.474C274.91 95.0607 274.595 95.882 274.492 96.938H280.498C280.498 96.2633 280.396 95.6767 280.19 95.178C279.985 94.6793 279.67 94.2907 279.244 94.012C278.834 93.7187 278.298 93.572 277.638 93.572ZM287.46 92.208V97.114H293.862V92.208H295.798V104H293.862V98.742H287.46V104H285.524V92.208H287.46ZM304.086 91.988C305.098 91.988 305.963 92.208 306.682 92.648C307.415 93.088 307.973 93.7113 308.354 94.518C308.75 95.31 308.948 96.2413 308.948 97.312V98.478H300.874C300.903 99.8127 301.241 100.832 301.886 101.536C302.546 102.225 303.463 102.57 304.636 102.57C305.384 102.57 306.044 102.504 306.616 102.372C307.203 102.225 307.804 102.02 308.42 101.756V103.45C307.819 103.714 307.225 103.905 306.638 104.022C306.051 104.154 305.355 104.22 304.548 104.22C303.433 104.22 302.443 103.993 301.578 103.538C300.727 103.083 300.06 102.409 299.576 101.514C299.107 100.605 298.872 99.4973 298.872 98.192C298.872 96.9013 299.085 95.794 299.51 94.87C299.95 93.946 300.559 93.2347 301.336 92.736C302.128 92.2373 303.045 91.988 304.086 91.988ZM304.064 93.572C303.14 93.572 302.407 93.8727 301.864 94.474C301.336 95.0607 301.021 95.882 300.918 96.938H306.924C306.924 96.2633 306.821 95.6767 306.616 95.178C306.411 94.6793 306.095 94.2907 305.67 94.012C305.259 93.7187 304.724 93.572 304.064 93.572ZM317.56 91.988C319.012 91.988 320.178 92.494 321.058 93.506C321.953 94.518 322.4 96.0433 322.4 98.082C322.4 99.4167 322.195 100.546 321.784 101.47C321.388 102.379 320.823 103.069 320.09 103.538C319.371 103.993 318.521 104.22 317.538 104.22C316.937 104.22 316.401 104.139 315.932 103.978C315.463 103.817 315.059 103.611 314.722 103.362C314.399 103.098 314.121 102.812 313.886 102.504H313.754C313.783 102.753 313.813 103.069 313.842 103.45C313.871 103.831 313.886 104.161 313.886 104.44V109.28H311.95V92.208H313.534L313.798 93.814H313.886C314.121 93.4767 314.399 93.1687 314.722 92.89C315.059 92.6113 315.455 92.3913 315.91 92.23C316.379 92.0687 316.929 91.988 317.56 91.988ZM317.208 93.616C316.416 93.616 315.778 93.77 315.294 94.078C314.81 94.3713 314.458 94.8187 314.238 95.42C314.018 96.0213 313.901 96.784 313.886 97.708V98.082C313.886 99.05 313.989 99.8713 314.194 100.546C314.399 101.221 314.744 101.734 315.228 102.086C315.727 102.438 316.401 102.614 317.252 102.614C317.971 102.614 318.557 102.416 319.012 102.02C319.481 101.624 319.826 101.089 320.046 100.414C320.281 99.7247 320.398 98.94 320.398 98.06C320.398 96.7107 320.134 95.6327 319.606 94.826C319.093 94.0193 318.293 93.616 317.208 93.616ZM335.737 98.082C335.737 99.0647 335.605 99.9373 335.341 100.7C335.092 101.448 334.725 102.086 334.241 102.614C333.772 103.142 333.193 103.545 332.503 103.824C331.829 104.088 331.073 104.22 330.237 104.22C329.46 104.22 328.741 104.088 328.081 103.824C327.421 103.545 326.849 103.142 326.365 102.614C325.881 102.086 325.5 101.448 325.221 100.7C324.957 99.9373 324.825 99.0647 324.825 98.082C324.825 96.7767 325.045 95.6767 325.485 94.782C325.925 93.8727 326.556 93.1833 327.377 92.714C328.199 92.23 329.174 91.988 330.303 91.988C331.374 91.988 332.313 92.23 333.119 92.714C333.941 93.1833 334.579 93.8727 335.033 94.782C335.503 95.6767 335.737 96.7767 335.737 98.082ZM326.827 98.082C326.827 99.006 326.945 99.8127 327.179 100.502C327.429 101.177 327.81 101.697 328.323 102.064C328.837 102.431 329.489 102.614 330.281 102.614C331.073 102.614 331.726 102.431 332.239 102.064C332.753 101.697 333.127 101.177 333.361 100.502C333.611 99.8127 333.735 99.006 333.735 98.082C333.735 97.1433 333.611 96.344 333.361 95.684C333.112 95.024 332.731 94.518 332.217 94.166C331.719 93.7993 331.066 93.616 330.259 93.616C329.057 93.616 328.184 94.012 327.641 94.804C327.099 95.596 326.827 96.6887 326.827 98.082ZM351.456 92.208V104H349.718V96.476C349.718 96.168 349.725 95.8453 349.74 95.508C349.769 95.1707 349.798 94.8407 349.828 94.518H349.762L345.912 104H344.284L340.544 94.518H340.478C340.507 94.8407 340.522 95.1707 340.522 95.508C340.536 95.8453 340.544 96.19 340.544 96.542V104H338.806V92.208H341.38L345.098 101.69L348.882 92.208H351.456ZM62.836 119.208V131H60.9V120.858H54.806V131H52.87V119.208H62.836ZM64.7505 119.208H66.8185L69.3705 125.918C69.5172 126.314 69.6492 126.695 69.7665 127.062C69.8985 127.429 70.0158 127.788 70.1185 128.14C70.2212 128.477 70.3018 128.807 70.3605 129.13H70.4485C70.5365 128.763 70.6758 128.287 70.8665 127.7C71.0572 127.099 71.2552 126.497 71.4605 125.896L73.8585 119.208H75.9485L70.8665 132.628C70.5878 133.361 70.2578 133.999 69.8765 134.542C69.5098 135.099 69.0552 135.525 68.5125 135.818C67.9845 136.126 67.3392 136.28 66.5765 136.28C66.2245 136.28 65.9165 136.258 65.6525 136.214C65.3885 136.185 65.1612 136.148 64.9705 136.104V134.564C65.1318 134.593 65.3225 134.623 65.5425 134.652C65.7772 134.681 66.0192 134.696 66.2685 134.696C66.7232 134.696 67.1118 134.608 67.4345 134.432C67.7718 134.271 68.0578 134.029 68.2925 133.706C68.5272 133.398 68.7252 133.031 68.8865 132.606L69.5025 131.044L64.7505 119.208ZM77.1974 123.916C77.1974 122.2 77.366 120.741 77.7034 119.538C78.0554 118.321 78.5907 117.353 79.3094 116.634C80.0427 115.901 80.9814 115.409 82.1254 115.16C83.0787 114.955 84.01 114.771 84.9194 114.61C85.8287 114.449 86.6794 114.302 87.4714 114.17L87.8014 115.864C87.42 115.923 86.9947 115.996 86.5254 116.084C86.056 116.157 85.5794 116.238 85.0954 116.326C84.6114 116.399 84.142 116.48 83.6874 116.568C83.2474 116.641 82.8587 116.715 82.5214 116.788C82.0374 116.891 81.6047 117.067 81.2234 117.316C80.842 117.551 80.512 117.873 80.2334 118.284C79.9694 118.695 79.7567 119.201 79.5954 119.802C79.434 120.403 79.3387 121.115 79.3094 121.936H79.4414C79.6467 121.657 79.9254 121.371 80.2774 121.078C80.644 120.785 81.0767 120.535 81.5754 120.33C82.0887 120.125 82.668 120.022 83.3134 120.022C84.34 120.022 85.1907 120.249 85.8654 120.704C86.5547 121.144 87.068 121.76 87.4054 122.552C87.7574 123.344 87.9334 124.268 87.9334 125.324C87.9334 126.629 87.706 127.722 87.2514 128.602C86.7967 129.482 86.166 130.142 85.3594 130.582C84.5527 131.007 83.614 131.22 82.5434 131.22C81.7367 131.22 81.0034 131.066 80.3434 130.758C79.6834 130.435 79.1187 129.966 78.6494 129.35C78.18 128.734 77.8207 127.971 77.5714 127.062C77.322 126.153 77.1974 125.104 77.1974 123.916ZM82.6974 129.614C83.3427 129.614 83.9 129.482 84.3694 129.218C84.8534 128.954 85.2274 128.521 85.4914 127.92C85.7554 127.319 85.8874 126.519 85.8874 125.522C85.8874 124.319 85.66 123.373 85.2054 122.684C84.7654 121.98 84.032 121.628 83.0054 121.628C82.36 121.628 81.7734 121.775 81.2454 122.068C80.7174 122.347 80.2774 122.669 79.9254 123.036C79.5734 123.403 79.324 123.711 79.1774 123.96C79.1774 124.679 79.2287 125.375 79.3314 126.05C79.434 126.725 79.61 127.333 79.8594 127.876C80.1234 128.404 80.4827 128.829 80.9374 129.152C81.4067 129.46 81.9934 129.614 82.6974 129.614ZM99.9593 131H98.0013V120.814H94.5253C94.3786 122.677 94.1953 124.268 93.9753 125.588C93.7553 126.893 93.4766 127.957 93.1393 128.778C92.8019 129.599 92.3986 130.201 91.9293 130.582C91.4599 130.963 90.9099 131.154 90.2793 131.154C90.0886 131.154 89.8979 131.139 89.7073 131.11C89.5313 131.095 89.3846 131.059 89.2673 131V129.548C89.3553 129.577 89.4506 129.599 89.5533 129.614C89.6559 129.629 89.7586 129.636 89.8613 129.636C90.1839 129.636 90.4773 129.504 90.7413 129.24C91.0053 128.976 91.2399 128.573 91.4453 128.03C91.6653 127.487 91.8633 126.805 92.0393 125.984C92.2153 125.148 92.3693 124.165 92.5013 123.036C92.6333 121.907 92.7506 120.631 92.8533 119.208H99.9593V131ZM105.528 126.402C105.528 126.534 105.521 126.725 105.506 126.974C105.506 127.209 105.499 127.465 105.484 127.744C105.469 128.008 105.455 128.265 105.44 128.514C105.425 128.749 105.411 128.939 105.396 129.086L111.71 119.208H114.086V131H112.282V124.048C112.282 123.813 112.282 123.505 112.282 123.124C112.297 122.743 112.311 122.369 112.326 122.002C112.341 121.621 112.355 121.335 112.37 121.144L106.1 131H103.702V119.208H105.528V126.402ZM119.533 123.498C119.533 124.187 119.723 124.701 120.105 125.038C120.501 125.361 121.065 125.522 121.799 125.522C122.532 125.522 123.199 125.412 123.801 125.192C124.402 124.957 125.018 124.649 125.649 124.268V119.208H127.585V131H125.649V125.742C124.989 126.167 124.336 126.505 123.691 126.754C123.06 126.989 122.297 127.106 121.403 127.106C120.2 127.106 119.261 126.791 118.587 126.16C117.927 125.529 117.597 124.686 117.597 123.63V119.208H119.533V123.498ZM133.267 119.208V124.114H139.669V119.208H141.605V131H139.669V125.742H133.267V131H131.331V119.208H133.267ZM145.339 131V119.208H147.275V124.048H150.333C151.359 124.048 152.203 124.173 152.863 124.422C153.523 124.671 154.014 125.045 154.337 125.544C154.659 126.028 154.821 126.644 154.821 127.392C154.821 128.125 154.659 128.763 154.337 129.306C154.029 129.849 153.537 130.267 152.863 130.56C152.203 130.853 151.33 131 150.245 131H145.339ZM150.069 129.438C150.905 129.438 151.587 129.299 152.115 129.02C152.643 128.727 152.907 128.221 152.907 127.502C152.907 126.783 152.665 126.299 152.181 126.05C151.697 125.786 151 125.654 150.091 125.654H147.275V129.438H150.069ZM156.779 131V119.208H158.715V131H156.779ZM165.256 124.972L161.186 119.208H163.386L166.422 123.652L169.436 119.208H171.614L167.544 124.972L171.834 131H169.634L166.422 126.292L163.166 131H160.988L165.256 124.972ZM188.53 122.178C188.53 122.911 188.31 123.483 187.87 123.894C187.43 124.305 186.865 124.583 186.176 124.73V124.818C186.909 124.921 187.547 125.185 188.09 125.61C188.632 126.021 188.904 126.666 188.904 127.546C188.904 128.045 188.808 128.507 188.618 128.932C188.442 129.357 188.163 129.724 187.782 130.032C187.4 130.34 186.909 130.582 186.308 130.758C185.706 130.919 184.98 131 184.13 131H179.048V119.208H184.108C184.944 119.208 185.692 119.303 186.352 119.494C187.026 119.67 187.554 119.978 187.936 120.418C188.332 120.843 188.53 121.43 188.53 122.178ZM186.902 127.546C186.902 126.871 186.645 126.387 186.132 126.094C185.618 125.801 184.863 125.654 183.866 125.654H180.984V129.438H183.91C184.878 129.438 185.618 129.299 186.132 129.02C186.645 128.727 186.902 128.235 186.902 127.546ZM186.572 122.42C186.572 121.863 186.366 121.459 185.956 121.21C185.56 120.946 184.907 120.814 183.998 120.814H180.984V124.048H183.646C184.599 124.048 185.325 123.916 185.824 123.652C186.322 123.388 186.572 122.977 186.572 122.42ZM191.724 131V119.208H193.66V124.048H196.718C197.744 124.048 198.588 124.173 199.248 124.422C199.908 124.671 200.399 125.045 200.722 125.544C201.044 126.028 201.206 126.644 201.206 127.392C201.206 128.125 201.044 128.763 200.722 129.306C200.414 129.849 199.922 130.267 199.248 130.56C198.588 130.853 197.715 131 196.63 131H191.724ZM196.454 129.438C197.29 129.438 197.972 129.299 198.5 129.02C199.028 128.727 199.292 128.221 199.292 127.502C199.292 126.783 199.05 126.299 198.566 126.05C198.082 125.786 197.385 125.654 196.476 125.654H193.66V129.438H196.454ZM203.164 131V119.208H205.1V131H203.164ZM213.577 131.22C212.535 131.22 211.604 131.007 210.783 130.582C209.976 130.157 209.338 129.497 208.869 128.602C208.414 127.707 208.187 126.563 208.187 125.17C208.187 123.718 208.429 122.537 208.913 121.628C209.397 120.719 210.049 120.051 210.871 119.626C211.707 119.201 212.653 118.988 213.709 118.988C214.31 118.988 214.889 119.054 215.447 119.186C216.004 119.303 216.459 119.45 216.811 119.626L216.217 121.232C215.865 121.1 215.454 120.975 214.985 120.858C214.515 120.741 214.075 120.682 213.665 120.682C212.873 120.682 212.22 120.851 211.707 121.188C211.193 121.525 210.812 122.024 210.563 122.684C210.313 123.344 210.189 124.165 210.189 125.148C210.189 126.087 210.313 126.886 210.563 127.546C210.812 128.206 211.186 128.705 211.685 129.042C212.183 129.379 212.807 129.548 213.555 129.548C214.2 129.548 214.765 129.482 215.249 129.35C215.747 129.218 216.202 129.057 216.613 128.866V130.582C216.217 130.787 215.777 130.941 215.293 131.044C214.823 131.161 214.251 131.22 213.577 131.22ZM227.557 120.836H223.707V131H221.793V120.836H217.987V119.208H227.557V120.836ZM228.032 119.208H230.1L232.652 125.918C232.798 126.314 232.93 126.695 233.048 127.062C233.18 127.429 233.297 127.788 233.4 128.14C233.502 128.477 233.583 128.807 233.642 129.13H233.73C233.818 128.763 233.957 128.287 234.148 127.7C234.338 127.099 234.536 126.497 234.742 125.896L237.14 119.208H239.23L234.148 132.628C233.869 133.361 233.539 133.999 233.158 134.542C232.791 135.099 232.336 135.525 231.794 135.818C231.266 136.126 230.62 136.28 229.858 136.28C229.506 136.28 229.198 136.258 228.934 136.214C228.67 136.185 228.442 136.148 228.252 136.104V134.564C228.413 134.593 228.604 134.623 228.824 134.652C229.058 134.681 229.3 134.696 229.55 134.696C230.004 134.696 230.393 134.608 230.716 134.432C231.053 134.271 231.339 134.029 231.574 133.706C231.808 133.398 232.006 133.031 232.168 132.606L232.784 131.044L228.032 119.208ZM251.061 119.208V131H249.125V120.858H243.031V131H241.095V119.208H251.061ZM263.799 131H261.841V120.814H258.365C258.218 122.677 258.035 124.268 257.815 125.588C257.595 126.893 257.316 127.957 256.979 128.778C256.642 129.599 256.238 130.201 255.769 130.582C255.3 130.963 254.75 131.154 254.119 131.154C253.928 131.154 253.738 131.139 253.547 131.11C253.371 131.095 253.224 131.059 253.107 131V129.548C253.195 129.577 253.29 129.599 253.393 129.614C253.496 129.629 253.598 129.636 253.701 129.636C254.024 129.636 254.317 129.504 254.581 129.24C254.845 128.976 255.08 128.573 255.285 128.03C255.505 127.487 255.703 126.805 255.879 125.984C256.055 125.148 256.209 124.165 256.341 123.036C256.473 121.907 256.59 120.631 256.693 119.208H263.799V131ZM272.096 118.988C273.108 118.988 273.973 119.208 274.692 119.648C275.425 120.088 275.983 120.711 276.364 121.518C276.76 122.31 276.958 123.241 276.958 124.312V125.478H268.884C268.913 126.813 269.251 127.832 269.896 128.536C270.556 129.225 271.473 129.57 272.646 129.57C273.394 129.57 274.054 129.504 274.626 129.372C275.213 129.225 275.814 129.02 276.43 128.756V130.45C275.829 130.714 275.235 130.905 274.648 131.022C274.061 131.154 273.365 131.22 272.558 131.22C271.443 131.22 270.453 130.993 269.588 130.538C268.737 130.083 268.07 129.409 267.586 128.514C267.117 127.605 266.882 126.497 266.882 125.192C266.882 123.901 267.095 122.794 267.52 121.87C267.96 120.946 268.569 120.235 269.346 119.736C270.138 119.237 271.055 118.988 272.096 118.988ZM272.074 120.572C271.15 120.572 270.417 120.873 269.874 121.474C269.346 122.061 269.031 122.882 268.928 123.938H274.934C274.934 123.263 274.831 122.677 274.626 122.178C274.421 121.679 274.105 121.291 273.68 121.012C273.269 120.719 272.734 120.572 272.074 120.572ZM281.896 119.208V124.114H288.298V119.208H290.234V131H288.298V125.742H281.896V131H279.96V119.208H281.896ZM295.794 126.402C295.794 126.534 295.786 126.725 295.772 126.974C295.772 127.209 295.764 127.465 295.75 127.744C295.735 128.008 295.72 128.265 295.706 128.514C295.691 128.749 295.676 128.939 295.662 129.086L301.976 119.208H304.352V131H302.548V124.048C302.548 123.813 302.548 123.505 302.548 123.124C302.562 122.743 302.577 122.369 302.592 122.002C302.606 121.621 302.621 121.335 302.636 121.144L296.366 131H293.968V119.208H295.794V126.402ZM317.652 114.324C317.594 115.057 317.41 115.673 317.102 116.172C316.809 116.671 316.369 117.045 315.782 117.294C315.196 117.543 314.433 117.668 313.494 117.668C312.541 117.668 311.771 117.543 311.184 117.294C310.612 117.045 310.194 116.678 309.93 116.194C309.666 115.695 309.505 115.072 309.446 114.324H311.25C311.324 115.116 311.529 115.651 311.866 115.93C312.218 116.194 312.776 116.326 313.538 116.326C314.213 116.326 314.741 116.187 315.122 115.908C315.518 115.615 315.753 115.087 315.826 114.324H317.652ZM309.93 126.402C309.93 126.534 309.923 126.725 309.908 126.974C309.908 127.209 309.901 127.465 309.886 127.744C309.872 128.008 309.857 128.265 309.842 128.514C309.828 128.749 309.813 128.939 309.798 129.086L316.112 119.208H318.488V131H316.684V124.048C316.684 123.813 316.684 123.505 316.684 123.124C316.699 122.743 316.714 122.369 316.728 122.002C316.743 121.621 316.758 121.335 316.772 121.144L310.502 131H308.104V119.208H309.93V126.402Z" fill="#041028"/>
<path d="M83.638 63.096C83.33 63.492 83.176 63.976 83.176 64.548C83.176 65.1053 83.3154 65.5673 83.594 65.934C83.8727 66.3007 84.2394 66.6087 84.694 66.858C85.1487 67.0927 85.6474 67.3273 86.19 67.562C86.7327 67.782 87.2754 68.0313 87.818 68.31C88.3607 68.574 88.8594 68.8893 89.314 69.256C89.7687 69.608 90.1354 70.0847 90.414 70.686C90.6927 71.2727 90.832 71.9547 90.832 72.732C90.832 74.2133 90.3554 75.3353 89.402 76.098C88.4487 76.8607 87.1434 77.242 85.486 77.242C83.8287 77.242 82.34 76.7727 81.02 75.834C81.064 74.866 81.328 74.0227 81.812 73.304C82.3987 74.008 83.11 74.5873 83.946 75.042C84.782 75.4967 85.5814 75.724 86.344 75.724C87.1067 75.724 87.7594 75.5553 88.302 75.218C88.6687 74.778 88.852 74.1987 88.852 73.48C88.852 72.7613 88.6614 72.1747 88.28 71.72C87.9134 71.2653 87.4514 70.9133 86.894 70.664C86.3514 70.4 85.75 70.114 85.09 69.806C84.4447 69.4833 83.8434 69.1607 83.286 68.838C82.7434 68.5153 82.2814 68.0533 81.9 67.452C81.5334 66.8507 81.35 66.1467 81.35 65.34C81.35 63.9907 81.8047 62.986 82.714 62.326C83.638 61.666 84.7894 61.336 86.168 61.336C87.5614 61.336 88.984 61.6733 90.436 62.348C90.2747 63.2133 90.0107 64.0347 89.644 64.812C89.0427 64.2107 88.346 63.7193 87.554 63.338C86.7767 62.942 86.036 62.744 85.332 62.744C84.628 62.744 84.0634 62.8613 83.638 63.096ZM99.1867 75.834C99.8467 75.834 100.331 75.746 100.639 75.57C100.873 75.2913 101.086 74.734 101.277 73.898C101.467 73.062 101.563 72.2553 101.563 71.478C101.563 69.0287 100.822 67.804 99.3407 67.804C98.402 67.804 97.3754 68.1927 96.2607 68.97V74.91C97.1847 75.526 98.16 75.834 99.1867 75.834ZM94.1927 79.2V70.092C94.1927 69.4467 94.09 68.8453 93.8847 68.288C93.6794 67.716 93.408 67.3273 93.0707 67.122L93.0487 66.858L96.0627 66.154L96.1947 66.374C96.1654 66.7113 96.1507 67.188 96.1507 67.804C97.368 66.7187 98.578 66.176 99.7807 66.176C100.998 66.176 101.988 66.6527 102.751 67.606C103.528 68.5593 103.917 69.718 103.917 71.082C103.917 72.7833 103.411 74.2427 102.399 75.46C101.387 76.6627 100.235 77.264 98.9447 77.264C98.094 77.264 97.1994 77.1027 96.2607 76.78V78.276C96.29 80.036 96.5907 81.268 97.1627 81.972V82.082L94.1267 82.412C94.1707 81.8253 94.1927 80.7547 94.1927 79.2ZM110.778 77.242C109.238 77.242 108.036 76.7653 107.17 75.812C106.305 74.8587 105.872 73.6047 105.872 72.05C105.872 70.4807 106.356 69.1093 107.324 67.936C108.292 66.7627 109.495 66.176 110.932 66.176C113.558 66.176 114.87 67.7967 114.87 71.038L114.056 71.83H108.204C108.204 73.062 108.468 73.986 108.996 74.602C109.524 75.218 110.236 75.526 111.13 75.526C111.482 75.526 111.981 75.4233 112.626 75.218C113.272 74.998 113.844 74.7413 114.342 74.448L114.892 75.284C114.614 75.5627 114.005 75.9587 113.066 76.472C112.142 76.9853 111.38 77.242 110.778 77.242ZM110.536 67.276C109.92 67.276 109.444 67.4153 109.106 67.694C108.828 68.0753 108.608 68.5593 108.446 69.146C108.285 69.7327 108.204 70.246 108.204 70.686L112.714 70.51C112.714 68.354 111.988 67.276 110.536 67.276ZM121.649 77.242C120.109 77.242 118.907 76.7653 118.041 75.812C117.176 74.8587 116.743 73.6047 116.743 72.05C116.743 70.4807 117.227 69.1093 118.195 67.936C119.163 66.7627 120.366 66.176 121.803 66.176C124.429 66.176 125.741 67.7967 125.741 71.038L124.927 71.83H119.075C119.075 73.062 119.339 73.986 119.867 74.602C120.395 75.218 121.107 75.526 122.001 75.526C122.353 75.526 122.852 75.4233 123.497 75.218C124.143 74.998 124.715 74.7413 125.213 74.448L125.763 75.284C125.485 75.5627 124.876 75.9587 123.937 76.472C123.013 76.9853 122.251 77.242 121.649 77.242ZM121.407 67.276C120.791 67.276 120.315 67.4153 119.977 67.694C119.699 68.0753 119.479 68.5593 119.317 69.146C119.156 69.7327 119.075 70.246 119.075 70.686L123.585 70.51C123.585 68.354 122.859 67.276 121.407 67.276ZM131.508 67.672C131.024 67.9653 130.643 68.4787 130.364 69.212C130.086 69.9307 129.946 70.796 129.946 71.808C129.946 72.8053 130.144 73.678 130.54 74.426C130.951 75.174 131.596 75.548 132.476 75.548C133.063 75.548 133.745 75.416 134.522 75.152C135.3 74.8733 135.813 74.6387 136.062 74.448L136.612 75.306C134.735 76.5967 133.312 77.242 132.344 77.242C130.878 77.242 129.719 76.7433 128.868 75.746C128.032 74.7487 127.614 73.4433 127.614 71.83C127.614 70.2167 128.157 68.8673 129.242 67.782C130.342 66.6967 131.589 66.154 132.982 66.154C134.39 66.154 135.556 66.4693 136.48 67.1C135.908 68.0093 135.534 68.5593 135.358 68.75C134.361 67.9873 133.408 67.606 132.498 67.606C132.161 67.606 131.831 67.628 131.508 67.672ZM141.546 65.01V68.024C142.103 67.5987 142.528 67.2833 142.822 67.078C143.13 66.8727 143.518 66.6747 143.988 66.484C144.472 66.2787 144.926 66.176 145.352 66.176C146.437 66.176 147.273 66.5133 147.86 67.188C148.446 67.8627 148.74 68.8307 148.74 70.092V73.26C148.74 74.6533 148.96 75.8487 149.4 76.846V77H146.298V76.846C146.547 76.1127 146.672 75.1373 146.672 73.92V70.554C146.672 69.7033 146.54 69.0653 146.276 68.64C146.026 68.2 145.491 67.98 144.67 67.98C143.863 67.98 142.844 68.354 141.612 69.102V73.26C141.612 74.6827 141.824 75.878 142.25 76.846V77H139.17V76.846C139.419 76.1127 139.544 75.1373 139.544 73.92V64.086C139.544 62.9127 139.206 62.0033 138.532 61.358V61.094L141.48 60.566L141.612 60.786C141.568 61.2113 141.546 62.6193 141.546 65.01ZM168.941 65.978V70.158C168.941 72.8273 168.508 74.6827 167.643 75.724C166.778 76.7507 165.318 77.264 163.265 77.264C161.226 77.264 159.752 76.7653 158.843 75.768C157.934 74.756 157.479 73.15 157.479 70.95V66.308C157.479 64.1227 157.369 62.6047 157.149 61.754V61.6H160.009V61.754C159.818 63.0007 159.723 64.746 159.723 66.99V69.938C159.723 72.402 160.046 73.9933 160.691 74.712C161.307 75.4013 162.26 75.746 163.551 75.746C164.842 75.746 165.802 75.526 166.433 75.086C166.814 74.47 167.056 73.6267 167.159 72.556C167.262 71.4853 167.313 69.7253 167.313 67.276C167.313 64.8267 167.203 62.986 166.983 61.754V61.6H169.271V61.754C169.183 62.106 169.102 62.7733 169.029 63.756C168.97 64.724 168.941 65.4647 168.941 65.978ZM178.185 75.834C178.845 75.834 179.329 75.746 179.637 75.57C179.871 75.2913 180.084 74.734 180.275 73.898C180.465 73.062 180.561 72.2553 180.561 71.478C180.561 69.0287 179.82 67.804 178.339 67.804C177.4 67.804 176.373 68.1927 175.259 68.97V74.91C176.183 75.526 177.158 75.834 178.185 75.834ZM173.191 79.2V70.092C173.191 69.4467 173.088 68.8453 172.883 68.288C172.677 67.716 172.406 67.3273 172.069 67.122L172.047 66.858L175.061 66.154L175.193 66.374C175.163 66.7113 175.149 67.188 175.149 67.804C176.366 66.7187 177.576 66.176 178.779 66.176C179.996 66.176 180.986 66.6527 181.749 67.606C182.526 68.5593 182.915 69.718 182.915 71.082C182.915 72.7833 182.409 74.2427 181.397 75.46C180.385 76.6627 179.233 77.264 177.943 77.264C177.092 77.264 176.197 77.1027 175.259 76.78V78.276C175.288 80.036 175.589 81.268 176.161 81.972V82.082L173.125 82.412C173.169 81.8253 173.191 80.7547 173.191 79.2Z" fill="#2477F4"/>
</g>
<defs>
<filter id="filter0_d_489_70" x="-24.8889" y="-39.3333" width="448.778" height="269.778" filterUnits="userSpaceOnUse" color-interpolation-filters="sRGB">
<feFlood flood-opacity="0" result="BackgroundImageFix"/>
<feColorMatrix in="SourceAlpha" type="matrix" values="0 0 0 0 0 0 0 0 0 0 0 0 0 0 0 0 0 0 127 0" result="hardAlpha"/>
<feOffset dy="3.55556"/>
<feGaussianBlur stdDeviation="28.4444"/>
<feComposite in2="hardAlpha" operator="out"/>
<feColorMatrix type="matrix" values="0 0 0 0 0.00830861 0 0 0 0 0.0427516 0 0 0 0 0.108767 0 0 0 0.7 0"/>
<feBlend mode="normal" in2="BackgroundImageFix" result="effect1_dropShadow_489_70"/>
<feBlend mode="normal" in="SourceGraphic" in2="effect1_dropShadow_489_70" result="shape"/>
</filter>
<clipPath id="clip0_489_70">
<rect width="396" height="189" fill="white"/>
</clipPath>
</defs>
</svg>
