<svg width="200" height="51" viewBox="0 0 200 51" fill="none" xmlns="http://www.w3.org/2000/svg">
<path d="M40.7204 17.5426C46.6902 21.2324 46.6902 29.7676 40.7204 33.4574L14.7064 49.5361C8.31911 53.484 -3.30028e-07 48.9827 0 41.5787L1.43341e-06 9.42126C1.76344e-06 2.01732 8.31912 -2.48401 14.7064 1.46386L40.7204 17.5426Z" fill="url(#paint0_linear_516_999)"/>
<rect width="3.66824" height="8.00377" rx="1.83412" transform="matrix(-1 0 0 1 8.54248 21.5244)" fill="white"/>
<rect width="3.66824" height="27.1589" rx="1.83412" transform="matrix(-1 0 0 1 14.668 11.9468)" fill="white"/>
<rect width="3.66824" height="15.6478" rx="1.83412" transform="matrix(-1 0 0 1 20.7932 17.7026)" fill="white"/>
<rect width="3.66824" height="22.2127" rx="1.83412" transform="matrix(-1 0 0 1 26.9185 14.4199)" fill="white"/>
<rect width="3.57654" height="8.00377" rx="1.78827" transform="matrix(-1 0 0 1 32.9521 21.5244)" fill="white"/>
<path d="M64.0688 37.0389C62.7036 37.0389 61.5067 36.9006 60.4781 36.624C59.4496 36.3276 58.5893 35.9028 57.8974 35.3495C57.2241 34.7963 56.7098 34.1344 56.3545 33.3638C56.0179 32.5734 55.8309 31.6941 55.7935 30.726H60.8428C60.9176 31.1014 61.0298 31.4274 61.1794 31.704C61.3477 31.9807 61.5628 32.2079 61.8246 32.3857C62.0864 32.5635 62.395 32.692 62.7503 32.771C63.1244 32.85 63.5638 32.8896 64.0688 32.8896C64.6111 32.8896 65.0786 32.85 65.4714 32.771C65.8828 32.692 66.2194 32.5734 66.4812 32.4153C66.7618 32.2573 66.9675 32.0597 67.0984 31.8226C67.2293 31.5855 67.2947 31.3088 67.2947 30.9927C67.2947 30.5778 67.1919 30.2419 66.9862 29.985C66.7805 29.7084 66.4812 29.4713 66.0885 29.2737C65.6958 29.0563 65.2095 28.8686 64.6298 28.7106C64.0501 28.5525 63.3768 28.3845 62.6101 28.2067C61.6376 27.9696 60.7586 27.6831 59.9732 27.3472C59.2064 27.0113 58.5519 26.5964 58.0096 26.1024C57.4859 25.5886 57.0745 24.9761 56.7753 24.2648C56.4948 23.5337 56.3545 22.6643 56.3545 21.6566C56.3545 20.6884 56.5322 19.8289 56.8875 19.0781C57.2428 18.3075 57.7571 17.6653 58.4303 17.1516C59.1036 16.6181 59.9171 16.213 60.8709 15.9364C61.8246 15.6598 62.8906 15.5215 64.0688 15.5215C65.3592 15.5215 66.4812 15.6598 67.435 15.9364C68.3888 16.1933 69.1836 16.5786 69.8194 17.0923C70.474 17.6061 70.9695 18.2383 71.3062 18.9892C71.6615 19.74 71.8672 20.5896 71.9233 21.5381H66.874C66.8179 21.2219 66.7244 20.9453 66.5934 20.7082C66.4625 20.4711 66.2849 20.2834 66.0605 20.1451C65.836 19.987 65.5555 19.8684 65.2189 19.7894C64.901 19.7104 64.5176 19.6709 64.0688 19.6709C63.5638 19.6709 63.1431 19.7203 62.8064 19.819C62.4698 19.8981 62.1986 20.0166 61.9929 20.1747C61.7872 20.3328 61.6376 20.5205 61.5441 20.7378C61.4506 20.9552 61.4038 21.2022 61.4038 21.4788C61.4038 21.8345 61.4973 22.1407 61.6844 22.3976C61.8714 22.6544 62.1425 22.8817 62.4979 23.0793C62.8532 23.2571 63.2927 23.4152 63.8163 23.5535C64.3399 23.6918 64.9384 23.84 65.6116 23.9981C66.6215 24.2154 67.5379 24.4821 68.3607 24.7983C69.2023 25.0947 69.9129 25.4997 70.4927 26.0135C71.0911 26.5074 71.5493 27.12 71.8672 27.851C72.1851 28.5624 72.3441 29.4416 72.3441 30.4889C72.3441 31.5163 72.1571 32.4351 71.783 33.2452C71.409 34.0553 70.8667 34.7469 70.156 35.3199C69.4454 35.8732 68.5758 36.298 67.5472 36.5944C66.5186 36.8907 65.3592 37.0389 64.0688 37.0389Z" fill="white"/>
<path d="M74.8666 42.5813V20.9453H78.8499V23.0793C79.037 22.7631 79.2707 22.4569 79.5512 22.1605C79.8505 21.8443 80.1964 21.5677 80.5892 21.3306C80.9819 21.0935 81.4214 20.9058 81.9076 20.7675C82.3938 20.6292 82.9175 20.56 83.4785 20.56C84.5258 20.56 85.4421 20.728 86.2276 21.0639C87.0317 21.38 87.705 21.8641 88.2473 22.5161C88.7897 23.1682 89.1917 23.9783 89.4536 24.9465C89.7341 25.9147 89.8743 27.0508 89.8743 28.3549V28.9477C89.8743 30.2715 89.7247 31.4472 89.4255 32.4746C89.1263 33.4823 88.6962 34.3221 88.1351 34.9939C87.5741 35.6657 86.9008 36.1794 86.1154 36.5351C85.3299 36.871 84.451 37.0389 83.4785 37.0389C82.6369 37.0389 81.8328 36.8413 81.066 36.4462C80.318 36.0312 79.6915 35.4385 79.1866 34.6679V42.5813H74.8666ZM82.4406 33.2749C82.8707 33.2749 83.2634 33.1859 83.6188 33.0081C83.9928 32.8105 84.3107 32.5339 84.5725 32.1782C84.8531 31.8226 85.0681 31.378 85.2177 30.8445C85.3673 30.2913 85.4421 29.659 85.4421 28.9477V28.3549C85.4421 27.6633 85.3673 27.0706 85.2177 26.5766C85.0868 26.0629 84.8811 25.6479 84.6006 25.3318C84.3388 24.9959 84.0208 24.7489 83.6468 24.5908C83.2915 24.413 82.8894 24.3241 82.4406 24.3241C81.9918 24.3241 81.5616 24.4031 81.1502 24.5612C80.7575 24.6995 80.4115 24.9267 80.1123 25.2429C79.8318 25.5393 79.6073 25.9147 79.439 26.3691C79.2707 26.8038 79.1866 27.3176 79.1866 27.9103V29.3922C79.1866 30.0048 79.2707 30.558 79.439 31.052C79.6073 31.5262 79.8318 31.9313 80.1123 32.2672C80.4115 32.6031 80.7575 32.8599 81.1502 33.0378C81.5616 33.1958 81.9918 33.2749 82.4406 33.2749Z" fill="white"/>
<path d="M99.2783 37.0389C98.1936 37.0389 97.1744 36.8809 96.2206 36.5647C95.2856 36.2288 94.4721 35.725 93.7801 35.0532C93.0882 34.3814 92.5458 33.5416 92.1531 32.5339C91.7604 31.5064 91.564 30.311 91.564 28.9477V28.3549C91.564 27.0508 91.751 25.9147 92.1251 24.9465C92.5178 23.9783 93.0414 23.1682 93.696 22.5161C94.3692 21.8641 95.1547 21.38 96.0523 21.0639C96.9687 20.728 97.9505 20.56 98.9978 20.56C101.448 20.56 103.299 21.2318 104.552 22.5754C105.805 23.8993 106.432 25.8258 106.432 28.3549V29.985H95.9962C96.0149 30.5975 96.1178 31.1211 96.3048 31.5558C96.4918 31.9708 96.7349 32.3166 97.0342 32.5932C97.3334 32.8698 97.6793 33.0773 98.0721 33.2156C98.4648 33.3341 98.8669 33.3934 99.2783 33.3934C100.12 33.3934 100.774 33.265 101.242 33.0081C101.709 32.7315 102.018 32.366 102.168 31.9115H106.151C106.001 32.7611 105.74 33.512 105.366 34.164C104.992 34.7963 104.515 35.3298 103.935 35.7645C103.355 36.1992 102.673 36.5153 101.887 36.7129C101.102 36.9303 100.232 37.0389 99.2783 37.0389ZM96.0243 26.9915H102.196C102.196 26.4383 102.112 25.9838 101.943 25.6282C101.794 25.2725 101.579 24.986 101.298 24.7687C101.018 24.5513 100.69 24.4031 100.316 24.3241C99.9422 24.2253 99.5495 24.1759 99.138 24.1759C98.7453 24.1759 98.3619 24.2253 97.9879 24.3241C97.6326 24.4229 97.3053 24.5908 97.0061 24.8279C96.7256 25.0453 96.4918 25.3318 96.3048 25.6874C96.1365 26.0431 96.043 26.4778 96.0243 26.9915Z" fill="white"/>
<path d="M115.825 37.0389C114.74 37.0389 113.721 36.8809 112.767 36.5647C111.832 36.2288 111.018 35.725 110.326 35.0532C109.634 34.3814 109.092 33.5416 108.699 32.5339C108.307 31.5064 108.11 30.311 108.11 28.9477V28.3549C108.11 27.0508 108.297 25.9147 108.671 24.9465C109.064 23.9783 109.588 23.1682 110.242 22.5161C110.915 21.8641 111.701 21.38 112.599 21.0639C113.515 20.728 114.497 20.56 115.544 20.56C117.994 20.56 119.845 21.2318 121.098 22.5754C122.351 23.8993 122.978 25.8258 122.978 28.3549V29.985H112.542C112.561 30.5975 112.664 31.1211 112.851 31.5558C113.038 31.9708 113.281 32.3166 113.58 32.5932C113.88 32.8698 114.226 33.0773 114.618 33.2156C115.011 33.3341 115.413 33.3934 115.825 33.3934C116.666 33.3934 117.321 33.265 117.788 33.0081C118.256 32.7315 118.564 32.366 118.714 31.9115H122.697C122.548 32.7611 122.286 33.512 121.912 34.164C121.538 34.7963 121.061 35.3298 120.481 35.7645C119.901 36.1992 119.219 36.5153 118.433 36.7129C117.648 36.9303 116.778 37.0389 115.825 37.0389ZM112.571 26.9915H118.742C118.742 26.4383 118.658 25.9838 118.489 25.6282C118.34 25.2725 118.125 24.986 117.844 24.7687C117.564 24.5513 117.236 24.4031 116.862 24.3241C116.488 24.2253 116.096 24.1759 115.684 24.1759C115.292 24.1759 114.908 24.2253 114.534 24.3241C114.179 24.4229 113.852 24.5908 113.552 24.8279C113.272 25.0453 113.038 25.3318 112.851 25.6874C112.683 26.0431 112.589 26.4778 112.571 26.9915Z" fill="white"/>
<path d="M132.231 37.0389C131.127 37.0389 130.108 36.871 129.173 36.5351C128.257 36.1992 127.462 35.6953 126.788 35.0235C126.115 34.3517 125.592 33.512 125.218 32.5043C124.844 31.4966 124.657 30.311 124.657 28.9477V28.3549C124.657 27.1101 124.853 26.0036 125.246 25.0354C125.657 24.0672 126.199 23.2571 126.873 22.6051C127.565 21.9332 128.369 21.4294 129.285 21.0935C130.22 20.7378 131.202 20.56 132.231 20.56C133.353 20.56 134.334 20.7181 135.176 21.0342C136.036 21.3504 136.756 21.7851 137.336 22.3383C137.916 22.8718 138.365 23.5041 138.682 24.2352C139 24.9662 139.187 25.7467 139.244 26.5766H134.811C134.737 26.2209 134.634 25.9048 134.503 25.6282C134.372 25.3515 134.194 25.1243 133.97 24.9465C133.764 24.7489 133.521 24.6007 133.24 24.5019C132.96 24.4031 132.623 24.3537 132.231 24.3537C131.782 24.3537 131.361 24.4426 130.968 24.6205C130.594 24.7785 130.267 25.0255 129.986 25.3614C129.706 25.6776 129.481 26.0925 129.313 26.6062C129.164 27.1002 129.089 27.6831 129.089 28.3549V28.9477C129.089 29.6787 129.164 30.311 129.313 30.8445C129.463 31.378 129.668 31.8226 129.93 32.1782C130.211 32.5339 130.547 32.8006 130.94 32.9785C131.333 33.1365 131.763 33.2156 132.231 33.2156C132.885 33.2156 133.437 33.0378 133.886 32.6821C134.353 32.3067 134.662 31.7534 134.811 31.0223H139.244C139.187 31.951 138.982 32.7908 138.626 33.5416C138.271 34.2727 137.785 34.905 137.168 35.4385C136.569 35.9522 135.849 36.3474 135.008 36.624C134.185 36.9006 133.259 37.0389 132.231 37.0389Z" fill="white"/>
<path d="M141.353 36.6536V15.9068H145.673V22.9311C145.822 22.6742 146.028 22.4075 146.29 22.1308C146.552 21.8542 146.87 21.5973 147.244 21.3602C147.637 21.1231 148.085 20.9354 148.59 20.7971C149.095 20.639 149.656 20.56 150.273 20.56C152.069 20.56 153.415 21.0737 154.313 22.1012C155.211 23.1089 155.659 24.5414 155.659 26.3988V36.6536H151.339V27.4657C151.339 26.4383 151.124 25.6677 150.694 25.154C150.283 24.6205 149.6 24.3537 148.646 24.3537C148.123 24.3537 147.674 24.4328 147.3 24.5908C146.926 24.7489 146.617 24.9662 146.374 25.2429C146.131 25.5195 145.953 25.8455 145.841 26.2209C145.729 26.5964 145.673 27.0113 145.673 27.4657V36.6536H141.353Z" fill="white"/>
<path d="M173.338 37.0389C172.028 37.0389 170.841 36.8611 169.775 36.5054C168.728 36.13 167.83 35.5867 167.082 34.8753C166.353 34.1443 165.782 33.2353 165.371 32.1486C164.978 31.0619 164.782 29.7973 164.782 28.3549V15.9068H169.831V27.7325C169.831 28.5228 169.887 29.2243 169.999 29.8368C170.13 30.4493 170.336 30.9631 170.617 31.378C170.897 31.7732 171.262 32.0794 171.711 32.2968C172.159 32.4944 172.702 32.5932 173.338 32.5932C174.011 32.5932 174.572 32.4944 175.021 32.2968C175.469 32.0794 175.825 31.7732 176.087 31.378C176.367 30.9631 176.564 30.4592 176.676 29.8665C176.788 29.2539 176.844 28.5525 176.844 27.7621V15.9068H181.893V28.3549C181.893 29.7973 181.697 31.0619 181.304 32.1486C180.912 33.2353 180.341 34.1443 179.593 34.8753C178.864 35.5867 177.966 36.13 176.9 36.5054C175.853 36.8611 174.665 37.0389 173.338 37.0389Z" fill="white"/>
<path d="M184.992 42.5813V20.9453H188.976V23.0793C189.163 22.7631 189.396 22.4569 189.677 22.1605C189.976 21.8443 190.322 21.5677 190.715 21.3306C191.108 21.0935 191.547 20.9058 192.033 20.7675C192.52 20.6292 193.043 20.56 193.604 20.56C194.651 20.56 195.568 20.728 196.353 21.0639C197.157 21.38 197.831 21.8641 198.373 22.5161C198.915 23.1682 199.317 23.9783 199.579 24.9465C199.86 25.9147 200 27.0508 200 28.3549V28.9477C200 30.2715 199.85 31.4472 199.551 32.4746C199.252 33.4823 198.822 34.3221 198.261 34.9939C197.7 35.6657 197.027 36.1794 196.241 36.5351C195.456 36.871 194.577 37.0389 193.604 37.0389C192.763 37.0389 191.958 36.8413 191.192 36.4462C190.444 36.0312 189.817 35.4385 189.312 34.6679V42.5813H184.992ZM192.566 33.2749C192.996 33.2749 193.389 33.1859 193.744 33.0081C194.118 32.8105 194.436 32.5339 194.698 32.1782C194.979 31.8226 195.194 31.378 195.343 30.8445C195.493 30.2913 195.568 29.659 195.568 28.9477V28.3549C195.568 27.6633 195.493 27.0706 195.343 26.5766C195.212 26.0629 195.007 25.6479 194.726 25.3318C194.464 24.9959 194.147 24.7489 193.772 24.5908C193.417 24.413 193.015 24.3241 192.566 24.3241C192.117 24.3241 191.687 24.4031 191.276 24.5612C190.883 24.6995 190.537 24.9267 190.238 25.2429C189.957 25.5393 189.733 25.9147 189.565 26.3691C189.396 26.8038 189.312 27.3176 189.312 27.9103V29.3922C189.312 30.0048 189.396 30.558 189.565 31.052C189.733 31.5262 189.957 31.9313 190.238 32.2672C190.537 32.6031 190.883 32.8599 191.276 33.0378C191.687 33.1958 192.117 33.2749 192.566 33.2749Z" fill="white"/>
<defs>
<linearGradient id="paint0_linear_516_999" x1="49.3583" y1="45.8263" x2="-19.9214" y2="-2.88149" gradientUnits="userSpaceOnUse">
<stop stop-color="#51ACFF"/>
<stop offset="1" stop-color="#0055D5"/>
</linearGradient>
</defs>
</svg>
