<svg width="142" height="26" viewBox="0 0 142 26" fill="none" xmlns="http://www.w3.org/2000/svg">
<path d="M35.2344 21.6674C34.1621 21.6674 33.222 21.5593 32.4141 21.3431C31.6063 21.1114 30.9306 20.7793 30.3871 20.3468C29.8583 19.9143 29.4544 19.3969 29.1753 18.7945C28.9109 18.1766 28.764 17.4893 28.7346 16.7324H32.7006C32.7593 17.0259 32.8475 17.2808 32.965 17.497C33.0972 17.7133 33.2661 17.8909 33.4717 18.0299C33.6774 18.1689 33.9197 18.2693 34.1988 18.3311C34.4926 18.3929 34.8378 18.4238 35.2344 18.4238C35.6603 18.4238 36.0276 18.3929 36.336 18.3311C36.6592 18.2693 36.9236 18.1766 37.1292 18.0531C37.3495 17.9295 37.5111 17.775 37.6139 17.5897C37.7168 17.4043 37.7682 17.1881 37.7682 16.941C37.7682 16.6166 37.6874 16.354 37.5258 16.1532C37.3642 15.937 37.1292 15.7516 36.8207 15.5971C36.5123 15.4272 36.1304 15.2805 35.675 15.1569C35.2197 15.0334 34.6909 14.9021 34.0887 14.7631C33.3248 14.5777 32.6345 14.3537 32.0175 14.0912C31.4153 13.8286 30.9012 13.5042 30.4752 13.1181C30.0639 12.7165 29.7408 12.2376 29.5058 11.6816C29.2854 11.1101 29.1753 10.4304 29.1753 9.64268C29.1753 8.88583 29.3148 8.21392 29.5939 7.62697C29.873 7.02458 30.2769 6.52258 30.8057 6.12098C31.3345 5.70394 31.9735 5.38729 32.7226 5.17105C33.4717 4.9548 34.309 4.84668 35.2344 4.84668C36.2479 4.84668 37.1292 4.9548 37.8783 5.17105C38.6275 5.37185 39.2517 5.67304 39.7511 6.07464C40.2652 6.47624 40.6545 6.97052 40.9189 7.55747C41.198 8.14442 41.3596 8.8086 41.4036 9.55001H37.4377C37.3936 9.30287 37.3202 9.08663 37.2173 8.90127C37.1145 8.71592 36.975 8.56918 36.7987 8.46106C36.6224 8.33749 36.4021 8.24482 36.1377 8.18303C35.888 8.12125 35.5869 8.09036 35.2344 8.09036C34.8378 8.09036 34.5073 8.12897 34.2429 8.2062C33.9785 8.26798 33.7655 8.36066 33.6039 8.48423C33.4423 8.6078 33.3248 8.75454 33.2514 8.92444C33.178 9.09435 33.1412 9.28743 33.1412 9.50367C33.1412 9.7817 33.2147 10.0211 33.3616 10.2219C33.5084 10.4227 33.7214 10.6003 34.0005 10.7548C34.2796 10.8938 34.6248 11.0174 35.0361 11.1255C35.4474 11.2336 35.9174 11.3495 36.4462 11.473C37.2394 11.643 37.9591 11.8515 38.6054 12.0986C39.2664 12.3303 39.8246 12.6469 40.2799 13.0485C40.75 13.4347 41.1098 13.9135 41.3596 14.485C41.6093 15.0411 41.7341 15.7284 41.7341 16.5471C41.7341 17.3503 41.5872 18.0685 41.2935 18.7018C40.9997 19.3351 40.5737 19.8757 40.0155 20.3236C39.4574 20.7561 38.7743 21.0882 37.9665 21.3199C37.1586 21.5516 36.2479 21.6674 35.2344 21.6674Z" fill="#7A8DA5"/>
<path d="M43.7154 26.0001V9.08663H46.8441V10.7548C46.9909 10.5077 47.1746 10.2683 47.3949 10.0366C47.6299 9.78942 47.9016 9.57318 48.2101 9.38782C48.5186 9.20247 48.8638 9.05573 49.2457 8.94761C49.6276 8.83949 50.0389 8.78543 50.4795 8.78543C51.3021 8.78543 52.0218 8.91672 52.6388 9.1793C53.2704 9.42644 53.7992 9.80487 54.2251 10.3146C54.6511 10.8243 54.9669 11.4576 55.1726 12.2145C55.3929 12.9713 55.503 13.8595 55.503 14.8789V15.3423C55.503 16.3772 55.3855 17.2962 55.1505 18.0994C54.9155 18.8872 54.5777 19.5436 54.137 20.0688C53.6963 20.5939 53.1675 20.9955 52.5506 21.2736C51.9337 21.5362 51.2433 21.6674 50.4795 21.6674C49.8185 21.6674 49.1869 21.513 48.5847 21.2041C47.9971 20.8797 47.5051 20.4163 47.1085 19.8139V26.0001H43.7154ZM49.6643 18.725C50.0021 18.725 50.3106 18.6555 50.5897 18.5165C50.8835 18.362 51.1332 18.1457 51.3388 17.8677C51.5591 17.5897 51.7281 17.2422 51.8456 16.8251C51.9631 16.3926 52.0218 15.8983 52.0218 15.3423V14.8789C52.0218 14.3383 51.9631 13.8749 51.8456 13.4888C51.7427 13.0872 51.5812 12.7628 51.3608 12.5157C51.1552 12.2531 50.9055 12.06 50.6117 11.9364C50.3326 11.7974 50.0168 11.7279 49.6643 11.7279C49.3118 11.7279 48.9739 11.7897 48.6508 11.9133C48.3423 12.0214 48.0706 12.199 47.8355 12.4461C47.6152 12.6778 47.439 12.9713 47.3068 13.3266C47.1746 13.6664 47.1085 14.068 47.1085 14.5314V15.6898C47.1085 16.1686 47.1746 16.6011 47.3068 16.9873C47.439 17.358 47.6152 17.6746 47.8355 17.9372C48.0706 18.1998 48.3423 18.4006 48.6508 18.5396C48.9739 18.6632 49.3118 18.725 49.6643 18.725Z" fill="#7A8DA5"/>
<path d="M62.8893 21.6674C62.0373 21.6674 61.2368 21.5439 60.4877 21.2967C59.7532 21.0342 59.1143 20.6403 58.5708 20.1151C58.0273 19.59 57.6014 18.9335 57.2929 18.1457C56.9844 17.3426 56.8302 16.4081 56.8302 15.3423V14.8789C56.8302 13.8595 56.9771 12.9713 57.2709 12.2145C57.5793 11.4576 57.9906 10.8243 58.5047 10.3146C59.0335 9.80487 59.6504 9.42644 60.3555 9.1793C61.0752 8.91672 61.8464 8.78543 62.669 8.78543C64.5932 8.78543 66.0474 9.31059 67.0315 10.3609C68.0156 11.3958 68.5077 12.9018 68.5077 14.8789V16.1532H60.3114C60.3261 16.632 60.4069 17.0414 60.5538 17.3812C60.7007 17.7055 60.8916 17.9758 61.1266 18.1921C61.3617 18.4083 61.6334 18.5705 61.9419 18.6786C62.2503 18.7713 62.5661 18.8176 62.8893 18.8176C63.5503 18.8176 64.0644 18.7172 64.4316 18.5165C64.7988 18.3002 65.0412 18.0145 65.1587 17.6592H68.2874C68.1699 18.3234 67.9642 18.9103 67.6705 19.42C67.3767 19.9143 67.0021 20.3314 66.5468 20.6712C66.0914 21.011 65.5553 21.2581 64.9384 21.4126C64.3214 21.5825 63.6384 21.6674 62.8893 21.6674ZM60.3335 13.8131H65.1807C65.1807 13.3806 65.1146 13.0254 64.9824 12.7473C64.8649 12.4693 64.696 12.2453 64.4757 12.0754C64.2553 11.9055 63.9983 11.7897 63.7045 11.7279C63.4107 11.6507 63.1023 11.6121 62.7791 11.6121C62.4707 11.6121 62.1695 11.6507 61.8758 11.7279C61.5967 11.8051 61.3396 11.9364 61.1046 12.1218C60.8843 12.2917 60.7007 12.5157 60.5538 12.7937C60.4216 13.0717 60.3481 13.4115 60.3335 13.8131Z" fill="#7A8DA5"/>
<path d="M75.8853 21.6674C75.0334 21.6674 74.2329 21.5439 73.4837 21.2967C72.7493 21.0342 72.1103 20.6403 71.5669 20.1151C71.0234 19.59 70.5974 18.9335 70.2889 18.1457C69.9805 17.3426 69.8263 16.4081 69.8263 15.3423V14.8789C69.8263 13.8595 69.9731 12.9713 70.2669 12.2145C70.5754 11.4576 70.9867 10.8243 71.5008 10.3146C72.0296 9.80487 72.6465 9.42644 73.3515 9.1793C74.0713 8.91672 74.8424 8.78543 75.665 8.78543C77.5892 8.78543 79.0434 9.31059 80.0276 10.3609C81.0117 11.3958 81.5038 12.9018 81.5038 14.8789V16.1532H73.3075C73.3222 16.632 73.403 17.0414 73.5498 17.3812C73.6967 17.7055 73.8877 17.9758 74.1227 18.1921C74.3577 18.4083 74.6295 18.5705 74.9379 18.6786C75.2464 18.7713 75.5622 18.8176 75.8853 18.8176C76.5463 18.8176 77.0604 18.7172 77.4277 18.5165C77.7949 18.3002 78.0372 18.0145 78.1547 17.6592H81.2834C81.1659 18.3234 80.9603 18.9103 80.6665 19.42C80.3727 19.9143 79.9982 20.3314 79.5428 20.6712C79.0875 21.011 78.5513 21.2581 77.9344 21.4126C77.3175 21.5825 76.6345 21.6674 75.8853 21.6674ZM73.3295 13.8131H78.1768C78.1768 13.3806 78.1107 13.0254 77.9785 12.7473C77.861 12.4693 77.692 12.2453 77.4717 12.0754C77.2514 11.9055 76.9943 11.7897 76.7006 11.7279C76.4068 11.6507 76.0983 11.6121 75.7752 11.6121C75.4667 11.6121 75.1656 11.6507 74.8718 11.7279C74.5927 11.8051 74.3357 11.9364 74.1007 12.1218C73.8803 12.2917 73.6967 12.5157 73.5498 12.7937C73.4176 13.0717 73.3442 13.4115 73.3295 13.8131Z" fill="#7A8DA5"/>
<path d="M88.7712 21.6674C87.9046 21.6674 87.1041 21.5362 86.3696 21.2736C85.6499 21.011 85.0256 20.6171 84.4968 20.0919C83.968 19.5668 83.5567 18.9103 83.263 18.1226C82.9692 17.3348 82.8223 16.4081 82.8223 15.3423V14.8789C82.8223 13.9058 82.9765 13.0408 83.285 12.284C83.6082 11.5271 84.0341 10.8938 84.5629 10.3841C85.1064 9.85893 85.738 9.46505 86.4578 9.20247C87.1922 8.92444 87.9633 8.78543 88.7712 8.78543C89.6525 8.78543 90.4237 8.909 91.0847 9.15613C91.7604 9.40327 92.3259 9.74308 92.7812 10.1756C93.2366 10.5926 93.5891 11.0869 93.8388 11.6584C94.0885 12.2299 94.2354 12.84 94.2795 13.4888H90.7983C90.7395 13.2107 90.6587 12.9636 90.5559 12.7473C90.4531 12.5311 90.3135 12.3535 90.1373 12.2145C89.9757 12.06 89.7847 11.9441 89.5644 11.8669C89.3441 11.7897 89.0797 11.7511 88.7712 11.7511C88.4187 11.7511 88.0882 11.8206 87.7797 11.9596C87.486 12.0832 87.2289 12.2762 87.0086 12.5388C86.7883 12.786 86.612 13.1103 86.4798 13.5119C86.3623 13.8981 86.3035 14.3537 86.3035 14.8789V15.3423C86.3035 15.9138 86.3623 16.4081 86.4798 16.8251C86.5973 17.2422 86.7589 17.5897 86.9645 17.8677C87.1848 18.1457 87.4492 18.3543 87.7577 18.4933C88.0662 18.6169 88.404 18.6786 88.7712 18.6786C89.2853 18.6786 89.7187 18.5396 90.0712 18.2616C90.4384 17.9681 90.6808 17.5356 90.7983 16.9641H94.2795C94.2354 17.6901 94.0739 18.3465 93.7948 18.9335C93.5157 19.505 93.1338 19.9993 92.649 20.4163C92.179 20.8179 91.6135 21.1268 90.9525 21.3431C90.3062 21.5593 89.5791 21.6674 88.7712 21.6674Z" fill="#7A8DA5"/>
<path d="M95.9363 21.3663V5.14788H99.3294V10.639C99.4469 10.4382 99.6084 10.2296 99.8141 10.0134C100.02 9.79715 100.269 9.59635 100.563 9.41099C100.872 9.22564 101.224 9.0789 101.621 8.97078C102.017 8.84721 102.458 8.78543 102.943 8.78543C104.353 8.78543 105.41 9.18703 106.116 9.99022C106.821 10.778 107.173 11.8978 107.173 13.3497V21.3663H103.78V14.1838C103.78 13.3806 103.611 12.7782 103.273 12.3766C102.95 11.9596 102.414 11.7511 101.665 11.7511C101.254 11.7511 100.901 11.8129 100.607 11.9364C100.314 12.06 100.071 12.2299 99.8802 12.4461C99.6892 12.6624 99.5497 12.9173 99.4616 13.2107C99.3734 13.5042 99.3294 13.8286 99.3294 14.1838V21.3663H95.9363Z" fill="#7A8DA5"/>
<path d="M121.058 21.6674C120.03 21.6674 119.097 21.5284 118.26 21.2504C117.437 20.9569 116.732 20.5322 116.145 19.9761C115.572 19.4046 115.124 18.6941 114.801 17.8445C114.492 16.995 114.338 16.0065 114.338 14.8789V5.14788H118.304V14.3924C118.304 15.0102 118.348 15.5585 118.436 16.0374C118.539 16.5162 118.701 16.9178 118.921 17.2422C119.141 17.5511 119.428 17.7905 119.78 17.9604C120.133 18.1149 120.559 18.1921 121.058 18.1921C121.587 18.1921 122.028 18.1149 122.38 17.9604C122.733 17.7905 123.012 17.5511 123.217 17.2422C123.438 16.9178 123.592 16.5239 123.68 16.0605C123.768 15.5817 123.812 15.0334 123.812 14.4155V5.14788H127.778V14.8789C127.778 16.0065 127.624 16.995 127.316 17.8445C127.007 18.6941 126.559 19.4046 125.972 19.9761C125.399 20.5322 124.694 20.9569 123.856 21.2504C123.034 21.5284 122.101 21.6674 121.058 21.6674Z" fill="#7A8DA5"/>
<path d="M130.212 26.0001V9.08663H133.341V10.7548C133.488 10.5077 133.671 10.2683 133.892 10.0366C134.127 9.78942 134.399 9.57318 134.707 9.38782C135.015 9.20247 135.361 9.05573 135.743 8.94761C136.124 8.83949 136.536 8.78543 136.976 8.78543C137.799 8.78543 138.519 8.91672 139.136 9.1793C139.767 9.42644 140.296 9.80487 140.722 10.3146C141.148 10.8243 141.464 11.4576 141.669 12.2145C141.89 12.9713 142 13.8595 142 14.8789V15.3423C142 16.3772 141.882 17.2962 141.647 18.0994C141.412 18.8872 141.075 19.5436 140.634 20.0688C140.193 20.5939 139.664 20.9955 139.048 21.2736C138.431 21.5362 137.74 21.6674 136.976 21.6674C136.315 21.6674 135.684 21.513 135.082 21.2041C134.494 20.8797 134.002 20.4163 133.605 19.8139V26.0001H130.212ZM136.161 18.725C136.499 18.725 136.808 18.6555 137.087 18.5165C137.38 18.362 137.63 18.1457 137.836 17.8677C138.056 17.5897 138.225 17.2422 138.342 16.8251C138.46 16.3926 138.519 15.8983 138.519 15.3423V14.8789C138.519 14.3383 138.46 13.8749 138.342 13.4888C138.24 13.0872 138.078 12.7628 137.858 12.5157C137.652 12.2531 137.402 12.06 137.109 11.9364C136.83 11.7974 136.514 11.7279 136.161 11.7279C135.809 11.7279 135.471 11.7897 135.148 11.9133C134.839 12.0214 134.567 12.199 134.332 12.4461C134.112 12.6778 133.936 12.9713 133.804 13.3266C133.671 13.6664 133.605 14.068 133.605 14.5314V15.6898C133.605 16.1686 133.671 16.6011 133.804 16.9873C133.936 17.358 134.112 17.6746 134.332 17.9372C134.567 18.1998 134.839 18.4006 135.148 18.5396C135.471 18.6632 135.809 18.725 136.161 18.725Z" fill="#7A8DA5"/>
<path fill-rule="evenodd" clip-rule="evenodd" d="M18.7073 16.4824C21.4499 14.6646 21.4499 10.4599 18.7073 8.64215L6.75627 0.721155C3.82188 -1.22372 0 0.993809 0 4.64127V20.4833C0 24.1307 3.82188 26.3483 6.75627 24.4034L18.7073 16.4824ZM5.89625 5.88574C6.36161 5.88574 6.73886 6.26299 6.73886 6.72836V18.4226C6.73886 18.888 6.36161 19.2652 5.89625 19.2652C5.43088 19.2652 5.05363 18.888 5.05363 18.4226V6.72836C5.05363 6.26299 5.43088 5.88574 5.89625 5.88574ZM3.08211 10.6035C3.54748 10.6035 3.92473 10.9808 3.92473 11.4461V13.7039C3.92473 14.1692 3.54748 14.5465 3.08211 14.5465C2.61675 14.5465 2.2395 14.1692 2.2395 13.7039V11.4461C2.2395 10.9808 2.61675 10.6035 3.08211 10.6035ZM9.5529 9.56429C9.5529 9.09893 9.17565 8.72168 8.71029 8.72168C8.24493 8.72168 7.86768 9.09893 7.86768 9.56429V15.5878C7.86768 16.0531 8.24493 16.4304 8.71029 16.4304C9.17565 16.4304 9.5529 16.0531 9.5529 15.5878V9.56429ZM11.5242 7.10358C11.9895 7.10358 12.3668 7.48083 12.3668 7.9462V17.2038C12.3668 17.6692 11.9895 18.0464 11.5242 18.0464C11.0588 18.0464 10.6816 17.6692 10.6816 17.2038V7.9462C10.6816 7.48083 11.0588 7.10358 11.5242 7.10358ZM15.1387 11.4251C15.1387 10.9713 14.7709 10.6035 14.3172 10.6035C13.8634 10.6035 13.4956 10.9713 13.4956 11.4251V13.7249C13.4956 14.1787 13.8634 14.5465 14.3172 14.5465C14.7709 14.5465 15.1387 14.1787 15.1387 13.7249V11.4251Z" fill="url(#paint0_linear_260_71)"/>
<path fill-rule="evenodd" clip-rule="evenodd" d="M18.7073 16.4824C21.4499 14.6646 21.4499 10.4599 18.7073 8.64215L6.75627 0.721155C3.82188 -1.22372 0 0.993809 0 4.64127V20.4833C0 24.1307 3.82188 26.3483 6.75627 24.4034L18.7073 16.4824ZM5.89625 5.88574C6.36161 5.88574 6.73886 6.26299 6.73886 6.72836V18.4226C6.73886 18.888 6.36161 19.2652 5.89625 19.2652C5.43088 19.2652 5.05363 18.888 5.05363 18.4226V6.72836C5.05363 6.26299 5.43088 5.88574 5.89625 5.88574ZM3.08211 10.6035C3.54748 10.6035 3.92473 10.9808 3.92473 11.4461V13.7039C3.92473 14.1692 3.54748 14.5465 3.08211 14.5465C2.61675 14.5465 2.2395 14.1692 2.2395 13.7039V11.4461C2.2395 10.9808 2.61675 10.6035 3.08211 10.6035ZM9.5529 9.56429C9.5529 9.09893 9.17565 8.72168 8.71029 8.72168C8.24493 8.72168 7.86768 9.09893 7.86768 9.56429V15.5878C7.86768 16.0531 8.24493 16.4304 8.71029 16.4304C9.17565 16.4304 9.5529 16.0531 9.5529 15.5878V9.56429ZM11.5242 7.10358C11.9895 7.10358 12.3668 7.48083 12.3668 7.9462V17.2038C12.3668 17.6692 11.9895 18.0464 11.5242 18.0464C11.0588 18.0464 10.6816 17.6692 10.6816 17.2038V7.9462C10.6816 7.48083 11.0588 7.10358 11.5242 7.10358ZM15.1387 11.4251C15.1387 10.9713 14.7709 10.6035 14.3172 10.6035C13.8634 10.6035 13.4956 10.9713 13.4956 11.4251V13.7249C13.4956 14.1787 13.8634 14.5465 14.3172 14.5465C14.7709 14.5465 15.1387 14.1787 15.1387 13.7249V11.4251Z" fill="#7A8DA5"/>
<defs>
<linearGradient id="paint0_linear_260_71" x1="22.6757" y1="22.5758" x2="-10.5863" y2="0.767978" gradientUnits="userSpaceOnUse">
<stop stop-color="#51ACFF"/>
<stop offset="1" stop-color="#0055D5"/>
</linearGradient>
</defs>
</svg>
