<svg width="69" height="64" viewBox="0 0 69 64" fill="none" xmlns="http://www.w3.org/2000/svg">
<ellipse cx="35.1324" cy="32.1325" rx="20.1324" ry="20.1325" fill="#EBEFF9"/>
<ellipse cx="19.9544" cy="3.5" rx="3.49998" ry="3.5" fill="#2477F4"/>
<ellipse cx="3.49998" cy="32.3145" rx="3.49998" ry="3.5" fill="#2477F4"/>
<ellipse cx="19.9546" cy="60.5" rx="3.49998" ry="3.5" fill="#2477F4"/>
<ellipse cx="49.9546" cy="3.5" rx="3.49998" ry="3.5" fill="#2477F4"/>
<ellipse cx="65.5" cy="32.3145" rx="3.49998" ry="3.5" fill="#2477F4"/>
<ellipse cx="49.9544" cy="60.5" rx="3.49998" ry="3.5" fill="#2477F4"/>
<path d="M23.0802 32.0381L23.0082 31.9457C22.9971 31.9317 22.9973 31.9179 23.0087 31.9042L23.0344 31.8732L41.8622 21.0052C41.8709 21.0001 41.8813 20.9987 41.8911 21.0013C41.9009 21.0039 41.9094 21.0103 41.9146 21.0191C42.8605 22.6497 43.8045 24.2805 44.7466 25.9114C44.8158 26.0312 44.8784 26.1495 44.9343 26.2665C44.936 26.27 44.9369 26.2739 44.9369 26.2778C44.9369 26.2818 44.9361 26.2857 44.9345 26.2892C44.9328 26.2928 44.9304 26.296 44.9275 26.2986C44.9245 26.3011 44.921 26.303 44.9172 26.3041L44.1541 26.5248C44.1357 26.5302 44.1203 26.5257 44.1079 26.5114C44.0726 26.4708 44.0328 26.4121 43.9883 26.3356C43.3458 25.2283 42.7003 24.109 42.0518 22.9779C42.0468 22.9691 42.0388 22.9625 42.0292 22.9593C42.0196 22.956 42.0092 22.9564 41.9999 22.9603C41.515 23.163 41.1249 23.0565 40.8294 22.6409C40.8192 22.627 40.8065 22.6243 40.7912 22.6328C35.6681 25.5875 30.5446 28.5411 25.4208 31.4938C25.3655 31.5256 25.3074 31.5502 25.2464 31.5677C24.5778 31.7593 23.9076 31.9447 23.2356 32.1239C23.2187 32.128 23.2033 32.1252 23.1893 32.1153L23.0802 32.0381Z" fill="#2477F4"/>
<path d="M46.6143 31.9568C46.614 31.9612 46.6131 31.966 46.6115 31.9711C46.6099 31.9774 46.6058 31.9806 46.5991 31.9806H45.8003C45.7806 31.9806 45.7673 31.9714 45.7603 31.953L45.6592 31.6928L44.93 28.9585C44.9293 28.9556 44.9274 28.9531 44.9249 28.9514C44.9224 28.9498 44.9193 28.9491 44.9162 28.9494C44.3811 29.0177 44.0172 28.8066 43.8243 28.316C43.8167 28.2973 43.8032 28.2908 43.7838 28.2965C43.667 28.3313 43.5288 28.3823 43.444 28.4051C39.167 29.5503 34.8904 30.6967 30.6143 31.8443C30.4516 31.8878 30.2875 31.926 30.122 31.9587C29.3995 31.9701 28.6768 31.9735 27.9539 31.9687C27.6637 31.9663 27.2848 31.9959 26.9488 31.9921C26.9027 31.9914 26.9009 31.9822 26.9435 31.9644L27.2981 31.8157L45.2684 27.0063C45.2846 27.0019 45.295 27.0077 45.2994 27.024C45.7563 28.6632 46.1946 30.3074 46.6143 31.9568Z" fill="#2477F4"/>
<path d="M36.3517 28.5608L36.3536 28.5947L32.1909 29.7176C32.1477 29.6651 32.1326 29.6211 32.1456 29.5855C32.1707 29.012 32.3464 28.5323 32.6728 28.1462C33.6264 27.0186 35.1482 27.4794 36.0867 28.3283C36.1734 28.4067 36.2617 28.4843 36.3517 28.5608Z" fill="#2477F4"/>
<path d="M36.0418 31.2417C36.3821 31.3556 37.0151 31.6453 37.2138 31.9537C37.2214 31.9658 37.2181 31.9718 37.2038 31.9718L34.1307 31.9709C34.1148 31.9709 34.111 31.964 34.1192 31.9504L34.1593 31.8851C34.6492 31.3001 35.2767 31.0856 36.0418 31.2417Z" fill="#2477F4"/>
<path d="M46.4577 42.5151C39.3434 42.5356 32.2306 42.517 25.1121 42.5122L25.1073 32.7905C25.1073 32.7875 25.1079 32.7846 25.109 32.7819C25.1101 32.7792 25.1118 32.7767 25.1139 32.7746C25.1159 32.7725 25.1184 32.7709 25.1211 32.7698C25.1238 32.7686 25.1268 32.7681 25.1297 32.7681C27.2706 32.7862 29.4113 32.7881 31.5519 32.7738C31.5602 32.7738 31.5673 32.7768 31.5734 32.7828C31.5832 32.7927 31.5951 32.7976 31.6091 32.7976C35.9343 32.75 40.2614 32.7995 44.587 32.7843C45.3591 32.7817 46.1314 32.7854 46.9038 32.7952C46.9174 32.7952 46.9243 32.8021 46.9243 32.8157L46.92 42.4259C46.92 42.4838 46.8909 42.5128 46.8328 42.5132L46.4577 42.5151ZM26.2912 40.8208C26.6296 40.9939 26.8026 41.2675 26.8102 41.6415C26.8103 41.6485 26.8132 41.6551 26.8182 41.66C26.8232 41.6649 26.8299 41.6677 26.8369 41.6677C32.9142 41.6674 38.9564 41.6672 44.9635 41.6672C45.006 41.6672 45.0603 41.6481 45.1113 41.6534C45.1335 41.6664 45.154 41.6712 45.1728 41.6677C45.1893 41.6648 45.1977 41.655 45.198 41.6381C45.2142 41.1339 45.5421 40.7855 46.0559 40.7721C46.0772 40.7715 46.0878 40.7607 46.0878 40.7397L46.0883 34.5448C46.0883 34.5318 46.0818 34.525 46.0688 34.5243C45.6036 34.5 45.1842 34.1393 45.2033 33.6464C45.2039 33.6293 45.1955 33.6206 45.178 33.6202L43.1572 33.6145H38.6652L33.3988 33.6226L28.7281 33.6145L26.8383 33.6255C26.8224 33.6258 26.8154 33.6337 26.8174 33.6493C26.8631 34.0859 26.397 34.5439 25.9657 34.5153C25.9479 34.5143 25.939 34.5228 25.939 34.5406L25.9409 40.7383C25.9409 40.7567 25.9501 40.7674 25.9685 40.7702L26.2912 40.8208Z" fill="#2477F4"/>
<path d="M37.0088 34.6755C37.507 35.0457 37.8678 35.5216 38.0912 36.1034C38.3719 36.8012 38.431 37.6233 38.3319 38.3315C38.186 39.3734 37.5126 40.5844 36.4174 40.8509C35.2187 41.1425 34.2746 40.1393 33.9095 39.1198C33.6559 38.4116 33.6002 37.6228 33.7031 36.936C33.929 35.4319 35.2816 33.6122 37.0088 34.6755Z" fill="#2477F4"/>
</svg>
