<svg width="352" height="230" viewBox="0 0 352 230" fill="none" xmlns="http://www.w3.org/2000/svg">
<path d="M96.9661 7.71802C98.4377 7.89231 98.8131 8.62627 98.0924 9.91988C95.5373 13.2587 91.8965 15.3454 87.7222 15.5733C87.2713 15.5972 86.8221 15.6316 86.3744 15.6764C85.1838 15.7196 84.2646 14.2612 85.3124 13.4481C87.6317 13.5953 89.8343 13.1755 91.9203 12.1889C93.9618 11.1591 95.6437 9.66883 96.9661 7.71802Z" fill="#557FBF"/>
<path d="M91.9203 12.189C93.9618 11.1592 95.6438 9.6689 96.9661 7.71809C93.4348 3.16326 86.6674 4.59757 85.1791 10.0494C84.9727 11.2247 85.0172 12.3576 85.3125 13.4482C87.6318 13.5953 89.8344 13.1756 91.9203 12.189C91.9203 12.189 91.9203 12.189 91.9203 12.189Z" fill="#FFB800"/>
<path d="M216.279 107.891C197.049 110.884 181.928 122.198 169.327 136.58C165.869 140.525 163.558 143.233 162.393 144.704C154.968 154.077 146.719 163.405 136.509 169.714C136.347 169.519 136.154 169.296 135.93 169.167C112.239 155.557 88.7367 141.6 65.184 127.746C64.1109 127.116 63.3727 126.054 62.9695 124.561C62.4837 122.41 62.8433 120.62 64.0482 119.191C64.5355 118.613 65.6174 117.834 67.2938 116.852C84.7005 106.655 102.108 96.4596 119.516 86.2658C119.878 86.0547 120.304 85.7381 120.774 85.5846C123.044 90.1882 125.315 94.791 127.586 99.393C127.76 99.7456 127.853 99.7432 128.105 99.9855L134.713 104.524L138.478 107.114C138.557 107.168 138.6 107.148 138.607 107.052L138.93 102.374L139.511 94.6967C139.515 94.6423 139.5 94.5927 139.469 94.548L139.407 94.4592C139.561 94.2785 139.584 94.0787 139.478 93.8596C137.013 88.8418 134.548 83.8249 132.084 78.8087C132.321 78.7208 132.74 78.5041 133.342 78.1587C136.039 76.6077 138.728 75.051 141.409 73.4888C143.362 72.3518 144.775 71.6259 145.648 71.3109C148.667 70.2203 151.68 70.2291 154.687 71.3373C155.552 71.6571 156.961 72.391 158.914 73.5391C174.803 82.8854 190.695 92.2278 206.59 101.566C210.867 104.08 213.968 105.875 215.894 106.953C216.273 107.166 216.402 107.479 216.279 107.891ZM130.232 163.842C140.604 157.762 150.964 151.661 161.311 145.539C161.419 145.475 161.598 145.282 161.847 144.961C161.887 144.909 161.88 144.901 161.826 144.934C157.541 147.488 153.251 150.028 148.955 152.554C142.677 156.247 136.43 159.999 130.215 163.813C129.294 164.379 129.3 164.389 130.232 163.842Z" fill="#DEEBFF"/>
<path fill-rule="evenodd" clip-rule="evenodd" d="M98.0925 9.92017C95.5374 13.2589 91.8966 15.3457 87.7223 15.5735C87.2714 15.5975 86.8222 15.6319 86.3745 15.6767L113.947 71.6726L120.774 85.5844C123.044 90.188 125.315 94.7908 127.586 99.3928C127.712 99.647 127.795 99.7167 127.926 99.8266C127.977 99.8691 128.035 99.9176 128.105 99.9852C128.155 99.9852 128.201 99.97 128.243 99.9397C128.291 99.9077 128.343 99.8909 128.401 99.8893C132.946 99.8205 136.614 98.0104 139.407 94.459C139.561 94.2783 139.584 94.0784 139.478 93.8593C137.013 88.8416 134.548 83.8246 132.084 78.8085L130.041 74.7022L121.786 57.9409L98.0925 9.92017Z" fill="#FFB800"/>
<path d="M139.407 94.4585L139.469 94.5472C139.5 94.592 139.515 94.6416 139.511 94.6959L138.93 102.374C137.664 103.362 136.258 104.078 134.713 104.523L128.105 99.9847C128.155 99.9847 128.201 99.9696 128.243 99.9392C128.291 99.9072 128.343 99.8904 128.401 99.8888C132.946 99.82 136.614 98.0099 139.407 94.4585Z" fill="white"/>
<path d="M138.93 102.374L138.607 107.05C138.6 107.146 138.557 107.167 138.478 107.113L134.713 104.523C136.258 104.078 137.664 103.362 138.93 102.374Z" fill="#557FBF"/>
<path d="M224.316 111.908L223.949 111.978C220.723 112.146 217.525 112.553 214.353 113.201C199.242 116.365 186.852 124.191 176.711 135.815C176.055 136.297 175.505 136.924 175.06 137.695C174.41 138.314 173.93 138.806 173.622 139.17C171.451 141.741 167.732 146.21 162.466 152.576C158.548 157.313 154.278 161.704 149.655 165.746C146.936 168.036 144.118 170.194 141.202 172.222L135.456 175.729C135.442 175.738 135.432 175.752 135.427 175.769C135.423 175.789 135.42 175.809 135.418 175.829C135.399 175.834 135.376 175.833 135.349 175.825C135.32 175.815 135.313 175.797 135.327 175.769L135.625 175.211C135.663 175.139 135.724 175.107 135.806 175.117C136.024 175.144 136.216 175.084 136.385 174.937C136.504 174.83 136.484 174.774 136.325 174.769L135.487 174.738C135.404 174.735 135.347 174.695 135.316 174.618C134.993 173.833 134.89 173.02 135.006 172.179C135.019 172.094 134.997 172.018 134.942 171.951L134.492 171.419C134.444 171.363 134.384 171.332 134.313 171.327C134.191 171.321 134.081 171.359 133.984 171.44C133.946 171.472 133.939 171.448 133.963 171.368C133.973 171.331 133.965 171.296 133.939 171.263L136.509 169.713C146.719 163.405 154.968 154.077 162.392 144.704C163.558 143.232 165.869 140.524 169.326 136.58C181.928 122.198 197.049 110.884 216.279 107.891C217.267 107.702 218.096 107.72 218.768 107.943C220.389 108.488 223.375 110.176 224.316 111.908Z" fill="#F9C747"/>
<path d="M224.316 111.908C229.157 114.801 234.055 117.588 238.927 120.428C254.234 129.347 269.547 138.255 284.866 147.15C286.895 148.328 288.318 150.45 288.133 152.863L288.114 153.643C286.868 156.308 284.811 157.507 282.399 158.915C264.165 169.561 245.949 180.236 227.75 190.94C222.77 193.804 217.809 196.7 212.867 199.628C211.245 200.59 209.855 201.349 208.698 201.904C204.09 204.111 197.923 204.091 193.179 202.209C192.273 201.849 190.865 201.114 188.955 200.004C173.861 191.238 158.773 182.464 143.69 173.68C143.656 173.66 143.593 173.598 143.502 173.496C154.542 167.058 165.879 159.282 176.027 151.834C189.692 141.746 202.935 131.124 215.756 119.967C217.708 118.268 220.412 115.749 223.866 112.412C223.923 112.358 223.951 112.291 223.949 112.213V111.978L224.316 111.908ZM225.447 135.98L224.98 135.714L221.642 133.773C221.574 133.733 221.505 133.734 221.435 133.776C217.511 136.143 214.272 139.947 214.294 144.761C214.195 148.794 214.207 151.65 214.329 153.329C214.784 159.634 220.768 163.794 226.05 165.861C233.915 168.941 242.88 169.322 251.079 167.53C257.498 166.125 266.464 162.215 268.142 154.986C268.488 153.497 268.371 151.669 268.335 150.038C268.94 143.763 264.225 139.096 258.963 136.673C249.424 131.982 237.537 131.814 227.576 135.037C226.893 135.258 226.184 135.572 225.447 135.98Z" fill="#DEEBFF"/>
<path d="M214.353 113.201C214.415 113.458 211.812 114.744 211.55 114.902C199.946 121.885 188.333 128.856 176.711 135.815C186.852 124.192 199.242 116.365 214.353 113.201Z" fill="#DEEBFF"/>
<path d="M175.304 147.467C167.136 153.998 158.909 160.193 150.027 165.72C149.965 165.758 149.897 165.773 149.824 165.765L149.655 165.746C154.278 161.704 158.548 157.314 162.466 152.576C167.732 146.21 171.451 141.741 173.622 139.17C173.93 138.806 174.41 138.314 175.061 137.695L209.283 117.694C209.593 117.513 209.615 117.542 209.35 117.782C198.68 127.458 186.595 138.206 175.304 147.467Z" fill="#DEEBFF"/>
<path d="M62.9694 124.561C63.3726 126.055 64.1108 127.116 65.1839 127.746C88.7365 141.6 112.239 155.558 135.93 169.167C136.154 169.296 136.347 169.52 136.509 169.714L133.939 171.263L130.634 172.981C130.559 173.019 130.486 173.017 130.415 172.973C129.616 172.487 128.815 172.007 128.01 171.532C107.047 159.213 86.0926 146.882 65.1458 134.539C62.3407 132.887 62.7646 131.409 62.6407 128.514C62.6915 127.708 62.7011 126.43 62.6693 124.679C62.6661 124.538 62.7662 124.499 62.9694 124.561Z" fill="#A6CAFF"/>
<path d="M62.6409 128.513C62.7647 131.408 62.3408 132.886 65.1459 134.539C86.0927 146.881 107.047 159.212 128.01 171.531C128.815 172.006 129.617 172.487 130.415 172.973C130.487 173.016 130.56 173.018 130.634 172.98L133.939 171.263C133.965 171.296 133.973 171.331 133.963 171.368C133.939 171.448 133.946 171.472 133.985 171.44C134.081 171.359 134.191 171.321 134.313 171.327C134.385 171.332 134.444 171.363 134.492 171.419L134.942 171.951C134.997 172.018 135.019 172.094 135.006 172.179C134.89 173.02 134.993 173.833 135.316 174.618C135.347 174.695 135.405 174.735 135.487 174.738L136.325 174.769C136.484 174.774 136.504 174.83 136.385 174.937C136.217 175.084 136.024 175.144 135.806 175.117C135.724 175.108 135.663 175.139 135.625 175.211L135.328 175.77C135.313 175.797 135.32 175.815 135.349 175.825C135.376 175.833 135.399 175.834 135.418 175.83L188.241 206.591L188.205 206.696C188.176 206.776 188.198 206.84 188.269 206.886L189.05 207.382C189.295 207.537 189.28 207.595 189.005 207.555C188.981 207.552 188.958 207.55 188.936 207.55C188.853 207.55 188.804 207.592 188.788 207.675L188.681 208.267C188.668 208.336 188.628 208.377 188.56 208.39C188.396 208.42 188.257 208.383 188.143 208.279C188.091 208.231 188.029 208.199 187.96 208.181C187.833 208.149 187.707 208.102 187.583 208.04C187.501 207.998 187.452 208.024 187.436 208.116L187.398 208.339L133.377 176.945C133.303 176.902 133.227 176.899 133.149 176.938L130.596 178.228C123.576 181.445 116.237 183.547 108.579 184.534L107.224 184.656C107.2 184.658 107.176 184.654 107.155 184.643C107.133 184.633 107.114 184.617 107.101 184.597C107.087 184.577 107.079 184.554 107.077 184.53C107.076 184.505 107.08 184.481 107.091 184.459L108.198 182.248C108.219 182.207 108.223 182.16 108.211 182.117C108.198 182.073 108.169 182.036 108.129 182.013L104.481 179.907C104.467 179.898 104.456 179.886 104.45 179.87C104.443 179.855 104.442 179.838 104.446 179.822C104.449 179.806 104.458 179.791 104.47 179.78C104.483 179.769 104.498 179.762 104.515 179.761C111.714 179.297 118.684 177.79 125.426 175.239L128.112 174.143C128.284 174.073 128.289 173.991 128.127 173.899C126.427 172.926 124.758 171.961 123.121 171.004C102.184 158.76 81.2493 146.511 60.3168 134.258C59.4675 133.761 59.0286 132.987 59 131.936C59.25 130.221 60.9431 129.475 62.6409 128.513Z" fill="#FFB800"/>
<path d="M224.98 135.714L221.642 133.773C221.574 133.733 221.505 133.734 221.435 133.776C217.511 136.143 214.272 139.947 214.294 144.761C214.549 147.1 215.379 149.15 216.784 150.908C218.424 152.958 220.459 154.607 222.89 155.854C222.96 155.891 223.029 155.889 223.097 155.85L224.009 155.312L241.213 145.298C241.173 145.106 232.173 139.884 227.737 137.311C226.591 136.647 225.75 136.159 225.447 135.98L224.98 135.714Z" fill="#A6CAFF"/>
<path d="M258.919 137.482C258.935 137.212 258.951 136.942 258.963 136.673C264.225 139.096 268.94 143.763 268.335 150.038C267.297 154.825 263.458 158.481 259.137 160.387C248.416 165.638 233.969 165.743 223.283 160.275C223.262 160.264 223.246 160.248 223.234 160.229C223.222 160.21 223.215 160.187 223.215 160.165C223.214 160.142 223.22 160.119 223.231 160.099C223.234 160.093 223.239 160.087 223.243 160.081C223.253 160.069 223.265 160.059 223.278 160.052L241.227 149.62C241.297 149.579 241.332 149.517 241.332 149.436V145.373C241.332 145.341 241.317 145.32 241.287 145.31C241.272 145.307 241.258 145.304 241.245 145.302C241.234 145.3 241.223 145.299 241.213 145.298C241.173 145.106 232.173 139.884 227.737 137.311C226.591 136.647 225.75 136.159 225.447 135.98C226.184 135.572 226.893 135.258 227.576 135.037C237.537 131.814 249.424 131.981 258.963 136.673C258.951 136.942 258.935 137.212 258.919 137.482C258.919 137.482 258.919 137.482 258.919 137.482Z" fill="#FFB800"/>
<path d="M214.294 144.761C214.549 147.101 215.379 149.15 216.784 150.909C218.424 152.959 220.459 154.607 222.89 155.854C222.96 155.891 223.029 155.89 223.097 155.85L224.009 155.312L241.213 145.299C241.234 145.3 241.258 145.304 241.287 145.311C241.317 145.32 241.332 145.341 241.332 145.373V149.436C241.332 149.518 241.297 149.579 241.227 149.621L223.278 160.052C223.258 160.063 223.242 160.08 223.231 160.1C223.22 160.12 223.214 160.142 223.215 160.165C223.215 160.188 223.222 160.21 223.234 160.229C223.246 160.249 223.263 160.265 223.283 160.275C233.97 165.744 248.416 165.638 259.137 160.388C263.459 158.481 267.297 154.826 268.335 150.038C268.371 151.669 268.488 153.497 268.142 154.986C266.464 162.215 257.498 166.125 251.079 167.531C242.88 169.322 233.915 168.941 226.05 165.861C220.768 163.794 214.784 159.635 214.329 153.329C214.207 151.65 214.195 148.794 214.294 144.761Z" fill="#557FBF"/>
<path d="M130.215 163.812C136.43 159.999 142.677 156.246 148.955 152.554C153.251 150.027 157.541 147.487 161.826 144.934C161.88 144.9 161.887 144.909 161.847 144.96C161.598 145.281 161.419 145.474 161.311 145.538C150.964 151.661 140.604 157.762 130.232 163.841C129.3 164.388 129.294 164.379 130.215 163.812Z" fill="#557FBF"/>
<path fill-rule="evenodd" clip-rule="evenodd" d="M223.949 112.212V111.977C220.724 112.145 217.525 112.553 214.353 113.201C214.402 113.403 212.798 114.243 211.987 114.668C211.767 114.783 211.606 114.867 211.55 114.901C199.946 121.884 188.333 128.855 176.711 135.814C176.055 136.297 175.505 136.924 175.061 137.694L209.283 117.693C209.593 117.512 209.615 117.542 209.35 117.782C198.68 127.457 186.595 138.205 175.303 147.466C167.136 153.997 158.909 160.193 150.027 165.72C149.965 165.758 149.897 165.773 149.824 165.765L149.655 165.746C146.936 168.036 144.118 170.194 141.202 172.222C141.928 172.742 142.694 173.166 143.502 173.496C154.542 167.058 165.879 159.282 176.027 151.834C189.692 141.746 202.935 131.123 215.756 119.967C217.708 118.267 220.412 115.749 223.866 112.411C223.923 112.357 223.951 112.291 223.949 112.212Z" fill="#557FBF"/>
<path d="M288.133 152.864C290.785 154.125 293.257 156.582 292.979 159.704C292.507 161.866 291.372 163.473 289.573 164.525C265.487 178.639 241.393 192.74 217.292 206.831L217.115 206.505C217.098 206.473 217.102 206.444 217.127 206.418L217.175 206.368C217.237 206.306 217.31 206.286 217.394 206.308C217.611 206.361 217.815 206.317 218.006 206.176C218.055 206.139 218.05 206.114 217.989 206.099C217.184 205.915 217.392 204.648 216.61 204.958C216.542 204.985 216.48 204.974 216.425 204.924C216.342 204.852 216.256 204.827 216.165 204.85C215.983 204.896 215.973 204.879 216.137 204.797C216.356 204.687 216.539 204.542 216.687 204.363L229.733 196.697C257.635 180.389 276.004 169.634 284.84 164.432C286.733 163.317 288.145 161.347 288.164 159.074C288.178 157.257 288.161 155.447 288.114 153.643L288.133 152.864Z" fill="#FFB800"/>
<path d="M288.114 153.643C288.161 155.447 288.178 157.257 288.164 159.074C288.145 161.347 286.733 163.317 284.839 164.432C276.004 169.634 257.635 180.389 229.733 196.697C229.757 196.488 229.822 196.352 229.929 196.289C229.975 196.262 229.975 196.235 229.931 196.208C229.81 196.133 229.692 196.139 229.576 196.227C229.522 196.269 229.463 196.279 229.4 196.258C229.155 196.175 228.908 196.176 228.657 196.261C228.562 196.293 228.496 196.262 228.459 196.17L228.343 195.889C228.317 195.827 228.275 195.779 228.216 195.745C227.896 195.566 227.805 195.304 227.943 194.961C227.971 194.887 227.964 194.818 227.921 194.754C227.716 194.444 227.693 194.127 227.852 193.802C227.892 193.724 227.904 193.641 227.888 193.555L227.812 193.152C227.796 193.064 227.82 192.988 227.883 192.924C228.231 192.585 228.421 192.164 228.455 191.66C228.472 191.379 228.341 191.238 228.062 191.238C227.997 191.236 227.936 191.256 227.881 191.298C227.805 191.352 227.765 191.332 227.762 191.238L227.75 190.941C245.949 180.237 264.165 169.562 282.399 158.915C284.811 157.507 286.868 156.308 288.114 153.643Z" fill="#A6CAFF"/>
<path d="M141.202 172.222C141.928 172.742 142.694 173.166 143.502 173.496C143.593 173.598 143.656 173.66 143.69 173.68C158.773 182.464 173.861 191.239 188.955 200.005C190.865 201.114 192.273 201.849 193.179 202.209C197.923 204.092 204.09 204.111 208.698 201.904C209.855 201.349 211.245 200.591 212.867 199.628C217.809 196.7 222.77 193.804 227.75 190.94L227.762 191.238C227.765 191.332 227.805 191.352 227.881 191.298C227.936 191.256 227.997 191.236 228.062 191.238C228.341 191.238 228.472 191.379 228.455 191.66C228.421 192.164 228.231 192.585 227.883 192.924C227.82 192.988 227.796 193.064 227.812 193.152L227.888 193.555C227.904 193.641 227.892 193.724 227.852 193.802C227.693 194.126 227.716 194.444 227.921 194.754C227.964 194.818 227.971 194.887 227.943 194.96C227.805 195.304 227.896 195.566 228.217 195.745C228.275 195.778 228.317 195.826 228.343 195.889L228.459 196.169C228.496 196.262 228.562 196.292 228.657 196.26C228.908 196.176 229.156 196.175 229.4 196.258C229.464 196.279 229.522 196.268 229.576 196.227C229.692 196.139 229.81 196.132 229.931 196.208C229.975 196.235 229.975 196.262 229.929 196.289C229.822 196.352 229.757 196.487 229.733 196.697L216.687 204.363C214.558 205.596 212.427 206.828 210.293 208.061C205.8 210.656 200.394 211.064 195.377 209.875C192.677 209.234 190.984 208.191 188.241 206.591L135.418 175.83C135.42 175.809 135.423 175.789 135.428 175.77C135.432 175.752 135.442 175.738 135.456 175.729L141.202 172.222Z" fill="#A6CAFF"/>
<path d="M216.687 204.363C216.539 204.542 216.356 204.687 216.137 204.797C215.973 204.878 215.983 204.896 216.165 204.85C216.256 204.827 216.342 204.852 216.425 204.924C216.48 204.974 216.542 204.985 216.61 204.958C217.392 204.648 217.184 205.915 217.989 206.099C218.05 206.114 218.055 206.139 218.006 206.176C217.815 206.317 217.611 206.361 217.394 206.308C217.31 206.286 217.237 206.306 217.175 206.368L217.127 206.418C217.102 206.444 217.098 206.473 217.115 206.505L217.292 206.831C214.129 208.708 211.968 209.971 210.807 210.621C206.59 212.981 201.109 213.362 196.461 212.455C193.096 211.798 190.841 210.407 187.398 208.34L187.436 208.117C187.452 208.024 187.501 207.998 187.583 208.04C187.707 208.102 187.833 208.149 187.96 208.181C188.03 208.199 188.091 208.232 188.143 208.28C188.257 208.384 188.396 208.42 188.56 208.39C188.628 208.377 188.668 208.336 188.681 208.268L188.788 207.675C188.804 207.592 188.853 207.55 188.936 207.55C188.958 207.55 188.981 207.552 189.005 207.555C189.28 207.595 189.295 207.538 189.05 207.383L188.269 206.886C188.198 206.84 188.176 206.777 188.205 206.697L188.241 206.591C190.984 208.191 192.677 209.234 195.377 209.875C200.394 211.064 205.8 210.657 210.293 208.061C212.427 206.828 214.558 205.596 216.687 204.363Z" fill="#FFB800"/>
<path d="M171.632 224.58C171.819 224.66 171.851 224.8 171.727 225H171.608L171.632 224.58Z" fill="#A2ADB6"/>
<path d="M160.43 224.83L163.274 225H160.118L160.43 224.83Z" fill="#C4C4C8"/>
</svg>
