<svg width="286" height="380" viewBox="0 0 286 380" fill="none" xmlns="http://www.w3.org/2000/svg">
<path d="M196.048 265.561C196.048 296.441 175.113 321.474 140.334 321.474C105.554 321.474 84.619 296.441 84.619 265.561C84.619 234.68 109.563 209.647 140.334 209.647C171.104 209.647 196.048 234.68 196.048 265.561Z" fill="url(#paint0_radial_260_137)"/>
<path d="M193.965 22.462C199.487 27.4841 204.599 32.8924 209.302 38.6871C209.365 38.7639 209.505 38.8531 209.724 38.9548L213.874 44.8714C216.492 48.6736 218.955 52.5717 221.265 56.5658C226.215 65.2296 230.253 74.3011 233.377 83.7804C233.386 83.812 233.406 83.8312 233.438 83.838C233.467 83.847 233.497 83.8527 233.529 83.855C233.412 84.3497 233.492 84.8253 233.769 85.2816C233.445 85.372 233.31 85.5414 233.364 85.7899C235.788 96.7218 237.922 106.241 236.554 116.119C236.282 116.017 236.043 116.086 235.839 116.325C235.764 116.411 235.672 116.444 235.562 116.424C233.428 116.04 231.279 115.85 229.116 115.854C228.491 115.854 227.856 115.529 227.306 115.57C225.83 115.671 224.409 115.343 222.997 115.4C221.95 115.448 219.384 115.631 218.652 114.838C218.568 114.75 218.483 114.747 218.395 114.831C218.127 115.079 217.825 115.222 217.49 115.258C222.072 108.945 223.223 103.13 223.781 95.2748C223.787 95.1664 223.737 95.1122 223.629 95.1122L222.906 95.1088C223.032 92.5673 223.023 90.0258 222.879 87.4843C222.557 81.9245 221.525 76.5026 219.783 71.2185C215.825 58.128 208.592 45.7728 199.692 35.4678C184.044 17.2367 162.062 5.06111 137.528 6.34881C114.107 7.5789 92.6182 17.8636 77.6833 36.3997L72.3921 43.6854C72.2188 43.5092 72.2661 43.3285 72.534 43.1432C72.6217 43.0845 72.6285 43.0178 72.5542 42.9433L72.4259 42.8145C72.3606 42.749 72.2953 42.749 72.2301 42.8145C71.3791 43.6685 71.2306 44.6004 70.2817 45.434C70.1894 45.5153 70.0881 45.53 69.9778 45.478C69.2035 45.1143 68.7105 44.5032 68.4989 43.6447C68.4741 43.5408 68.4156 43.4595 68.3233 43.4008C68.0126 43.2065 67.7189 43.2065 67.442 43.4008C67.3182 43.4866 67.272 43.455 67.3035 43.3059L67.3846 42.923L68.7622 40.7203C69.8968 39.3739 70.8918 37.9438 71.7472 36.4302C71.925 36.3082 72.0815 36.1625 72.2166 35.9931C76.5522 30.5712 81.2772 25.5152 86.3917 20.8253C86.5166 20.8185 86.5842 20.8253 86.6855 20.7372C107.739 2.25527 135.019 -5.0677 161.883 3.67174C173.884 7.57551 184.507 14.1394 193.965 22.462ZM183.575 17.1215C180.826 12.3298 166.894 3.60058 161.563 5.70834C161.496 5.73467 161.438 5.77799 161.394 5.83393C161.349 5.88987 161.32 5.95646 161.309 6.02694C161.299 6.09743 161.307 6.16932 161.333 6.23535C161.359 6.30139 161.402 6.35923 161.458 6.40302C164.159 8.55484 167.185 10.4288 170.214 12.0791C173.601 13.927 176.859 15.4983 179.986 16.7928C181.102 17.2559 182.183 17.5439 183.227 17.6569C183.293 17.6637 183.359 17.6523 183.418 17.6238C183.478 17.5954 183.528 17.5511 183.564 17.4958C183.6 17.4404 183.62 17.3762 183.622 17.3102C183.624 17.2441 183.608 17.1788 183.575 17.1215Z" fill="#EDEDED"/>
<path d="M161.563 5.7083C166.894 3.60053 180.826 12.3298 183.575 17.1214C183.608 17.1788 183.624 17.2441 183.622 17.3101C183.62 17.3761 183.6 17.4404 183.564 17.4957C183.528 17.5511 183.478 17.5954 183.418 17.6238C183.359 17.6522 183.293 17.6637 183.227 17.6568C182.183 17.5439 181.102 17.2558 179.986 16.7927C176.859 15.4982 173.601 13.927 170.214 12.079C167.185 10.4287 164.159 8.5548 161.458 6.40298C161.402 6.35918 161.359 6.30135 161.333 6.23531C161.307 6.16927 161.299 6.09738 161.309 6.0269C161.32 5.95641 161.349 5.88983 161.394 5.83389C161.438 5.77795 161.496 5.73462 161.563 5.7083Z" fill="white"/>
<path d="M228.754 18.5589C227.032 16.9256 225.183 15.4718 223.207 14.1977C223.031 14.0847 222.878 14.1084 222.747 14.2688C217.763 20.2894 214.84 27.1266 213.978 34.7806C213.563 38.4709 213.306 41.3275 214.029 44.6044L213.874 44.8721L209.724 38.9554C209.789 38.8425 209.831 38.725 209.849 38.603C211.057 29.4027 214.333 20.6701 219.573 13.0591C220.294 12.0131 221.006 10.9264 221.711 9.79913C222.97 9.05701 224.28 10.9479 225.037 12.0628C226.435 14.1208 227.674 16.2862 228.754 18.5589Z" fill="#A6A6A6"/>
<path d="M60.5603 9.98126C65.1661 15.6313 68.3457 22.0089 70.0993 29.1138C70.401 30.3337 70.9503 32.7725 71.7471 36.43C70.8917 37.9436 69.8967 39.3736 68.7622 40.7201C68.5022 30.7607 65.9427 21.8925 59.4595 14.2205C59.3852 14.1324 59.2974 14.1155 59.1962 14.1697C57.5529 15.062 56.0919 16.1916 54.8133 17.5584C54.7367 17.6397 54.6433 17.6804 54.533 17.6804L54.1582 17.677C55.4638 14.6475 57.2985 11.9987 59.6621 9.7305C59.7522 9.64465 59.8591 9.60737 59.9829 9.61867C60.2148 9.64352 60.4072 9.76438 60.5603 9.98126Z" fill="#A6A6A6"/>
<path d="M86.3918 20.8253C81.2773 25.5153 76.5522 30.5712 72.2166 35.9931C72.0815 36.1625 71.9251 36.3082 71.7472 36.4302C70.9504 32.7727 70.4011 30.334 70.0994 29.114C68.3458 22.0091 65.1662 15.6316 60.5604 9.98149C60.8868 9.75558 61.283 9.6878 61.749 9.77817C71.2002 11.6352 78.4668 15.5457 86.3918 20.8253Z" fill="#EDEDED"/>
<path d="M221.711 9.79883C221.006 10.9261 220.294 12.0128 219.573 13.0587C214.333 20.6697 211.057 29.4024 209.849 38.6027C209.831 38.7247 209.789 38.8422 209.724 38.9551C209.505 38.8535 209.365 38.7642 209.302 38.6874C204.599 32.8928 199.487 27.4844 193.965 22.4624C201.637 16.2306 211.726 10.9171 221.711 9.79883ZM206.668 18.1825C210.524 18.7856 215.309 17.3556 216.788 13.4112C216.817 13.3333 216.826 13.2493 216.815 13.1668C216.804 13.0843 216.772 13.0059 216.724 12.9386C216.675 12.8714 216.61 12.8174 216.535 12.7816C216.46 12.7458 216.377 12.7292 216.295 12.7334C212.823 12.9142 209.607 13.7184 206.644 15.1462C205.375 15.7561 204.632 17.8639 206.668 18.1825Z" fill="#EDEDED"/>
<path d="M206.668 18.1824C204.632 17.8639 205.375 15.7561 206.644 15.1462C209.607 13.7184 212.823 12.9142 216.295 12.7334C216.377 12.7292 216.46 12.7458 216.535 12.7816C216.61 12.8174 216.675 12.8714 216.724 12.9386C216.772 13.0059 216.804 13.0843 216.815 13.1668C216.826 13.2493 216.817 13.3333 216.788 13.4112C215.309 17.3556 210.524 18.7856 206.668 18.1824Z" fill="white"/>
<path d="M72.3921 43.6854C68.41 49.9748 65.2866 56.6674 63.0219 63.7633C59.6498 73.9339 58.2429 84.3824 58.8011 95.1087C58.9565 99.6835 59.5361 104.203 60.5401 108.667C60.7922 109.792 61.1367 110.888 61.5734 111.954C61.4811 111.94 61.3967 111.947 61.3201 111.974C61.2053 112.017 61.1603 112.1 61.1851 112.222C61.5182 113.92 62.1823 115.478 63.1773 116.895C61.149 117.435 59.2592 118.277 57.5079 119.423C56.3035 120.272 55.2613 121.265 54.3811 122.401C52.9202 123.465 52.1053 124.873 51.9364 126.624C51.0292 126.465 50.1198 126.468 49.2081 126.63C49.1406 126.644 49.0775 126.631 49.019 126.593L48.911 126.525C48.938 126.214 48.9143 125.906 48.84 125.604C45.6491 112.598 47.0707 98.633 49.431 85.6238C50.0635 82.1493 50.4293 79.8043 50.5284 78.5889C50.5599 78.2139 50.6916 77.4514 50.9234 76.3015C53.4964 68.5143 56.7605 61.0309 60.7157 53.8514C62.7417 50.0877 64.9646 46.4449 67.3846 42.9229L67.3035 43.3058C67.272 43.4549 67.3182 43.4865 67.442 43.4007C67.7189 43.2064 68.0126 43.2064 68.3233 43.4007C68.4156 43.4594 68.4741 43.5408 68.4989 43.6447C68.7105 44.5032 69.2035 45.1143 69.9778 45.478C70.0881 45.5299 70.1894 45.5152 70.2817 45.4339C71.2306 44.6003 71.3791 43.6684 72.2301 42.8145C72.2953 42.7489 72.3606 42.7489 72.4259 42.8145L72.5542 42.9432C72.6285 43.0178 72.6217 43.0844 72.534 43.1432C72.2661 43.3284 72.2188 43.5091 72.3921 43.6854Z" fill="#EDEDED"/>
<path d="M38.4298 53.6826C39.7219 54.6473 40.7631 55.8333 41.5532 57.2407C43.9472 61.7003 43.4002 67.1289 41.2155 71.6427C34.3429 75.499 27.9352 80.0207 21.9923 85.2076C14.6279 91.636 7.11482 100.05 5.25429 110.02C5.11247 110.108 4.96952 110.121 4.82545 110.06C4.73091 110.022 4.68251 109.951 4.68026 109.847C4.66675 109.142 3.42752 109.627 3.12362 109.816C3.02007 109.88 2.92666 109.867 2.84337 109.779C2.60925 109.526 2.35262 109.521 2.07349 109.765C3.68977 104.635 5.84633 99.7428 8.54314 95.089C17.1221 80.2805 27.0843 66.4783 38.4298 53.6826ZM36.9812 57.8168C31.2319 64.1718 25.9317 70.5673 21.0806 77.0036C20.3265 78.0044 19.7637 79.0639 19.3923 80.1822C19.3741 80.2388 19.373 80.2997 19.3892 80.357C19.4054 80.4143 19.4382 80.4654 19.4832 80.5037C19.5283 80.542 19.5836 80.5658 19.642 80.5719C19.7005 80.578 19.7593 80.5662 19.811 80.538C20.3884 80.2262 20.9726 79.8501 21.452 79.3655C27.1158 73.6115 32.0783 67.3018 36.3397 60.4363C36.7888 59.7077 37.1096 58.7487 37.275 57.9693C37.2822 57.9326 37.2773 57.8945 37.2611 57.8608C37.2449 57.8271 37.2183 57.7996 37.1852 57.7824C37.152 57.7652 37.1142 57.7593 37.0775 57.7655C37.0407 57.7717 37.0069 57.7897 36.9812 57.8168Z" fill="#A6A6A6"/>
<path d="M68.7622 40.7205L67.3845 42.9231C64.9646 46.4451 62.7416 50.0879 60.7157 53.8517C56.7605 61.0312 53.4964 68.5145 50.9234 76.3017C49.9667 78.5225 49.2058 80.8087 48.6408 83.1604C48.6093 83.287 48.5305 83.3491 48.4044 83.3468C48.2378 83.2994 48.0983 83.209 47.9857 83.0757C45.1111 79.6351 42.8543 75.8239 41.2155 71.6423C43.4002 67.1285 43.9472 61.6999 41.5532 57.2403C40.7631 55.8329 39.7219 54.6469 38.4298 53.6822C38.6628 46.5524 40.9859 38.8838 43.9337 32.4351L44.6192 30.8288C45.3283 29.1819 46.2434 27.6717 47.3644 26.2982C49.1113 23.3907 51.2026 20.7712 53.6382 18.4398C53.7598 18.3224 53.9331 18.0682 54.1582 17.6774L54.533 17.6808C54.6433 17.6808 54.7368 17.6401 54.8133 17.5588C56.0919 16.192 57.5529 15.0624 59.1962 14.1701C59.2975 14.1159 59.3853 14.1328 59.4596 14.2209C65.9427 21.8929 68.5022 30.7611 68.7622 40.7205Z" fill="url(#paint1_radial_260_137)"/>
<path fill-rule="evenodd" clip-rule="evenodd" d="M228.755 18.5586C235.781 25.3123 240.191 34.8244 242.406 44.1941C243.523 48.3893 244.025 52.6579 243.912 57C243.822 61.2449 243.142 65.3915 241.873 69.4398C240.193 74.4212 237.7 78.9463 234.393 83.0149C234.261 83.1776 233.973 83.4577 233.529 83.8553C233.498 83.8531 233.467 83.8474 233.438 83.8384C233.406 83.8316 233.386 83.8124 233.377 83.7808C230.253 74.3015 226.215 65.23 221.265 56.5662C218.955 52.5721 216.492 48.6739 213.874 44.8718L214.029 44.6041C213.306 41.3273 213.563 38.4706 213.978 34.7803C214.84 27.1264 217.764 20.2891 222.747 14.2686C222.878 14.1082 223.031 14.0844 223.207 14.1974C225.183 15.4715 227.032 16.9253 228.755 18.5586Z" fill="url(#paint2_radial_260_137)"/>
<path d="M36.9811 57.8166C37.0068 57.7895 37.0406 57.7715 37.0774 57.7653C37.1142 57.7591 37.1519 57.765 37.1851 57.7822C37.2182 57.7994 37.2448 57.8269 37.261 57.8606C37.2772 57.8943 37.2821 57.9324 37.2749 57.9691C37.1095 58.7485 36.7887 59.7075 36.3396 60.4361C32.0782 67.3016 27.1157 73.6113 21.4519 79.3653C20.9725 79.8499 20.3883 80.226 19.8109 80.5378C19.7592 80.566 19.7004 80.5778 19.6419 80.5717C19.5835 80.5656 19.5282 80.5418 19.4831 80.5035C19.4381 80.4652 19.4053 80.4141 19.3891 80.3568C19.3729 80.2995 19.374 80.2386 19.3922 80.182C19.7636 79.0637 20.3264 78.0042 21.0805 77.0034C25.9316 70.5671 31.2318 64.1716 36.9811 57.8166Z" fill="#EDEDED"/>
<path d="M274.218 74.5094C270.724 79.1157 267.569 83.9243 264.753 88.935L256.841 85.7903L256.997 85.465C260.65 80.6497 265.513 76.6171 271.192 74.7771C272.189 74.5263 273.198 74.4371 274.218 74.5094Z" fill="#A6A6A6"/>
<path d="M282.828 77.9253C285.86 82.151 286.201 87.6542 285.921 92.8457C285.406 102.418 283.68 111.759 280.745 120.87C280.402 121.932 279.854 123.116 279.1 124.422C271.496 120.186 265.307 112.632 261.7 104.821C261.09 103.502 260.479 102.18 259.867 100.857C260.633 96.7664 262.865 92.4424 264.753 88.9351C267.569 83.9244 270.724 79.1158 274.218 74.5095C277.354 74.3604 280.515 75.9056 282.828 77.9253Z" fill="#EDEDED"/>
<path d="M50.9236 76.3016C50.6917 77.4515 50.56 78.214 50.5285 78.589C50.4295 79.8044 50.0637 82.1494 49.4311 85.6239C47.0708 98.6331 45.6493 112.598 48.8402 125.604C48.9145 125.906 48.9381 126.214 48.9111 126.525C47.216 126.914 45.4996 127.083 43.7617 127.034L43.3531 119.782C43.4432 107.587 45.1484 95.5765 48.4688 83.75C48.5115 83.6009 48.4901 83.4665 48.4046 83.3467C48.5307 83.349 48.6095 83.2869 48.641 83.1603C49.206 80.8086 49.9669 78.5224 50.9236 76.3016Z" fill="#D4D4D4"/>
<path d="M160.928 88.3624C147.553 93.11 130.349 93.4217 117.656 86.0479C115.022 84.4281 112.722 82.3102 110.754 79.6941C110.725 79.6608 110.71 79.6177 110.712 79.5736C110.714 79.5295 110.733 79.4878 110.764 79.457C110.796 79.4263 110.838 79.4088 110.882 79.4081C110.926 79.4075 110.968 79.4237 111.001 79.4535C115.623 83.1743 121.559 85.1398 127.367 86.2106C143.376 89.1621 161.89 87.4271 175.734 78.0879C175.743 78.0806 175.753 78.075 175.763 78.0714C175.774 78.0679 175.785 78.0664 175.796 78.0672C175.807 78.068 175.818 78.071 175.828 78.076C175.838 78.081 175.847 78.0879 175.854 78.0964C175.862 78.1048 175.867 78.1147 175.871 78.1253C175.874 78.1359 175.876 78.1471 175.875 78.1583C175.874 78.1695 175.871 78.1804 175.866 78.1904C175.861 78.2004 175.854 78.2093 175.846 78.2167C171.75 82.9439 166.621 85.9429 160.928 88.3624Z" fill="#3086D4"/>
<path d="M256.997 85.4649L256.841 85.7902C257.49 88.8807 258.047 91.987 258.513 95.1091C258.632 95.9156 258.626 96.7063 258.496 97.4812C257.773 101.722 256.622 105.844 255.042 109.85C252.837 113.933 251.287 118.115 246.374 119.931C242.84 108.489 242.412 96.9074 245.091 85.187C245.648 82.7438 246.34 79.5143 248.856 79.1585C251.856 78.7316 254.065 79.6973 255.481 82.0559C256.011 82.9403 256.288 84.2653 256.723 85.326C256.755 85.4005 256.809 85.4434 256.885 85.4547C256.921 85.4592 256.958 85.4626 256.997 85.4649ZM250.654 99.5459C250.984 99.5268 251.267 98.929 251.441 97.8839C251.615 96.8388 251.666 95.432 251.582 93.9731C251.54 93.2507 251.467 92.5372 251.366 91.8735C251.265 91.2097 251.139 90.6086 250.994 90.1045C250.849 89.6003 250.689 89.2031 250.522 88.9354C250.355 88.6677 250.185 88.5347 250.022 88.5442C249.692 88.5633 249.409 89.1611 249.235 90.2063C249.061 91.2514 249.01 92.6581 249.094 94.117C249.136 94.8394 249.209 95.5529 249.31 96.2167C249.411 96.8804 249.537 97.4816 249.682 97.9857C249.827 98.4898 249.987 98.887 250.154 99.1548C250.321 99.4225 250.491 99.5554 250.654 99.5459Z" fill="#EDEDED"/>
<path d="M233.769 85.282C238.57 99.6264 240.556 114.52 238.861 129.42C238.746 129.593 238.699 129.782 238.553 129.928C227.96 140.483 216.268 149.628 203.477 157.363C201.235 156.541 198.932 155.952 196.568 155.597C186.881 153.307 176.119 152.581 166.418 152.154C144.526 151.192 122.669 151.702 100.847 153.683C95.566 154.164 89.9315 154.92 83.9436 155.95C79.6992 156.672 74.462 157.705 70.8287 159.969C67.756 161.883 70.4471 166.048 72.409 167.607C74.7636 169.475 77.1734 170.842 79.6384 171.707C80.182 172.287 80.8911 172.249 81.4145 172.443C82.3217 172.784 83.2165 173.155 84.0989 173.557C83.7545 173.519 83.418 173.458 83.0893 173.374C72.3212 170.647 57.0621 165.052 51.3961 154.699C55.9681 150.285 61.0905 146.556 66.7632 143.513L67.3845 143.313C67.389 143.336 67.3935 143.364 67.398 143.398C67.407 143.455 67.4386 143.494 67.4926 143.517C68.6271 143.966 69.5816 144.29 70.356 144.489C75.941 145.926 81.455 146.891 86.8982 147.383C110.629 149.528 134.637 147.959 158.503 147.034C174.596 146.411 191.456 145.238 207.222 141.25C219.803 138.068 234.329 130.701 236.554 116.119C237.922 106.241 235.788 96.7223 233.363 85.7903C233.309 85.5418 233.445 85.3724 233.769 85.282Z" fill="#D4D4D4"/>
<path d="M256.841 85.7905L264.753 88.9352C262.865 92.4425 260.633 96.7664 259.867 100.857L259.708 100.918C259.602 100.956 259.535 101.031 259.505 101.141L258.938 103.229C257.941 105.626 256.769 107.95 255.423 110.203C255.404 110.235 255.376 110.261 255.343 110.279C255.309 110.296 255.272 110.304 255.234 110.301C255.197 110.298 255.161 110.285 255.13 110.263C255.1 110.241 255.076 110.21 255.062 110.175C255.03 110.101 255.024 109.992 255.042 109.85C256.622 105.845 257.773 101.722 258.496 97.4815C258.626 96.7066 258.632 95.9159 258.513 95.1094C258.047 91.9873 257.49 88.881 256.841 85.7905Z" fill="#979797"/>
<path d="M249.094 94.1169C249.269 97.155 249.967 99.5856 250.654 99.5458C251.341 99.5061 251.756 97.011 251.582 93.973C251.407 90.9349 250.709 88.5043 250.022 88.5441C249.335 88.5838 248.919 91.0789 249.094 94.1169Z" fill="white"/>
<path d="M222.906 95.1088L223.629 95.1122C223.737 95.1122 223.787 95.1664 223.781 95.2748C223.224 103.13 222.072 108.945 217.49 115.258C211.726 121.744 203.203 125.648 195.116 128.064C175.106 134.045 153.259 135.607 132.378 135.282C120.85 135.101 109.406 134.05 98.0446 132.13C94.9988 131.615 92.4089 130.995 90.2749 130.27L91.8079 127.894C91.9069 127.815 92.0431 127.794 92.2165 127.83C118.24 132.981 145.76 133.323 172.044 129.589C181.356 128.267 190.605 126.271 199.452 123.021C205.445 120.819 211.949 117.532 216.295 112.561C220.458 107.538 222.312 101.554 222.906 95.1088Z" fill="#D4D4D4"/>
<path d="M259.867 100.856C260.479 102.18 261.09 103.502 261.7 104.821C265.307 112.632 271.496 120.185 279.1 124.421L277.327 127.302C268.464 122.191 262.595 112.679 259.357 103.276L258.938 103.228L259.506 101.141C259.535 101.03 259.602 100.956 259.708 100.917L259.867 100.856Z" fill="#A7A7A7"/>
<path d="M258.938 103.228L259.357 103.276C259.087 103.425 258.969 103.625 259.002 103.876C259.018 103.986 259.013 104.096 258.985 104.204C257.233 111.341 252.293 118.064 246.694 122.646C246.609 122.716 246.549 122.803 246.516 122.907C246.385 123.327 246.305 123.66 246.276 123.906C245.675 128.897 246.214 133.725 247.893 138.393C250.753 146.343 257.54 148.295 264.145 142.903C264.228 142.833 264.325 142.799 264.435 142.802L264.665 142.805C264.796 143.867 264.486 144.77 263.736 145.516C260.377 148.867 253.316 155.76 249.051 152.859C246.914 151.405 245.813 146.471 245.432 144.062C244.398 136.746 244.118 129.328 245.587 122.049L246.374 119.931C251.287 118.115 252.837 113.933 255.042 109.85C255.024 109.992 255.03 110.101 255.062 110.175C255.076 110.21 255.1 110.24 255.13 110.263C255.161 110.285 255.197 110.298 255.234 110.301C255.272 110.304 255.309 110.296 255.343 110.278C255.376 110.261 255.404 110.235 255.423 110.202C256.769 107.95 257.941 105.625 258.938 103.228Z" fill="#A6A6A6"/>
<path d="M259.357 103.276C262.595 112.68 268.464 122.192 277.327 127.302C273.901 133.022 269.711 138.103 264.756 142.544C264.711 142.585 264.684 142.636 264.675 142.697C264.671 142.733 264.667 142.769 264.665 142.805L264.435 142.802C264.325 142.8 264.228 142.834 264.145 142.904C257.54 148.295 250.753 146.343 247.893 138.393C246.214 133.726 245.675 128.897 246.276 123.907C246.305 123.66 246.385 123.327 246.516 122.907C246.549 122.803 246.609 122.716 246.695 122.646C252.293 118.064 257.233 111.341 258.986 104.205C259.013 104.096 259.018 103.987 259.002 103.876C258.969 103.625 259.087 103.425 259.357 103.276Z" fill="#EDEDED"/>
<path d="M5.25433 110.019C4.77935 112.466 4.78498 114.725 5.27121 116.796C7.58759 126.674 25.8485 127.508 33.4628 127.457C36.9047 127.516 40.3377 127.375 43.7616 127.034C45.4994 127.083 47.2159 126.914 48.911 126.525L49.019 126.593C49.0775 126.631 49.1406 126.644 49.2081 126.63C50.1198 126.468 51.0292 126.465 51.9364 126.624C52.4699 129.477 54.4757 131.246 56.9372 132.72L52.4564 133.415L44.6902 134.346C44.6091 134.285 44.5686 134.245 44.4572 134.255C37.3685 135.009 30.2786 135.328 23.1877 135.211C15.6578 134.699 7.79695 134.17 1.18548 130.063C1.08643 130.002 1.02002 129.915 0.986257 129.802C-0.877651 123.411 0.135338 115.97 2.07353 109.765C2.35267 109.521 2.6093 109.525 2.84341 109.778C2.9267 109.867 3.02012 109.879 3.12367 109.816C3.42757 109.626 4.66679 109.141 4.6803 109.846C4.68255 109.95 4.73095 110.021 4.8255 110.06C4.96957 110.121 5.11252 110.107 5.25433 110.019Z" fill="#A7A7A7"/>
<path fill-rule="evenodd" clip-rule="evenodd" d="M137.527 6.34924C162.062 5.06154 184.044 17.2371 199.692 35.4683C208.592 45.7733 215.825 58.1285 219.783 71.219C221.525 76.5031 222.557 81.925 222.879 87.4847C223.023 90.0262 223.032 92.5678 222.906 95.1094C222.326 101.404 220.544 107.26 216.582 112.208C216.566 112.363 216.541 112.394 216.506 112.302C216.457 112.363 216.407 112.424 216.357 112.485C216.337 112.51 216.316 112.536 216.295 112.561C211.949 117.532 205.445 120.819 199.452 123.022C190.605 126.272 181.356 128.268 172.044 129.589C145.76 133.324 118.24 132.981 92.2164 127.831C92.043 127.794 91.9068 127.816 91.8078 127.895L91.7943 127.658C91.7875 127.545 91.8247 127.448 91.9057 127.366C92.1781 127.1 92.3627 126.718 92.4595 126.221C93.0177 123.345 92.2445 121.04 90.1397 119.305C84.396 114.567 75.5729 114.53 68.1341 115.408C67.6839 115.46 67.2123 115.67 66.7193 116.038L64.9499 116.36C63.7906 115.264 62.8058 114.031 61.9954 112.659L61.5733 111.955C61.1366 110.888 60.7922 109.793 60.54 108.668C59.5361 104.203 58.9564 99.6841 58.8011 95.1094C58.2428 84.383 59.6497 73.9345 63.0219 63.7639C65.2865 56.668 68.4099 49.9753 72.3921 43.6859L77.6832 36.4002C92.6181 17.864 114.107 7.57934 137.527 6.34924ZM160.928 88.3624C147.553 93.11 130.349 93.4218 117.656 86.048C115.022 84.4282 112.722 82.3102 110.754 79.6941C110.725 79.6608 110.71 79.6177 110.712 79.5736C110.714 79.5295 110.733 79.4878 110.764 79.457C110.796 79.4263 110.838 79.4088 110.882 79.4081C110.926 79.4075 110.968 79.4237 111.001 79.4535C115.623 83.1743 121.559 85.1397 127.367 86.2106C143.376 89.1621 161.89 87.4271 175.734 78.0879C175.74 78.0827 175.747 78.0784 175.754 78.0751C175.757 78.0737 175.76 78.0725 175.763 78.0714C175.774 78.0678 175.785 78.0664 175.796 78.0672C175.807 78.068 175.818 78.071 175.828 78.076C175.832 78.078 175.836 78.0804 175.84 78.0831C175.845 78.087 175.85 78.0914 175.854 78.0964C175.857 78.0991 175.859 78.102 175.861 78.1051C175.862 78.1075 175.864 78.11 175.865 78.1125C175.866 78.1137 175.866 78.1149 175.867 78.1161C175.868 78.1191 175.87 78.1221 175.871 78.1253C175.874 78.1359 175.876 78.1471 175.875 78.1583C175.874 78.1694 175.871 78.1803 175.866 78.1904C175.865 78.1918 175.865 78.1932 175.864 78.1945C175.862 78.1976 175.86 78.2005 175.858 78.2032C175.854 78.2081 175.85 78.2126 175.846 78.2167C171.75 82.9439 166.621 85.9429 160.928 88.3624ZM161.846 55.631L161.789 56.1393C161.431 58.8796 161.427 61.2754 161.779 63.3267C162.22 65.8999 163.744 67.5072 166.351 68.1488C174.151 70.0736 183.815 68.0946 191.24 65.3769C192.837 64.7906 195.511 63.6181 196.386 62.0831L196.788 61.4562C197.083 57.9613 196.47 54.6878 194.951 51.6357C192.745 46.3358 189.087 42.4196 183.977 39.8871C180.605 38.5497 177.338 38.2628 174.178 39.0264C166.31 40.9308 163.041 48.2538 161.846 55.631ZM84.6189 56.1257C83.9537 58.4775 83.5586 62.0627 86.0472 63.5233C92.4291 67.2712 101.137 68.7385 108.428 68.8604C111.413 68.9113 117.967 68.4199 118.909 64.8686C119.562 62.4039 119.668 59.6308 119.229 56.5493C118.672 49.9922 115.248 41.5679 108.34 39.433C96.6566 35.8275 87.1142 45.3124 84.6189 56.1257Z" fill="url(#paint3_linear_260_137)"/>
<path d="M61.5734 111.954L61.9954 112.659C62.8058 114.03 63.7907 115.264 64.95 116.359L63.1773 116.895C62.1823 115.478 61.5182 113.921 61.1851 112.222C61.1603 112.1 61.2053 112.017 61.3201 111.974C61.3967 111.947 61.4811 111.941 61.5734 111.954Z" fill="#D4D4D4"/>
<path d="M236.554 116.119C234.329 130.701 219.803 138.068 207.221 141.25C191.456 145.238 174.596 146.411 158.503 147.034C134.637 147.959 110.629 149.528 86.8982 147.383C81.455 146.891 75.9409 145.926 70.356 144.489C69.5816 144.291 68.6271 143.966 67.4926 143.517C67.4386 143.494 67.407 143.455 67.398 143.398C67.3935 143.364 67.389 143.336 67.3845 143.314C71.7381 141.219 76.0884 139.122 80.4352 137.021C83.5688 135.506 87.2628 133.554 89.586 131.029C89.8561 130.618 90.0857 130.365 90.2748 130.27C92.4088 130.996 94.9987 131.616 98.0445 132.131C109.406 134.051 120.85 135.102 132.378 135.282C153.259 135.608 175.106 134.045 195.116 128.064C203.203 125.648 211.726 121.744 217.49 115.259C217.825 115.222 218.127 115.08 218.395 114.832C218.483 114.748 218.568 114.75 218.651 114.838C219.384 115.631 221.95 115.448 222.997 115.401C224.409 115.343 225.83 115.672 227.306 115.57C227.856 115.53 228.491 115.855 229.116 115.855C231.279 115.85 233.428 116.04 235.562 116.424C235.672 116.445 235.764 116.412 235.839 116.326C236.043 116.086 236.282 116.018 236.554 116.119Z" fill="#EDEDED"/>
<path d="M91.8078 127.895L90.2748 130.27C90.0857 130.365 89.8561 130.618 89.586 131.029C89.2618 131.002 89.147 130.982 88.8701 131.171C86.1936 133.026 83.2874 134.319 80.1516 135.051C72.1389 136.919 64.2544 136.773 56.9372 132.72C54.4756 131.246 52.4699 129.477 51.9364 126.624C52.1052 124.873 52.9201 123.466 54.3811 122.401L53.8712 124.547C53.8397 124.68 53.887 124.77 54.013 124.818C54.5961 125.037 55.0609 125.162 55.4076 125.194C63.8042 125.951 72.158 125.674 80.469 124.364C83.3527 123.909 86.7935 123.201 88.546 120.738C88.125 119.217 87.2865 118.131 86.0304 117.478C85.4946 117.2 84.2554 116.846 82.3127 116.417C77.1734 115.281 71.9757 115.154 66.7193 116.038C67.2123 115.669 67.6839 115.459 68.1342 115.407C75.5729 114.53 84.3961 114.567 90.1398 119.304C92.2445 121.039 93.0178 123.345 92.4595 126.221C92.3627 126.718 92.1781 127.099 91.9057 127.366C91.8247 127.447 91.7876 127.544 91.7943 127.657L91.8078 127.895Z" fill="#FFB800"/>
<path d="M88.5461 120.738C86.2297 120.485 83.0984 120.345 79.1522 120.318C71.7304 120.264 66.8275 120.273 64.4436 120.345C63.0254 120.389 58.4872 120.521 57.5079 119.423C59.2593 118.278 61.1491 117.435 63.1773 116.895L64.9501 116.36L66.7194 116.038C71.9757 115.155 77.1735 115.281 82.3128 116.417C84.2555 116.847 85.4947 117.2 86.0305 117.478C87.2866 118.131 88.1251 119.218 88.5461 120.738Z" fill="#FFD568"/>
<path d="M57.5079 119.423C58.4871 120.521 63.0254 120.389 64.4435 120.345C66.8275 120.273 71.7303 120.263 79.1522 120.318C83.0984 120.345 86.2296 120.485 88.546 120.738C86.7935 123.201 83.3527 123.91 80.4691 124.364C72.158 125.674 63.8042 125.951 55.4076 125.194C55.061 125.162 54.5961 125.037 54.0131 124.818C53.887 124.77 53.8398 124.68 53.8713 124.547L54.3811 122.402C55.2613 121.265 56.3036 120.273 57.5079 119.423Z" fill="#FDC943"/>
<path d="M245.587 122.049C244.118 129.328 244.398 136.746 245.432 144.062L244.766 144.079C244.645 144.083 244.565 144.143 244.527 144.258C242.156 151.365 239.246 158.274 235.795 164.916C235.833 164.582 235.779 164.269 235.633 163.977C235.585 163.885 235.512 163.824 235.413 163.794C234.736 163.591 234.105 163.291 233.522 162.893C233.439 162.834 233.346 162.801 233.242 162.795C231.738 162.707 230.231 162.66 228.721 162.656C228.359 162.652 228.018 162.303 227.593 162.303C225.295 162.306 223.003 162.178 220.718 161.92C220.446 161.889 220.066 161.739 219.58 161.47C219.479 161.413 219.371 161.392 219.256 161.405C218.344 161.507 217.717 161.475 217.375 161.31C215.92 160.599 214.35 160.795 213.205 160.616C212.615 160.523 212.029 160.414 211.446 160.287C208.667 159.687 205.729 160.473 203.028 159.497C202.915 159.457 202.845 159.378 202.818 159.26C202.724 158.833 202.517 158.488 202.197 158.223L203.477 157.363C216.268 149.627 227.96 140.482 238.553 129.928C238.699 129.782 238.746 129.592 238.861 129.419C240.914 127.391 242.832 125.24 244.615 122.967C244.918 122.581 245.243 122.408 245.587 122.049Z" fill="#EDEDED"/>
<path d="M89.586 131.03C87.2629 133.554 83.5688 135.506 80.4353 137.021C76.0884 139.122 71.7382 141.219 67.3846 143.314L66.7633 143.513C63.3889 142.251 60.2418 140.604 57.3222 138.573C55.6035 137.377 53.2297 135.282 52.4564 133.415L56.9372 132.72C64.2544 136.773 72.1389 136.919 80.1517 135.052C83.2874 134.32 86.1936 133.027 88.8702 131.172C89.147 130.982 89.2618 131.002 89.586 131.03Z" fill="#D4D4D4"/>
<path d="M52.4565 133.415C53.2297 135.282 55.6035 137.376 57.3222 138.572C60.2419 140.603 63.3889 142.25 66.7633 143.513C61.0905 146.556 55.9682 150.285 51.3962 154.699C47.9925 148.528 45.8956 141.188 44.6902 134.347L52.4565 133.415Z" fill="#A7A7A7"/>
<path d="M245.432 144.062C245.813 146.471 246.914 151.405 249.051 152.859C253.316 155.76 260.377 148.867 263.737 145.516C263.847 145.674 263.854 145.845 263.757 146.028C255.736 161.369 245.323 174.843 232.516 186.448C232.458 186.473 232.404 186.47 232.354 186.441C232.286 186.4 232.284 186.355 232.347 186.306C232.433 186.238 232.507 186.16 232.57 186.072C232.867 185.667 232.842 185.64 232.496 185.99L232.415 186.072C232.322 186.162 232.272 186.143 232.263 186.014C232.067 183.618 225.851 184.211 224.27 184.221C224.162 184.221 224.069 184.186 223.99 184.116C223.52 183.71 222.966 183.583 222.329 183.737C227.738 178.13 232.227 171.856 235.795 164.916C239.246 158.274 242.156 151.365 244.527 144.259C244.565 144.143 244.645 144.084 244.767 144.079L245.432 144.062Z" fill="#D4D4D4"/>
<path d="M196.568 155.597C190.929 159.982 182.606 161.585 175.957 163.293L158.652 166.173C158.456 166.177 158.064 166.21 157.879 166.139C146.408 161.785 133.276 161.266 122.029 166.627C121.826 166.726 121.495 166.749 121.269 166.78C121.044 166.692 120.864 166.642 120.729 166.631C113.899 166.082 107.124 165.139 100.405 163.801C95.1135 162.337 87.4351 160.599 83.9436 155.95C89.9315 154.919 95.566 154.164 100.847 153.682C122.669 151.701 144.526 151.192 166.418 152.154C176.119 152.581 186.881 153.306 196.568 155.597Z" fill="#67636E"/>
<path d="M196.568 155.597C198.932 155.952 201.235 156.54 203.477 157.363L202.197 158.223C197.139 161.318 191.966 164.203 186.678 166.878C186.451 166.661 186.226 166.515 186.003 166.441C183.144 165.481 179.795 164.431 175.957 163.293C182.606 161.585 190.929 159.982 196.568 155.597Z" fill="#979797"/>
<path d="M83.9437 155.949C87.4352 160.599 95.1136 162.337 100.405 163.801C100.204 163.808 100.015 163.837 99.8376 163.889C93.0606 165.868 86.2331 167.874 80.1754 171.609C79.9694 171.734 79.8647 171.69 79.6385 171.707C77.1735 170.842 74.7637 169.475 72.4091 167.607C70.4473 166.048 67.7561 161.883 70.8288 159.968C74.4621 157.705 79.6993 156.671 83.9437 155.949Z" fill="#979797"/>
<path d="M202.197 158.224C202.517 158.488 202.724 158.834 202.818 159.261C202.845 159.378 202.915 159.457 203.028 159.498C205.729 160.474 208.667 159.688 211.446 160.287C212.029 160.414 212.615 160.523 213.205 160.616C214.35 160.796 215.92 160.599 217.375 161.311C217.717 161.476 218.344 161.507 219.256 161.406C219.371 161.392 219.479 161.414 219.58 161.47C220.066 161.739 220.446 161.889 220.718 161.921C223.003 162.178 225.294 162.306 227.593 162.304C228.018 162.304 228.359 162.653 228.721 162.656C230.231 162.661 231.738 162.707 233.242 162.795C233.345 162.802 233.439 162.835 233.522 162.893C234.105 163.291 234.736 163.591 235.413 163.795C235.512 163.824 235.585 163.885 235.633 163.978C235.779 164.269 235.833 164.582 235.795 164.916C232.227 171.856 227.738 178.13 222.329 183.737C216.166 189.542 207.411 194.903 198.587 193.859C187.455 192.544 180.762 181.179 177.544 171.629C180.095 170.335 182.724 169.007 185.432 167.644C185.869 167.423 186.284 167.168 186.678 166.878C191.966 164.204 197.139 161.319 202.197 158.224Z" fill="#EDEDED"/>
<path d="M158.652 166.173C158.821 166.228 158.908 166.332 158.915 166.485C158.922 166.594 158.975 166.669 159.074 166.712C164.157 168.872 168.674 171.879 172.624 175.733C172.942 176.041 173.357 176.248 173.678 176.621C173.757 176.894 173.926 177.111 174.184 177.271L174.62 180.758L174.593 181.097C170.048 184.943 164.284 187.143 158.615 188.684C146.624 191.941 134.019 193.608 121.59 193.456C116.797 193.397 112.045 192.885 107.334 191.921C104.484 191.334 100.918 190.281 100.04 187.051C101.789 183.754 104.366 180.765 106.736 177.892L107.057 177.756C107.158 177.711 107.247 177.646 107.323 177.563C111.065 173.467 115.371 170.093 120.243 167.441C120.6 167.244 120.943 167.024 121.269 166.78C121.495 166.749 121.826 166.726 122.029 166.627C133.276 161.267 146.408 161.785 157.879 166.14C158.064 166.211 158.456 166.177 158.652 166.173Z" fill="#D4D4D4"/>
<path d="M175.957 163.293C179.795 164.431 183.144 165.48 186.003 166.441C186.226 166.515 186.451 166.661 186.678 166.878C186.284 167.167 185.869 167.422 185.432 167.644C182.724 169.006 180.095 170.334 177.544 171.629C175.886 172.381 175.758 175.109 175.653 176.258L173.678 176.62C173.357 176.247 172.942 176.041 172.625 175.732C168.674 171.878 164.157 168.871 159.074 166.712C158.975 166.669 158.922 166.593 158.915 166.485C158.909 166.331 158.821 166.227 158.652 166.173L175.957 163.293Z" fill="#A7A7A7"/>
<path d="M100.405 163.801C107.124 165.138 113.899 166.082 120.729 166.631C120.864 166.642 121.044 166.692 121.269 166.78C120.943 167.024 120.601 167.244 120.243 167.44C115.371 170.093 111.065 173.467 107.324 177.562C107.247 177.646 107.158 177.71 107.057 177.756L106.736 177.891C99.0824 177.008 91.5367 175.563 84.0991 173.557C83.2167 173.155 82.3219 172.783 81.4147 172.442C80.8913 172.249 80.1822 172.286 79.6385 171.707C79.8648 171.69 79.9695 171.734 80.1754 171.609C86.2331 167.874 93.0607 165.868 99.8376 163.889C100.015 163.837 100.205 163.808 100.405 163.801Z" fill="#A7A7A7"/>
<path d="M177.544 171.629C180.762 181.178 187.455 192.544 198.588 193.859C207.411 194.903 216.166 189.542 222.329 183.737C222.966 183.583 223.52 183.71 223.99 184.116C224.069 184.187 224.162 184.222 224.27 184.222C225.851 184.211 232.067 183.618 232.263 186.014C232.272 186.143 232.322 186.162 232.415 186.072L232.496 185.99C232.842 185.64 232.867 185.667 232.57 186.072C232.507 186.16 232.433 186.238 232.347 186.306C232.284 186.355 232.286 186.4 232.354 186.441C232.403 186.47 232.457 186.473 232.516 186.448C221.54 196.628 209.235 204.821 195.603 211.029C195.538 211.059 195.467 211.072 195.397 211.065C195.327 211.059 195.261 211.033 195.204 210.992C192.807 209.277 190.66 207.283 188.765 205.008C188.594 204.8 188.461 204.685 188.366 204.662C182.676 197.313 178.607 189.148 176.16 180.165C176.099 179.944 176.032 179.722 175.957 179.501C176.065 178.399 175.964 177.318 175.653 176.258C175.758 175.109 175.886 172.381 177.544 171.629Z" fill="#D4D4D4"/>
<path d="M174.184 177.271C174.862 177.926 175.43 178.665 175.887 179.487C175.59 180.039 175.168 180.462 174.62 180.758L174.184 177.271Z" fill="#979797"/>
<path d="M175.886 179.487C175.911 179.492 175.935 179.496 175.957 179.501C176.031 179.722 176.099 179.944 176.16 180.165C178.607 189.147 182.676 197.313 188.366 204.662C190.237 210.174 191.724 215.789 192.827 221.507H192.516C192.392 221.24 192.233 220.999 192.037 220.782C181.961 209.569 177.453 195.631 174.593 181.097L174.62 180.758C175.167 180.462 175.589 180.038 175.886 179.487Z" fill="#A7A7A7"/>
<path d="M174.593 181.097C177.453 195.631 181.961 209.569 192.037 220.782C192.233 220.999 192.392 221.241 192.516 221.507C192.692 222.561 192.655 223.666 192.79 224.662C192.972 226.011 193.167 228.058 193.374 230.803C194.471 245.496 194.444 258.749 190.875 272.538C190.848 272.642 190.786 272.716 190.689 272.761C190.563 272.818 190.441 272.846 190.321 272.846C189.889 267.973 189.545 264.395 188.535 260.294C183.862 239.152 167.985 221.416 145.8 219.057C117.562 216.055 94.7962 237.095 89.2483 263.866L89.0491 263.781C88.9523 263.741 88.8972 263.667 88.8837 263.561C87.2899 251.263 87.7592 239.847 89.2416 227.333C90.3694 217.828 92.3087 207.827 95.0595 197.329C95.1001 197.166 95.046 196.946 94.9819 196.811C94.9657 196.775 94.9396 196.746 94.9068 196.725C94.874 196.704 94.836 196.694 94.7973 196.695C94.7587 196.695 94.7211 196.707 94.6891 196.729C94.6571 196.751 94.6321 196.782 94.6172 196.817C90.4504 206.726 88.08 217.356 86.4626 227.946C86.2758 228.007 86.1959 228.151 86.2229 228.38C86.2814 228.859 86.2274 228.885 86.0608 228.458C86.0383 228.406 86.0372 228.344 86.0574 228.271C86.4266 226.972 86.3579 226.942 85.8514 228.18C85.8177 228.263 85.8188 228.351 85.8548 228.444C85.9223 228.609 85.8706 228.665 85.6995 228.613C84.9994 228.399 84.4828 227.965 84.1496 227.312C84.0911 227.199 83.9999 227.143 83.8761 227.143C83.3021 227.138 82.8091 227.348 82.3971 227.773C82.3341 227.841 82.2981 227.92 82.2891 228.01L82.1912 229.142C82.1754 229.33 82.0831 229.383 81.9143 229.301C81.1613 228.942 81.8569 227.787 80.3948 227.848C80.2845 227.852 80.1832 227.823 80.0909 227.76C79.0689 227.068 77.9377 226.735 76.6974 226.76C77.9906 224.073 80.6717 218.861 80.4421 215.933C80.4349 215.844 80.4046 215.758 80.3542 215.685C80.3038 215.611 80.2351 215.552 80.1548 215.513C80.0745 215.474 79.9856 215.457 79.8967 215.464C79.8079 215.47 79.7224 215.5 79.6485 215.55C76.8054 217.468 74.3101 222.914 72.8851 226.008C72.9504 225.635 73.0089 225.269 73.0607 224.91C73.09 224.697 73.0562 224.686 72.9594 224.876L72.6386 225.509C72.5801 225.627 72.4867 225.668 72.3584 225.631C71.1529 225.269 70.8186 223.937 71.163 222.846C71.199 222.737 71.1923 222.632 71.1428 222.531C70.4539 221.111 67.8269 221.267 66.5303 221.358C66.429 221.367 66.3356 221.342 66.25 221.284C65.6872 220.895 65.1346 220.88 64.5921 221.24C64.4728 221.316 64.4007 221.424 64.376 221.562C64.0788 223.11 62.0934 222.9 62.6573 221.507C64.1587 218.964 65.7109 216.45 67.3137 213.968C67.3722 213.877 67.3486 213.792 67.2428 213.713C72.418 205.619 78.2259 198.009 84.6662 190.884C85.4159 190.054 93.9351 180.423 94.6915 183.957C95.3961 187.249 95.7236 190.543 95.6741 193.839C95.6718 193.874 95.6818 193.908 95.7023 193.936C95.7228 193.965 95.7525 193.985 95.7863 193.993C95.8201 194.002 95.8557 193.998 95.8871 193.983C95.9184 193.967 95.9434 193.942 95.9577 193.91C97.1846 191.506 98.5454 189.22 100.04 187.051C100.918 190.281 104.484 191.334 107.334 191.921C112.045 192.885 116.797 193.397 121.59 193.456C134.019 193.608 146.624 191.941 158.615 188.685C164.284 187.143 170.048 184.943 174.593 181.097ZM162.809 210.165C163.173 212.331 165.53 214.432 167.62 212.544C168.829 211.451 169.3 209.949 169.032 208.037C168.593 204.913 166.935 197.326 163.838 196.214C163.735 196.176 163.643 196.196 163.562 196.275C161.623 198.237 162.356 207.478 162.809 210.165ZM166.145 220.596C167.104 221.138 168.016 220.995 168.883 220.165C168.964 220.089 169.016 219.994 169.038 219.881C169.261 218.677 169.001 217.526 168.258 216.428C165.709 212.666 164.244 219.525 166.145 220.596Z" fill="#EDEDED"/>
<path d="M167.62 212.544C165.53 214.431 163.173 212.33 162.809 210.165C162.356 207.478 161.623 198.237 163.562 196.275C163.643 196.196 163.735 196.175 163.838 196.214C166.935 197.325 168.593 204.912 169.032 208.037C169.3 209.948 168.829 211.45 167.62 212.544Z" fill="white"/>
<path d="M89.2484 263.866C88.7487 266.534 88.3874 269.221 88.1645 271.928L88.0531 272.28C88.0036 272.436 87.9394 272.442 87.8606 272.297C87.685 271.972 87.5893 271.624 87.5736 271.253C87.5677 271.129 87.5152 271.011 87.4265 270.923C87.3377 270.835 87.2191 270.784 87.0941 270.779L85.3585 270.718C85.2707 270.716 85.1976 270.745 85.139 270.806C85.004 270.948 84.8351 271.064 84.6325 271.152C84.574 271.079 84.5436 271.023 84.5414 270.982C84.1902 265.149 84.0889 259.316 84.2375 253.483C84.2365 253.463 84.2289 253.444 84.2159 253.428C84.2029 253.413 84.1853 253.402 84.1656 253.398C84.146 253.394 84.1255 253.396 84.1074 253.405C84.0892 253.413 84.0744 253.428 84.0652 253.446L78.6356 266.333C78.1944 266.473 77.8477 266.698 77.5956 267.007C77.5371 267.077 77.465 267.101 77.3795 267.078C76.4813 266.832 75.5707 266.725 74.6478 266.757C72.9358 266.814 71.2408 266.292 69.5659 266.404C69.1067 266.433 68.7375 266.426 68.4584 266.38C68.3526 266.362 68.2513 266.378 68.1545 266.428C67.8731 266.57 67.5929 266.559 67.3137 266.394C72.3719 261.938 75.9107 256.448 78.6187 250.393C81.185 244.661 83.4755 238.599 85.4902 232.205C85.9292 230.812 86.2533 229.392 86.4627 227.946C88.0801 217.356 90.4505 206.726 94.6173 196.817C94.6322 196.782 94.6571 196.751 94.6891 196.729C94.7211 196.707 94.7587 196.695 94.7974 196.694C94.8361 196.694 94.8741 196.704 94.9069 196.725C94.9396 196.746 94.9657 196.775 94.9819 196.811C95.0461 196.946 95.1001 197.166 95.0596 197.329C92.3088 207.827 90.3694 217.828 89.2417 227.332C87.7593 239.847 87.29 251.263 88.8837 263.561C88.8972 263.667 88.9524 263.741 89.0492 263.781L89.2484 263.866Z" fill="#D4D4D4"/>
<path d="M67.2428 213.714C67.3486 213.793 67.3722 213.877 67.3137 213.968C65.7109 216.45 64.1588 218.964 62.6573 221.507C58.378 228.443 54.6536 235.665 51.484 243.175C49.0731 248.895 39.4125 273.507 52.8043 273.534C57.6802 273.544 63.8054 269.59 67.3137 266.394C67.5929 266.559 67.8731 266.57 68.1545 266.428C68.2513 266.378 68.3526 266.362 68.4584 266.381C68.7375 266.426 69.1067 266.434 69.5659 266.404C71.2408 266.292 72.9358 266.814 74.6478 266.757C75.5707 266.725 76.4813 266.832 77.3795 267.079C77.465 267.101 77.5371 267.077 77.5956 267.007C77.8477 266.698 78.1944 266.473 78.6356 266.333C74.3608 276.413 69.9137 286.42 65.2945 296.354C65.1189 294.966 64.9332 293.631 64.7373 292.348C63.9641 287.296 60.5098 283.819 55.5596 282.944C46.9019 281.413 38.7473 290.661 34.4759 296.984C34.3791 297.128 34.074 297.385 33.5608 297.753C33.5495 297.385 33.5754 297.018 33.6384 296.652C38.7169 266.472 49.9184 238.826 67.2428 213.714Z" fill="#D4D4D4"/>
<path d="M166.145 220.595C164.244 219.524 165.709 212.666 168.259 216.427C169.001 217.525 169.261 218.676 169.039 219.88C169.016 219.993 168.964 220.088 168.883 220.165C168.017 220.994 167.104 221.137 166.145 220.595Z" fill="white"/>
<path d="M76.6973 226.76C75.0698 230.092 73.3151 233.355 71.4332 236.55C70.688 237.813 69.7696 238.964 68.6778 240.003C68.6406 240.038 68.5944 240.062 68.5443 240.072C68.4943 240.082 68.4425 240.078 68.3947 240.06C68.3469 240.042 68.3051 240.011 68.274 239.97C68.2429 239.93 68.2237 239.881 68.2186 239.83C68.133 238.951 68.2343 238.042 68.5225 237.102C69.6976 233.293 71.1518 229.595 72.8851 226.008C74.3101 222.914 76.8054 217.468 79.6485 215.55C79.7223 215.5 79.8079 215.47 79.8967 215.464C79.9855 215.457 80.0745 215.474 80.1548 215.513C80.235 215.552 80.3038 215.611 80.3542 215.685C80.4046 215.758 80.4349 215.844 80.442 215.933C80.6717 218.861 77.9906 224.073 76.6973 226.76Z" fill="white"/>
<path d="M188.535 260.294C188.207 260.285 187.999 260.123 187.914 259.806C181.981 237.6 164.051 221.277 140.472 221.362C109.579 221.473 88.3974 249.515 88.3198 278.861L88.1644 271.928C88.3873 269.221 88.7486 266.534 89.2483 263.866C94.7962 237.095 117.561 216.055 145.8 219.057C167.985 221.416 183.862 239.152 188.535 260.294Z" fill="#A6A6A6"/>
<path d="M72.8852 226.008C71.1518 229.595 69.6976 233.293 68.5225 237.102C68.2344 238.042 68.1331 238.951 68.2187 239.83C68.2237 239.881 68.2429 239.93 68.2741 239.97C68.3052 240.011 68.347 240.042 68.3948 240.06C68.4425 240.078 68.4944 240.082 68.5444 240.072C68.5944 240.062 68.6407 240.038 68.6779 240.003C69.7697 238.964 70.6881 237.813 71.4332 236.55C73.3151 233.356 75.0699 230.092 76.6974 226.76C77.9378 226.735 79.0689 227.068 80.0909 227.76C80.1832 227.823 80.2845 227.852 80.3948 227.848C81.8569 227.787 81.1613 228.942 81.9143 229.302C82.0832 229.383 82.1755 229.33 82.1912 229.142L82.2891 228.01C82.2981 227.92 82.3342 227.841 82.3972 227.773C82.8091 227.349 83.3021 227.138 83.8762 227.143C84 227.143 84.0911 227.199 84.1497 227.312C84.4828 227.965 84.9995 228.399 85.6995 228.614C85.8706 228.666 85.9224 228.609 85.8549 228.444C85.8189 228.352 85.8177 228.264 85.8515 228.18C86.358 226.942 86.4267 226.972 86.0575 228.271C86.0372 228.344 86.0383 228.406 86.0608 228.458C86.2274 228.885 86.2815 228.859 86.2229 228.38C86.1959 228.152 86.2758 228.007 86.4627 227.946C86.2533 229.392 85.9291 230.812 85.4902 232.206C83.4755 238.599 81.185 244.661 78.6187 250.393C75.9107 256.448 72.3719 261.938 67.3137 266.394C63.8054 269.59 57.6801 273.544 52.8043 273.534C39.4125 273.507 49.0731 248.895 51.484 243.175C54.6535 235.666 58.378 228.443 62.6573 221.508C62.0934 222.9 64.0789 223.11 64.376 221.562C64.4008 221.424 64.4728 221.317 64.5921 221.24C65.1347 220.881 65.6873 220.895 66.2501 221.284C66.3356 221.343 66.429 221.368 66.5303 221.358C67.827 221.267 70.454 221.111 71.1428 222.531C71.1924 222.633 71.1991 222.738 71.1631 222.846C70.8187 223.937 71.153 225.269 72.3584 225.632C72.4867 225.668 72.5802 225.627 72.6387 225.51L72.9595 224.876C73.0563 224.686 73.09 224.697 73.0608 224.91C73.009 225.269 72.9505 225.635 72.8852 226.008ZM65.8278 246.673C66.1743 246.8 66.5902 246.693 66.9841 246.375C67.3779 246.057 67.7174 245.554 67.928 244.976C68.0322 244.69 68.1016 244.395 68.1323 244.107C68.1629 243.819 68.1542 243.543 68.1066 243.297C68.0589 243.05 67.9734 242.837 67.8548 242.669C67.7361 242.501 67.5868 242.383 67.4152 242.32C67.0687 242.193 66.6528 242.3 66.2589 242.618C65.8651 242.936 65.5256 243.439 65.315 244.017C65.2108 244.303 65.1414 244.598 65.1107 244.886C65.0801 245.174 65.0888 245.45 65.1365 245.696C65.1841 245.943 65.2696 246.156 65.3882 246.324C65.5069 246.491 65.6562 246.61 65.8278 246.673Z" fill="#EDEDED"/>
<path d="M192.516 221.507H192.827C195.792 236.282 196.984 250.891 196.146 265.814C195.697 273.842 194.9 282.565 192.202 290.244C192.193 290.266 192.199 290.283 192.219 290.294C192.228 290.301 192.238 290.307 192.249 290.311C191.687 291.493 191.121 292.673 190.551 293.852C186.074 303.114 178.321 310.237 168.964 314.442C169.158 314.169 169.413 313.985 169.731 313.89C169.83 313.858 169.919 313.806 169.997 313.734L172.229 311.647C175.25 309.64 177.956 307.273 180.347 304.544C186.15 297.685 189.422 289.742 190.163 280.715C190.417 278.101 190.47 275.478 190.321 272.846C190.441 272.846 190.563 272.818 190.689 272.761C190.786 272.716 190.848 272.642 190.875 272.538C194.444 258.749 194.471 245.496 193.374 230.803C193.167 228.058 192.972 226.011 192.79 224.662C192.655 223.666 192.692 222.561 192.516 221.507Z" fill="#D4D4D4"/>
<path d="M65.3149 244.017C64.8766 245.219 65.1061 246.408 65.8277 246.673C66.5492 246.938 67.4895 246.178 67.9278 244.976C68.3662 243.774 68.1366 242.585 67.4151 242.32C66.6936 242.055 65.7533 242.815 65.3149 244.017Z" fill="white"/>
<path d="M88.1644 271.928L88.3197 278.861C88.5133 282.846 89.2562 286.72 90.5483 290.481C93.0223 297.245 97.0112 302.944 102.515 307.577C107.659 311.894 113.455 315.025 119.905 316.97L121.033 317.336C121.102 317.361 121.147 317.41 121.168 317.482L121.212 317.655C121.245 317.793 121.333 317.852 121.475 317.831C121.684 317.797 121.808 317.878 121.846 318.072C121.594 317.984 121.339 317.928 121.08 317.906C119.565 317.77 118.076 317.492 116.613 317.072C104.794 313.677 94.0972 306.045 89.066 294.503C89.0232 294.404 88.9579 294.324 88.8701 294.263L88.7553 294.182L88.8195 294.083C88.8555 294.029 88.8623 293.971 88.8397 293.91C86.1722 286.676 84.9735 278.834 84.6324 271.152C84.835 271.064 85.0039 270.949 85.1389 270.806C85.1975 270.745 85.2706 270.716 85.3584 270.718L87.094 270.779C87.219 270.784 87.3376 270.836 87.4264 270.923C87.5151 271.011 87.5676 271.129 87.5735 271.254C87.5893 271.624 87.6849 271.972 87.8605 272.297C87.9393 272.442 88.0035 272.436 88.053 272.28L88.1644 271.928Z" fill="#D4D4D4"/>
<path d="M65.2943 296.354C65.157 297.101 64.6899 297.579 63.893 297.787L62.8834 296.411C62.7393 296.215 62.5604 296.174 62.3465 296.289C56.3192 299.532 53.0709 306.554 51.6223 312.931C51.4839 313.538 51.5244 314.009 51.6358 314.592C52.8086 320.863 54.7491 326.874 57.4572 332.626C58.5309 334.903 60.9216 336.049 63.346 336.228L63.265 336.347C63.2267 336.406 63.1727 336.443 63.1029 336.459C59.4595 337.265 56.9912 336.1 54.354 333.409C52.5576 331.572 50.9166 329.599 49.4309 327.489C49.4174 325.223 49.549 322.964 49.8259 320.712C50.2019 318.297 50.562 315.88 50.9065 313.463C51.8789 306.635 55.6067 298.665 61.8974 295.249C61.992 295.197 62.01 295.127 61.9515 295.039C58.2642 289.397 51.8452 286.73 45.3654 289.356C40.7022 291.247 35.5697 295.086 34.0536 300.054C33.9028 299.98 33.7374 299.944 33.5573 299.949C33.4357 299.954 33.3806 299.895 33.3918 299.773L33.5606 297.753C34.0739 297.385 34.3789 297.128 34.4757 296.984C38.7472 290.661 46.9018 281.413 55.5595 282.945C60.5096 283.819 63.9639 287.296 64.7372 292.348C64.933 293.631 65.1188 294.967 65.2943 296.354Z" fill="#A7A7A7"/>
<path d="M49.8261 320.711L49.3432 320.589C49.2329 320.56 49.1395 320.503 49.063 320.42C48.7568 320.077 48.3415 319.987 47.817 320.152C47.6977 320.188 47.5795 320.186 47.4624 320.145C46.078 319.657 44.3154 319.657 42.8938 319.386C42.053 319.227 41.2562 318.512 40.4491 318.519C39.058 318.526 37.4304 318.79 36.1101 318.305C35.293 318.005 34.441 317.872 33.554 317.905C33.464 317.91 33.4021 317.954 33.3683 318.038C33.3571 318.069 33.3357 318.094 33.3042 318.112C33.2591 318.139 33.2265 318.128 33.2062 318.078L33.0003 317.563C32.9035 317.326 32.8618 317.335 32.8753 317.59C32.8843 317.771 32.8596 317.936 32.801 318.085C32.7177 312.04 33.1353 306.029 34.0538 300.054C35.5699 295.086 40.7024 291.247 45.3655 289.356C51.8453 286.73 58.2643 289.396 61.9516 295.039C62.0101 295.127 61.9921 295.197 61.8976 295.249C55.6069 298.664 51.8791 306.635 50.9066 313.463C50.5622 315.88 50.202 318.296 49.8261 320.711Z" fill="#EDEDED"/>
<path d="M197.301 290.128C194.59 299.505 188.539 306.777 180.516 312.168C173.098 317.091 164.938 320.475 156.035 322.321C153.597 322.827 151.266 322.996 149.042 322.829L148.931 322.49C149.093 322.063 149.072 321.671 148.87 321.315C148.816 321.217 148.811 321.118 148.856 321.016C149.018 320.653 149.076 320.273 149.028 319.878L149.44 319.8C151.872 319.793 154.241 319.449 156.548 318.766C157.328 318.536 158.233 318.451 158.898 318.231C162.304 317.108 165.66 315.845 168.964 314.442C178.321 310.237 186.074 303.114 190.551 293.853C191.121 292.673 191.687 291.493 192.25 290.311C193.848 289.848 195.472 289.532 197.122 289.363C197.255 289.349 197.341 289.404 197.382 289.529C197.443 289.714 197.416 289.914 197.301 290.128Z" fill="#A6A6A6"/>
<path d="M197.301 290.128C197.591 290.863 197.716 291.625 197.676 292.416C197.46 296.663 197.119 300.899 196.653 305.123L196.555 306.296L196.386 306.747C190.916 308.534 185.63 310.76 180.529 313.426L180.516 312.168C188.539 306.777 194.589 299.505 197.301 290.128Z" fill="#EDEDED"/>
<path d="M88.7554 294.181L88.8702 294.262C88.958 294.323 89.0233 294.403 89.066 294.503C94.0972 306.045 104.794 313.676 116.613 317.071C118.076 317.492 119.565 317.769 121.08 317.905C121.339 317.928 121.594 317.983 121.846 318.071C124.998 318.828 128.178 319.421 131.386 319.85C131.298 319.884 131.246 319.934 131.23 319.999C131.201 320.121 131.246 320.2 131.365 320.236C131.917 320.397 132.144 320.781 132.047 321.389C127.253 322.568 123.683 322.527 119.111 321.389C110.248 319.179 101.735 314.33 94.2323 308.688C90.1961 305.654 86.8633 302.384 84.234 298.878C84.0427 298.134 83.9009 297.368 83.8086 296.58C83.5283 294.133 87.1819 293.818 88.7554 294.181Z" fill="#A6A6A6"/>
<path d="M63.8932 297.787C69.0324 308.35 69.154 320.942 68.5428 332.552C68.4078 335.107 65.8111 335.693 63.9371 336.313L63.3462 336.228C60.9217 336.049 58.5311 334.903 57.4573 332.626C54.7492 326.874 52.8088 320.863 51.636 314.592C51.5245 314.009 51.484 313.538 51.6224 312.931C53.071 306.554 56.3194 299.532 62.3467 296.289C62.5605 296.174 62.7395 296.215 62.8836 296.411L63.8932 297.787ZM58.9228 320.837C58.9676 320.88 59.0222 320.912 59.0821 320.93C59.1419 320.947 59.2051 320.95 59.2662 320.938C59.3273 320.926 59.3845 320.899 59.4329 320.859C59.4813 320.82 59.5195 320.769 59.5441 320.712C59.7422 320.255 59.8344 319.748 59.8209 319.19C59.7534 315.935 59.068 312.828 57.7646 309.871C57.4776 309.217 56.4747 308.197 55.8162 308.699C55.097 309.248 55.3739 311.677 55.5326 312.467C56.0256 314.93 57.0825 319.051 58.9228 320.837Z" fill="#EDEDED"/>
<path d="M84.234 298.877C86.8633 302.384 90.196 305.654 94.2322 308.688C101.735 314.33 110.248 319.179 119.111 321.389C123.683 322.527 127.252 322.568 132.047 321.389C132.176 324.967 130.994 329.535 130.386 332.317C128.677 338.983 119.199 372.666 108.813 369.508C103.93 359.816 102.005 349.267 100.577 338.393C100.572 338.355 100.563 338.339 100.55 338.346L100.462 338.393C100.424 338.413 100.405 338.402 100.405 338.359V338.173C100.405 338.078 100.357 338.029 100.263 338.027C99.2196 338.007 98.6523 337.57 97.4907 338.159C97.4344 338.189 97.3872 338.177 97.3489 338.125L97.2814 338.034C97.2625 338.008 97.2356 337.99 97.205 337.982C97.1744 337.974 97.142 337.977 97.1133 337.99C97.0845 338.003 97.061 338.026 97.0468 338.054C97.0325 338.082 97.0283 338.115 97.0349 338.146C98.5746 345.465 100.155 352.727 101.776 359.931C101.841 360.227 101.745 360.454 101.489 360.613L98.8718 355.275C93.6762 342.026 89.6231 328.429 86.7125 314.486C86.4862 313.412 86.341 312.507 85.9932 311.202C84.9915 307.45 84.4051 303.341 84.234 298.877Z" fill="#EDEDED"/>
<path d="M196.386 306.746L195.893 310.884C194.484 321.373 192.707 331.797 190.561 342.158L190.433 342.032C190.386 341.987 190.333 341.979 190.274 342.009L189.7 342.304C189.59 342.36 189.477 342.363 189.363 342.314C188.807 342.076 188.247 342.041 187.684 342.209C187.554 342.249 187.428 342.239 187.306 342.178L186.209 341.639C186.099 341.585 185.983 341.561 185.861 341.568C184.845 341.616 182.592 341.785 182.093 341.073C182.027 340.979 181.939 340.915 181.826 340.884C180.995 340.646 180.334 341.334 179.526 340.694C179.436 340.622 179.333 340.588 179.216 340.592C178.295 340.626 177.409 340.484 176.558 340.165C176.444 340.122 176.341 340.143 176.251 340.226C175.691 340.758 175.785 341.65 175.296 342.314C175.414 340.989 175.529 331.175 172.459 332.195C170.825 332.741 170.882 339.488 170.963 340.704L170.879 340.877C170.843 340.949 170.817 340.946 170.801 340.867L170.697 340.338C170.67 340.203 170.608 340.183 170.511 340.28L170.399 340.392C170.307 340.485 170.198 340.514 170.072 340.48C169.635 340.356 169.273 340.121 168.985 339.776C168.901 339.676 168.794 339.619 168.664 339.603L165.53 339.22C165.388 339.202 165.297 339.263 165.257 339.403L164.97 340.447C164.895 340.715 164.849 340.711 164.831 340.433L164.744 339.179C165.074 332.212 166.263 324.591 171.699 319.654C174.387 317.216 177.331 315.14 180.529 313.425C185.63 310.759 190.916 308.533 196.386 306.746Z" fill="#EDEDED"/>
<path d="M58.9228 320.836C57.0825 319.051 56.0256 314.93 55.5326 312.466C55.3739 311.677 55.097 309.247 55.8163 308.698C56.4747 308.197 57.4776 309.217 57.7646 309.871C59.068 312.828 59.7534 315.934 59.821 319.189C59.8345 319.747 59.7422 320.255 59.5441 320.711C59.5195 320.768 59.4814 320.819 59.433 320.859C59.3846 320.898 59.3273 320.925 59.2662 320.937C59.2051 320.95 59.1419 320.947 59.0821 320.929C59.0223 320.912 58.9676 320.88 58.9228 320.836Z" fill="white"/>
<path d="M180.516 312.168L180.529 313.426C177.33 315.14 174.387 317.216 171.699 319.654C166.263 324.591 165.074 332.213 164.743 339.18C164.227 351.091 165.614 364.049 169.781 375.286C169.898 375.605 169.875 375.886 169.71 376.13C166.946 372.581 164.457 368.491 162.245 363.86C157.164 353.235 153.165 342.052 150.247 330.312C149.595 327.677 149.193 325.183 149.042 322.829C151.266 322.996 153.597 322.827 156.035 322.321C164.938 320.475 173.098 317.091 180.516 312.168Z" fill="#D4D4D4"/>
<path d="M49.8261 320.711C49.5492 322.964 49.4175 325.223 49.431 327.489C49.2532 328.494 49.162 329.228 49.1575 329.691C49.0855 337.869 49.6696 346.123 50.91 354.452C50.964 354.805 51.0293 355.075 51.1058 355.262C46.7072 355.915 42.2871 355.676 37.8457 354.544C37.7535 354.52 37.6692 354.472 37.6016 354.405C37.5339 354.338 37.4853 354.253 37.4608 354.161C34.3948 342.38 32.8415 330.354 32.801 318.085C32.8596 317.936 32.8843 317.771 32.8753 317.59C32.8618 317.335 32.9034 317.326 33.0002 317.563L33.2062 318.078C33.2265 318.128 33.2591 318.139 33.3041 318.112C33.3357 318.094 33.357 318.069 33.3683 318.038C33.4021 317.954 33.464 317.91 33.554 317.905C34.4409 317.871 35.293 318.005 36.1101 318.305C37.4304 318.79 39.0579 318.526 40.4491 318.519C41.2561 318.512 42.053 319.227 42.8938 319.386C44.3154 319.657 46.078 319.657 47.4624 320.145C47.5795 320.186 47.6977 320.188 47.817 320.152C48.3415 319.987 48.7568 320.076 49.0629 320.42C49.1395 320.503 49.2329 320.56 49.3432 320.589L49.8261 320.711Z" fill="#EDEDED"/>
<path d="M49.4309 327.489C50.9167 329.599 52.5577 331.572 54.3541 333.409C56.9912 336.099 59.4596 337.265 63.103 336.458C63.1727 336.443 63.2268 336.405 63.265 336.347L63.3461 336.228L63.937 336.313C62.7889 343.324 59.6487 354.161 51.1057 355.262C51.0292 355.075 50.9639 354.805 50.9099 354.452C49.6695 346.123 49.0854 337.869 49.1574 329.691C49.1619 329.228 49.2531 328.494 49.4309 327.489Z" fill="#D4D4D4"/>
<path d="M175.295 342.314C175.224 343.466 174.914 347.79 172.918 347.584C172.797 347.57 172.695 347.518 172.614 347.428C171.26 345.903 170.98 342.653 170.963 340.705C170.882 339.488 170.825 332.741 172.459 332.196C175.528 331.176 175.414 340.989 175.295 342.314Z" fill="white"/>
<path d="M108.813 369.508C105.46 368.373 103.012 363.568 101.489 360.613C101.745 360.455 101.841 360.228 101.776 359.932C100.155 352.727 98.5746 345.465 97.0349 338.146C97.0283 338.115 97.0325 338.082 97.0468 338.054C97.061 338.026 97.0845 338.003 97.1133 337.99C97.1421 337.977 97.1744 337.974 97.205 337.982C97.2356 337.99 97.2625 338.008 97.2814 338.034L97.3489 338.125C97.3872 338.177 97.4345 338.189 97.4907 338.159C98.6523 337.57 99.2196 338.007 100.263 338.027C100.358 338.029 100.405 338.078 100.405 338.173V338.359C100.405 338.402 100.424 338.413 100.462 338.393L100.55 338.346C100.563 338.339 100.572 338.355 100.577 338.393C102.005 349.267 103.93 359.816 108.813 369.508Z" fill="#D4D4D4"/>
<path d="M164.743 339.179L164.831 340.433C164.849 340.711 164.895 340.716 164.97 340.447L165.257 339.403C165.297 339.263 165.388 339.202 165.53 339.22L168.664 339.603C168.794 339.619 168.901 339.676 168.984 339.776C169.272 340.122 169.635 340.356 170.072 340.481C170.198 340.515 170.307 340.485 170.399 340.393L170.511 340.281C170.607 340.184 170.669 340.203 170.696 340.338L170.801 340.867C170.817 340.946 170.843 340.949 170.879 340.877L170.963 340.704C170.98 342.653 171.26 345.903 172.614 347.428C172.695 347.518 172.797 347.57 172.918 347.583C174.914 347.79 175.224 343.466 175.295 342.314C175.785 341.65 175.69 340.759 176.251 340.227C176.341 340.143 176.443 340.123 176.558 340.166C177.409 340.484 178.295 340.626 179.216 340.593C179.333 340.588 179.436 340.622 179.526 340.694C180.333 341.335 180.995 340.647 181.826 340.884C181.938 340.916 182.027 340.979 182.092 341.074C182.592 341.785 184.844 341.616 185.861 341.568C185.982 341.562 186.098 341.585 186.209 341.64L187.306 342.178C187.428 342.239 187.554 342.25 187.684 342.209C188.247 342.042 188.806 342.077 189.362 342.314C189.477 342.364 189.59 342.36 189.7 342.304L190.274 342.009C190.333 341.98 190.386 341.988 190.433 342.033L190.561 342.158C188.913 350.89 186.695 359.466 183.906 367.888C182.839 371.104 180.293 378.095 177.183 379.647C174.431 381.023 171.284 378.065 169.71 376.13C169.875 375.886 169.898 375.605 169.781 375.286C165.614 364.049 164.227 351.091 164.743 339.179Z" fill="#EDEDED"/>
<g style="mix-blend-mode:overlay">
<path d="M140.062 317.068C124.253 317.068 114.241 311.769 108.104 305.955C103.135 301.247 107.481 294.364 114.326 294.364H162.335C170.126 294.364 175.512 303.753 169.45 308.649C163.668 313.319 154.795 317.068 140.062 317.068Z" fill="url(#paint4_linear_260_137)" fill-opacity="0.3"/>
</g>
<g style="mix-blend-mode:overlay">
<path d="M137.295 228.115C117.913 227.226 105.153 241.997 99.0157 253.541C96.9161 257.49 98.5168 262.37 102.777 263.731C125.288 270.92 158.264 252.54 163.295 249.633C168.866 246.414 180.009 260.477 179.671 254.886C179.334 249.294 166.84 229.471 137.295 228.115Z" fill="url(#paint5_linear_260_137)" fill-opacity="0.3"/>
</g>
<path d="M161.846 55.6308L161.789 56.1391C161.431 58.8794 161.427 61.2752 161.779 63.3265C162.22 65.8996 163.744 67.507 166.351 68.1486C174.151 70.0734 183.815 68.0944 191.24 65.3766C192.837 64.7904 195.511 63.6179 196.386 62.0828L196.788 61.4559C197.083 57.9611 196.47 54.6876 194.951 51.6355C192.745 46.3356 189.087 42.4194 183.977 39.8869C180.605 38.5495 177.338 38.2626 174.178 39.0261C166.31 40.9306 163.041 48.2536 161.846 55.6308Z" fill="url(#paint6_radial_260_137)"/>
<path d="M84.6189 56.1255C83.9537 58.4773 83.5587 62.0625 86.0472 63.523C92.4291 67.2709 101.137 68.7382 108.428 68.8602C111.413 68.911 117.967 68.4197 118.909 64.8683C119.562 62.4036 119.668 59.6305 119.23 56.5491C118.672 49.992 115.248 41.5677 108.34 39.4328C96.6567 35.8272 87.1143 45.3122 84.6189 56.1255Z" fill="url(#paint7_radial_260_137)"/>
<g style="mix-blend-mode:screen">
<path d="M146.918 13.2722C107.479 7.44363 67.7359 41.7371 77.8658 60.2056C87.9958 78.6742 108.424 53.9365 130.71 47.498C152.996 41.0595 203.882 87.4846 209.555 73.2521C215.228 59.0196 193.685 20.1836 146.918 13.2722Z" fill="url(#paint8_linear_260_137)" fill-opacity="0.4"/>
</g>
<defs>
<radialGradient id="paint0_radial_260_137" cx="0" cy="0" r="1" gradientUnits="userSpaceOnUse" gradientTransform="translate(140.334 321.474) rotate(-90) scale(139.106 138.611)">
<stop stop-color="#1364DF"/>
<stop offset="0.300347" stop-color="#1364DF"/>
<stop offset="0.690972" stop-color="#64A2FF"/>
<stop offset="1" stop-color="#2477F4"/>
</radialGradient>
<radialGradient id="paint1_radial_260_137" cx="0" cy="0" r="1" gradientUnits="userSpaceOnUse" gradientTransform="translate(53.596 83.3469) rotate(-90) scale(86.0903 37.7317)">
<stop stop-color="#1364DF"/>
<stop offset="0.300347" stop-color="#1364DF"/>
<stop offset="0.690972" stop-color="#64A2FF"/>
<stop offset="1" stop-color="#2477F4"/>
</radialGradient>
<radialGradient id="paint2_radial_260_137" cx="0" cy="0" r="1" gradientUnits="userSpaceOnUse" gradientTransform="translate(228.751 83.8553) rotate(-90) scale(86.7374 37.7588)">
<stop stop-color="#1364DF"/>
<stop offset="0.300347" stop-color="#1364DF"/>
<stop offset="0.690972" stop-color="#64A2FF"/>
<stop offset="1" stop-color="#2477F4"/>
</radialGradient>
<linearGradient id="paint3_linear_260_137" x1="140.838" y1="6.25604" x2="140.838" y2="132.089" gradientUnits="userSpaceOnUse">
<stop stop-color="#010622"/>
<stop offset="1" stop-color="#0B4684"/>
</linearGradient>
<linearGradient id="paint4_linear_260_137" x1="140.334" y1="305.547" x2="140.334" y2="294.364" gradientUnits="userSpaceOnUse">
<stop stop-color="white"/>
<stop offset="1" stop-color="white" stop-opacity="0"/>
</linearGradient>
<linearGradient id="paint5_linear_260_137" x1="137.97" y1="240.653" x2="144.598" y2="263.345" gradientUnits="userSpaceOnUse">
<stop stop-color="white"/>
<stop offset="1" stop-color="white" stop-opacity="0"/>
</linearGradient>
<radialGradient id="paint6_radial_260_137" cx="0" cy="0" r="1" gradientUnits="userSpaceOnUse" gradientTransform="translate(140.488 68.9168) rotate(-90) scale(37.6999 140.245)">
<stop stop-color="#1364DF"/>
<stop offset="0.300347" stop-color="#1364DF"/>
<stop offset="0.690972" stop-color="#64A2FF"/>
<stop offset="1" stop-color="#2477F4"/>
</radialGradient>
<radialGradient id="paint7_radial_260_137" cx="0" cy="0" r="1" gradientUnits="userSpaceOnUse" gradientTransform="translate(140.488 68.9168) rotate(-90) scale(37.6999 140.245)">
<stop stop-color="#1364DF"/>
<stop offset="0.300347" stop-color="#1364DF"/>
<stop offset="0.690972" stop-color="#64A2FF"/>
<stop offset="1" stop-color="#2477F4"/>
</radialGradient>
<linearGradient id="paint8_linear_260_137" x1="143.355" y1="12.6139" x2="143.355" y2="75.9792" gradientUnits="userSpaceOnUse">
<stop stop-color="white"/>
<stop offset="1" stop-color="white" stop-opacity="0"/>
</linearGradient>
</defs>
</svg>
