<svg width="625" height="615" viewBox="0 0 625 615" fill="none" xmlns="http://www.w3.org/2000/svg">
<g clip-path="url(#clip0_4_80)">
<path d="M211.922 124.976C242.826 71.448 311.272 53.1081 364.799 84.0123L569.024 201.922C622.552 232.826 640.892 301.272 609.988 354.799L492.078 559.024C461.174 612.552 392.729 630.892 339.201 599.988L134.976 482.078C81.448 451.174 63.1081 382.729 94.0123 329.201L211.922 124.976Z" fill="#040F24"/>
<g filter="url(#filter0_d_4_80)">
<path d="M413.877 105.495C393.196 109.081 379.09 126.65 376.152 146.824C373.856 162.584 376.505 179.855 384.664 193.746C386.853 197.474 389.734 200.444 393.309 202.655C398.785 206.943 405.015 208.718 411.999 207.978C412.111 207.967 412.209 207.999 412.291 208.074C413.287 208.975 422.14 205.095 423.292 204.48C423.442 204.697 423.551 204.93 423.621 205.18C428.056 221.129 429.476 238.726 424.612 254.751C424.545 254.665 424.508 254.565 424.5 254.449C424.497 254.38 424.479 254.374 424.444 254.433C424.358 254.573 424.293 254.531 424.247 254.309C424.234 254.239 424.244 254.173 424.279 254.112C424.299 254.076 424.536 253.585 424.624 253.834C424.686 254.011 424.733 254.021 424.765 253.862L424.825 253.553C424.862 253.36 424.797 253.314 424.628 253.416C424.302 253.617 424.065 253.56 423.918 253.243C423.843 253.08 423.719 252.979 423.545 252.942L421.767 252.564C421.644 252.537 421.541 252.571 421.458 252.664C420.226 254.059 416.758 253.862 415.129 253.786C413.909 253.73 413.19 252.994 411.938 253.078C410.865 253.148 409.793 253.125 408.72 253.01C408.594 252.997 408.471 253.013 408.35 253.058C407.802 253.273 407.288 253.202 406.809 252.845C406.697 252.762 406.573 252.714 406.436 252.701C404.389 252.491 402.768 253.545 401.07 252.065C400.958 251.966 400.828 251.935 400.681 251.973L399.553 252.27C399.425 252.303 399.382 252.382 399.425 252.508C399.436 252.54 399.446 252.572 399.457 252.604C399.505 252.741 399.457 252.806 399.313 252.801C398.44 252.769 397.577 252.812 396.724 252.93C395.556 253.087 394.681 252.182 393.513 252.154C392.957 252.138 392.394 252.14 391.824 252.162C391.612 252.173 391.52 252.282 391.547 252.492L391.695 253.742C391.706 253.817 391.673 253.86 391.595 253.87L388.878 254.228C388.723 254.247 388.671 254.33 388.721 254.478L389.131 255.627C389.16 255.716 389.128 255.756 389.034 255.748C388.622 255.713 388.284 255.538 388.019 255.221C387.928 255.114 387.814 255.078 387.678 255.113C387.25 255.22 386.95 255.087 386.779 254.715C386.764 254.682 386.758 254.646 386.759 254.61C386.761 254.574 386.771 254.538 386.788 254.507C386.806 254.475 386.83 254.448 386.86 254.428C386.89 254.407 386.924 254.394 386.96 254.389C387.645 254.301 388.293 254.088 388.906 253.75C389.211 253.581 389.188 253.498 388.838 253.501C387.923 253.509 387.349 253.092 387.116 252.25C387.079 252.116 386.993 252.03 386.859 251.993L384.548 251.374C384.43 251.342 384.315 251.351 384.202 251.402C383.998 251.498 383.889 251.543 383.661 251.543C379.581 251.602 375.5 251.689 371.42 251.804C370.493 251.828 369.799 251.318 368.763 251.43C368.734 251.433 368.726 251.422 368.739 251.398L368.799 251.289C368.931 251.04 368.872 250.981 368.623 251.113L368.426 251.221C368.311 251.283 368.291 251.367 368.366 251.474C368.39 251.509 368.399 251.543 368.394 251.575C368.383 251.65 368.343 251.675 368.274 251.651L367.824 251.502C375.108 247.088 377.617 239.47 378.467 231.216C378.979 226.241 379.095 221.257 378.817 216.264C378.207 205.278 376.786 194.398 374.555 183.627C374.528 183.49 374.575 183.388 374.695 183.321L375.028 183.14C375.181 183.057 375.227 182.934 375.169 182.77L372.022 173.825C367.467 159.05 366.255 142.687 367.387 127.39C367.419 126.985 367.698 126.421 368.226 125.697C372.247 121.291 376.695 117.371 381.57 113.937C390.798 108.129 400.89 105.15 411.846 105C412.309 104.995 412.986 105.16 413.877 105.495Z" fill="#E7E7E7"/>
<path d="M413.876 105.495C415.606 105.463 417.854 105.181 419.411 106.066C421.396 107.192 422.957 108.738 424.094 110.705L423.986 110.774C423.916 110.822 423.839 110.837 423.753 110.818C418.605 109.553 413.503 109.743 408.446 111.389C391.651 116.849 381.14 132.355 379.579 149.703C378.72 157.628 378.854 165.535 379.98 173.423C381.317 184.29 385.065 195.137 393.308 202.655C389.734 200.444 386.852 197.474 384.664 193.746C376.505 179.856 373.856 162.584 376.152 146.824C379.089 126.65 393.196 109.081 413.876 105.495Z" fill="#A7A7A7"/>
<path d="M357.474 119.148C361.163 121.158 364.747 123.341 368.225 125.697C367.698 126.421 367.419 126.985 367.387 127.39C366.255 142.687 367.467 159.05 372.022 173.825C371.664 173.897 371.453 173.8 371.392 173.532C371.274 173.006 371.221 173.004 371.231 173.524L371.247 174.271C371.25 174.373 371.203 174.442 371.107 174.476C370.569 174.677 370.01 174.714 369.429 174.585C369.288 174.555 369.151 174.569 369.02 174.625C368.319 174.931 367.591 175.046 366.837 174.971C366.676 174.955 366.551 175.014 366.46 175.148L365.874 176.04C365.807 176.14 365.72 176.165 365.613 176.117L365.4 176.016C365.344 175.989 365.316 176.008 365.316 176.073V177.138C365.316 177.269 365.381 177.338 365.512 177.343C365.558 177.343 365.605 177.343 365.653 177.343C365.792 177.346 365.84 177.414 365.797 177.548L365.709 177.829C365.674 177.937 365.709 177.97 365.813 177.93C366.207 177.773 366.484 178.935 365.633 179.253C364.177 174.273 362.333 169.443 360.099 164.763C353.071 149.164 341.714 134.176 327.174 124.982C311.377 114.99 294.527 113.218 276.622 119.667C276.135 119.605 275.968 119.304 276.12 118.762C287.293 113.853 298.314 110.725 310.274 109.632C327.077 108.092 342.384 111.931 357.474 119.148Z" fill="#F8F8F8"/>
<path d="M276.12 118.762C275.968 119.304 276.135 119.605 276.622 119.667C257.142 127.065 242.609 140.698 230.184 156.94C229.973 156.642 229.759 156.634 229.542 156.916C227.533 159.494 225.038 162.987 222.057 167.393C222.254 164.912 223.265 161.985 223.651 160.333C225.77 151.301 228.619 142.503 232.199 133.939C234.058 129.9 236.061 126.483 238.207 123.687C246.37 113.058 265.136 115.542 276.12 118.762Z" fill="#E7E7E7"/>
<path d="M232.199 133.939C228.619 142.502 225.769 151.3 223.65 160.333C223.265 161.985 222.254 164.912 222.057 167.392C219.998 171.039 218.176 174.267 216.041 178.356C215.316 179.747 214.501 181.084 213.597 182.368C214.726 168.554 218.719 155.53 225.577 143.294C227.559 139.762 229.767 136.643 232.199 133.939Z" fill="url(#paint0_radial_4_80)"/>
<path d="M230.184 156.939L227.258 161.145C219.243 172.702 212.76 185.07 207.81 198.249C207.794 197.412 208.211 196.737 208.376 195.973C208.544 195.191 208.668 194.699 208.745 194.498C210.578 189.794 211.855 186.718 212.578 185.271C213.116 184.191 213.455 183.223 213.597 182.368C214.502 181.084 215.316 179.747 216.041 178.356C218.176 174.267 219.998 171.039 222.057 167.392C225.038 162.986 227.533 159.494 229.542 156.915C229.759 156.634 229.973 156.642 230.184 156.939Z" fill="white"/>
<path fill-rule="evenodd" clip-rule="evenodd" d="M424.094 110.706C424.167 110.83 424.235 110.915 424.379 110.963C428.425 112.322 431.919 114.548 434.862 117.641C442.881 126.449 446.3 138.575 446.569 150.306C446.818 157.06 446.182 163.728 444.663 170.308C441.544 183.703 435.183 196.846 423.292 204.481C422.14 205.096 413.287 208.975 412.291 208.075C412.245 208.033 412.193 208.004 412.137 207.989C412.094 207.977 412.048 207.974 411.998 207.978C405.015 208.718 398.785 206.944 393.308 202.655C385.065 195.137 381.317 184.29 379.98 173.423C378.854 165.535 378.72 157.629 379.579 149.703C381.14 132.355 391.651 116.849 408.447 111.389C413.503 109.743 418.606 109.553 423.753 110.818C423.839 110.837 423.917 110.822 423.986 110.774L424.094 110.706Z" fill="url(#paint1_radial_4_80)"/>
<path d="M372.022 173.825L375.168 182.771C375.227 182.934 375.18 183.057 375.028 183.141L374.695 183.321C374.574 183.388 374.528 183.49 374.554 183.627C376.786 194.399 378.206 205.278 378.816 216.264C379.095 221.258 378.978 226.242 378.467 231.216C377.616 239.47 375.108 247.089 367.824 251.503C358.409 256.85 347.822 260.263 337.439 263.166C322.743 267.275 307.879 270.649 292.848 273.289C288.805 273.997 284.762 274.714 280.72 275.44C272.784 276.601 264.831 277.609 256.861 278.464C240.84 280.176 226.207 279.601 212.108 270.933C212.297 270.929 212.429 270.873 212.61 270.909C226.018 273.607 240.29 273.555 253.77 272.654C270.821 271.515 287.661 268.989 304.29 265.076C313.769 262.843 323.032 259.919 332.078 256.303C339.863 253.192 347.32 249.308 354.034 244.242C361.855 238.338 366.718 230.543 368.623 220.86C368.647 220.742 368.584 220.629 368.434 220.522C368.367 220.474 368.3 220.472 368.233 220.518C368.153 220.569 368.055 220.584 367.94 220.562L368.843 216.039C369.964 209.256 370.054 202.454 369.112 195.636C368.454 190.069 367.294 184.608 365.633 179.253C366.484 178.935 366.207 177.773 365.813 177.93C365.709 177.97 365.674 177.937 365.709 177.83L365.797 177.548C365.84 177.414 365.792 177.346 365.653 177.343C365.605 177.343 365.558 177.343 365.512 177.343C365.381 177.338 365.316 177.269 365.316 177.138V176.073C365.316 176.008 365.344 175.99 365.4 176.016L365.613 176.117C365.72 176.165 365.807 176.14 365.874 176.041L366.46 175.148C366.55 175.014 366.676 174.955 366.837 174.971C367.591 175.046 368.319 174.931 369.02 174.625C369.151 174.569 369.288 174.556 369.429 174.585C370.01 174.714 370.569 174.678 371.107 174.477C371.203 174.442 371.25 174.373 371.247 174.272L371.231 173.524C371.221 173.004 371.274 173.007 371.392 173.532C371.453 173.8 371.663 173.898 372.022 173.825Z" fill="#F8F8F8"/>
<path d="M339.229 183.169C324.292 180.487 309.278 182.184 296.444 190.707C296.416 190.727 296.382 190.736 296.348 190.735C296.314 190.733 296.282 190.72 296.256 190.698C296.23 190.676 296.212 190.646 296.206 190.612C296.199 190.579 296.204 190.544 296.219 190.514C301.613 178.746 311.798 174.79 324.047 176.961C329.104 177.858 335.14 179.852 339.342 182.907C339.37 182.926 339.39 182.954 339.4 182.987C339.409 183.019 339.407 183.054 339.394 183.085C339.38 183.116 339.357 183.141 339.327 183.156C339.297 183.172 339.262 183.176 339.229 183.169Z" fill="url(#paint2_radial_4_80)"/>
<path d="M245.712 194.228C246.437 197.458 246.714 200.7 246.543 203.954C245.125 203.98 243.728 204.064 242.353 204.203C240.121 204.428 237.966 204.155 235.715 204.223C235.581 204.226 235.454 204.202 235.333 204.151C234.366 203.745 230.501 204.05 229.193 204.002C224.947 203.845 221.134 204.094 217.077 204.231C216.744 204.243 216.519 204.094 216.222 203.962C216.533 202.112 216.993 200.313 217.603 198.562C219.666 191.941 224.229 183.221 230.963 180.35C234.559 178.818 238.636 180.68 240.92 183.574C243.349 186.654 244.947 190.205 245.712 194.228Z" fill="#2EEAF0"/>
<path d="M214.416 197.63L207.614 217.663C207.574 217.78 207.516 217.891 207.444 217.988C207.372 218.085 207.288 218.165 207.197 218.222C207.107 218.28 207.012 218.314 206.919 218.323C206.827 218.331 206.739 218.313 206.662 218.27C206.085 217.949 204.64 219.042 203.247 218.049C203.14 217.974 203.065 217.874 203.022 217.748L202.878 217.329C204.176 211.685 205.868 206.168 207.955 200.778C209.07 197.891 210.307 195.812 212.727 194.257C213.678 193.645 215.279 193.887 214.914 195.434C214.743 196.164 214.577 196.895 214.416 197.63Z" fill="#1E75C8"/>
<path d="M246.542 203.954C246.43 207.923 245.685 211.755 244.307 215.448C241.554 221.865 236.782 225.952 229.992 227.71C225.986 228.748 220.195 228.317 217.675 224.615C217.118 223.797 216.645 222.566 216.254 220.92C214.927 215.31 214.916 209.658 216.222 203.962C216.519 204.095 216.744 204.243 217.077 204.231C221.134 204.095 224.947 203.845 229.193 204.002C230.501 204.05 234.366 203.745 235.333 204.151C235.454 204.202 235.581 204.226 235.715 204.223C237.966 204.155 240.121 204.428 242.353 204.203C243.728 204.064 245.124 203.981 246.542 203.954Z" fill="#3BF6DC"/>
<path d="M307.023 214.415C302.279 233.363 286.704 243.012 267.801 242.751C267.77 242.749 267.74 242.736 267.717 242.714C267.694 242.693 267.679 242.664 267.675 242.633C267.671 242.602 267.677 242.57 267.694 242.543C267.71 242.516 267.735 242.496 267.765 242.485C282.658 237.906 296.689 229.126 305.417 216.055L306.842 213.788C306.941 213.63 307.02 213.639 307.079 213.816C307.138 213.988 307.119 214.187 307.023 214.415Z" fill="#3184D3"/>
<path d="M212.108 270.933C208.926 269.751 205.848 268.951 203.195 266.696C202.307 265.546 201.603 264.289 201.084 262.925C201.036 262.796 201.032 262.665 201.072 262.531C201.301 261.791 200.193 260.963 201.188 260.565C203.127 266.202 210.619 267.995 215.921 268.831C221.992 269.788 228.104 270.306 234.258 270.387C245.912 270.534 257.525 269.902 269.097 268.489C276.305 267.712 283.462 266.606 290.568 265.172C295.066 264.443 299.519 263.511 303.928 262.374C319.669 258.716 337.323 252.902 351.249 243.563C359.593 237.966 365.424 230.4 367.94 220.562C368.055 220.584 368.153 220.569 368.233 220.518C368.3 220.472 368.367 220.474 368.434 220.522C368.584 220.629 368.647 220.742 368.623 220.86C366.718 230.543 361.855 238.338 354.034 244.242C347.32 249.308 339.863 253.192 332.078 256.303C323.032 259.919 313.769 262.843 304.29 265.076C287.661 268.989 270.822 271.515 253.77 272.654C240.29 273.555 226.018 273.607 212.61 270.909C212.429 270.873 212.297 270.929 212.108 270.933Z" fill="white"/>
<path d="M198.391 245.975C198.621 246.907 198.707 247.75 198.648 248.503C198.557 248.498 198.499 248.503 198.475 248.52C189.566 255.109 180.395 262.748 173.456 271.689C169.941 276.22 167.569 280.819 169.166 286.613L168.163 287.988C163.283 294.372 168.143 297.271 173.773 298.766C170.871 299.747 167.834 300.137 164.663 299.936C153.189 299.204 158.033 285.141 161.252 279.476C169.443 265.051 183.678 253.308 198.391 245.975Z" fill="#A7A7A7"/>
<path fill-rule="evenodd" clip-rule="evenodd" d="M360.099 164.763C353.071 149.164 341.714 134.176 327.174 124.981C311.377 114.989 294.527 113.218 276.622 119.666C257.142 127.064 242.61 140.697 230.184 156.939L227.259 161.145C219.243 172.702 212.76 185.07 207.81 198.249C203.168 210.323 200.148 222.782 198.748 235.626L198.391 245.974C198.621 246.907 198.707 247.75 198.648 248.503L198.68 249.106C198.993 253.044 199.829 256.863 201.188 260.564C203.127 266.201 210.62 267.994 215.921 268.83C221.992 269.787 228.104 270.306 234.258 270.386C245.912 270.534 257.526 269.901 269.097 268.489C276.305 267.711 283.462 266.606 290.568 265.172C295.066 264.443 299.519 263.51 303.929 262.374C319.669 258.715 337.323 252.902 351.249 243.562C359.593 237.966 365.424 230.4 367.941 220.562L368.844 216.039C369.965 209.255 370.054 202.454 369.112 195.635C368.454 190.069 367.294 184.608 365.633 179.252C364.177 174.272 362.333 169.443 360.099 164.763ZM307.079 213.815C307.138 213.987 307.119 214.187 307.023 214.415C302.279 233.363 286.704 243.011 267.801 242.75C267.795 242.75 267.789 242.749 267.783 242.748C267.775 242.746 267.767 242.744 267.76 242.741C267.744 242.735 267.73 242.725 267.717 242.714C267.694 242.692 267.679 242.663 267.675 242.632C267.672 242.612 267.674 242.591 267.68 242.572C267.681 242.569 267.682 242.567 267.683 242.564C267.684 242.562 267.685 242.559 267.686 242.557L267.688 242.552C267.69 242.549 267.692 242.546 267.694 242.542C267.71 242.516 267.735 242.495 267.765 242.485C282.658 237.906 296.689 229.125 305.417 216.055L306.842 213.787C306.941 213.629 307.02 213.639 307.079 213.815ZM244.307 215.448C241.554 221.864 236.782 225.952 229.992 227.71C225.986 228.747 220.195 228.317 217.675 224.614C217.118 223.797 216.645 222.565 216.254 220.92C214.927 215.31 214.916 209.657 216.222 203.962C216.532 202.112 216.993 200.312 217.603 198.562C219.666 191.941 224.229 183.221 230.963 180.35C234.559 178.818 238.636 180.68 240.92 183.574C243.349 186.654 244.947 190.205 245.712 194.228C246.437 197.458 246.714 200.7 246.542 203.954C246.43 207.923 245.685 211.754 244.307 215.448ZM245.034 215.282C245.029 215.268 245.025 215.253 245.021 215.239C245.025 215.254 245.03 215.269 245.034 215.284L245.034 215.282ZM339.229 183.168C324.292 180.487 309.278 182.183 296.444 190.706C296.416 190.726 296.382 190.736 296.348 190.735C296.314 190.733 296.282 190.72 296.256 190.698C296.23 190.676 296.213 190.646 296.206 190.612C296.199 190.579 296.204 190.544 296.219 190.513C301.613 178.746 311.799 174.79 324.047 176.961C329.104 177.857 335.14 179.851 339.342 182.907C339.356 182.917 339.369 182.929 339.379 182.943C339.388 182.956 339.395 182.97 339.4 182.986C339.409 183.019 339.407 183.053 339.394 183.084C339.381 183.115 339.357 183.141 339.327 183.156C339.312 183.164 339.296 183.168 339.28 183.171C339.263 183.173 339.246 183.172 339.229 183.168Z" fill="url(#paint3_linear_4_80)"/>
<path d="M244.307 215.448C241.554 221.864 236.782 225.952 229.992 227.71C225.986 228.747 220.195 228.317 217.675 224.614C217.118 223.797 216.645 222.565 216.254 220.92C214.927 215.31 214.916 209.657 216.222 203.962C216.532 202.112 216.993 200.313 217.603 198.562C219.665 191.941 224.229 183.221 230.963 180.35C234.559 178.818 238.636 180.68 240.92 183.574C243.349 186.654 244.946 190.205 245.712 194.228C246.437 197.458 246.714 200.7 246.542 203.954C246.43 207.923 245.685 211.754 244.307 215.448Z" fill="url(#paint4_radial_4_80)"/>
<path d="M245.034 215.283C245.029 215.268 245.025 215.253 245.021 215.239C245.025 215.254 245.029 215.269 245.034 215.284L245.034 215.283Z" fill="url(#paint5_radial_4_80)"/>
<path d="M408.33 278.411C416.287 272.29 421.715 264.403 424.612 254.751C424.779 254.136 425.132 253.215 425.114 252.942C424.851 248.893 387.478 246.783 369.128 250.615L367.824 251.503C358.409 256.85 347.822 260.263 337.44 263.166C322.743 267.275 307.879 270.649 292.848 273.289C288.805 273.997 284.762 274.714 280.72 275.44C282.14 275.373 283.55 275.168 284.95 274.825C285.081 274.793 285.197 274.822 285.299 274.914C285.505 275.101 285.746 275.171 286.021 275.123C286.171 275.096 286.193 275.028 286.085 274.918L286.005 274.837C285.968 274.802 285.974 274.777 286.025 274.761L286.29 274.676C286.408 274.639 286.489 274.678 286.535 274.793C286.554 274.841 286.571 274.889 286.587 274.938C286.598 274.967 286.619 274.983 286.651 274.986C287.663 275.077 288.011 275.651 287.695 276.707C287.657 276.827 287.584 276.914 287.474 276.968C286.736 277.327 286.096 277.827 285.556 278.468C285.35 278.712 285.403 278.812 285.716 278.769L287.001 278.596C287.142 278.577 287.231 278.638 287.265 278.777C287.306 278.946 287.245 279.049 287.085 279.087C286.828 279.146 286.795 279.264 286.984 279.441L287.029 279.485C287.149 279.621 287.217 279.603 287.233 279.428C287.255 279.136 287.425 279.059 287.743 279.195C287.885 279.257 288.011 279.233 288.12 279.123L288.341 278.902C288.424 278.819 288.523 278.795 288.638 278.829C289.141 278.982 289.553 278.828 289.874 278.367C289.965 278.233 290.091 278.154 290.251 278.13L290.913 278.021C291.133 277.984 291.165 278.045 291.01 278.206C290.881 278.338 290.851 278.478 290.917 278.628C291.006 278.821 291.079 278.816 291.138 278.612C291.181 278.46 291.271 278.37 291.407 278.343C291.501 278.324 291.577 278.276 291.636 278.198C292.008 277.694 292.532 277.503 293.209 277.623C293.311 277.642 293.4 277.617 293.478 277.547C294.417 276.684 295.491 276.461 296.701 276.88C296.829 276.922 296.875 277.01 296.837 277.141C296.77 277.366 296.854 277.531 297.09 277.635C320.046 273.225 343.319 269.973 366.652 268.465C375.305 267.91 384.588 267.709 392.506 268.32C396.226 268.565 410.887 269.755 409.029 276.413C408.9 276.872 408.51 277.614 407.857 278.64C408.036 278.592 408.194 278.516 408.33 278.411Z" fill="#A7A7A7"/>
<path d="M203.195 266.696C205.848 268.952 208.926 269.752 212.108 270.934C226.207 279.602 240.84 280.176 256.861 278.464C264.831 277.609 272.784 276.601 280.72 275.44C282.14 275.373 283.55 275.168 284.95 274.825C285.081 274.793 285.197 274.823 285.299 274.914C285.505 275.101 285.746 275.171 286.021 275.123C286.171 275.096 286.192 275.028 286.085 274.918L286.005 274.837C285.968 274.803 285.974 274.777 286.025 274.761L286.29 274.677C286.408 274.639 286.489 274.678 286.535 274.793C286.554 274.841 286.571 274.89 286.587 274.938C286.598 274.967 286.619 274.983 286.651 274.986C287.663 275.077 288.01 275.651 287.695 276.707C287.657 276.827 287.584 276.915 287.474 276.968C286.736 277.327 286.096 277.827 285.556 278.468C285.35 278.712 285.403 278.812 285.716 278.769L287 278.596C287.142 278.578 287.231 278.638 287.265 278.777C287.305 278.946 287.245 279.049 287.085 279.087C286.828 279.146 286.794 279.264 286.984 279.441C286.998 279.454 287.012 279.469 287.029 279.485C287.149 279.622 287.217 279.603 287.233 279.429C287.255 279.136 287.425 279.059 287.743 279.195C287.885 279.257 288.01 279.233 288.12 279.123L288.341 278.902C288.424 278.819 288.523 278.795 288.638 278.83C289.141 278.982 289.553 278.828 289.874 278.367C289.965 278.233 290.091 278.154 290.251 278.13L290.913 278.022C291.133 277.984 291.165 278.046 291.01 278.206C290.881 278.338 290.851 278.479 290.917 278.629C291.006 278.822 291.079 278.816 291.138 278.613C291.181 278.46 291.271 278.37 291.407 278.343C291.501 278.324 291.577 278.276 291.636 278.198C292.008 277.695 292.532 277.503 293.209 277.624C293.311 277.642 293.4 277.617 293.478 277.547C294.417 276.684 295.491 276.462 296.701 276.88C296.829 276.923 296.874 277.01 296.837 277.141C296.77 277.366 296.854 277.531 297.09 277.636C284.111 280.026 271.302 283.119 258.663 286.915C254.34 288.229 245.447 291.124 242.642 294.682C240.707 297.134 243.372 300.881 245.347 302.26C248.704 304.606 252.429 306.115 256.52 306.787C259.992 307.921 263.445 308.541 266.878 308.649C267.025 308.654 267.135 308.722 267.207 308.854L267.387 309.179C254.441 308.536 240.37 306.715 228.599 301.625C222.346 298.915 217.928 294.163 213.914 288.893C216.583 282.669 212.245 278.066 206.566 276.55C205.309 273.296 204.185 270.012 203.195 266.696Z" fill="#A7A7A7"/>
<path d="M392.506 268.32C392.533 268.585 392.618 268.839 392.763 269.08C392.838 269.211 392.816 269.324 392.698 269.417C385.238 275.38 375.883 278.958 366.921 281.977C366.268 282.197 365.602 282.376 364.922 282.516C364.786 282.545 364.688 282.623 364.629 282.749L364.513 282.994C364.308 282.982 364.044 282.946 363.847 283.01C339.029 291.216 314.15 294.589 288.024 294.139C285.359 294.095 281.775 293.865 278.649 293.833C272.38 292.86 265.927 291.984 260.328 288.824C259.421 288.313 258.687 288.144 258.663 286.914C271.302 283.119 284.111 280.026 297.09 277.635C320.046 273.225 343.319 269.972 366.652 268.465C375.305 267.91 384.588 267.709 392.506 268.32Z" fill="#67636E"/>
<path d="M392.506 268.32C396.226 268.565 410.886 269.755 409.028 276.413C408.9 276.871 408.509 277.613 407.856 278.64C403.394 283.094 396.732 286.512 391.001 289.024C382.27 286.585 373.441 284.575 364.513 282.994L364.629 282.749C364.688 282.623 364.786 282.545 364.922 282.516C365.602 282.376 366.268 282.197 366.921 281.977C375.883 278.957 385.238 275.379 392.698 269.417C392.816 269.323 392.837 269.211 392.762 269.079C392.618 268.838 392.532 268.585 392.506 268.32Z" fill="#8E8E8E"/>
<path d="M206.566 276.55C212.245 278.065 216.583 282.669 213.914 288.892C212.079 291.805 209.58 293.967 206.418 295.377C197.227 299.472 187.619 300.862 177.594 299.546L175.989 299.277C175.24 299.258 174.501 299.088 173.774 298.766C168.143 297.271 163.283 294.372 168.163 287.987C168.572 288.852 167.85 289.688 168.175 290.733C168.218 290.878 168.314 290.961 168.464 290.983C169.406 291.127 170.584 291.149 172 291.047C181.803 290.337 191.094 288.691 199.872 286.11C203.235 285.121 206.245 283.746 208.729 281.233C208.785 279.309 208.078 277.994 206.606 277.289C206.012 277.005 204.709 276.713 202.697 276.413C196.814 275.532 190.348 276.248 184.493 277.711C183.795 277.888 182.984 278.218 182.109 278.238C189.574 275.396 198.684 274.459 206.566 276.55Z" fill="#FFB800"/>
<path d="M208.729 281.233C207.493 280.928 206.626 280.699 205.338 280.888C194.219 282.544 183.08 284.066 171.923 285.455C171.795 285.471 171.676 285.445 171.566 285.378C171.277 285.204 171.046 284.968 170.872 284.671C173.806 281.495 178.216 279.649 182.109 278.238C182.984 278.218 183.795 277.888 184.493 277.711C190.348 276.248 196.814 275.532 202.697 276.413C204.709 276.713 206.012 277.005 206.606 277.289C208.078 277.994 208.785 279.309 208.729 281.233Z" fill="#FFD568"/>
<path d="M208.729 281.233C206.245 283.746 203.235 285.121 199.872 286.11C191.094 288.691 181.803 290.337 172 291.047C170.584 291.149 169.406 291.127 168.464 290.983C168.314 290.961 168.218 290.878 168.175 290.733C167.85 289.688 168.572 288.852 168.163 287.988L169.166 286.613L170.872 284.671C171.046 284.968 171.277 285.204 171.566 285.378C171.676 285.445 171.795 285.471 171.923 285.455C183.08 284.066 194.219 282.544 205.338 280.888C206.626 280.699 207.493 280.928 208.729 281.233Z" fill="#FDC943"/>
<path d="M364.513 282.994C373.441 284.576 382.27 286.586 391.001 289.025L387.79 290.533C384.531 291.288 381.481 292.856 378.287 293.894C376.452 294.489 374.502 295.357 373.013 295.799C368.869 297.032 364.764 298.382 360.7 299.848L346.911 303.253C340.136 298.513 333.466 295.904 325.006 296.957C314.055 298.321 304.224 302.347 295.512 309.034C295.227 309.251 294.798 309.392 294.481 309.597C292.506 309.649 273.387 309.887 273.191 309.251C273.164 309.166 273.105 309.124 273.014 309.127L267.387 309.179L267.207 308.853C267.134 308.722 267.025 308.654 266.878 308.648C263.445 308.541 259.992 307.921 256.519 306.787C259.577 303.729 263.057 301.3 266.958 299.502C270.879 297.689 274.76 295.763 278.649 293.833C281.775 293.865 285.359 294.095 288.024 294.139C314.15 294.589 339.029 291.216 363.847 283.01C364.043 282.946 364.308 282.982 364.513 282.994Z" fill="#A7A7A7"/>
<path d="M258.662 286.914C258.686 288.144 259.421 288.313 260.328 288.824C265.926 291.984 272.38 292.86 278.649 293.833C274.76 295.763 270.879 297.689 266.958 299.502C263.057 301.3 259.577 303.729 256.519 306.787C252.428 306.114 248.704 304.605 245.346 302.26C243.372 300.881 240.707 297.134 242.641 294.681C245.447 291.123 254.34 288.229 258.662 286.914Z" fill="#8E8E8E"/>
<path d="M387.79 290.533C381.072 294.135 373.7 296.226 364.602 299.02C362.846 299.562 361.546 299.838 360.701 299.848C364.765 298.382 368.869 297.033 373.013 295.8C374.502 295.358 376.453 294.489 378.287 293.894C381.481 292.857 384.532 291.289 387.79 290.533Z" fill="#D4D4D4"/>
<path d="M346.911 303.253C350.459 306.233 353.517 309.655 356.085 313.517C355.534 313.621 355.106 313.73 354.801 313.843C341.991 318.522 328.815 322.76 315.479 325.642C308.05 327.246 300.481 328.453 293.37 326.547C287.791 325.055 285.395 320.963 288.361 315.559L294.553 309.794C294.599 309.754 294.598 309.714 294.549 309.673C294.515 309.647 294.492 309.621 294.481 309.597C294.798 309.392 295.228 309.251 295.513 309.034C304.224 302.347 314.055 298.321 325.006 296.957C333.466 295.904 340.136 298.513 346.911 303.253Z" fill="#D4D4D4"/>
<path d="M175.989 299.277L177.595 299.546C177.017 299.664 176.481 299.574 175.989 299.277Z" fill="#E7E7E7"/>
<path d="M375.951 311.607C375.539 311.422 375.15 311.397 374.783 311.531C374.558 311.611 374.546 311.718 374.747 311.853C384.387 318.225 391.94 326.993 397.402 336.469C404.781 349.27 410.234 363.234 413.76 378.362C413.525 378.906 413.14 379.095 412.604 378.928C411.429 378.563 409.703 377.718 408.647 378.751C408.58 378.818 408.523 378.81 408.475 378.727C408.25 378.339 407.819 378.135 407.182 378.116C404.16 378.02 401.179 377.863 398.157 377.927C396.535 377.959 395.106 377.445 393.501 377.2C391.667 376.918 390.728 376.383 388.489 376.737C388.336 376.761 388.213 376.836 388.119 376.962L387.393 377.939C387.31 378.052 387.199 378.12 387.06 378.144C386.19 378.295 385.563 378.002 385.178 377.268C385.108 377.134 385 377.047 384.853 377.007C384.243 376.849 383.98 376.476 384.066 375.889C384.09 375.723 384.019 375.654 383.853 375.684L383.492 375.748C382.822 373.541 379.78 364.338 377.247 365.171C374.165 366.18 375.863 373.445 376.537 375.547C376.446 375.547 376.36 375.569 376.28 375.612C376.219 375.644 376.18 375.626 376.164 375.559C376.121 375.404 376.045 375.281 375.935 375.189C375.793 375.069 375.778 375.084 375.891 375.234C375.952 375.317 375.972 375.394 375.951 375.467C375.93 375.534 375.886 375.562 375.819 375.551C375.415 375.503 375.225 375.297 375.249 374.932C375.259 374.774 375.189 374.679 375.036 374.647C374.819 374.598 374.633 374.632 374.478 374.747C374.377 374.822 374.263 374.862 374.137 374.868L371.304 374.952C371.157 374.958 371.06 375.031 371.015 375.173L370.906 375.499C370.85 375.671 370.742 375.713 370.581 375.628L370.465 375.567C370.403 375.535 370.385 375.487 370.409 375.423L370.545 375.069C370.555 375.042 370.557 375.013 370.553 374.985C370.548 374.957 370.536 374.931 370.518 374.909C370.5 374.887 370.477 374.871 370.45 374.861C370.424 374.852 370.396 374.85 370.369 374.856C370.213 374.883 370.096 374.946 370.015 375.045C366.478 360.654 364.187 346.067 363.141 331.283C363.087 330.522 362.893 329.87 362.559 329.329C361.042 326.853 357.137 323.037 354.584 326.808C352.975 329.184 352.69 332.955 352.79 335.746C352.74 337.82 352.776 339.487 352.899 340.747C353.838 350.192 355.708 359.447 358.509 368.512L357.374 368.664C357.237 368.683 357.177 368.76 357.193 368.894C358.682 382.044 360.046 397.346 360.107 411.087C360.111 412.277 359.938 413.6 359.882 414.846C359.844 414.828 359.815 414.795 359.794 414.75C359.729 414.611 359.697 414.609 359.697 414.746V414.935C359.697 415.106 359.666 415.113 359.605 414.955L359.075 413.608C359.024 413.485 358.944 413.388 358.834 413.319C357.811 412.655 357.129 412.253 355.82 412.454C354.36 412.675 351.197 412.84 349.981 411.855C349.869 411.764 349.742 411.72 349.6 411.723L344.411 411.831C344.263 411.834 344.139 411.887 344.037 411.992L343.247 412.784C343.142 412.886 343.027 412.899 342.902 412.824L342.673 412.687C342.542 412.61 342.459 412.496 342.424 412.346C342.363 412.08 342.273 411.824 342.155 411.578C342.024 411.307 341.853 411.278 341.641 411.489C341.609 411.522 341.571 411.55 341.525 411.574C341.332 411.681 341.307 411.649 341.449 411.477C341.473 411.448 341.497 411.412 341.521 411.369C341.599 411.227 341.573 411.105 341.445 411.003C341.303 410.893 341.138 410.834 340.951 410.826C332.555 390.013 314.283 371.752 290.588 371.286C273.532 370.948 262.034 380.75 254.148 394.962L253.762 394.946C256.879 381.55 260.787 368.388 265.485 355.461C270.771 341.479 277.437 327.874 287.422 316.617C287.724 316.276 287.937 315.89 288.06 315.459L288.361 315.559C285.395 320.963 287.791 325.055 293.37 326.547C300.481 328.453 308.05 327.247 315.479 325.642C328.815 322.76 341.991 318.522 354.801 313.843C355.106 313.73 355.534 313.621 356.085 313.517C356.27 313.632 356.425 313.782 356.551 313.967C358.86 317.393 360.991 320.948 362.944 324.633C362.955 324.654 362.972 324.67 362.993 324.68C363.015 324.689 363.039 324.692 363.061 324.686C363.084 324.68 363.104 324.668 363.118 324.649C363.133 324.631 363.141 324.608 363.141 324.585C363.157 320.661 363.385 308.19 370.228 309.637C372.216 310.055 374.124 310.712 375.951 311.607ZM330.119 338.238C328.109 336.574 326.869 341.262 326.439 342.89C324.794 349.141 323.746 355.582 323.782 362.055C323.783 362.168 323.822 362.277 323.891 362.366C323.961 362.455 324.058 362.518 324.168 362.545C326.102 363.024 327.378 360.423 328.024 358.991C329.875 354.919 334.277 341.676 330.119 338.238Z" fill="#F8F8F8"/>
<path d="M375.951 311.607C379.097 313.1 381.823 314.83 384.13 316.797C394.974 326.052 403.309 339.058 409.959 351.718C416.455 364.08 422.042 376.842 426.719 390.004L426.562 390.76C426.525 390.929 426.423 390.993 426.257 390.953C424.383 390.507 422.657 390.451 420.603 390.129C419.671 389.984 418.287 390.467 417.099 389.88C416.965 389.813 416.861 389.845 416.786 389.976C416.679 390.164 416.529 390.223 416.336 390.153C416.24 390.118 416.191 390.153 416.188 390.258L416.168 391.226C415.606 386.892 414.803 382.604 413.76 378.361C410.234 363.234 404.781 349.27 397.402 336.469C391.94 326.993 384.387 318.225 374.747 311.852C374.546 311.718 374.558 311.611 374.783 311.531C375.149 311.397 375.539 311.422 375.951 311.607Z" fill="#E7E7E7"/>
<path d="M288.06 315.459C287.937 315.89 287.724 316.276 287.422 316.617C277.437 327.874 270.771 341.479 265.485 355.461L265.353 355.51C265.23 355.555 265.21 355.527 265.293 355.425C265.475 355.203 265.574 354.948 265.59 354.661C265.598 354.519 265.544 354.488 265.429 354.569L263.94 355.57C263.822 355.65 263.737 355.755 263.683 355.884C259.907 365.167 252.687 379.322 242.561 383.479C240.755 384.219 238.204 384.762 234.908 385.108C224.506 386.193 213.401 385.309 203.881 380.657C209.377 374.825 215.559 368.861 222.427 362.766C239.527 347.606 257.695 333.156 276.891 320.737C279.267 319.202 285.572 315.085 288.06 315.459ZM222.206 367.844C222.425 367.919 222.637 367.934 222.84 367.888C227.231 366.907 233.323 363.691 234.595 359.172C234.721 358.725 234.671 358.265 234.446 357.793C233.736 356.298 231.2 357.829 230.249 358.441C227.889 359.944 221.921 364.471 221.937 367.466C221.937 367.549 221.963 367.631 222.011 367.699C222.059 367.766 222.127 367.817 222.206 367.844Z" fill="#E7E7E7"/>
<path d="M370.015 375.045C371.257 380.443 372.659 385.799 374.221 391.114C374.242 391.192 374.233 391.264 374.193 391.331C374.174 391.363 374.153 391.395 374.129 391.428C371.352 392.915 368.996 390.929 367.523 388.629C367.691 386.086 367.675 383.544 367.475 381.003C366.52 368.936 363.63 357.362 358.806 346.279C357.072 342.288 355.067 338.777 352.79 335.745C352.69 332.955 352.975 329.184 354.584 326.808C357.137 323.037 361.041 326.852 362.558 329.329C362.893 329.87 363.087 330.522 363.14 331.283C364.187 346.067 366.478 360.654 370.015 375.045Z" fill="#A7A7A7"/>
<path d="M352.79 335.746C355.067 338.777 357.072 342.288 358.806 346.279C363.63 357.362 366.52 368.936 367.475 381.003C367.675 383.544 367.691 386.086 367.523 388.63C363.333 383.492 360.464 375.013 358.509 368.512C355.708 359.447 353.838 350.192 352.898 340.747C352.775 339.487 352.739 337.82 352.79 335.746Z" fill="#67636E"/>
<path d="M330.119 338.239C334.277 341.676 329.874 354.919 328.024 358.992C327.378 360.423 326.102 363.024 324.167 362.546C324.058 362.518 323.961 362.455 323.891 362.366C323.822 362.278 323.783 362.168 323.782 362.055C323.746 355.582 324.794 349.142 326.439 342.89C326.868 341.262 328.108 336.574 330.119 338.239Z" fill="white"/>
<path d="M265.485 355.461C260.787 368.388 256.879 381.55 253.762 394.946C253.556 395.235 253.349 395.433 253.14 395.541C241.979 401.342 229.362 407.742 216.852 412.466C213.505 413.731 210.313 414.592 207.276 415.047L206.791 414.762L207.297 414.742C207.433 414.736 207.556 414.694 207.666 414.613C212.677 410.861 215.656 405.854 216.603 399.593C217.502 393.671 215.632 389.265 210.495 386.201C207.507 384.419 204.209 384.105 200.602 385.26C200.53 385.282 200.473 385.323 200.43 385.385L200.354 385.498C200.15 385.318 199.927 385.285 199.683 385.397L199.667 385.112L203.881 380.657C213.401 385.309 224.505 386.193 234.908 385.108C238.204 384.762 240.755 384.219 242.561 383.479C252.687 379.322 259.907 365.167 263.683 355.884C263.737 355.755 263.822 355.65 263.94 355.57L265.429 354.569C265.544 354.489 265.598 354.519 265.59 354.661C265.573 354.948 265.474 355.203 265.293 355.425C265.21 355.527 265.23 355.555 265.353 355.51L265.485 355.461Z" fill="#E7E7E7"/>
<path d="M222.206 367.845C222.127 367.818 222.059 367.767 222.011 367.699C221.962 367.631 221.937 367.55 221.937 367.467C221.921 364.471 227.889 359.944 230.248 358.441C231.199 357.83 233.736 356.298 234.446 357.794C234.671 358.265 234.72 358.725 234.595 359.173C233.323 363.691 227.23 366.908 222.84 367.889C222.636 367.934 222.425 367.92 222.206 367.845Z" fill="white"/>
<path d="M383.492 375.749C385.062 380.739 386.233 385.819 387.003 390.986C387.16 392.027 387.112 392.972 386.931 393.969C386.917 394.049 386.883 394.124 386.833 394.188C386.783 394.251 386.718 394.302 386.643 394.335C386.569 394.367 386.488 394.382 386.406 394.376C386.325 394.371 386.246 394.346 386.177 394.303C384.571 393.302 382.806 390.23 381.903 388.562C379.65 384.415 377.861 380.077 376.537 375.548C375.863 373.445 374.165 366.18 377.247 365.171C379.78 364.339 382.822 373.542 383.492 375.749Z" fill="white"/>
<path d="M358.509 368.512C360.464 375.013 363.333 383.492 367.523 388.63C368.996 390.929 371.352 392.916 374.129 391.428C374.22 391.543 374.288 391.673 374.334 391.818C375.934 396.771 377.622 401.695 379.399 406.589C379.607 407.164 379.631 408.028 380.097 408.651C380.038 413.436 379.761 418.149 379.266 422.791C379.338 420.692 378.324 419.904 376.224 420.427C375.36 420.641 374.481 420.723 373.587 420.672C373.451 420.664 373.328 420.7 373.218 420.781C371.769 421.842 368.94 421.147 367.146 421.259C365.163 421.38 361.331 421.681 359.605 420.668C359.46 420.582 359.394 420.623 359.404 420.789C359.418 420.968 359.348 421.06 359.196 421.062L359.882 414.847C359.938 413.6 360.111 412.278 360.107 411.088C360.046 397.346 358.682 382.044 357.193 368.894C357.177 368.76 357.237 368.683 357.374 368.665L358.509 368.512Z" fill="#E7E7E7"/>
<path d="M340.951 410.827C343.002 416.061 345.037 423.318 345.033 429.22C344.752 428.767 344.602 428.456 344.583 428.287C343.255 416.793 337.62 405.206 330.553 396.201C319.865 382.575 304.081 373.385 286.475 374.683C277.999 375.311 270.109 379.034 264.057 385.024C258.631 390.398 254.53 396.723 251.756 404C251.502 403.113 251.475 402.316 251.676 401.608C252.331 399.33 253.155 397.114 254.148 394.962C262.034 380.75 273.532 370.949 290.588 371.286C314.283 371.753 332.555 390.013 340.951 410.827Z" fill="#A7A7A7"/>
<path d="M376.537 375.547C377.861 380.077 379.65 384.415 381.903 388.561C382.806 390.23 384.572 393.301 386.177 394.303C386.246 394.345 386.325 394.37 386.407 394.376C386.488 394.381 386.569 394.367 386.644 394.334C386.718 394.301 386.783 394.251 386.833 394.187C386.883 394.124 386.917 394.049 386.931 393.969C387.112 392.972 387.16 392.027 387.004 390.986C386.233 385.818 385.063 380.739 383.492 375.749L383.853 375.684C384.019 375.655 384.09 375.723 384.066 375.889C383.98 376.476 384.242 376.849 384.852 377.007C385 377.047 385.108 377.134 385.178 377.268C385.563 378.003 386.19 378.295 387.06 378.145C387.199 378.121 387.31 378.052 387.393 377.94L388.119 376.963C388.213 376.837 388.336 376.762 388.489 376.738C390.728 376.384 391.667 376.918 393.501 377.2C395.106 377.445 396.535 377.96 398.157 377.928C401.179 377.863 404.16 378.02 407.182 378.117C407.819 378.135 408.25 378.339 408.475 378.728C408.523 378.811 408.58 378.819 408.647 378.752C409.703 377.718 411.429 378.563 412.604 378.929C413.14 379.095 413.525 378.906 413.76 378.362C414.804 382.605 415.606 386.893 416.168 391.227C416.952 398.225 417.082 404.38 416.557 409.693C415.727 418.111 412.837 429.577 405.553 434.852C396.042 441.735 386.065 419.072 384.881 419.386L380.097 408.651C379.631 408.028 379.607 407.164 379.398 406.589C377.622 401.695 375.934 396.771 374.334 391.818C374.288 391.673 374.22 391.543 374.129 391.428C374.153 391.396 374.174 391.364 374.193 391.331C374.233 391.264 374.243 391.192 374.221 391.114C372.659 385.799 371.257 380.443 370.015 375.045C370.096 374.946 370.213 374.883 370.369 374.856C370.396 374.85 370.424 374.852 370.45 374.862C370.477 374.871 370.5 374.887 370.518 374.909C370.536 374.931 370.548 374.957 370.553 374.985C370.557 375.013 370.555 375.042 370.545 375.069L370.409 375.423C370.385 375.487 370.403 375.535 370.465 375.568L370.581 375.628C370.742 375.714 370.85 375.671 370.906 375.499L371.015 375.174C371.06 375.032 371.156 374.958 371.304 374.952L374.137 374.868C374.263 374.863 374.376 374.822 374.478 374.747C374.633 374.632 374.819 374.599 375.036 374.647C375.188 374.679 375.259 374.774 375.249 374.932C375.225 375.297 375.415 375.503 375.819 375.552C375.885 375.562 375.93 375.534 375.951 375.467C375.972 375.395 375.952 375.317 375.891 375.234C375.778 375.084 375.793 375.069 375.935 375.19C376.045 375.281 376.121 375.404 376.164 375.56C376.18 375.627 376.219 375.644 376.28 375.612C376.36 375.569 376.446 375.547 376.537 375.547ZM387.525 399.336C387.626 401.917 388.452 407.16 392.45 405.817C392.586 405.771 392.666 405.678 392.69 405.535C392.911 404.16 389.68 397.981 388.123 398.48C387.945 398.537 387.789 398.651 387.681 398.806C387.573 398.96 387.519 399.147 387.525 399.336Z" fill="#F8F8F8"/>
<path d="M197.275 383.488C196.135 388.987 192.636 392.578 188.045 395.448C188.045 395.411 188.037 395.369 188.021 395.324C187.994 395.243 187.95 395.232 187.888 395.291C187.661 395.517 187.424 395.452 187.178 395.098C187.103 394.989 187.005 394.905 186.885 394.849C185.97 394.412 185.013 394.261 184.015 394.395C183.879 394.414 183.749 394.396 183.626 394.343C182.872 394.021 182.334 393.848 182.013 393.824C178.465 393.567 174.46 392.445 170.069 392.517C169.486 392.525 168.289 392.176 166.477 391.468C166.298 391.398 166.291 391.315 166.457 391.219C166.612 391.13 166.635 390.984 166.525 390.781C168.151 389.896 171.072 388.244 171.618 386.68C171.658 386.562 171.657 386.445 171.614 386.33C170.683 383.769 160.2 389.285 158.146 390.624C158.198 390.133 158.23 388.794 157.853 388.63C157.73 388.576 157.629 388.603 157.552 388.71C157.407 388.903 157.227 388.938 157.01 388.815C162.323 385.038 168.149 382.091 174.488 379.974C177.995 378.804 182.077 377.763 185.548 378.149C189.774 378.619 194.089 380.983 197.275 383.488Z" fill="#F8F8F8"/>
<path d="M197.275 383.488L199.667 385.112L199.683 385.397C197.749 393.193 190.188 397.101 183.012 398.681L181.76 398.882C181.73 398.886 181.702 398.9 181.68 398.921C181.658 398.942 181.643 398.969 181.637 398.999C181.63 399.029 181.634 399.06 181.646 399.087C181.658 399.115 181.678 399.139 181.704 399.155C187.239 402.647 192.681 406.293 198.03 410.09C194.297 408.742 190.635 407.212 187.041 405.499C183.935 403.945 180.77 402.523 177.546 401.234C177.409 401.177 177.312 401.082 177.253 400.948L177.177 400.775C180.797 398.954 184.541 397.515 188.045 395.448C192.636 392.578 196.135 388.988 197.275 383.488Z" fill="#A7A7A7"/>
<path d="M206.791 414.762C205.903 414.473 205.133 414.004 204.483 413.355C205.093 413.311 210.628 405.057 211.322 403.992C211.294 397.137 206.257 390.278 200.976 386.298C200.772 386.142 200.565 385.876 200.354 385.498L200.43 385.385C200.473 385.324 200.53 385.282 200.602 385.261C204.209 384.105 207.507 384.419 210.495 386.201C215.632 389.265 217.502 393.671 216.603 399.593C215.656 405.854 212.677 410.861 207.666 414.613C207.556 414.694 207.433 414.737 207.297 414.742L206.791 414.762Z" fill="#A7A7A7"/>
<path d="M200.354 385.498C200.565 385.876 200.772 386.142 200.976 386.298C206.257 390.278 211.294 397.137 211.322 403.991L184.204 399.432C184.07 399.408 183.974 399.336 183.915 399.215C183.755 398.872 183.454 398.694 183.012 398.68C190.188 397.1 197.749 393.193 199.683 385.397C199.927 385.285 200.15 385.318 200.354 385.498Z" fill="#F8F8F8"/>
<path d="M166.525 390.78C164.402 391.982 157.427 395.452 155.577 394.644C155.446 394.588 155.382 394.488 155.384 394.346C155.409 392.726 156.877 391.54 158.146 390.623C160.2 389.285 170.683 383.769 171.614 386.33C171.657 386.445 171.658 386.562 171.618 386.68C171.072 388.243 168.151 389.896 166.525 390.78Z" fill="white"/>
<path d="M158.146 390.624C156.878 391.541 155.409 392.727 155.385 394.347C155.382 394.489 155.446 394.588 155.577 394.644C157.427 395.453 164.402 391.983 166.525 390.781C166.635 390.985 166.612 391.131 166.457 391.219C166.291 391.316 166.298 391.399 166.477 391.468C168.289 392.176 169.486 392.526 170.069 392.518C174.46 392.445 178.465 393.567 182.013 393.824C182.334 393.848 182.872 394.021 183.626 394.343C183.749 394.397 183.879 394.414 184.015 394.395C185.013 394.261 185.97 394.413 186.885 394.849C187.005 394.906 187.103 394.989 187.178 395.099C187.424 395.453 187.661 395.517 187.888 395.292C187.95 395.233 187.994 395.243 188.021 395.324C188.037 395.369 188.045 395.411 188.045 395.449C184.541 397.515 180.797 398.954 177.177 400.776C171.181 402.826 165.687 404.997 159.033 405.684L157.929 405.817C153.992 405.564 148.361 404.012 146.062 400.562C145.987 400.45 145.98 400.335 146.042 400.217L146.993 398.347C147.448 397.9 147.872 397.425 148.265 396.924C150.751 393.759 153.666 391.056 157.01 388.815C157.227 388.938 157.407 388.903 157.552 388.71C157.629 388.603 157.73 388.576 157.853 388.63C158.23 388.795 158.198 390.134 158.146 390.624Z" fill="#F8F8F8"/>
<path d="M426.719 390.005C431.754 403.446 435.774 417.187 438.779 431.226C439.774 435.868 440.364 440.56 440.549 445.301C434.168 437.421 423.974 428.986 413.503 435.7C407.451 439.58 405.047 445.462 403.952 452.361C403.639 452.136 403.422 451.939 403.302 451.77C396.046 441.614 389.905 430.82 384.881 419.386C386.065 419.072 396.042 441.735 405.553 434.852C412.837 429.577 415.727 418.111 416.558 409.693C417.082 404.38 416.952 398.225 416.168 391.227L416.188 390.258C416.191 390.154 416.24 390.119 416.337 390.154C416.529 390.223 416.679 390.164 416.786 389.977C416.861 389.845 416.966 389.813 417.099 389.88C418.287 390.467 419.672 389.985 420.603 390.13C422.658 390.451 424.383 390.507 426.258 390.954C426.424 390.994 426.525 390.93 426.563 390.761L426.719 390.005Z" fill="#E7E7E7"/>
<path d="M392.45 405.817C388.453 407.16 387.626 401.917 387.525 399.336C387.519 399.147 387.574 398.96 387.682 398.806C387.79 398.651 387.945 398.537 388.123 398.48C389.681 397.981 392.911 404.161 392.691 405.535C392.666 405.678 392.586 405.771 392.45 405.817Z" fill="white"/>
<path d="M183.012 398.681C183.454 398.694 183.755 398.872 183.915 399.215C183.974 399.336 184.07 399.408 184.204 399.432L211.322 403.992C210.628 405.057 205.093 413.311 204.483 413.355L198.03 410.09C192.681 406.293 187.239 402.647 181.704 399.155C181.678 399.139 181.658 399.115 181.646 399.087C181.634 399.06 181.631 399.029 181.637 398.999C181.643 398.969 181.658 398.942 181.68 398.921C181.702 398.9 181.73 398.886 181.76 398.882L183.012 398.681Z" fill="#F8F8F8"/>
<path d="M340.951 410.826C341.138 410.834 341.303 410.893 341.445 411.003C341.573 411.105 341.599 411.227 341.521 411.369C341.497 411.412 341.473 411.448 341.449 411.477C341.307 411.649 341.332 411.681 341.525 411.574C341.571 411.55 341.609 411.522 341.641 411.49C341.853 411.278 342.024 411.307 342.155 411.578C342.273 411.825 342.363 412.081 342.424 412.346C342.459 412.496 342.542 412.61 342.673 412.688L342.902 412.824C343.027 412.899 343.142 412.886 343.247 412.784L344.037 411.992C344.139 411.888 344.263 411.834 344.411 411.831L349.6 411.723C349.742 411.72 349.869 411.764 349.981 411.855C351.197 412.84 354.36 412.676 355.82 412.454C357.129 412.253 357.811 412.655 358.834 413.319C358.944 413.388 359.024 413.485 359.075 413.608L359.605 414.955C359.666 415.113 359.697 415.107 359.697 414.935V414.746C359.697 414.609 359.729 414.611 359.794 414.75C359.815 414.796 359.844 414.828 359.882 414.847L359.196 421.062C356.871 433.364 352.34 444.778 345.603 455.304C345.557 455.373 345.568 455.434 345.635 455.484L345.751 455.569C344.916 456.244 343.199 457.756 342.139 457.748L342.424 456.357C344.313 448.429 345.249 440.388 345.233 432.235L345.033 429.219C345.037 423.317 343.002 416.061 340.951 410.826Z" fill="#F8F8F8"/>
<path d="M379.266 422.791C378.675 428.465 377.531 434.025 375.835 439.471C375.602 439.689 375.432 439.815 375.325 439.849C371.943 440.938 368.668 442.286 365.5 443.894C358.616 447.271 352.033 451.163 345.751 455.569L345.635 455.485C345.568 455.434 345.557 455.373 345.603 455.304C352.34 444.778 356.871 433.365 359.196 421.062C359.348 421.059 359.418 420.968 359.404 420.789C359.394 420.623 359.46 420.582 359.605 420.668C361.331 421.681 365.163 421.38 367.146 421.259C368.94 421.147 371.769 421.842 373.218 420.781C373.328 420.7 373.451 420.664 373.587 420.672C374.481 420.723 375.36 420.641 376.224 420.427C378.324 419.904 379.338 420.692 379.266 422.791Z" fill="#E7E7E7"/>
<path d="M440.549 445.301L440.581 447.11L440.047 449.522C434.264 443.267 423.211 437.755 415.093 442.672C411.866 444.625 411.252 448.135 410.646 451.87L408.242 450.829C408.1 450.77 407.965 450.781 407.837 450.861C407.433 451.108 407.172 451.46 407.054 451.918C406.713 452.292 405.392 454.564 405.248 454.564L403.952 452.361C405.047 445.462 407.451 439.58 413.503 435.7C423.974 428.986 434.168 437.421 440.549 445.301Z" fill="#A7A7A7"/>
<path d="M375.835 439.471L377.617 439.504C377.758 439.506 377.864 439.571 377.934 439.697C378.263 440.31 378.469 440.838 378.552 441.281C379.182 444.545 379.768 448.28 380.153 451.886C381.122 460.836 381.934 469.859 382.589 478.955L383.46 500.682C383.396 500.724 383.328 500.741 383.255 500.73C383.138 500.714 383.077 500.765 383.075 500.883C383.075 500.92 383.075 500.959 383.075 500.999C383.075 501.093 383.057 501.097 383.023 501.011C383.006 500.974 382.993 500.942 382.982 500.915C382.937 500.805 382.855 500.757 382.738 500.77C381.183 500.928 379.623 500.963 378.058 500.875C377.147 500.822 376.156 501.256 375.241 501.128C374.521 501.029 373.788 500.795 373.041 500.428C372.998 500.407 372.95 500.397 372.902 500.4C372.853 500.403 372.806 500.419 372.766 500.445C372.725 500.472 372.692 500.509 372.669 500.552C372.646 500.596 372.635 500.645 372.636 500.694C372.644 500.962 372.585 501.21 372.46 501.437C372.39 501.561 372.358 501.692 372.363 501.831C372.671 509.384 372.357 516.908 371.42 524.402C369.739 534.967 364.168 546.59 351.574 536.58C351.473 536.499 351.356 536.462 351.225 536.467L350.768 536.479C340.296 523.667 331.428 509.825 324.164 494.953C323.369 493.068 322.739 491.131 322.273 489.139C322.418 488.962 322.517 488.763 322.57 488.54C322.605 488.39 322.546 488.318 322.394 488.323C322.161 488.328 322.103 488.218 322.221 487.993C322.256 487.929 322.314 487.88 322.383 487.857C322.452 487.833 322.527 487.836 322.594 487.865C323.523 488.275 324.418 488.197 325.279 487.631C325.397 487.556 325.525 487.518 325.665 487.515C326.953 487.511 328.105 487.386 329.345 487.845C330.193 488.158 331.041 488.48 331.889 488.809C332.028 488.866 332.141 488.957 332.226 489.083L332.808 489.927C332.913 490.08 333.041 490.105 333.194 490.003L333.856 489.561C333.952 489.497 334.056 489.477 334.169 489.501C334.779 489.64 335.373 489.614 335.951 489.421C336.084 489.378 336.179 489.421 336.236 489.549L336.448 490.028C336.496 490.135 336.521 490.131 336.521 490.016V489.843C336.521 489.725 336.55 489.717 336.609 489.819L336.689 489.955C336.743 490.044 336.784 490.038 336.813 489.939C336.835 489.878 336.866 489.84 336.906 489.827C337.676 493.914 339.373 497.544 341.995 500.718C342.051 500.786 342.122 500.839 342.202 500.875C342.282 500.911 342.369 500.927 342.457 500.923C342.544 500.918 342.629 500.893 342.705 500.85C342.781 500.807 342.846 500.746 342.894 500.674C344.668 498.02 344.066 492.854 343.058 490.028C343.793 490.08 344.27 490.305 345.033 490.104C346.764 489.648 348.465 489.694 350.138 490.241C352.397 490.98 354.496 490.474 356.824 491.061C359.288 491.688 361.744 491.218 364.252 491.785C365.914 492.162 369.739 492.958 371.235 492.014C371.351 491.944 371.429 491.972 371.472 492.098L371.597 492.468C371.693 492.752 371.733 492.744 371.717 492.444C371.681 491.716 371.874 491.137 371.813 490.438C370.532 475.916 368.296 461.274 365.107 446.511C364.936 445.715 365.083 445.013 365.549 444.404C365.632 444.297 365.649 444.179 365.601 444.051C365.579 443.989 365.546 443.937 365.501 443.894C368.668 442.286 371.943 440.938 375.325 439.849C375.432 439.815 375.602 439.689 375.835 439.471ZM345.033 506.366C345.105 506.427 345.19 506.47 345.281 506.494C345.373 506.517 345.468 506.52 345.56 506.501C345.653 506.483 345.74 506.444 345.815 506.387C345.891 506.33 345.952 506.257 345.996 506.173C346.887 504.453 346.285 500.915 343.459 502.229C343.37 502.272 343.294 502.341 343.244 502.427C343.193 502.513 343.169 502.612 343.175 502.712C343.276 504.199 343.896 505.418 345.033 506.366Z" fill="#E7E7E7"/>
<path d="M372.46 501.437C372.585 501.209 372.644 500.962 372.636 500.693L371.717 492.444C371.733 492.744 371.693 492.752 371.597 492.468L371.472 492.098C371.429 491.972 371.351 491.944 371.235 492.013C369.739 492.958 365.914 492.162 364.252 491.784C361.744 491.217 359.288 491.688 356.824 491.061C354.496 490.474 352.397 490.98 350.138 490.241C348.465 489.694 346.764 489.648 345.033 490.104C344.27 490.305 343.793 490.08 343.058 490.027C344.066 492.854 344.668 498.02 342.894 500.673C342.846 500.746 342.781 500.807 342.705 500.85C342.629 500.893 342.544 500.918 342.457 500.922C342.369 500.927 342.282 500.91 342.202 500.875C342.122 500.839 342.051 500.785 341.995 500.718C339.373 497.544 337.676 493.914 336.906 489.826C336.866 489.84 336.835 489.877 336.813 489.939C336.784 490.038 336.743 490.043 336.689 489.955L336.609 489.818C336.55 489.717 336.521 489.725 336.521 489.843V490.015C336.521 490.131 336.496 490.135 336.448 490.027L336.236 489.549C336.179 489.42 336.084 489.377 335.951 489.42C335.373 489.613 334.779 489.64 334.169 489.501C334.056 489.477 333.952 489.497 333.856 489.561L333.194 490.003C333.041 490.105 332.913 490.08 332.808 489.927L332.226 489.083C332.141 488.957 332.028 488.866 331.889 488.809C331.041 488.48 330.193 488.158 329.345 487.844C328.105 487.386 326.953 487.511 325.665 487.515C325.525 487.517 325.397 487.556 325.279 487.631C324.418 488.197 323.523 488.275 322.594 487.864C322.527 487.835 322.452 487.833 322.383 487.856C322.314 487.88 322.256 487.929 322.221 487.993C322.103 488.218 322.161 488.328 322.394 488.323C322.546 488.317 322.605 488.39 322.57 488.54C322.517 488.762 322.418 488.962 322.273 489.139C322.739 491.13 323.369 493.068 324.164 494.952C331.428 509.825 340.296 523.667 350.768 536.479L351.225 536.467C351.356 536.461 351.473 536.499 351.574 536.579C364.168 546.59 369.739 534.967 371.42 524.402C372.357 516.908 372.671 509.384 372.363 501.831C372.358 501.692 372.39 501.561 372.46 501.437Z" fill="#F8F8F8"/>
<path d="M440.047 449.522C446.681 460.084 449.518 474.822 449.88 487.313C448.943 486.681 448.162 486.788 447.536 487.635C447.461 487.74 447.361 487.785 447.235 487.772C446.609 487.703 446.517 489.251 445.092 489.235C443.644 489.222 442.246 489.423 440.898 489.838C439.678 490.211 438.772 490.425 438.181 490.482C437.087 490.583 435.987 490.624 434.882 490.602C434.24 490.59 433.927 490.807 433.903 491.463C433.895 491.636 433.821 491.8 433.695 491.919C433.569 492.039 433.402 492.104 433.229 492.102C432.121 492.086 429.954 491.832 430.223 493.585C430.228 493.609 430.219 493.625 430.194 493.634C430.149 493.647 430.104 493.651 430.058 493.646C429.972 493.64 429.93 493.595 429.93 493.509V493.332C429.93 493.249 429.899 493.236 429.837 493.292C429.586 493.533 429.278 493.612 428.914 493.529C428.647 493.467 428.426 493.331 428.252 493.119L427.622 492.355C427.48 490.704 427.179 489.085 426.719 487.498C426.334 483.893 425.665 480.356 424.712 476.885C423.902 472.283 422.369 467.713 420.113 463.175C417.801 458.52 414.646 454.751 410.646 451.87C411.252 448.135 411.866 444.625 415.092 442.671C423.211 437.754 434.264 443.266 440.047 449.522Z" fill="#F8F8F8"/>
<path d="M365.5 443.894C365.546 443.937 365.579 443.989 365.601 444.051C365.649 444.179 365.631 444.297 365.548 444.405C365.083 445.013 364.936 445.715 365.107 446.511C368.296 461.274 370.532 475.916 371.813 490.438C371.873 491.137 371.681 491.716 371.717 492.444C371.733 492.744 371.693 492.752 371.597 492.468L371.472 492.098C371.429 491.972 371.35 491.944 371.235 492.014C369.738 492.959 365.914 492.163 364.252 491.785C361.744 491.218 359.288 491.688 356.824 491.061C354.496 490.474 352.397 490.981 350.137 490.241C348.465 489.694 346.764 489.649 345.033 490.104C344.27 490.305 343.792 490.08 343.058 490.028C342.484 488.339 340.67 485.565 338.527 486.072C336.761 486.486 336.637 488.287 336.906 489.827C336.865 489.84 336.835 489.878 336.813 489.939C336.784 490.039 336.742 490.044 336.689 489.955L336.609 489.819C336.55 489.717 336.52 489.725 336.52 489.843V490.016C336.52 490.131 336.496 490.135 336.448 490.028L336.235 489.549C336.179 489.421 336.084 489.378 335.95 489.421C335.373 489.614 334.779 489.64 334.169 489.501C334.056 489.477 333.952 489.497 333.856 489.561L333.193 490.004C333.041 490.106 332.912 490.08 332.808 489.927L332.226 489.083C332.141 488.957 332.028 488.866 331.889 488.81C331.041 488.48 330.193 488.158 329.345 487.845C328.104 487.386 326.953 487.511 325.664 487.515C325.525 487.518 325.397 487.557 325.279 487.632C324.418 488.197 323.523 488.275 322.594 487.865C322.527 487.836 322.452 487.833 322.383 487.857C322.314 487.881 322.256 487.929 322.221 487.993C322.103 488.219 322.161 488.329 322.394 488.323C322.546 488.318 322.605 488.39 322.57 488.54C322.517 488.763 322.418 488.962 322.273 489.139L321.972 488.504L322.458 484.198C323.333 481.448 324.447 478.802 325.801 476.258C330.023 469.295 335.324 464.104 341.481 458.882C341.826 458.589 341.982 458.15 342.139 457.748C343.198 457.756 344.916 456.245 345.751 455.569C352.033 451.163 358.616 447.271 365.5 443.894Z" fill="#F8F8F8"/>
<path fill-rule="evenodd" clip-rule="evenodd" d="M345.033 429.219L345.233 432.235C345.249 440.388 344.313 448.429 342.424 456.357L342.139 457.748L342.114 457.814C341.965 458.197 341.807 458.604 341.481 458.882C335.324 464.104 330.023 469.294 325.801 476.258C324.447 478.801 323.333 481.448 322.458 484.198C322.349 484.668 322.117 485.038 321.647 485.255C316.606 487.606 311.296 488.89 305.714 489.107C305.581 489.112 305.463 489.156 305.361 489.239L305.132 489.424C304.68 489.416 304.226 489.417 303.775 489.418C302.734 489.42 301.701 489.423 300.702 489.308C290.436 488.137 281.233 484.356 273.094 477.966C265.959 472.341 260.608 465.338 257.041 456.96C256.121 454.974 255.344 452.926 254.71 450.817C253.233 446.169 252.181 441.416 251.555 436.556C250.867 431.979 250.553 426.409 250.612 419.848C250.668 413.493 251.049 408.21 251.756 404C254.53 396.723 258.63 390.397 264.056 385.023C270.108 379.033 277.999 375.31 286.475 374.683C304.081 373.384 319.865 382.575 330.553 396.2C337.62 405.206 343.255 416.792 344.583 428.287C344.602 428.455 344.752 428.766 345.033 429.219Z" fill="url(#paint6_radial_4_80)"/>
<g style="mix-blend-mode:screen">
<path d="M307.879 482.5C274.121 482.5 259.758 454.912 256.797 441.118C273.676 460.697 331.865 406.855 335.419 409.97C338.972 413.084 350.077 482.5 307.879 482.5Z" fill="url(#paint7_linear_4_80)" fill-opacity="0.4"/>
</g>
<path d="M254.71 450.817C255.344 452.926 256.121 454.974 257.041 456.96C260.608 465.339 265.959 472.341 273.094 477.967C281.233 484.356 290.436 488.137 300.702 489.308C302.135 489.473 303.636 489.397 305.133 489.425C305.127 489.451 305.12 489.472 305.112 489.485L304.462 489.947C295.384 492.89 286.218 491.656 277.645 487.937C264.414 482.2 255.392 467.445 252.574 453.828C252.462 452.11 253.174 451.106 254.71 450.817Z" fill="#A7A7A7"/>
<path d="M410.646 451.87C414.646 454.752 417.802 458.52 420.113 463.176C422.369 467.713 423.902 472.283 424.712 476.885C424.156 475.384 423.586 473.903 423.003 472.443C422.914 472.22 422.754 472.085 422.521 472.037C422.132 467.896 418.845 462.649 416.212 458.954C413.756 455.513 410.703 453.168 407.054 451.919C407.172 451.46 407.433 451.108 407.837 450.861C407.965 450.781 408.1 450.77 408.242 450.829L410.646 451.87Z" fill="#A7A7A7"/>
<path d="M407.054 451.918C410.703 453.167 413.756 455.512 416.212 458.954C418.845 462.649 422.132 467.895 422.521 472.036C421.93 480.307 420.191 488.327 417.304 496.094C417.007 496.89 416.61 497.167 415.995 497.698C415.886 497.792 415.85 497.909 415.887 498.048L416.3 499.576L416.268 499.777C413.071 500.752 409.889 500.566 406.721 499.218C404.301 498.189 404.445 496.85 404.012 494.104C402.784 486.329 402.271 478.505 402.475 470.633C402.752 465.346 403.458 459.838 405.336 454.865C405.363 454.795 405.356 454.73 405.316 454.668L405.248 454.564C405.392 454.564 406.713 452.292 407.054 451.918ZM413.812 481.038C413.874 481.088 413.946 481.125 414.024 481.147C414.101 481.168 414.182 481.173 414.261 481.161C414.34 481.149 414.416 481.121 414.484 481.079C414.552 481.036 414.61 480.98 414.655 480.913C416.132 478.726 419.298 467.839 416.806 466.126C413.648 463.955 412.087 479.635 413.812 481.038Z" fill="#F8F8F8"/>
<path d="M252.575 453.828C255.392 467.445 264.414 482.2 277.646 487.937C286.218 491.656 295.384 492.89 304.462 489.947C303.89 492.445 303.143 494.884 302.223 497.264C297.972 507.632 292.73 517.465 286.499 526.766C283.24 531.631 278.476 538.136 273.528 540.946C275.821 538.193 277.568 535.269 278.769 532.173C281.563 524.977 282.583 517.421 281.832 509.506C281.402 499.259 276.811 491.873 269.567 484.628C264.877 479.938 259.34 475.03 252.956 469.906C252.811 469.791 252.512 469.73 252.057 469.725C252.005 469.005 251.848 468.213 251.824 467.546C251.645 462.941 251.895 458.369 252.575 453.828Z" fill="#E7E7E7"/>
<path d="M413.812 481.038C412.087 479.635 413.648 463.955 416.806 466.126C419.298 467.839 416.132 478.726 414.655 480.913C414.61 480.98 414.552 481.036 414.484 481.079C414.416 481.121 414.34 481.149 414.261 481.161C414.182 481.173 414.101 481.168 414.024 481.147C413.946 481.125 413.875 481.088 413.812 481.038Z" fill="white"/>
<path d="M252.057 469.725C252.511 469.73 252.811 469.79 252.956 469.906C259.339 475.03 264.876 479.938 269.567 484.628C276.811 491.873 281.402 499.258 281.831 509.506C280.542 509.798 279.276 509.813 278.035 509.55C276.574 509.241 275.354 509.498 273.941 508.626C273.845 508.567 273.739 508.537 273.624 508.537L267.596 508.582C267.452 508.584 267.321 508.541 267.203 508.453C266.232 507.713 264.715 508.509 263.29 507.661C263.177 507.594 263.056 507.558 262.925 507.552C260.501 507.45 258.844 507.535 257.956 507.806C256.985 508.1 256.236 507.997 255.709 507.496C255.61 507.402 255.513 507.404 255.42 507.5L255.267 507.653C255.208 507.712 255.158 507.705 255.115 507.633L255.047 507.52C254.998 507.437 254.97 507.444 254.962 507.54C254.946 507.725 254.881 507.885 254.766 508.019L253.229 494.651C252.602 486.934 252.177 479.207 251.952 471.469C251.936 470.915 252.069 470.324 252.057 469.725ZM265.91 496.235C262.872 495.744 263.599 502.832 264.113 504.553C264.122 504.583 264.137 504.61 264.157 504.633C264.178 504.656 264.203 504.674 264.231 504.686C264.26 504.698 264.29 504.704 264.321 504.703C264.352 504.703 264.382 504.695 264.41 504.682C266.541 503.6 268.66 496.677 265.91 496.235Z" fill="#F8F8F8"/>
<path d="M422.521 472.036C422.754 472.084 422.915 472.22 423.003 472.442C423.586 473.903 424.156 475.384 424.713 476.885C425.665 480.355 426.334 483.893 426.719 487.498C425.784 489.448 418.929 500.995 416.301 499.575L415.887 498.048C415.85 497.908 415.886 497.792 415.996 497.698C416.61 497.167 417.007 496.89 417.304 496.094C420.191 488.326 421.93 480.307 422.521 472.036Z" fill="#A7A7A7"/>
<path d="M322.458 484.198L321.972 488.503C316.383 489.289 310.763 489.616 305.113 489.484C305.121 489.471 305.127 489.451 305.133 489.424L305.361 489.239C305.463 489.156 305.581 489.112 305.715 489.106C311.296 488.889 316.607 487.606 321.647 485.255C322.117 485.038 322.35 484.668 322.458 484.198Z" fill="#E7E7E7"/>
<path d="M343.058 490.027C344.066 492.854 344.668 498.02 342.894 500.673C342.846 500.746 342.781 500.807 342.705 500.85C342.629 500.893 342.544 500.918 342.457 500.922C342.369 500.927 342.282 500.91 342.202 500.875C342.122 500.839 342.051 500.785 341.995 500.718C339.373 497.544 337.676 493.914 336.906 489.826C336.637 488.287 336.761 486.486 338.527 486.071C340.67 485.565 342.484 488.339 343.058 490.027Z" fill="white"/>
<path d="M449.88 487.314C450.241 494.738 449.789 502.11 448.523 509.43C448.448 509.875 448.268 510.271 447.981 510.62C443.121 516.518 436.287 521.519 428.324 521.169C428.651 511.55 428.416 501.945 427.622 492.355L428.252 493.119C428.426 493.331 428.647 493.467 428.914 493.529C429.278 493.612 429.586 493.533 429.837 493.292C429.899 493.236 429.929 493.249 429.929 493.332V493.509C429.929 493.595 429.972 493.64 430.058 493.646C430.103 493.651 430.149 493.647 430.194 493.634C430.218 493.626 430.228 493.609 430.222 493.585C429.954 491.832 432.121 492.086 433.228 492.102C433.402 492.104 433.569 492.039 433.695 491.919C433.821 491.8 433.895 491.636 433.903 491.463C433.927 490.807 434.24 490.59 434.882 490.602C435.987 490.624 437.086 490.584 438.181 490.482C438.772 490.425 439.678 490.211 440.898 489.838C442.246 489.423 443.644 489.222 445.092 489.235C446.516 489.251 446.609 487.704 447.235 487.772C447.361 487.785 447.461 487.74 447.536 487.635C448.162 486.788 448.943 486.681 449.88 487.314Z" fill="#F8F8F8"/>
<path d="M426.719 487.499C427.179 489.086 427.48 490.705 427.622 492.356C428.417 501.946 428.651 511.55 428.324 521.17C427.634 521.837 425.908 520.498 425.315 520.064C422.786 516.843 420.913 513.464 419.696 509.929C419.279 508.715 418.849 507.777 418.408 507.115L416.269 499.777L416.301 499.576C418.929 500.996 425.784 489.449 426.719 487.499Z" fill="#A7A7A7"/>
<path d="M265.911 496.235C268.66 496.677 266.541 503.601 264.41 504.682C264.382 504.696 264.352 504.703 264.321 504.704C264.29 504.704 264.26 504.699 264.232 504.686C264.203 504.674 264.178 504.656 264.158 504.633C264.137 504.61 264.122 504.583 264.113 504.553C263.599 502.833 262.873 495.745 265.911 496.235Z" fill="white"/>
<path d="M383.46 500.682C383.671 508.752 383.631 516.83 383.339 524.916C381.849 524.887 380.358 524.773 378.865 524.575C376.774 524.293 374.799 524.643 372.608 523.984C372.469 523.941 372.359 523.98 372.279 524.1L372.094 524.37C372.025 524.471 371.93 524.532 371.809 524.55C371.625 524.577 371.495 524.528 371.42 524.402C372.356 516.908 372.671 509.384 372.363 501.831C372.358 501.692 372.39 501.561 372.459 501.437C372.585 501.21 372.644 500.962 372.636 500.694C372.635 500.645 372.646 500.596 372.669 500.552C372.691 500.509 372.725 500.472 372.766 500.445C372.806 500.419 372.853 500.403 372.901 500.4C372.95 500.397 372.998 500.407 373.041 500.428C373.788 500.795 374.521 501.029 375.241 501.128C376.156 501.256 377.147 500.822 378.058 500.874C379.623 500.963 381.183 500.928 382.737 500.77C382.855 500.757 382.937 500.805 382.982 500.915C382.993 500.941 383.006 500.974 383.022 501.011C383.057 501.097 383.075 501.093 383.075 500.999C383.075 500.959 383.075 500.92 383.075 500.883C383.077 500.765 383.137 500.714 383.255 500.73C383.327 500.74 383.396 500.724 383.46 500.682Z" fill="#E7E7E7"/>
<path d="M345.033 506.366C343.895 505.417 343.276 504.199 343.174 502.712C343.169 502.612 343.193 502.513 343.243 502.427C343.294 502.341 343.369 502.272 343.459 502.229C346.285 500.915 346.887 504.453 345.996 506.173C345.952 506.257 345.891 506.33 345.815 506.387C345.74 506.443 345.653 506.482 345.56 506.501C345.468 506.519 345.372 506.517 345.281 506.494C345.19 506.47 345.105 506.427 345.033 506.366Z" fill="white"/>
<path d="M281.831 509.506C282.583 517.421 281.563 524.976 278.769 532.173C277.568 535.268 275.821 538.193 273.528 540.945C270.261 543.651 265.622 544.431 263.069 540.189C261.512 537.606 260.324 534.928 259.506 532.157C257.186 524.317 255.813 516.115 254.766 508.018C254.881 507.884 254.946 507.725 254.963 507.54C254.971 507.443 254.999 507.437 255.047 507.52L255.115 507.632C255.158 507.705 255.209 507.711 255.268 507.652L255.42 507.5C255.514 507.403 255.61 507.402 255.709 507.496C256.236 507.997 256.985 508.1 257.956 507.805C258.845 507.535 260.501 507.45 262.925 507.552C263.056 507.557 263.178 507.593 263.29 507.66C264.715 508.509 266.232 507.713 267.203 508.452C267.321 508.541 267.452 508.584 267.596 508.581L273.624 508.537C273.739 508.537 273.845 508.566 273.941 508.625C275.354 509.498 276.574 509.241 278.035 509.55C279.276 509.813 280.542 509.798 281.831 509.506Z" fill="#F8F8F8"/>
<path d="M383.339 524.917C383.125 530.701 382.554 536.456 381.626 542.184C380.867 546.864 379.15 556.79 371.97 554.72C369.238 553.932 366.849 552.641 364.802 550.848C360.061 546.699 355.383 541.909 350.768 536.479L351.225 536.467C351.356 536.462 351.473 536.499 351.574 536.58C364.168 546.59 369.738 534.968 371.42 524.402C371.495 524.528 371.625 524.578 371.809 524.551C371.93 524.532 372.025 524.472 372.094 524.37L372.279 524.101C372.359 523.98 372.469 523.941 372.608 523.984C374.799 524.643 376.774 524.294 378.865 524.575C380.358 524.773 381.849 524.887 383.339 524.917Z" fill="#E7E7E7"/>
<g style="mix-blend-mode:screen">
<path d="M286.114 124.741C244.893 127.945 190.168 215.961 207.936 230.2C225.704 244.439 273.232 198.162 293.665 182.143C314.098 166.124 348.301 211.957 359.849 199.497C366.08 192.775 344.303 120.219 286.114 124.741Z" fill="url(#paint8_linear_4_80)" fill-opacity="0.4"/>
</g>
</g>
</g>
<defs>
<filter id="filter0_d_4_80" x="55.3333" y="17.8889" width="485.333" height="631.333" filterUnits="userSpaceOnUse" color-interpolation-filters="sRGB">
<feFlood flood-opacity="0" result="BackgroundImageFix"/>
<feColorMatrix in="SourceAlpha" type="matrix" values="0 0 0 0 0 0 0 0 0 0 0 0 0 0 0 0 0 0 127 0" result="hardAlpha"/>
<feOffset dy="3.55556"/>
<feGaussianBlur stdDeviation="45.3333"/>
<feComposite in2="hardAlpha" operator="out"/>
<feColorMatrix type="matrix" values="0 0 0 0 0.141176 0 0 0 0 0.466667 0 0 0 0 0.956863 0 0 0 0.5 0"/>
<feBlend mode="normal" in2="BackgroundImageFix" result="effect1_dropShadow_4_80"/>
<feBlend mode="normal" in="SourceGraphic" in2="effect1_dropShadow_4_80" result="shape"/>
</filter>
<radialGradient id="paint0_radial_4_80" cx="0" cy="0" r="1" gradientUnits="userSpaceOnUse" gradientTransform="translate(222.898 182.368) rotate(-90) scale(60.2432 23.1393)">
<stop stop-color="#1364DF"/>
<stop offset="0.300347" stop-color="#1364DF"/>
<stop offset="0.690972" stop-color="#64A2FF"/>
<stop offset="1" stop-color="#2477F4"/>
</radialGradient>
<radialGradient id="paint1_radial_4_80" cx="0" cy="0" r="1" gradientUnits="userSpaceOnUse" gradientTransform="translate(412.822 208.21) rotate(-90) scale(122.175 84.0899)">
<stop stop-color="#1364DF"/>
<stop offset="0.300347" stop-color="#1364DF"/>
<stop offset="0.690972" stop-color="#64A2FF"/>
<stop offset="1" stop-color="#2477F4"/>
</radialGradient>
<radialGradient id="paint2_radial_4_80" cx="0" cy="0" r="1" gradientUnits="userSpaceOnUse" gradientTransform="translate(317.804 190.735) rotate(-90) scale(17.8404 53.7418)">
<stop stop-color="#1364DF"/>
<stop offset="0.300347" stop-color="#1364DF"/>
<stop offset="0.690972" stop-color="#64A2FF"/>
<stop offset="1" stop-color="#2477F4"/>
</radialGradient>
<linearGradient id="paint3_linear_4_80" x1="284.074" y1="115.872" x2="284.074" y2="270.407" gradientUnits="userSpaceOnUse">
<stop stop-color="#010622"/>
<stop offset="1" stop-color="#0B4684"/>
</linearGradient>
<radialGradient id="paint4_radial_4_80" cx="0" cy="0" r="1" gradientUnits="userSpaceOnUse" gradientTransform="translate(230.921 228.199) rotate(-90) scale(60.2043 38.986)">
<stop stop-color="#1364DF"/>
<stop offset="0.300347" stop-color="#1364DF"/>
<stop offset="0.690972" stop-color="#64A2FF"/>
<stop offset="1" stop-color="#2477F4"/>
</radialGradient>
<radialGradient id="paint5_radial_4_80" cx="0" cy="0" r="1" gradientUnits="userSpaceOnUse" gradientTransform="translate(230.921 228.199) rotate(-90) scale(60.2043 38.986)">
<stop stop-color="#1364DF"/>
<stop offset="0.300347" stop-color="#1364DF"/>
<stop offset="0.690972" stop-color="#64A2FF"/>
<stop offset="1" stop-color="#2477F4"/>
</radialGradient>
<radialGradient id="paint6_radial_4_80" cx="0" cy="0" r="1" gradientUnits="userSpaceOnUse" gradientTransform="translate(297.919 489.424) rotate(-90) scale(142.883 117.712)">
<stop stop-color="#1364DF"/>
<stop offset="0.300347" stop-color="#1364DF"/>
<stop offset="0.690972" stop-color="#64A2FF"/>
<stop offset="1" stop-color="#2477F4"/>
</radialGradient>
<linearGradient id="paint7_linear_4_80" x1="313.209" y1="506.974" x2="283.355" y2="422.907" gradientUnits="userSpaceOnUse">
<stop stop-color="white"/>
<stop offset="1" stop-color="white" stop-opacity="0"/>
</linearGradient>
<linearGradient id="paint8_linear_4_80" x1="282.684" y1="124.539" x2="282.684" y2="232.885" gradientUnits="userSpaceOnUse">
<stop stop-color="white"/>
<stop offset="1" stop-color="white" stop-opacity="0"/>
</linearGradient>
<clipPath id="clip0_4_80">
<rect width="625" height="615" fill="white"/>
</clipPath>
</defs>
</svg>
