<svg width="191" height="239" viewBox="0 0 191 239" fill="none" xmlns="http://www.w3.org/2000/svg">
<g clip-path="url(#clip0_129_80)">
<path d="M137.499 18.7443C155.057 -7.42229 195.003 -2.077 205.064 27.7855L260.171 191.349C269.161 218.03 247.026 244.88 219.12 241.146L67.8398 220.903C39.9338 217.168 25.6376 185.443 41.3257 162.064L137.499 18.7443Z" fill="#040F24"/>
<g filter="url(#filter0_d_129_80)">
<path d="M168.454 57.1869C160.699 58.5416 155.409 65.1788 154.307 72.8002C153.446 78.7539 154.439 85.2787 157.499 90.5262C158.32 91.9346 159.4 93.0565 160.741 93.8919C162.795 95.5119 165.131 96.1822 167.749 95.9028C167.792 95.8987 167.828 95.9109 167.859 95.9392C168.233 96.2794 171.553 94.8138 171.984 94.5814C172.041 94.6634 172.082 94.7515 172.108 94.8457C173.771 100.871 174.304 107.519 172.48 113.573C172.455 113.54 172.44 113.502 172.437 113.459C172.436 113.432 172.429 113.43 172.416 113.453C172.384 113.505 172.36 113.49 172.343 113.406C172.338 113.379 172.342 113.354 172.355 113.331C172.362 113.317 172.451 113.132 172.484 113.226C172.507 113.293 172.525 113.297 172.537 113.237L172.559 113.12C172.573 113.047 172.549 113.03 172.486 113.068C172.363 113.144 172.274 113.123 172.219 113.003C172.191 112.941 172.145 112.903 172.079 112.889L171.413 112.746C171.366 112.736 171.328 112.749 171.297 112.784C170.835 113.311 169.534 113.237 168.923 113.208C168.466 113.187 168.196 112.909 167.727 112.941C167.325 112.967 166.922 112.958 166.52 112.915C166.473 112.91 166.427 112.916 166.381 112.933C166.176 113.014 165.983 112.987 165.804 112.853C165.761 112.821 165.715 112.803 165.664 112.798C164.896 112.719 164.288 113.117 163.651 112.558C163.609 112.521 163.561 112.509 163.505 112.523L163.083 112.635C163.034 112.648 163.018 112.677 163.034 112.725C163.038 112.737 163.042 112.749 163.046 112.762C163.064 112.813 163.046 112.838 162.992 112.836C162.665 112.824 162.342 112.84 162.022 112.885C161.584 112.944 161.255 112.602 160.818 112.591C160.609 112.585 160.398 112.586 160.184 112.594C160.105 112.599 160.07 112.64 160.08 112.719L160.136 113.191C160.14 113.22 160.127 113.236 160.098 113.24L159.079 113.375C159.021 113.382 159.002 113.414 159.021 113.469L159.174 113.904C159.185 113.937 159.173 113.952 159.138 113.949C158.983 113.936 158.857 113.87 158.757 113.75C158.723 113.71 158.68 113.696 158.629 113.709C158.469 113.75 158.356 113.7 158.292 113.559C158.287 113.546 158.284 113.533 158.285 113.519C158.285 113.506 158.289 113.492 158.296 113.48C158.302 113.468 158.311 113.458 158.323 113.45C158.334 113.443 158.346 113.438 158.36 113.436C158.617 113.402 158.86 113.322 159.09 113.194C159.204 113.131 159.196 113.099 159.064 113.1C158.721 113.103 158.506 112.946 158.419 112.628C158.405 112.577 158.372 112.545 158.322 112.531L157.455 112.297C157.411 112.285 157.368 112.288 157.326 112.307C157.249 112.344 157.209 112.361 157.123 112.361C155.593 112.383 154.063 112.416 152.533 112.459C152.185 112.468 151.925 112.276 151.536 112.318C151.525 112.319 151.522 112.315 151.527 112.306L151.55 112.265C151.599 112.171 151.577 112.148 151.484 112.198L151.41 112.239C151.367 112.262 151.359 112.294 151.387 112.335C151.396 112.348 151.4 112.361 151.398 112.373C151.394 112.401 151.379 112.411 151.353 112.402L151.184 112.345C153.916 110.678 154.856 107.8 155.175 104.681C155.367 102.802 155.411 100.919 155.306 99.033C155.078 94.8826 154.545 90.7728 153.708 86.7034C153.698 86.6517 153.715 86.6132 153.761 86.5879L153.886 86.5196C153.943 86.4882 153.96 86.4416 153.938 86.3799L152.758 83.0005C151.05 77.4189 150.596 71.2373 151.02 65.4583C151.032 65.3054 151.137 65.0923 151.335 64.8189C152.843 63.1543 154.511 61.6734 156.339 60.3764C159.799 58.1822 163.584 57.0567 167.692 57C167.866 56.998 168.12 57.0603 168.454 57.1869Z" fill="#E7E7E7"/>
<path d="M168.454 57.1867C169.102 57.1746 169.945 57.0683 170.529 57.4024C171.274 57.8277 171.859 58.4119 172.286 59.1551L172.245 59.1809C172.219 59.1991 172.19 59.2047 172.158 59.1976C170.227 58.7197 168.314 58.7916 166.418 59.4133C160.119 61.4758 156.178 67.3339 155.592 73.8875C155.27 76.8816 155.32 79.8686 155.743 82.8485C156.244 86.9538 157.65 91.0516 160.741 93.8917C159.4 93.0564 158.32 91.9345 157.499 90.5261C154.439 85.2786 153.446 78.7538 154.307 72.8001C155.409 65.1787 160.699 58.5415 168.454 57.1867Z" fill="#A7A7A7"/>
<path d="M147.303 62.3446C148.686 63.1041 150.03 63.9288 151.335 64.8188C151.137 65.0922 151.032 65.3053 151.02 65.4582C150.596 71.2373 151.05 77.4188 152.758 83.0004C152.624 83.0278 152.545 82.9908 152.522 82.8895C152.478 82.6911 152.458 82.6901 152.462 82.8865L152.468 83.169C152.469 83.2075 152.451 83.2333 152.415 83.2465C152.214 83.3224 152.004 83.3361 151.786 83.2875C151.733 83.2763 151.682 83.2814 151.633 83.3027C151.37 83.4181 151.097 83.4616 150.814 83.4333C150.754 83.4272 150.707 83.4495 150.672 83.5001L150.453 83.8373C150.428 83.8747 150.395 83.8844 150.355 83.8661L150.275 83.8282C150.254 83.818 150.243 83.8251 150.243 83.8494V84.2519C150.243 84.3015 150.268 84.3274 150.317 84.3294C150.334 84.3294 150.352 84.3294 150.37 84.3294C150.422 84.3304 150.44 84.3562 150.424 84.4068L150.391 84.5132C150.378 84.5537 150.391 84.5663 150.43 84.5511C150.578 84.4919 150.681 84.9308 150.362 85.0508C149.817 83.1695 149.125 81.3449 148.287 79.577C145.652 73.6841 141.393 68.0219 135.94 64.5484C130.017 60.7737 123.698 60.1044 116.983 62.5406C116.801 62.5173 116.738 62.4034 116.795 62.1988C120.985 60.3444 125.118 59.1627 129.603 58.7496C135.904 58.1679 141.644 59.6184 147.303 62.3446Z" fill="#F8F8F8"/>
<path d="M116.795 62.1993C116.738 62.4039 116.801 62.5178 116.983 62.5411C109.678 65.3357 104.229 70.486 99.5692 76.6219C99.4899 76.5096 99.4097 76.5065 99.3284 76.6128C98.5749 77.5869 97.6393 78.9062 96.5216 80.5708C96.5954 79.6337 96.9746 78.528 97.1191 77.9038C97.9137 74.4916 98.9823 71.1679 100.325 67.9328C101.022 66.407 101.773 65.116 102.578 64.0599C105.639 60.0442 112.676 60.9828 116.795 62.1993Z" fill="#E7E7E7"/>
<path d="M100.325 67.9326C98.9822 71.1677 97.9136 74.4913 97.119 77.9036C96.9745 78.5278 96.5953 79.6335 96.5215 80.5706C95.7495 81.9482 95.0662 83.1678 94.2655 84.7124C93.9936 85.2379 93.6881 85.7432 93.349 86.2282C93.7724 81.0095 95.2699 76.0891 97.8414 71.4669C98.5848 70.1324 99.4126 68.9543 100.325 67.9326Z" fill="url(#paint0_radial_129_80)"/>
<path d="M99.5692 76.6217L98.472 78.2103C95.4661 82.5764 93.035 87.2488 91.1789 92.2274C91.1729 91.9115 91.3294 91.6563 91.3911 91.3678C91.4543 91.0721 91.5004 90.8863 91.5295 90.8104C92.2168 89.0334 92.6959 87.8715 92.9668 87.3247C93.1685 86.9166 93.2959 86.5511 93.3491 86.2281C93.6882 85.7431 93.9937 85.2379 94.2656 84.7124C95.0662 83.1677 95.7495 81.9481 96.5216 80.5706C97.6393 78.906 98.5749 77.5866 99.3284 76.6126C99.4096 76.5062 99.4899 76.5093 99.5692 76.6217Z" fill="white"/>
<path fill-rule="evenodd" clip-rule="evenodd" d="M172.286 59.1555C172.313 59.2026 172.338 59.2345 172.392 59.2527C173.909 59.7661 175.22 60.607 176.323 61.7755C179.33 65.1032 180.613 69.6839 180.713 74.1158C180.807 76.6674 180.569 79.1861 179.999 81.6718C178.829 86.7325 176.444 91.6975 171.985 94.5817C171.553 94.8141 168.233 96.2797 167.859 95.9395C167.842 95.9236 167.823 95.9127 167.802 95.907C167.785 95.9026 167.768 95.9013 167.75 95.9031C165.131 96.1825 162.795 95.5122 160.741 93.8922C157.65 91.052 156.244 86.9543 155.743 82.8489C155.32 79.869 155.27 76.882 155.592 73.8879C156.178 67.3343 160.119 61.4763 166.418 59.4137C168.314 58.792 170.227 58.7201 172.158 59.1981C172.19 59.2051 172.219 59.1996 172.245 59.1813L172.286 59.1555Z" fill="url(#paint1_radial_129_80)"/>
<path d="M152.758 83.0008L153.938 86.3802C153.96 86.4419 153.943 86.4885 153.885 86.5199L153.761 86.5883C153.715 86.6136 153.698 86.652 153.708 86.7037C154.545 90.7731 155.077 94.883 155.306 99.0334C155.411 100.92 155.367 102.803 155.175 104.682C154.856 107.8 153.916 110.678 151.184 112.346C147.653 114.366 143.683 115.655 139.79 116.752C134.279 118.304 128.705 119.579 123.068 120.576C121.552 120.843 120.036 121.114 118.52 121.389C115.544 121.827 112.562 122.208 109.573 122.531C103.565 123.178 98.0777 122.961 92.7906 119.686C92.8614 119.685 92.911 119.663 92.9788 119.677C98.0069 120.696 103.359 120.676 108.414 120.336C114.808 119.906 121.123 118.952 127.359 117.473C130.913 116.63 134.387 115.525 137.779 114.159C140.699 112.984 143.495 111.516 146.013 109.603C148.946 107.372 150.769 104.428 151.484 100.769C151.493 100.725 151.469 100.682 151.413 100.642C151.388 100.624 151.363 100.623 151.338 100.64C151.307 100.66 151.271 100.665 151.228 100.657L151.566 98.9483C151.987 96.3856 152.02 93.8163 151.667 91.2404C151.42 89.1373 150.985 87.0743 150.362 85.0512C150.681 84.9312 150.578 84.4923 150.43 84.5515C150.391 84.5667 150.378 84.5541 150.391 84.5136L150.424 84.4073C150.44 84.3566 150.422 84.3308 150.37 84.3298C150.352 84.3298 150.334 84.3298 150.317 84.3298C150.268 84.3278 150.243 84.3019 150.243 84.2523V83.8498C150.243 83.8255 150.254 83.8185 150.275 83.8286L150.355 83.8666C150.395 83.8848 150.428 83.8752 150.453 83.8377L150.672 83.5005C150.706 83.4499 150.754 83.4276 150.814 83.4337C151.097 83.462 151.37 83.4185 151.633 83.3031C151.682 83.2818 151.733 83.2768 151.786 83.2879C152.004 83.3365 152.213 83.3228 152.415 83.2469C152.451 83.2337 152.469 83.2079 152.468 83.1694L152.462 82.8869C152.458 82.6905 152.478 82.6915 152.522 82.89C152.545 82.9912 152.624 83.0282 152.758 83.0008Z" fill="#F8F8F8"/>
<path d="M140.461 86.5305C134.859 85.5175 129.229 86.1584 124.416 89.3783C124.406 89.3858 124.393 89.3895 124.381 89.3889C124.368 89.3883 124.356 89.3835 124.346 89.3751C124.336 89.3667 124.33 89.3553 124.327 89.3427C124.325 89.33 124.326 89.3169 124.332 89.3054C126.355 84.8598 130.174 83.3653 134.768 84.1855C136.664 84.5242 138.927 85.2775 140.503 86.4318C140.514 86.4389 140.521 86.4495 140.525 86.4618C140.529 86.474 140.528 86.4871 140.523 86.4988C140.518 86.5105 140.509 86.5201 140.498 86.5259C140.486 86.5317 140.473 86.5333 140.461 86.5305Z" fill="url(#paint2_radial_129_80)"/>
<path d="M105.392 90.7087C105.664 91.9288 105.768 93.1535 105.704 94.3827C105.172 94.3928 104.648 94.4242 104.132 94.4769C103.296 94.5619 102.487 94.4586 101.643 94.4845C101.593 94.4855 101.545 94.4764 101.5 94.4571C101.137 94.3037 99.6881 94.4192 99.1975 94.4009C97.6052 94.3417 96.1755 94.4359 94.6539 94.4875C94.529 94.4921 94.4447 94.4359 94.3334 94.3857C94.4498 93.6871 94.6223 93.0072 94.8511 92.346C95.6247 89.8445 97.3358 86.5502 99.8612 85.4658C101.21 84.8871 102.739 85.5903 103.595 86.6839C104.506 87.8473 105.105 89.1889 105.392 90.7087Z" fill="#2EEAF0"/>
<path d="M93.6562 91.9938L91.1052 99.562C91.0903 99.6063 91.0686 99.6482 91.0416 99.6847C91.0146 99.7212 90.9831 99.7514 90.9491 99.7732C90.9151 99.7951 90.8796 99.808 90.8449 99.8111C90.8103 99.8143 90.7774 99.8075 90.7485 99.7913C90.5318 99.6698 89.99 100.083 89.4678 99.7078C89.4277 99.6794 89.3996 99.6415 89.3835 99.5939L89.3293 99.4359C89.816 97.3035 90.4506 95.2192 91.2331 93.183C91.6515 92.0925 92.1151 91.3073 93.0226 90.7195C93.3793 90.4886 93.9797 90.5798 93.8428 91.1645C93.7786 91.4399 93.7164 91.7163 93.6562 91.9938Z" fill="#1E75C8"/>
<path d="M105.703 94.3827C105.661 95.8822 105.382 97.3296 104.865 98.7249C103.833 101.149 102.043 102.693 99.4969 103.357C97.995 103.749 95.8233 103.587 94.8782 102.188C94.6695 101.879 94.4919 101.414 94.3454 100.792C93.8477 98.6728 93.8437 96.5373 94.3333 94.3857C94.4447 94.4358 94.529 94.492 94.6539 94.4875C96.1754 94.4358 97.6052 94.3416 99.1975 94.4009C99.6881 94.4191 101.137 94.3037 101.5 94.4571C101.545 94.4763 101.593 94.4854 101.643 94.4844C102.487 94.4586 103.296 94.5619 104.132 94.4768C104.648 94.4242 105.172 94.3928 105.703 94.3827Z" fill="#3BF6DC"/>
<path d="M128.384 98.3348C126.605 105.493 120.764 109.138 113.675 109.039C113.664 109.039 113.652 109.034 113.644 109.026C113.635 109.017 113.63 109.007 113.628 108.995C113.626 108.983 113.629 108.971 113.635 108.961C113.641 108.951 113.651 108.943 113.662 108.939C119.247 107.209 124.508 103.892 127.782 98.9544L128.316 98.0978C128.353 98.0381 128.383 98.0416 128.405 98.1085C128.427 98.1733 128.42 98.2487 128.384 98.3348Z" fill="#3184D3"/>
<path d="M92.7907 119.686C91.5973 119.24 90.4429 118.937 89.4482 118.085C89.1151 117.651 88.8512 117.176 88.6565 116.661C88.6385 116.612 88.637 116.562 88.652 116.512C88.7378 116.232 88.3224 115.919 88.6957 115.769C89.4226 117.898 92.2324 118.576 94.2205 118.892C96.497 119.253 98.7891 119.449 101.097 119.48C105.467 119.535 109.822 119.296 114.161 118.763C116.864 118.469 119.548 118.051 122.213 117.51C123.9 117.234 125.57 116.882 127.223 116.453C133.126 115.07 139.746 112.874 144.969 109.346C148.097 107.232 150.284 104.373 151.228 100.657C151.271 100.665 151.307 100.659 151.338 100.64C151.363 100.623 151.388 100.624 151.413 100.642C151.469 100.682 151.493 100.725 151.484 100.769C150.769 104.428 148.946 107.372 146.013 109.603C143.495 111.516 140.699 112.984 137.779 114.159C134.387 115.525 130.913 116.63 127.359 117.473C121.123 118.951 114.808 119.906 108.414 120.336C103.359 120.676 98.007 120.696 92.9788 119.677C92.9111 119.663 92.8615 119.685 92.7907 119.686Z" fill="white"/>
<path d="M87.6467 110.257C87.733 110.609 87.7651 110.928 87.743 111.212C87.7089 111.21 87.6873 111.212 87.6783 111.218C84.3372 113.708 80.8983 116.594 78.2962 119.971C76.9779 121.683 76.0884 123.421 76.6874 125.609L76.3111 126.129C74.4811 128.54 76.3036 129.636 78.4151 130.201C77.3265 130.571 76.1877 130.718 74.9988 130.643C70.6961 130.366 72.5126 125.053 73.7196 122.913C76.7912 117.464 82.1294 113.027 87.6467 110.257Z" fill="#A7A7A7"/>
<path fill-rule="evenodd" clip-rule="evenodd" d="M148.287 79.5775C145.652 73.6845 141.393 68.0224 135.94 64.5489C130.017 60.7741 123.698 60.1048 116.983 62.541C109.678 65.3356 104.229 70.4859 99.5693 76.6219L98.4721 78.2105C95.4662 82.5766 93.0351 87.2489 91.179 92.2276C89.4382 96.7891 88.3055 101.496 87.7807 106.348L87.6468 110.257C87.7331 110.61 87.7652 110.928 87.7431 111.213L87.7551 111.441C87.8725 112.928 88.1861 114.371 88.6958 115.769C89.4227 117.898 92.2325 118.576 94.2205 118.892C96.4971 119.253 98.7892 119.449 101.097 119.48C105.467 119.535 109.822 119.296 114.162 118.763C116.865 118.469 119.548 118.051 122.213 117.51C123.9 117.234 125.57 116.882 127.223 116.453C133.126 115.07 139.746 112.874 144.969 109.346C148.097 107.232 150.284 104.373 151.228 100.657L151.566 98.9483C151.987 96.3856 152.02 93.8163 151.667 91.2404C151.42 89.1373 150.986 87.0743 150.362 85.0512C149.817 83.1699 149.125 81.3454 148.287 79.5775ZM128.405 98.1084C128.427 98.1732 128.42 98.2487 128.384 98.3347C126.605 105.493 120.764 109.138 113.675 109.039C113.673 109.039 113.671 109.039 113.669 109.038C113.666 109.038 113.663 109.037 113.66 109.036C113.654 109.033 113.649 109.03 113.644 109.026C113.635 109.017 113.63 109.007 113.628 108.995C113.627 108.987 113.628 108.979 113.63 108.972C113.63 108.971 113.631 108.97 113.631 108.969C113.632 108.968 113.632 108.967 113.632 108.966L113.633 108.964C113.634 108.963 113.635 108.962 113.635 108.961C113.641 108.951 113.651 108.943 113.662 108.939C119.247 107.209 124.508 103.892 127.782 98.9544L128.316 98.0978C128.353 98.038 128.383 98.0416 128.405 98.1084ZM104.865 98.7251C103.833 101.149 102.043 102.693 99.497 103.357C97.9951 103.749 95.8234 103.587 94.8782 102.188C94.6695 101.879 94.4919 101.414 94.3455 100.792C93.8478 98.6729 93.8438 96.5375 94.3334 94.3858C94.4498 93.6872 94.6224 93.0072 94.8511 92.3461C95.6247 89.8446 97.3359 86.5503 99.8612 85.4659C101.21 84.8872 102.739 85.5904 103.595 86.684C104.506 87.8474 105.105 89.189 105.392 90.7088C105.664 91.9289 105.768 93.1536 105.704 94.3828C105.661 95.8823 105.382 97.3298 104.865 98.7251ZM105.138 98.6626C105.136 98.657 105.135 98.6515 105.133 98.6461C105.135 98.6517 105.136 98.6574 105.138 98.6633L105.138 98.6626ZM140.461 86.5306C134.86 85.5175 129.229 86.1585 124.417 89.3783C124.406 89.3858 124.394 89.3895 124.381 89.389C124.368 89.3884 124.356 89.3835 124.346 89.3751C124.336 89.3667 124.33 89.3553 124.327 89.3427C124.325 89.3301 124.327 89.3169 124.332 89.3054C126.355 84.8599 130.175 83.3654 134.768 84.1855C136.664 84.5242 138.928 85.2775 140.503 86.4318C140.509 86.4355 140.513 86.4401 140.517 86.4454C140.521 86.4503 140.523 86.4558 140.525 86.4618C140.529 86.474 140.528 86.4871 140.523 86.4988C140.518 86.5106 140.509 86.5202 140.498 86.526C140.492 86.5288 140.486 86.5307 140.48 86.5314C140.474 86.5323 140.467 86.532 140.461 86.5306Z" fill="url(#paint3_linear_129_80)"/>
<path d="M104.865 98.725C103.833 101.149 102.043 102.693 99.497 103.357C97.995 103.749 95.8233 103.587 94.8781 102.188C94.6695 101.879 94.4919 101.414 94.3454 100.792C93.8477 98.6728 93.8437 96.5374 94.3333 94.3857C94.4497 93.6871 94.6223 93.0072 94.8511 92.346C95.6246 89.8445 97.3358 86.5502 99.8612 85.4658C101.21 84.8871 102.739 85.5903 103.595 86.6839C104.506 87.8473 105.105 89.1889 105.392 90.7087C105.664 91.9288 105.768 93.1535 105.703 94.3827C105.661 95.8822 105.382 97.3297 104.865 98.725Z" fill="url(#paint4_radial_129_80)"/>
<path d="M105.138 98.6625C105.136 98.6569 105.134 98.6514 105.133 98.646C105.135 98.6516 105.136 98.6573 105.138 98.6632L105.138 98.6625Z" fill="url(#paint5_radial_129_80)"/>
<path d="M166.374 122.511C169.358 120.199 171.393 117.219 172.48 113.573C172.542 113.341 172.674 112.993 172.668 112.89C172.569 111.36 158.554 110.563 151.673 112.01L151.184 112.346C147.653 114.366 143.683 115.655 139.79 116.752C134.279 118.304 128.705 119.579 123.068 120.576C121.552 120.844 120.036 121.114 118.52 121.389C119.053 121.363 119.581 121.286 120.106 121.156C120.155 121.144 120.199 121.155 120.237 121.19C120.314 121.261 120.405 121.287 120.508 121.269C120.564 121.259 120.572 121.233 120.532 121.191L120.502 121.161C120.488 121.148 120.49 121.138 120.509 121.132L120.609 121.1C120.653 121.086 120.684 121.101 120.701 121.144C120.708 121.162 120.714 121.181 120.72 121.199C120.724 121.21 120.732 121.216 120.744 121.217C121.124 121.252 121.254 121.468 121.136 121.867C121.122 121.913 121.094 121.946 121.053 121.966C120.776 122.102 120.536 122.29 120.333 122.532C120.256 122.625 120.276 122.663 120.394 122.646L120.875 122.581C120.928 122.574 120.961 122.597 120.975 122.649C120.99 122.713 120.967 122.752 120.907 122.766C120.81 122.789 120.798 122.833 120.869 122.9L120.886 122.917C120.931 122.968 120.956 122.961 120.962 122.895C120.971 122.785 121.034 122.756 121.154 122.807C121.207 122.831 121.254 122.821 121.295 122.78L121.378 122.696C121.409 122.665 121.446 122.656 121.489 122.669C121.678 122.727 121.832 122.669 121.953 122.494C121.987 122.444 122.034 122.414 122.094 122.405L122.343 122.364C122.425 122.35 122.437 122.373 122.379 122.434C122.331 122.483 122.319 122.536 122.344 122.593C122.377 122.666 122.405 122.664 122.427 122.587C122.443 122.529 122.477 122.495 122.528 122.485C122.563 122.478 122.591 122.46 122.613 122.431C122.753 122.24 122.95 122.168 123.203 122.213C123.242 122.221 123.275 122.211 123.304 122.185C123.656 121.859 124.059 121.775 124.513 121.932C124.561 121.949 124.578 121.982 124.564 122.031C124.539 122.116 124.57 122.179 124.659 122.218C133.267 120.552 141.995 119.323 150.745 118.754C153.989 118.544 157.47 118.468 160.44 118.699C161.835 118.792 167.333 119.241 166.636 121.756C166.588 121.929 166.441 122.21 166.196 122.598C166.263 122.58 166.323 122.551 166.374 122.511Z" fill="#A7A7A7"/>
<path d="M89.4482 118.085C90.443 118.937 91.5974 119.24 92.7908 119.686C98.0778 122.961 103.565 123.178 109.573 122.531C112.562 122.208 115.544 121.827 118.52 121.389C119.053 121.363 119.582 121.286 120.106 121.156C120.155 121.144 120.199 121.155 120.237 121.19C120.314 121.261 120.405 121.287 120.508 121.269C120.564 121.259 120.572 121.233 120.532 121.191L120.502 121.161C120.488 121.148 120.491 121.138 120.51 121.132L120.609 121.1C120.653 121.086 120.684 121.101 120.701 121.144C120.708 121.162 120.714 121.181 120.72 121.199C120.724 121.21 120.732 121.216 120.744 121.217C121.124 121.252 121.254 121.468 121.136 121.867C121.122 121.913 121.094 121.946 121.053 121.966C120.776 122.102 120.536 122.29 120.334 122.532C120.256 122.625 120.276 122.663 120.394 122.646L120.875 122.581C120.928 122.574 120.962 122.597 120.975 122.649C120.99 122.713 120.967 122.752 120.907 122.766C120.811 122.789 120.798 122.833 120.869 122.9C120.874 122.905 120.88 122.911 120.886 122.917C120.931 122.968 120.957 122.961 120.963 122.895C120.971 122.785 121.034 122.756 121.154 122.807C121.207 122.831 121.254 122.821 121.295 122.78L121.378 122.696C121.409 122.665 121.446 122.656 121.489 122.669C121.678 122.727 121.832 122.669 121.953 122.494C121.987 122.444 122.034 122.414 122.094 122.405L122.343 122.364C122.425 122.35 122.437 122.373 122.379 122.434C122.331 122.483 122.319 122.536 122.344 122.593C122.377 122.666 122.405 122.664 122.427 122.587C122.443 122.529 122.477 122.495 122.528 122.485C122.563 122.478 122.591 122.46 122.614 122.431C122.753 122.24 122.95 122.168 123.204 122.213C123.242 122.221 123.275 122.211 123.304 122.185C123.657 121.859 124.059 121.775 124.513 121.932C124.561 121.949 124.578 121.982 124.564 122.031C124.539 122.116 124.571 122.179 124.659 122.218C119.792 123.121 114.988 124.29 110.249 125.723C108.628 126.22 105.293 127.314 104.241 128.658C103.515 129.584 104.515 131 105.255 131.521C106.514 132.407 107.911 132.977 109.445 133.231C110.747 133.659 112.042 133.894 113.329 133.934C113.384 133.936 113.426 133.962 113.453 134.012L113.52 134.135C108.665 133.892 103.389 133.204 98.9748 131.281C96.63 130.257 94.973 128.462 93.4681 126.471C94.4689 124.12 92.842 122.381 90.7124 121.808C90.2409 120.579 89.8195 119.338 89.4482 118.085Z" fill="#A7A7A7"/>
<path d="M160.44 118.699C160.45 118.799 160.482 118.895 160.536 118.986C160.564 119.035 160.556 119.078 160.512 119.113C157.714 121.366 154.206 122.718 150.845 123.858C150.601 123.941 150.351 124.009 150.096 124.062C150.045 124.073 150.008 124.102 149.986 124.15L149.942 124.242C149.866 124.238 149.766 124.224 149.693 124.248C140.386 127.348 131.056 128.623 121.259 128.453C120.26 128.436 118.916 128.349 117.743 128.337C115.393 127.97 112.973 127.638 110.873 126.445C110.533 126.252 110.258 126.188 110.249 125.723C114.988 124.289 119.792 123.121 124.659 122.218C133.267 120.552 141.995 119.323 150.745 118.753C153.989 118.544 157.47 118.468 160.44 118.699Z" fill="#67636E"/>
<path d="M160.44 118.699C161.835 118.791 167.332 119.241 166.636 121.756C166.587 121.929 166.441 122.21 166.196 122.597C164.523 124.28 162.024 125.571 159.875 126.52C156.601 125.599 153.29 124.84 149.942 124.242L149.986 124.15C150.008 124.102 150.045 124.073 150.096 124.062C150.351 124.009 150.601 123.941 150.845 123.858C154.206 122.717 157.714 121.366 160.512 119.113C160.556 119.078 160.564 119.035 160.536 118.986C160.482 118.895 160.45 118.799 160.44 118.699Z" fill="#8E8E8E"/>
<path d="M90.7124 121.808C92.8419 122.38 94.4688 124.119 93.468 126.47C92.7797 127.571 91.8426 128.388 90.6567 128.92C87.2103 130.467 83.6073 130.992 79.8479 130.495L79.2459 130.393C78.965 130.386 78.6881 130.322 78.4151 130.2C76.3037 129.636 74.4811 128.54 76.3112 126.129C76.4647 126.455 76.1938 126.771 76.3157 127.166C76.3317 127.221 76.3679 127.252 76.4241 127.26C76.7772 127.315 77.2192 127.323 77.7499 127.284C81.4261 127.016 84.9102 126.394 88.2021 125.419C89.4632 125.046 90.592 124.526 91.5236 123.577C91.5446 122.85 91.2792 122.353 90.7274 122.087C90.5047 121.98 90.0161 121.869 89.2616 121.756C87.0553 121.423 84.6307 121.694 82.435 122.247C82.1731 122.313 81.8691 122.438 81.541 122.445C84.3403 121.372 87.7566 121.018 90.7124 121.808Z" fill="#FFB800"/>
<path d="M91.5235 123.577C91.06 123.462 90.7349 123.375 90.2518 123.446C86.082 124.072 81.9052 124.647 77.7213 125.172C77.6732 125.178 77.6285 125.168 77.5874 125.143C77.479 125.077 77.3922 124.988 77.327 124.876C78.4272 123.676 80.0811 122.979 81.541 122.446C81.8691 122.438 82.1731 122.313 82.4349 122.247C84.6307 121.694 87.0552 121.423 89.2615 121.756C90.016 121.869 90.5047 121.98 90.7274 122.087C91.2792 122.353 91.5446 122.85 91.5235 123.577Z" fill="#FFD568"/>
<path d="M91.5236 123.577C90.592 124.526 89.4632 125.046 88.2021 125.419C84.9102 126.394 81.4261 127.016 77.75 127.285C77.2192 127.323 76.7772 127.315 76.4241 127.26C76.3679 127.252 76.3318 127.221 76.3157 127.166C76.1938 126.771 76.4647 126.455 76.3112 126.129L76.6874 125.609L77.3271 124.876C77.3923 124.988 77.4791 125.077 77.5874 125.143C77.6286 125.168 77.6732 125.178 77.7214 125.172C81.9052 124.647 86.082 124.072 90.2519 123.446C90.735 123.375 91.06 123.462 91.5236 123.577Z" fill="#FDC943"/>
<path d="M149.942 124.243C153.291 124.84 156.601 125.599 159.875 126.521L158.671 127.09C157.449 127.376 156.306 127.968 155.108 128.36C154.42 128.585 153.688 128.913 153.13 129.08C151.576 129.546 150.037 130.056 148.513 130.609L143.342 131.896C140.801 130.105 138.3 129.119 135.127 129.517C131.021 130.033 127.334 131.554 124.067 134.08C123.96 134.162 123.799 134.215 123.68 134.293C122.94 134.312 115.77 134.402 115.697 134.162C115.686 134.13 115.664 134.114 115.63 134.115L113.52 134.135L113.453 134.012C113.426 133.962 113.384 133.936 113.329 133.934C112.042 133.894 110.747 133.659 109.445 133.231C110.592 132.076 111.896 131.158 113.359 130.479C114.83 129.794 116.285 129.066 117.743 128.337C118.916 128.349 120.26 128.436 121.259 128.453C131.056 128.623 140.386 127.349 149.693 124.249C149.766 124.224 149.866 124.238 149.942 124.243Z" fill="#A7A7A7"/>
<path d="M110.248 125.723C110.257 126.188 110.533 126.252 110.873 126.445C112.972 127.639 115.392 127.97 117.743 128.337C116.285 129.066 114.83 129.794 113.359 130.479C111.896 131.158 110.592 132.076 109.445 133.231C107.911 132.977 106.514 132.407 105.255 131.521C104.514 131 103.515 129.584 104.241 128.658C105.293 127.314 108.628 126.22 110.248 125.723Z" fill="#8E8E8E"/>
<path d="M158.671 127.091C156.152 128.451 153.387 129.241 149.976 130.297C149.317 130.501 148.83 130.606 148.513 130.61C150.037 130.056 151.576 129.546 153.13 129.08C153.688 128.913 154.42 128.585 155.108 128.36C156.306 127.968 157.449 127.376 158.671 127.091Z" fill="#D4D4D4"/>
<path d="M143.342 131.896C144.672 133.022 145.819 134.314 146.782 135.773C146.575 135.813 146.415 135.854 146.3 135.896C141.496 137.664 136.556 139.265 131.555 140.354C128.769 140.96 125.93 141.416 123.264 140.696C121.172 140.132 120.273 138.586 121.385 136.545L123.708 134.367C123.725 134.352 123.724 134.336 123.706 134.321C123.693 134.311 123.684 134.301 123.68 134.292C123.799 134.215 123.96 134.162 124.067 134.08C127.334 131.553 131.021 130.033 135.127 129.517C138.3 129.119 140.801 130.105 143.342 131.896Z" fill="#D4D4D4"/>
<path d="M79.2459 130.394L79.8482 130.495C79.6314 130.54 79.4306 130.506 79.2459 130.394Z" fill="#E7E7E7"/>
<path d="M154.232 135.052C154.077 134.982 153.931 134.972 153.794 135.023C153.71 135.053 153.705 135.094 153.78 135.144C157.395 137.552 160.228 140.864 162.276 144.444C165.043 149.28 167.088 154.555 168.41 160.27C168.322 160.476 168.177 160.547 167.977 160.484C167.536 160.346 166.889 160.027 166.493 160.417C166.468 160.443 166.446 160.44 166.428 160.408C166.344 160.261 166.182 160.185 165.944 160.177C164.81 160.141 163.692 160.082 162.559 160.106C161.951 160.118 161.415 159.924 160.813 159.831C160.125 159.725 159.773 159.523 158.933 159.656C158.876 159.666 158.83 159.694 158.795 159.742L158.522 160.111C158.491 160.153 158.45 160.179 158.398 160.188C158.071 160.245 157.836 160.134 157.692 159.857C157.666 159.806 157.625 159.773 157.57 159.758C157.341 159.698 157.243 159.558 157.275 159.336C157.284 159.273 157.257 159.247 157.195 159.259L157.06 159.283C156.808 158.449 155.668 154.972 154.718 155.287C153.562 155.668 154.199 158.413 154.451 159.207C154.417 159.207 154.385 159.215 154.355 159.231C154.332 159.243 154.318 159.237 154.312 159.211C154.295 159.153 154.267 159.106 154.226 159.072C154.173 159.026 154.167 159.032 154.209 159.088C154.232 159.12 154.24 159.149 154.232 159.177C154.224 159.202 154.207 159.212 154.182 159.208C154.031 159.19 153.959 159.112 153.968 158.975C153.972 158.915 153.946 158.879 153.889 158.867C153.807 158.848 153.738 158.861 153.679 158.905C153.641 158.933 153.599 158.948 153.551 158.95L152.489 158.982C152.434 158.984 152.398 159.012 152.381 159.066L152.34 159.189C152.319 159.253 152.278 159.27 152.218 159.237L152.174 159.215C152.151 159.202 152.144 159.184 152.153 159.16L152.205 159.026C152.208 159.016 152.209 159.005 152.207 158.994C152.206 158.984 152.201 158.974 152.194 158.966C152.188 158.958 152.179 158.951 152.169 158.948C152.159 158.944 152.149 158.944 152.138 158.946C152.08 158.956 152.036 158.98 152.006 159.017C150.679 153.581 149.82 148.07 149.428 142.485C149.408 142.197 149.335 141.951 149.21 141.747C148.641 140.811 147.176 139.37 146.219 140.794C145.616 141.692 145.509 143.117 145.546 144.171C145.527 144.954 145.541 145.584 145.587 146.06C145.939 149.628 146.641 153.125 147.691 156.549L147.265 156.607C147.214 156.614 147.191 156.643 147.197 156.693C147.756 161.661 148.268 167.442 148.29 172.633C148.292 173.083 148.227 173.582 148.206 174.053C148.192 174.046 148.181 174.034 148.173 174.017C148.149 173.964 148.137 173.964 148.137 174.015V174.087C148.137 174.151 148.125 174.154 148.102 174.094L147.903 173.585C147.884 173.539 147.854 173.502 147.813 173.476C147.429 173.225 147.173 173.074 146.683 173.15C146.135 173.233 144.949 173.295 144.493 172.923C144.451 172.889 144.403 172.872 144.35 172.873L142.404 172.914C142.349 172.915 142.302 172.935 142.264 172.975L141.968 173.274C141.929 173.313 141.885 173.318 141.838 173.289L141.752 173.238C141.703 173.208 141.672 173.165 141.659 173.109C141.636 173.008 141.602 172.912 141.558 172.818C141.509 172.716 141.445 172.705 141.366 172.785C141.354 172.797 141.339 172.808 141.322 172.817C141.25 172.857 141.24 172.845 141.293 172.78C141.302 172.769 141.311 172.756 141.32 172.739C141.35 172.686 141.34 172.64 141.292 172.601C141.239 172.56 141.177 172.537 141.107 172.534C137.958 164.672 131.106 157.773 122.221 157.597C115.825 157.469 111.513 161.172 108.555 166.541L108.411 166.535C109.58 161.474 111.045 156.502 112.807 151.619C114.789 146.337 117.289 141.197 121.033 136.944C121.147 136.816 121.226 136.67 121.273 136.507L121.385 136.545C120.273 138.586 121.172 140.132 123.264 140.696C125.931 141.416 128.769 140.96 131.555 140.354C136.556 139.265 141.497 137.664 146.3 135.896C146.415 135.854 146.575 135.813 146.782 135.773C146.851 135.817 146.909 135.873 146.957 135.943C147.823 137.237 148.622 138.58 149.354 139.973C149.358 139.981 149.365 139.987 149.373 139.99C149.381 139.994 149.39 139.995 149.398 139.993C149.406 139.991 149.414 139.986 149.419 139.979C149.425 139.972 149.428 139.963 149.428 139.955C149.434 138.472 149.52 133.761 152.086 134.308C152.831 134.466 153.546 134.714 154.232 135.052ZM137.045 145.112C136.291 144.484 135.826 146.255 135.665 146.87C135.048 149.231 134.655 151.665 134.668 154.11C134.669 154.152 134.683 154.194 134.709 154.227C134.736 154.261 134.772 154.285 134.813 154.295C135.538 154.476 136.017 153.493 136.259 152.952C136.953 151.414 138.604 146.411 137.045 145.112Z" fill="#F8F8F8"/>
<path d="M154.232 135.052C155.411 135.616 156.434 136.269 157.299 137.013C161.365 140.509 164.491 145.422 166.985 150.205C169.421 154.875 171.516 159.696 173.27 164.668L173.211 164.954C173.197 165.018 173.159 165.042 173.097 165.027C172.394 164.858 171.747 164.837 170.976 164.716C170.627 164.661 170.108 164.843 169.662 164.621C169.612 164.596 169.573 164.608 169.545 164.658C169.505 164.729 169.448 164.751 169.376 164.725C169.34 164.711 169.322 164.725 169.321 164.764L169.313 165.13C169.102 163.493 168.801 161.873 168.41 160.27C167.088 154.555 165.043 149.28 162.276 144.444C160.227 140.864 157.395 137.552 153.78 135.144C153.705 135.094 153.709 135.053 153.794 135.023C153.931 134.972 154.077 134.982 154.232 135.052Z" fill="#E7E7E7"/>
<path d="M121.273 136.507C121.226 136.67 121.147 136.816 121.033 136.944C117.289 141.197 114.789 146.337 112.807 151.619L112.757 151.637C112.711 151.654 112.704 151.644 112.735 151.605C112.803 151.521 112.84 151.425 112.846 151.317C112.849 151.263 112.829 151.251 112.786 151.282L112.228 151.66C112.183 151.69 112.151 151.73 112.131 151.778C110.715 155.285 108.008 160.633 104.211 162.204C103.533 162.483 102.577 162.688 101.341 162.819C97.4396 163.229 93.2753 162.895 89.7055 161.137C91.7663 158.934 94.0845 156.681 96.66 154.379C103.073 148.651 109.886 143.193 117.084 138.501C117.975 137.921 120.339 136.366 121.273 136.507ZM96.5773 156.297C96.6595 156.325 96.7388 156.331 96.815 156.314C98.4615 155.943 100.746 154.728 101.223 153.021C101.27 152.852 101.252 152.678 101.167 152.5C100.901 151.935 99.9499 152.514 99.5932 152.744C98.7083 153.312 96.4704 155.023 96.4764 156.154C96.4763 156.186 96.486 156.216 96.5041 156.242C96.5222 156.267 96.5478 156.287 96.5773 156.297Z" fill="#E7E7E7"/>
<path d="M152.006 159.017C152.471 161.056 152.997 163.08 153.583 165.088C153.591 165.117 153.587 165.144 153.572 165.17C153.565 165.182 153.557 165.194 153.548 165.206C152.507 165.768 151.623 165.018 151.071 164.149C151.134 163.188 151.128 162.228 151.053 161.268C150.695 156.709 149.611 152.337 147.802 148.15C147.152 146.642 146.4 145.316 145.546 144.171C145.509 143.117 145.615 141.692 146.219 140.794C147.176 139.37 148.641 140.811 149.209 141.747C149.335 141.951 149.408 142.197 149.428 142.485C149.82 148.07 150.679 153.581 152.006 159.017Z" fill="#A7A7A7"/>
<path d="M145.546 144.171C146.4 145.316 147.152 146.642 147.802 148.15C149.611 152.337 150.695 156.709 151.053 161.268C151.128 162.228 151.134 163.188 151.071 164.149C149.5 162.208 148.424 159.005 147.691 156.549C146.64 153.124 145.939 149.628 145.587 146.06C145.541 145.584 145.527 144.954 145.546 144.171Z" fill="#67636E"/>
<path d="M137.045 145.113C138.604 146.411 136.953 151.414 136.259 152.953C136.017 153.493 135.538 154.476 134.813 154.295C134.772 154.285 134.735 154.261 134.709 154.227C134.683 154.194 134.669 154.153 134.668 154.11C134.655 151.665 135.048 149.232 135.665 146.87C135.826 146.255 136.291 144.484 137.045 145.113Z" fill="white"/>
<path d="M112.807 151.619C111.045 156.502 109.58 161.475 108.411 166.535C108.334 166.645 108.256 166.72 108.178 166.76C103.992 168.952 99.2607 171.37 94.5696 173.154C93.3145 173.632 92.1175 173.957 90.9788 174.129L90.7967 174.021L90.9863 174.014C91.0374 174.012 91.0836 173.996 91.1247 173.965C93.004 172.548 94.1212 170.656 94.4763 168.291C94.8135 166.054 94.1121 164.389 92.1858 163.232C91.065 162.558 89.8284 162.44 88.476 162.876C88.4489 162.885 88.4273 162.9 88.4113 162.924L88.3827 162.966C88.3064 162.898 88.2226 162.886 88.1313 162.928L88.1253 162.82L89.7055 161.137C93.2754 162.895 97.4396 163.229 101.341 162.819C102.577 162.688 103.533 162.483 104.211 162.204C108.008 160.633 110.715 155.285 112.131 151.779C112.151 151.73 112.183 151.69 112.228 151.66L112.786 151.282C112.829 151.251 112.849 151.263 112.846 151.317C112.84 151.425 112.803 151.521 112.735 151.605C112.704 151.644 112.711 151.654 112.757 151.637L112.807 151.619Z" fill="#E7E7E7"/>
<path d="M96.5772 156.297C96.5477 156.287 96.5221 156.268 96.504 156.242C96.4859 156.216 96.4762 156.186 96.4763 156.154C96.4703 155.023 98.7082 153.313 99.5932 152.745C99.9498 152.514 100.901 151.935 101.167 152.5C101.252 152.678 101.27 152.852 101.223 153.021C100.746 154.728 98.4614 155.943 96.815 156.314C96.7387 156.331 96.6594 156.325 96.5772 156.297Z" fill="white"/>
<path d="M157.06 159.283C157.649 161.168 158.088 163.087 158.376 165.039C158.435 165.433 158.417 165.79 158.349 166.166C158.344 166.196 158.331 166.225 158.313 166.249C158.294 166.273 158.269 166.292 158.241 166.304C158.214 166.317 158.183 166.322 158.153 166.32C158.122 166.318 158.093 166.308 158.066 166.292C157.464 165.914 156.802 164.754 156.464 164.123C155.619 162.557 154.948 160.918 154.451 159.207C154.199 158.413 153.562 155.668 154.718 155.287C155.668 154.973 156.808 158.449 157.06 159.283Z" fill="white"/>
<path d="M147.691 156.549C148.424 159.005 149.5 162.208 151.071 164.149C151.624 165.018 152.507 165.768 153.548 165.206C153.583 165.25 153.608 165.299 153.625 165.354C154.225 167.225 154.858 169.085 155.524 170.934C155.603 171.151 155.612 171.477 155.786 171.713C155.764 173.52 155.66 175.301 155.475 177.054C155.502 176.262 155.122 175.964 154.334 176.161C154.01 176.242 153.68 176.273 153.345 176.254C153.294 176.251 153.248 176.265 153.207 176.295C152.663 176.696 151.602 176.433 150.93 176.476C150.186 176.521 148.749 176.635 148.102 176.253C148.048 176.22 148.023 176.235 148.027 176.298C148.032 176.366 148.006 176.4 147.948 176.401L148.206 174.053C148.227 173.582 148.291 173.083 148.29 172.633C148.267 167.442 147.756 161.661 147.197 156.693C147.191 156.643 147.214 156.614 147.265 156.607L147.691 156.549Z" fill="#E7E7E7"/>
<path d="M141.107 172.535C141.876 174.512 142.639 177.253 142.637 179.483C142.532 179.312 142.476 179.195 142.469 179.131C141.971 174.788 139.858 170.411 137.207 167.009C133.2 161.862 127.28 158.39 120.678 158.88C117.5 159.117 114.541 160.524 112.271 162.787C110.237 164.817 108.699 167.207 107.659 169.956C107.563 169.62 107.553 169.319 107.628 169.052C107.874 168.191 108.183 167.354 108.555 166.541C111.513 161.172 115.825 157.469 122.221 157.597C131.106 157.773 137.958 164.672 141.107 172.535Z" fill="#A7A7A7"/>
<path d="M154.451 159.207C154.948 160.918 155.619 162.557 156.464 164.123C156.802 164.754 157.464 165.914 158.066 166.292C158.092 166.308 158.122 166.318 158.153 166.32C158.183 166.322 158.214 166.317 158.241 166.304C158.269 166.292 158.294 166.273 158.313 166.249C158.331 166.225 158.344 166.196 158.349 166.166C158.417 165.79 158.435 165.433 158.376 165.039C158.087 163.087 157.649 161.168 157.06 159.283L157.195 159.259C157.257 159.248 157.284 159.273 157.275 159.336C157.243 159.558 157.341 159.699 157.57 159.758C157.625 159.774 157.666 159.806 157.692 159.857C157.836 160.135 158.071 160.245 158.398 160.188C158.45 160.179 158.491 160.153 158.522 160.111L158.795 159.742C158.83 159.694 158.876 159.666 158.933 159.657C159.773 159.523 160.125 159.725 160.813 159.831C161.415 159.924 161.951 160.118 162.559 160.106C163.692 160.082 164.81 160.141 165.944 160.178C166.182 160.185 166.344 160.262 166.428 160.408C166.446 160.44 166.468 160.443 166.493 160.418C166.889 160.027 167.536 160.346 167.977 160.484C168.177 160.547 168.322 160.476 168.41 160.27C168.801 161.873 169.102 163.493 169.313 165.13C169.607 167.774 169.656 170.099 169.459 172.106C169.148 175.287 168.064 179.618 165.332 181.611C161.766 184.211 158.024 175.65 157.58 175.768L155.786 171.713C155.612 171.477 155.603 171.151 155.525 170.934C154.858 169.085 154.225 167.225 153.625 165.354C153.608 165.299 153.583 165.25 153.548 165.206C153.557 165.194 153.566 165.182 153.573 165.17C153.588 165.145 153.591 165.117 153.583 165.088C152.997 163.08 152.471 161.056 152.006 159.017C152.036 158.98 152.08 158.956 152.138 158.946C152.149 158.944 152.159 158.944 152.169 158.948C152.179 158.952 152.188 158.958 152.194 158.966C152.201 158.974 152.206 158.984 152.207 158.995C152.209 159.005 152.208 159.016 152.205 159.026L152.153 159.16C152.144 159.184 152.151 159.202 152.174 159.215L152.218 159.237C152.278 159.27 152.319 159.254 152.34 159.189L152.381 159.066C152.398 159.012 152.434 158.984 152.489 158.982L153.551 158.95C153.599 158.948 153.641 158.933 153.679 158.905C153.738 158.861 153.807 158.849 153.889 158.867C153.946 158.879 153.972 158.915 153.968 158.975C153.959 159.112 154.031 159.19 154.182 159.209C154.207 159.213 154.224 159.202 154.232 159.177C154.24 159.149 154.232 159.12 154.209 159.089C154.167 159.032 154.173 159.026 154.226 159.072C154.267 159.106 154.295 159.153 154.311 159.212C154.318 159.237 154.332 159.243 154.355 159.231C154.385 159.215 154.417 159.207 154.451 159.207ZM158.572 168.194C158.61 169.169 158.92 171.149 160.419 170.642C160.47 170.625 160.5 170.589 160.509 170.536C160.592 170.016 159.38 167.682 158.796 167.87C158.729 167.892 158.671 167.935 158.631 167.993C158.59 168.052 158.57 168.122 158.572 168.194Z" fill="#F8F8F8"/>
<path d="M87.2282 162.207C86.8008 164.284 85.4885 165.641 83.7668 166.725C83.7668 166.711 83.7638 166.695 83.7577 166.678C83.7477 166.648 83.7311 166.644 83.7081 166.666C83.6228 166.751 83.534 166.727 83.4417 166.593C83.4136 166.551 83.377 166.52 83.3318 166.499C82.9887 166.334 82.63 166.276 82.2558 166.327C82.2046 166.334 82.1559 166.328 82.1098 166.307C81.8268 166.186 81.6252 166.121 81.5048 166.111C80.1744 166.014 78.6724 165.59 77.0259 165.618C76.8072 165.621 76.3582 165.489 75.679 165.221C75.6118 165.195 75.6093 165.164 75.6715 165.127C75.7296 165.094 75.7382 165.039 75.697 164.962C76.3066 164.628 77.4022 164.003 77.6069 163.413C77.6219 163.368 77.6214 163.324 77.6054 163.28C77.2562 162.313 73.3252 164.397 72.5546 164.902C72.5742 164.717 72.5862 164.211 72.4448 164.149C72.3986 164.129 72.361 164.139 72.3319 164.18C72.2777 164.252 72.21 164.266 72.1287 164.219C74.1213 162.792 76.3061 161.679 78.6829 160.879C79.9983 160.437 81.5289 160.044 82.8307 160.19C84.4154 160.367 86.0333 161.26 87.2282 162.207Z" fill="#F8F8F8"/>
<path d="M87.2283 162.207L88.1253 162.82L88.1313 162.928C87.4059 165.873 84.5705 167.349 81.8796 167.946L81.41 168.022C81.3988 168.024 81.3883 168.029 81.3801 168.037C81.3718 168.045 81.3661 168.055 81.3638 168.066C81.3615 168.078 81.3627 168.089 81.3672 168.1C81.3717 168.11 81.3793 168.119 81.389 168.125C83.4648 169.445 85.5056 170.822 87.5112 172.256C86.1116 171.747 84.7381 171.169 83.3906 170.522C82.2257 169.935 81.0388 169.398 79.8298 168.911C79.7786 168.889 79.742 168.853 79.7199 168.803L79.6913 168.737C81.0488 168.049 82.453 167.506 83.7668 166.725C85.4885 165.641 86.8009 164.284 87.2283 162.207Z" fill="#A7A7A7"/>
<path d="M90.7966 174.021C90.4635 173.912 90.1751 173.735 89.9313 173.49C90.16 173.473 92.2354 170.355 92.4958 169.953C92.4852 167.363 90.5965 164.772 88.6159 163.268C88.5397 163.21 88.4619 163.109 88.3826 162.966L88.4112 162.924C88.4273 162.9 88.4488 162.885 88.4759 162.876C89.8284 162.44 91.065 162.559 92.1857 163.232C94.1121 164.389 94.8134 166.054 94.4763 168.291C94.1211 170.656 93.0039 172.548 91.1247 173.965C91.0836 173.996 91.0374 174.012 90.9863 174.014L90.7966 174.021Z" fill="#A7A7A7"/>
<path d="M88.3827 162.966C88.4619 163.109 88.5397 163.209 88.6159 163.268C90.5965 164.772 92.4853 167.363 92.4958 169.952L82.3266 168.23C82.2765 168.221 82.2403 168.194 82.2183 168.148C82.1581 168.018 82.0452 167.951 81.8796 167.946C84.5705 167.349 87.4059 165.873 88.1313 162.928C88.2226 162.885 88.3064 162.898 88.3827 162.966Z" fill="#F8F8F8"/>
<path d="M75.697 164.962C74.9009 165.416 72.2852 166.727 71.5914 166.421C71.5423 166.4 71.5182 166.363 71.5192 166.309C71.5282 165.697 72.079 165.249 72.5546 164.903C73.3252 164.397 77.2562 162.313 77.6053 163.28C77.6214 163.324 77.6219 163.368 77.6069 163.413C77.4022 164.003 76.3065 164.628 75.697 164.962Z" fill="white"/>
<path d="M72.5547 164.902C72.0791 165.249 71.5283 165.697 71.5193 166.309C71.5183 166.363 71.5424 166.4 71.5915 166.421C72.2853 166.727 74.901 165.416 75.6971 164.962C75.7382 165.039 75.7297 165.094 75.6715 165.127C75.6093 165.164 75.6118 165.195 75.679 165.221C76.3583 165.489 76.8073 165.621 77.026 165.618C78.6725 165.591 80.1744 166.014 81.5048 166.111C81.6252 166.121 81.8269 166.186 82.1098 166.307C82.156 166.328 82.2047 166.334 82.2558 166.327C82.6301 166.277 82.9888 166.334 83.3319 166.499C83.377 166.52 83.4137 166.551 83.4418 166.593C83.5341 166.727 83.6229 166.751 83.7081 166.666C83.7312 166.644 83.7478 166.648 83.7578 166.678C83.7638 166.695 83.7668 166.711 83.7668 166.725C82.453 167.506 81.0488 168.049 79.6913 168.737C77.4429 169.512 75.3826 170.332 72.8873 170.592L72.4734 170.642C70.997 170.546 68.8856 169.96 68.0232 168.657C67.9951 168.614 67.9926 168.571 68.0157 168.526L68.3724 167.82C68.5429 167.651 68.7019 167.472 68.8494 167.282C69.7815 166.087 70.8746 165.066 72.1288 164.219C72.2101 164.266 72.2778 164.252 72.332 164.18C72.3611 164.139 72.3987 164.129 72.4448 164.149C72.5863 164.211 72.5743 164.717 72.5547 164.902Z" fill="#F8F8F8"/>
<path d="M173.27 164.669C175.158 169.747 176.666 174.937 177.792 180.241C178.165 181.995 178.387 183.767 178.456 185.558C176.063 182.582 172.24 179.395 168.314 181.932C166.044 183.397 165.143 185.619 164.732 188.225C164.615 188.14 164.533 188.066 164.488 188.002C161.767 184.166 159.465 180.088 157.58 175.768C158.024 175.65 161.766 184.211 165.332 181.611C168.064 179.618 169.148 175.287 169.459 172.106C169.656 170.1 169.607 167.774 169.313 165.131L169.321 164.764C169.322 164.725 169.34 164.712 169.376 164.725C169.449 164.751 169.505 164.729 169.545 164.658C169.573 164.609 169.612 164.596 169.662 164.622C170.108 164.843 170.627 164.661 170.976 164.716C171.747 164.837 172.394 164.859 173.097 165.027C173.159 165.042 173.197 165.018 173.211 164.954L173.27 164.669Z" fill="#E7E7E7"/>
<path d="M160.419 170.642C158.92 171.149 158.61 169.169 158.572 168.194C158.57 168.122 158.59 168.052 158.631 167.993C158.671 167.935 158.729 167.892 158.796 167.87C159.38 167.682 160.592 170.016 160.509 170.536C160.5 170.589 160.47 170.625 160.419 170.642Z" fill="white"/>
<path d="M81.8796 167.946C82.0451 167.951 82.158 168.019 82.2182 168.148C82.2403 168.194 82.2764 168.221 82.3265 168.23L92.4957 169.953C92.2354 170.355 90.16 173.473 89.9312 173.49L87.5112 172.257C85.5056 170.822 83.4648 169.445 81.3889 168.125C81.3793 168.119 81.3717 168.11 81.3672 168.1C81.3627 168.089 81.3615 168.078 81.3638 168.066C81.3661 168.055 81.3718 168.045 81.38 168.037C81.3883 168.029 81.3988 168.024 81.41 168.022L81.8796 167.946Z" fill="#F8F8F8"/>
<path d="M141.107 172.535C141.177 172.538 141.239 172.56 141.292 172.601C141.34 172.64 141.35 172.686 141.321 172.74C141.311 172.756 141.302 172.77 141.293 172.781C141.24 172.846 141.25 172.858 141.322 172.817C141.339 172.808 141.354 172.797 141.366 172.785C141.445 172.705 141.509 172.716 141.558 172.819C141.602 172.912 141.636 173.009 141.659 173.109C141.672 173.165 141.703 173.209 141.752 173.238L141.838 173.29C141.885 173.318 141.929 173.313 141.968 173.274L142.264 172.975C142.302 172.936 142.349 172.915 142.404 172.914L144.35 172.873C144.403 172.872 144.451 172.889 144.493 172.923C144.949 173.296 146.135 173.233 146.683 173.15C147.173 173.074 147.429 173.226 147.813 173.476C147.854 173.503 147.884 173.539 147.903 173.586L148.102 174.094C148.125 174.154 148.137 174.152 148.137 174.087V174.016C148.137 173.964 148.149 173.964 148.173 174.017C148.181 174.034 148.192 174.046 148.206 174.053L147.948 176.402C147.077 181.049 145.377 185.361 142.851 189.337C142.834 189.364 142.838 189.386 142.863 189.406L142.907 189.437C142.594 189.693 141.95 190.264 141.552 190.261L141.659 189.735C142.367 186.74 142.719 183.702 142.713 180.622L142.637 179.483C142.639 177.254 141.876 174.512 141.107 172.535Z" fill="#F8F8F8"/>
<path d="M155.475 177.055C155.253 179.198 154.824 181.299 154.188 183.356C154.101 183.438 154.037 183.486 153.997 183.499C152.729 183.91 151.501 184.419 150.313 185.027C147.731 186.303 145.262 187.773 142.907 189.437L142.863 189.405C142.838 189.386 142.834 189.363 142.851 189.337C145.377 185.361 147.076 181.049 147.948 176.401C148.005 176.4 148.032 176.366 148.027 176.298C148.023 176.235 148.048 176.22 148.102 176.253C148.749 176.635 150.186 176.521 150.93 176.476C151.602 176.433 152.663 176.696 153.207 176.295C153.248 176.265 153.294 176.251 153.345 176.254C153.68 176.273 154.01 176.242 154.334 176.161C155.122 175.964 155.502 176.262 155.475 177.055Z" fill="#E7E7E7"/>
<path d="M178.456 185.558L178.468 186.242L178.268 187.153C176.099 184.79 171.954 182.707 168.91 184.565C167.7 185.303 167.469 186.629 167.242 188.04L166.341 187.647C166.288 187.624 166.237 187.628 166.189 187.659C166.037 187.752 165.939 187.885 165.895 188.058C165.767 188.199 165.272 189.057 165.218 189.057L164.732 188.225C165.143 185.619 166.044 183.397 168.314 181.931C172.24 179.395 176.063 182.581 178.456 185.558Z" fill="#A7A7A7"/>
<path d="M154.188 183.356L154.856 183.368C154.91 183.369 154.949 183.393 154.975 183.441C155.099 183.673 155.176 183.872 155.207 184.039C155.443 185.273 155.663 186.684 155.807 188.046C156.171 191.427 156.475 194.836 156.721 198.272L157.048 206.48C157.024 206.496 156.998 206.502 156.971 206.498C156.927 206.492 156.904 206.511 156.903 206.556C156.903 206.57 156.903 206.585 156.903 206.6C156.903 206.635 156.897 206.637 156.884 206.604C156.878 206.59 156.873 206.578 156.868 206.568C156.851 206.526 156.821 206.508 156.777 206.513C156.194 206.573 155.609 206.586 155.022 206.553C154.68 206.533 154.309 206.697 153.965 206.648C153.695 206.611 153.421 206.523 153.141 206.384C153.124 206.376 153.106 206.372 153.088 206.373C153.07 206.375 153.053 206.38 153.037 206.391C153.022 206.401 153.009 206.415 153.001 206.431C152.992 206.447 152.988 206.466 152.989 206.484C152.992 206.586 152.97 206.679 152.922 206.765C152.896 206.812 152.884 206.862 152.886 206.914C153.002 209.768 152.884 212.61 152.533 215.441C151.902 219.432 149.813 223.823 145.09 220.041C145.052 220.011 145.009 219.997 144.96 219.999L144.788 220.003C140.861 215.163 137.535 209.934 134.811 204.315C134.513 203.604 134.277 202.872 134.103 202.119C134.157 202.052 134.194 201.977 134.214 201.893C134.227 201.836 134.205 201.809 134.148 201.811C134.06 201.813 134.039 201.771 134.083 201.686C134.096 201.662 134.118 201.644 134.144 201.635C134.17 201.626 134.198 201.627 134.223 201.638C134.571 201.793 134.907 201.763 135.23 201.55C135.274 201.521 135.322 201.507 135.374 201.506C135.857 201.504 136.289 201.457 136.754 201.63C137.072 201.749 137.39 201.87 137.709 201.995C137.761 202.016 137.803 202.05 137.835 202.098L138.053 202.417C138.092 202.475 138.14 202.484 138.198 202.446L138.446 202.279C138.482 202.254 138.521 202.247 138.563 202.256C138.792 202.309 139.015 202.299 139.232 202.226C139.282 202.209 139.317 202.226 139.338 202.274L139.418 202.455C139.436 202.495 139.445 202.494 139.445 202.45V202.385C139.445 202.341 139.456 202.337 139.478 202.376L139.508 202.428C139.529 202.461 139.544 202.459 139.555 202.422C139.563 202.398 139.575 202.384 139.59 202.379C139.879 203.923 140.515 205.295 141.498 206.493C141.519 206.519 141.546 206.539 141.576 206.553C141.606 206.566 141.639 206.572 141.671 206.571C141.704 206.569 141.736 206.56 141.765 206.543C141.793 206.527 141.817 206.504 141.835 206.477C142.5 205.474 142.275 203.523 141.897 202.455C142.172 202.475 142.351 202.56 142.637 202.484C143.287 202.312 143.925 202.329 144.552 202.535C145.399 202.815 146.186 202.624 147.059 202.845C147.983 203.082 148.904 202.905 149.845 203.119C150.468 203.261 151.902 203.562 152.463 203.205C152.507 203.179 152.536 203.19 152.552 203.237L152.599 203.377C152.635 203.484 152.65 203.481 152.644 203.368C152.63 203.093 152.703 202.874 152.68 202.61C152.2 197.124 151.361 191.592 150.165 186.015C150.101 185.715 150.156 185.449 150.331 185.22C150.362 185.179 150.368 185.134 150.35 185.086C150.342 185.063 150.33 185.043 150.313 185.027C151.501 184.419 152.729 183.91 153.997 183.499C154.037 183.486 154.101 183.438 154.188 183.356ZM142.637 208.627C142.664 208.65 142.696 208.667 142.731 208.676C142.765 208.684 142.801 208.685 142.835 208.678C142.87 208.671 142.903 208.657 142.931 208.635C142.959 208.614 142.982 208.586 142.999 208.554C143.333 207.904 143.107 206.568 142.047 207.065C142.014 207.081 141.985 207.107 141.966 207.139C141.947 207.172 141.938 207.209 141.941 207.247C141.979 207.809 142.211 208.269 142.637 208.627Z" fill="#E7E7E7"/>
<path d="M152.922 206.765C152.97 206.679 152.992 206.585 152.989 206.484L152.644 203.368C152.65 203.481 152.635 203.484 152.599 203.377L152.552 203.237C152.536 203.189 152.507 203.179 152.463 203.205C151.902 203.562 150.468 203.261 149.845 203.118C148.904 202.904 147.983 203.082 147.059 202.845C146.186 202.623 145.399 202.815 144.552 202.535C143.925 202.329 143.287 202.311 142.637 202.484C142.351 202.56 142.172 202.474 141.897 202.455C142.275 203.522 142.5 205.474 141.835 206.477C141.817 206.504 141.793 206.527 141.765 206.543C141.736 206.56 141.704 206.569 141.671 206.571C141.639 206.572 141.606 206.566 141.576 206.553C141.546 206.539 141.519 206.519 141.498 206.493C140.515 205.294 139.879 203.923 139.59 202.379C139.575 202.384 139.563 202.398 139.555 202.421C139.544 202.459 139.529 202.461 139.508 202.427L139.478 202.376C139.456 202.337 139.445 202.34 139.445 202.385V202.45C139.445 202.494 139.436 202.495 139.418 202.455L139.338 202.274C139.317 202.225 139.282 202.209 139.232 202.225C139.015 202.298 138.792 202.308 138.563 202.256C138.521 202.247 138.482 202.254 138.446 202.279L138.198 202.446C138.14 202.484 138.092 202.474 138.053 202.417L137.835 202.098C137.803 202.05 137.761 202.016 137.709 201.995C137.39 201.87 137.072 201.748 136.754 201.63C136.289 201.457 135.857 201.504 135.374 201.505C135.322 201.507 135.274 201.521 135.23 201.55C134.907 201.763 134.571 201.793 134.223 201.638C134.198 201.627 134.17 201.626 134.144 201.635C134.118 201.644 134.096 201.662 134.083 201.686C134.039 201.771 134.06 201.813 134.148 201.811C134.205 201.809 134.227 201.836 134.214 201.893C134.194 201.977 134.157 202.052 134.103 202.119C134.277 202.871 134.513 203.603 134.811 204.315C137.535 209.934 140.861 215.163 144.788 220.003L144.96 219.998C145.009 219.996 145.052 220.011 145.09 220.041C149.813 223.823 151.902 219.432 152.533 215.441C152.884 212.609 153.002 209.767 152.886 206.914C152.884 206.861 152.896 206.812 152.922 206.765Z" fill="#F8F8F8"/>
<path d="M178.268 187.153C180.756 191.143 181.82 196.711 181.955 201.43C181.604 201.191 181.311 201.231 181.076 201.551C181.048 201.591 181.01 201.608 180.963 201.603C180.728 201.577 180.694 202.162 180.16 202.156C179.617 202.15 179.093 202.226 178.587 202.383C178.129 202.524 177.79 202.605 177.568 202.626C177.158 202.665 176.745 202.68 176.331 202.672C176.09 202.667 175.973 202.749 175.964 202.997C175.961 203.062 175.933 203.124 175.886 203.169C175.839 203.215 175.776 203.239 175.711 203.238C175.295 203.232 174.483 203.137 174.584 203.799C174.586 203.808 174.582 203.814 174.573 203.817C174.556 203.822 174.539 203.824 174.522 203.822C174.49 203.82 174.474 203.802 174.474 203.77V203.703C174.474 203.672 174.462 203.667 174.439 203.688C174.345 203.779 174.229 203.809 174.093 203.778C173.993 203.754 173.91 203.703 173.845 203.623L173.608 203.334C173.555 202.71 173.442 202.099 173.27 201.499C173.125 200.138 172.874 198.801 172.517 197.49C172.213 195.751 171.638 194.025 170.793 192.311C169.926 190.552 168.742 189.128 167.242 188.04C167.47 186.629 167.7 185.303 168.91 184.565C171.954 182.707 176.099 184.789 178.268 187.153Z" fill="#F8F8F8"/>
<path d="M150.313 185.027C150.33 185.043 150.342 185.063 150.35 185.086C150.368 185.135 150.362 185.179 150.331 185.22C150.156 185.45 150.101 185.715 150.165 186.016C151.361 191.593 152.199 197.124 152.68 202.61C152.703 202.874 152.63 203.093 152.644 203.368C152.65 203.481 152.635 203.484 152.599 203.377L152.552 203.237C152.536 203.19 152.506 203.179 152.463 203.205C151.902 203.562 150.468 203.262 149.845 203.119C148.904 202.905 147.983 203.082 147.059 202.845C146.186 202.624 145.399 202.815 144.552 202.536C143.925 202.329 143.286 202.312 142.637 202.484C142.351 202.56 142.172 202.475 141.897 202.455C141.682 201.817 141.001 200.769 140.198 200.961C139.535 201.117 139.489 201.798 139.59 202.379C139.575 202.384 139.563 202.398 139.555 202.422C139.544 202.459 139.528 202.461 139.508 202.428L139.478 202.376C139.456 202.338 139.445 202.341 139.445 202.385V202.451C139.445 202.494 139.436 202.496 139.418 202.455L139.338 202.274C139.317 202.226 139.282 202.21 139.231 202.226C139.015 202.299 138.792 202.309 138.563 202.256C138.521 202.247 138.482 202.255 138.446 202.279L138.198 202.446C138.14 202.485 138.092 202.475 138.053 202.417L137.835 202.098C137.803 202.051 137.761 202.016 137.708 201.995C137.39 201.87 137.072 201.749 136.754 201.63C136.289 201.457 135.857 201.504 135.374 201.506C135.322 201.507 135.274 201.522 135.23 201.55C134.907 201.764 134.571 201.793 134.223 201.638C134.198 201.627 134.169 201.626 134.144 201.635C134.118 201.644 134.096 201.662 134.083 201.687C134.039 201.772 134.06 201.813 134.148 201.811C134.205 201.809 134.227 201.837 134.214 201.893C134.194 201.977 134.157 202.053 134.102 202.12L133.99 201.88L134.172 200.253C134.5 199.214 134.918 198.214 135.425 197.253C137.009 194.623 138.997 192.662 141.305 190.689C141.435 190.578 141.493 190.413 141.552 190.261C141.949 190.264 142.594 189.693 142.907 189.437C145.262 187.773 147.731 186.303 150.313 185.027Z" fill="#F8F8F8"/>
<path fill-rule="evenodd" clip-rule="evenodd" d="M142.637 179.483L142.713 180.622C142.719 183.702 142.367 186.74 141.659 189.735L141.552 190.26L141.543 190.285C141.487 190.43 141.428 190.584 141.305 190.689C138.997 192.662 137.009 194.622 135.425 197.253C134.918 198.214 134.5 199.214 134.172 200.253C134.131 200.43 134.044 200.57 133.868 200.652C131.977 201.54 129.986 202.025 127.893 202.107C127.843 202.109 127.799 202.126 127.761 202.157L127.675 202.227C127.505 202.224 127.335 202.224 127.166 202.225C126.775 202.226 126.388 202.226 126.013 202.183C122.163 201.741 118.713 200.312 115.66 197.898C112.985 195.773 110.978 193.128 109.641 189.963C109.295 189.212 109.004 188.439 108.766 187.642C108.212 185.886 107.818 184.091 107.583 182.255C107.325 180.525 107.207 178.421 107.23 175.943C107.251 173.542 107.394 171.546 107.658 169.955C108.699 167.206 110.236 164.817 112.271 162.787C114.541 160.524 117.5 159.117 120.678 158.88C127.28 158.39 133.2 161.862 137.207 167.009C139.858 170.411 141.971 174.788 142.469 179.131C142.476 179.194 142.532 179.312 142.637 179.483Z" fill="url(#paint6_radial_129_80)"/>
<g style="mix-blend-mode:screen">
<path d="M128.705 199.611C116.045 199.611 110.66 189.189 109.549 183.978C115.879 191.375 137.7 171.034 139.032 172.211C140.365 173.388 144.529 199.611 128.705 199.611Z" fill="url(#paint7_linear_129_80)" fill-opacity="0.4"/>
</g>
<path d="M108.766 187.642C109.004 188.439 109.295 189.213 109.641 189.963C110.978 193.128 112.985 195.774 115.66 197.899C118.713 200.313 122.164 201.741 126.013 202.183C126.551 202.246 127.113 202.217 127.675 202.227C127.673 202.238 127.67 202.245 127.667 202.25L127.423 202.425C124.019 203.537 120.582 203.07 117.367 201.665C112.405 199.498 109.022 193.924 107.965 188.78C107.923 188.131 108.19 187.752 108.766 187.642Z" fill="#A7A7A7"/>
<path d="M167.242 188.04C168.742 189.129 169.926 190.552 170.793 192.311C171.638 194.025 172.213 195.752 172.517 197.49C172.309 196.923 172.095 196.364 171.876 195.812C171.843 195.728 171.783 195.677 171.696 195.659C171.55 194.094 170.317 192.112 169.33 190.716C168.409 189.416 167.264 188.53 165.895 188.059C165.94 187.885 166.037 187.752 166.189 187.659C166.237 187.629 166.288 187.625 166.341 187.647L167.242 188.04Z" fill="#A7A7A7"/>
<path d="M165.895 188.058C167.264 188.53 168.409 189.416 169.33 190.716C170.317 192.112 171.55 194.094 171.695 195.658C171.474 198.783 170.822 201.812 169.739 204.747C169.628 205.047 169.479 205.152 169.248 205.353C169.207 205.388 169.194 205.432 169.208 205.485L169.363 206.062L169.351 206.138C168.152 206.507 166.958 206.436 165.77 205.927C164.863 205.538 164.917 205.032 164.755 203.995C164.294 201.058 164.102 198.102 164.178 195.128C164.282 193.131 164.547 191.05 165.251 189.171C165.261 189.145 165.259 189.12 165.244 189.097L165.218 189.057C165.272 189.057 165.767 188.199 165.895 188.058ZM168.43 199.059C168.453 199.078 168.48 199.092 168.509 199.1C168.538 199.108 168.568 199.11 168.598 199.105C168.628 199.101 168.656 199.09 168.682 199.074C168.707 199.058 168.729 199.037 168.746 199.012C169.3 198.186 170.487 194.073 169.552 193.426C168.368 192.605 167.783 198.529 168.43 199.059Z" fill="#F8F8F8"/>
<path d="M107.965 188.78C109.022 193.924 112.405 199.498 117.367 201.665C120.582 203.07 124.019 203.537 127.423 202.425C127.209 203.368 126.929 204.29 126.584 205.189C124.989 209.105 123.024 212.82 120.687 216.334C119.465 218.172 117.679 220.629 115.823 221.691C116.683 220.651 117.338 219.546 117.788 218.377C118.836 215.658 119.219 212.804 118.937 209.814C118.776 205.942 117.054 203.152 114.338 200.415C112.579 198.643 110.502 196.789 108.108 194.853C108.054 194.81 107.942 194.787 107.771 194.785C107.752 194.513 107.693 194.214 107.684 193.962C107.617 192.222 107.711 190.495 107.965 188.78Z" fill="#E7E7E7"/>
<path d="M168.43 199.059C167.783 198.529 168.368 192.605 169.552 193.425C170.487 194.072 169.3 198.185 168.746 199.012C168.729 199.037 168.707 199.058 168.682 199.074C168.656 199.09 168.628 199.101 168.598 199.105C168.568 199.11 168.538 199.108 168.509 199.1C168.48 199.092 168.453 199.078 168.43 199.059Z" fill="white"/>
<path d="M107.771 194.785C107.942 194.787 108.054 194.81 108.108 194.853C110.502 196.789 112.579 198.643 114.338 200.415C117.054 203.152 118.776 205.942 118.937 209.814C118.453 209.924 117.979 209.93 117.513 209.83C116.965 209.713 116.508 209.811 115.978 209.481C115.942 209.459 115.902 209.448 115.859 209.448L113.599 209.464C113.544 209.465 113.495 209.449 113.451 209.416C113.087 209.136 112.518 209.437 111.984 209.116C111.942 209.091 111.896 209.078 111.847 209.075C110.938 209.037 110.317 209.069 109.984 209.171C109.619 209.283 109.339 209.244 109.141 209.054C109.104 209.019 109.068 209.019 109.032 209.056L108.975 209.113C108.953 209.136 108.934 209.133 108.918 209.106L108.893 209.063C108.874 209.032 108.864 209.034 108.861 209.071C108.855 209.141 108.83 209.201 108.787 209.252L108.211 204.202C107.976 201.287 107.816 198.367 107.732 195.444C107.726 195.235 107.776 195.011 107.771 194.785ZM112.967 204.8C111.827 204.615 112.1 207.292 112.292 207.942C112.296 207.954 112.301 207.964 112.309 207.973C112.317 207.981 112.326 207.988 112.337 207.993C112.347 207.997 112.359 208 112.37 207.999C112.382 207.999 112.393 207.996 112.404 207.991C113.203 207.582 113.997 204.967 112.967 204.8Z" fill="#F8F8F8"/>
<path d="M171.696 195.658C171.783 195.676 171.843 195.728 171.876 195.812C172.095 196.363 172.309 196.923 172.517 197.49C172.875 198.801 173.125 200.138 173.27 201.5C172.919 202.236 170.349 206.598 169.363 206.062L169.208 205.485C169.194 205.432 169.207 205.388 169.249 205.353C169.479 205.152 169.628 205.047 169.739 204.747C170.822 201.812 171.474 198.783 171.696 195.658Z" fill="#A7A7A7"/>
<path d="M134.172 200.253L133.99 201.879C131.894 202.176 129.786 202.299 127.667 202.25C127.67 202.245 127.673 202.237 127.675 202.227L127.761 202.157C127.799 202.126 127.843 202.109 127.893 202.107C129.986 202.025 131.978 201.54 133.868 200.652C134.044 200.57 134.131 200.43 134.172 200.253Z" fill="#E7E7E7"/>
<path d="M141.897 202.455C142.275 203.523 142.5 205.474 141.835 206.477C141.817 206.504 141.793 206.527 141.765 206.544C141.736 206.56 141.704 206.569 141.671 206.571C141.639 206.572 141.606 206.566 141.576 206.553C141.546 206.539 141.519 206.519 141.498 206.493C140.515 205.295 139.879 203.923 139.59 202.379C139.489 201.797 139.536 201.117 140.198 200.96C141.001 200.769 141.682 201.817 141.897 202.455Z" fill="white"/>
<path d="M181.955 201.43C182.09 204.234 181.921 207.019 181.446 209.785C181.418 209.953 181.35 210.102 181.243 210.234C179.421 212.462 176.858 214.352 173.872 214.219C173.994 210.585 173.906 206.957 173.608 203.334L173.845 203.623C173.91 203.703 173.993 203.754 174.093 203.778C174.229 203.809 174.345 203.779 174.439 203.688C174.462 203.667 174.474 203.672 174.474 203.703V203.77C174.474 203.802 174.49 203.82 174.522 203.822C174.539 203.824 174.556 203.822 174.573 203.817C174.582 203.814 174.586 203.808 174.584 203.799C174.483 203.137 175.295 203.232 175.711 203.239C175.776 203.239 175.838 203.215 175.886 203.17C175.933 203.124 175.961 203.063 175.964 202.997C175.973 202.749 176.09 202.667 176.331 202.672C176.745 202.68 177.158 202.665 177.568 202.626C177.79 202.605 178.129 202.524 178.587 202.383C179.092 202.226 179.617 202.151 180.159 202.156C180.694 202.162 180.728 201.577 180.963 201.603C181.01 201.608 181.048 201.591 181.076 201.551C181.311 201.231 181.604 201.191 181.955 201.43Z" fill="#F8F8F8"/>
<path d="M173.27 201.5C173.442 202.099 173.555 202.711 173.608 203.335C173.906 206.958 173.994 210.586 173.872 214.22C173.613 214.472 172.966 213.966 172.743 213.802C171.795 212.585 171.093 211.309 170.636 209.973C170.48 209.515 170.319 209.16 170.153 208.91L169.351 206.138L169.363 206.063C170.349 206.599 172.919 202.237 173.27 201.5Z" fill="#A7A7A7"/>
<path d="M112.967 204.8C113.998 204.967 113.203 207.583 112.404 207.991C112.393 207.996 112.382 207.999 112.371 207.999C112.359 208 112.348 207.997 112.337 207.993C112.326 207.988 112.317 207.981 112.309 207.973C112.302 207.964 112.296 207.954 112.292 207.942C112.1 207.292 111.827 204.615 112.967 204.8Z" fill="white"/>
<path d="M157.047 206.48C157.127 209.528 157.112 212.58 157.002 215.635C156.443 215.624 155.884 215.581 155.324 215.506C154.54 215.4 153.8 215.532 152.978 215.283C152.926 215.266 152.885 215.281 152.855 215.327L152.785 215.428C152.759 215.467 152.724 215.49 152.678 215.497C152.609 215.507 152.561 215.488 152.532 215.441C152.884 212.609 153.002 209.767 152.886 206.914C152.884 206.861 152.896 206.812 152.922 206.765C152.969 206.679 152.991 206.585 152.988 206.484C152.988 206.466 152.992 206.447 153.001 206.431C153.009 206.414 153.022 206.4 153.037 206.39C153.052 206.38 153.07 206.374 153.088 206.373C153.106 206.372 153.124 206.376 153.14 206.384C153.42 206.523 153.695 206.611 153.965 206.648C154.308 206.697 154.68 206.533 155.022 206.552C155.609 206.586 156.194 206.573 156.777 206.513C156.821 206.508 156.851 206.526 156.868 206.568C156.872 206.578 156.877 206.59 156.883 206.604C156.896 206.637 156.903 206.635 156.903 206.6C156.903 206.584 156.903 206.57 156.903 206.556C156.904 206.511 156.927 206.492 156.971 206.498C156.998 206.502 157.023 206.496 157.047 206.48Z" fill="#E7E7E7"/>
<path d="M142.637 208.627C142.211 208.269 141.978 207.809 141.94 207.247C141.938 207.209 141.947 207.171 141.966 207.139C141.985 207.107 142.013 207.081 142.047 207.064C143.107 206.568 143.332 207.904 142.998 208.554C142.982 208.586 142.959 208.613 142.931 208.635C142.902 208.656 142.87 208.671 142.835 208.678C142.8 208.685 142.765 208.684 142.73 208.675C142.696 208.666 142.664 208.65 142.637 208.627Z" fill="white"/>
<path d="M118.937 209.813C119.219 212.803 118.836 215.658 117.789 218.376C117.338 219.546 116.683 220.651 115.823 221.691C114.598 222.713 112.858 223.007 111.901 221.405C111.317 220.429 110.872 219.417 110.565 218.37C109.695 215.409 109.18 212.31 108.787 209.251C108.83 209.201 108.855 209.141 108.861 209.071C108.864 209.034 108.875 209.032 108.893 209.063L108.918 209.106C108.934 209.133 108.953 209.136 108.975 209.113L109.033 209.056C109.068 209.019 109.104 209.019 109.141 209.054C109.339 209.243 109.619 209.282 109.984 209.171C110.317 209.069 110.938 209.037 111.847 209.075C111.896 209.077 111.942 209.091 111.984 209.116C112.518 209.437 113.087 209.136 113.451 209.416C113.495 209.449 113.544 209.465 113.599 209.464L115.859 209.447C115.902 209.447 115.942 209.459 115.978 209.481C116.508 209.81 116.965 209.713 117.513 209.83C117.979 209.929 118.453 209.924 118.937 209.813Z" fill="#F8F8F8"/>
<path d="M157.002 215.635C156.922 217.82 156.708 219.995 156.36 222.158C156.075 223.926 155.431 227.676 152.739 226.894C151.714 226.596 150.818 226.109 150.051 225.431C148.273 223.864 146.519 222.055 144.788 220.003L144.96 219.999C145.009 219.997 145.052 220.011 145.09 220.041C149.813 223.823 151.902 219.432 152.533 215.441C152.561 215.488 152.609 215.507 152.679 215.497C152.724 215.49 152.759 215.467 152.785 215.429L152.855 215.327C152.885 215.281 152.926 215.267 152.978 215.283C153.8 215.532 154.54 215.4 155.324 215.506C155.884 215.581 156.444 215.624 157.002 215.635Z" fill="#E7E7E7"/>
<g style="mix-blend-mode:screen">
<path d="M120.543 64.458C105.085 65.6683 84.5632 98.9188 91.2261 104.298C97.889 109.677 115.712 92.1947 123.374 86.143C131.037 80.0914 143.863 97.4059 148.194 92.699C150.53 90.1595 142.364 62.7494 120.543 64.458Z" fill="url(#paint8_linear_129_80)" fill-opacity="0.4"/>
</g>
</g>
</g>
<defs>
<filter id="filter0_d_129_80" x="34.6228" y="24.9316" width="180.755" height="236.754" filterUnits="userSpaceOnUse" color-interpolation-filters="sRGB">
<feFlood flood-opacity="0" result="BackgroundImageFix"/>
<feColorMatrix in="SourceAlpha" type="matrix" values="0 0 0 0 0 0 0 0 0 0 0 0 0 0 0 0 0 0 127 0" result="hardAlpha"/>
<feOffset dy="1.30891"/>
<feGaussianBlur stdDeviation="16.6886"/>
<feComposite in2="hardAlpha" operator="out"/>
<feColorMatrix type="matrix" values="0 0 0 0 0.141176 0 0 0 0 0.466667 0 0 0 0 0.956863 0 0 0 0.5 0"/>
<feBlend mode="normal" in2="BackgroundImageFix" result="effect1_dropShadow_129_80"/>
<feBlend mode="normal" in="SourceGraphic" in2="effect1_dropShadow_129_80" result="shape"/>
</filter>
<radialGradient id="paint0_radial_129_80" cx="0" cy="0" r="1" gradientUnits="userSpaceOnUse" gradientTransform="translate(96.8368 86.2282) rotate(-90) scale(22.7586 8.67722)">
<stop stop-color="#1364DF"/>
<stop offset="0.300347" stop-color="#1364DF"/>
<stop offset="0.690972" stop-color="#64A2FF"/>
<stop offset="1" stop-color="#2477F4"/>
</radialGradient>
<radialGradient id="paint1_radial_129_80" cx="0" cy="0" r="1" gradientUnits="userSpaceOnUse" gradientTransform="translate(168.058 95.9905) rotate(-90) scale(46.1551 31.5337)">
<stop stop-color="#1364DF"/>
<stop offset="0.300347" stop-color="#1364DF"/>
<stop offset="0.690972" stop-color="#64A2FF"/>
<stop offset="1" stop-color="#2477F4"/>
</radialGradient>
<radialGradient id="paint2_radial_129_80" cx="0" cy="0" r="1" gradientUnits="userSpaceOnUse" gradientTransform="translate(132.427 89.389) rotate(-90) scale(6.73971 20.1532)">
<stop stop-color="#1364DF"/>
<stop offset="0.300347" stop-color="#1364DF"/>
<stop offset="0.690972" stop-color="#64A2FF"/>
<stop offset="1" stop-color="#2477F4"/>
</radialGradient>
<linearGradient id="paint3_linear_129_80" x1="119.778" y1="61.1077" x2="119.778" y2="119.487" gradientUnits="userSpaceOnUse">
<stop stop-color="#010622"/>
<stop offset="1" stop-color="#0B4684"/>
</linearGradient>
<radialGradient id="paint4_radial_129_80" cx="0" cy="0" r="1" gradientUnits="userSpaceOnUse" gradientTransform="translate(99.8455 103.542) rotate(-90) scale(22.7439 14.6197)">
<stop stop-color="#1364DF"/>
<stop offset="0.300347" stop-color="#1364DF"/>
<stop offset="0.690972" stop-color="#64A2FF"/>
<stop offset="1" stop-color="#2477F4"/>
</radialGradient>
<radialGradient id="paint5_radial_129_80" cx="0" cy="0" r="1" gradientUnits="userSpaceOnUse" gradientTransform="translate(99.8455 103.542) rotate(-90) scale(22.7439 14.6197)">
<stop stop-color="#1364DF"/>
<stop offset="0.300347" stop-color="#1364DF"/>
<stop offset="0.690972" stop-color="#64A2FF"/>
<stop offset="1" stop-color="#2477F4"/>
</radialGradient>
<radialGradient id="paint6_radial_129_80" cx="0" cy="0" r="1" gradientUnits="userSpaceOnUse" gradientTransform="translate(124.97 202.227) rotate(-90) scale(53.9781 44.142)">
<stop stop-color="#1364DF"/>
<stop offset="0.300347" stop-color="#1364DF"/>
<stop offset="0.690972" stop-color="#64A2FF"/>
<stop offset="1" stop-color="#2477F4"/>
</radialGradient>
<linearGradient id="paint7_linear_129_80" x1="130.704" y1="208.857" x2="119.361" y2="177.151" gradientUnits="userSpaceOnUse">
<stop stop-color="white"/>
<stop offset="1" stop-color="white" stop-opacity="0"/>
</linearGradient>
<linearGradient id="paint8_linear_129_80" x1="119.257" y1="64.3813" x2="119.257" y2="105.312" gradientUnits="userSpaceOnUse">
<stop stop-color="white"/>
<stop offset="1" stop-color="white" stop-opacity="0"/>
</linearGradient>
<clipPath id="clip0_129_80">
<rect width="191" height="239" fill="white"/>
</clipPath>
</defs>
</svg>
