<svg width="486" height="639" viewBox="0 0 486 639" fill="none" xmlns="http://www.w3.org/2000/svg">
<path d="M472.114 445.166C484.704 436.263 486.309 417.962 485.537 409.924L469.8 428.009L472.114 445.166Z" fill="#D9D9D9"/>
<path d="M478.575 422.767C473.817 415.654 406.854 417.396 401.551 410.679L400.153 395.06L458.826 395.155C459.091 395.308 459.35 395.303 459.603 395.138C459.756 395.037 459.918 395.011 460.089 395.06C467.915 397.218 476.093 400.515 482.449 405.678C483.511 406.542 486.485 409.138 485.932 410.679C484.393 414.989 481.941 419.018 478.575 422.767Z" fill="#EDEDED"/>
<path d="M472.427 445.076C467.668 437.963 400.705 439.705 395.402 432.988L394.004 406.24L452.677 406.335C452.942 406.488 453.201 406.482 453.454 406.318C453.607 406.217 453.769 406.191 453.94 406.24C461.766 408.398 469.945 411.695 476.3 416.858C477.363 417.722 480.336 420.317 479.783 421.859C478.244 426.169 475.792 441.327 472.427 445.076Z" fill="#D4D4D4"/>
<path d="M324.526 34.3795C333.485 42.3743 341.736 51.055 349.278 60.4215L355.411 68.5789C361.019 76.6821 366.197 85.0526 370.945 93.6903C373.901 99.2407 376.656 104.886 379.213 110.627C379.15 110.799 379.056 110.912 378.933 110.964C378.732 111.054 378.591 110.996 378.509 110.79C378.188 109.998 377.774 109.256 377.268 108.564C377.212 108.49 377.208 108.413 377.256 108.334L377.374 108.133C377.482 107.953 377.432 107.863 377.223 107.863C376.764 107.86 376.539 107.671 376.546 107.297C376.55 107.103 376.489 106.933 376.362 106.787L375.473 105.767C375.313 105.583 375.112 105.479 374.869 105.453C374.65 105.43 374.502 105.298 374.428 105.055C374.372 104.868 374.253 104.744 374.07 104.685C373.049 104.348 372.199 103.773 371.521 102.958C371.417 102.831 371.283 102.745 371.119 102.7C370.485 102.535 369.848 102.414 369.207 102.335C366.954 102.066 365.35 101.276 362.935 101.573C362.748 101.595 362.57 101.566 362.398 101.483C359.542 100.143 356.132 99.0501 354.455 102.605C353.935 103.703 355.338 104.814 353.885 105.643C353.728 105.733 353.614 105.862 353.544 106.03C353.052 107.185 353.307 108.106 354.309 108.794C354.367 108.834 354.415 108.886 354.45 108.947C354.486 109.007 354.508 109.074 354.515 109.144C354.522 109.213 354.513 109.283 354.49 109.348C354.467 109.414 354.43 109.474 354.382 109.523L353.935 109.977C353.886 110.026 353.892 110.063 353.952 110.089L354.209 110.218C354.376 110.297 354.438 110.427 354.393 110.611C354.348 110.798 354.457 110.923 354.717 110.986C354.956 111.046 355.058 111.197 355.025 111.44C354.969 111.863 354.725 112.106 354.293 112.169L352.521 109.366C337.595 83.8678 315.805 60.2309 289.728 46.153C236.069 17.19 173.053 34.6093 133.23 78.508L132.285 79.433C132.255 78.678 132.551 78.1043 133.174 77.7119C133.427 77.5511 133.425 77.3942 133.168 77.2409L131.676 76.3271C131.515 76.2299 131.428 76.0879 131.413 75.901C131.128 71.954 125.879 70.8327 122.821 71.5167C122.65 71.5541 122.512 71.6457 122.407 71.7914L121.815 72.638C121.628 72.8959 121.42 72.9165 121.189 72.6997C120.771 72.311 120.561 71.8157 120.557 71.214C120.553 71.0196 120.458 70.9019 120.272 70.8608L117.527 70.2272C117.259 70.1674 117.099 70.2721 117.046 70.5412L116.84 71.6232C116.802 71.8213 116.696 71.969 116.521 72.0661C116.025 72.339 115.58 72.2717 115.185 71.8643C115.047 71.7223 115.023 71.5634 115.112 71.3878L115.951 69.7114C116.04 69.5358 116.035 69.362 115.934 69.19C115.504 68.4556 115.453 67.8837 116.035 67.1605C123.861 57.4464 132.434 48.4424 141.754 40.1485C185.988 2.09181 241.452 -14.1165 295.827 14.7176C305.963 20.0886 315.349 26.5528 323.983 34.1104C324.144 34.2486 324.324 34.3383 324.526 34.3795ZM265.126 14.4989C265.004 14.656 264.943 14.852 264.954 15.0502C264.966 15.2483 265.049 15.4351 265.188 15.5754C266.477 16.8873 267.912 17.9768 269.492 18.8439C275.492 22.148 281.783 24.7475 288.364 26.6425C289.601 26.9976 290.876 27.2032 292.187 27.2593C292.381 27.2667 292.54 27.1938 292.663 27.0406C295.346 23.772 272.108 5.53418 265.126 14.4989Z" fill="#EDEDED"/>
<path d="M265.126 14.4989C272.108 5.53418 295.346 23.772 292.663 27.0406C292.54 27.1938 292.381 27.2667 292.188 27.2593C290.876 27.2032 289.601 26.9976 288.364 26.6425C281.783 24.7476 275.492 22.148 269.492 18.8439C267.912 17.9768 266.477 16.8873 265.188 15.5754C265.049 15.4351 264.966 15.2483 264.954 15.0502C264.943 14.852 265.004 14.656 265.126 14.4989Z" fill="white"/>
<path d="M380.912 29.4079C378.076 26.6794 375.087 24.334 371.946 22.3718C371.484 22.084 371.074 22.1456 370.716 22.5568C364.615 29.662 360.406 37.7073 358.088 46.6926C356.106 53.8465 355.213 61.1424 355.411 68.5803L349.278 60.4229C349.804 58.6624 350.251 56.9356 350.62 55.2425C353.639 41.316 358.971 28.679 367.351 17.4549C368.305 16.1766 368.899 15.3039 369.134 14.8367C371.091 13.2052 373.668 17.068 374.691 18.5762C377.02 21.9999 379.094 25.6104 380.912 29.4079Z" fill="#A7A7A7"/>
<path d="M369.134 14.835C368.899 15.3022 368.305 16.1749 367.351 17.4532C358.972 28.6773 353.639 41.3143 350.62 55.2408C350.251 56.9339 349.804 58.6607 349.278 60.4212C341.736 51.0546 333.485 42.3739 324.526 34.3791C335.974 25.4274 348.74 19.1519 362.823 15.5526C364.429 15.1414 366.533 14.9022 369.134 14.835ZM359.995 19.7574C356.45 19.8191 341.329 21.6973 341.575 27.2477C341.587 27.4495 341.667 27.6214 341.816 27.7635C342.882 28.7726 344.255 29.2735 345.936 29.266C351.738 29.238 358.519 26.7207 360.822 20.9684C360.876 20.8337 360.897 20.6875 360.881 20.543C360.866 20.3984 360.815 20.26 360.733 20.14C360.651 20.0201 360.54 19.9223 360.412 19.8556C360.283 19.7888 360.139 19.7551 359.995 19.7574Z" fill="#EDEDED"/>
<path d="M94.9381 19.4039C106.036 33.7004 112.74 49.862 115.051 67.8887C115.073 68.0793 115.027 68.2512 114.911 68.4045L108.494 76.8703L108.332 76.147C108.567 75.3621 108.691 74.7902 108.706 74.4314C109.556 57.1691 104.637 40.0301 93.261 26.8549C93.1232 26.698 92.9666 26.6755 92.7915 26.7877L89.907 28.6546L83.2885 34.0817C85.8766 28.991 88.3698 24.7357 92.2213 20.0431C93.0598 19.019 93.9654 18.8059 94.9381 19.4039Z" fill="#A7A7A7"/>
<path d="M141.754 40.149C132.434 48.4429 123.861 57.4469 116.035 67.161C115.453 67.8843 115.504 68.4561 115.934 69.1906C116.035 69.3625 116.04 69.5363 115.951 69.712L115.112 71.3883C115.023 71.564 115.047 71.7228 115.185 71.8648C115.58 72.2722 116.025 72.3395 116.521 72.0667C116.696 71.9695 116.802 71.8219 116.84 71.6238L117.047 70.5417C117.099 70.2726 117.259 70.168 117.527 70.2278L120.272 70.8613C120.458 70.9024 120.553 71.0201 120.557 71.2145C120.561 71.8163 120.771 72.3115 121.189 72.7002C121.42 72.917 121.629 72.8964 121.815 72.6385L122.407 71.792C122.512 71.6462 122.65 71.5546 122.821 71.5172C125.879 70.8332 131.128 71.9545 131.413 75.9015C131.428 76.0884 131.515 76.2304 131.676 76.3276L133.168 77.2415C133.425 77.3947 133.427 77.5517 133.174 77.7124C132.551 78.1048 132.255 78.6786 132.285 79.4336C119.834 93.3002 109.761 108.737 102.065 125.743C96.2853 138.32 92.0853 151.409 89.4654 165.011C86.8381 165.201 88.6884 160.839 89.0574 160.957C89.117 160.976 89.1375 161.013 89.1188 161.069C89.0965 161.137 89.076 161.204 89.0574 161.271C88.994 161.484 89.0667 161.553 89.2754 161.479C89.6443 161.355 89.2195 159.707 89.1747 159.455C89.1494 159.301 89.0889 159.155 88.9982 159.028C88.9074 158.901 88.7887 158.797 88.6514 158.724C88.514 158.651 88.3617 158.611 88.2062 158.606C88.0507 158.601 87.8963 158.633 87.7549 158.698L84.563 160.15C84.3692 160.24 84.1679 160.271 83.9592 160.245C83.1282 160.144 82.2916 160.094 81.4493 160.094C79.6046 160.088 78.0786 161.058 76.3177 159.303C75.5966 158.591 74.7078 158.345 74.2438 159.432C74.1469 159.653 74.0724 159.645 74.0202 159.41C73.9531 159.092 73.7593 158.903 73.4388 158.844L73.6736 157.162L76.3289 144.968C76.463 144.676 76.573 144.377 76.6587 144.071C78.7903 136.285 81.3506 128.642 84.3394 121.14C89.7393 108.043 96.2797 95.541 104.089 83.7337C105.587 81.4687 107.055 79.1813 108.494 76.8714L114.911 68.4057C115.027 68.2524 115.073 68.0805 115.051 67.8899C112.74 49.8632 106.036 33.7016 94.9381 19.4051C95.307 19.3266 95.6815 19.1977 96.0672 19.2593C112.53 21.9168 128.042 29.7322 141.084 39.9696C141.181 40.0481 141.404 40.1079 141.754 40.149ZM122.363 32.3112C124.85 26.8673 107.734 24.507 104.866 24.3332C101.741 24.1482 104.693 28.1288 105.38 28.8016C109.349 32.6588 114.192 34.309 119.909 33.7521C121.165 33.6325 121.983 33.1522 122.363 32.3112Z" fill="#EDEDED"/>
<path d="M341.575 27.2482C341.33 21.6978 356.45 19.8196 359.995 19.7579C360.14 19.7556 360.283 19.7893 360.412 19.8561C360.54 19.9228 360.651 20.0206 360.733 20.1405C360.815 20.2605 360.866 20.3989 360.881 20.5435C360.897 20.688 360.876 20.8342 360.822 20.9689C358.519 26.7212 351.738 29.2385 345.936 29.2665C344.255 29.274 342.882 28.7731 341.816 27.764C341.667 27.6219 341.587 27.45 341.575 27.2482Z" fill="white"/>
<path d="M122.363 32.3124C121.983 33.1533 121.165 33.6336 119.909 33.7532C114.192 34.3102 109.349 32.66 105.38 28.8027C104.693 28.13 101.741 24.1494 104.866 24.3344C107.734 24.5082 124.85 26.8685 122.363 32.3124Z" fill="white"/>
<path fill-rule="evenodd" clip-rule="evenodd" d="M380.912 29.4053C386.204 34.4324 390.535 40.2164 393.904 46.7573C396.263 51.1528 398.281 55.1838 400.036 59.8877C403.893 69.9008 406.079 80.2728 406.593 91.0036C406.656 92.3267 406.606 93.6423 406.442 94.9505L406.045 100.955C404.61 113.439 400.205 124.814 392.83 135.082C392.018 136.435 390.926 137.58 389.555 138.519C386.786 128.969 383.338 119.671 379.213 110.626C376.657 104.885 373.901 99.2396 370.945 93.6892C366.198 85.0515 361.019 76.6809 355.411 68.5777C355.213 61.1398 356.106 53.8439 358.088 46.69C360.406 37.7047 364.616 29.6594 370.716 22.5542C371.074 22.143 371.484 22.0814 371.946 22.3692C375.088 24.3314 378.076 26.6768 380.912 29.4053Z" fill="url(#paint0_radial_260_891)"/>
<path d="M379.213 110.629C383.338 119.674 386.786 128.971 389.555 138.521C395.396 157.23 398.801 177.621 397.755 197.249C397.546 197.395 397.522 197.6 397.682 197.866C397.723 197.933 397.707 197.95 397.632 197.916C397.573 197.89 397.52 197.851 397.476 197.798C397.431 197.75 397.392 197.755 397.358 197.815L397.073 198.37C396.984 198.55 396.939 198.55 396.939 198.37C396.939 198.277 396.894 198.23 396.805 198.23C396.633 198.226 396.542 198.31 396.531 198.482L396.497 198.88C396.479 199.134 396.374 199.177 396.184 199.009L395.737 198.622C395.596 198.503 395.443 198.488 395.279 198.578C394.135 199.22 393.037 199.202 391.986 198.521C391.807 198.402 391.696 198.237 391.651 198.028L390.896 194.619C390.88 194.52 390.826 194.43 390.747 194.368C390.668 194.306 390.569 194.276 390.468 194.284C390.368 194.292 390.275 194.337 390.206 194.41C390.137 194.484 390.098 194.58 390.097 194.681L389.89 197.978C389.883 198.127 389.806 198.226 389.661 198.275C388.207 198.757 386.855 198.72 385.602 198.163C384.143 197.512 383.4 197.636 381.93 197.681C381.732 197.684 381.566 197.613 381.432 197.467C380.482 196.436 380.56 194.048 380.365 192.736C380.363 192.711 380.357 192.686 380.346 192.664C380.335 192.641 380.32 192.621 380.301 192.604C380.282 192.587 380.261 192.575 380.237 192.566C380.213 192.558 380.188 192.555 380.163 192.556C380.138 192.558 380.114 192.564 380.091 192.575C380.069 192.586 380.049 192.601 380.032 192.62C380.016 192.639 380.003 192.661 379.995 192.684C379.986 192.708 379.983 192.733 379.984 192.758C379.957 194.227 380.247 202.81 380.007 202.967C379.869 203.065 379.793 203.029 379.778 202.861C379.748 202.435 379.56 202.106 379.213 201.874C379.407 197.852 379.392 193.834 379.168 189.82C379.105 187.634 378.947 185.449 378.693 183.266C375.758 158.144 366.731 134.064 354.293 112.171C354.725 112.107 354.969 111.864 355.025 111.442C355.059 111.199 354.956 111.048 354.718 110.988C354.457 110.924 354.349 110.799 354.393 110.612C354.438 110.429 354.377 110.298 354.209 110.22L353.952 110.091C353.892 110.065 353.887 110.027 353.935 109.979L354.382 109.524C354.431 109.475 354.468 109.415 354.491 109.35C354.513 109.284 354.522 109.214 354.515 109.145C354.508 109.076 354.486 109.008 354.45 108.948C354.415 108.888 354.367 108.836 354.31 108.796C353.307 108.108 353.052 107.187 353.544 106.032C353.614 105.863 353.728 105.734 353.885 105.645C355.338 104.815 353.935 103.705 354.455 102.606C356.132 99.0515 359.542 100.145 362.398 101.485C362.57 101.567 362.749 101.597 362.935 101.574C365.35 101.277 366.954 102.068 369.207 102.337C369.848 102.415 370.485 102.537 371.119 102.701C371.283 102.746 371.417 102.832 371.521 102.959C372.199 103.774 373.049 104.35 374.07 104.686C374.253 104.746 374.372 104.869 374.428 105.056C374.503 105.299 374.65 105.432 374.87 105.454C375.112 105.48 375.313 105.585 375.473 105.768L376.362 106.788C376.489 106.934 376.55 107.104 376.547 107.299C376.539 107.672 376.765 107.861 377.223 107.865C377.432 107.865 377.482 107.955 377.374 108.134L377.257 108.336C377.208 108.414 377.212 108.491 377.268 108.566C377.775 109.257 378.188 109.999 378.509 110.791C378.591 110.997 378.732 111.055 378.934 110.965C379.057 110.913 379.15 110.801 379.213 110.629Z" fill="#EDEDED"/>
<path d="M72.6394 121.134C72.6953 126.37 71.7431 131.41 69.7829 136.254C58.6886 142.594 48.2613 149.889 38.5012 158.142C38.2291 157.937 37.9217 158.006 37.5788 158.35C37.0683 158.854 36.9695 158.783 37.2825 158.137C37.4018 157.894 37.5676 157.688 37.78 157.52C38.3204 157.086 38.2627 156.983 37.6068 157.211C37.3981 157.282 37.195 157.38 36.9974 157.503C36.8297 157.604 36.662 157.602 36.4943 157.497L34.8677 156.455C34.6776 156.331 34.6571 156.185 34.8062 156.017L35.2869 155.462C35.4211 155.309 35.477 155.131 35.4546 154.93C35.4136 154.567 35.4825 154.19 35.6614 153.797C39.7645 148.654 43.8899 142.971 48.0377 136.748C49.7483 134.18 52.275 130.323 52.4539 127.452C52.4562 127.413 52.4463 127.374 52.4256 127.341C52.4049 127.307 52.3744 127.281 52.3383 127.265C52.3021 127.25 52.2621 127.246 52.2238 127.255C52.1854 127.263 52.1506 127.283 52.124 127.312C43.5415 137.15 35.3521 147.286 27.5559 157.722C27.2838 157.83 27.0565 157.995 26.8739 158.215C26.7509 158.368 26.6 158.413 26.4211 158.35C26.0298 158.215 25.8025 157.912 25.7391 157.441C36.2335 141.571 47.5682 126.331 59.7432 111.721L64.1817 106.781C64.3271 106.618 64.531 106.519 64.7494 106.506C64.9679 106.492 65.1836 106.565 65.35 106.708C69.6506 110.48 72.0804 115.288 72.6394 121.134Z" fill="#A7A7A7"/>
<path fill-rule="evenodd" clip-rule="evenodd" d="M108.332 76.1493C108.567 75.3641 108.691 74.7925 108.706 74.4339C109.556 57.1716 104.637 40.0324 93.2611 26.8572C93.1232 26.7001 92.9666 26.6776 92.7915 26.7899L89.9071 28.6569L83.2885 34.0838C80.2699 36.7266 77.7357 39.5484 75.6861 42.5499C75.4651 42.8734 75.2261 43.2184 74.9743 43.5814L74.9346 43.6388C72.9289 46.533 70.1353 50.5632 69.0842 54.1214C68.7712 54.5627 68.4936 55.0204 68.2513 55.4951C64.8078 62.3576 62.1898 69.5222 60.3973 76.9902C57.278 88.4052 57.0601 99.9828 59.7433 111.722L64.1818 106.783C64.3271 106.62 64.531 106.521 64.7494 106.507C64.9679 106.494 65.1836 106.567 65.3501 106.711C69.6507 110.482 72.0804 115.29 72.6394 121.136C72.6954 126.371 71.7432 131.412 69.783 136.256C71.6426 139.403 73.8246 142.307 76.3289 144.969C76.463 144.677 76.573 144.378 76.6587 144.071C78.7903 136.286 81.3506 128.643 84.3393 121.141C89.7393 108.045 96.2796 95.5425 104.089 83.735C105.587 81.4699 107.055 79.1824 108.494 76.8725L108.332 76.1493Z" fill="url(#paint1_radial_260_891)"/>
<path d="M35.6616 153.798C33.8783 156.029 25.7896 166.098 23.4138 166.289C23.1977 166.308 23.0896 166.209 23.0896 165.992C23.1287 163.435 26.0803 159.791 27.556 157.722C35.3522 147.287 43.5416 137.15 52.1242 127.313C52.1507 127.284 52.1855 127.264 52.2239 127.255C52.2623 127.247 52.3023 127.251 52.3384 127.266C52.3745 127.281 52.4051 127.308 52.4258 127.341C52.4465 127.375 52.4563 127.414 52.454 127.453C52.2751 130.323 49.7484 134.181 48.0379 136.748C43.8901 142.972 39.7646 148.655 35.6616 153.798Z" fill="#EDEDED"/>
<path fill-rule="evenodd" clip-rule="evenodd" d="M301.629 109.203C314.836 109.353 323.974 115.434 329.042 127.447L329.121 128.052C330.921 133.004 331.672 138.035 331.373 143.145C331.198 147.622 330.291 151.936 328.651 156.084C327.041 160.16 317.762 162.319 313.927 162.924C300.936 164.973 287.892 165.341 274.797 164.029C272.505 163.801 270.358 163.322 268.357 162.594C268.169 162.525 268.008 162.399 267.895 162.233C267.781 162.067 267.722 161.87 267.725 161.668C267.867 152.638 269.565 143.941 272.818 135.576C274.387 131.3 276.444 127.275 278.989 123.5C278.997 123.459 279.004 123.419 279.012 123.382C284.535 115.466 291.673 109.96 301.629 109.203Z" fill="url(#paint2_radial_260_891)"/>
<path fill-rule="evenodd" clip-rule="evenodd" d="M193.624 137.259C192.16 133.469 190.382 129.832 188.291 126.349C180.862 114.261 169.078 106.317 154.472 110.449C147.16 112.519 141.57 117.118 137.702 124.246C133.886 132.394 132.993 140.89 135.024 149.733C135.032 149.684 135.039 149.638 135.046 149.593C135.058 149.533 135.093 149.505 135.153 149.509C136.156 149.616 136.995 149.303 137.799 149.003C138.303 148.815 138.792 148.633 139.3 148.561C141.866 148.214 143.951 147.922 146.601 147.048C148.897 146.289 151.613 145.64 154.751 145.102C158.546 144.451 162.336 143.695 166.128 142.939C171.548 141.857 176.971 140.775 182.411 140C184.006 139.774 185.625 139.431 187.242 139.088C189.234 138.666 191.223 138.245 193.16 138.044C193.347 138.025 193.477 137.931 193.552 137.763C193.63 137.599 193.654 137.431 193.624 137.259ZM198.812 159.494C198.145 151.742 196.416 144.33 193.624 137.259C193.654 137.431 193.63 137.599 193.552 137.763C193.477 137.932 193.347 138.025 193.16 138.044C191.223 138.245 189.234 138.666 187.242 139.089C185.625 139.431 184.006 139.774 182.411 140C176.971 140.776 171.548 141.857 166.128 142.939C162.337 143.695 158.546 144.451 154.751 145.102C151.614 145.64 148.897 146.289 146.601 147.048C143.951 147.922 141.866 148.214 139.301 148.561C138.792 148.633 138.303 148.815 137.799 149.003C136.995 149.303 136.156 149.616 135.153 149.509C135.093 149.505 135.058 149.533 135.047 149.593C135.039 149.638 135.032 149.685 135.024 149.733C135.695 153.136 137.115 158.793 140.519 160.402C143.642 161.886 147.367 162.871 151.694 163.357C164.096 164.759 176.487 164.648 188.867 163.026C192.117 162.596 195.15 161.862 197.968 160.823C198.235 160.725 198.463 160.542 198.616 160.301C198.768 160.061 198.837 159.777 198.812 159.494Z" fill="url(#paint3_radial_260_891)"/>
<path d="M35.6615 153.797C35.4826 154.189 35.4136 154.567 35.4546 154.929C35.477 155.131 35.4211 155.309 35.2869 155.462L34.8062 156.017C34.6571 156.185 34.6776 156.331 34.8677 156.454L36.4944 157.497C36.6621 157.602 36.8298 157.604 36.9975 157.503C37.195 157.379 37.3981 157.282 37.6068 157.211C38.2627 156.983 38.3205 157.086 37.7801 157.52C37.5677 157.688 37.4018 157.893 37.2826 158.136C36.9695 158.783 37.0683 158.854 37.5789 158.349C37.9217 158.005 38.2292 157.936 38.5012 158.142C29.3448 165.828 18.8802 176.486 13.743 187.413C10.4933 193.106 8.6803 199.559 8.3039 206.772C6.83373 234.872 61.3085 231.2 77.3127 229.731C80.6481 229.294 83.9909 229.116 87.3412 229.198C88.5747 233.571 91.1611 236.844 95.1002 239.015L94.9213 239.318C94.8207 239.494 94.6697 239.595 94.4685 239.621L81.9413 241.376C61.778 243.663 40.4801 245.053 20.0765 241.611C16.6833 241.039 2.16606 237.384 1.3052 233.711C-1.79726 220.43 1.00893 206.486 5.75485 193.883C11.1995 180.702 17.7343 169.725 25.7392 157.441C25.8025 157.912 26.0299 158.215 26.4212 158.349C26.6 158.413 26.751 158.368 26.874 158.215C27.0566 157.994 27.2839 157.83 27.5559 157.721C26.0802 159.79 23.1286 163.434 23.0895 165.991C23.0895 166.208 23.1976 166.307 23.4137 166.288C25.7895 166.097 33.8783 156.028 35.6615 153.797Z" fill="#CACACA"/>
<path d="M89.4655 165.01C88.2544 171.214 87.4774 177.475 87.1345 183.791C86.2848 196.563 87.755 209.039 91.545 221.22C91.6233 221.478 91.8413 221.624 91.5842 221.893C89.3929 224.371 88.0289 225.279 87.3413 229.198C83.991 229.116 80.6482 229.293 77.3128 229.731C75.1551 222.08 73.6681 215.829 72.852 210.977C70.0085 194.042 70.2042 176.664 73.4389 158.843C73.7594 158.902 73.9532 159.091 74.0203 159.409C74.0725 159.644 74.147 159.652 74.2439 159.431C74.7079 158.344 75.5967 158.59 76.3178 159.302C78.0787 161.057 79.6047 160.087 81.4494 160.093C82.2917 160.093 83.1283 160.143 83.9594 160.244C84.168 160.27 84.3693 160.239 84.5631 160.149L87.755 158.697C87.8964 158.632 88.0508 158.6 88.2063 158.605C88.3618 158.61 88.5141 158.65 88.6515 158.723C88.7888 158.796 88.9075 158.9 88.9983 159.027C89.089 159.154 89.1495 159.3 89.1749 159.454C89.2196 159.706 89.6444 161.354 89.2755 161.478C89.0668 161.552 88.9941 161.483 89.0575 161.27C89.0761 161.203 89.0966 161.136 89.1189 161.068C89.1376 161.012 89.1171 160.975 89.0575 160.956C88.6885 160.838 86.8382 165.2 89.4655 165.01Z" fill="#D4D4D4"/>
<path d="M397.755 197.248C397.416 207.75 395.422 217.694 391.774 227.08C383.215 249.096 353.516 262.322 332.928 269.268C314.779 275.391 296.218 279.928 277.245 282.881C247.959 287.747 217.343 288.902 187.732 287.147C159.894 285.32 131.463 280.122 106.755 266.532C106.453 266.368 106.194 266.174 105.978 265.949C111.345 261.445 117.121 257.553 123.307 254.271C142.039 262.967 162.941 267.614 183.121 269.846C226.835 274.667 273.455 271.808 316.001 259.642C335.801 253.974 364.114 242.542 373.88 222.92C377.122 216.635 378.604 209.111 379.213 201.873C379.559 202.105 379.748 202.434 379.777 202.86C379.792 203.028 379.869 203.063 380.007 202.966C380.247 202.809 379.956 194.226 379.984 192.757C379.983 192.732 379.986 192.707 379.995 192.683C380.003 192.659 380.015 192.638 380.032 192.619C380.049 192.6 380.069 192.585 380.091 192.574C380.114 192.563 380.138 192.556 380.163 192.555C380.188 192.554 380.213 192.557 380.237 192.565C380.26 192.573 380.282 192.586 380.301 192.603C380.32 192.62 380.335 192.64 380.346 192.662C380.357 192.685 380.363 192.709 380.364 192.734C380.56 194.046 380.482 196.435 381.432 197.466C381.566 197.612 381.732 197.683 381.93 197.679C383.4 197.634 384.143 197.511 385.602 198.161C386.854 198.718 388.207 198.756 389.661 198.274C389.806 198.225 389.882 198.126 389.89 197.976L390.097 194.68C390.098 194.579 390.137 194.482 390.206 194.409C390.274 194.335 390.368 194.29 390.468 194.283C390.568 194.275 390.668 194.305 390.747 194.367C390.826 194.429 390.879 194.519 390.896 194.618L391.651 198.027C391.695 198.236 391.807 198.401 391.986 198.52C393.037 199.201 394.135 199.219 395.279 198.576C395.443 198.487 395.595 198.502 395.737 198.621L396.184 199.008C396.374 199.176 396.479 199.133 396.497 198.879L396.531 198.481C396.542 198.309 396.633 198.225 396.805 198.229C396.894 198.229 396.939 198.275 396.939 198.369C396.939 198.548 396.984 198.548 397.073 198.369L397.358 197.814C397.392 197.754 397.431 197.748 397.476 197.797C397.52 197.849 397.572 197.889 397.632 197.915C397.707 197.948 397.723 197.932 397.682 197.864C397.522 197.599 397.546 197.393 397.755 197.248Z" fill="#D4D4D4"/>
<path d="M264.154 217.991C248.205 234.507 224.934 233.207 208.186 218.921C204.038 215.395 195.251 206.077 198.107 200.061C198.193 199.886 198.322 199.753 198.493 199.663C199.719 199.043 201.029 198.972 202.423 199.45C207.957 201.345 213.827 203.319 219.277 204.345C232.425 206.834 245.79 205.875 258.709 202.511C262.719 201.465 266.731 200.418 270.744 199.372C271.694 199.125 272.689 199.075 273.651 199.058C273.794 199.056 273.936 199.084 274.067 199.14C274.198 199.196 274.317 199.28 274.414 199.385C274.511 199.491 274.585 199.615 274.63 199.751C274.676 199.887 274.693 200.031 274.68 200.173C274.098 206.268 268.357 213.747 264.154 217.991Z" fill="#3086D4"/>
<path d="M120.792 209.745C123.818 209.719 126.844 209.751 129.87 209.841C138.266 210.098 151.062 212.879 155.288 221.356C158.049 229.289 152.951 235.636 146.226 239.179C135.119 244.578 120.065 247.421 107.745 244.102C107.659 244.079 107.581 244.09 107.51 244.135C107.462 244.165 107.417 244.195 107.376 244.225C103.079 242.958 98.9871 241.222 95.1001 239.017C91.161 236.845 88.5747 233.573 87.3412 229.2C88.0288 225.281 89.3927 224.372 91.584 221.894L91.8411 221.917L90.7343 225.64C90.715 225.703 90.7089 225.769 90.7164 225.835C90.7238 225.901 90.7447 225.965 90.7778 226.022C90.8108 226.079 90.8553 226.129 90.9084 226.169C90.9615 226.208 91.0221 226.236 91.0865 226.251C92.5958 226.604 94.1163 226.94 95.6703 227.058C109.37 228.067 122.998 227.484 136.556 225.309C139.871 224.776 154.79 221.098 146.69 215.094C145.435 214.163 144.475 213.601 143.812 213.406C132.952 210.214 121.919 209.616 110.713 211.612C113.929 210.289 117.289 209.667 120.792 209.745Z" fill="#FFB800"/>
<path d="M91.8413 221.915C94.3791 218.548 97.6009 216.064 101.506 214.465L110.713 211.611C121.919 209.615 132.952 210.213 143.812 213.405C144.475 213.599 145.435 214.162 146.691 215.092C154.791 221.097 139.871 224.775 136.556 225.307C122.998 227.483 109.37 228.066 95.6704 227.057C94.1164 226.939 92.5959 226.602 91.0866 226.249C91.0223 226.234 90.9616 226.207 90.9085 226.167C90.8554 226.128 90.8109 226.078 90.7779 226.021C90.7449 225.963 90.7239 225.9 90.7165 225.834C90.709 225.768 90.7151 225.702 90.7344 225.638L91.8413 221.915Z" fill="#FFD568"/>
<path d="M95.1001 239.016C98.987 241.221 103.079 242.957 107.376 244.224C112.157 248.063 117.335 251.35 122.91 254.086C123.022 254.105 123.155 254.166 123.307 254.271C117.121 257.552 111.345 261.445 105.978 265.949C95.7448 259.954 87.7324 251.763 81.9412 241.376L94.4684 239.621C94.6696 239.595 94.8206 239.494 94.9212 239.318L95.1001 239.016Z" fill="#A7A7A7"/>
<path fill-rule="evenodd" clip-rule="evenodd" d="M352.521 109.366C337.595 83.8672 315.806 60.2308 289.728 46.1527C236.069 17.1896 173.053 34.6091 133.23 78.5076L132.285 79.4329C119.834 93.2996 109.761 108.736 102.065 125.742C96.2854 138.319 92.0854 151.409 89.4655 165.01C88.2544 171.214 87.4774 177.475 87.1345 183.792C86.2848 196.563 87.755 209.039 91.545 221.22C91.566 221.289 91.5969 221.35 91.6261 221.407C91.706 221.565 91.7724 221.696 91.5842 221.893L91.8413 221.916C94.3792 218.548 97.6009 216.064 101.506 214.465L110.713 211.611C113.929 210.288 117.289 209.666 120.792 209.744C123.818 209.718 126.844 209.749 129.87 209.839C138.266 210.097 151.062 212.878 155.288 221.355C158.05 229.288 152.951 235.635 146.227 239.178C135.119 244.577 120.065 247.419 107.745 244.1C107.659 244.078 107.581 244.089 107.51 244.134C107.462 244.164 107.417 244.194 107.376 244.224C112.157 248.062 117.336 251.349 122.911 254.086C123.022 254.105 123.155 254.166 123.308 254.27C142.04 262.966 162.941 267.614 183.121 269.845C226.835 274.667 273.456 271.808 316.001 259.641C335.801 253.974 364.115 242.542 373.88 222.919C377.122 216.634 378.604 209.11 379.213 201.872C379.407 197.851 379.392 193.833 379.168 189.818C379.105 187.632 378.947 185.447 378.693 183.264C375.758 158.142 366.731 134.062 354.293 112.169L352.521 109.366ZM137.702 124.245C133.886 132.393 132.993 140.889 135.024 149.732C135.695 153.136 137.115 158.792 140.519 160.402C143.642 161.885 147.367 162.87 151.694 163.356C164.096 164.757 176.487 164.647 188.867 163.025C192.117 162.595 195.151 161.861 197.968 160.822C198.235 160.724 198.463 160.541 198.616 160.3C198.768 160.06 198.837 159.776 198.812 159.493C198.145 151.741 196.416 144.329 193.624 137.258C192.16 133.468 190.382 129.831 188.292 126.348C180.862 114.26 169.079 106.316 154.472 110.448C147.16 112.518 141.57 117.118 137.702 124.245ZM191.941 125.665L191.933 125.664C191.936 125.664 191.938 125.665 191.941 125.665ZM279.012 123.382L278.99 123.5C276.444 127.275 274.387 131.3 272.818 135.576C269.565 143.941 267.867 152.638 267.726 161.668C267.723 161.87 267.782 162.067 267.895 162.233C268.008 162.399 268.17 162.525 268.357 162.594C270.359 163.322 272.505 163.801 274.797 164.029C287.893 165.341 300.936 164.973 313.927 162.924C317.762 162.319 327.042 160.16 328.651 156.084C330.291 151.935 331.199 147.622 331.374 143.145C331.672 138.035 330.921 133.004 329.121 128.052L329.043 127.447C323.974 115.434 314.837 109.353 301.629 109.203C291.673 109.96 284.535 115.465 279.012 123.382ZM302.475 109.077C302.398 109.077 302.323 109.078 302.249 109.084L302.231 109.085C302.311 109.079 302.392 109.076 302.475 109.077ZM264.154 217.991C248.205 234.508 224.934 233.207 208.186 218.922C204.039 215.395 195.251 206.077 198.108 200.061C198.193 199.886 198.322 199.753 198.493 199.663C199.719 199.043 201.029 198.972 202.423 199.45C207.957 201.345 213.827 203.319 219.277 204.345C232.425 206.834 245.79 205.875 258.709 202.511L270.744 199.372C271.695 199.125 272.69 199.075 273.651 199.058C273.794 199.056 273.936 199.084 274.067 199.14L274.135 199.172C274.16 199.185 274.184 199.199 274.208 199.214C274.284 199.262 274.353 199.319 274.414 199.386C274.511 199.491 274.585 199.616 274.631 199.751C274.676 199.887 274.693 200.031 274.68 200.173C274.098 206.268 268.357 213.747 264.154 217.991ZM289.366 218.495C289.883 218.442 290.378 218.416 290.847 218.419C290.736 218.419 290.623 218.42 290.509 218.422C290.411 218.425 290.312 218.428 290.212 218.432C289.938 218.445 289.656 218.466 289.366 218.495Z" fill="url(#paint4_linear_260_891)"/>
<path d="M277.245 282.881C283.626 287.321 289.294 292.403 294.25 298.125C294.403 298.301 294.526 298.5 294.619 298.725C289.052 305.604 279.862 309.741 271.32 312.511C248.574 319.884 223.62 322.737 199.79 322.126C190.824 321.896 181.388 321.111 172.936 317.899C169.632 316.649 167.675 315 166.625 311.451C172.319 302.171 179.355 294.069 187.732 287.147C217.343 288.902 247.959 287.747 277.245 282.881Z" fill="#CACACA"/>
<path d="M294.619 298.725C294.951 298.852 295.225 299.052 295.441 299.325C299.32 304.258 302.773 309.478 305.799 314.983C306.571 316.379 308.024 317.058 309.198 318.067L308.348 319.295C308.244 319.441 308.223 319.598 308.287 319.766C313.737 334.225 318.824 348.673 321.485 363.956C324.062 378.712 324.576 390.413 325.051 407.737C325.245 414.887 324.852 423.261 323.872 432.859C323.152 440.122 321.844 447.27 319.948 454.304C319.772 454.954 319.633 455.609 319.528 456.266C319.495 456.457 319.389 456.584 319.21 456.648L318.701 456.827L318.36 452.364C317.98 446.81 317.194 441.336 316.001 435.943C308.091 398.699 280.325 368.363 241.139 365.234C201.087 362.033 166.624 388.591 153.085 425.134C152.411 426.958 151.557 429.619 150.525 433.117C149.746 435.771 148.947 438.451 148.127 441.157C146.372 429.387 145.777 417.557 146.344 405.668C147.238 382.082 150.984 358.635 156.585 335.727C157.2 333.208 157.91 330.71 158.715 328.231C158.916 327.609 158.865 327.166 158.167 327.02C158.014 326.987 157.904 327.043 157.837 327.189C156.816 329.409 156.063 331.18 155.579 332.504C147.523 354.537 143.336 378.14 141.346 401.469C141.212 403.054 140.61 404.92 139.541 407.07C132.671 425.179 123.626 440.142 106.705 450.413C103.176 452.555 99.3094 454.052 95.1057 454.904C81.3263 457.69 79.1853 444.061 80.8232 434.255C83.7859 416.55 91.3827 399.366 100.181 382.838C105.913 372.085 111.348 362.84 116.488 355.103C116.931 354.438 117.147 353.913 117.136 353.528C123.669 343.317 131.588 332.704 140.894 321.689C146.159 315.462 151.198 310.201 156.009 305.906C157.569 304.516 159.307 303.468 161.135 302.756C161.259 302.707 161.391 302.685 161.524 302.691C161.656 302.697 161.786 302.73 161.905 302.788C162.024 302.847 162.129 302.929 162.214 303.031C162.299 303.133 162.362 303.251 162.398 303.378C163.431 306.884 163.995 310.466 164.092 314.126C164.103 314.473 164.234 314.526 164.483 314.283C165.396 313.393 166.11 312.449 166.624 311.451C167.675 315 169.632 316.648 172.936 317.899C181.388 321.111 190.824 321.896 199.79 322.126C223.62 322.737 248.574 319.883 271.32 312.511C279.862 309.741 289.052 305.604 294.619 298.725ZM272.533 350.556C273.718 358.209 282.511 356.662 282.869 349.738C283.148 344.187 279.867 329.953 274.601 327.02C274.469 326.946 274.323 326.902 274.172 326.891C274.021 326.879 273.87 326.901 273.728 326.955C273.586 327.008 273.458 327.092 273.352 327.2C273.246 327.308 273.165 327.438 273.114 327.581C270.862 333.877 271.432 343.464 272.533 350.556ZM138.294 357.654C132.894 356.314 117.259 392.896 118.142 398.273C118.16 398.379 118.207 398.479 118.278 398.559C118.35 398.64 118.442 398.699 118.545 398.73C118.648 398.761 118.757 398.763 118.861 398.734C118.965 398.706 119.058 398.649 119.132 398.57C119.791 397.853 120.73 397.124 121.245 396.339C128.009 385.993 133.554 375.025 137.881 363.434C138.484 361.82 138.769 360.048 138.859 358.417C138.868 358.243 138.816 358.071 138.713 357.932C138.61 357.793 138.462 357.694 138.294 357.654ZM277.178 367.213C278.341 370.145 283.886 368.531 282.97 364.141C282.634 362.532 281.248 359.532 279.409 359.162C276.189 358.518 276.452 365.374 277.178 367.213ZM114.235 409.928C114.525 410.026 114.844 410.027 115.174 409.933C115.504 409.838 115.839 409.649 116.159 409.377C116.479 409.104 116.777 408.753 117.038 408.344C117.299 407.934 117.517 407.475 117.679 406.991C118.007 406.015 118.089 404.999 117.906 404.169C117.723 403.339 117.292 402.761 116.706 402.563C116.416 402.465 116.096 402.463 115.766 402.558C115.436 402.653 115.102 402.842 114.782 403.114C114.462 403.387 114.163 403.738 113.902 404.147C113.641 404.557 113.423 405.016 113.261 405.5C112.933 406.476 112.852 407.492 113.034 408.322C113.217 409.152 113.649 409.73 114.235 409.928Z" fill="#EDEDED"/>
<path d="M309.198 318.067C320.417 328.479 330.228 340.594 340.782 351.706C340.401 352.267 340.096 352.856 339.865 353.472C334.346 368.214 331.839 383.463 332.346 399.221C332.354 399.442 332.423 399.77 332.553 400.208C332.62 400.439 332.654 400.434 332.654 400.191V399.625C332.654 399.37 332.697 399.363 332.782 399.602C332.805 399.67 332.827 399.737 332.849 399.804C332.868 399.875 332.905 399.886 332.961 399.838C333.002 399.8 333.032 399.757 333.051 399.709C333.095 399.597 333.177 399.542 333.297 399.546C336.768 399.692 339.798 398.873 343.543 399.524C346.841 400.101 349.871 399.462 353.27 400.241C354.03 400.413 354.824 400.447 355.651 400.342C357.982 400.045 359.268 401.054 361.146 401.75C361.329 401.817 361.515 401.824 361.705 401.772C363.958 401.166 365.053 402.293 367.004 402.484C369.121 402.693 371.223 403.054 373.31 403.566C373.556 403.63 373.634 403.542 373.545 403.303C373.381 402.884 373.425 402.505 373.679 402.164C373.806 401.992 373.942 401.987 374.087 402.148L375.054 403.23C375.181 403.372 375.335 403.42 375.518 403.375C376.561 403.129 377.489 403.304 378.302 403.902C378.574 404.104 378.74 404.039 378.799 403.706L378.945 402.837C378.993 402.546 379.118 402.508 379.319 402.725L379.448 402.865C379.034 405.175 378.809 407.504 378.771 409.851C378.128 418.429 378.553 442.234 391.908 442.273C386.424 446.82 376.899 449.27 369.984 449.853C361.714 449.105 354.595 446.556 348.624 442.206C338.311 434.699 334.029 422.359 332.911 409.828C332.771 408.259 332.29 406.717 332.212 405.052C332.208 404.913 332.138 404.839 332 404.827C330.837 404.719 329.728 404.885 328.674 405.326C328.595 405.36 328.541 405.336 328.511 405.254C328.493 405.205 328.476 405.153 328.461 405.097C328.428 404.973 328.388 404.971 328.344 405.091C328.206 405.465 328.15 405.844 328.176 406.229C328.702 413.308 328.975 420.399 328.998 427.5C329.002 428.233 328.72 428.73 328.154 428.991C327.99 429.066 327.818 429.083 327.639 429.042C326.119 428.689 325.633 429.675 325.314 431.066C325.128 431.858 324.647 432.456 323.872 432.86C324.852 423.262 325.245 414.887 325.051 407.737C324.576 390.413 324.062 378.713 321.485 363.956C318.824 348.673 313.737 334.225 308.287 319.766C308.223 319.598 308.244 319.441 308.348 319.295L309.198 318.067Z" fill="#D4D4D4"/>
<path d="M146.344 405.668L146.204 405.757C146.085 405.836 146.035 405.804 146.053 405.662L146.199 404.356C146.225 404.113 146.18 404.098 146.065 404.311L145.93 404.563C145.819 404.776 145.712 404.773 145.612 404.552C144.628 402.41 141.307 404.743 141.14 404.659C140.957 404.565 140.838 404.616 140.782 404.81C140.54 405.67 140.126 406.423 139.541 407.069C140.611 404.92 141.212 403.053 141.347 401.469C143.337 378.14 147.524 354.537 155.579 332.503C156.063 331.18 156.816 329.409 157.837 327.188C157.904 327.043 158.014 326.987 158.167 327.02C158.866 327.166 158.916 327.609 158.715 328.231C157.91 330.709 157.2 333.208 156.585 335.727C150.984 358.635 147.239 382.081 146.344 405.668Z" fill="#D4D4D4"/>
<path d="M282.869 349.739C282.511 356.663 273.718 358.21 272.533 350.557C271.432 343.465 270.861 333.878 273.114 327.582C273.165 327.439 273.246 327.309 273.352 327.201C273.458 327.092 273.586 327.009 273.728 326.955C273.869 326.902 274.021 326.88 274.172 326.892C274.323 326.903 274.469 326.947 274.601 327.021C279.867 329.953 283.148 344.188 282.869 349.739Z" fill="white"/>
<path d="M340.781 351.706C348.034 359.331 355.019 365.446 361.739 370.05C369.565 375.406 378.781 379.654 389.387 382.794C387.199 384.42 385.861 385.608 385.373 386.36C382.127 391.383 380.152 396.885 379.448 402.865L379.319 402.725C379.118 402.508 378.993 402.546 378.945 402.837L378.799 403.706C378.74 404.039 378.574 404.104 378.302 403.902C377.489 403.304 376.561 403.129 375.518 403.375C375.335 403.42 375.181 403.372 375.054 403.23L374.087 402.147C373.942 401.987 373.805 401.992 373.679 402.164C373.425 402.504 373.381 402.884 373.545 403.302C373.634 403.542 373.556 403.629 373.31 403.566C371.223 403.054 369.121 402.693 367.004 402.484C365.053 402.293 363.958 401.166 361.705 401.772C361.515 401.824 361.329 401.817 361.146 401.749C359.268 401.054 357.982 400.045 355.651 400.342C354.824 400.447 354.03 400.413 353.27 400.241C349.871 399.462 346.841 400.101 343.543 399.524C339.798 398.873 336.768 399.692 333.296 399.546C333.177 399.542 333.095 399.597 333.051 399.709C333.032 399.757 333.002 399.8 332.961 399.838C332.905 399.886 332.868 399.875 332.849 399.804C332.827 399.737 332.805 399.669 332.782 399.602C332.696 399.363 332.654 399.37 332.654 399.625V400.191C332.654 400.434 332.62 400.439 332.553 400.208C332.423 399.77 332.354 399.441 332.346 399.221C331.839 383.463 334.346 368.213 339.865 353.472C340.096 352.855 340.401 352.267 340.781 351.706Z" fill="#EDEDED"/>
<path d="M117.136 353.528C117.147 353.913 116.931 354.438 116.488 355.104C111.348 362.841 105.913 372.086 100.181 382.839C91.3828 399.367 83.7859 416.551 80.8232 434.256C79.1854 444.062 81.3263 457.691 95.1057 454.904C99.3094 454.052 103.176 452.555 106.705 450.414C123.626 440.143 132.671 425.179 139.541 407.07C140.126 406.423 140.54 405.67 140.782 404.811C140.838 404.616 140.957 404.566 141.14 404.659C141.307 404.743 144.628 402.411 145.612 404.553C145.712 404.773 145.818 404.777 145.93 404.564L146.064 404.312C146.18 404.099 146.225 404.114 146.199 404.357L146.053 405.663C146.035 405.805 146.085 405.837 146.204 405.758L146.344 405.668C145.777 417.558 146.372 429.388 148.127 441.157C147.546 445.796 147.063 450.475 146.679 455.196C146.444 458.067 146.791 461.038 146.903 463.976C147.022 478.781 151.541 492.002 160.459 503.642C170.23 516.028 182.621 524.671 197.632 529.571C198.389 530.046 199.225 530.328 200.142 530.418C200.347 530.437 200.535 530.506 200.707 530.625C201.493 531.167 202.388 531.407 203.39 531.343C203.588 531.332 203.752 531.403 203.882 531.556L204.782 532.633C187.626 530.883 170.297 521.122 158.547 509.102C158.252 508.803 157.966 508.611 157.686 508.525C157.742 508.465 157.785 508.392 157.815 508.306C157.874 508.119 157.841 507.951 157.714 507.802C146.858 495.052 143.415 480.162 141.525 463.656C140.549 455.127 139.967 445.291 139.781 434.149C139.774 433.805 139.703 433.792 139.569 434.11C131.023 454.305 122.163 474.351 112.988 494.251C112.739 493.795 112.606 493.341 112.591 492.888C113.132 487.301 111.902 482.473 108.902 478.407C106.916 475.716 104.37 473.705 101.266 472.374C86.3629 465.988 72.0525 480.111 64.0643 491.027C62.5886 493.045 61.1016 495.054 59.6035 497.054C60.1066 492.853 60.9339 487.9 62.0855 482.197C71.4823 435.719 90.2312 392.499 117.136 353.528Z" fill="#CACACA"/>
<path d="M138.294 357.654C138.462 357.694 138.61 357.793 138.713 357.932C138.816 358.071 138.868 358.243 138.859 358.417C138.769 360.048 138.484 361.82 137.881 363.434C133.554 375.025 128.009 385.993 121.245 396.339C120.73 397.124 119.791 397.852 119.132 398.57C119.059 398.649 118.965 398.706 118.861 398.734C118.757 398.762 118.648 398.761 118.545 398.73C118.442 398.699 118.35 398.64 118.278 398.559C118.207 398.478 118.16 398.379 118.142 398.273C117.259 392.896 132.894 356.314 138.294 357.654Z" fill="white"/>
<path d="M282.97 364.139C283.886 368.529 278.341 370.144 277.178 367.212C276.452 365.373 276.189 358.516 279.409 359.161C281.248 359.531 282.634 362.53 282.97 364.139Z" fill="white"/>
<path d="M316.001 435.942L315.375 435.785C315.215 435.744 315.114 435.643 315.073 435.482C309.265 412.098 294.541 390.883 273.433 378.975C255.081 368.619 231.446 366.562 211.401 372.841C175.099 384.205 151.699 417.614 147.507 454.864L146.903 463.974C146.791 461.036 146.445 458.065 146.679 455.195C147.063 450.474 147.546 445.794 148.127 441.156C148.947 438.45 149.746 435.77 150.525 433.116C151.558 429.618 152.411 426.957 153.086 425.133C166.625 388.59 201.087 362.032 241.14 365.233C280.326 368.362 308.091 398.698 316.001 435.942Z" fill="#A7A7A7"/>
<path d="M452.498 379.809C451.339 380.037 450.206 380.207 449.099 380.32C439.848 381.256 436.65 389.01 436.254 397.335C436.25 397.4 436.231 397.462 436.197 397.517C436.164 397.572 436.117 397.617 436.062 397.65C436.006 397.682 435.944 397.7 435.88 397.702C435.815 397.704 435.752 397.689 435.695 397.66C432.266 395.881 428.854 394.186 425.459 392.575C423.095 391.448 420.501 389.671 417.834 388.511C416.262 387.823 414.853 387.111 413.608 386.375C410.776 384.708 407.422 383.093 403.546 381.531C402.794 381.228 402.486 380.671 402.624 379.86C402.654 379.684 402.579 379.608 402.4 379.63L400.852 379.854C412.479 376.474 424.045 376.429 437.047 376.95C442.943 377.186 448.093 378.139 452.498 379.809Z" fill="#EDEDED"/>
<path d="M452.498 379.812C457.747 382.582 462.488 389.265 458.826 395.157L458.569 395.835C449.351 402.081 441.816 401.257 430.49 400.259C423.596 399.65 416.791 398.456 410.076 396.676L408.818 396.441C404.301 394.837 387.084 389.865 395.402 382.144C397.123 381.154 398.94 380.391 400.852 379.857L402.4 379.633C402.579 379.61 402.654 379.687 402.624 379.863C402.486 380.674 402.794 381.231 403.546 381.533C407.422 383.096 410.776 384.71 413.608 386.377C414.853 387.114 416.262 387.826 417.834 388.513C420.501 389.674 423.095 391.451 425.459 392.578C428.854 394.189 432.266 395.884 435.695 397.663C435.752 397.692 435.815 397.706 435.88 397.704C435.944 397.703 436.006 397.685 436.062 397.652C436.117 397.62 436.164 397.574 436.197 397.52C436.231 397.465 436.25 397.402 436.254 397.338C436.65 389.012 439.848 381.259 449.1 380.322C450.206 380.21 451.339 380.04 452.498 379.812Z" fill="#D4D4D4"/>
<path d="M395.402 382.143C387.084 389.863 404.301 394.836 408.818 396.439L404.2 398.923C404.021 399.02 403.919 399.171 403.893 399.377C403.74 400.651 403.844 401.915 404.206 403.167L404.273 404.613C403.591 404.045 403.345 403.288 403.535 402.343C403.584 402.103 403.487 401.997 403.244 402.023C402.741 402.083 402.303 401.948 401.931 401.619C401.771 401.477 401.584 401.421 401.372 401.451C397.008 402.031 392.644 402.606 388.28 403.178C385.669 403.514 384.143 404.114 382.802 406.458C382.293 407.344 380.247 410.197 379.001 409.614C378.956 409.592 378.926 409.603 378.911 409.648C378.885 409.734 378.838 409.801 378.771 409.85C378.809 407.503 379.034 405.174 379.448 402.864C380.152 396.884 382.127 391.382 385.373 386.359C385.861 385.607 387.199 384.419 389.387 382.793L395.402 382.143Z" fill="#A7A7A7"/>
<path d="M404.273 404.613L404.882 410.433C404.62 414.161 405.285 417.379 404.882 421.506C398.849 420.799 392.957 419.676 387.207 418.136C387.15 418.12 387.091 418.121 387.035 418.138C386.979 418.156 386.93 418.189 386.892 418.234C386.855 418.279 386.832 418.334 386.825 418.393C386.818 418.451 386.829 418.51 386.855 418.562C390.332 425.744 395.581 429.831 402.272 433.98C399.738 437.908 396.283 440.672 391.908 442.272C378.553 442.233 378.129 418.428 378.771 409.85C378.838 409.801 378.885 409.734 378.911 409.648C378.926 409.603 378.956 409.592 379.001 409.614C380.247 410.197 382.293 407.344 382.802 406.458C384.143 404.114 385.669 403.514 388.28 403.178C392.644 402.606 397.008 402.03 401.372 401.451C401.584 401.421 401.771 401.477 401.931 401.619C402.303 401.948 402.741 402.083 403.244 402.023C403.487 401.997 403.584 402.103 403.535 402.343C403.345 403.288 403.591 404.045 404.273 404.613Z" fill="#CACACA"/>
<path d="M113.261 405.501C112.579 407.534 113.014 409.517 114.235 409.929C115.455 410.34 116.997 409.026 117.68 406.992C118.362 404.958 117.926 402.976 116.706 402.564C115.486 402.152 113.943 403.467 113.261 405.501Z" fill="white"/>
<path d="M369.984 449.853C356.618 451.271 340.027 449.236 329.244 441.23C329.198 441.196 329.143 441.175 329.086 441.169C329.029 441.164 328.971 441.175 328.919 441.2C328.867 441.225 328.822 441.264 328.79 441.313C328.757 441.362 328.739 441.418 328.735 441.476C328.34 451.209 327.379 460.86 325.851 470.428C324.557 478.52 322.02 486.19 318.237 493.437C318.151 493.598 318.192 493.718 318.36 493.796C318.498 493.863 318.651 493.882 318.818 493.852C318.643 493.949 318.453 493.99 318.248 493.975C318.058 493.957 317.917 494.032 317.823 494.2C310.294 507.751 298.773 518.257 285.01 525.22C284.171 525.646 283.283 525.975 282.344 526.207C284.11 525.131 285.64 523.822 286.933 522.283C297.707 515.435 305.92 506.278 311.574 494.811C317.235 482.809 319.61 470.148 318.701 456.827L319.21 456.648C319.389 456.584 319.495 456.457 319.528 456.266C319.633 455.609 319.772 454.954 319.948 454.304C321.844 447.27 323.153 440.122 323.872 432.859C324.647 432.456 325.128 431.858 325.314 431.065C325.633 429.675 326.119 428.688 327.639 429.041C327.818 429.082 327.99 429.066 328.154 428.991C328.72 428.729 329.002 428.232 328.998 427.5C328.975 420.398 328.702 413.308 328.176 406.229C328.15 405.844 328.206 405.464 328.344 405.09C328.388 404.971 328.428 404.973 328.461 405.096C328.476 405.152 328.493 405.205 328.512 405.253C328.541 405.335 328.595 405.36 328.674 405.326C329.728 404.885 330.837 404.719 332 404.827C332.138 404.838 332.208 404.913 332.212 405.051C332.29 406.716 332.771 408.258 332.911 409.828C334.029 422.358 338.311 434.698 348.624 442.205C354.595 446.556 361.714 449.105 369.984 449.853Z" fill="#CACACA"/>
<path d="M404.882 410.434C406.522 418.978 407.729 427.584 408.505 436.251C408.508 436.296 408.495 436.339 408.465 436.38C408.436 436.421 408.406 436.463 408.376 436.504C406.706 435.995 405.13 435.287 403.647 434.379L404.882 421.506C405.285 417.38 404.62 414.162 404.882 410.434Z" fill="#A7A7A7"/>
<path d="M404.882 421.506L403.647 434.378L402.272 433.98C395.581 429.831 390.332 425.744 386.855 418.562C386.829 418.51 386.818 418.451 386.825 418.393C386.832 418.335 386.855 418.28 386.893 418.235C386.93 418.189 386.979 418.156 387.035 418.139C387.091 418.121 387.151 418.12 387.207 418.136C392.957 419.676 398.849 420.799 404.882 421.506Z" fill="#D4D4D4"/>
<path d="M112.591 492.887C112.127 490.37 108.717 480.486 105.022 481.775C103.552 479.745 101.042 480.166 98.851 480.816C82.2206 479.353 70.1909 485.627 59.8158 498.465C59.7923 498.495 59.7611 498.517 59.7257 498.529C59.6902 498.542 59.6521 498.544 59.6155 498.536C59.5788 498.528 59.5452 498.509 59.5184 498.483C59.4916 498.457 59.4726 498.424 59.4637 498.387L59.4189 498.174L59.6034 497.053C61.1016 495.053 62.5885 493.044 64.0643 491.026C72.0524 480.11 86.3629 465.987 101.266 472.373C104.37 473.704 106.916 475.714 108.902 478.406C111.902 482.472 113.132 487.299 112.591 492.887Z" fill="#67636E"/>
<path d="M105.022 481.776C99.9167 484.134 95.9012 487.726 92.9758 492.552C91.9584 494.23 90.9149 495.848 89.8454 497.407C88.0491 498.906 86.5137 500.638 85.2392 502.604C84.9075 503.116 84.4603 503.454 83.8976 503.619C88.5187 496.02 93.4584 488.633 98.7167 481.456C98.8788 481.238 98.8788 481.075 98.8509 480.817C101.042 480.167 103.552 479.746 105.022 481.776Z" fill="#A7A7A7"/>
<path d="M98.851 480.819C98.879 481.077 98.879 481.239 98.7169 481.458C93.4585 488.634 88.5188 496.022 83.8977 503.62C80.0071 509.403 76.2804 515.289 72.7177 521.281C65.7786 532.273 60.0619 543.873 55.5675 556.08C53.7452 561.033 51.8501 565.942 49.8824 570.808C47.7918 569.339 45.5614 557.583 45.444 556.204C45.2912 554.398 45.5744 551.556 46.2937 547.676C49.4092 530.842 53.7843 514.342 59.419 498.177L59.4637 498.39C59.4727 498.426 59.4916 498.459 59.5185 498.486C59.5453 498.512 59.5789 498.53 59.6155 498.539C59.6522 498.547 59.6903 498.544 59.7257 498.532C59.7611 498.52 59.7924 498.497 59.8159 498.468C70.191 485.629 82.2207 479.356 98.851 480.819Z" fill="#EDEDED"/>
<path d="M112.591 492.888C112.606 493.34 112.738 493.794 112.988 494.25C113.916 502.379 113.638 510.466 112.155 518.509C111.883 518.491 111.783 518.339 111.853 518.055C111.883 517.939 111.868 517.934 111.809 518.038L111.68 518.246C111.609 518.365 111.51 518.395 111.384 518.335C109.938 517.666 108.415 517.453 106.817 517.696C106.612 517.73 106.412 517.713 106.219 517.646L103.999 516.883C103.802 516.816 103.602 516.81 103.401 516.866C102.257 517.18 101.156 517.053 100.098 516.485C99.9261 516.392 99.7416 516.364 99.5441 516.401L98.0572 516.693C97.8932 516.726 97.7739 516.667 97.6994 516.513C97.2746 515.586 96.7361 515.536 96.0839 516.362C95.8491 513.884 95.0796 511.619 93.7752 509.567C93.7094 509.461 93.6163 509.376 93.5059 509.319C93.3955 509.263 93.2719 509.237 93.1482 509.245C93.0244 509.253 92.9051 509.294 92.803 509.365C92.7008 509.435 92.6195 509.532 92.5678 509.645C91.6734 511.581 91.105 513.598 90.8628 515.695C90.7398 515.515 90.5647 515.399 90.3373 515.347C90.1547 515.302 90.0187 515.364 89.9293 515.532L89.4988 516.339C89.387 516.549 89.2231 516.601 89.0069 516.496L87.8721 515.953C87.7156 515.878 87.5833 515.908 87.4753 516.042C87.1548 516.453 86.743 516.392 86.2399 515.857C86.0666 512.118 85.6753 507.885 86.8659 504.319C87.6523 501.964 88.6454 499.66 89.8454 497.406C90.915 495.848 91.9585 494.229 92.9758 492.551C95.9013 487.726 99.9168 484.134 105.022 481.776C108.717 480.486 112.127 490.37 112.591 492.888Z" fill="#EDEDED"/>
<path d="M326.186 495.209C320.255 507.818 310.221 518.1 297.979 524.665C282.319 533.064 265.176 537.438 246.55 537.79C245.309 537.812 237.584 538.07 237.478 535.878C247.085 535.661 255.099 534.867 261.52 533.495C267.457 532.228 274.398 529.799 282.343 526.207C283.282 525.975 284.171 525.646 285.01 525.22C298.772 518.257 310.293 507.75 317.823 494.199C317.916 494.031 318.058 493.957 318.248 493.975C318.453 493.99 318.643 493.949 318.818 493.852L326.203 493.813C326.419 493.809 326.532 493.917 326.544 494.138C326.562 494.508 326.443 494.865 326.186 495.209Z" fill="#A7A7A7"/>
<path d="M326.186 495.209C326.548 496.39 326.561 497.752 326.225 499.296C324.321 508.158 322.357 515.914 320.333 522.563C309.798 524.215 300.444 526.508 292.271 529.442C280.806 533.557 269.978 539.242 264.735 550.758C264.34 550.392 263.857 550.136 263.287 549.99C262.762 549.861 262.404 550.365 262.303 549.502C262.277 549.289 262.158 549.184 261.946 549.188C260.917 549.211 260.101 549.278 259.078 548.919C255.813 547.753 251.951 548.392 249.558 546.587C248.082 545.477 247.641 545.645 245.913 545.678C245.41 545.686 244.984 545.462 244.633 545.006C244.54 544.879 244.413 544.808 244.253 544.793L238.59 544.26C238.415 544.241 238.253 544.277 238.104 544.367L237.422 544.759C237.247 544.86 237.163 545.009 237.171 545.208L237.322 548.633C222.34 547.046 206.845 545.785 191.785 546.553C190.254 546.632 184.574 546.676 184.513 549.446C184.468 551.61 184.626 553.756 184.988 555.882C186.016 561.978 187.369 568.011 189.046 573.98C187.429 574.058 185.893 574.316 184.44 574.754C183.903 574.916 183.518 574.742 182.953 574.765C182.774 574.769 182.703 574.858 182.741 575.034C182.767 575.168 182.761 575.292 182.724 575.404C176.709 563.122 169.539 551.758 161.213 541.311C160.807 540.795 160.244 540.433 159.525 540.223C156.011 532.827 153.356 525.146 151.559 517.181C155.238 520.806 158.948 523.78 162.689 526.101C173.478 532.791 185.096 537.839 197.543 541.244C209.606 544.54 224.515 547.288 236.293 541.423C236.378 541.382 236.454 541.327 236.517 541.261C237.199 540.584 237.048 539.964 236.064 539.399C233.966 538.192 231.784 537.065 229.518 536.018L237.478 535.878C237.584 538.07 245.31 537.813 246.551 537.79C265.177 537.439 282.319 533.064 297.979 524.665C310.221 518.1 320.255 507.818 326.186 495.209ZM234.381 536.529L236.69 537.908C236.984 538.084 237.143 537.999 237.165 537.656L237.215 536.809C237.23 536.592 237.137 536.446 236.936 536.372C236.071 536.032 235.223 536.041 234.392 536.4C234.307 536.437 234.303 536.48 234.381 536.529Z" fill="#D4D4D4"/>
<path d="M89.8455 497.406C88.6455 499.66 87.6523 501.964 86.866 504.319C85.6753 507.885 86.0666 512.118 86.2399 515.857C86.6797 526.409 88.2672 536.773 91.0026 546.951C80.2027 543.222 76.2953 531.791 73.2767 521.901C73.2245 521.736 73.1313 521.6 72.9972 521.492L72.7177 521.279C76.2804 515.287 80.007 509.4 83.8977 503.618C84.4604 503.454 84.9076 503.116 85.2393 502.603C86.5138 500.637 88.0492 498.905 89.8455 497.406Z" fill="#67636E"/>
<path d="M157.686 508.526C157.965 508.612 158.252 508.804 158.547 509.103C170.297 521.124 187.626 530.884 204.782 532.634C214.279 534.658 220.63 535.74 229.518 536.02C231.784 537.067 233.966 538.193 236.064 539.401C237.047 539.965 237.198 540.586 236.516 541.262C236.454 541.329 236.378 541.384 236.293 541.425C224.515 547.289 209.606 544.542 197.543 541.245C185.096 537.84 173.478 532.793 162.689 526.102C158.947 523.781 155.237 520.808 151.559 517.182C151.317 516.442 151.051 515.697 150.76 514.945C148.887 510.101 153.784 508.184 157.686 508.526Z" fill="#A7A7A7"/>
<path d="M96.0841 516.362C96.5593 519.075 97.1071 522.775 95.0332 524.581C93.0152 526.335 90.7233 525.063 90.645 522.428C90.563 519.673 90.6357 517.429 90.863 515.694C91.1053 513.598 91.6736 511.581 92.568 509.645C92.6197 509.532 92.701 509.435 92.8032 509.365C92.9053 509.294 93.0246 509.253 93.1484 509.245C93.2721 509.237 93.3957 509.262 93.5061 509.319C93.6165 509.376 93.7096 509.461 93.7754 509.566C95.0798 511.618 95.8493 513.883 96.0841 516.362Z" fill="white"/>
<path d="M90.8628 515.695C90.6355 517.429 90.5628 519.674 90.6448 522.428C90.7231 525.063 93.015 526.336 95.033 524.581C97.1069 522.776 96.559 519.075 96.0839 516.362C96.7361 515.536 97.2746 515.586 97.6994 516.513C97.7739 516.667 97.8932 516.726 98.0572 516.693L99.5441 516.401C99.7416 516.364 99.9261 516.392 100.098 516.485C101.156 517.053 102.257 517.18 103.401 516.867C103.602 516.81 103.802 516.816 103.999 516.883L106.219 517.646C106.412 517.713 106.612 517.73 106.817 517.696C108.415 517.453 109.938 517.666 111.384 518.335C111.51 518.395 111.609 518.365 111.68 518.246L111.809 518.038C111.868 517.934 111.883 517.939 111.853 518.055C111.783 518.339 111.883 518.491 112.155 518.509C111.388 523.462 110.12 529.158 108.354 535.598C107.549 538.517 106.511 540.976 105.24 542.976C102.893 546.671 95.1671 553.752 91.3436 547.674C91.2765 547.569 91.1796 547.513 91.0529 547.506C91.0044 547.502 90.956 547.504 90.9075 547.511L91.0026 546.951C88.2672 536.773 86.6796 526.409 86.2399 515.857C86.743 516.392 87.1548 516.454 87.4753 516.042C87.5833 515.908 87.7156 515.878 87.8721 515.953L89.0069 516.497C89.2231 516.601 89.387 516.549 89.4988 516.34L89.9293 515.532C90.0187 515.364 90.1547 515.302 90.3373 515.347C90.5647 515.4 90.7398 515.515 90.8628 515.695Z" fill="#D4D4D4"/>
<path fill-rule="evenodd" clip-rule="evenodd" d="M318.36 452.365C317.98 446.811 317.194 441.337 316.001 435.944L315.375 435.787C315.215 435.746 315.114 435.645 315.073 435.484C309.265 412.099 294.541 390.885 273.433 378.976C255.081 368.621 231.446 366.564 211.401 372.843C175.099 384.207 151.699 417.616 147.507 454.866L146.903 463.976C147.022 478.781 151.541 492.003 160.459 503.642C170.23 516.029 182.621 524.672 197.632 529.572C198.389 530.047 199.225 530.329 200.142 530.418C200.254 530.429 200.36 530.454 200.462 530.494C200.547 530.527 200.629 530.572 200.707 530.626C201.493 531.168 202.388 531.407 203.39 531.344C203.588 531.332 203.752 531.403 203.882 531.557L204.782 532.633C214.279 534.657 220.63 535.739 229.518 536.019L237.478 535.879C247.085 535.662 255.1 534.868 261.521 533.496C267.457 532.23 274.398 529.8 282.344 526.208C284.11 525.132 285.64 523.824 286.933 522.284C297.707 515.436 305.92 506.279 311.574 494.812C317.235 482.811 319.61 470.149 318.701 456.828L318.36 452.365ZM196.827 526.937C196.793 526.968 196.767 526.997 196.75 527.024C196.733 527.05 196.724 527.074 196.723 527.096C196.725 527.052 196.759 526.999 196.827 526.937Z" fill="url(#paint5_radial_260_891)"/>
<path d="M72.7176 521.28L72.9971 521.493C73.1312 521.602 73.2244 521.738 73.2766 521.903C76.2952 531.792 80.2026 543.224 91.0025 546.952L90.9075 547.513C84.5759 557.081 77.8529 566.366 70.7387 575.366C63.1754 584.931 53.8512 580.423 49.8823 570.808C51.85 565.941 53.745 561.032 55.5674 556.08C60.0618 543.873 65.7785 532.273 72.7176 521.28Z" fill="#CACACA"/>
<path d="M320.333 522.564L315.487 539.104C311.242 552.795 306.584 566.343 301.512 579.75C301.322 579.777 301.175 579.672 301.07 579.436C300.929 579.111 300.77 579.102 300.595 579.408L300.31 579.902C300.213 580.066 300.096 580.085 299.958 579.958C297.884 578.035 293.585 578.22 290.891 577.093C289.132 576.357 287.289 575.901 285.362 575.725C285.172 575.706 285.003 575.637 284.854 575.518C282.394 573.572 280.275 574.413 277.385 573.841C277.333 573.834 277.294 573.808 277.268 573.763L277.139 573.538C277.042 573.374 276.927 573.363 276.793 573.505L276.614 573.701C277.147 570.191 277.35 566.93 277.223 563.918C277.156 562.342 276.077 557.257 273.299 558.816C271.208 559.982 269.665 568.431 269.324 570.78L269.185 570.859C269.106 570.907 269.067 570.885 269.067 570.791C269.067 570.72 269.067 570.649 269.067 570.578C269.067 570.53 269.043 570.507 268.995 570.511C268.301 570.56 267.651 570.369 267.044 569.939C266.876 569.82 266.69 569.771 266.485 569.793C265.665 569.872 264.927 569.677 264.271 569.21C264.1 569.087 263.91 569.016 263.701 568.997L260.447 568.717C260.265 568.702 260.11 568.76 259.984 568.891L259.805 569.064C259.771 569.098 259.751 569.093 259.743 569.048C259.736 568.988 259.723 568.943 259.704 568.913C259.607 568.737 259.561 568.752 259.564 568.958C259.564 569.007 259.566 569.053 259.57 569.098C259.596 569.73 259.549 569.73 259.43 569.098C259.382 568.84 259.408 568.597 259.508 568.369C259.546 568.283 259.592 568.278 259.648 568.353C259.711 568.431 259.78 568.465 259.855 568.453C260.067 568.423 260.093 568.336 259.933 568.19C259.661 567.943 259.531 567.639 259.542 567.276C260.705 561.591 262.436 556.086 264.735 550.759C269.978 539.244 280.806 533.559 292.271 529.444C300.444 526.51 309.798 524.216 320.333 522.564Z" fill="#EDEDED"/>
<path d="M234.381 536.528C234.303 536.48 234.307 536.437 234.392 536.399C235.223 536.041 236.071 536.031 236.936 536.371C237.137 536.446 237.23 536.592 237.215 536.809L237.165 537.655C237.143 537.999 236.984 538.083 236.69 537.907L234.381 536.528Z" fill="#E5F6FE"/>
<path d="M159.525 540.224C160.244 540.433 160.807 540.795 161.213 541.311C169.539 551.758 176.709 563.122 182.724 575.404C187.963 588.045 193.125 600.717 198.208 613.422C198.398 613.898 198.264 614.19 197.912 614.509C189.504 603.498 182.444 590.127 176.39 578.488C170.401 566.352 164.905 553.995 159.9 541.418C159.747 541.029 159.622 540.631 159.525 540.224Z" fill="#EDEDED"/>
<path d="M264.735 550.758C262.436 556.084 260.705 561.589 259.542 567.274C255.019 588.158 254.214 610.909 258.625 631.911C253.806 624.78 250.749 615.58 248.401 607.635C243.698 591.709 240.377 575.499 238.439 559.005L237.321 548.633L237.171 545.207C237.163 545.009 237.247 544.86 237.422 544.759L238.104 544.366C238.253 544.277 238.415 544.241 238.59 544.26L244.253 544.792C244.413 544.807 244.54 544.878 244.633 545.005C244.983 545.461 245.41 545.686 245.913 545.678C247.641 545.645 248.082 545.476 249.558 546.586C251.951 548.392 255.813 547.753 259.078 548.919C260.101 549.278 260.917 549.21 261.945 549.188C262.158 549.184 262.277 549.289 262.303 549.502C262.404 550.365 262.762 549.861 263.287 549.99C263.857 550.135 264.34 550.391 264.735 550.758Z" fill="#CACACA"/>
<path d="M237.321 548.632L238.439 559.004C238.074 558.945 237.88 559.083 237.858 559.419C237.115 570.784 231.089 629.803 212.887 627.521C201.277 611.851 194.161 592.268 189.046 573.979C187.369 568.01 186.016 561.978 184.988 555.882C184.626 553.755 184.468 551.609 184.513 549.445C184.574 546.676 190.253 546.631 191.785 546.552C206.845 545.784 222.34 547.046 237.321 548.632Z" fill="#EDEDED"/>
<path d="M276.614 573.7C276.189 576.004 273.886 585.608 270.957 584.335C267.86 582.996 269.028 573.246 269.324 570.779C269.665 568.43 271.208 559.981 273.299 558.815C276.077 557.256 277.156 562.341 277.223 563.917C277.35 566.929 277.147 570.19 276.614 573.7Z" fill="white"/>
<path d="M259.542 567.274C259.531 567.637 259.661 567.942 259.933 568.188C260.093 568.334 260.067 568.422 259.855 568.452C259.78 568.463 259.711 568.429 259.648 568.351C259.592 568.276 259.546 568.282 259.508 568.368C259.408 568.596 259.382 568.839 259.43 569.097C259.549 569.728 259.596 569.728 259.57 569.097C259.566 569.052 259.564 569.005 259.564 568.956C259.561 568.751 259.607 568.736 259.704 568.912C259.723 568.941 259.736 568.986 259.743 569.046C259.751 569.091 259.771 569.096 259.805 569.063L259.984 568.889C260.11 568.758 260.265 568.7 260.447 568.715L263.701 568.996C263.91 569.014 264.1 569.085 264.271 569.209C264.927 569.676 265.665 569.87 266.485 569.792C266.69 569.769 266.876 569.818 267.044 569.937C267.651 570.367 268.301 570.558 268.995 570.509C269.043 570.506 269.067 570.528 269.067 570.577C269.067 570.648 269.067 570.719 269.067 570.79C269.067 570.883 269.106 570.906 269.185 570.857L269.324 570.778C269.028 573.245 267.86 582.995 270.957 584.335C273.886 585.608 276.189 576.004 276.614 573.699L276.793 573.503C276.927 573.361 277.042 573.372 277.139 573.537L277.268 573.761C277.294 573.806 277.333 573.832 277.385 573.84C280.275 574.411 282.394 573.57 284.854 575.516C285.003 575.636 285.172 575.705 285.362 575.723C287.289 575.899 289.132 576.355 290.891 577.091C293.585 578.218 297.884 578.033 299.958 579.956C300.096 580.083 300.213 580.065 300.31 579.9L300.595 579.407C300.77 579.1 300.929 579.11 301.07 579.435C301.175 579.67 301.322 579.775 301.512 579.749C295.681 595.834 289.007 611.773 280.421 626.591C277.475 631.67 270.616 642.805 263.718 637.686C261.59 636.109 259.892 634.184 258.625 631.911C254.215 610.91 255.02 588.159 259.542 567.274Z" fill="#D4D4D4"/>
<path d="M189.046 573.98C194.161 592.269 201.277 611.852 212.888 627.522C207.113 626.608 201.031 619.208 197.912 614.51C198.264 614.19 198.398 613.899 198.208 613.422C193.125 600.718 187.964 588.045 182.724 575.405C182.761 575.292 182.767 575.169 182.741 575.034C182.703 574.859 182.774 574.769 182.953 574.765C183.518 574.743 183.903 574.917 184.44 574.754C185.893 574.317 187.429 574.059 189.046 573.98Z" fill="#CACACA"/>
<g style="mix-blend-mode:screen">
<path d="M247.36 37.0982C182.943 26.6052 101.817 98.4475 118.363 131.696C134.908 164.944 186.609 114.272 223.009 102.681C259.408 91.0895 344.436 175.403 353.702 149.781C362.967 124.158 323.744 49.5405 247.36 37.0982Z" fill="url(#paint6_linear_260_891)" fill-opacity="0.4"/>
</g>
<g style="mix-blend-mode:overlay">
<path d="M234.878 526.781C201.396 526.781 183.285 512.526 174.168 500.13C170.124 494.632 174.651 487.829 181.476 487.829H285.265C293.028 487.829 298.297 496.839 293.569 502.996C284.598 514.677 269.065 526.781 234.878 526.781Z" fill="url(#paint7_linear_260_891)" fill-opacity="0.3"/>
</g>
<g style="mix-blend-mode:overlay">
<path d="M230.31 375.674C194.55 374.019 172.047 403.989 162.802 424.197C160.951 428.241 162.52 433.01 166.578 434.831C204.767 451.974 265.582 417.791 274.52 412.582C283.994 407.06 302.942 431.181 302.367 421.591C301.793 412.001 280.549 377.999 230.31 375.674Z" fill="url(#paint8_linear_260_891)" fill-opacity="0.3"/>
</g>
<defs>
<radialGradient id="paint0_radial_260_891" cx="0" cy="0" r="1" gradientUnits="userSpaceOnUse" gradientTransform="translate(381.002 138.519) rotate(-90) scale(144.704 63.7339)">
<stop stop-color="#1364DF"/>
<stop offset="0.300347" stop-color="#1364DF"/>
<stop offset="0.690972" stop-color="#64A2FF"/>
<stop offset="1" stop-color="#2477F4"/>
</radialGradient>
<radialGradient id="paint1_radial_260_891" cx="0" cy="0" r="1" gradientUnits="userSpaceOnUse" gradientTransform="translate(83.341 144.969) rotate(-90) scale(147.095 63.3387)">
<stop stop-color="#1364DF"/>
<stop offset="0.300347" stop-color="#1364DF"/>
<stop offset="0.690972" stop-color="#64A2FF"/>
<stop offset="1" stop-color="#2477F4"/>
</radialGradient>
<radialGradient id="paint2_radial_260_891" cx="0" cy="0" r="1" gradientUnits="userSpaceOnUse" gradientTransform="translate(299.581 164.797) rotate(-90) scale(69.1556 79.2534)">
<stop stop-color="#1364DF"/>
<stop offset="0.300347" stop-color="#1364DF"/>
<stop offset="0.690972" stop-color="#64A2FF"/>
<stop offset="1" stop-color="#2477F4"/>
</radialGradient>
<radialGradient id="paint3_radial_260_891" cx="0" cy="0" r="1" gradientUnits="userSpaceOnUse" gradientTransform="translate(166.391 164.331) rotate(-90) scale(68.4 80.6708)">
<stop stop-color="#1364DF"/>
<stop offset="0.300347" stop-color="#1364DF"/>
<stop offset="0.690972" stop-color="#64A2FF"/>
<stop offset="1" stop-color="#2477F4"/>
</radialGradient>
<linearGradient id="paint4_linear_260_891" x1="233.125" y1="31.9121" x2="233.125" y2="272.068" gradientUnits="userSpaceOnUse">
<stop stop-color="#010622"/>
<stop offset="1" stop-color="#0B4684"/>
</linearGradient>
<radialGradient id="paint5_radial_260_891" cx="0" cy="0" r="1" gradientUnits="userSpaceOnUse" gradientTransform="translate(232.896 536.019) rotate(-90) scale(207.396 213.941)">
<stop stop-color="#1364DF"/>
<stop offset="0.300347" stop-color="#1364DF"/>
<stop offset="0.690972" stop-color="#64A2FF"/>
<stop offset="1" stop-color="#2477F4"/>
</radialGradient>
<linearGradient id="paint6_linear_260_891" x1="243.661" y1="39.8799" x2="243.661" y2="153.954" gradientUnits="userSpaceOnUse">
<stop stop-color="white"/>
<stop offset="1" stop-color="white" stop-opacity="0"/>
</linearGradient>
<linearGradient id="paint7_linear_260_891" x1="235.339" y1="507.014" x2="235.339" y2="487.829" gradientUnits="userSpaceOnUse">
<stop stop-color="white"/>
<stop offset="1" stop-color="white" stop-opacity="0"/>
</linearGradient>
<linearGradient id="paint8_linear_260_891" x1="231.458" y1="397.179" x2="242.909" y2="436.046" gradientUnits="userSpaceOnUse">
<stop stop-color="white"/>
<stop offset="1" stop-color="white" stop-opacity="0"/>
</linearGradient>
</defs>
</svg>
