<svg width="496" height="733" viewBox="0 0 496 733" fill="none" xmlns="http://www.w3.org/2000/svg">
<g filter="url(#filter0_d_260_526)">
<path d="M192.062 106.594C189.123 114.091 186.847 121.787 185.236 129.682C187.886 127.937 190.556 126.224 193.247 124.541C208.089 115.274 224.083 108.849 241.23 105.267C241.613 105.188 242.116 105.388 242.056 104.671C232.879 95.6881 211.848 79.3059 199.657 93.6765C197.828 95.8309 196.338 97.9932 195.188 100.163C194.419 101.616 193.377 103.76 192.062 106.594ZM216.181 92.8293C216.396 92.4906 216.767 92.255 217.272 92.1361C217.777 92.0171 218.407 92.0171 219.125 92.1361C219.843 92.255 220.636 92.4905 221.458 92.8292C222.279 93.1679 223.114 93.6032 223.915 94.1101C225.531 95.1338 226.908 96.3874 227.743 97.595C228.578 98.8026 228.803 99.8653 228.368 100.549C228.153 100.888 227.782 101.124 227.277 101.243C226.772 101.362 226.142 101.362 225.424 101.243C224.706 101.124 223.913 100.888 223.092 100.549C222.27 100.211 221.435 99.7755 220.635 99.2686C219.019 98.2448 217.641 96.9913 216.806 95.7837C215.971 94.5761 215.746 93.5134 216.181 92.8293Z" fill="#D4D4D4"/>
<path d="M220.635 99.2684C217.269 97.1366 215.275 94.2536 216.181 92.8291C217.087 91.4047 220.549 91.9781 223.915 94.1099C227.28 96.2418 229.274 99.1247 228.368 100.549C227.463 101.974 224 101.4 220.635 99.2684Z" fill="white"/>
<path d="M192.062 106.594C190.348 107.957 188.815 109.414 187.462 110.967C178.971 120.705 172.403 131.607 167.76 143.671C173.408 138.787 179.234 134.124 185.236 129.682C186.847 121.787 189.123 114.091 192.062 106.594Z" fill="url(#paint0_radial_260_526)"/>
<path d="M308.285 132.359C310.431 134.217 322.053 143.931 324.446 142.264C324.583 142.171 324.634 142.042 324.6 141.877C323.891 138.487 320.252 134.962 317.831 132.611C315.993 130.962 300.657 117.886 298.843 121.803C298.774 121.952 298.777 122.099 298.852 122.245C300.653 125.882 305.029 129.635 308.285 132.359Z" fill="white"/>
<path fill-rule="evenodd" clip-rule="evenodd" d="M241.508 105.241C241.816 105.231 242.102 105.221 242.056 104.67C242.32 104.984 242.664 105.103 243.087 105.029C273.396 99.7666 300.805 106.056 325.314 123.898C330.216 127.489 334.842 131.409 339.193 135.656C342.139 138.791 344.944 142.045 347.61 145.416C347.516 145.779 347.337 146.031 347.073 146.171C339.167 150.362 332.377 155.895 326.704 162.772C325.58 164.14 325.492 165.831 325.404 167.526L325.393 167.736C324.728 180.579 325.544 193.209 327.842 205.627C327.864 205.748 327.822 205.841 327.717 205.907L327.539 206.009C327.516 206.023 327.496 206.029 327.478 206.029C327.447 206.027 327.424 206.005 327.409 205.962L327.189 205.371C327.146 205.256 327.186 205.205 327.311 205.217C327.426 205.227 327.507 205.185 327.553 205.092C327.634 204.921 327.589 204.874 327.418 204.952C327.234 205.029 327.135 204.95 327.119 204.714C327.107 204.575 327.032 204.508 326.895 204.514L326.009 204.556C325.866 204.565 325.742 204.524 325.636 204.43C324.802 203.719 323.936 203.681 323.037 204.314C322.916 204.404 322.835 204.522 322.795 204.668L322.314 206.423C322.274 206.575 322.174 206.652 322.015 206.652H321.367C319.249 195.24 315.866 184.219 311.22 173.589C304.329 157.351 293.622 142.683 279.01 132.862C232.907 103.897 177.207 133.22 147.195 170.329C138.872 180.437 132.197 191.536 127.171 203.625C127.087 203.15 127.12 202.69 127.269 202.246C128.869 197.51 131.011 193.063 133.232 188.593C141.424 172.108 153.638 156.839 167.191 144.396C167.421 144.185 167.611 143.943 167.76 143.67C173.408 138.787 179.234 134.124 185.236 129.681C187.886 127.937 190.556 126.223 193.247 124.54C208.089 115.273 224.083 108.849 241.23 105.266C241.319 105.248 241.414 105.244 241.508 105.241ZM285.626 135.586C285.67 135.541 285.713 135.495 285.753 135.446C285.759 135.438 285.766 135.431 285.772 135.423C285.726 135.48 285.678 135.534 285.626 135.586ZM298.852 122.244C300.653 125.881 305.029 129.635 308.285 132.359C310.431 134.217 322.053 143.931 324.446 142.264C324.583 142.17 324.634 142.042 324.6 141.877C323.893 138.498 320.276 134.986 317.855 132.634L317.831 132.61C315.992 130.962 300.657 117.886 298.843 121.802C298.774 121.951 298.777 122.099 298.852 122.244ZM317.408 131.371C317.391 131.356 317.375 131.342 317.359 131.327C317.364 131.332 317.369 131.336 317.374 131.341C317.386 131.351 317.397 131.361 317.408 131.371Z" fill="#EDEDED"/>
<path d="M347.61 145.417C347.516 145.78 347.338 146.031 347.073 146.171C339.167 150.362 332.377 155.896 326.704 162.772C325.533 164.197 325.487 165.971 325.393 167.736C324.728 180.579 325.544 193.21 327.843 205.627C327.864 205.749 327.822 205.842 327.717 205.907L327.539 206.009C327.477 206.047 327.434 206.031 327.409 205.963L327.189 205.371C327.146 205.256 327.186 205.205 327.311 205.218C327.426 205.227 327.507 205.185 327.553 205.092C327.634 204.921 327.589 204.875 327.418 204.952C327.234 205.03 327.135 204.951 327.119 204.715C327.107 204.575 327.032 204.508 326.895 204.514L326.009 204.556C325.866 204.566 325.742 204.524 325.636 204.431C324.802 203.72 323.936 203.681 323.037 204.314C322.916 204.404 322.835 204.522 322.795 204.668L322.314 206.424C322.274 206.576 322.174 206.652 322.015 206.652H321.367C324.163 221.274 325.123 236.02 324.246 250.89C323.866 256.627 323.205 262.332 322.263 268.004C319.291 285.154 311.934 306.691 298.022 317.616L298.796 318.384C304.982 321.556 310.73 325.253 313.529 331.917C315.041 333.845 315.619 335.979 315.265 338.32C315.268 338.36 315.271 338.402 315.274 338.445C315.28 338.504 315.311 338.545 315.367 338.566L320.872 340.574L329.611 338.669C329.931 337.803 330.08 336.902 330.059 335.968C332.146 324.627 334.399 313.323 336.819 302.053C336.856 301.88 336.96 301.821 337.131 301.876L338.61 302.365L338.62 301.699C338.623 301.554 338.697 301.485 338.843 301.495C348.501 302.171 358.143 303.031 367.769 304.074C369.784 299.439 371.411 294.673 372.649 289.774C354.449 281.606 344.302 256.623 339.879 238.741C339.867 238.711 339.867 238.678 339.879 238.648C339.885 238.634 339.894 238.62 339.905 238.609C339.916 238.598 339.93 238.589 339.944 238.583C339.974 238.57 340.008 238.57 340.037 238.583C340.067 238.595 340.091 238.618 340.103 238.648C342.206 242.262 344.695 245.566 347.572 248.562L348.333 248.851C348.56 248.935 348.653 248.857 348.613 248.618C348.476 247.798 348.718 247.114 349.341 246.564C346.737 243.429 344.666 240.188 343.126 236.841C336.01 221.372 333.53 205.197 335.685 188.319C338.722 164.504 355.256 143.032 379.903 139.032C378.354 138.495 376.566 138.293 374.538 138.427C365.164 139.042 356.443 141.323 348.375 145.272C348.185 145.365 347.93 145.413 347.61 145.417Z" fill="#D4D4D4"/>
<path d="M379.903 139.032C355.256 143.032 338.722 164.504 335.685 188.319C333.53 205.198 336.01 221.372 343.126 236.841C344.666 240.188 346.737 243.429 349.34 246.564C349.896 247.156 353.6 250.928 354.164 250.788C354.373 250.735 354.39 250.645 354.216 250.518C353.494 249.978 352.913 249.326 352.471 248.562C344.53 239.3 340.849 226.052 339.884 214.135C338.988 206.706 338.958 199.284 339.795 191.867C341.064 171.317 353.679 151.941 373.834 145.654C379.584 143.86 385.611 143.658 391.912 145.049C390.668 142.938 389.035 141.254 387.013 139.996C384.839 138.65 382.362 138.739 379.903 139.032Z" fill="#A7A7A7"/>
<path d="M152.014 176.5C150.372 178.341 148.856 180.281 147.465 182.321C148.479 182.399 149.356 182.756 150.097 183.392C151.66 184.729 153.834 185.297 155.257 186.172C159.138 188.572 164.534 192.114 171.445 196.799C173.675 198.312 176.241 200.408 178.747 202.07C179.535 202.596 179.983 203.309 180.548 204.044C180.635 204.162 180.681 204.294 180.687 204.44L180.706 205.022C185.059 195.113 186.305 183.252 182.885 172.891C181.495 170.2 180.426 168.03 177.893 166.716C169.495 162.372 157.58 170.782 152.014 176.5Z" fill="url(#paint1_radial_260_526)"/>
<path d="M147.465 182.321C143.159 188.542 140.635 196.589 142.287 204.035C143.822 210.941 148.538 216.943 154.925 219.873C166.286 225.079 176.447 214.876 180.706 205.022L180.687 204.44C180.681 204.294 180.635 204.162 180.548 204.044C179.983 203.309 179.535 202.596 178.747 202.07C176.241 200.408 173.675 198.312 171.445 196.799C164.534 192.114 159.138 188.572 155.257 186.172C153.834 185.297 151.66 184.729 150.097 183.392C149.356 182.756 148.479 182.399 147.465 182.321Z" fill="url(#paint2_radial_260_526)"/>
<path d="M416.172 212.724C417.783 205.866 418.438 198.914 418.136 191.867C417.991 177.459 413.167 160.066 401.812 150.548C399.361 148.496 396.061 146.663 391.912 145.049C385.611 143.658 379.584 143.86 373.834 145.654C353.679 151.94 341.064 171.317 339.795 191.867C338.958 199.283 338.988 206.706 339.884 214.135C340.849 226.052 344.53 239.3 352.471 248.562C357.438 254.277 363.713 257.525 371.296 258.304C371.843 258.36 372.372 258.489 372.882 258.69C372.145 255.092 371.184 251.552 369.999 248.068C369.877 247.719 369.826 247.151 369.947 246.723C372.061 239.314 377.739 235.756 385.03 234.797C386.211 234.638 387.298 234.843 388.175 235.537C392.985 239.351 394.352 246.061 393.913 251.822H394.133C394.282 251.819 394.414 251.77 394.529 251.677C406.416 242.145 413.34 227.402 416.172 212.724Z" fill="url(#paint3_radial_260_526)"/>
<path fill-rule="evenodd" clip-rule="evenodd" d="M270.164 197.744C258.011 196.184 246.898 205.325 241.668 215.733C239.532 219.703 238.222 223.933 237.74 228.422C237.311 232.445 237.622 236.403 238.673 240.296C241.608 250.322 249.483 260.469 259.975 262.979C269.926 265.359 279.602 260.12 284.585 251.379L286.097 248.571C287.431 245.647 288.406 242.617 289.022 239.482C291.723 225.512 288.551 200.105 270.164 197.744ZM281.563 249.858C280.677 249.509 279.793 249.158 278.912 248.804C279.474 249.03 280.037 249.254 280.602 249.478C280.922 249.605 281.242 249.732 281.563 249.858Z" fill="url(#paint4_radial_260_526)"/>
<path d="M372.882 258.691C373.072 258.948 373.152 259.228 373.124 259.529C373.109 259.696 373.017 259.79 372.849 259.808C369.736 260.14 366.613 260.249 363.481 260.134C358.671 259.957 350.413 251.752 347.572 248.562C344.695 245.566 342.205 242.262 340.103 238.648C340.091 238.619 340.067 238.595 340.037 238.583C340.007 238.571 339.974 238.571 339.944 238.583C339.915 238.595 339.891 238.619 339.879 238.649C339.867 238.678 339.867 238.712 339.879 238.741C344.302 256.623 354.449 281.606 372.649 289.774C374.222 284.226 375.496 278.618 376.469 272.949C376.469 272.928 376.477 272.908 376.491 272.893C376.505 272.877 376.525 272.868 376.546 272.868C376.567 272.867 376.588 272.875 376.603 272.889C376.619 272.904 376.627 272.924 376.628 272.945C379.21 283.922 381.155 294.997 382.464 306.17L392.262 308.033C392.554 306.369 392.772 304.695 392.915 303.013C394.056 289.716 394.49 277.94 394.216 267.683C394.005 259.8 393.904 254.514 393.913 251.822C394.352 246.062 392.985 239.351 388.175 235.538C387.298 234.844 386.211 234.639 385.03 234.797C377.738 235.756 372.061 239.314 369.947 246.723C369.826 247.151 369.877 247.719 369.999 248.069C371.184 251.552 372.145 255.092 372.882 258.691ZM388.567 247.878C388.987 246.369 390.592 245.405 391.049 247.673C393.615 260.479 393.82 274.458 392.892 287.45C392.845 288.071 392.638 288.753 392.271 289.495C392.19 289.659 392.061 289.718 391.884 289.671C389.295 288.973 387.806 266.514 387.68 263.473C387.475 258.462 387.195 252.753 388.567 247.878Z" fill="#A7A7A7"/>
<path d="M121.339 243.44C121.081 244.939 120.997 245.987 121.087 246.583C122.052 252.947 123.73 259.117 126.121 265.094C141.121 297.495 175.85 317.085 208.194 328.546C208.58 328.679 209.014 328.982 209.496 329.454C210.016 329.32 210.484 329.323 210.9 329.463C229.661 335.793 248.895 339.981 268.602 342.027C268.84 342.05 268.928 342.157 269.096 342.297C271.696 342.166 274.262 342.399 276.794 342.995C278.237 342.564 279.631 342.674 280.974 343.326L281.226 342.958C274.555 340.429 266.404 335.945 262.429 329.821C229.734 331.582 196.097 321.384 168.17 304.373C152.574 294.868 138.443 282.1 129.387 266.374C125.353 259.206 122.671 251.561 121.339 243.44Z" fill="#D4D4D4"/>
<path d="M177.776 268.954C179.53 274.92 183.067 280.41 189.738 281.174C197.963 282.114 209.202 276.019 215.472 271.073C216.867 269.974 219.876 267.371 218.71 265.578C215.79 262.044 209.319 258.817 204.392 256.223C195.948 251.771 187.14 247.254 178.677 245.41C178.524 245.376 178.38 245.398 178.243 245.475C177.249 246.039 176.964 247.776 176.792 248.833C175.703 255.591 176.031 262.298 177.776 268.954Z" fill="#3086D4"/>
<path d="M391.049 247.673C390.591 245.405 388.987 246.369 388.567 247.878C387.195 252.754 387.475 258.463 387.68 263.473C387.806 266.514 389.295 288.973 391.884 289.672C392.061 289.718 392.19 289.659 392.271 289.495C392.638 288.753 392.845 288.071 392.892 287.451C393.82 274.458 393.615 260.479 391.049 247.673Z" fill="#EDEDED"/>
<path d="M349.34 246.565C348.718 247.114 348.476 247.799 348.613 248.619C348.653 248.858 348.56 248.935 348.333 248.851L347.572 248.563C350.413 251.752 358.671 259.958 363.481 260.135C366.613 260.249 369.736 260.141 372.849 259.809C373.017 259.79 373.109 259.697 373.124 259.529C373.152 259.228 373.072 258.949 372.882 258.691C372.372 258.489 371.843 258.36 371.296 258.304C363.713 257.525 357.438 254.278 352.471 248.563C352.913 249.326 353.494 249.978 354.216 250.518C354.39 250.646 354.373 250.736 354.164 250.789C353.6 250.928 349.896 247.156 349.34 246.565Z" fill="#DBD9E0"/>
<path fill-rule="evenodd" clip-rule="evenodd" d="M279.01 132.862C232.907 103.898 177.207 133.221 147.195 170.33C138.872 180.438 132.197 191.536 127.171 203.625C122.521 214.956 120.422 226.753 120.873 239.016L121.339 243.44C122.671 251.561 125.353 259.206 129.387 266.374C138.443 282.1 152.574 294.868 168.17 304.373C196.097 321.383 229.735 331.582 262.429 329.821C260.408 327.049 259.674 324.136 260.227 321.081C261.156 315.972 266.05 313.477 270.846 312.689C276.677 311.614 283.34 312.554 288.924 314.203C292.075 315.032 295.107 316.17 298.021 317.616C311.934 306.692 319.291 285.155 322.263 268.004C323.205 262.332 323.866 256.628 324.245 250.891C325.123 236.02 324.163 221.274 321.367 206.652C319.249 195.24 315.866 184.219 311.22 173.59C304.329 157.352 293.622 142.683 279.01 132.862ZM152.014 176.5C157.58 170.782 169.495 162.372 177.893 166.716C180.358 167.994 181.436 170.083 182.773 172.675L182.885 172.891C186.305 183.252 185.059 195.113 180.706 205.022C176.447 214.876 166.286 225.079 154.925 219.872C148.538 216.943 143.822 210.941 142.287 204.035C140.635 196.589 143.159 188.542 147.465 182.321C148.856 180.281 150.372 178.341 152.014 176.5ZM176.792 248.832C175.703 255.591 176.032 262.298 177.776 268.954C179.531 274.919 183.067 280.409 189.738 281.173C197.963 282.114 209.202 276.018 215.472 271.073C216.867 269.974 219.877 267.371 218.71 265.578C216.009 262.308 210.269 259.302 205.524 256.816C205.14 256.615 204.762 256.417 204.392 256.222C195.948 251.771 187.14 247.254 178.677 245.41C178.524 245.376 178.38 245.397 178.243 245.475C177.249 246.038 176.965 247.775 176.792 248.832ZM238.673 240.297C237.622 236.404 237.311 232.445 237.74 228.422C238.222 223.933 239.532 219.703 241.668 215.733C246.898 205.325 258.011 196.184 270.165 197.744C288.551 200.105 291.723 225.512 289.022 239.482C288.406 242.617 287.431 245.647 286.097 248.571L284.585 251.38C279.603 260.12 269.927 265.359 259.975 262.979C249.483 260.469 241.608 250.322 238.673 240.297Z" fill="url(#paint5_linear_260_526)"/>
<path d="M338.61 302.366L348.683 306.082C373.894 306.729 399.39 311.749 423.338 319.502C423.725 319.628 424.173 319.572 424.569 319.558C424.268 319.152 423.992 318.88 423.744 318.743C414.007 313.393 403.057 310.408 392.262 308.033L382.464 306.17L367.769 304.075C358.142 303.032 348.501 302.172 338.843 301.495C338.697 301.486 338.622 301.554 338.619 301.7L338.61 302.366Z" fill="#FFD568"/>
<path d="M270.846 312.689C266.05 313.476 261.156 315.972 260.227 321.08C259.674 324.135 260.408 327.049 262.429 329.821C266.404 335.945 274.555 340.429 281.226 342.958C287.31 345.263 294.079 346.613 300.569 345.817C303.965 345.398 307.105 344.83 310.268 343.423C312.647 342.399 314.313 340.698 315.265 338.32C315.619 335.979 315.041 333.844 313.529 331.917C313.321 332.823 313.301 333.655 313.468 334.413C313.495 334.532 313.492 334.656 313.461 334.775C313.431 334.894 313.372 335.003 313.291 335.095C313.209 335.187 313.107 335.258 312.993 335.303C312.879 335.348 312.756 335.365 312.633 335.353C310.873 335.182 309.237 334.936 307.725 334.613C301.712 333.328 266.194 324.228 267.743 316.307C268.373 313.085 274.998 312.95 277.457 313.164C281.858 313.546 286.187 314.316 290.445 315.474C293.294 316.247 296.078 317.217 298.796 318.384L298.021 317.616C295.107 316.169 292.075 315.031 288.924 314.203C283.34 312.554 276.677 311.613 270.846 312.689Z" fill="#FFB800"/>
<path d="M313.529 331.917C310.73 325.254 304.982 321.556 298.796 318.385C296.077 317.218 293.294 316.248 290.445 315.475C286.187 314.317 281.857 313.547 277.456 313.165C274.998 312.951 268.373 313.086 267.743 316.308C266.194 324.229 301.712 333.328 307.725 334.614C309.237 334.936 310.873 335.183 312.633 335.354C312.755 335.366 312.879 335.348 312.993 335.303C313.107 335.258 313.209 335.187 313.29 335.096C313.372 335.004 313.43 334.894 313.461 334.776C313.492 334.657 313.495 334.533 313.468 334.413C313.3 333.656 313.321 332.824 313.529 331.917Z" fill="#FFD568"/>
<path d="M374.669 336.225C375.089 336.495 375.51 336.462 375.933 336.127C377.967 333.054 381.737 330.795 385.184 332.579C389.402 334.758 390.069 340.835 388.861 344.956C388.858 345.012 388.864 345.069 388.879 345.128C388.945 345.43 388.985 345.411 389.001 345.073C389.004 344.942 389.12 344.874 389.351 344.868C389.478 344.861 389.604 344.871 389.729 344.896L392.145 345.324C393.787 339.848 392.528 331.326 386.057 329.384C381.21 327.931 376.591 331.917 374.669 336.225Z" fill="#FFB800"/>
<path d="M209.496 329.454C205.347 331.397 201.654 333.997 198.416 337.254C198.602 337.3 198.752 337.398 198.864 337.547C198.96 337.674 198.957 337.8 198.854 337.924C193.212 344.652 188.796 352.107 185.605 360.29C185.552 360.43 185.465 360.546 185.344 360.64L185.12 360.807L185.353 361.119C191.889 366.335 199.601 369.147 207.756 370.87C229.702 375.508 252.543 375.69 274.228 369.501C272.301 364.686 270.015 359.555 269.119 354.437C267.874 350.693 267.244 345.915 269.096 342.297C268.928 342.157 268.84 342.05 268.602 342.027C248.895 339.981 229.661 335.793 210.9 329.463C210.484 329.323 210.016 329.32 209.496 329.454Z" fill="#CACACA"/>
<path d="M375.933 336.128C373.719 339.896 373.294 343.706 374.659 347.555C376.638 353.152 382.292 353.972 386.216 349.725C387.45 348.39 388.332 346.801 388.861 344.957C390.069 340.836 389.402 334.759 385.185 332.579C381.737 330.796 377.967 333.054 375.933 336.128Z" fill="#2477F4"/>
<path d="M375.933 336.126C375.51 336.462 375.088 336.494 374.669 336.224C372.905 340.077 372.557 344.075 373.624 348.22C374.841 352.96 379.185 356.569 384.172 354.912C388.329 353.529 391.086 349.528 392.145 345.323L389.728 344.895C389.604 344.87 389.478 344.861 389.35 344.867C389.12 344.873 389.004 344.942 389.001 345.072C388.985 345.41 388.945 345.429 388.879 345.128C388.864 345.069 388.857 345.011 388.861 344.956C388.332 346.8 387.45 348.389 386.215 349.724C382.292 353.971 376.637 353.151 374.659 347.554C373.294 343.704 373.718 339.895 375.933 336.126Z" fill="#E2A300"/>
<path d="M198.416 337.254C192.141 342.642 186.622 349.804 181.896 356.547C182.882 358.121 183.956 359.541 185.12 360.807L185.344 360.64C185.465 360.547 185.552 360.43 185.605 360.291C188.796 352.107 193.212 344.652 198.854 337.924C198.957 337.8 198.96 337.675 198.864 337.547C198.752 337.398 198.603 337.3 198.416 337.254Z" fill="#A7A7A7"/>
<path d="M315.265 338.32C314.313 340.698 312.647 342.4 310.268 343.424C315.322 346.057 320.519 348.368 325.86 350.358C326.364 350.547 326.881 350.654 327.413 350.679L328.794 343.326C326.126 342.563 323.485 341.645 320.872 340.574L315.367 338.567C315.311 338.545 315.28 338.505 315.274 338.446C315.271 338.403 315.268 338.361 315.265 338.32Z" fill="#A7A7A7"/>
<path d="M269.096 342.296C267.244 345.915 267.874 350.692 269.119 354.436C271.956 356.684 274.522 359.199 276.817 361.98C276.917 362.098 277.029 362.199 277.153 362.283L277.708 362.651C277.239 359.369 277.2 356.926 277.592 355.321C278.441 351.829 280.764 350.911 283.857 350.045C284.097 349.98 284.131 349.856 283.96 349.673C281.724 347.273 279.335 345.047 276.794 342.995C274.262 342.399 271.696 342.166 269.096 342.296Z" fill="#959495"/>
<path d="M276.794 342.995C279.335 345.047 281.724 347.273 283.96 349.673C284.131 349.856 284.097 349.98 283.857 350.045C280.764 350.911 278.441 351.829 277.592 355.321C277.2 356.926 277.239 359.37 277.708 362.651L279.201 367.946C291.135 364.226 302.223 358.848 312.465 351.81C312.786 351.59 313.064 351.329 313.3 351.028C312.401 350.839 310.804 350.641 308.509 350.437C299.974 349.667 292.315 349.258 285.532 349.212C285.373 349.212 285.254 349.145 285.173 349.012C283.938 346.963 282.538 345.067 280.974 343.326C279.63 342.674 278.237 342.564 276.794 342.995Z" fill="#CACACA"/>
<path d="M313.301 351.028C313.064 351.329 312.786 351.59 312.465 351.81C302.223 358.848 291.135 364.226 279.201 367.946C283.792 380.748 290.484 392.303 299.276 402.61C299.541 402.923 299.681 403.229 299.696 403.527C300.032 403.509 307.623 410.573 308.654 411.43C310.809 413.143 315.092 414.429 316.086 416.319C316.602 417.31 317.079 418.322 317.518 419.355C317.633 418.346 317.481 417.37 317.061 416.426C316.971 416.218 317.034 416.088 317.252 416.035C317.939 415.868 318.599 415.885 319.23 416.086C319.998 405.652 321.099 395.252 322.533 384.887C323.466 377.063 324.555 369.263 325.799 361.487L327.045 353.221C322.513 352.187 317.932 351.456 313.301 351.028Z" fill="#EDEDED"/>
<path d="M269.12 354.437C270.015 359.555 272.301 364.686 274.228 369.501C276.862 375.127 279.715 380.639 282.784 386.037C287.487 394.294 293.585 403.896 301.054 409.898L299.696 403.528C299.681 403.23 299.541 402.924 299.276 402.61C290.484 392.304 283.792 380.749 279.201 367.946L277.708 362.651L277.153 362.284C277.029 362.2 276.917 362.099 276.817 361.981C274.522 359.199 271.956 356.685 269.12 354.437Z" fill="#67636E"/>
<path d="M417.571 355.648L415.463 363.448C415.444 363.513 415.452 363.575 415.486 363.634L415.589 363.802C415.651 363.904 415.621 363.948 415.5 363.932C415.347 363.91 415.222 363.943 415.122 364.03L427 364.416C425.134 360.114 421.991 357.191 417.571 355.648Z" fill="#A7A7A7"/>
<path d="M181.896 356.546C176.68 363.687 171.735 370.999 167.06 378.484C167.489 378.517 167.75 378.754 167.806 379.201C169.589 393.23 170.739 407.31 171.259 421.442L171.38 421.568C171.458 421.648 171.49 421.633 171.478 421.521C171.438 421.158 171.461 420.799 171.548 420.445C171.647 420.023 171.766 420.019 171.903 420.431L172.042 420.865C172.111 421.073 172.223 421.099 172.378 420.944L172.509 420.818C172.609 420.715 172.73 420.67 172.873 420.683C174.058 420.798 174.57 421.478 174.408 422.723C175.182 401.414 177.874 380.687 185.18 361.189C185.189 361.164 185.207 361.147 185.231 361.138C185.269 361.129 185.309 361.122 185.353 361.119L185.12 360.807C183.956 359.541 182.882 358.12 181.896 356.546Z" fill="#DBD9E0"/>
<path d="M185.353 361.119C185.309 361.122 185.269 361.128 185.232 361.138C185.207 361.147 185.19 361.164 185.18 361.189C177.874 380.687 175.182 401.413 174.408 422.722L173.778 451.929C173.777 451.978 173.794 452.025 173.826 452.062C173.858 452.098 173.902 452.122 173.951 452.128C173.999 452.133 174.048 452.121 174.087 452.093C174.127 452.065 174.155 452.023 174.165 451.976C178.014 433.116 188.717 417.19 208.573 412.478C235.44 406.107 261.748 421.372 277.377 442.532C278.065 442.641 278.682 443.229 279.229 444.297C279.243 444.323 279.265 444.344 279.291 444.357C279.318 444.369 279.348 444.372 279.377 444.365C279.406 444.358 279.431 444.341 279.449 444.318C279.467 444.295 279.477 444.266 279.477 444.236V444.031C279.477 443.917 279.53 443.837 279.635 443.794C280.046 443.626 280.302 443.746 280.405 444.152C280.449 444.329 280.561 444.435 280.741 444.469C281.996 444.73 282.733 443.514 283.531 442.718C283.662 442.585 283.634 442.516 283.447 442.513C283.406 442.513 283.364 442.515 283.321 442.518C282.752 442.571 282.752 442.478 283.321 442.239C283.899 442 284.517 441.914 285.173 441.982C285.332 441.998 285.487 441.981 285.64 441.931C286.818 441.543 288.031 441.334 289.279 441.303C289.437 441.299 289.582 441.251 289.712 441.158C290.711 440.432 294.942 440.488 296.762 440.469C297.625 440.46 298.301 440.176 299.151 440.027C299.241 440.011 299.286 440.048 299.286 440.138V440.297C299.283 440.396 299.325 440.421 299.412 440.371L299.51 440.311C299.619 440.246 299.659 440.151 299.631 440.027C295.703 422.853 289.475 405.879 282.873 388.938C282.472 387.907 282.442 386.94 282.784 386.037C279.715 380.638 276.863 375.126 274.228 369.501C252.544 375.69 229.702 375.508 207.756 370.87C199.601 369.147 191.889 366.335 185.353 361.119ZM258.165 393.455C258.053 397.423 256.91 404.058 251.102 402.857C250.95 402.823 250.834 402.739 250.757 402.606C249.455 400.361 249.273 395.616 249.217 393.036C249.119 388.845 248.844 384.463 249.875 380.356C250.323 378.582 251.951 378.903 253.061 379.718C257.228 382.759 258.305 388.668 258.165 393.455Z" fill="#EDEDED"/>
<path d="M415.122 364.03C406.472 364.016 397.697 363.741 389.155 365.343C385.394 366.051 383.08 367.843 381.648 371.285C379.217 379.173 385.072 387.76 390.792 392.398C397.104 397.511 404.938 401.218 412.416 404.319C412.585 404.389 412.772 404.397 412.945 404.342C413.118 404.288 413.266 404.174 413.363 404.021C413.867 403.233 414.525 402.52 415.337 401.884C416.435 400.034 417.523 398.18 418.602 396.324C424.163 386.736 426.706 375.411 427 364.416L415.122 364.03ZM423.599 369.771C425.209 373.147 413.9 370.838 412.519 368.896C412.44 368.785 412.39 368.658 412.372 368.523C412.353 368.389 412.368 368.253 412.413 368.125C412.459 367.998 412.535 367.883 412.635 367.791C412.734 367.699 412.854 367.632 412.985 367.597C415.817 366.824 422.064 366.549 423.599 369.771Z" fill="#EDEDED"/>
<path d="M412.519 368.895C413.9 370.837 425.208 373.147 423.599 369.771C422.064 366.548 415.817 366.823 412.985 367.596C412.854 367.632 412.734 367.699 412.635 367.791C412.535 367.883 412.459 367.997 412.413 368.125C412.368 368.252 412.353 368.389 412.372 368.523C412.39 368.657 412.44 368.785 412.519 368.895Z" fill="white"/>
<path d="M381.648 371.285C379.101 373.236 380.081 379.979 380.85 382.791C385.212 393.562 393.414 400.189 402.661 407.123C405.186 408.603 406.787 409.597 407.462 410.103C409.944 411.961 414.632 403.588 415.337 401.884C414.525 402.52 413.867 403.233 413.363 404.021C413.266 404.174 413.118 404.287 412.945 404.342C412.772 404.396 412.585 404.388 412.416 404.319C404.938 401.218 397.104 397.511 390.792 392.398C385.072 387.76 379.217 379.173 381.648 371.285Z" fill="#A7A7A7"/>
<path d="M167.06 378.484C155.487 396.421 145.262 415.093 136.385 434.499C135.085 437.34 133.373 441.649 131.249 447.426C131.205 447.547 131.207 447.811 131.253 448.218C132.224 446.874 133.388 445.775 134.748 444.921C145.273 438.318 154.715 464.036 156.796 470.221C164.2 462.518 169.514 452.516 170.759 441.815C171.357 436.674 171.523 429.883 171.259 421.442C170.739 407.31 169.589 393.23 167.806 379.201C167.75 378.754 167.489 378.516 167.06 378.484Z" fill="#D4D4D4"/>
<path d="M251.102 402.858C256.91 404.059 258.053 397.423 258.165 393.456C258.305 388.669 257.228 382.759 253.061 379.719C251.951 378.904 250.323 378.582 249.875 380.357C248.844 384.464 249.119 388.846 249.217 393.037C249.273 395.617 249.455 400.362 250.757 402.606C250.834 402.74 250.95 402.824 251.102 402.858Z" fill="white"/>
<path fill-rule="evenodd" clip-rule="evenodd" d="M347.026 316.201C347.782 312.873 348.334 309.5 348.683 306.082C373.894 306.729 399.39 311.749 423.338 319.503C423.655 319.606 424.013 319.587 424.351 319.569C424.425 319.565 424.498 319.561 424.569 319.558L425.017 319.717C425.17 319.773 425.23 319.88 425.199 320.038C422.944 331.785 420.423 343.472 417.637 355.098C417.593 355.278 417.571 355.462 417.571 355.648L415.463 363.448C415.448 363.5 415.45 363.55 415.468 363.598C415.473 363.61 415.479 363.622 415.486 363.634L415.588 363.801C415.651 363.904 415.621 363.947 415.5 363.932C415.347 363.91 415.222 363.943 415.122 364.03C414.068 364.028 413.012 364.023 411.954 364.017C404.337 363.977 396.656 363.936 389.155 365.343C385.394 366.051 383.08 367.844 381.648 371.285C379.101 373.236 380.08 379.979 380.85 382.792C380.794 385.669 380.898 388.541 381.163 391.406C383.486 403.607 389.42 414.774 396.694 424.72C394.062 432.643 391.153 440.463 387.965 448.181C387.896 448.342 387.775 448.423 387.601 448.423L379.357 448.474L369.401 448.12C354.286 447.251 339.395 444.949 324.731 441.214C324.724 440.578 324.841 439.614 325.08 438.323C327.021 427.92 330.048 411.039 334.159 387.681L334.78 385.003L339.795 356.831L343.859 333.682L347.026 316.201ZM360.695 383.499H360.699H360.695ZM384.172 354.912C388.329 353.529 391.086 349.529 392.145 345.324C393.787 339.848 392.528 331.326 386.057 329.384C381.209 327.931 376.591 331.917 374.669 336.225C372.905 340.077 372.557 344.076 373.624 348.22C374.841 352.961 379.185 356.57 384.172 354.912ZM341.736 435.454C354.04 437.894 366.436 439.695 378.923 440.856C379.182 440.878 379.314 440.76 379.32 440.502L379.465 434.765C379.471 434.594 379.388 434.498 379.217 434.476L344.423 429.726C344.221 429.698 344.076 429.777 343.989 429.964L341.582 435.147C341.568 435.177 341.561 435.209 341.561 435.242C341.561 435.275 341.569 435.308 341.584 435.338C341.599 435.367 341.62 435.393 341.647 435.413C341.673 435.433 341.703 435.447 341.736 435.454Z" fill="#FFBE16"/>
<path d="M380.85 382.791C380.794 385.669 380.899 388.54 381.163 391.406C383.486 403.606 389.421 414.773 396.694 424.72L402.661 407.122C393.414 400.188 385.212 393.562 380.85 382.791Z" fill="#E2A300"/>
<path d="M336.819 302.053C334.399 313.322 332.145 324.627 330.058 335.968C330.08 336.902 329.931 337.803 329.611 338.669L328.794 343.325L327.413 350.678L327.045 353.221L325.799 361.487C324.555 369.263 323.466 377.063 322.533 384.886C321.099 395.252 319.998 405.652 319.23 416.086L318.764 421.674L317.985 439.584L323.681 441.097L324.731 441.214C324.724 440.577 324.841 439.613 325.081 438.322C327.021 427.919 330.048 411.038 334.159 387.68L334.78 385.003L339.795 356.83L343.859 333.681L347.026 316.2C347.782 312.872 348.334 309.499 348.683 306.081L338.61 302.365L337.131 301.876C337.061 301.853 337.002 301.85 336.954 301.866C336.886 301.888 336.841 301.951 336.819 302.053Z" fill="#E2A300"/>
<path d="M282.784 386.037C282.442 386.941 282.472 387.908 282.873 388.938C289.474 405.879 295.703 422.853 299.631 440.027C299.659 440.151 299.618 440.246 299.51 440.311L299.412 440.371C299.325 440.421 299.283 440.396 299.286 440.297V440.138C299.286 440.048 299.241 440.011 299.15 440.027C298.301 440.176 297.625 440.46 296.762 440.469C294.942 440.488 290.711 440.432 289.712 441.158C289.582 441.251 289.437 441.3 289.278 441.303C288.031 441.334 286.818 441.543 285.639 441.931C285.487 441.981 285.332 441.998 285.173 441.983C284.517 441.914 283.899 442 283.321 442.239C282.752 442.478 282.752 442.571 283.321 442.518C283.364 442.515 283.406 442.513 283.447 442.513C283.633 442.516 283.661 442.585 283.531 442.718C282.733 443.515 281.996 444.73 280.741 444.469C280.56 444.435 280.448 444.33 280.405 444.153C280.302 443.746 280.046 443.626 279.635 443.794C279.529 443.837 279.477 443.917 279.477 444.031V444.236C279.477 444.266 279.467 444.295 279.449 444.318C279.431 444.341 279.406 444.358 279.377 444.365C279.348 444.372 279.318 444.369 279.291 444.357C279.264 444.344 279.243 444.323 279.229 444.297C278.682 443.229 278.064 442.641 277.377 442.532C281.809 449.135 285.574 455.631 287.739 463.352C290.911 474.435 292.328 485.769 291.989 497.355L296.29 494.319C300.597 477.718 302.402 462.202 300.569 445.657C300.522 445.234 300.693 444.873 301.082 444.572C301.216 444.466 301.248 444.334 301.18 444.176C300.321 442.262 303.247 442.979 304.002 442.993C305.974 443.033 307.557 442.833 308.752 442.392C310.304 441.818 311.649 441.607 312.787 441.759C312.94 441.778 313.089 441.759 313.235 441.703C313.941 441.418 314.557 441.363 315.083 441.54C316.501 442.012 317.776 442.01 318.908 441.535C319.061 441.473 319.149 441.362 319.174 441.2C319.252 440.722 319.103 440.45 318.726 440.385C318.58 440.36 318.551 440.289 318.638 440.171L318.801 439.948C318.885 439.833 318.857 439.78 318.717 439.789C318.449 439.811 318.205 439.743 317.984 439.584L318.764 421.675L318.437 421.568C318.309 421.524 318.222 421.437 318.176 421.307L317.518 419.356C317.079 418.322 316.602 417.31 316.086 416.32C315.092 414.429 310.809 413.144 308.654 411.43C306.489 413.614 302.859 411.514 301.054 409.898C293.585 403.896 287.487 394.293 282.784 386.037Z" fill="#D4D4D4"/>
<path d="M299.696 403.528L301.054 409.898C302.859 411.514 306.489 413.614 308.654 411.43C307.623 410.573 300.032 403.509 299.696 403.528Z" fill="#A7A7A7"/>
<path d="M174.408 422.722C174.569 421.477 174.058 420.798 172.873 420.683C172.73 420.67 172.608 420.715 172.509 420.818L172.378 420.944C172.223 421.099 172.111 421.072 172.042 420.864L171.902 420.431C171.766 420.018 171.647 420.023 171.548 420.445C171.461 420.799 171.437 421.158 171.478 421.521C171.49 421.633 171.458 421.648 171.38 421.568L171.259 421.442C171.523 429.883 171.357 436.674 170.759 441.815C169.514 452.516 164.2 462.518 156.796 470.221L160.556 481.816C160.59 481.921 160.642 482.018 160.71 482.104L160.878 482.328C166.162 478.41 170.773 474.093 174.711 469.378C174.944 469.095 175.187 468.955 175.439 468.959L175.574 468.707C174.781 464.954 174.282 461.564 174.879 457.703C178.243 435.794 191.399 418.62 214.189 415.346C244.001 411.062 273.565 432.511 285.523 458.812L287.09 462.826C287.152 462.987 287.261 463.107 287.417 463.184L287.739 463.352C285.574 455.631 281.809 449.135 277.377 442.532C261.748 421.372 235.44 406.107 208.572 412.478C188.716 417.19 178.014 433.116 174.165 451.976C174.155 452.023 174.127 452.065 174.087 452.093C174.047 452.121 173.999 452.133 173.95 452.128C173.902 452.122 173.858 452.098 173.826 452.062C173.794 452.025 173.777 451.978 173.778 451.929L174.408 422.722Z" fill="#A7A7A7"/>
<path d="M317.518 419.356L318.176 421.307C318.223 421.437 318.31 421.524 318.437 421.568L318.764 421.675L319.23 416.087C318.599 415.885 317.939 415.868 317.252 416.035C317.034 416.088 316.971 416.219 317.061 416.427C317.481 417.37 317.633 418.347 317.518 419.356Z" fill="#E7DAF7"/>
<path d="M379.32 440.501L379.465 434.764C379.471 434.593 379.388 434.497 379.217 434.476L344.423 429.726C344.221 429.698 344.076 429.777 343.989 429.963L341.582 435.146C341.568 435.176 341.561 435.209 341.561 435.242C341.561 435.275 341.569 435.307 341.584 435.337C341.599 435.367 341.62 435.392 341.647 435.413C341.673 435.433 341.703 435.447 341.736 435.453C354.04 437.894 366.436 439.694 378.923 440.855C379.181 440.877 379.314 440.759 379.32 440.501Z" fill="#E2A300"/>
<path d="M317.985 439.584C318.205 439.742 318.45 439.811 318.717 439.789C318.857 439.78 318.885 439.832 318.801 439.947L318.638 440.171C318.551 440.289 318.58 440.36 318.726 440.385C319.103 440.45 319.252 440.722 319.174 441.2C319.149 441.361 319.061 441.473 318.908 441.535C317.776 442.01 316.501 442.012 315.083 441.54C314.557 441.363 313.941 441.417 313.235 441.703C313.089 441.759 312.94 441.777 312.787 441.759C311.649 441.607 310.304 441.818 308.752 442.392C307.558 442.833 305.974 443.033 304.003 442.993C303.247 442.979 300.322 442.262 301.18 444.175C301.248 444.334 301.216 444.466 301.082 444.571C300.693 444.872 300.522 445.234 300.569 445.656C302.402 462.201 300.597 477.718 296.291 494.319C304.385 488.805 313.067 484.758 322.949 484.689C325.454 470.462 326.018 455.356 323.681 441.097L317.985 439.584Z" fill="#DBD9E0"/>
<path d="M131.253 448.218C130.056 450.587 129.156 453.064 128.552 455.65C131.874 455.355 135.217 455.45 138.583 455.934C138.625 455.941 138.665 455.958 138.699 455.985C138.733 456.012 138.759 456.047 138.775 456.086C138.791 456.126 138.797 456.169 138.791 456.211C138.785 456.252 138.768 456.292 138.741 456.325C133.469 463.096 128.296 469.986 123.22 476.996C123.117 477.136 123.035 477.439 122.972 477.904L129.63 470.016C129.732 469.892 129.862 469.853 130.017 469.899C130.138 469.933 130.239 470.002 130.32 470.104C134.053 464.069 137.743 459.077 144.872 456.819C145.033 456.766 145.173 456.8 145.291 456.921C152.901 464.619 150.288 479.841 148.352 489.192C148.324 489.322 148.372 489.408 148.497 489.448C153.065 487.831 157.193 485.457 160.878 482.328L160.71 482.105C160.642 482.018 160.591 481.921 160.557 481.816L156.796 470.221C154.715 464.037 145.273 438.318 134.748 444.921C133.389 445.775 132.224 446.874 131.253 448.218Z" fill="#A7A7A7"/>
<path d="M128.552 455.65C117.668 457.298 107.418 464.595 102.272 474.305C95.9505 486.24 92.5494 500.41 91.1171 513.761C90.5993 518.571 91.8729 523.47 93.4685 528.168C93.5773 528.497 93.8168 528.802 94.1869 529.081C96.4978 523.828 98.8289 518.58 101.18 513.337C105.127 504.517 109.951 496.251 115.512 488.33C117.043 485.794 118.753 483.346 120.644 480.987C120.731 480.875 120.795 480.751 120.835 480.614C120.932 480.26 121.14 480.006 121.461 479.851C121.601 479.779 121.717 479.678 121.811 479.548L122.972 477.904C123.034 477.438 123.117 477.136 123.219 476.996C128.295 469.986 133.469 463.096 138.741 456.325C138.768 456.292 138.785 456.252 138.79 456.211C138.796 456.169 138.791 456.126 138.775 456.086C138.759 456.047 138.733 456.012 138.699 455.985C138.665 455.958 138.625 455.941 138.583 455.934C135.217 455.45 131.874 455.355 128.552 455.65Z" fill="#EDEDED"/>
<path d="M130.32 470.104C128.291 473.769 126.929 476.269 126.826 480.582C126.597 490.361 127.087 501.234 129.583 510.734L129.504 511.432H129.686C129.792 511.432 129.871 511.48 129.924 511.576C131.022 513.548 132.683 514.139 134.906 513.351C138.863 511.951 141.744 509.163 143.551 504.987C145.054 501.523 146.548 496.597 148.035 490.212C148.081 490.002 148.375 489.639 148.497 489.448C148.372 489.407 148.324 489.322 148.352 489.192C150.288 479.841 152.901 464.618 145.291 456.921C145.173 456.8 145.033 456.766 144.872 456.818C137.743 459.077 134.053 464.069 130.32 470.104ZM133.595 492.6C131.076 494.053 130.031 491.571 130.143 489.518C130.288 486.924 130.82 481.42 132.63 479.673C132.785 479.524 132.941 479.526 133.096 479.678C135.224 481.811 136.451 490.957 133.595 492.6Z" fill="#EDEDED"/>
<path d="M122.972 477.904L121.811 479.548C121.717 479.678 121.601 479.779 121.461 479.851C121.14 480.006 120.932 480.261 120.836 480.614C120.795 480.751 120.731 480.875 120.644 480.987C118.753 483.346 117.043 485.794 115.512 488.331C116.576 494.201 118.556 499.486 121.451 504.187C122.58 506.021 127.106 510.892 129.583 510.734C127.087 501.234 126.597 490.361 126.826 480.582C126.929 476.27 128.291 473.769 130.32 470.104C130.239 470.002 130.138 469.934 130.017 469.899C129.862 469.853 129.732 469.892 129.63 470.016L122.972 477.904Z" fill="#959495"/>
<path d="M133.595 492.601C136.45 490.957 135.223 481.811 133.096 479.678C132.941 479.526 132.785 479.525 132.63 479.674C130.819 481.42 130.288 486.924 130.143 489.518C130.031 491.571 131.076 494.053 133.595 492.601Z" fill="white"/>
<path d="M115.512 488.331C109.951 496.252 105.127 504.518 101.18 513.337C98.829 518.581 96.4979 523.829 94.187 529.082C94.8619 531.292 96.0034 533.245 97.6114 534.94C102.594 540.183 107.712 537.915 111.803 533.259C117.99 526.218 123.89 518.943 129.504 511.433L129.583 510.734C127.106 510.893 122.58 506.022 121.451 504.187C118.556 499.487 116.576 494.202 115.512 488.331Z" fill="#A7A7A7"/>
<path fill-rule="evenodd" clip-rule="evenodd" d="M174.879 457.703C174.282 461.564 174.781 464.954 175.574 468.707L175.439 468.959C179.134 491.003 187.797 513.383 204.947 528.564C210.064 532.879 215.712 536.311 221.892 538.86C223.161 539.103 224.421 539.554 225.693 540.01L225.697 540.012C226.888 540.438 228.091 540.869 229.324 541.137C239.022 543.745 248.78 543.978 258.599 541.836C258.674 541.46 258.715 541.076 258.756 540.694C258.817 540.126 258.877 539.565 259.047 539.046C260.064 535.939 261.505 533.013 263.372 530.268C266.258 525.345 269.566 520.69 273.295 516.303L273.509 515.972C277.242 511.474 281.22 507.205 285.443 503.166L291.989 497.355C292.328 485.769 290.911 474.435 287.739 463.352L287.417 463.184C287.261 463.107 287.153 462.987 287.09 462.826L285.523 458.812C273.565 432.511 244.001 411.062 214.189 415.346C191.399 418.62 178.243 435.794 174.879 457.703ZM239.7 499.93C239.398 500.062 239.093 500.19 238.785 500.315L238.783 500.315C239.092 500.19 239.398 500.062 239.7 499.93ZM177.962 479.328L177.961 479.35C177.961 479.335 177.962 479.319 177.963 479.303L177.962 479.328ZM225.097 453.568C225.14 453.571 225.181 453.571 225.222 453.567C225.262 453.564 225.301 453.556 225.339 453.546C225.369 453.538 225.397 453.527 225.425 453.515C225.458 453.501 225.491 453.483 225.522 453.463C225.484 453.488 225.444 453.508 225.404 453.524C225.307 453.562 225.205 453.577 225.097 453.568ZM284.351 503.486C284.331 503.487 284.311 503.485 284.292 503.48C284.289 503.479 284.285 503.478 284.282 503.477C284.304 503.484 284.327 503.487 284.351 503.486ZM284.282 503.477C284.277 503.475 284.273 503.474 284.268 503.472L284.266 503.471C284.271 503.473 284.277 503.475 284.282 503.477Z" fill="url(#paint6_radial_260_526)"/>
<path fill-rule="evenodd" clip-rule="evenodd" d="M322.948 484.688C313.067 484.758 304.385 488.805 296.29 494.319L291.989 497.355L285.443 503.166C281.22 507.205 277.242 511.474 273.509 515.972L273.295 516.303C269.566 520.689 266.258 525.344 263.372 530.268C261.506 533.012 260.064 535.939 259.047 539.046C258.877 539.564 258.817 540.126 258.756 540.694C258.715 541.075 258.674 541.459 258.599 541.835C258.611 542.578 258.543 543.34 258.476 544.082C258.417 544.746 258.359 545.394 258.361 545.998C258.37 550.953 258.37 555.871 258.361 560.751C258.361 560.77 258.359 560.788 258.353 560.806C258.349 560.82 258.343 560.833 258.336 560.846C258.325 560.865 258.311 560.883 258.294 560.897C258.286 560.904 258.277 560.911 258.267 560.916C258.252 560.925 258.236 560.932 258.22 560.936C258.204 560.94 258.188 560.943 258.172 560.943C258.139 560.943 258.106 560.935 258.076 560.918C250.948 556.909 240.19 552.145 231.89 553.244C232.017 553.539 232.168 553.817 232.342 554.078C235.642 558.958 239.051 563.846 242.569 568.742C247.455 575.491 252.579 582.141 257.941 588.691C258.495 589.371 259.097 590.006 259.747 590.596C260.336 589.845 260.209 589.215 260.076 588.553C260.027 588.308 259.976 588.058 259.961 587.797C259.535 580.601 259.094 573.405 258.636 566.208C258.445 563.206 260.775 564.039 262.452 564.639L262.459 564.642C262.699 564.727 262.925 564.808 263.129 564.872C263.192 564.892 263.246 564.921 263.291 564.96C263.322 564.986 263.348 565.015 263.371 565.049C263.389 565.076 263.405 565.105 263.418 565.137C263.647 565.687 263.908 566.027 264.011 566.609C265.863 576.905 271.853 600.072 283.932 603.15C292.278 605.273 300.489 593.632 303.904 587.625C303.967 587.51 304.063 587.454 304.194 587.457C305.341 587.473 306.248 587.96 306.913 588.919C307.022 589.078 307.161 589.108 307.329 589.012C307.425 588.953 307.467 588.846 307.455 588.691C307.442 588.508 307.514 588.37 307.669 588.277C307.738 588.236 307.802 588.214 307.861 588.211C307.932 588.208 307.996 588.233 308.052 588.286C317.019 570.001 324.878 551.251 331.631 532.038C335.414 520.727 339.398 508.191 339.702 496.423C339.755 494.356 339.19 492.335 338.008 490.36L337.929 490.011L336.958 489.196C336.745 489.098 336.535 489 336.327 488.903L335.847 488.678C331.655 486.722 328.345 485.177 322.948 484.688ZM264.071 564.281C264.087 564.288 264.098 564.291 264.105 564.289C264.098 564.292 264.088 564.289 264.071 564.281ZM274.853 561.635C274.947 561.637 275.04 561.639 275.134 561.641H275.128C275.036 561.639 274.945 561.637 274.853 561.635ZM317.801 552.797C317.852 552.8 317.9 552.796 317.945 552.783C317.97 552.777 317.994 552.767 318.017 552.756C317.999 552.765 317.98 552.773 317.961 552.779C317.912 552.795 317.858 552.801 317.801 552.797ZM289.941 512.456C289.798 512.525 289.65 512.536 289.498 512.489C289.574 512.512 289.65 512.521 289.724 512.515C289.797 512.51 289.87 512.49 289.941 512.456ZM302.827 538.99C304.161 540.48 305.467 538.445 306.018 537.23C308.857 530.937 310.554 524.356 311.108 517.486C311.206 516.252 311.117 514.813 310.706 513.783C310.476 513.209 310.123 513.121 309.647 513.518C306.643 516.014 304.127 518.774 302.099 521.798C299.92 525.053 300.144 535.982 302.827 538.99ZM299.848 549.584C299.951 550.456 300.274 551.023 300.745 551.163C300.978 551.232 301.241 551.193 301.518 551.05C301.795 550.906 302.081 550.661 302.359 550.327C302.638 549.993 302.903 549.577 303.141 549.104C303.379 548.63 303.583 548.108 303.744 547.567C304.068 546.474 304.192 545.37 304.089 544.499C303.985 543.627 303.662 543.06 303.191 542.92C302.958 542.852 302.695 542.89 302.419 543.033C302.142 543.176 301.856 543.422 301.577 543.756C301.299 544.09 301.033 544.506 300.796 544.979C300.558 545.453 300.353 545.975 300.192 546.516C299.868 547.609 299.744 548.713 299.848 549.584Z" fill="#EDEDED"/>
<path d="M302.827 538.991C304.161 540.481 305.467 538.446 306.018 537.231C308.858 530.938 310.554 524.356 311.108 517.486C311.206 516.252 311.117 514.813 310.707 513.784C310.476 513.21 310.123 513.121 309.648 513.519C306.643 516.015 304.127 518.775 302.099 521.798C299.92 525.053 300.144 535.983 302.827 538.991Z" fill="white"/>
<path d="M221.892 538.86C224.928 543.595 228.057 548.234 231.279 552.779C231.431 552.993 231.635 553.149 231.89 553.245C240.19 552.146 250.948 556.91 258.077 560.919C258.106 560.935 258.139 560.944 258.172 560.943C258.206 560.943 258.238 560.934 258.267 560.917C258.296 560.9 258.32 560.876 258.336 560.847C258.353 560.818 258.361 560.785 258.361 560.751C258.371 555.871 258.371 550.954 258.361 545.999C258.357 544.718 258.622 543.242 258.599 541.836C248.78 543.978 239.022 543.745 229.324 541.137C226.772 540.583 224.351 539.331 221.892 538.86Z" fill="#A7A7A7"/>
<path d="M303.744 547.567C303.069 549.843 301.726 551.453 300.745 551.163C299.764 550.873 299.517 548.793 300.192 546.517C300.868 544.241 302.21 542.631 303.191 542.921C304.172 543.211 304.419 545.291 303.744 547.567Z" fill="white"/>
<path d="M259.747 590.596C260.041 591.057 260.353 591.471 260.405 592.044C261.016 598.917 264.865 638.662 275.04 637.991C284.165 637.395 304.082 596.743 308.052 588.286C307.949 588.19 307.822 588.187 307.669 588.277C307.514 588.37 307.442 588.508 307.455 588.691C307.467 588.846 307.425 588.953 307.329 589.012C307.161 589.109 307.023 589.078 306.914 588.919C306.248 587.96 305.341 587.473 304.194 587.457C304.063 587.454 303.967 587.51 303.904 587.625C300.489 593.632 292.278 605.274 283.932 603.15C271.853 600.072 265.863 576.905 264.011 566.609C263.908 566.027 263.647 565.687 263.418 565.138C263.362 565.004 263.266 564.916 263.129 564.872C261.501 564.36 258.417 562.772 258.636 566.209C259.094 573.405 259.535 580.601 259.961 587.797C260.017 588.766 260.554 589.567 259.747 590.596Z" fill="#DBD9E0"/>
<g style="mix-blend-mode:screen">
<path d="M203.602 133.927C155.044 149.952 113.027 209.169 131.139 243.37C149.25 277.571 169.337 221.408 203.602 209.682C237.867 197.955 317.165 308.446 317.165 225.316C317.165 154.472 264.299 113.895 203.602 133.927Z" fill="url(#paint7_linear_260_526)" fill-opacity="0.4"/>
</g>
<g style="mix-blend-mode:overlay">
<path d="M242.295 532.078C222.426 531.622 210.339 522.928 203.632 513.97C199.282 508.159 205.333 502.022 212.582 501.657C248.747 499.839 256.675 452.654 270.578 472.479C286.291 494.885 281.353 532.974 242.295 532.078Z" fill="url(#paint8_linear_260_526)" fill-opacity="0.3"/>
</g>
<g style="mix-blend-mode:overlay">
<path d="M209.073 427.668C189.78 433.913 185.407 451.084 186.061 465.226C186.233 468.923 190.924 468.981 192.257 465.529C203.806 435.611 229.495 434.891 249.056 441.123C252.664 442.272 255.512 438.497 252.52 436.176C242.329 428.269 227.041 421.851 209.073 427.668Z" fill="url(#paint9_linear_260_526)" fill-opacity="0.3"/>
</g>
</g>
<defs>
<filter id="filter0_d_260_526" x="0.333336" y="0.888891" width="517.333" height="731.333" filterUnits="userSpaceOnUse" color-interpolation-filters="sRGB">
<feFlood flood-opacity="0" result="BackgroundImageFix"/>
<feColorMatrix in="SourceAlpha" type="matrix" values="0 0 0 0 0 0 0 0 0 0 0 0 0 0 0 0 0 0 127 0" result="hardAlpha"/>
<feOffset dy="3.55556"/>
<feGaussianBlur stdDeviation="45.3333"/>
<feComposite in2="hardAlpha" operator="out"/>
<feColorMatrix type="matrix" values="0 0 0 0 0.141176 0 0 0 0 0.466667 0 0 0 0 0.956863 0 0 0 0.3 0"/>
<feBlend mode="normal" in2="BackgroundImageFix" result="effect1_dropShadow_260_526"/>
<feBlend mode="normal" in="SourceGraphic" in2="effect1_dropShadow_260_526" result="shape"/>
</filter>
<radialGradient id="paint0_radial_260_526" cx="0" cy="0" r="1" gradientUnits="userSpaceOnUse" gradientTransform="translate(179.911 143.671) rotate(-90) scale(46.1209 30.2301)">
<stop stop-color="#1364DF"/>
<stop offset="0.300347" stop-color="#1364DF"/>
<stop offset="0.690972" stop-color="#64A2FF"/>
<stop offset="1" stop-color="#2477F4"/>
</radialGradient>
<radialGradient id="paint1_radial_260_526" cx="0" cy="0" r="1" gradientUnits="userSpaceOnUse" gradientTransform="translate(163.313 221.28) rotate(-90) scale(69.3678 53.5801)">
<stop stop-color="#1364DF"/>
<stop offset="0.300347" stop-color="#1364DF"/>
<stop offset="0.690972" stop-color="#64A2FF"/>
<stop offset="1" stop-color="#2477F4"/>
</radialGradient>
<radialGradient id="paint2_radial_260_526" cx="0" cy="0" r="1" gradientUnits="userSpaceOnUse" gradientTransform="translate(163.313 221.28) rotate(-90) scale(69.3678 53.5801)">
<stop stop-color="#1364DF"/>
<stop offset="0.300347" stop-color="#1364DF"/>
<stop offset="0.690972" stop-color="#64A2FF"/>
<stop offset="1" stop-color="#2477F4"/>
</radialGradient>
<radialGradient id="paint3_radial_260_526" cx="0" cy="0" r="1" gradientUnits="userSpaceOnUse" gradientTransform="translate(378.698 258.69) rotate(-90) scale(142.497 98.2939)">
<stop stop-color="#1364DF"/>
<stop offset="0.300347" stop-color="#1364DF"/>
<stop offset="0.690972" stop-color="#64A2FF"/>
<stop offset="1" stop-color="#2477F4"/>
</radialGradient>
<radialGradient id="paint4_radial_260_526" cx="0" cy="0" r="1" gradientUnits="userSpaceOnUse" gradientTransform="translate(263.708 263.553) rotate(-90) scale(82.0802 65.07)">
<stop stop-color="#1364DF"/>
<stop offset="0.300347" stop-color="#1364DF"/>
<stop offset="0.690972" stop-color="#64A2FF"/>
<stop offset="1" stop-color="#2477F4"/>
</radialGradient>
<linearGradient id="paint5_linear_260_526" x1="222.686" y1="121.131" x2="222.686" y2="330.018" gradientUnits="userSpaceOnUse">
<stop stop-color="#010622"/>
<stop offset="1" stop-color="#0B4684"/>
</linearGradient>
<radialGradient id="paint6_radial_260_526" cx="0" cy="0" r="1" gradientUnits="userSpaceOnUse" gradientTransform="translate(233.327 543.285) rotate(-90) scale(159.829 146.066)">
<stop stop-color="#1364DF"/>
<stop offset="0.300347" stop-color="#1364DF"/>
<stop offset="0.690972" stop-color="#64A2FF"/>
<stop offset="1" stop-color="#2477F4"/>
</radialGradient>
<linearGradient id="paint7_linear_260_526" x1="208.969" y1="101.68" x2="222.136" y2="256.078" gradientUnits="userSpaceOnUse">
<stop stop-color="white"/>
<stop offset="1" stop-color="white" stop-opacity="0"/>
</linearGradient>
<linearGradient id="paint8_linear_260_526" x1="238.095" y1="489.356" x2="255.43" y2="522.971" gradientUnits="userSpaceOnUse">
<stop stop-color="white"/>
<stop offset="1" stop-color="white" stop-opacity="0"/>
</linearGradient>
<linearGradient id="paint9_linear_260_526" x1="224.85" y1="443.549" x2="238.243" y2="472.947" gradientUnits="userSpaceOnUse">
<stop stop-color="white"/>
<stop offset="1" stop-color="white" stop-opacity="0"/>
</linearGradient>
</defs>
</svg>
