<svg width="257" height="338" viewBox="0 0 257 338" fill="none" xmlns="http://www.w3.org/2000/svg">
<path d="M7.3848 235.367C0.728393 230.659 -0.119972 220.983 0.287896 216.733L8.6084 226.295L7.3848 235.367Z" fill="#D9D9D9"/>
<path d="M3.96908 223.525C6.48523 219.764 41.8897 220.685 44.6935 217.134L45.4324 208.875L14.411 208.926C14.2711 209.007 14.1342 209.004 14.0002 208.917C13.9194 208.863 13.8337 208.85 13.7431 208.875C9.60531 210.017 5.28136 211.76 1.92091 214.49C1.35936 214.946 -0.21299 216.319 0.0796089 217.134C0.893368 219.412 2.18984 221.542 3.96908 223.525Z" fill="#EDEDED"/>
<path d="M7.21981 235.319C9.73596 231.559 45.1404 232.479 47.9442 228.928L48.6831 214.786L17.6618 214.836C17.5219 214.917 17.3849 214.914 17.2509 214.827C17.1702 214.774 17.0844 214.76 16.9938 214.786C12.856 215.927 8.53209 217.67 5.17164 220.4C4.61009 220.856 3.03775 222.229 3.33035 223.044C4.1441 225.323 5.44057 233.337 7.21981 235.319Z" fill="#D4D4D4"/>
<path d="M85.4179 18.177C80.6811 22.404 76.3187 26.9936 72.3307 31.9459L69.0885 36.2589C66.1231 40.5432 63.3853 44.9688 60.875 49.5357C59.3125 52.4703 57.8555 55.4553 56.5038 58.4906C56.5373 58.5815 56.5866 58.6408 56.6516 58.6685C56.758 58.7159 56.8328 58.6853 56.8762 58.5766C57.0456 58.1577 57.2644 57.7654 57.5323 57.3998C57.5619 57.3603 57.5639 57.3198 57.5383 57.2783L57.4762 57.1716C57.419 57.0767 57.4456 57.0293 57.556 57.0293C57.7983 57.0273 57.9175 56.9275 57.9136 56.7299C57.9116 56.6271 57.9441 56.5372 58.0111 56.4601L58.4811 55.9206C58.5658 55.8238 58.6722 55.7685 58.8002 55.7547C58.9165 55.7428 58.9943 55.6726 59.0338 55.5442C59.0633 55.4454 59.1263 55.3802 59.2229 55.3486C59.7628 55.1707 60.212 54.8664 60.5706 54.4356C60.6258 54.3684 60.6967 54.3229 60.7834 54.2992C61.1184 54.2123 61.4553 54.148 61.7942 54.1065C62.9853 53.9643 63.8336 53.5463 65.1104 53.7034C65.2089 53.7153 65.3034 53.6995 65.3941 53.656C66.9043 52.9475 68.7072 52.3695 69.5939 54.2488C69.8688 54.8298 69.1269 55.4167 69.8954 55.8554C69.9781 55.9029 70.0382 55.971 70.0757 56.06C70.3357 56.6706 70.2008 57.1577 69.6707 57.5213C69.6404 57.5425 69.615 57.5701 69.5962 57.602C69.5775 57.6339 69.5659 57.6694 69.5622 57.7061C69.5586 57.7428 69.5629 57.7798 69.575 57.8144C69.5872 57.849 69.6067 57.8805 69.6323 57.9067L69.8688 58.1468C69.8944 58.1725 69.8914 58.1922 69.8599 58.2061L69.7239 58.2743C69.6353 58.3158 69.6028 58.3849 69.6264 58.4818C69.65 58.5806 69.5929 58.6468 69.455 58.6804C69.3289 58.712 69.2747 58.792 69.2924 58.9205C69.322 59.1438 69.451 59.2722 69.6796 59.3058L70.6165 57.8237C78.5078 44.3423 90.0285 31.8451 103.816 24.4019C132.186 9.08867 165.504 18.2985 186.559 41.5085L187.059 41.9976C187.075 41.5984 186.918 41.2951 186.589 41.0876C186.455 41.0026 186.456 40.9196 186.592 40.8386L187.381 40.3554C187.466 40.3041 187.512 40.229 187.52 40.1302C187.671 38.0433 190.446 37.4505 192.063 37.8121C192.153 37.8319 192.226 37.8803 192.281 37.9574L192.595 38.405C192.693 38.5413 192.804 38.5522 192.926 38.4376C193.146 38.2321 193.258 37.9702 193.26 37.6521C193.262 37.5493 193.312 37.4871 193.41 37.4653L194.862 37.1304C195.003 37.0987 195.088 37.1541 195.116 37.2964L195.225 37.8684C195.245 37.9732 195.301 38.0512 195.394 38.1026C195.656 38.2469 195.891 38.2113 196.1 37.9959C196.173 37.9208 196.186 37.8368 196.138 37.744L195.695 36.8576C195.648 36.7648 195.651 36.6729 195.704 36.582C195.931 36.1937 195.958 35.8913 195.651 35.5089C191.513 30.3729 186.98 25.6123 182.052 21.2272C158.665 1.10598 129.34 -7.46364 100.592 7.78144C95.2322 10.6212 90.2699 14.0389 85.7046 18.0347C85.6198 18.1079 85.5243 18.1553 85.4179 18.177ZM116.823 7.66583C116.888 7.7489 116.92 7.85253 116.914 7.95729C116.908 8.06206 116.864 8.16078 116.791 8.23497C116.109 8.9286 115.351 9.50465 114.515 9.96311C111.343 11.71 108.017 13.0845 104.537 14.0864C103.883 14.2741 103.209 14.3828 102.516 14.4124C102.413 14.4164 102.329 14.3779 102.264 14.2968C100.846 12.5687 113.132 2.92602 116.823 7.66583Z" fill="#EDEDED"/>
<path d="M116.824 7.66588C113.132 2.92607 100.846 12.5687 102.265 14.2969C102.33 14.3779 102.414 14.4164 102.516 14.4125C103.21 14.3828 103.883 14.2742 104.538 14.0864C108.017 13.0845 111.343 11.7101 114.515 9.96317C115.351 9.5047 116.109 8.92865 116.791 8.23502C116.865 8.16084 116.909 8.06211 116.915 7.95734C116.921 7.85258 116.888 7.74895 116.824 7.66588Z" fill="white"/>
<path d="M55.6049 15.5481C57.1044 14.1055 58.6846 12.8655 60.3456 11.828C60.5899 11.6759 60.8067 11.7085 60.9958 11.9258C64.2213 15.6825 66.4468 19.9362 67.6724 24.6869C68.7206 28.4692 69.1925 32.3267 69.0881 36.2593L72.3303 31.9463C72.0525 31.0155 71.8161 30.1025 71.621 29.2073C70.025 21.8442 67.2054 15.1628 62.7751 9.22838C62.2706 8.55253 61.9564 8.0911 61.8322 7.84408C60.7978 6.98149 59.4353 9.02385 58.8944 9.82123C57.6629 11.6314 56.5664 13.5404 55.6049 15.5481Z" fill="#A7A7A7"/>
<path d="M61.8323 7.84338C61.9564 8.0904 62.2707 8.55184 62.7751 9.22768C67.2054 15.1621 70.025 21.8435 71.621 29.2066C71.8161 30.1018 72.0525 31.0148 72.3304 31.9456C76.3184 26.9933 80.6807 22.4037 85.4175 18.1767C79.3645 13.4438 72.6151 10.1258 65.1691 8.22281C64.3199 8.00543 63.2076 7.87895 61.8323 7.84338ZM66.6646 10.446C68.5384 10.4786 76.5331 11.4716 76.4031 14.4062C76.3972 14.5129 76.3548 14.6038 76.276 14.6789C75.7125 15.2125 74.9864 15.4773 74.0978 15.4733C71.0299 15.4585 67.4448 14.1276 66.2272 11.0863C66.1983 11.015 66.1876 10.9377 66.1958 10.8613C66.204 10.7849 66.231 10.7117 66.2744 10.6483C66.3177 10.5848 66.376 10.5332 66.4441 10.4979C66.5122 10.4626 66.5879 10.4448 66.6646 10.446Z" fill="#EDEDED"/>
<path d="M206.805 10.2594C200.937 17.8182 197.392 26.3632 196.17 35.8942C196.159 35.9949 196.183 36.0859 196.244 36.1669L199.637 40.6429L199.723 40.2605C199.599 39.8455 199.533 39.5431 199.525 39.3534C199.076 30.2265 201.677 21.1649 207.691 14.1989C207.764 14.1159 207.847 14.1041 207.939 14.1633L209.465 15.1504L212.964 18.0198C211.595 15.3283 210.277 13.0784 208.241 10.5974C207.798 10.0559 207.319 9.94326 206.805 10.2594Z" fill="#A7A7A7"/>
<path d="M182.052 21.2277C186.98 25.6128 191.513 30.3734 195.651 35.5094C195.958 35.8918 195.931 36.1942 195.704 36.5825C195.651 36.6734 195.648 36.7653 195.695 36.8582L196.138 37.7445C196.186 37.8374 196.173 37.9213 196.1 37.9964C195.891 38.2118 195.656 38.2474 195.394 38.1032C195.301 38.0518 195.245 37.9737 195.225 37.869L195.116 37.2969C195.088 37.1546 195.003 37.0993 194.862 37.1309L193.41 37.4658C193.312 37.4876 193.262 37.5498 193.26 37.6526C193.258 37.9708 193.146 38.2326 192.926 38.4381C192.803 38.5527 192.693 38.5419 192.595 38.4055L192.281 37.9579C192.226 37.8808 192.153 37.8324 192.063 37.8127C190.446 37.451 187.671 38.0439 187.52 40.1307C187.512 40.2295 187.466 40.3046 187.381 40.356L186.592 40.8391C186.456 40.9202 186.455 41.0032 186.589 41.0881C186.918 41.2956 187.075 41.599 187.059 41.9982C193.642 49.3297 198.968 57.4912 203.037 66.4828C206.093 73.1325 208.313 80.053 209.698 87.2443C211.087 87.3451 210.109 85.0389 209.914 85.1011C209.883 85.111 209.872 85.1308 209.882 85.1604C209.893 85.196 209.904 85.2316 209.914 85.2671C209.948 85.3798 209.909 85.4163 209.799 85.3768C209.604 85.3116 209.828 84.4401 209.852 84.3067C209.865 84.2253 209.897 84.1482 209.945 84.0812C209.993 84.0142 210.056 83.9592 210.129 83.9205C210.201 83.8818 210.282 83.8604 210.364 83.858C210.446 83.8556 210.528 83.8722 210.603 83.9065L212.29 84.6743C212.393 84.7217 212.499 84.7385 212.61 84.7247C213.049 84.6713 213.491 84.6446 213.937 84.6446C214.912 84.6417 215.719 85.1545 216.65 84.2267C217.031 83.8502 217.501 83.7198 217.746 84.2949C217.798 84.4115 217.837 84.4075 217.865 84.283C217.9 84.115 218.002 84.0152 218.172 83.9836L218.048 83.0944L216.644 76.6471C216.573 76.493 216.515 76.3349 216.469 76.1729C215.342 72.0565 213.989 68.0153 212.409 64.0491C209.554 57.1247 206.096 50.5144 201.967 44.2717C201.175 43.0742 200.398 41.8648 199.638 40.6435L196.245 36.1675C196.184 36.0865 196.159 35.9956 196.171 35.8948C197.392 26.3638 200.937 17.8189 206.805 10.2601C206.61 10.2186 206.412 10.1504 206.208 10.183C197.504 11.588 189.302 15.7202 182.407 21.1329C182.356 21.1744 182.237 21.206 182.052 21.2277ZM192.305 17.0837C190.99 14.2055 200.04 12.9575 201.556 12.8656C203.208 12.7678 201.647 14.8724 201.284 15.2281C199.185 17.2675 196.625 18.14 193.602 17.8456C192.938 17.7823 192.506 17.5284 192.305 17.0837Z" fill="#EDEDED"/>
<path d="M76.403 14.4072C76.533 11.4726 68.5383 10.4796 66.6645 10.447C66.5878 10.4457 66.5121 10.4636 66.444 10.4989C66.3759 10.5341 66.3176 10.5858 66.2743 10.6492C66.2309 10.7127 66.2039 10.7858 66.1957 10.8623C66.1875 10.9387 66.1982 11.016 66.227 11.0872C67.4447 14.1285 71.0298 15.4595 74.0977 15.4743C74.9863 15.4783 75.7124 15.2135 76.2759 14.6799C76.3547 14.6048 76.3971 14.5139 76.403 14.4072Z" fill="white"/>
<path d="M192.305 17.084C192.506 17.5286 192.938 17.7825 193.602 17.8458C196.625 18.1402 199.185 17.2677 201.284 15.2283C201.647 14.8726 203.208 12.768 201.556 12.8659C200.04 12.9577 190.99 14.2057 192.305 17.084Z" fill="white"/>
<path fill-rule="evenodd" clip-rule="evenodd" d="M55.6049 15.5469C52.807 18.2048 50.5175 21.2629 48.7362 24.7212C47.489 27.0452 46.4221 29.1765 45.494 31.6635C43.4547 36.9576 42.2991 42.4414 42.0272 48.115C41.9937 48.8145 42.0203 49.5101 42.107 50.2018L42.3168 53.3766C43.0754 59.9769 45.4044 65.9914 49.3037 71.4199C49.7332 72.1352 50.3106 72.7409 51.0357 73.2369C52.4996 68.1879 54.3222 63.2722 56.5034 58.4899C57.8551 55.4545 59.3122 52.4695 60.8747 49.5349C63.3849 44.968 66.1227 40.5423 69.0881 36.258C69.1925 32.3255 68.7206 28.468 67.6724 24.6856C66.4468 19.9349 64.2213 15.6813 60.9958 11.9246C60.8067 11.7072 60.5899 11.6746 60.3456 11.8268C58.6846 12.8643 57.1044 14.1043 55.6049 15.5469Z" fill="url(#paint0_radial_516_1270)"/>
<path d="M56.5031 58.4916C54.3219 63.2739 52.4993 68.1896 51.0354 73.2387C47.9468 83.1303 46.1469 93.9112 46.6996 104.289C46.8099 104.366 46.8227 104.475 46.738 104.615C46.7163 104.651 46.7252 104.66 46.7646 104.642C46.7961 104.628 46.8237 104.607 46.8473 104.58C46.871 104.554 46.8917 104.557 46.9094 104.588L47.0601 104.882C47.1074 104.977 47.1311 104.977 47.1311 104.882C47.1311 104.832 47.1547 104.808 47.202 104.808C47.2926 104.806 47.3409 104.85 47.3468 104.941L47.3646 105.152C47.3744 105.286 47.4296 105.309 47.5301 105.22L47.7665 105.015C47.8414 104.952 47.9222 104.944 48.0089 104.992C48.6138 105.331 49.194 105.322 49.7497 104.962C49.8443 104.899 49.9034 104.812 49.927 104.701L50.326 102.899C50.3348 102.846 50.3629 102.799 50.4048 102.766C50.4466 102.733 50.4992 102.717 50.5522 102.721C50.6052 102.725 50.6547 102.749 50.6911 102.788C50.7274 102.827 50.748 102.878 50.7487 102.931L50.858 104.674C50.862 104.753 50.9024 104.806 50.9792 104.831C51.7476 105.086 52.4629 105.067 53.1249 104.772C53.8963 104.428 54.2894 104.494 55.0667 104.517C55.1711 104.519 55.2588 104.482 55.3297 104.405C55.8322 103.859 55.7908 102.596 55.8943 101.903C55.895 101.89 55.8984 101.877 55.9042 101.865C55.9099 101.853 55.918 101.842 55.9279 101.833C55.9378 101.824 55.9493 101.818 55.9618 101.813C55.9742 101.809 55.9875 101.807 56.0007 101.808C56.0139 101.809 56.0268 101.812 56.0387 101.818C56.0506 101.824 56.0612 101.832 56.07 101.842C56.0788 101.852 56.0855 101.863 56.0898 101.876C56.0942 101.888 56.096 101.901 56.0952 101.915C56.11 102.691 55.9563 107.23 56.0834 107.313C56.1563 107.364 56.1967 107.345 56.2046 107.256C56.2204 107.031 56.3199 106.857 56.5031 106.735C56.4006 104.608 56.4085 102.484 56.5267 100.361C56.5602 99.2054 56.644 98.0503 56.778 96.8962C58.3296 83.6135 63.1028 70.8821 69.6789 59.3067C69.4503 59.2732 69.3213 59.1447 69.2917 58.9214C69.274 58.7929 69.3282 58.7129 69.4543 58.6813C69.5922 58.6477 69.6493 58.5815 69.6257 58.4827C69.6021 58.3859 69.6346 58.3167 69.7232 58.2752L69.8592 58.207C69.8907 58.1932 69.8937 58.1734 69.8681 58.1477L69.6316 57.9076C69.606 57.8815 69.5864 57.85 69.5743 57.8153C69.5622 57.7807 69.5579 57.7437 69.5615 57.707C69.5652 57.6704 69.5768 57.6348 69.5955 57.6029C69.6143 57.571 69.6397 57.5435 69.67 57.5223C70.2001 57.1587 70.335 56.6715 70.0749 56.0609C70.0375 55.972 69.9774 55.9038 69.8947 55.8564C69.1262 55.4177 69.8681 54.8307 69.5932 54.2498C68.7065 52.3704 66.9036 52.9485 65.3934 53.6569C65.3027 53.7004 65.2082 53.7162 65.1096 53.7043C63.8328 53.5472 62.9846 53.9652 61.7935 54.1075C61.4546 54.149 61.1177 54.2132 60.7827 54.3001C60.696 54.3239 60.6251 54.3693 60.5699 54.4365C60.2113 54.8673 59.7621 55.1716 59.2222 55.3495C59.1256 55.3811 59.0626 55.4463 59.033 55.5451C58.9936 55.6736 58.9158 55.7437 58.7996 55.7556C58.6715 55.7694 58.5651 55.8248 58.4804 55.9216L58.0104 56.4611C57.9434 56.5381 57.9109 56.6281 57.9129 56.7308C57.9168 56.9284 57.7976 57.0282 57.5553 57.0302C57.4449 57.0302 57.4183 57.0776 57.4755 57.1725L57.5375 57.2792C57.5632 57.3207 57.5612 57.3612 57.5316 57.4007C57.2637 57.7663 57.0449 58.1586 56.8755 58.5775C56.8321 58.6862 56.7573 58.7169 56.6509 58.6694C56.5859 58.6418 56.5366 58.5825 56.5031 58.4916Z" fill="#EDEDED"/>
<path d="M218.594 64.0456C218.565 66.8142 219.068 69.4791 220.104 72.0402C225.97 75.3918 231.483 79.2492 236.644 83.6126C236.787 83.5039 236.95 83.5404 237.131 83.7223C237.401 83.989 237.453 83.9515 237.288 83.6096C237.225 83.4812 237.137 83.3725 237.025 83.2836C236.739 83.0543 236.77 83 237.116 83.1205C237.227 83.1581 237.334 83.2094 237.439 83.2747C237.527 83.328 237.616 83.327 237.705 83.2717L238.565 82.7203C238.665 82.6551 238.676 82.5781 238.597 82.4891L238.343 82.1957C238.272 82.1147 238.243 82.0208 238.254 81.9141C238.276 81.7224 238.24 81.5228 238.145 81.3153C235.976 78.5961 233.794 75.5914 231.601 72.3011C230.697 70.9434 229.361 68.904 229.267 67.3863C229.265 67.3656 229.271 67.3449 229.281 67.3272C229.292 67.3095 229.309 67.2957 229.328 67.2876C229.347 67.2794 229.368 67.2774 229.388 67.2819C229.409 67.2863 229.427 67.2969 229.441 67.3122C233.979 72.5135 238.309 77.8728 242.431 83.3903C242.574 83.4476 242.695 83.5345 242.791 83.6511C242.856 83.7321 242.936 83.7559 243.031 83.7223C243.237 83.6511 243.358 83.491 243.391 83.2421C237.843 74.8513 231.85 66.7935 225.413 59.0687L223.066 56.4572C222.989 56.371 222.881 56.3186 222.766 56.3114C222.65 56.3042 222.536 56.3427 222.448 56.4187C220.174 58.4126 218.89 60.9549 218.594 64.0456Z" fill="#A7A7A7"/>
<path fill-rule="evenodd" clip-rule="evenodd" d="M199.723 40.2618C199.599 39.8467 199.533 39.5445 199.525 39.3549C199.076 30.228 201.677 21.1662 207.691 14.2003C207.764 14.1172 207.847 14.1053 207.94 14.1647L209.465 15.1518L212.964 18.0211C214.56 19.4184 215.9 20.9103 216.984 22.4972C217.101 22.6683 217.227 22.8507 217.36 23.0426L217.381 23.073C218.441 24.6032 219.918 26.734 220.474 28.6153C220.64 28.8486 220.786 29.0906 220.915 29.3416C222.735 32.9699 224.119 36.758 225.067 40.7064C226.716 46.7417 226.832 52.863 225.413 59.07L223.066 56.4586C222.989 56.3723 222.882 56.3199 222.766 56.3127C222.651 56.3055 222.537 56.344 222.449 56.4201C220.175 58.414 218.89 60.9562 218.595 64.0469C218.565 66.8152 219.068 69.4801 220.105 72.0414C219.122 73.7053 217.968 75.2407 216.644 76.6478C216.573 76.4935 216.515 76.3355 216.469 76.1734C215.342 72.057 213.989 68.0159 212.409 64.0498C209.553 57.1255 206.096 50.5154 201.967 44.2725C201.175 43.0749 200.398 41.8655 199.638 40.6442L199.723 40.2618Z" fill="url(#paint1_radial_516_1270)"/>
<path d="M238.145 81.3156C239.088 82.4954 243.365 87.8192 244.621 87.92C244.735 87.9298 244.792 87.8775 244.792 87.7629C244.772 86.4112 243.211 84.4844 242.431 83.3906C238.309 77.8732 233.979 72.5138 229.441 67.3126C229.427 67.2972 229.409 67.2866 229.388 67.2822C229.368 67.2778 229.347 67.2798 229.328 67.2879C229.309 67.296 229.293 67.3099 229.282 67.3276C229.271 67.3453 229.266 67.3659 229.267 67.3867C229.361 68.9044 230.697 70.9438 231.602 72.3014C233.795 75.5917 235.976 78.5964 238.145 81.3156Z" fill="#EDEDED"/>
<path fill-rule="evenodd" clip-rule="evenodd" d="M97.5235 57.7378C90.5406 57.8168 85.7093 61.0321 83.0296 67.3834L82.9882 67.7036C82.0365 70.322 81.6395 72.9819 81.7971 75.6833C81.8897 78.0507 82.3695 80.3312 83.2364 82.5248C84.0876 84.6798 88.9938 85.821 91.0213 86.1411C97.89 87.2241 104.786 87.4187 111.71 86.7251C112.922 86.6045 114.057 86.3516 115.115 85.9662C115.214 85.9299 115.3 85.8633 115.359 85.7756C115.419 85.688 115.451 85.5837 115.449 85.4771C115.374 80.7027 114.477 76.1042 112.756 71.6816C111.927 69.4209 110.839 67.2925 109.493 65.2966C109.49 65.2749 109.486 65.2541 109.482 65.2344C106.562 61.0488 102.787 58.138 97.5235 57.7378Z" fill="url(#paint2_radial_516_1270)"/>
<path fill-rule="evenodd" clip-rule="evenodd" d="M154.627 72.5707C155.402 70.5669 156.342 68.6441 157.447 66.8023C161.375 60.4114 167.605 56.2111 175.328 58.3957C179.194 59.4905 182.149 61.9222 184.195 65.6907C186.212 69.9988 186.684 74.4906 185.61 79.1662C185.606 79.1405 185.603 79.1158 185.599 79.0921C185.595 79.0708 185.585 79.0571 185.569 79.051C185.585 79.0571 185.594 79.0708 185.598 79.092C185.602 79.1157 185.606 79.1404 185.61 79.1661C185.256 80.9654 184.505 83.9563 182.705 84.807C181.054 85.5916 179.084 86.1123 176.797 86.3692C170.239 87.1103 163.688 87.052 157.142 86.1943C155.424 85.967 153.82 85.5787 152.331 85.0294C152.189 84.9776 152.069 84.8807 151.988 84.7537C151.908 84.6266 151.871 84.4766 151.885 84.3268C152.237 80.2283 153.152 76.3096 154.627 72.5707C154.612 72.6616 154.624 72.7505 154.666 72.8374C154.694 72.9021 154.739 72.9458 154.799 72.9687C154.739 72.9458 154.695 72.9021 154.666 72.8375C154.625 72.7506 154.612 72.6616 154.627 72.5707Z" fill="url(#paint3_radial_516_1270)"/>
<path d="M238.145 81.3151C238.24 81.5226 238.276 81.7221 238.255 81.9138C238.243 82.0205 238.272 82.1144 238.343 82.1954L238.597 82.4889C238.676 82.5778 238.665 82.6549 238.565 82.7201L237.705 83.2715C237.616 83.3268 237.527 83.3278 237.439 83.2744C237.334 83.2092 237.227 83.1578 237.117 83.1203C236.77 82.9997 236.739 83.0541 237.025 83.2833C237.137 83.3722 237.225 83.4809 237.288 83.6094C237.454 83.9513 237.401 83.9888 237.131 83.722C236.95 83.5402 236.788 83.5037 236.644 83.6123C241.485 87.6763 247.018 93.3113 249.734 99.0886C251.452 102.098 252.411 105.51 252.61 109.324C253.387 124.181 224.585 122.239 216.123 121.463C214.36 121.231 212.593 121.138 210.821 121.181C210.169 123.493 208.802 125.223 206.719 126.371L206.813 126.532C206.867 126.624 206.946 126.678 207.053 126.692L213.676 127.619C224.337 128.829 235.597 129.564 246.385 127.744C248.179 127.442 255.855 125.509 256.31 123.567C257.95 116.545 256.467 109.173 253.957 102.509C251.079 95.5404 247.624 89.7365 243.391 83.2418C243.358 83.4908 243.238 83.6509 243.031 83.722C242.936 83.7556 242.856 83.7319 242.791 83.6509C242.695 83.5343 242.575 83.4473 242.431 83.39C243.211 84.4838 244.771 86.4106 244.792 87.7623C244.792 87.8769 244.735 87.9293 244.621 87.9194C243.365 87.8186 239.088 82.4948 238.145 81.3151Z" fill="#CACACA"/>
<path d="M209.698 87.2436C210.338 90.524 210.749 93.8341 210.93 97.1738C211.38 103.926 210.602 110.523 208.598 116.963C208.557 117.099 208.442 117.176 208.578 117.319C209.736 118.629 210.457 119.109 210.821 121.181C212.592 121.138 214.36 121.232 216.123 121.463C217.264 117.418 218.05 114.112 218.482 111.547C219.985 102.593 219.882 93.4053 218.171 83.9829C218.002 84.0145 217.899 84.1143 217.864 84.2823C217.836 84.4068 217.797 84.4108 217.746 84.2942C217.5 83.7191 217.03 83.8495 216.649 84.226C215.718 85.1538 214.911 84.641 213.936 84.644C213.491 84.644 213.048 84.6706 212.609 84.724C212.499 84.7378 212.392 84.721 212.29 84.6736L210.602 83.9059C210.527 83.8715 210.446 83.8549 210.364 83.8573C210.281 83.8597 210.201 83.8811 210.128 83.9198C210.056 83.9585 209.993 84.0135 209.945 84.0805C209.897 84.1475 209.865 84.2247 209.851 84.306C209.828 84.4394 209.603 85.3109 209.798 85.3761C209.909 85.4156 209.947 85.3791 209.914 85.2664C209.904 85.2309 209.893 85.1953 209.881 85.1597C209.871 85.1301 209.882 85.1103 209.914 85.1004C210.109 85.0382 211.087 87.3444 209.698 87.2436Z" fill="#D4D4D4"/>
<path d="M46.7001 104.288C46.8794 109.841 47.9335 115.099 49.8625 120.061C54.3874 131.702 70.0902 138.694 80.9755 142.367C90.5712 145.604 100.385 148.003 110.416 149.564C125.9 152.137 142.087 152.748 157.743 151.82C172.461 150.854 187.493 148.106 200.557 140.92C200.716 140.833 200.853 140.731 200.968 140.612C198.13 138.231 195.076 136.173 191.805 134.438C181.901 139.035 170.851 141.493 160.181 142.672C137.069 145.222 112.419 143.71 89.9249 137.277C79.4563 134.281 64.4865 128.236 59.3232 117.862C57.609 114.539 56.8258 110.561 56.5036 106.734C56.3204 106.856 56.2209 107.03 56.2051 107.256C56.1972 107.345 56.1568 107.363 56.0839 107.312C55.9568 107.229 56.1105 102.691 56.0957 101.914C56.0965 101.901 56.0947 101.888 56.0904 101.875C56.086 101.862 56.0793 101.851 56.0705 101.841C56.0617 101.831 56.0511 101.823 56.0392 101.817C56.0273 101.811 56.0144 101.808 56.0012 101.807C55.988 101.807 55.9747 101.808 55.9623 101.813C55.9498 101.817 55.9383 101.824 55.9284 101.833C55.9185 101.841 55.9104 101.852 55.9047 101.864C55.8989 101.876 55.8956 101.889 55.8948 101.902C55.7913 102.596 55.8327 103.859 55.3303 104.404C55.2593 104.481 55.1716 104.519 55.0672 104.517C54.2899 104.493 53.8968 104.428 53.1254 104.772C52.4634 105.066 51.7482 105.086 50.9797 104.831C50.9029 104.805 50.8625 104.753 50.8585 104.674L50.7492 102.931C50.7485 102.877 50.728 102.826 50.6916 102.787C50.6552 102.749 50.6057 102.725 50.5527 102.721C50.4997 102.717 50.4471 102.733 50.4053 102.765C50.3634 102.798 50.3353 102.846 50.3265 102.898L49.9275 104.7C49.9039 104.811 49.8448 104.898 49.7502 104.961C49.1945 105.321 48.6143 105.331 48.0094 104.991C47.9227 104.943 47.8419 104.951 47.767 105.015L47.5306 105.219C47.4301 105.308 47.3749 105.285 47.3651 105.151L47.3473 104.941C47.3414 104.85 47.2932 104.805 47.2025 104.807C47.1552 104.807 47.1316 104.832 47.1316 104.881C47.1316 104.976 47.1079 104.976 47.0607 104.881L46.9099 104.588C46.8922 104.556 46.8715 104.553 46.8479 104.579C46.8242 104.607 46.7966 104.627 46.7651 104.641C46.7257 104.659 46.7168 104.65 46.7385 104.614C46.8232 104.474 46.8104 104.365 46.7001 104.288Z" fill="#D4D4D4"/>
<path d="M117.338 115.255C125.77 123.988 138.074 123.3 146.929 115.747C149.122 113.883 153.768 108.956 152.257 105.776C152.212 105.683 152.144 105.612 152.054 105.565C151.405 105.237 150.713 105.199 149.976 105.452C147.05 106.454 143.946 107.498 141.065 108.04C134.113 109.356 127.047 108.849 120.216 107.071C118.096 106.518 115.975 105.964 113.853 105.411C113.351 105.281 112.825 105.254 112.316 105.245C112.241 105.244 112.166 105.259 112.096 105.288C112.027 105.318 111.964 105.362 111.913 105.418C111.862 105.474 111.823 105.54 111.798 105.611C111.774 105.683 111.765 105.759 111.772 105.835C112.08 109.057 115.115 113.011 117.338 115.255Z" fill="#3086D4"/>
<path d="M193.135 110.896C191.535 110.882 189.935 110.899 188.335 110.946C183.896 111.083 177.131 112.553 174.896 117.035C173.436 121.229 176.132 124.585 179.687 126.458C185.56 129.313 193.519 130.816 200.033 129.061C200.079 129.049 200.12 129.055 200.157 129.079C200.183 129.094 200.207 129.11 200.228 129.126C202.5 128.456 204.664 127.538 206.719 126.372C208.801 125.224 210.169 123.494 210.821 121.182C210.458 119.11 209.736 118.63 208.578 117.32L208.442 117.331L209.027 119.3C209.037 119.333 209.04 119.368 209.037 119.403C209.033 119.438 209.022 119.472 209.004 119.502C208.987 119.532 208.963 119.559 208.935 119.579C208.907 119.6 208.875 119.615 208.841 119.623C208.043 119.81 207.239 119.987 206.417 120.05C199.174 120.583 191.969 120.275 184.8 119.125C183.048 118.843 175.159 116.899 179.442 113.724C180.106 113.232 180.613 112.934 180.964 112.832C186.706 111.144 192.539 110.828 198.464 111.883C196.764 111.184 194.987 110.855 193.135 110.896Z" fill="#FFB800"/>
<path d="M208.442 117.331C207.1 115.55 205.397 114.237 203.332 113.391L198.464 111.882C192.539 110.827 186.706 111.143 180.964 112.831C180.614 112.934 180.106 113.231 179.442 113.723C175.16 116.898 183.048 118.842 184.801 119.124C191.969 120.274 199.174 120.582 206.417 120.049C207.239 119.987 208.043 119.809 208.841 119.622C208.875 119.614 208.907 119.599 208.935 119.579C208.963 119.558 208.987 119.531 209.004 119.501C209.022 119.471 209.033 119.437 209.037 119.402C209.041 119.368 209.037 119.332 209.027 119.299L208.442 117.331Z" fill="#FFD568"/>
<path d="M206.719 126.372C204.664 127.538 202.501 128.456 200.229 129.126C197.701 131.155 194.963 132.893 192.015 134.34C191.956 134.35 191.886 134.382 191.806 134.438C195.076 136.173 198.13 138.231 200.968 140.612C206.378 137.442 210.615 133.112 213.677 127.62L207.053 126.692C206.947 126.678 206.867 126.625 206.814 126.532L206.719 126.372Z" fill="#A7A7A7"/>
<path fill-rule="evenodd" clip-rule="evenodd" d="M70.6162 57.8234C78.5075 44.3419 90.0282 31.8449 103.816 24.4016C132.186 9.08828 165.504 18.2983 186.559 41.5082L187.059 41.9974C193.642 49.329 198.967 57.4905 203.036 66.4819C206.092 73.1317 208.313 80.0523 209.698 87.2434C210.338 90.5238 210.749 93.8339 210.931 97.1736C211.38 103.926 210.602 110.523 208.599 116.963C208.588 116.999 208.571 117.031 208.556 117.062C208.514 117.145 208.478 117.214 208.578 117.319L208.442 117.33C207.1 115.55 205.397 114.237 203.332 113.391L198.464 111.882C196.764 111.183 194.987 110.854 193.135 110.895C191.535 110.881 189.935 110.898 188.335 110.945C183.896 111.082 177.131 112.552 174.897 117.034C173.437 121.229 176.132 124.584 179.688 126.457C185.56 129.312 193.519 130.815 200.033 129.06C200.079 129.048 200.12 129.054 200.158 129.078C200.183 129.094 200.207 129.109 200.229 129.125C197.701 131.155 194.963 132.893 192.015 134.339C191.956 134.349 191.886 134.382 191.805 134.437C181.901 139.035 170.85 141.492 160.181 142.672C137.069 145.221 112.419 143.709 89.9247 137.277C79.4562 134.28 64.4864 128.236 59.3231 117.861C57.6089 114.538 56.8257 110.56 56.5035 106.733C56.401 104.607 56.4089 102.483 56.5271 100.36C56.5606 99.204 56.6444 98.049 56.7784 96.8949C58.33 83.6122 63.1032 70.8808 69.6793 59.3055L70.6162 57.8234ZM184.195 65.6905C186.212 69.9985 186.684 74.4903 185.61 79.1659C185.256 80.9653 184.505 83.9561 182.705 84.8069C181.054 85.5914 179.085 86.1122 176.797 86.3689C170.24 87.11 163.688 87.0518 157.143 86.1941C155.424 85.9668 153.821 85.5786 152.331 85.0292C152.19 84.9774 152.069 84.8804 151.988 84.7533C151.908 84.6263 151.871 84.4763 151.885 84.3267C152.237 80.228 153.152 76.3093 154.627 72.5704C155.402 70.5667 156.342 68.6437 157.447 66.8021C161.375 60.4113 167.605 56.2107 175.328 58.3954C179.194 59.4902 182.149 61.9221 184.195 65.6905ZM155.517 66.4414L155.522 66.4405C155.52 66.4405 155.519 66.4414 155.517 66.4414ZM109.482 65.234L109.493 65.2962C110.839 67.2921 111.927 69.4204 112.756 71.6812C114.476 76.1038 115.374 80.7024 115.449 85.4768C115.45 85.5833 115.419 85.6875 115.359 85.7752C115.3 85.8629 115.214 85.9295 115.115 85.966C114.057 86.3513 112.922 86.6043 111.71 86.7247C104.786 87.4183 97.8899 87.2237 91.0213 86.1408C88.9938 85.8206 84.0875 84.6792 83.2363 82.5244C82.3694 80.3307 81.8896 78.0502 81.797 75.6829C81.6394 72.9815 82.0364 70.3215 82.9881 67.7032L83.0295 67.383C85.7092 61.0316 90.5405 57.8164 97.5235 57.7374C102.787 58.1374 106.561 61.0484 109.482 65.234ZM97.0763 57.6708C97.1168 57.6708 97.1565 57.6714 97.1958 57.6743L97.2054 57.6749C97.163 57.6717 97.12 57.6702 97.0763 57.6708ZM117.337 115.255C125.77 123.988 138.073 123.301 146.928 115.748C149.121 113.883 153.767 108.956 152.257 105.776C152.212 105.683 152.144 105.613 152.053 105.565C151.405 105.237 150.712 105.2 149.975 105.453C147.049 106.455 143.946 107.498 141.064 108.041C134.113 109.357 127.046 108.85 120.216 107.071L113.853 105.411C113.35 105.281 112.824 105.254 112.316 105.245C112.24 105.244 112.165 105.259 112.096 105.289L112.06 105.305C112.047 105.312 112.034 105.32 112.021 105.328C111.981 105.353 111.945 105.383 111.913 105.418C111.861 105.474 111.822 105.54 111.798 105.612C111.774 105.684 111.765 105.76 111.772 105.835C112.08 109.057 115.115 113.011 117.337 115.255ZM104.007 115.522C103.734 115.494 103.472 115.48 103.224 115.482C103.283 115.482 103.343 115.482 103.403 115.484C103.455 115.485 103.507 115.486 103.56 115.489C103.705 115.495 103.854 115.506 104.007 115.522Z" fill="url(#paint4_linear_516_1270)"/>
<path d="M110.416 149.564C107.042 151.912 104.045 154.598 101.425 157.624C101.344 157.717 101.279 157.823 101.23 157.941C104.174 161.578 109.032 163.766 113.548 165.23C125.575 169.128 138.768 170.637 151.368 170.314C156.108 170.192 161.097 169.777 165.566 168.079C167.313 167.418 168.347 166.546 168.903 164.67C165.892 159.763 162.172 155.48 157.743 151.82C142.087 152.748 125.9 152.137 110.416 149.564Z" fill="#CACACA"/>
<path d="M101.23 157.941C101.054 158.008 100.91 158.114 100.795 158.258C98.7441 160.867 96.9186 163.626 95.3186 166.537C94.9108 167.275 94.1423 167.634 93.5217 168.168L93.9709 168.817C94.0261 168.894 94.0369 168.977 94.0034 169.066C91.1218 176.71 88.4322 184.349 87.0254 192.43C85.6629 200.232 85.391 206.418 85.1397 215.578C85.0373 219.358 85.2452 223.786 85.7634 228.86C86.1436 232.7 86.8352 236.479 87.8382 240.199C87.9308 240.542 88.0046 240.888 88.0598 241.236C88.0775 241.337 88.1337 241.404 88.2283 241.438L88.4972 241.532L88.6775 239.173C88.8785 236.236 89.2942 233.342 89.9248 230.491C94.1069 210.799 108.787 194.76 129.505 193.106C150.682 191.413 168.903 205.455 176.061 224.776C176.418 225.74 176.869 227.147 177.415 228.997C177.827 230.4 178.249 231.817 178.683 233.247C179.611 227.024 179.925 220.77 179.625 214.484C179.153 202.013 177.172 189.617 174.211 177.505C173.886 176.173 173.51 174.852 173.085 173.542C172.978 173.213 173.005 172.978 173.375 172.901C173.455 172.884 173.513 172.913 173.549 172.99C174.089 174.164 174.487 175.101 174.743 175.8C179.002 187.45 181.216 199.929 182.268 212.264C182.339 213.101 182.657 214.089 183.222 215.225C186.855 224.799 191.637 232.711 200.583 238.141C202.449 239.274 204.493 240.065 206.716 240.516C214.001 241.989 215.133 234.783 214.267 229.598C212.701 220.237 208.684 211.152 204.032 202.413C201.002 196.728 198.128 191.84 195.411 187.749C195.177 187.398 195.062 187.12 195.068 186.916C191.614 181.517 187.427 175.906 182.507 170.082C179.723 166.79 177.059 164.009 174.515 161.738C173.691 161.003 172.772 160.449 171.805 160.072C171.74 160.047 171.67 160.035 171.6 160.038C171.529 160.041 171.461 160.058 171.398 160.089C171.335 160.12 171.279 160.164 171.235 160.218C171.19 160.271 171.156 160.334 171.137 160.401C170.591 162.255 170.293 164.149 170.242 166.084C170.236 166.267 170.167 166.295 170.035 166.167C169.552 165.696 169.175 165.197 168.903 164.67C168.347 166.546 167.313 167.418 165.566 168.079C161.097 169.777 156.108 170.192 151.368 170.314C138.768 170.637 125.575 169.128 113.548 165.23C109.032 163.766 104.173 161.578 101.23 157.941ZM112.907 185.345C112.28 189.391 107.631 188.573 107.442 184.913C107.294 181.978 109.029 174.452 111.814 172.901C111.883 172.862 111.961 172.839 112.041 172.833C112.12 172.827 112.2 172.838 112.275 172.867C112.35 172.895 112.418 172.939 112.474 172.996C112.53 173.054 112.573 173.122 112.6 173.198C113.791 176.527 113.489 181.596 112.907 185.345ZM183.881 189.098C186.736 188.39 195.003 207.731 194.536 210.574C194.527 210.63 194.502 210.683 194.464 210.725C194.427 210.768 194.378 210.799 194.323 210.816C194.269 210.832 194.211 210.833 194.156 210.818C194.101 210.803 194.052 210.773 194.013 210.731C193.664 210.352 193.168 209.966 192.896 209.551C189.32 204.081 186.388 198.282 184.1 192.154C183.781 191.3 183.63 190.364 183.583 189.501C183.578 189.409 183.605 189.319 183.66 189.245C183.714 189.171 183.793 189.119 183.881 189.098ZM110.451 194.152C109.836 195.702 106.904 194.849 107.389 192.528C107.566 191.677 108.299 190.091 109.272 189.895C110.974 189.555 110.835 193.18 110.451 194.152ZM196.602 216.736C196.449 216.788 196.28 216.789 196.105 216.739C195.931 216.689 195.754 216.589 195.585 216.445C195.416 216.3 195.258 216.115 195.12 215.898C194.982 215.682 194.867 215.439 194.781 215.183C194.608 214.667 194.564 214.13 194.661 213.691C194.758 213.252 194.986 212.947 195.296 212.842C195.449 212.79 195.618 212.789 195.792 212.839C195.967 212.889 196.144 212.989 196.313 213.134C196.482 213.278 196.64 213.463 196.778 213.68C196.916 213.896 197.031 214.139 197.117 214.395C197.29 214.911 197.333 215.448 197.237 215.887C197.14 216.326 196.912 216.631 196.602 216.736Z" fill="#EDEDED"/>
<path d="M93.5215 168.168C87.5897 173.673 82.4027 180.078 76.8227 185.953C77.0237 186.25 77.1852 186.561 77.3074 186.887C80.2255 194.681 81.5505 202.744 81.2826 211.075C81.2786 211.192 81.2422 211.366 81.1732 211.597C81.1378 211.72 81.12 211.717 81.12 211.588V211.289C81.12 211.154 81.0974 211.15 81.0521 211.277C81.0402 211.312 81.0284 211.348 81.0166 211.384C81.0067 211.421 80.987 211.427 80.9575 211.401C80.9358 211.382 80.92 211.359 80.9102 211.333C80.8865 211.274 80.8432 211.245 80.7801 211.247C78.9447 211.324 77.3428 210.892 75.3626 211.235C73.6189 211.541 72.017 211.203 70.22 211.615C69.818 211.706 69.3983 211.723 68.9609 211.668C67.7285 211.511 67.0487 212.045 66.0556 212.412C65.9591 212.448 65.8606 212.452 65.7601 212.424C64.569 212.104 63.9897 212.7 62.9582 212.8C61.8391 212.911 60.7278 213.102 59.6244 213.373C59.4943 213.406 59.4529 213.36 59.5002 213.233C59.5869 213.012 59.5633 212.811 59.4293 212.632C59.3623 212.541 59.2904 212.538 59.2136 212.623L58.7023 213.195C58.6353 213.27 58.5535 213.296 58.4569 213.272C57.9052 213.141 57.4146 213.234 56.9851 213.55C56.8412 213.657 56.7536 213.623 56.722 213.447L56.6452 212.987C56.6196 212.833 56.5536 212.813 56.4472 212.928L56.3792 213.002C56.5979 214.223 56.7171 215.454 56.7368 216.696C57.0767 221.231 56.8521 233.817 49.7913 233.838C52.6907 236.242 57.7269 237.537 61.3829 237.845C65.7551 237.45 69.5195 236.102 72.676 233.802C78.129 229.833 80.393 223.309 80.9841 216.684C81.058 215.854 81.3121 215.038 81.3535 214.158C81.3555 214.085 81.3929 214.045 81.4658 214.04C82.0806 213.982 82.6668 214.07 83.2244 214.303C83.2657 214.321 83.2943 214.308 83.3101 214.265C83.3199 214.239 83.3288 214.211 83.3367 214.182C83.3544 214.117 83.3751 214.116 83.3988 214.179C83.4717 214.376 83.5012 214.577 83.4874 214.781C83.2096 218.523 83.0648 222.272 83.0529 226.027C83.051 226.414 83.1997 226.677 83.4992 226.815C83.5859 226.855 83.6766 226.864 83.7711 226.842C84.575 226.655 84.8322 227.177 85.0007 227.912C85.0992 228.331 85.3534 228.647 85.7632 228.861C85.245 223.786 85.0371 219.358 85.1396 215.578C85.3908 206.418 85.6627 200.232 87.0252 192.43C88.432 184.35 91.1216 176.711 94.0032 169.066C94.0367 168.977 94.0259 168.894 93.9707 168.817L93.5215 168.168Z" fill="#D4D4D4"/>
<path d="M179.625 214.484L179.699 214.531C179.762 214.572 179.789 214.556 179.779 214.481L179.702 213.79C179.688 213.661 179.712 213.654 179.773 213.766L179.844 213.9C179.903 214.012 179.959 214.01 180.012 213.894C180.533 212.761 182.288 213.994 182.377 213.95C182.473 213.901 182.536 213.927 182.566 214.03C182.694 214.485 182.913 214.883 183.222 215.225C182.657 214.088 182.338 213.101 182.268 212.263C181.215 199.929 179.002 187.45 174.743 175.8C174.487 175.101 174.089 174.164 173.549 172.99C173.513 172.913 173.455 172.883 173.374 172.901C173.005 172.978 172.978 173.212 173.085 173.542C173.51 174.852 173.886 176.173 174.211 177.505C177.172 189.617 179.152 202.013 179.625 214.484Z" fill="#D4D4D4"/>
<path d="M107.442 184.912C107.631 188.573 112.28 189.391 112.907 185.345C113.489 181.596 113.791 176.527 112.6 173.198C112.573 173.122 112.53 173.053 112.474 172.996C112.418 172.939 112.35 172.895 112.275 172.867C112.2 172.838 112.12 172.827 112.04 172.833C111.961 172.839 111.883 172.862 111.813 172.901C109.029 174.452 107.294 181.978 107.442 184.912Z" fill="white"/>
<path d="M76.8229 185.954C72.9886 189.985 69.2952 193.218 65.7426 195.653C61.6048 198.484 56.7322 200.73 51.1245 202.39C52.2811 203.25 52.9885 203.878 53.2466 204.276C54.9628 206.932 56.007 209.84 56.3794 213.002L56.4474 212.928C56.5538 212.814 56.6198 212.833 56.6455 212.987L56.7223 213.447C56.7538 213.623 56.8415 213.657 56.9853 213.551C57.4149 213.234 57.9055 213.142 58.4572 213.272C58.5537 213.296 58.6355 213.27 58.7025 213.195L59.2138 212.623C59.2907 212.538 59.3626 212.541 59.4296 212.632C59.5636 212.812 59.5872 213.012 59.5005 213.234C59.4532 213.36 59.4946 213.406 59.6246 213.373C60.728 213.102 61.8393 212.911 62.9585 212.801C63.99 212.7 64.5693 212.104 65.7604 212.424C65.8608 212.452 65.9594 212.448 66.0559 212.412C67.049 212.045 67.7287 211.511 68.9612 211.668C69.3986 211.724 69.8183 211.706 70.2203 211.615C72.0172 211.203 73.6191 211.541 75.3629 211.236C77.3431 210.892 78.945 211.325 80.7804 211.247C80.8434 211.245 80.8868 211.274 80.9104 211.333C80.9203 211.359 80.9361 211.382 80.9577 211.402C80.9873 211.427 81.007 211.421 81.0169 211.384C81.0287 211.348 81.0405 211.313 81.0523 211.277C81.0976 211.151 81.1203 211.155 81.1203 211.289V211.588C81.1203 211.717 81.138 211.72 81.1735 211.597C81.2425 211.366 81.2789 211.192 81.2828 211.076C81.5508 202.744 80.2257 194.681 77.3076 186.887C77.1855 186.561 77.0239 186.25 76.8229 185.954Z" fill="#EDEDED"/>
<path d="M195.068 186.917C195.062 187.121 195.176 187.398 195.411 187.75C198.128 191.841 201.002 196.729 204.032 202.414C208.684 211.153 212.701 220.238 214.267 229.599C215.133 234.783 214.001 241.99 206.716 240.516C204.493 240.066 202.449 239.274 200.583 238.142C191.637 232.711 186.854 224.8 183.222 215.225C182.913 214.884 182.694 214.485 182.566 214.031C182.536 213.928 182.473 213.901 182.377 213.951C182.288 213.995 180.533 212.762 180.012 213.895C179.959 214.011 179.903 214.013 179.844 213.9L179.773 213.767C179.712 213.654 179.688 213.662 179.702 213.791L179.779 214.481C179.789 214.557 179.762 214.573 179.699 214.532L179.625 214.484C179.925 220.771 179.61 227.025 178.682 233.248C178.99 235.7 179.245 238.175 179.448 240.67C179.572 242.188 179.389 243.759 179.33 245.312C179.267 253.14 176.878 260.131 172.162 266.284C166.996 272.833 160.445 277.403 152.508 279.994C152.108 280.245 151.666 280.394 151.181 280.442C151.073 280.452 150.973 280.488 150.883 280.551C150.467 280.838 149.994 280.964 149.464 280.931C149.359 280.925 149.273 280.962 149.204 281.043L148.728 281.613C157.799 280.688 166.961 275.527 173.173 269.172C173.329 269.014 173.481 268.912 173.628 268.866C173.599 268.835 173.576 268.796 173.56 268.751C173.529 268.652 173.547 268.563 173.614 268.484C179.353 261.743 181.174 253.87 182.173 245.144C182.689 240.634 182.996 235.434 183.095 229.543C183.099 229.361 183.136 229.354 183.207 229.522C187.725 240.199 192.41 250.798 197.261 261.319C197.393 261.078 197.463 260.838 197.471 260.599C197.185 257.645 197.835 255.092 199.421 252.942C200.472 251.52 201.817 250.456 203.459 249.753C211.338 246.377 218.904 253.844 223.128 259.615C223.908 260.682 224.694 261.744 225.486 262.801C225.22 260.58 224.783 257.962 224.174 254.946C219.206 230.373 209.293 207.521 195.068 186.917Z" fill="#CACACA"/>
<path d="M183.881 189.099C183.793 189.12 183.714 189.172 183.66 189.245C183.605 189.319 183.578 189.41 183.583 189.502C183.63 190.364 183.781 191.301 184.1 192.155C186.387 198.283 189.319 204.082 192.896 209.552C193.168 209.967 193.664 210.352 194.013 210.732C194.051 210.773 194.101 210.803 194.156 210.818C194.211 210.833 194.269 210.833 194.323 210.816C194.378 210.8 194.426 210.769 194.464 210.726C194.502 210.683 194.526 210.631 194.536 210.574C195.003 207.732 186.736 188.39 183.881 189.099Z" fill="white"/>
<path d="M107.389 192.527C106.904 194.848 109.836 195.701 110.451 194.151C110.835 193.179 110.974 189.553 109.272 189.894C108.299 190.09 107.566 191.676 107.389 192.527Z" fill="white"/>
<path d="M89.9249 230.49L90.2559 230.407C90.3406 230.385 90.3939 230.332 90.4155 230.247C93.4863 217.883 101.271 206.666 112.431 200.37C122.134 194.895 134.63 193.808 145.229 197.127C164.422 203.136 176.794 220.8 179.011 240.494L179.33 245.311C179.389 243.758 179.572 242.187 179.448 240.669C179.245 238.173 178.99 235.699 178.683 233.247C178.249 231.816 177.827 230.399 177.415 228.996C176.869 227.146 176.418 225.739 176.061 224.775C168.903 205.454 150.682 191.412 129.506 193.105C108.787 194.759 94.107 210.799 89.9249 230.49Z" fill="#A7A7A7"/>
<path d="M17.7565 200.812C18.3693 200.932 18.9683 201.022 19.5534 201.082C24.4449 201.577 26.1355 205.676 26.3453 210.078C26.3471 210.112 26.3573 210.145 26.375 210.174C26.3927 210.203 26.4173 210.227 26.4466 210.244C26.476 210.261 26.5091 210.271 26.543 210.272C26.5769 210.273 26.6106 210.265 26.6409 210.25C28.4536 209.309 30.2574 208.413 32.0524 207.562C33.3026 206.966 34.674 206.026 36.0838 205.412C36.9153 205.049 37.6601 204.672 38.3182 204.283C39.8157 203.402 41.589 202.548 43.6382 201.722C44.0362 201.562 44.1987 201.267 44.1258 200.839C44.1101 200.746 44.1495 200.705 44.2441 200.717L45.0627 200.836C38.9152 199.048 32.8002 199.025 25.9256 199.3C22.8085 199.425 20.0855 199.929 17.7565 200.812Z" fill="#EDEDED"/>
<path d="M17.7563 200.813C14.981 202.278 12.4747 205.811 14.4106 208.926L14.5465 209.285C19.4202 212.587 23.4043 212.151 29.3922 211.624C33.0374 211.302 36.6353 210.67 40.1859 209.73L40.8509 209.605C43.2389 208.757 52.342 206.128 47.9442 202.046C47.0339 201.523 46.0733 201.119 45.0625 200.837L44.2438 200.718C44.1492 200.706 44.1098 200.747 44.1256 200.84C44.1985 201.269 44.0359 201.563 43.6379 201.723C41.5888 202.549 39.8154 203.403 38.318 204.284C37.6599 204.674 36.9151 205.05 36.0836 205.414C34.6738 206.027 33.3024 206.967 32.0522 207.563C30.2572 208.414 28.4534 209.311 26.6406 210.251C26.6103 210.267 26.5767 210.274 26.5428 210.273C26.5089 210.272 26.4757 210.263 26.4464 210.246C26.417 210.229 26.3924 210.204 26.3747 210.175C26.357 210.146 26.3468 210.113 26.3451 210.079C26.1352 205.677 24.4446 201.578 19.5532 201.083C18.968 201.024 18.369 200.934 17.7563 200.813Z" fill="#D4D4D4"/>
<path d="M47.9441 202.045C52.3419 206.127 43.2389 208.756 40.8508 209.604L43.2921 210.917C43.3866 210.969 43.4408 211.049 43.4546 211.157C43.5354 211.831 43.4802 212.499 43.2891 213.161L43.2536 213.926C43.6142 213.626 43.7443 213.226 43.6438 212.726C43.6182 212.599 43.6694 212.543 43.7974 212.557C44.0634 212.588 44.295 212.517 44.492 212.343C44.5767 212.268 44.6753 212.238 44.7876 212.254C47.0949 212.561 49.4021 212.865 51.7094 213.167C53.0897 213.345 53.8965 213.662 54.6059 214.901C54.8748 215.37 55.9566 216.878 56.6156 216.57C56.6393 216.558 56.655 216.564 56.6629 216.588C56.6767 216.633 56.7013 216.669 56.7368 216.695C56.7171 215.454 56.5979 214.223 56.3792 213.001C56.0068 209.839 54.9625 206.93 53.2463 204.275C52.9882 203.877 52.2808 203.249 51.1242 202.389L47.9441 202.045Z" fill="#A7A7A7"/>
<path d="M43.2538 213.926L42.9316 217.003C43.0705 218.974 42.7188 220.676 42.9316 222.857C46.1216 222.484 49.2368 221.89 52.277 221.076C52.3068 221.068 52.3383 221.068 52.3678 221.077C52.3973 221.086 52.4235 221.104 52.4432 221.128C52.4629 221.152 52.4753 221.181 52.4788 221.212C52.4824 221.242 52.477 221.273 52.4632 221.301C50.6249 225.098 47.8496 227.259 44.3119 229.453C45.6517 231.53 47.4782 232.991 49.7914 233.837C56.8522 233.816 57.0768 221.23 56.737 216.695C56.7015 216.669 56.6769 216.634 56.6631 216.588C56.6552 216.564 56.6394 216.558 56.6158 216.57C55.9567 216.879 54.875 215.37 54.606 214.901C53.8967 213.662 53.0898 213.345 51.7096 213.167C49.4023 212.865 47.095 212.561 44.7877 212.254C44.6754 212.239 44.5769 212.268 44.4921 212.343C44.2951 212.517 44.0636 212.588 43.7976 212.557C43.6695 212.543 43.6183 212.599 43.6439 212.726C43.7444 213.226 43.6144 213.626 43.2538 213.926Z" fill="#CACACA"/>
<path d="M197.117 214.395C197.478 215.47 197.247 216.518 196.602 216.736C195.957 216.954 195.142 216.259 194.781 215.183C194.42 214.108 194.651 213.06 195.296 212.842C195.941 212.624 196.756 213.319 197.117 214.395Z" fill="white"/>
<path d="M61.383 237.845C68.4497 238.595 77.2217 237.519 82.923 233.286C82.9474 233.268 82.9763 233.257 83.0065 233.254C83.0367 233.251 83.0672 233.257 83.0948 233.27C83.1223 233.284 83.1459 233.304 83.163 233.33C83.1801 233.356 83.1901 233.386 83.1919 233.416C83.4008 238.562 83.9091 243.665 84.717 248.724C85.4007 253.002 86.7425 257.057 88.7424 260.889C88.7878 260.974 88.7661 261.037 88.6774 261.079C88.6045 261.114 88.5237 261.124 88.4351 261.108C88.5277 261.16 88.6282 261.181 88.7365 261.174C88.837 261.164 88.9119 261.203 88.9612 261.292C92.9423 268.457 99.0336 274.012 106.31 277.693C106.754 277.918 107.223 278.092 107.72 278.215C106.786 277.646 105.977 276.954 105.293 276.14C99.5972 272.52 95.2545 267.678 92.2655 261.615C89.2725 255.27 88.0164 248.576 88.4971 241.532L88.2282 241.438C88.1336 241.404 88.0774 241.337 88.0597 241.236C88.0045 240.888 87.9306 240.542 87.838 240.199C86.8351 236.479 86.1435 232.7 85.7633 228.86C85.3534 228.647 85.0992 228.331 85.0007 227.912C84.8323 227.177 84.5751 226.655 83.7712 226.842C83.6766 226.863 83.586 226.855 83.4993 226.815C83.1998 226.677 83.051 226.414 83.053 226.027C83.0648 222.272 83.2097 218.523 83.4875 214.78C83.5013 214.577 83.4717 214.376 83.3988 214.178C83.3752 214.115 83.3545 214.116 83.3368 214.181C83.3289 214.211 83.32 214.239 83.3102 214.264C83.2944 214.308 83.2658 214.321 83.2244 214.303C82.6668 214.07 82.0806 213.982 81.4659 214.039C81.393 214.045 81.3556 214.085 81.3536 214.158C81.3122 215.038 81.058 215.853 80.9841 216.683C80.393 223.308 78.1291 229.833 72.6761 233.802C69.5196 236.102 65.7552 237.45 61.383 237.845Z" fill="#CACACA"/>
<path d="M42.9315 217.003C42.0646 221.521 41.4262 226.071 41.0164 230.654C41.0144 230.677 41.0213 230.7 41.037 230.722C41.0528 230.744 41.0686 230.765 41.0843 230.787C41.9671 230.518 42.8005 230.144 43.5847 229.664L42.9315 222.858C42.7187 220.676 43.0704 218.975 42.9315 217.003Z" fill="#A7A7A7"/>
<path d="M42.9312 222.858L43.5844 229.663L44.3115 229.453C47.8492 227.259 50.6245 225.099 52.4628 221.301C52.4766 221.274 52.482 221.242 52.4784 221.212C52.4749 221.181 52.4625 221.152 52.4428 221.128C52.4231 221.104 52.3969 221.087 52.3674 221.077C52.3379 221.068 52.3064 221.068 52.2766 221.076C49.2364 221.89 46.1212 222.484 42.9312 222.858Z" fill="#D4D4D4"/>
<path d="M197.471 260.598C197.716 259.267 199.519 254.041 201.473 254.723C202.25 253.65 203.577 253.872 204.736 254.216C213.529 253.442 219.889 256.759 225.374 263.547C225.387 263.563 225.403 263.575 225.422 263.581C225.441 263.588 225.461 263.589 225.48 263.585C225.5 263.58 225.517 263.571 225.532 263.557C225.546 263.543 225.556 263.525 225.561 263.506L225.584 263.393L225.487 262.8C224.695 261.743 223.908 260.681 223.128 259.614C218.905 253.842 211.339 246.376 203.459 249.752C201.818 250.455 200.472 251.519 199.422 252.941C197.836 255.091 197.185 257.644 197.471 260.598Z" fill="#67636E"/>
<path d="M201.473 254.723C204.172 255.97 206.296 257.869 207.842 260.42C208.38 261.308 208.932 262.163 209.497 262.987C210.447 263.78 211.259 264.696 211.933 265.735C212.108 266.006 212.345 266.185 212.642 266.272C210.199 262.254 207.587 258.348 204.807 254.554C204.721 254.439 204.721 254.353 204.736 254.216C203.577 253.872 202.25 253.65 201.473 254.723Z" fill="#A7A7A7"/>
<path d="M204.736 254.217C204.721 254.354 204.721 254.44 204.807 254.555C207.587 258.35 210.199 262.255 212.642 266.273C214.699 269.33 216.669 272.443 218.553 275.61C222.222 281.422 225.244 287.555 227.621 294.009C228.584 296.628 229.586 299.223 230.626 301.796C231.732 301.02 232.911 294.804 232.973 294.075C233.054 293.12 232.904 291.617 232.524 289.566C230.877 280.665 228.563 271.942 225.584 263.395L225.561 263.507C225.556 263.527 225.546 263.544 225.532 263.558C225.518 263.572 225.5 263.582 225.48 263.586C225.461 263.59 225.441 263.589 225.422 263.583C225.403 263.576 225.387 263.564 225.374 263.549C219.889 256.761 213.529 253.444 204.736 254.217Z" fill="#EDEDED"/>
<path d="M197.471 260.598C197.463 260.837 197.393 261.077 197.261 261.319C196.771 265.617 196.918 269.892 197.702 274.145C197.846 274.135 197.899 274.055 197.861 273.905C197.846 273.843 197.854 273.841 197.885 273.896L197.953 274.006C197.991 274.069 198.043 274.085 198.11 274.053C198.874 273.699 199.679 273.587 200.524 273.715C200.633 273.733 200.738 273.724 200.841 273.688L202.014 273.285C202.118 273.25 202.224 273.247 202.33 273.276C202.935 273.442 203.517 273.375 204.077 273.075C204.168 273.025 204.265 273.011 204.37 273.03L205.156 273.184C205.242 273.202 205.305 273.171 205.345 273.09C205.569 272.599 205.854 272.573 206.199 273.01C206.323 271.699 206.73 270.502 207.42 269.417C207.454 269.361 207.504 269.316 207.562 269.286C207.62 269.256 207.686 269.242 207.751 269.247C207.817 269.251 207.88 269.273 207.934 269.31C207.988 269.347 208.031 269.399 208.058 269.458C208.531 270.482 208.831 271.548 208.96 272.657C209.025 272.562 209.117 272.501 209.237 272.473C209.334 272.449 209.406 272.482 209.453 272.571L209.681 272.998C209.74 273.108 209.826 273.136 209.941 273.081L210.541 272.793C210.623 272.754 210.693 272.769 210.751 272.841C210.92 273.058 211.138 273.025 211.404 272.743C211.495 270.766 211.702 268.528 211.073 266.642C210.657 265.397 210.132 264.179 209.497 262.987C208.932 262.163 208.38 261.308 207.842 260.42C206.296 257.869 204.173 255.97 201.473 254.723C199.52 254.041 197.717 259.267 197.471 260.598Z" fill="#EDEDED"/>
<path d="M84.5402 261.826C87.676 268.492 92.9812 273.929 99.4538 277.4C107.733 281.84 116.797 284.153 126.645 284.339C127.301 284.351 131.385 284.487 131.442 283.328C126.362 283.214 122.125 282.794 118.73 282.068C115.591 281.398 111.921 280.114 107.72 278.215C107.224 278.092 106.754 277.918 106.311 277.693C99.0341 274.012 92.9428 268.457 88.9617 261.292C88.9124 261.203 88.8375 261.164 88.737 261.173C88.6287 261.181 88.5282 261.16 88.4356 261.108L84.5313 261.087C84.417 261.085 84.3569 261.143 84.351 261.259C84.3411 261.455 84.4042 261.644 84.5402 261.826Z" fill="#A7A7A7"/>
<path d="M84.54 261.826C84.3489 262.45 84.342 263.17 84.5193 263.987C85.5262 268.672 86.5646 272.773 87.6345 276.288C93.2047 277.162 98.1503 278.374 102.471 279.925C108.533 282.101 114.258 285.107 117.03 291.195C117.239 291.002 117.494 290.866 117.796 290.789C118.074 290.721 118.263 290.988 118.316 290.531C118.33 290.419 118.393 290.363 118.505 290.365C119.049 290.377 119.48 290.413 120.021 290.223C121.747 289.607 123.79 289.944 125.055 288.99C125.835 288.403 126.068 288.492 126.982 288.51C127.248 288.514 127.473 288.395 127.658 288.154C127.708 288.087 127.775 288.049 127.859 288.041L130.853 287.76C130.946 287.75 131.032 287.769 131.11 287.816L131.471 288.024C131.564 288.077 131.608 288.156 131.604 288.261L131.524 290.072C139.445 289.233 147.638 288.566 155.6 288.972C156.41 289.014 159.413 289.037 159.445 290.502C159.469 291.646 159.385 292.78 159.194 293.905C158.65 297.128 157.935 300.317 157.048 303.473C157.903 303.515 158.715 303.651 159.484 303.882C159.767 303.968 159.971 303.876 160.27 303.888C160.364 303.89 160.402 303.938 160.382 304.031C160.368 304.102 160.371 304.167 160.391 304.226C163.571 297.732 167.362 291.724 171.764 286.201C171.979 285.928 172.276 285.736 172.657 285.626C174.515 281.715 175.918 277.654 176.868 273.443C174.923 275.359 172.962 276.931 170.984 278.159C165.279 281.696 159.137 284.365 152.556 286.165C146.178 287.908 138.295 289.361 132.068 286.26C132.023 286.238 131.983 286.209 131.95 286.174C131.589 285.816 131.669 285.488 132.189 285.19C133.299 284.552 134.452 283.956 135.65 283.402L131.441 283.328C131.385 284.487 127.301 284.351 126.645 284.339C116.797 284.153 107.733 281.84 99.4537 277.4C92.9811 273.929 87.6758 268.492 84.54 261.826ZM133.079 283.672L131.858 284.401C131.703 284.494 131.619 284.45 131.607 284.268L131.58 283.82C131.573 283.706 131.622 283.629 131.728 283.589C132.185 283.409 132.634 283.414 133.073 283.604C133.118 283.624 133.12 283.646 133.079 283.672Z" fill="#D4D4D4"/>
<path d="M209.497 262.987C210.132 264.178 210.657 265.397 211.073 266.642C211.702 268.527 211.495 270.765 211.404 272.742C211.171 278.321 210.332 283.801 208.885 289.182C214.596 287.211 216.661 281.166 218.257 275.938C218.285 275.851 218.334 275.778 218.405 275.721L218.553 275.609C216.669 272.441 214.699 269.328 212.642 266.271C212.344 266.184 212.108 266.005 211.933 265.735C211.259 264.695 210.447 263.779 209.497 262.987Z" fill="#67636E"/>
<path d="M173.629 268.866C173.481 268.912 173.329 269.014 173.173 269.172C166.961 275.527 157.799 280.688 148.728 281.613C143.707 282.683 140.349 283.255 135.65 283.403C134.452 283.956 133.298 284.552 132.189 285.19C131.669 285.489 131.589 285.817 131.95 286.175C131.983 286.21 132.023 286.239 132.068 286.26C138.295 289.361 146.177 287.909 152.556 286.166C159.137 284.365 165.279 281.697 170.983 278.159C172.962 276.932 174.923 275.36 176.868 273.443C176.996 273.052 177.137 272.658 177.29 272.26C178.281 269.699 175.692 268.686 173.629 268.866Z" fill="#A7A7A7"/>
<path d="M206.199 273.009C205.948 274.444 205.658 276.401 206.754 277.355C207.821 278.283 209.033 277.61 209.075 276.217C209.118 274.76 209.079 273.574 208.959 272.657C208.831 271.548 208.531 270.482 208.058 269.458C208.03 269.399 207.988 269.347 207.934 269.31C207.879 269.273 207.816 269.251 207.751 269.247C207.686 269.242 207.62 269.256 207.562 269.286C207.503 269.316 207.454 269.361 207.419 269.417C206.73 270.502 206.323 271.699 206.199 273.009Z" fill="white"/>
<path d="M208.959 272.657C209.079 273.574 209.118 274.761 209.074 276.217C209.033 277.61 207.821 278.283 206.754 277.355C205.658 276.401 205.947 274.445 206.199 273.01C205.854 272.573 205.569 272.6 205.344 273.09C205.305 273.171 205.242 273.203 205.155 273.185L204.369 273.031C204.265 273.011 204.167 273.026 204.077 273.075C203.517 273.375 202.935 273.443 202.33 273.277C202.223 273.247 202.118 273.25 202.014 273.286L200.84 273.689C200.738 273.724 200.632 273.733 200.524 273.715C199.679 273.587 198.874 273.7 198.109 274.053C198.042 274.085 197.99 274.069 197.953 274.006L197.885 273.896C197.853 273.841 197.845 273.844 197.861 273.905C197.898 274.055 197.845 274.135 197.701 274.145C198.107 276.764 198.777 279.775 199.711 283.18C200.137 284.724 200.686 286.024 201.357 287.081C202.599 289.035 206.683 292.778 208.705 289.565C208.74 289.51 208.792 289.48 208.859 289.476C208.884 289.474 208.91 289.475 208.935 289.479L208.885 289.183C210.331 283.802 211.171 278.322 211.403 272.743C211.137 273.026 210.92 273.058 210.75 272.841C210.693 272.77 210.623 272.754 210.54 272.793L209.94 273.081C209.826 273.136 209.739 273.109 209.68 272.998L209.453 272.571C209.405 272.482 209.333 272.45 209.237 272.473C209.117 272.501 209.024 272.562 208.959 272.657Z" fill="#D4D4D4"/>
<path fill-rule="evenodd" clip-rule="evenodd" d="M88.6774 239.173C88.8784 236.237 89.2941 233.343 89.9246 230.491L90.2557 230.408C90.3404 230.386 90.3936 230.333 90.4153 230.248C93.4861 217.884 101.271 206.668 112.431 200.371C122.134 194.897 134.63 193.809 145.229 197.129C164.422 203.137 176.794 220.801 179.011 240.496L179.33 245.312C179.267 253.14 176.878 260.131 172.163 266.284C166.996 272.833 160.445 277.403 152.508 279.994C152.108 280.245 151.666 280.394 151.181 280.441C151.122 280.447 151.066 280.46 151.012 280.481C150.967 280.499 150.924 280.523 150.883 280.551C150.467 280.838 149.994 280.964 149.464 280.931C149.36 280.925 149.273 280.962 149.204 281.043L148.728 281.612C143.707 282.683 140.349 283.255 135.65 283.403L131.441 283.329C126.362 283.214 122.124 282.794 118.729 282.069C115.591 281.399 111.921 280.114 107.72 278.215C106.786 277.646 105.977 276.955 105.294 276.14C99.5972 272.52 95.2545 267.678 92.2655 261.616C89.2725 255.27 88.0164 248.576 88.4972 241.533L88.6774 239.173ZM152.934 278.601C152.952 278.617 152.966 278.633 152.975 278.647C152.984 278.661 152.989 278.673 152.989 278.685C152.988 278.662 152.97 278.633 152.934 278.601Z" fill="url(#paint5_radial_516_1270)"/>
<path d="M218.553 275.61L218.405 275.722C218.334 275.78 218.285 275.852 218.257 275.939C216.661 281.168 214.595 287.212 208.885 289.183L208.935 289.479C212.283 294.538 215.838 299.447 219.599 304.206C223.598 309.263 228.528 306.879 230.626 301.796C229.586 299.223 228.584 296.627 227.62 294.009C225.244 287.555 222.222 281.422 218.553 275.61Z" fill="#CACACA"/>
<path d="M87.6341 276.289L90.1965 285.034C92.4408 292.272 94.9037 299.436 97.5854 306.525C97.6859 306.538 97.7637 306.483 97.8189 306.359C97.8937 306.187 97.9775 306.182 98.0701 306.344L98.2208 306.605C98.272 306.692 98.3341 306.701 98.407 306.634C99.5035 305.617 101.776 305.715 103.201 305.119C104.131 304.73 105.105 304.489 106.124 304.396C106.224 304.386 106.314 304.35 106.393 304.287C107.693 303.258 108.813 303.703 110.341 303.4C110.369 303.396 110.39 303.382 110.404 303.359L110.472 303.24C110.523 303.153 110.584 303.147 110.655 303.222L110.749 303.326C110.468 301.47 110.36 299.746 110.427 298.154C110.463 297.321 111.033 294.632 112.502 295.456C113.607 296.073 114.423 300.54 114.603 301.782L114.677 301.823C114.719 301.849 114.739 301.837 114.739 301.788C114.739 301.75 114.739 301.713 114.739 301.675C114.739 301.649 114.752 301.637 114.778 301.639C115.144 301.665 115.488 301.564 115.809 301.337C115.898 301.274 115.996 301.248 116.105 301.26C116.538 301.302 116.928 301.199 117.275 300.952C117.366 300.887 117.466 300.849 117.577 300.839L119.297 300.691C119.393 300.683 119.475 300.714 119.542 300.783L119.637 300.875C119.654 300.892 119.665 300.89 119.669 300.866C119.673 300.834 119.68 300.81 119.69 300.795C119.741 300.702 119.766 300.71 119.764 300.818C119.764 300.844 119.763 300.869 119.761 300.892C119.747 301.226 119.772 301.226 119.835 300.892C119.86 300.756 119.846 300.628 119.793 300.507C119.774 300.462 119.749 300.459 119.719 300.498C119.686 300.54 119.649 300.558 119.61 300.552C119.498 300.536 119.484 300.489 119.569 300.412C119.713 300.282 119.781 300.121 119.776 299.929C119.161 296.923 118.246 294.012 117.03 291.196C114.258 285.108 108.533 282.102 102.471 279.926C98.1499 278.375 93.2043 277.163 87.6341 276.289Z" fill="#EDEDED"/>
<path d="M133.079 283.672C133.12 283.646 133.118 283.623 133.073 283.604C132.633 283.414 132.185 283.409 131.728 283.589C131.622 283.628 131.572 283.705 131.58 283.82L131.607 284.268C131.619 284.449 131.702 284.494 131.858 284.401L133.079 283.672Z" fill="#E5F6FE"/>
<path d="M172.656 285.626C172.276 285.736 171.979 285.928 171.764 286.201C167.362 291.724 163.571 297.733 160.391 304.226C157.621 310.91 154.892 317.61 152.204 324.327C152.104 324.579 152.175 324.733 152.361 324.902C156.806 319.08 160.539 312.01 163.74 305.857C166.906 299.44 169.812 292.907 172.458 286.257C172.539 286.052 172.605 285.841 172.656 285.626Z" fill="#EDEDED"/>
<path d="M117.03 291.195C118.246 294.011 119.161 296.922 119.776 299.928C122.167 310.97 122.592 322.999 120.26 334.103C122.808 330.332 124.425 325.468 125.666 321.267C128.153 312.847 129.908 304.276 130.933 295.556L131.524 290.072L131.604 288.261C131.608 288.156 131.563 288.077 131.471 288.023L131.11 287.816C131.031 287.769 130.946 287.75 130.853 287.76L127.859 288.041C127.774 288.049 127.707 288.087 127.658 288.154C127.473 288.395 127.247 288.514 126.981 288.51C126.068 288.492 125.835 288.403 125.054 288.99C123.789 289.944 121.747 289.606 120.021 290.223C119.48 290.413 119.049 290.377 118.505 290.365C118.392 290.363 118.329 290.419 118.316 290.531C118.262 290.988 118.073 290.721 117.795 290.789C117.494 290.866 117.239 291.002 117.03 291.195Z" fill="#CACACA"/>
<path d="M131.524 290.072L130.933 295.555C131.126 295.524 131.229 295.597 131.24 295.775C131.633 301.783 134.819 332.988 144.443 331.781C150.581 323.496 154.344 313.142 157.048 303.473C157.935 300.317 158.65 297.127 159.194 293.904C159.385 292.78 159.469 291.646 159.445 290.501C159.413 289.037 156.41 289.013 155.6 288.972C147.638 288.566 139.445 289.233 131.524 290.072Z" fill="#EDEDED"/>
<path d="M110.75 303.325C110.974 304.544 112.192 309.621 113.741 308.949C115.378 308.24 114.76 303.085 114.604 301.781C114.423 300.539 113.608 296.072 112.502 295.455C111.033 294.631 110.463 297.32 110.427 298.153C110.36 299.746 110.468 301.47 110.75 303.325Z" fill="white"/>
<path d="M119.776 299.928C119.782 300.119 119.713 300.28 119.569 300.411C119.484 300.488 119.498 300.534 119.61 300.55C119.65 300.556 119.686 300.538 119.72 300.497C119.749 300.457 119.774 300.46 119.794 300.506C119.847 300.626 119.861 300.755 119.835 300.891C119.772 301.225 119.747 301.225 119.761 300.891C119.763 300.867 119.764 300.843 119.764 300.817C119.766 300.708 119.741 300.7 119.69 300.793C119.68 300.809 119.673 300.833 119.669 300.864C119.666 300.888 119.655 300.891 119.637 300.873L119.542 300.781C119.475 300.712 119.394 300.682 119.297 300.69L117.577 300.838C117.467 300.848 117.366 300.885 117.275 300.95C116.929 301.197 116.539 301.3 116.105 301.259C115.997 301.247 115.898 301.273 115.81 301.336C115.488 301.563 115.145 301.664 114.778 301.638C114.752 301.636 114.74 301.648 114.74 301.674C114.74 301.711 114.74 301.749 114.74 301.786C114.74 301.836 114.719 301.848 114.678 301.822L114.604 301.78C114.76 303.085 115.378 308.239 113.741 308.948C112.192 309.621 110.974 304.543 110.75 303.325L110.655 303.221C110.584 303.146 110.523 303.152 110.472 303.239L110.404 303.357C110.39 303.381 110.369 303.395 110.342 303.399C108.814 303.701 107.694 303.257 106.393 304.285C106.314 304.348 106.225 304.385 106.124 304.395C105.106 304.488 104.131 304.729 103.201 305.118C101.777 305.714 99.5038 305.616 98.4073 306.633C98.3344 306.7 98.2723 306.69 98.2211 306.603L98.0703 306.342C97.9777 306.18 97.894 306.185 97.8191 306.357C97.764 306.482 97.6861 306.537 97.5856 306.523C100.668 315.028 104.197 323.455 108.737 331.289C110.294 333.975 113.921 339.862 117.568 337.156C118.693 336.322 119.591 335.304 120.261 334.102C122.592 322.998 122.167 310.97 119.776 299.928Z" fill="#D4D4D4"/>
<path d="M157.048 303.473C154.344 313.143 150.581 323.497 144.443 331.782C147.496 331.299 150.711 327.386 152.36 324.902C152.174 324.733 152.103 324.579 152.204 324.327C154.891 317.61 157.62 310.91 160.391 304.226C160.371 304.167 160.368 304.102 160.382 304.031C160.401 303.938 160.364 303.89 160.269 303.888C159.971 303.877 159.767 303.968 159.483 303.882C158.715 303.651 157.903 303.515 157.048 303.473Z" fill="#CACACA"/>
<g style="mix-blend-mode:screen">
<path d="M126.216 19.6145C160.275 14.0667 203.167 52.051 194.419 69.6299C185.672 87.2088 158.337 60.4174 139.091 54.289C119.846 48.1607 74.8905 92.7385 69.9917 79.1916C65.0929 65.6447 85.8306 26.193 126.216 19.6145Z" fill="url(#paint6_linear_516_1270)" fill-opacity="0.4"/>
</g>
<g style="mix-blend-mode:overlay">
<path d="M132.816 278.518C146.158 278.518 154.884 274.237 160.437 269.322C165.548 264.799 161.229 257.924 154.404 257.924H114.678C106.915 257.924 101.546 267.319 107.827 271.88C113.006 275.639 120.693 278.518 132.816 278.518Z" fill="url(#paint7_linear_516_1270)" fill-opacity="0.3"/>
</g>
<g style="mix-blend-mode:overlay">
<path d="M135.231 198.625C152.332 197.834 163.698 210.721 169.331 221.095C171.453 225.004 169.859 229.875 165.592 231.131C145.376 237.078 116.33 220.746 111.856 218.139C106.847 215.22 96.8297 227.973 97.1332 222.902C97.4368 217.832 108.669 199.855 135.231 198.625Z" fill="url(#paint8_linear_516_1270)" fill-opacity="0.3"/>
</g>
<defs>
<radialGradient id="paint0_radial_516_1270" cx="0" cy="0" r="1" gradientUnits="userSpaceOnUse" gradientTransform="translate(55.5577 73.237) rotate(-90) scale(76.5074 33.6972)">
<stop stop-color="#1364DF"/>
<stop offset="0.300347" stop-color="#1364DF"/>
<stop offset="0.690972" stop-color="#64A2FF"/>
<stop offset="1" stop-color="#2477F4"/>
</radialGradient>
<radialGradient id="paint1_radial_516_1270" cx="0" cy="0" r="1" gradientUnits="userSpaceOnUse" gradientTransform="translate(212.936 76.6478) rotate(-90) scale(77.7714 33.4883)">
<stop stop-color="#1364DF"/>
<stop offset="0.300347" stop-color="#1364DF"/>
<stop offset="0.690972" stop-color="#64A2FF"/>
<stop offset="1" stop-color="#2477F4"/>
</radialGradient>
<radialGradient id="paint2_radial_516_1270" cx="0" cy="0" r="1" gradientUnits="userSpaceOnUse" gradientTransform="translate(98.6062 87.1313) rotate(-90) scale(36.5638 41.9027)">
<stop stop-color="#1364DF"/>
<stop offset="0.300347" stop-color="#1364DF"/>
<stop offset="0.690972" stop-color="#64A2FF"/>
<stop offset="1" stop-color="#2477F4"/>
</radialGradient>
<radialGradient id="paint3_radial_516_1270" cx="0" cy="0" r="1" gradientUnits="userSpaceOnUse" gradientTransform="translate(169.026 86.8845) rotate(-90) scale(36.1643 42.6521)">
<stop stop-color="#1364DF"/>
<stop offset="0.300347" stop-color="#1364DF"/>
<stop offset="0.690972" stop-color="#64A2FF"/>
<stop offset="1" stop-color="#2477F4"/>
</radialGradient>
<linearGradient id="paint4_linear_516_1270" x1="133.743" y1="16.8723" x2="133.743" y2="143.847" gradientUnits="userSpaceOnUse">
<stop stop-color="#010622"/>
<stop offset="1" stop-color="#0B4684"/>
</linearGradient>
<radialGradient id="paint5_radial_516_1270" cx="0" cy="0" r="1" gradientUnits="userSpaceOnUse" gradientTransform="translate(133.864 283.403) rotate(-90) scale(109.654 113.114)">
<stop stop-color="#1364DF"/>
<stop offset="0.300347" stop-color="#1364DF"/>
<stop offset="0.690972" stop-color="#64A2FF"/>
<stop offset="1" stop-color="#2477F4"/>
</radialGradient>
<linearGradient id="paint6_linear_516_1270" x1="128.172" y1="21.0853" x2="128.172" y2="81.3982" gradientUnits="userSpaceOnUse">
<stop stop-color="white"/>
<stop offset="1" stop-color="white" stop-opacity="0"/>
</linearGradient>
<linearGradient id="paint7_linear_516_1270" x1="132.573" y1="268.067" x2="132.573" y2="257.924" gradientUnits="userSpaceOnUse">
<stop stop-color="white"/>
<stop offset="1" stop-color="white" stop-opacity="0"/>
</linearGradient>
<linearGradient id="paint8_linear_516_1270" x1="134.624" y1="209.996" x2="128.57" y2="230.545" gradientUnits="userSpaceOnUse">
<stop stop-color="white"/>
<stop offset="1" stop-color="white" stop-opacity="0"/>
</linearGradient>
</defs>
</svg>
