<svg width="157" height="40" viewBox="0 0 157 40" fill="none" xmlns="http://www.w3.org/2000/svg">
<path d="M31.9655 13.7589C36.6518 16.6529 36.6518 23.3471 31.9655 26.2411L11.5445 38.8519C6.5305 41.9482 -2.59072e-07 38.4178 0 32.6108L1.12523e-06 7.38922C1.3843e-06 1.58221 6.53051 -1.94824 11.5445 1.14813L31.9655 13.7589Z" fill="url(#paint0_linear_260_222)"/>
<rect width="2.87957" height="6.27747" rx="1.43979" transform="matrix(-1 0 0 1 6.70593 16.8818)" fill="white"/>
<rect width="2.87957" height="21.3011" rx="1.43979" transform="matrix(-1 0 0 1 11.5144 9.36987)" fill="white"/>
<rect width="2.87957" height="12.2728" rx="1.43979" transform="matrix(-1 0 0 1 16.3228 13.8842)" fill="white"/>
<rect width="2.87957" height="17.4217" rx="1.43979" transform="matrix(-1 0 0 1 21.131 11.3094)" fill="white"/>
<rect width="2.80758" height="6.27747" rx="1.40379" transform="matrix(-1 0 0 1 25.8674 16.8818)" fill="white"/>
<path d="M50.294 29.0504C49.2223 29.0504 48.2827 28.9419 47.4753 28.7249C46.6679 28.4925 45.9926 28.1593 45.4494 27.7254C44.9209 27.2915 44.5172 26.7723 44.2383 26.1679C43.974 25.548 43.8272 24.8584 43.7979 24.099H47.7616C47.8203 24.3935 47.9084 24.6492 48.0258 24.8661C48.158 25.0831 48.3268 25.2613 48.5323 25.4008C48.7378 25.5403 48.9801 25.641 49.259 25.703C49.5526 25.765 49.8976 25.796 50.294 25.796C50.7197 25.796 51.0867 25.765 51.395 25.703C51.718 25.641 51.9822 25.548 52.1878 25.424C52.408 25.3001 52.5695 25.1451 52.6722 24.9591C52.775 24.7732 52.8264 24.5562 52.8264 24.3082C52.8264 23.9828 52.7456 23.7194 52.5841 23.5179C52.4226 23.3009 52.1878 23.115 51.8795 22.96C51.5712 22.7895 51.1895 22.6423 50.7344 22.5183C50.2793 22.3943 49.7508 22.2626 49.1489 22.1231C48.3855 21.9372 47.6955 21.7125 47.0789 21.449C46.477 21.1856 45.9632 20.8601 45.5375 20.4727C45.1264 20.0698 44.8035 19.5894 44.5686 19.0315C44.3484 18.4581 44.2383 17.7762 44.2383 16.9858C44.2383 16.2265 44.3777 15.5523 44.6567 14.9634C44.9356 14.3591 45.3393 13.8554 45.8678 13.4525C46.3963 13.034 47.0349 12.7164 47.7836 12.4994C48.5323 12.2824 49.3691 12.174 50.294 12.174C51.3069 12.174 52.1878 12.2824 52.9365 12.4994C53.6852 12.7009 54.3091 13.003 54.8082 13.406C55.322 13.8089 55.7111 14.3048 55.9753 14.8937C56.2543 15.4826 56.4157 16.149 56.4598 16.8928H52.496C52.452 16.6449 52.3786 16.4279 52.2758 16.242C52.1731 16.056 52.0336 15.9088 51.8574 15.8003C51.6813 15.6763 51.4611 15.5833 51.1968 15.5213C50.9473 15.4594 50.6463 15.4284 50.294 15.4284C49.8976 15.4284 49.5673 15.4671 49.303 15.5446C49.0388 15.6066 48.8259 15.6996 48.6644 15.8235C48.503 15.9475 48.3855 16.0947 48.3121 16.2652C48.2387 16.4357 48.202 16.6294 48.202 16.8464C48.202 17.1253 48.2754 17.3655 48.4222 17.567C48.569 17.7684 48.7819 17.9467 49.0608 18.1016C49.3397 18.2411 49.6847 18.3651 50.0958 18.4736C50.5068 18.582 50.9766 18.6983 51.5051 18.8222C52.2979 18.9927 53.0172 19.2019 53.6631 19.4499C54.3238 19.6823 54.8816 20 55.3367 20.403C55.8065 20.7904 56.1662 21.2708 56.4157 21.8442C56.6653 22.4021 56.7901 23.0917 56.7901 23.9131C56.7901 24.7189 56.6433 25.4395 56.3497 26.0749C56.0561 26.7103 55.6303 27.2527 55.0725 27.7021C54.5146 28.136 53.832 28.4692 53.0245 28.7017C52.2171 28.9342 51.3069 29.0504 50.294 29.0504Z" fill="white"/>
<path d="M58.7702 33.3973V16.4279H61.8972V18.1016C62.044 17.8537 62.2275 17.6135 62.4477 17.381C62.6826 17.133 62.9542 16.9161 63.2625 16.7301C63.5708 16.5442 63.9158 16.3969 64.2975 16.2885C64.6791 16.18 65.0902 16.1257 65.5306 16.1257C66.3527 16.1257 67.0721 16.2575 67.6886 16.5209C68.3199 16.7689 68.8484 17.1485 69.2741 17.66C69.6999 18.1714 70.0155 18.8067 70.221 19.5661C70.4412 20.3255 70.5513 21.2166 70.5513 22.2394V22.7043C70.5513 23.7426 70.4339 24.6647 70.199 25.4705C69.9641 26.2609 69.6265 26.9195 69.1861 27.4464C68.7456 27.9733 68.2171 28.3763 67.6006 28.6552C66.984 28.9187 66.294 29.0504 65.5306 29.0504C64.87 29.0504 64.2387 28.8954 63.6368 28.5855C63.0496 28.26 62.5578 27.7951 62.1614 27.1907V33.3973H58.7702ZM64.7158 26.0982C65.0535 26.0982 65.3618 26.0284 65.6407 25.889C65.9343 25.734 66.1839 25.517 66.3894 25.2381C66.6096 24.9591 66.7785 24.6104 66.8959 24.192C67.0133 23.7581 67.0721 23.2622 67.0721 22.7043V22.2394C67.0721 21.697 67.0133 21.2321 66.8959 20.8446C66.7931 20.4417 66.6317 20.1163 66.4114 19.8683C66.2059 19.6048 65.9563 19.4111 65.6627 19.2872C65.3838 19.1477 65.0682 19.0779 64.7158 19.0779C64.3635 19.0779 64.0259 19.1399 63.7029 19.2639C63.3946 19.3724 63.123 19.5506 62.8881 19.7986C62.6679 20.031 62.4918 20.3255 62.3596 20.6819C62.2275 21.0228 62.1614 21.4258 62.1614 21.8907V23.053C62.1614 23.5334 62.2275 23.9673 62.3596 24.3547C62.4918 24.7267 62.6679 25.0444 62.8881 25.3078C63.123 25.5713 63.3946 25.7727 63.7029 25.9122C64.0259 26.0362 64.3635 26.0982 64.7158 26.0982Z" fill="white"/>
<path d="M77.9335 29.0504C77.082 29.0504 76.2819 28.9264 75.5332 28.6784C74.7992 28.415 74.1606 28.0198 73.6174 27.4929C73.0742 26.966 72.6485 26.3074 72.3402 25.517C72.0319 24.7112 71.8778 23.7736 71.8778 22.7043V22.2394C71.8778 21.2166 72.0246 20.3255 72.3182 19.5661C72.6265 18.8067 73.0375 18.1714 73.5513 17.66C74.0798 17.1485 74.6964 16.7689 75.4011 16.5209C76.1204 16.2575 76.8911 16.1257 77.7133 16.1257C79.6364 16.1257 81.0898 16.6526 82.0734 17.7064C83.057 18.7448 83.5488 20.2557 83.5488 22.2394V23.5179H75.357C75.3717 23.9983 75.4525 24.409 75.5993 24.7499C75.7461 25.0754 75.9369 25.3466 76.1718 25.5635C76.4067 25.7805 76.6783 25.9432 76.9866 26.0517C77.2949 26.1447 77.6105 26.1912 77.9335 26.1912C78.5941 26.1912 79.1079 26.0904 79.4749 25.889C79.8419 25.672 80.0842 25.3853 80.2016 25.0289H83.3285C83.2111 25.6952 83.0056 26.2841 82.712 26.7955C82.4184 27.2915 82.044 27.7099 81.5889 28.0508C81.1338 28.3918 80.598 28.6397 79.9814 28.7947C79.3648 28.9651 78.6822 29.0504 77.9335 29.0504ZM75.3791 21.1701H80.2236C80.2236 20.7361 80.1576 20.3797 80.0254 20.1008C79.908 19.8218 79.7392 19.5971 79.519 19.4266C79.2987 19.2562 79.0418 19.1399 78.7482 19.0779C78.4546 19.0005 78.1463 18.9617 77.8234 18.9617C77.5151 18.9617 77.2141 19.0005 76.9205 19.0779C76.6416 19.1554 76.3847 19.2872 76.1498 19.4731C75.9296 19.6436 75.7461 19.8683 75.5993 20.1473C75.4671 20.4262 75.3937 20.7671 75.3791 21.1701Z" fill="white"/>
<path d="M90.9223 29.0504C90.0708 29.0504 89.2707 28.9264 88.522 28.6784C87.788 28.415 87.1494 28.0198 86.6062 27.4929C86.063 26.966 85.6373 26.3074 85.329 25.517C85.0207 24.7112 84.8666 23.7736 84.8666 22.7043V22.2394C84.8666 21.2166 85.0134 20.3255 85.307 19.5661C85.6153 18.8067 86.0263 18.1714 86.5401 17.66C87.0686 17.1485 87.6852 16.7689 88.3899 16.5209C89.1092 16.2575 89.8799 16.1257 90.7021 16.1257C92.6252 16.1257 94.0786 16.6526 95.0622 17.7064C96.0458 18.7448 96.5376 20.2557 96.5376 22.2394V23.5179H88.3458C88.3605 23.9983 88.4413 24.409 88.5881 24.7499C88.7349 25.0754 88.9257 25.3466 89.1606 25.5635C89.3955 25.7805 89.6671 25.9432 89.9754 26.0517C90.2837 26.1447 90.5993 26.1912 90.9223 26.1912C91.5829 26.1912 92.0967 26.0904 92.4637 25.889C92.8307 25.672 93.073 25.3853 93.1904 25.0289H96.3173C96.1999 25.6952 95.9944 26.2841 95.7008 26.7955C95.4072 27.2915 95.0328 27.7099 94.5777 28.0508C94.1226 28.3918 93.5868 28.6397 92.9702 28.7947C92.3536 28.9651 91.671 29.0504 90.9223 29.0504ZM88.3679 21.1701H93.2124C93.2124 20.7361 93.1464 20.3797 93.0142 20.1008C92.8968 19.8218 92.728 19.5971 92.5078 19.4266C92.2875 19.2562 92.0306 19.1399 91.737 19.0779C91.4434 19.0005 91.1351 18.9617 90.8122 18.9617C90.5039 18.9617 90.2029 19.0005 89.9093 19.0779C89.6304 19.1554 89.3735 19.2872 89.1386 19.4731C88.9184 19.6436 88.7349 19.8683 88.5881 20.1473C88.4559 20.4262 88.3825 20.7671 88.3679 21.1701Z" fill="white"/>
<path d="M103.801 29.0504C102.935 29.0504 102.135 28.9187 101.401 28.6552C100.681 28.3918 100.057 27.9966 99.5289 27.4697C99.0004 26.9428 98.5894 26.2841 98.2958 25.4938C98.0022 24.7034 97.8554 23.7736 97.8554 22.7043V22.2394C97.8554 21.263 98.0095 20.3952 98.3178 19.6358C98.6408 18.8765 99.0665 18.2411 99.595 17.7297C100.138 17.2028 100.769 16.8076 101.489 16.5442C102.223 16.2652 102.994 16.1257 103.801 16.1257C104.682 16.1257 105.453 16.2497 106.113 16.4977C106.788 16.7456 107.354 17.0866 107.809 17.5205C108.264 17.9389 108.616 18.4348 108.866 19.0082C109.115 19.5816 109.262 20.1937 109.306 20.8446H105.827C105.768 20.5657 105.687 20.3177 105.585 20.1008C105.482 19.8838 105.342 19.7056 105.166 19.5661C105.005 19.4111 104.814 19.2949 104.594 19.2174C104.374 19.1399 104.109 19.1012 103.801 19.1012C103.449 19.1012 103.118 19.1709 102.81 19.3104C102.516 19.4344 102.26 19.6281 102.039 19.8915C101.819 20.1395 101.643 20.4649 101.511 20.8679C101.393 21.2553 101.335 21.7125 101.335 22.2394V22.7043C101.335 23.2777 101.393 23.7736 101.511 24.192C101.628 24.6104 101.79 24.9591 101.995 25.2381C102.215 25.517 102.48 25.7262 102.788 25.8657C103.096 25.9897 103.434 26.0517 103.801 26.0517C104.315 26.0517 104.748 25.9122 105.1 25.6333C105.467 25.3388 105.709 24.9049 105.827 24.3315H109.306C109.262 25.0599 109.101 25.7185 108.822 26.3074C108.543 26.8808 108.161 27.3767 107.677 27.7951C107.207 28.198 106.642 28.508 105.981 28.7249C105.335 28.9419 104.608 29.0504 103.801 29.0504Z" fill="white"/>
<path d="M110.962 28.7482V12.4761H114.353V17.9854C114.471 17.7839 114.632 17.5747 114.838 17.3578C115.043 17.1408 115.293 16.9393 115.586 16.7534C115.895 16.5674 116.247 16.4202 116.643 16.3117C117.04 16.1877 117.48 16.1257 117.965 16.1257C119.374 16.1257 120.431 16.5287 121.136 17.3345C121.84 18.1249 122.193 19.2484 122.193 20.7051V28.7482H118.801V21.542C118.801 20.7361 118.633 20.1318 118.295 19.7288C117.972 19.3104 117.436 19.1012 116.687 19.1012C116.276 19.1012 115.924 19.1632 115.63 19.2872C115.337 19.4111 115.095 19.5816 114.904 19.7986C114.713 20.0155 114.573 20.2712 114.485 20.5657C114.397 20.8601 114.353 21.1856 114.353 21.542V28.7482H110.962Z" fill="white"/>
<path d="M136.07 29.0504C135.042 29.0504 134.11 28.9109 133.273 28.632C132.451 28.3375 131.747 27.9113 131.159 27.3534C130.587 26.78 130.139 26.0672 129.816 25.2148C129.508 24.3625 129.354 23.3707 129.354 22.2394V12.4761H133.317V21.7512C133.317 22.3711 133.361 22.9212 133.45 23.4017C133.552 23.8821 133.714 24.285 133.934 24.6104C134.154 24.9204 134.44 25.1606 134.793 25.3311C135.145 25.486 135.571 25.5635 136.07 25.5635C136.598 25.5635 137.039 25.486 137.391 25.3311C137.744 25.1606 138.022 24.9204 138.228 24.6104C138.448 24.285 138.602 23.8898 138.69 23.4249C138.779 22.9445 138.823 22.3943 138.823 21.7745V12.4761H142.786V22.2394C142.786 23.3707 142.632 24.3625 142.324 25.2148C142.016 26.0672 141.568 26.78 140.981 27.3534C140.408 27.9113 139.703 28.3375 138.867 28.632C138.044 28.9109 137.112 29.0504 136.07 29.0504Z" fill="white"/>
<path d="M145.219 33.3973V16.4279H148.346V18.1016C148.493 17.8537 148.676 17.6135 148.896 17.381C149.131 17.133 149.403 16.9161 149.711 16.7301C150.019 16.5442 150.364 16.3969 150.746 16.2885C151.128 16.18 151.539 16.1257 151.979 16.1257C152.801 16.1257 153.521 16.2575 154.137 16.5209C154.769 16.7689 155.297 17.1485 155.723 17.66C156.149 18.1714 156.464 18.8067 156.67 19.5661C156.89 20.3255 157 21.2166 157 22.2394V22.7043C157 23.7426 156.883 24.6647 156.648 25.4705C156.413 26.2609 156.075 26.9195 155.635 27.4464C155.194 27.9733 154.666 28.3763 154.049 28.6552C153.433 28.9187 152.743 29.0504 151.979 29.0504C151.319 29.0504 150.687 28.8954 150.085 28.5855C149.498 28.26 149.006 27.7951 148.61 27.1907V33.3973H145.219ZM151.165 26.0982C151.502 26.0982 151.81 26.0284 152.089 25.889C152.383 25.734 152.633 25.517 152.838 25.2381C153.058 24.9591 153.227 24.6104 153.345 24.192C153.462 23.7581 153.521 23.2622 153.521 22.7043V22.2394C153.521 21.697 153.462 21.2321 153.345 20.8446C153.242 20.4417 153.08 20.1163 152.86 19.8683C152.655 19.6048 152.405 19.4111 152.111 19.2872C151.832 19.1477 151.517 19.0779 151.165 19.0779C150.812 19.0779 150.475 19.1399 150.152 19.2639C149.843 19.3724 149.572 19.5506 149.337 19.7986C149.117 20.031 148.94 20.3255 148.808 20.6819C148.676 21.0228 148.61 21.4258 148.61 21.8907V23.053C148.61 23.5334 148.676 23.9673 148.808 24.3547C148.94 24.7267 149.117 25.0444 149.337 25.3078C149.572 25.5713 149.843 25.7727 150.152 25.9122C150.475 26.0362 150.812 26.0982 151.165 26.0982Z" fill="white"/>
<defs>
<linearGradient id="paint0_linear_260_222" x1="38.7463" y1="35.9422" x2="-15.6068" y2="-2.30472" gradientUnits="userSpaceOnUse">
<stop stop-color="#51ACFF"/>
<stop offset="1" stop-color="#0055D5"/>
</linearGradient>
</defs>
</svg>
