<svg width="15" height="15" viewBox="0 0 15 15" fill="none" xmlns="http://www.w3.org/2000/svg">
<g clip-path="url(#clip0_260_87)">
<path d="M7.5 15.001C11.6421 15.001 15 11.6431 15 7.50098C15 3.35884 11.6421 0.000976562 7.5 0.000976562C3.35786 0.000976562 0 3.35884 0 7.50098C0 11.6431 3.35786 15.001 7.5 15.001Z" fill="#37476A"/>
<path fill-rule="evenodd" clip-rule="evenodd" d="M3.39489 7.42243C5.58129 6.46985 7.03923 5.84185 7.76872 5.53843C9.85155 4.67211 10.2843 4.52162 10.5664 4.51665C10.6285 4.51556 10.7672 4.53094 10.8571 4.60385C10.9329 4.66542 10.9538 4.74859 10.9638 4.80696C10.9738 4.86533 10.9862 4.99831 10.9763 5.10221C10.8635 6.28814 10.3751 9.16607 10.1266 10.4943C10.0215 11.0564 9.81448 11.2448 9.61407 11.2633C9.17853 11.3033 8.8478 10.9754 8.42596 10.6989C7.76586 10.2662 7.39295 9.99684 6.75221 9.5746C6.01173 9.08663 6.49175 8.81844 6.91375 8.38013C7.02419 8.26542 8.94319 6.51995 8.98033 6.36161C8.98497 6.3418 8.98928 6.26799 8.94543 6.22901C8.90158 6.19003 8.83685 6.20336 8.79015 6.21396C8.72394 6.22899 7.66943 6.92598 5.6266 8.30494C5.32728 8.51048 5.05617 8.61062 4.81326 8.60538C4.54547 8.59959 4.03035 8.45396 3.64741 8.32949C3.17773 8.17681 2.80443 8.09609 2.83693 7.8368C2.85387 7.70174 3.03985 7.56362 3.39489 7.42243Z" fill="white"/>
</g>
<defs>
<clipPath id="clip0_260_87">
<rect width="15" height="15" fill="white"/>
</clipPath>
</defs>
</svg>
