<svg width="22" height="23" viewBox="0 0 22 23" fill="none" xmlns="http://www.w3.org/2000/svg">
<path opacity="0.4" d="M14.8409 2.38916H7.15921C3.82254 2.38916 1.83337 4.37833 1.83337 7.71499V15.3875C1.83337 18.7333 3.82254 20.7225 7.15921 20.7225H14.8317C18.1684 20.7225 20.1575 18.7333 20.1575 15.3967V7.71499C20.1667 4.37833 18.1775 2.38916 14.8409 2.38916Z" fill="white"/>
<path d="M9.69832 14.8373C9.51499 14.8373 9.34082 14.764 9.21249 14.6356L6.61832 12.0415C6.35249 11.7756 6.35249 11.3356 6.61832 11.0698C6.88415 10.804 7.32415 10.804 7.58999 11.0698L9.69832 13.1781L14.41 8.46646C14.6758 8.20063 15.1158 8.20063 15.3817 8.46646C15.6475 8.7323 15.6475 9.1723 15.3817 9.43813L10.1842 14.6356C10.0558 14.764 9.88165 14.8373 9.69832 14.8373Z" fill="white"/>
</svg>
