<svg width="69" height="64" viewBox="0 0 69 64" fill="none" xmlns="http://www.w3.org/2000/svg">
<ellipse cx="35.1324" cy="32.1325" rx="20.1324" ry="20.1325" fill="#EBEFF9"/>
<ellipse cx="19.9544" cy="3.5" rx="3.49998" ry="3.5" fill="#EBEFF9"/>
<ellipse cx="3.49998" cy="32.3145" rx="3.49998" ry="3.5" fill="#2477F4"/>
<ellipse cx="19.9546" cy="60.5" rx="3.49998" ry="3.5" fill="#2477F4"/>
<ellipse cx="49.9546" cy="3.5" rx="3.49998" ry="3.5" fill="#2477F4"/>
<ellipse cx="65.5" cy="32.3145" rx="3.49998" ry="3.5" fill="#2477F4"/>
<ellipse cx="49.9544" cy="60.5" rx="3.49998" ry="3.5" fill="#2477F4"/>
<path d="M27.5836 24.1808C27.5842 24.1127 27.6125 24.0565 27.6684 24.0122C27.7199 23.9709 27.7469 23.9493 27.7492 23.9473C28.3637 23.3625 29.0371 22.8565 29.7696 22.4291C30.2089 22.1732 30.6274 21.8986 31.1073 21.7225C31.1117 21.721 31.1156 21.7182 31.1185 21.7146C31.1215 21.711 31.1233 21.7067 31.124 21.702C31.1246 21.6974 31.1239 21.6927 31.122 21.6885C31.1201 21.6842 31.1171 21.6806 31.1133 21.6779C30.9764 21.5811 30.8333 21.5193 30.6839 21.4925C30.6198 21.4809 30.5562 21.4616 30.493 21.4345C30.3478 21.3715 30.1197 21.3551 30.027 21.3343C29.7334 21.2685 29.4359 21.2406 29.1345 21.2505C28.958 21.256 28.7859 21.317 28.6045 21.3452C28.0482 21.4325 27.5137 21.608 27.0372 21.8629C26.8815 21.9457 26.8185 22.0091 26.6331 21.9957C26.346 21.9754 26.0178 21.9506 25.7624 22.0929C25.1809 22.4162 25.1704 22.9294 25.277 23.5189C25.2801 23.5353 25.2793 23.5522 25.2748 23.5683C25.2702 23.5843 25.262 23.5989 25.2508 23.6111C24.9726 23.915 24.8353 24.3856 24.7416 24.7773C24.7004 24.9483 24.5824 25.162 24.5879 25.3603C24.6003 25.7818 24.5274 26.0644 24.5765 26.5052C24.6032 26.7462 24.5586 26.995 24.6295 27.2539C24.6328 27.2664 24.6391 27.2772 24.6483 27.2861L24.6652 27.3034C24.6754 27.3134 24.6822 27.3253 24.6855 27.3391C24.7285 27.5051 24.7865 27.6661 24.8596 27.8221C24.8625 27.8284 24.8671 27.8338 24.873 27.8376C24.8789 27.8414 24.8857 27.8434 24.8927 27.8434C24.8998 27.8434 24.9067 27.8414 24.9127 27.8376C24.9186 27.8338 24.9234 27.8284 24.9265 27.8221C25.1972 27.2492 25.5063 26.6999 25.8537 26.174C26.0822 25.8284 26.3941 25.4357 26.6628 25.0678C26.7379 24.965 26.8468 24.8746 26.9896 24.7966C26.4458 25.3998 25.9743 26.0525 25.575 26.7546C25.2899 27.2558 25.0743 27.6495 24.9096 28.1404C24.9077 28.146 24.9041 28.1508 24.8994 28.1544C24.8947 28.1579 24.889 28.1599 24.8831 28.1601C24.8771 28.1603 24.8713 28.1587 24.8663 28.1556C24.8613 28.1524 24.8574 28.1478 24.8551 28.1424C24.392 27.0436 24.3047 25.7927 24.684 24.6523C24.808 24.2785 24.9503 23.8555 25.1992 23.5457C25.2029 23.5412 25.2054 23.5357 25.2062 23.5299C25.2071 23.524 25.2064 23.518 25.2042 23.5124C24.8139 22.5069 25.7064 21.6343 26.7035 21.9516C26.7207 21.9572 26.7372 21.9557 26.7531 21.9471C28.3323 21.0978 29.7989 20.9719 31.447 21.6502C31.4486 21.6508 31.4499 21.652 31.4509 21.6534C31.4518 21.6549 31.4523 21.6566 31.4523 21.6583C31.4523 21.6601 31.4518 21.6618 31.4509 21.6632C31.4499 21.6647 31.4486 21.6658 31.447 21.6665C29.9883 22.2443 28.7005 23.0824 27.5836 24.1808Z" fill="#2477F4"/>
<path d="M44.7671 21.9621C44.663 21.9591 44.5678 21.9329 44.4815 21.8833C44.2287 21.738 43.8528 21.5764 43.6729 21.5506C43.4304 21.5159 43.1741 21.4187 42.9767 21.381C42.6432 21.3172 42.3064 21.2862 41.9663 21.2878C41.7982 21.2888 41.6341 21.3453 41.4625 21.3716C41.1035 21.4266 40.7743 21.5362 40.4327 21.6369C40.4269 21.6385 40.4217 21.6419 40.4179 21.6466C40.4142 21.6514 40.4119 21.6571 40.4115 21.6632C40.4111 21.6692 40.4126 21.6752 40.4158 21.6803C40.419 21.6855 40.4237 21.6895 40.4292 21.6919C40.9541 21.9229 41.4513 22.2032 41.9207 22.5328C41.9276 22.5374 41.9286 22.543 41.9236 22.5497L41.9107 22.5675C41.3448 22.2201 40.7548 21.9213 40.1407 21.6711C40.1258 21.6651 40.1258 21.6588 40.1407 21.6522C41.6361 21.0047 43.3724 21.082 44.7671 21.9621Z" fill="#2477F4"/>
<path d="M27.5835 24.1808L26.9895 24.7966C26.8467 24.8746 26.7378 24.965 26.6628 25.0678C26.3941 25.4357 26.0822 25.8284 25.8536 26.1739C25.5062 26.6998 25.1972 27.2492 24.9264 27.822C24.9234 27.8284 24.9186 27.8338 24.9126 27.8376C24.9066 27.8413 24.8997 27.8433 24.8927 27.8433C24.8857 27.8433 24.8788 27.8413 24.8729 27.8376C24.8671 27.8338 24.8624 27.8284 24.8595 27.822C24.7865 27.666 24.7284 27.505 24.6855 27.3391C24.6822 27.3252 24.6754 27.3133 24.6652 27.3034L24.6483 27.2861C24.639 27.2771 24.6328 27.2664 24.6295 27.2538C24.5585 26.995 24.6032 26.7461 24.5764 26.5051C24.5273 26.0644 24.6002 25.7817 24.5878 25.3603C24.5823 25.162 24.7004 24.9483 24.7415 24.7772C24.8352 24.3855 24.9726 23.915 25.2507 23.6111C25.2619 23.5989 25.2702 23.5842 25.2747 23.5682C25.2793 23.5522 25.2801 23.5353 25.277 23.5188C25.1704 22.9293 25.1808 22.4161 25.7624 22.0929C26.0177 21.9506 26.346 21.9754 26.633 21.9957C26.8185 22.0091 26.8814 21.9456 27.0371 21.8628C27.5136 21.608 28.0481 21.4324 28.6044 21.3452C28.7859 21.3169 28.9579 21.2559 29.1344 21.2505C29.4359 21.2406 29.7334 21.2685 30.0269 21.3343C30.1196 21.3551 30.3477 21.3715 30.493 21.4344C30.5561 21.4615 30.6197 21.4809 30.6839 21.4924C30.8333 21.5192 30.9764 21.581 31.1132 21.6779C31.1171 21.6805 31.1201 21.6842 31.122 21.6884C31.1239 21.6927 31.1245 21.6974 31.1239 21.702C31.1233 21.7066 31.1214 21.711 31.1185 21.7146C31.1156 21.7182 31.1117 21.7209 31.1073 21.7225C30.6273 21.8985 30.2089 22.1732 29.7696 22.429C29.0371 22.8564 28.3636 23.3625 27.7491 23.9472C27.7468 23.9492 27.7199 23.9709 27.6683 24.0122C27.6124 24.0565 27.5842 24.1127 27.5835 24.1808Z" fill="#2477F4"/>
<path d="M44.7672 21.9625L44.849 21.9639C45.042 21.9636 45.2336 21.9735 45.4236 21.9937C45.9601 22.0507 46.0974 22.2981 46.3146 22.7315C46.44 22.9819 46.4029 23.2506 46.2333 23.4687C46.2217 23.4833 46.2202 23.4988 46.2288 23.5154C46.27 23.5927 46.3503 23.6577 46.3855 23.7246C46.5775 24.0958 46.739 24.5076 46.8699 24.9602C46.9076 25.0914 46.9212 25.212 46.9106 25.3221C46.9089 25.3386 46.9117 25.3543 46.919 25.3692C47.0238 25.5884 47.0549 25.8166 47.0122 26.0539C46.9646 26.3172 47.042 26.5443 46.9671 26.822C46.9468 26.8968 46.8774 26.997 46.8823 27.1051C46.8869 27.2069 46.8817 27.3019 46.8664 27.3902C46.8451 27.5106 46.7608 27.6376 46.742 27.7843C46.74 27.8019 46.7306 27.808 46.7137 27.8027L46.6141 27.7719C46.5949 27.7663 46.5848 27.7536 46.5838 27.7338C46.5789 27.6571 46.5592 27.586 46.5248 27.5206C46.3984 27.2821 46.2829 27.0406 46.1267 26.7947C46.0989 26.7511 46.0753 26.7532 46.0558 26.8011L46.0384 26.8443C45.0068 25.0868 43.6309 23.6613 41.9108 22.5679L41.9237 22.55C41.9286 22.5434 41.9276 22.5378 41.9207 22.5331C41.4513 22.2036 40.9542 21.9233 40.4293 21.6922C40.4237 21.6899 40.419 21.6858 40.4158 21.6807C40.4127 21.6755 40.4112 21.6695 40.4116 21.6635C40.4119 21.6575 40.4142 21.6517 40.418 21.647C40.4218 21.6423 40.4269 21.6389 40.4327 21.6372C40.7744 21.5366 41.1036 21.427 41.4625 21.3719C41.6341 21.3457 41.7982 21.2891 41.9663 21.2881C42.3064 21.2865 42.6432 21.3176 42.9768 21.3814C43.1741 21.419 43.4304 21.5162 43.6729 21.5509C43.8529 21.5767 44.2287 21.7383 44.4816 21.8836C44.5678 21.9332 44.663 21.9595 44.7672 21.9625Z" fill="#2477F4"/>
<path d="M42.5821 23.8709C42.5854 23.8812 42.5854 23.8917 42.5821 23.9027C42.5758 23.9212 42.5646 23.925 42.5484 23.9141C42.3753 23.7966 42.2221 23.6592 42.0417 23.5541C41.8711 23.4544 41.7253 23.324 41.5622 23.2279C40.94 22.8595 40.2542 22.5858 39.577 22.2962C39.1565 22.1167 38.621 21.9749 38.1693 21.907C38.0776 21.8931 37.9923 21.8371 37.8917 21.8257C37.6115 21.7949 37.374 21.6918 37.0875 21.6864C36.3631 21.6725 35.6461 21.5158 34.9252 21.675C34.7804 21.7072 34.6515 21.7002 34.5077 21.6997C34.237 21.6988 33.9693 21.7746 33.703 21.8202C33.5766 21.8415 33.4596 21.8971 33.3277 21.9229C33.0505 21.9764 32.816 22.0483 32.5592 22.1227C32.4496 22.1544 32.2572 22.1936 32.1095 22.2561C31.6722 22.4415 31.1342 22.6081 30.8769 22.7489C30.2902 23.0705 29.7196 23.4186 29.1653 23.7931C29.029 23.8848 28.8822 24.0236 28.7206 24.1377C28.5079 24.2879 28.3071 24.5398 28.1405 24.6979C27.9287 24.8988 27.6684 25.1065 27.4617 25.3574C27.1024 25.7927 26.7976 26.1986 26.5474 26.5751C26.0952 27.2549 25.7521 28.0725 25.4447 28.8405C25.3331 29.1191 25.2439 29.4791 25.117 29.792C25.0902 29.8579 25.111 29.9303 25.0842 30.0086C25.0163 30.208 25.0352 30.4152 24.9648 30.6026C24.9572 30.6231 24.9464 30.6248 24.9325 30.6076C24.919 30.5907 24.9102 30.5709 24.9062 30.5481L24.9826 30.1906C25.017 30.1149 25.0328 30.0357 25.0302 29.9531C27.0001 22.1584 36.192 19.0005 42.5821 23.8709Z" fill="#2477F4"/>
<path d="M42.582 23.8708C43.3461 24.5164 43.8702 24.9899 44.4289 25.7262C44.42 25.7219 44.4103 25.724 44.3997 25.7326C44.3845 25.7455 44.3836 25.7591 44.3972 25.7733C44.4671 25.8477 44.4988 25.9255 44.5697 26.0009C44.7725 26.2175 44.8717 26.4883 45.0834 26.7932C45.4711 27.3505 45.7726 28.0174 46.0314 28.6431C46.08 28.7607 46.1258 28.8961 46.1688 29.0491C46.2778 29.4354 46.4315 29.7344 46.4662 30.1122C46.49 30.368 46.5773 30.6447 46.6472 30.9035C46.7568 31.3091 46.6943 31.7042 46.7429 32.0761C46.7984 32.5005 46.8093 32.7945 46.7176 33.2358C46.6695 33.4664 46.7384 33.7168 46.6948 33.9543C46.6403 34.2532 46.6011 34.572 46.5193 34.8636C46.4727 35.0297 46.4806 35.1983 46.433 35.348C46.1221 36.3213 45.8589 37.1225 45.3839 37.9753C45.2454 38.2239 44.9662 38.6581 44.5464 39.2778C44.3109 39.6254 44.0387 39.9398 43.7179 40.2397C43.4705 40.4713 43.2534 40.7425 43.005 40.9448C41.5869 42.098 40.0137 42.9117 38.2178 43.3168C37.9432 43.3787 37.4275 43.526 37.017 43.5696C37.0021 43.5713 36.9912 43.5789 36.9843 43.5924C36.981 43.5994 36.9793 43.6061 36.9793 43.6128C36.2151 43.7288 35.4507 43.7301 34.6861 43.6167C34.6921 43.6108 34.6961 43.6045 34.698 43.5979C34.7023 43.584 34.6972 43.5756 34.6827 43.5726C34.4761 43.5286 34.268 43.4914 34.0584 43.461C33.9097 43.4397 33.7486 43.3777 33.5864 43.3609C33.3742 43.3391 33.2151 43.2523 32.9959 43.2518C32.9101 43.2518 32.8744 43.2216 32.8139 43.1715C32.8004 43.1606 32.7852 43.1543 32.7683 43.1526C32.3578 43.1135 32.0856 42.9399 31.6785 42.7912C31.3291 42.6633 30.8598 42.4324 30.2704 42.0985C30.1891 42.0524 30.077 42.0435 30.0096 42.0068C29.8053 41.8957 29.6151 41.7645 29.4389 41.6131C29.427 41.6026 29.4131 41.5963 29.3973 41.5943C29.3318 41.5864 29.0378 41.3161 28.9139 41.2363C28.8092 41.1694 28.7344 41.0697 28.6238 40.9988C28.6093 40.9892 28.5984 40.9765 28.5911 40.9606C28.5223 40.8089 28.4124 40.7023 28.2614 40.6408C28.2481 40.6352 28.2366 40.6273 28.2267 40.617L28.0576 40.4405C28.0447 40.4273 28.0295 40.4235 28.012 40.4291L27.9678 40.4435C27.4991 40.0072 27.0866 39.5231 26.7303 38.9913C26.7389 38.9899 26.7461 38.987 26.7521 38.9823C26.7666 38.9708 26.7694 38.9569 26.7605 38.9407C26.6511 38.742 26.5382 38.5453 26.4219 38.3507C25.8591 37.4066 25.4164 36.2623 25.1055 35.3485C25.0197 35.0961 25.0133 34.7867 24.9607 34.522C24.9161 34.2969 24.9225 34.0708 24.8442 33.8561C24.8101 33.7629 24.7774 33.669 24.746 33.5745C24.6092 32.6225 24.6994 31.5922 24.8705 30.6496C24.8771 30.6136 24.889 30.5797 24.9062 30.548C24.9101 30.5708 24.9189 30.5906 24.9325 30.6075C24.9463 30.6247 24.9571 30.623 24.9647 30.6025C25.0351 30.4151 25.0162 30.2079 25.0842 30.0085C25.1109 29.9302 25.0901 29.8578 25.1169 29.7919C25.2438 29.479 25.3331 29.1191 25.4446 28.8404C25.752 28.0724 26.0951 27.2548 26.5473 26.575C26.7975 26.1985 27.1023 25.7926 27.4616 25.3573C27.6684 25.1064 27.9287 24.8987 28.1404 24.6979C28.307 24.5397 28.5078 24.2878 28.7205 24.1376C28.8821 24.0236 29.0289 23.8847 29.1652 23.793C29.7196 23.4185 30.2901 23.0704 30.8768 22.7488C31.1341 22.608 31.6721 22.4414 32.1094 22.256C32.2571 22.1935 32.4495 22.1543 32.5591 22.1226C32.8159 22.0482 33.0504 21.9763 33.3276 21.9228C33.4595 21.897 33.5765 21.8415 33.7029 21.8201C33.9692 21.7745 34.2369 21.6987 34.5077 21.6997C34.6514 21.7002 34.7804 21.7071 34.9251 21.6749C35.646 21.5157 36.363 21.6724 37.0874 21.6863C37.374 21.6917 37.6115 21.7949 37.8916 21.8256C37.9922 21.837 38.0775 21.893 38.1693 21.9069C38.6209 21.9748 39.1564 22.1166 39.5769 22.2961C40.2542 22.5857 40.9399 22.8594 41.5621 23.2278C41.7253 23.324 41.871 23.4544 42.0416 23.554C42.2221 23.6591 42.3753 23.7965 42.5483 23.914C42.5645 23.9249 42.5757 23.9211 42.582 23.9026C42.5853 23.8917 42.5853 23.8811 42.582 23.8708ZM36.719 23.6066L36.3005 23.5823C36.281 23.581 36.2713 23.59 36.2713 23.6095L36.2752 25.2804C36.2756 25.2897 36.2711 25.2943 36.2619 25.2943L35.3114 25.3047C35.3074 25.3048 35.3035 25.3041 35.2998 25.3026C35.2962 25.3012 35.2928 25.299 35.29 25.2962C35.2872 25.2934 35.285 25.2901 35.2834 25.2865C35.2819 25.2829 35.2811 25.2789 35.2811 25.275V23.6353C35.2811 23.6276 35.2796 23.62 35.2765 23.6129C35.2735 23.6058 35.269 23.5994 35.2634 23.5941C35.2577 23.5888 35.2511 23.5847 35.2438 23.5821C35.2366 23.5794 35.2288 23.5783 35.2211 23.5788L34.8027 23.6051C34.7174 23.5512 34.626 23.522 34.5285 23.5173C34.3961 23.5109 34.2687 23.6175 34.1194 23.6328C33.937 23.6517 33.8378 23.6864 33.6866 23.739C33.6825 23.7404 33.6787 23.7427 33.6756 23.7457C33.6724 23.7487 33.6699 23.7523 33.6682 23.7563C33.6665 23.7603 33.6657 23.7647 33.6658 23.769C33.6659 23.7734 33.6669 23.7776 33.6687 23.7816C33.6744 23.7932 33.6829 23.7981 33.6945 23.7965C33.6188 23.8001 33.5644 23.8325 33.5314 23.8936C33.4666 23.8669 33.4012 23.8662 33.335 23.8917H33.3103C33.2637 23.847 33.2089 23.8346 33.1461 23.8545C32.5769 24.0359 32.033 24.2734 31.5144 24.567C31.4344 24.6123 31.3139 24.6731 31.153 24.7494C30.672 24.9782 30.2185 25.3309 29.7924 25.8075C29.7072 25.9186 29.6072 26.0162 29.4925 26.1005C29.4841 26.1067 29.4772 26.1145 29.4722 26.1236C29.4672 26.1327 29.4642 26.1427 29.4635 26.1531C29.4627 26.1634 29.4642 26.1738 29.4679 26.1836C29.4715 26.1934 29.4772 26.2022 29.4845 26.2096L29.8609 26.5869C29.8797 26.6058 29.8781 26.6226 29.8559 26.6375L29.7731 26.693C29.7543 26.7056 29.7372 26.7036 29.722 26.6871L29.3884 26.3222C29.3815 26.3147 29.3733 26.3087 29.3641 26.3046C29.3548 26.3005 29.3449 26.2983 29.3348 26.2982C29.3247 26.2981 29.3147 26.3001 29.3054 26.304C29.2961 26.308 29.2877 26.3138 29.2808 26.3212L28.8221 26.8026C28.5719 27.0449 28.3547 27.3138 28.1706 27.6093C28.064 27.7808 27.9663 27.878 27.954 28.0932C27.953 28.1101 27.9447 28.1216 27.9292 28.1279C27.5276 28.2811 27.1968 29.6178 27.0183 30.0209C26.8998 30.2892 26.9018 30.6407 26.8141 30.9328C26.7209 31.2402 26.7342 31.5585 26.7179 31.8743C26.7169 31.8931 26.7247 31.8979 26.7412 31.8887L26.7635 31.8763L26.7511 32.0449C26.7506 32.0515 26.7515 32.0581 26.7537 32.0643C26.7559 32.0706 26.7594 32.0763 26.7639 32.0811C26.7684 32.086 26.7739 32.0898 26.78 32.0925C26.786 32.0951 26.7926 32.0964 26.7992 32.0964L28.4483 32.1059C28.4556 32.1059 28.4627 32.1088 28.4679 32.114C28.4731 32.1192 28.476 32.1263 28.476 32.1336V33.0687C28.476 33.0869 28.467 33.096 28.4488 33.096L26.7873 33.1064C26.7658 33.1067 26.7557 33.1175 26.7571 33.1386L26.8007 33.7728C26.7957 33.7725 26.7911 33.7726 26.7868 33.7733C26.7818 33.7739 26.7785 33.7768 26.7769 33.7817C26.7197 33.9728 26.7397 34.1504 26.8369 34.3147C26.8461 34.3302 26.8519 34.3469 26.8542 34.3648L26.9098 34.7843C26.9124 34.8051 26.9218 34.8219 26.938 34.8348C27.0154 34.898 27.019 34.9616 26.9489 35.0257C26.9331 35.0403 26.9296 35.0571 26.9385 35.0763C26.9802 35.166 27.0198 35.2454 27.0486 35.3341C27.2109 35.8332 27.4102 36.3173 27.6465 36.7864C27.7179 36.9277 27.834 37.0635 27.9143 37.2182C28.2713 37.9054 28.8851 38.5688 29.4459 39.1499C29.553 39.261 29.6635 39.3421 29.7776 39.3934C29.8916 39.4644 29.9934 39.5514 30.083 39.6542C30.2502 39.8439 30.4387 40.0113 30.6482 40.1564C30.7216 40.207 31.0994 40.4539 31.1306 40.3795L31.1782 40.3815C31.3329 40.4812 31.3934 40.6235 31.5724 40.7157C31.893 40.8806 32.2193 41.0325 32.5512 41.1714C32.7465 41.2527 32.991 41.3132 33.2071 41.3994C33.3007 41.4368 33.3977 41.4612 33.4982 41.4728C33.7262 41.4989 33.9507 41.5444 34.1715 41.6092C34.3723 41.6682 34.5627 41.63 34.7724 41.6905C34.9807 41.7505 35.1096 41.748 35.2767 41.6359L35.2796 39.9566C35.2796 39.9371 35.2894 39.9272 35.3089 39.9269L36.2584 39.9184C36.2792 39.9181 36.2891 39.9283 36.2881 39.9492C36.2653 40.5141 36.2724 41.081 36.3094 41.6498C36.4408 41.8075 36.7339 41.6905 36.9044 41.6528C37.073 41.6161 37.2307 41.6687 37.4116 41.6072C37.7409 41.4951 38.0736 41.4604 38.4003 41.3449C38.5262 41.3006 38.6814 41.2523 38.8659 41.2001C39.2473 41.092 39.666 40.9051 40.1218 40.6393C40.2105 40.5878 40.2586 40.4966 40.3647 40.4539C40.5209 40.3914 40.6835 40.329 40.809 40.2273C41.2155 39.8986 41.7253 39.555 42.0842 39.1028L42.113 39.0532C42.1735 39.0532 42.2148 39.0418 42.2369 39.019C42.6984 38.5434 43.1206 38.0357 43.5037 37.4959C43.547 37.4344 43.5951 37.2848 43.648 37.0472L43.7001 37.009C43.8978 36.768 44.0215 36.5781 44.0715 36.4393C44.1612 36.1894 44.2832 35.9782 44.3511 35.7144C44.4041 35.5072 44.5177 35.3257 44.544 35.1135C44.5612 34.9756 44.5929 34.8416 44.6392 34.7114C44.7254 34.4674 44.7606 34.2845 44.8102 34.0579C44.841 33.9151 44.8177 33.7713 44.833 33.6211C44.8347 33.6035 44.8272 33.5918 44.8107 33.5859C44.7982 33.5816 44.7831 33.5819 44.7656 33.5869L44.8023 33.1436C44.8027 33.1385 44.802 33.1333 44.8004 33.1284C44.7987 33.1236 44.796 33.1191 44.7925 33.1154C44.789 33.1116 44.7848 33.1086 44.7801 33.1065C44.7753 33.1045 44.7702 33.1034 44.7651 33.1034H43.1016C43.0844 33.1034 43.0759 33.0948 43.0759 33.0777L43.0788 32.1237C43.0788 32.1173 43.0814 32.1111 43.0859 32.1065C43.0905 32.102 43.0967 32.0994 43.1031 32.0994H44.7765C44.7947 32.0994 44.8031 32.0903 44.8018 32.0721L44.7656 31.5912L44.8162 31.6234C44.8281 31.631 44.8343 31.6277 44.835 31.6135C44.8413 31.5051 44.8467 31.3965 44.8514 31.2878C44.8558 31.1866 44.7983 31.0934 44.7864 30.9888C44.772 30.8604 44.6997 30.4944 44.5673 30.4384L44.5222 30.3417C44.6352 30.0656 44.483 29.78 44.4012 29.5241C44.304 29.2212 44.1696 28.9539 44.0377 28.6694C43.953 28.4864 43.8111 28.3188 43.7115 28.1294C43.7042 28.1162 43.6931 28.1087 43.6783 28.1071C43.6178 28.1002 43.6054 28.0788 43.5984 28.0183C43.5702 27.768 43.3367 27.5215 43.1829 27.3535C43.1195 27.284 43.1086 27.1923 43.0416 27.1174C42.7094 26.7436 42.6028 26.3658 42.1006 26.162C41.5849 25.6378 41.009 25.1922 40.3727 24.8253C40.3307 24.7727 40.2704 24.7514 40.1917 24.7613C40.2023 24.7319 40.1952 24.7 40.1704 24.6656C39.9611 24.4756 39.7245 24.3339 39.4604 24.2407C39.3129 24.1885 39.19 24.1387 39.0915 24.0915C38.9378 24.0176 38.3279 23.7548 38.2188 23.8793L38.1836 23.8936C38.1906 23.8346 37.7433 23.7062 37.6665 23.672C37.5207 23.6071 37.3893 23.6358 37.2431 23.5694C37.0596 23.4866 36.8896 23.5163 36.719 23.6066Z" fill="#2477F4"/>
<path d="M46.0383 26.844L46.0557 26.8008C46.0752 26.7529 46.0988 26.7507 46.1266 26.7944C46.2828 27.0403 46.3983 27.2818 46.5247 27.5203C46.5591 27.5857 46.5788 27.6568 46.5837 27.7335C46.5847 27.7533 46.5948 27.766 46.614 27.7716L46.7136 27.8024C46.7305 27.8077 46.7399 27.8015 46.7419 27.784C46.7607 27.6373 46.845 27.5103 46.8664 27.3899C46.8816 27.3016 46.8868 27.2066 46.8822 27.1048C46.8773 26.9967 46.9467 26.8965 46.967 26.8216C47.0419 26.544 46.9645 26.3169 47.0121 26.0536C47.0548 25.8163 47.0237 25.5881 46.9189 25.3689C46.9116 25.354 46.9088 25.3383 46.9105 25.3218C46.9211 25.2117 46.9075 25.0911 46.8698 24.9599C46.7389 24.5073 46.5775 24.0955 46.3854 23.7243C46.3502 23.6574 46.2699 23.5924 46.2287 23.5151C46.2201 23.4985 46.2216 23.483 46.2332 23.4684C46.4028 23.2503 46.44 22.9816 46.3145 22.7312C46.0973 22.2978 45.96 22.0504 45.4235 21.9934C45.2335 21.9732 45.0419 21.9633 44.8489 21.9636C45.4234 21.8037 45.8671 21.9274 46.1801 22.335C46.438 22.6707 46.5104 23.0663 46.3606 23.4625C46.3546 23.4782 46.3523 23.4951 46.3538 23.5119C46.3554 23.5286 46.3608 23.5448 46.3695 23.5592C47.0924 24.7528 47.2883 26.0287 46.9571 27.3869C46.903 27.6085 46.8014 27.8817 46.733 28.1331C46.7313 28.1395 46.7276 28.1452 46.7225 28.1494C46.7173 28.1537 46.711 28.1562 46.7044 28.1566C46.6978 28.157 46.6912 28.1554 46.6856 28.1519C46.6799 28.1484 46.6755 28.1432 46.673 28.137C46.4839 27.6971 46.2724 27.2661 46.0383 26.844Z" fill="#2477F4"/>
<path d="M38.1836 23.8939L38.0304 24.4691C38.0268 24.4826 38.018 24.4894 38.0042 24.4894L37.906 24.4879C37.8802 24.4876 37.8711 24.4752 37.8787 24.4507L38.0513 23.8776C38.0559 23.8614 38.0501 23.8508 38.0339 23.8458C37.6035 23.7212 37.1652 23.6416 36.719 23.6069C36.8896 23.5166 37.0596 23.4869 37.2431 23.5697C37.3893 23.6361 37.5207 23.6074 37.6665 23.6723C37.7433 23.7065 38.1906 23.8349 38.1836 23.8939Z" fill="#2477F4"/>
<path d="M34.8026 23.6051C34.4261 23.6438 34.0568 23.7076 33.6945 23.7965C33.6829 23.7982 33.6743 23.7932 33.6687 23.7816C33.6669 23.7777 33.6659 23.7734 33.6658 23.7691C33.6657 23.7647 33.6665 23.7604 33.6682 23.7564C33.6699 23.7524 33.6724 23.7487 33.6755 23.7457C33.6787 23.7428 33.6824 23.7405 33.6865 23.739C33.8378 23.6864 33.9369 23.6517 34.1194 23.6329C34.2686 23.6175 34.3961 23.5109 34.5284 23.5174C34.626 23.522 34.7174 23.5513 34.8026 23.6051Z" fill="#2477F4"/>
<path d="M40.1704 24.666C39.5387 24.35 38.8882 24.0879 38.2189 23.8796C38.328 23.7552 38.9378 24.018 39.0915 24.0918C39.19 24.1391 39.313 24.1889 39.4604 24.2411C39.7245 24.3343 39.9612 24.4759 40.1704 24.666Z" fill="#2477F4"/>
<path d="M33.3103 23.892C32.6267 24.089 31.9731 24.3612 31.3493 24.7087C31.3331 24.7176 31.3297 24.7303 31.3389 24.7468L31.8313 25.5996C31.8435 25.6208 31.839 25.6375 31.8179 25.6497L31.7128 25.7102C31.6959 25.7198 31.6829 25.7162 31.6736 25.6993L31.1882 24.8286C31.1786 24.8111 31.1654 24.8076 31.1485 24.8182C30.6739 25.1187 30.2219 25.4486 29.7925 25.8079C30.2186 25.3312 30.6721 24.9785 31.153 24.7498C31.314 24.6734 31.4345 24.6126 31.5145 24.5673C32.0331 24.2738 32.577 24.0363 33.1462 23.8549C33.209 23.835 33.2637 23.8474 33.3103 23.892Z" fill="#2477F4"/>
<path d="M33.5314 23.8941C33.5608 24.0763 33.605 24.2471 33.6638 24.4068C33.6667 24.4147 33.6676 24.4231 33.6665 24.4315C33.6654 24.4398 33.6623 24.4477 33.6575 24.4546C33.6527 24.4614 33.6463 24.467 33.6388 24.4709C33.6314 24.4747 33.6231 24.4767 33.6147 24.4767H33.5111C33.4886 24.4767 33.4774 24.4655 33.4774 24.443C33.4771 24.2463 33.4296 24.0627 33.3351 23.8921C33.4012 23.8667 33.4666 23.8673 33.5314 23.8941Z" fill="#2477F4"/>
<path d="M40.1917 24.7612C40.2704 24.7512 40.3307 24.7726 40.3727 24.8251L39.8818 25.6903C39.8709 25.7095 39.8557 25.7139 39.8362 25.7037L39.7252 25.6452C39.7063 25.6353 39.7027 25.6212 39.7142 25.603C39.8881 25.3303 40.0473 25.0497 40.1917 24.7612Z" fill="#2477F4"/>
<path d="M44.429 25.7263C44.6825 26.0066 44.9503 26.3879 45.2322 26.8701C45.6709 27.6195 45.9999 28.3139 46.2194 28.9535C48.5478 35.7368 44.0785 42.7928 36.9794 43.6128C36.9794 43.6062 36.981 43.5995 36.9843 43.5925C36.9913 43.579 37.0022 43.5714 37.0171 43.5697C37.4276 43.5261 37.9432 43.3788 38.2179 43.3168C40.0138 42.9118 41.587 42.0981 43.005 40.9449C43.2534 40.7426 43.4706 40.4713 43.718 40.2398C44.0388 39.9398 44.311 39.6255 44.5465 39.2779C44.9663 38.6582 45.2455 38.224 45.384 37.9754C45.8589 37.1226 46.1222 36.3214 46.4331 35.3481C46.4807 35.1983 46.4728 35.0298 46.5194 34.8637C46.6012 34.5721 46.6404 34.2533 46.6949 33.9543C46.7385 33.7168 46.6696 33.4665 46.7177 33.2359C46.8094 32.7946 46.7985 32.5006 46.743 32.0762C46.6944 31.7043 46.7569 31.3092 46.6473 30.9036C46.5774 30.6448 46.4901 30.3681 46.4663 30.1123C46.4316 29.7344 46.2779 29.4355 46.1688 29.0492C46.1259 28.8962 46.0801 28.7608 46.0315 28.6432C45.7727 28.0174 45.4712 27.3506 45.0835 26.7933C44.8718 26.4883 44.7726 26.2176 44.5698 26.001C44.4989 25.9256 44.4672 25.8477 44.3973 25.7734C44.3837 25.7592 44.3846 25.7456 44.3998 25.7327C44.4103 25.7241 44.4201 25.722 44.429 25.7263Z" fill="#2477F4"/>
<path d="M42.1006 26.1621C42.6029 26.3659 42.7095 26.7437 43.0417 27.1175C43.1086 27.1924 43.1195 27.2841 43.183 27.3536C43.3367 27.5216 43.5702 27.7681 43.5985 28.0184C43.6054 28.0789 43.6178 28.1003 43.6783 28.1072C43.6932 28.1088 43.7043 28.1163 43.7115 28.1295C43.8112 28.3189 43.953 28.4865 44.0378 28.6695C44.1697 28.9541 44.304 29.2213 44.4012 29.5242C44.483 29.7801 44.6352 30.0657 44.5222 30.3418C44.4101 30.3751 43.9515 30.5248 43.886 30.437C43.8817 30.4311 43.8788 30.4242 43.8777 30.4169C43.8766 30.4096 43.8773 30.4022 43.8796 30.3952C43.882 30.3883 43.8861 30.382 43.8914 30.3769C43.8968 30.3718 43.9033 30.3681 43.9103 30.3661L44.4929 30.199C44.5055 30.1954 44.51 30.1873 44.5063 30.1747C44.3133 29.4988 44.0475 28.8521 43.709 28.2346C43.6819 28.1854 43.6439 28.1746 43.595 28.2024L42.7779 28.6675C42.7591 28.6784 42.7442 28.6744 42.7333 28.6556L42.6777 28.5579C42.6682 28.5414 42.6716 28.5281 42.6882 28.5182L43.5355 28.0229C43.5392 28.0207 43.5424 28.0179 43.545 28.0145C43.5476 28.0111 43.5494 28.0072 43.5505 28.0031C43.5515 27.999 43.5518 27.9947 43.5512 27.9905C43.5506 27.9864 43.5491 27.9824 43.5469 27.9788C43.1774 27.366 42.7445 26.8019 42.2484 26.2866C42.2458 26.2839 42.2427 26.2818 42.2392 26.2804C42.2358 26.2789 42.2322 26.2781 42.2285 26.2781C42.2248 26.278 42.2212 26.2787 42.2178 26.2801C42.2144 26.2815 42.2113 26.2835 42.2087 26.2861L41.7947 26.6931C41.7792 26.7083 41.7636 26.7087 41.7481 26.6941L41.694 26.644C41.6782 26.6292 41.6777 26.6138 41.6926 26.5979L42.1006 26.1621Z" fill="#2477F4"/>
<path d="M28.8221 26.8027C28.5299 27.1809 28.256 27.5699 28.0005 27.9699C27.9979 27.9741 27.9961 27.9789 27.9953 27.9838C27.9945 27.9888 27.9947 27.9938 27.9959 27.9987C27.9971 28.0036 27.9993 28.0082 28.0023 28.0123C28.0053 28.0164 28.0091 28.0198 28.0134 28.0224L28.8335 28.5034C28.8471 28.5113 28.854 28.5232 28.8543 28.5391C28.855 28.5903 28.8345 28.6293 28.7928 28.6561C28.7796 28.6647 28.7662 28.665 28.7527 28.6571L27.9172 28.1776C27.9131 28.1753 27.9085 28.1737 27.9037 28.1732C27.899 28.1726 27.8942 28.1729 27.8895 28.1742C27.8849 28.1755 27.8806 28.1777 27.8769 28.1807C27.8731 28.1836 27.87 28.1873 27.8677 28.1915C27.5242 28.8212 27.2525 29.4808 27.0525 30.1703C27.0463 30.1918 27.0542 30.2045 27.0763 30.2085C27.2727 30.2442 27.4644 30.2999 27.6515 30.3756C27.6616 30.3794 27.6699 30.3867 27.6751 30.3961C27.6803 30.4056 27.6819 30.4165 27.6797 30.4271C27.6775 30.4376 27.6716 30.447 27.663 30.4536C27.6545 30.4601 27.6439 30.4634 27.6331 30.4628C27.4272 30.4569 27.2305 30.4108 27.0431 30.3245C27.0272 30.3172 27.017 30.322 27.0124 30.3389C26.8775 30.844 26.7945 31.3565 26.7635 31.8764L26.7412 31.8888C26.7246 31.8981 26.7169 31.8933 26.7179 31.8744C26.7342 31.5586 26.7208 31.2403 26.814 30.9329C26.9018 30.6408 26.8998 30.2893 27.0183 30.0211C27.1968 29.618 27.5275 28.2813 27.9291 28.1281C27.9447 28.1218 27.9529 28.1102 27.9539 28.0933C27.9663 27.8782 28.064 27.781 28.1706 27.6094C28.3547 27.3139 28.5719 27.045 28.8221 26.8027Z" fill="#2477F4"/>
<path d="M34.8251 32.2562C34.7156 32.2079 34.5882 32.1416 34.4428 32.0574C32.7567 31.0823 31.0712 30.1062 29.3864 29.1291C29.3693 29.1188 29.366 29.1053 29.3765 29.0884L29.4732 28.9312C29.4878 28.9074 29.5071 28.9025 29.5312 28.9164L34.9391 32.0251C34.9444 32.0281 34.9505 32.0294 34.9566 32.0287C34.9627 32.0279 34.9683 32.0253 34.9728 32.0212C35.4037 31.625 35.8965 31.4817 36.4032 31.864C36.4158 31.8732 36.429 31.8744 36.4429 31.8675L41.9336 29.0438C41.9517 29.0345 41.967 29.0382 41.9792 29.0547L42.0858 29.2034C42.0997 29.2226 42.0967 29.2386 42.0769 29.2515L36.7865 32.6593C36.7795 32.6637 36.7734 32.6694 36.7686 32.6762C36.7638 32.6831 36.7605 32.6908 36.7587 32.6989C36.6563 33.1683 36.414 33.4501 36.0319 33.5443C35.4131 33.6975 34.8806 33.3083 34.7958 32.6751C34.7779 32.5413 34.8136 32.4253 34.8429 32.2919C34.8465 32.2754 34.8406 32.2635 34.8251 32.2562ZM36.612 32.8065C36.6741 32.6948 36.7536 32.6059 36.8505 32.5398C37.4137 32.156 38.0812 31.7121 38.8531 31.208C39.1119 31.039 39.4094 30.8134 39.6786 30.6468C39.7543 30.5998 39.8151 30.5512 39.8611 30.501C39.8723 30.4891 39.8855 30.4803 39.9007 30.4747C40.1372 30.3889 40.2676 30.2149 40.459 30.1014C40.7704 29.9166 41.0819 29.7295 41.3936 29.5401C41.3972 29.5382 41.4 29.5349 41.4012 29.531C41.4024 29.5271 41.402 29.5229 41.4001 29.5193C41.3982 29.5157 41.3949 29.5129 41.391 29.5117C41.3871 29.5105 41.3829 29.5109 41.3792 29.5128C40.8938 29.7315 40.4526 30.0091 39.9652 30.2189C39.5571 30.3939 39.1709 30.614 38.7653 30.796C38.5471 30.8937 38.3166 31.0315 38.0836 31.1342C37.6919 31.3067 37.3919 31.4718 37.0037 31.6652C36.8614 31.7361 36.6576 31.8868 36.4404 31.9651C36.4239 31.9714 36.4077 31.9704 36.3918 31.9622C36.2788 31.9051 36.2044 31.807 36.0834 31.7792C35.622 31.6728 35.2394 31.799 34.9356 32.158C34.9244 32.1716 34.9231 32.1861 34.9317 32.2016C35.01 32.3431 35.0069 32.4864 34.9222 32.6315C34.9146 32.6451 34.9135 32.6591 34.9188 32.6737C34.9495 32.7573 34.9545 32.8424 34.9336 32.929C34.9297 32.9449 34.933 32.9593 34.9436 32.9721C35.0973 33.164 35.3501 33.4689 35.5975 33.5185C36.0487 33.6098 36.5093 33.2959 36.6308 32.8561C36.6318 32.8518 36.6308 32.848 36.6278 32.8447L36.6154 32.8328C36.6075 32.8249 36.6064 32.8161 36.612 32.8065Z" fill="#2477F4"/>
<path d="M36.6153 32.833L36.6277 32.8449C36.6307 32.8482 36.6317 32.852 36.6307 32.8563C36.5092 33.2961 36.0486 33.6099 35.5974 33.5187C35.35 33.4691 35.0972 33.1642 34.9435 32.9723C34.9329 32.9594 34.9296 32.9451 34.9335 32.9292C34.9544 32.8426 34.9494 32.7575 34.9187 32.6738C34.9134 32.6593 34.9145 32.6452 34.9221 32.6317C35.0068 32.4866 35.0099 32.3433 34.9316 32.2018C34.923 32.1863 34.9243 32.1717 34.9355 32.1582C35.2393 31.7992 35.6219 31.673 36.0833 31.7794C36.2043 31.8072 36.2787 31.9053 36.3917 31.9623C36.4076 31.9706 36.4238 31.9716 36.4403 31.9653C36.6575 31.887 36.8613 31.7362 37.0036 31.6653C37.3918 31.472 37.6918 31.3069 38.0835 31.1343C38.3165 31.0317 38.547 30.8939 38.7652 30.7962C39.1708 30.6142 39.557 30.3941 39.9651 30.2191C40.4525 30.0093 40.8937 29.7317 41.3791 29.513C41.3828 29.5111 41.387 29.5107 41.3909 29.5119C41.3948 29.5131 41.3981 29.5158 41.4 29.5195C41.4019 29.5231 41.4023 29.5273 41.4011 29.5312C41.3999 29.5351 41.3971 29.5384 41.3935 29.5403C41.0818 29.7297 40.7703 29.9168 40.4589 30.1015C40.2675 30.2151 40.1371 30.3891 39.9006 30.4749C39.8854 30.4805 39.8722 30.4893 39.861 30.5012C39.815 30.5514 39.7542 30.6 39.6785 30.6469C39.4093 30.8135 39.1118 31.0391 38.853 31.2082C38.0811 31.7123 37.4136 32.1562 36.8504 32.54C36.7535 32.6061 36.674 32.695 36.6119 32.8067C36.6063 32.8163 36.6074 32.8251 36.6153 32.833Z" fill="#2477F4"/>
<path d="M25.0301 29.9531C25.0328 30.0358 25.0169 30.1149 24.9825 30.1906C24.9666 30.104 24.9825 30.0249 25.0301 29.9531Z" fill="#2477F4"/>
<path d="M44.5673 30.4385C44.6996 30.4945 44.772 30.8604 44.7864 30.9888C44.7983 31.0935 44.8558 31.1867 44.8514 31.2878C44.8467 31.3966 44.8413 31.5051 44.835 31.6136C44.8343 31.6278 44.8281 31.6311 44.8162 31.6235L44.7656 31.5912C44.7279 31.2022 44.6618 30.8179 44.5673 30.4385Z" fill="#2477F4"/>
<path d="M24.7461 33.5747C24.7775 33.6692 24.8102 33.7631 24.8443 33.8563C24.9226 34.071 24.9162 34.2971 24.9608 34.5222C25.0133 34.787 25.0198 35.0964 25.1056 35.3487C25.4164 36.2625 25.8592 37.4069 26.422 38.3509C26.5383 38.5456 26.6512 38.7423 26.7606 38.9409C26.7695 38.9571 26.7667 38.971 26.7522 38.9826C26.7462 38.9872 26.7389 38.9902 26.7304 38.9915C25.5992 37.3622 24.9378 35.5566 24.7461 33.5747Z" fill="#2477F4"/>
<path d="M44.7656 33.587C44.7831 33.582 44.7981 33.5817 44.8107 33.586C44.8272 33.592 44.8347 33.6037 44.833 33.6212C44.8176 33.7714 44.8409 33.9152 44.8102 34.058C44.7606 34.2846 44.7254 34.4676 44.6391 34.7115C44.5929 34.8417 44.5611 34.9758 44.544 35.1136C44.5177 35.3258 44.4041 35.5073 44.3511 35.7145C44.2832 35.9783 44.1612 36.1895 44.0714 36.4394C44.0215 36.5783 43.8977 36.7681 43.7001 37.0091C44.0326 36.3864 44.3003 35.7369 44.5033 35.0606C44.5106 35.0364 44.502 35.0214 44.4775 35.0154L43.9262 34.8811C43.906 34.8761 43.8959 34.8632 43.8959 34.8424V34.8017C43.8959 34.791 43.8984 34.7804 43.9032 34.7707C43.908 34.7611 43.9149 34.7527 43.9234 34.7461C43.9319 34.7396 43.9418 34.7351 43.9524 34.7329C43.9629 34.7308 43.9738 34.7311 43.9842 34.7338L44.5142 34.8736C44.5291 34.8776 44.5387 34.8721 44.543 34.8573C44.6669 34.4414 44.7411 34.018 44.7656 33.587Z" fill="#2477F4"/>
<path d="M26.8007 33.7731C26.8456 34.1403 26.9149 34.5044 27.0084 34.8654C27.0131 34.8823 27.0236 34.8882 27.0402 34.8832C27.1393 34.854 27.6208 34.676 27.6624 34.7871C27.6653 34.7949 27.6666 34.8032 27.6662 34.8115C27.6658 34.8198 27.6636 34.8279 27.6599 34.8354C27.6562 34.8428 27.651 34.8494 27.6446 34.8548C27.6382 34.8601 27.6307 34.8641 27.6228 34.8664L27.0655 35.03C27.0479 35.035 27.0418 35.0462 27.0471 35.0637C27.253 35.7536 27.5307 36.413 27.8801 37.042C27.8887 37.0579 27.9007 37.0612 27.9163 37.0519C28.1701 36.8992 28.4215 36.7513 28.6704 36.6082C28.7607 36.5566 28.8321 36.5591 28.8563 36.6746C28.8606 36.6948 28.8539 36.71 28.836 36.7202L27.9966 37.2071C27.9949 37.2081 27.9934 37.2094 27.9922 37.211C27.9909 37.2125 27.9901 37.2143 27.9896 37.2163C27.989 37.2182 27.9889 37.2202 27.9892 37.2222C27.9895 37.2243 27.9901 37.2262 27.9911 37.228C28.36 37.8395 28.7935 38.4012 29.2917 38.9132C29.3214 38.944 29.351 38.9438 29.3804 38.9127C29.4603 38.8285 29.662 38.5677 29.783 38.5458C29.7986 38.5429 29.8126 38.5465 29.8252 38.5568C29.9209 38.6356 29.5148 38.9732 29.4523 39.0337C29.4486 39.0373 29.4456 39.0416 29.4436 39.0464C29.4415 39.0511 29.4405 39.0562 29.4405 39.0614C29.4405 39.0665 29.4415 39.0716 29.4436 39.0763C29.4456 39.081 29.4486 39.0853 29.4523 39.0888L29.7776 39.3937C29.6635 39.3425 29.553 39.2613 29.4459 39.1502C28.8851 38.5691 28.2713 37.9057 27.9143 37.2185C27.834 37.0638 27.718 36.928 27.6466 36.7867C27.4102 36.3176 27.2109 35.8336 27.0486 35.3344C27.0198 35.2457 26.9802 35.1664 26.9385 35.0766C26.9296 35.0574 26.9331 35.0406 26.9489 35.026C27.019 34.9619 27.0154 34.8983 26.938 34.8352C26.9218 34.8223 26.9124 34.8054 26.9098 34.7846L26.8542 34.3651C26.8519 34.3473 26.8461 34.3306 26.8369 34.315C26.7397 34.1508 26.7197 33.9731 26.7769 33.782C26.7785 33.7771 26.7819 33.7743 26.7868 33.7736C26.7911 33.7729 26.7957 33.7728 26.8007 33.7731Z" fill="#2477F4"/>
<path d="M43.6481 37.0476C43.5952 37.2852 43.5471 37.4348 43.5038 37.4963C43.1207 38.0361 42.6984 38.5438 42.237 39.0194C42.2148 39.0423 42.1735 39.0537 42.113 39.0537L41.7154 38.657C41.7061 38.6477 41.7008 38.6365 41.6995 38.6233C41.6945 38.5697 41.7135 38.5393 41.7565 38.5321C41.7747 38.5288 41.7906 38.5335 41.8041 38.5464L42.1998 38.9208C42.2081 38.9286 42.2192 38.9329 42.2307 38.9326C42.2422 38.9323 42.2532 38.9275 42.2613 38.9193C42.7534 38.4152 43.182 37.8619 43.5469 37.2593C43.5511 37.2525 43.5538 37.2448 43.555 37.2369C43.5561 37.2289 43.5556 37.2208 43.5536 37.213C43.5515 37.2053 43.5478 37.198 43.5429 37.1916C43.5379 37.1852 43.5317 37.1799 43.5246 37.176L42.7129 36.7283C42.7057 36.7242 42.6993 36.7188 42.6942 36.7123C42.6891 36.7058 42.6853 36.6984 42.683 36.6904C42.6808 36.6825 42.6801 36.6741 42.6811 36.6659C42.682 36.6577 42.6846 36.6497 42.6887 36.6425C42.7323 36.5642 42.7501 36.5374 42.8409 36.5909C43.1079 36.7466 43.377 36.8988 43.6481 37.0476Z" fill="#2477F4"/>
<path d="M42.0842 39.103C41.7252 39.5552 41.2155 39.8988 40.809 40.2275C40.6835 40.3292 40.5209 40.3917 40.3647 40.4541C40.2586 40.4968 40.2105 40.588 40.1218 40.6396C39.666 40.9053 39.2473 41.0922 38.8659 41.2003C38.6814 41.2526 38.5262 41.3008 38.4003 41.3451C38.0736 41.4606 37.7409 41.4953 37.4116 41.6074C37.2307 41.6689 37.073 41.6163 36.9044 41.653C36.7339 41.6907 36.4408 41.8077 36.3094 41.65C36.9021 41.616 37.4837 41.5246 38.0542 41.3759C38.0559 41.3753 38.0573 41.3741 38.0581 41.3725C38.059 41.371 38.0592 41.3691 38.0587 41.3674L37.8936 40.7829C37.8876 40.7617 37.8954 40.7485 37.9169 40.7432L37.9858 40.7258C38.0086 40.7202 38.0233 40.7288 38.0299 40.7516L38.1896 41.3258C38.1932 41.3383 38.2013 41.3428 38.2139 41.3392C38.9014 41.1375 39.5594 40.8653 40.1877 40.5225C40.193 40.5197 40.1976 40.5159 40.2013 40.5112C40.2051 40.5065 40.2078 40.5011 40.2095 40.4954C40.2111 40.4896 40.2115 40.4835 40.2108 40.4776C40.21 40.4716 40.2081 40.4658 40.2051 40.4606L39.7236 39.6271C39.7164 39.6149 39.7172 39.6031 39.7261 39.5919C39.7569 39.5529 39.7978 39.5317 39.8491 39.5284C39.8683 39.5271 39.8825 39.5347 39.8917 39.5512L40.3692 40.3872C40.3711 40.3906 40.3736 40.3935 40.3767 40.3959C40.3798 40.3983 40.3833 40.4 40.3871 40.401C40.3908 40.4019 40.3947 40.4021 40.3985 40.4016C40.4024 40.401 40.4061 40.3996 40.4094 40.3976C41.0106 40.0201 41.5689 39.5886 42.0842 39.103Z" fill="#2477F4"/>
<path d="M35.2766 41.6365C35.1095 41.7485 34.9806 41.751 34.7724 41.691C34.5627 41.6305 34.3723 41.6687 34.1715 41.6097C33.9507 41.5449 33.7262 41.4994 33.4981 41.4733C33.3977 41.4618 33.3006 41.4373 33.2071 41.4C32.9909 41.3137 32.7465 41.2532 32.5511 41.1719C32.2193 41.033 31.893 40.8812 31.5724 40.7162C31.3934 40.624 31.3329 40.4817 31.1782 40.382L31.6597 39.556C31.6679 39.5421 31.6802 39.5355 31.6964 39.5362C31.7492 39.5382 31.7924 39.559 31.8258 39.5987C31.837 39.6119 31.8383 39.6259 31.8297 39.6408L31.3379 40.4728C31.336 40.4761 31.3348 40.4798 31.3343 40.4835C31.3339 40.4873 31.3341 40.4911 31.3352 40.4948C31.3362 40.4984 31.3379 40.5018 31.3402 40.5048C31.3426 40.5077 31.3455 40.5102 31.3488 40.5119C31.9795 40.8597 32.6401 41.1368 33.3306 41.3434C33.3504 41.3494 33.3628 41.3424 33.3677 41.3226L33.5165 40.7559C33.5178 40.751 33.52 40.7465 33.5231 40.7425C33.5261 40.7385 33.53 40.7352 33.5343 40.7328C33.5387 40.7304 33.5435 40.7289 33.5485 40.7284C33.5534 40.728 33.5584 40.7285 33.5631 40.7301L33.6459 40.7579C33.6704 40.7661 33.6786 40.7825 33.6707 40.807L33.4892 41.3628C33.4853 41.3747 33.4894 41.3821 33.5016 41.3851C34.0961 41.5214 34.6648 41.6201 35.2766 41.6365Z" fill="#2477F4"/>
<path d="M30.083 39.6543C30.4221 39.9134 30.7714 40.1552 31.1307 40.3797C31.0994 40.454 30.7216 40.2071 30.6482 40.1566C30.4387 40.0115 30.2503 39.844 30.083 39.6543Z" fill="#2477F4"/>
<path d="M34.6862 43.6169C34.4836 43.605 34.2231 43.5713 33.9048 43.5157C31.6756 43.125 29.554 42.0724 27.9679 40.4436L28.012 40.4293C28.0295 40.4237 28.0447 40.4275 28.0576 40.4407L28.2267 40.6172C28.2366 40.6274 28.2482 40.6354 28.2614 40.641C28.4125 40.7025 28.5224 40.8091 28.5911 40.9608C28.5984 40.9767 28.6093 40.9894 28.6239 40.999C28.7344 41.0699 28.8093 41.1695 28.9139 41.2365C29.0379 41.3163 29.3319 41.5865 29.3973 41.5944C29.4132 41.5964 29.4271 41.6027 29.439 41.6133C29.6152 41.7647 29.8054 41.8959 30.0097 42.007C30.0771 42.0436 30.1892 42.0526 30.2705 42.0987C30.8598 42.4325 31.3292 42.6634 31.6786 42.7913C32.0856 42.9401 32.3579 43.1136 32.7684 43.1528C32.7852 43.1544 32.8005 43.1607 32.814 43.1716C32.8745 43.2217 32.9102 43.252 32.996 43.252C33.2151 43.2524 33.3743 43.3392 33.5865 43.361C33.7486 43.3779 33.9098 43.4399 34.0585 43.4612C34.2681 43.4916 34.4761 43.5288 34.6827 43.5727C34.6973 43.5757 34.7024 43.5841 34.6981 43.598C34.6961 43.6046 34.6922 43.6109 34.6862 43.6169Z" fill="#2477F4"/>
<path d="M28.6863 43.546C27.8067 43.9744 26.7952 43.2812 26.8939 42.3005C26.9469 41.7754 27.2821 41.5156 27.6346 41.1492C27.6462 41.137 27.6583 41.1365 27.6708 41.1477C28.2961 41.703 28.9342 42.2187 29.6511 42.655C29.653 42.6561 29.6546 42.6576 29.6558 42.6594C29.6569 42.6612 29.6577 42.6633 29.658 42.6654C29.6583 42.6676 29.6581 42.6698 29.6574 42.6718C29.6567 42.6739 29.6556 42.6758 29.6541 42.6773C29.371 42.9644 29.0314 43.3779 28.6863 43.546ZM29.4583 42.6515C29.1568 42.363 28.7854 42.119 28.4508 41.8716C28.2118 41.6951 27.9341 41.4725 27.706 41.2623C27.6925 41.25 27.6768 41.2459 27.6589 41.2499C27.4011 41.3069 27.1309 41.7749 27.0501 41.9876C26.9757 42.1835 26.9876 42.4051 26.9792 42.6218C26.9564 43.1905 27.8364 43.7324 28.3417 43.603C28.838 43.4756 29.1186 43.0918 29.4593 42.7477C29.4916 42.7153 29.4913 42.6833 29.4583 42.6515Z" fill="#2477F4"/>
<path d="M42.8299 43.5387C42.9148 43.5145 42.9988 43.5231 43.0817 43.5644C43.2935 43.6701 43.5582 43.5902 43.7694 43.5258C44.113 43.4202 44.4016 43.138 44.4998 42.7935C44.5712 42.5436 44.6847 42.3943 44.5102 42.1276C44.5009 42.1137 44.4963 42.0985 44.4963 42.082C44.4938 41.7488 44.2286 41.5762 44.0283 41.366C43.9484 41.2822 43.9117 41.1682 43.7769 41.2926C43.6218 41.4351 43.471 41.5818 43.3242 41.7329C43.23 41.8296 43.0897 41.8762 42.9732 41.9868C42.7238 42.2228 42.3653 42.4449 42.0514 42.6427C42.0379 42.6513 42.0288 42.6632 42.0242 42.6784C42.0126 42.7201 41.9843 42.7389 41.9394 42.7349C41.9205 42.7207 41.9081 42.7039 41.9022 42.6844C41.8969 42.6672 41.9019 42.6538 41.9171 42.6442C42.6165 42.2132 43.2655 41.7169 43.8641 41.1553C43.8757 41.1444 43.8874 41.1442 43.8993 41.1548C44.3272 41.5385 44.6535 41.8345 44.6584 42.3909C44.6679 43.3686 43.701 43.9576 42.8299 43.5387Z" fill="#2477F4"/>
<path d="M42.8298 43.5389C42.4961 43.3534 42.1972 43.0153 41.9393 42.7351C41.9843 42.7391 42.0125 42.7203 42.0241 42.6786C42.0287 42.6634 42.0378 42.6515 42.0514 42.6429C42.3652 42.4451 42.7237 42.223 42.9731 41.987C43.0896 41.8764 43.2299 41.8298 43.3241 41.7331C43.4709 41.582 43.6218 41.4353 43.7768 41.2928C43.9117 41.1684 43.9484 41.2824 44.0282 41.3662C44.2285 41.5764 44.4938 41.749 44.4963 42.0822C44.4963 42.0987 44.5009 42.1139 44.5101 42.1278C44.6847 42.3945 44.5711 42.5438 44.4997 42.7936C44.4016 43.1382 44.113 43.4204 43.7694 43.526C43.5582 43.5904 43.2934 43.6702 43.0817 43.5646C42.9987 43.5233 42.9148 43.5147 42.8298 43.5389Z" fill="#2477F4"/>
<path d="M29.4583 42.6512C29.4913 42.6829 29.4917 42.715 29.4593 42.7474C29.1186 43.0915 28.838 43.4752 28.3417 43.6026C27.8365 43.7321 26.9564 43.1901 26.9792 42.6214C26.9876 42.4048 26.9757 42.1831 27.0501 41.9873C27.1309 41.7746 27.4011 41.3065 27.659 41.2495C27.6768 41.2455 27.6925 41.2497 27.7061 41.2619C27.9341 41.4721 28.2118 41.6947 28.4508 41.8713C28.7855 42.1187 29.1568 42.3626 29.4583 42.6512Z" fill="#2477F4"/>
</svg>
