<svg width="1280" height="1656" viewBox="0 0 1280 1656" fill="none" xmlns="http://www.w3.org/2000/svg">
<g clip-path="url(#clip0_1202_147)">
<path d="M489.871 22C610.315 22 1180.87 85.1115 1068.87 253.112C969.316 402.445 105.538 36.556 105.538 314.778C105.538 593 715.539 398.223 715.539 669.778C715.539 941.334 105.538 741.202 105.538 1031.44C105.538 1321.69 714.428 1066.11 716.205 1397.67C717.983 1729.22 207.538 1675.56 -99.5731 1485.33C-406.684 1295.11 -297.168 504.223 -249.351 328.223C-201.534 152.223 -428.018 22 63.538 22" stroke="#D9E0EF" stroke-opacity="0.3" stroke-width="34"/>
<path d="M92.888 24.848H88.856V35H83.06V9.8H88.856V19.988H93.032L99.656 9.8H105.812L97.568 21.968L106.064 35H99.44L92.888 24.848ZM120.273 9.368C122.601 9.368 124.629 9.824 126.357 10.736C128.085 11.648 129.429 12.992 130.389 14.768C131.349 16.544 131.829 18.692 131.829 21.212V35H125.997V28.952H114.477V35H108.717V21.212C108.717 18.692 109.197 16.544 110.157 14.768C111.117 12.992 112.461 11.648 114.189 10.736C115.917 9.824 117.945 9.368 120.273 9.368ZM125.997 24.272V20.672C125.997 18.584 125.481 17.012 124.449 15.956C123.417 14.876 122.013 14.336 120.237 14.336C118.437 14.336 117.021 14.876 115.989 15.956C114.981 17.012 114.477 18.584 114.477 20.672V24.272H125.997ZM147.486 24.848H143.454V35H137.658V9.8H143.454V19.988H147.63L154.254 9.8H160.41L152.166 21.968L160.662 35H154.038L147.486 24.848ZM182.462 9.368C184.958 9.368 187.19 9.932 189.158 11.06C191.15 12.164 192.71 13.712 193.838 15.704C194.966 17.672 195.53 19.904 195.53 22.4C195.53 24.896 194.966 27.14 193.838 29.132C192.71 31.1 191.15 32.648 189.158 33.776C187.19 34.88 184.958 35.432 182.462 35.432C180.23 35.432 178.214 35.048 176.414 34.28C174.638 33.512 173.15 32.396 171.95 30.932L175.658 27.476C177.434 29.468 179.606 30.464 182.174 30.464C184.022 30.464 185.582 29.924 186.854 28.844C188.15 27.764 188.99 26.312 189.374 24.488H179.15V20.024H189.302C188.894 18.296 188.054 16.916 186.782 15.884C185.51 14.852 183.974 14.336 182.174 14.336C179.606 14.336 177.434 15.332 175.658 17.324L171.95 13.868C173.15 12.404 174.638 11.288 176.414 10.52C178.214 9.752 180.23 9.368 182.462 9.368ZM218.681 16.856C216.521 15.608 214.205 14.804 211.733 14.444V35H205.901V14.444C203.429 14.804 201.101 15.608 198.917 16.856L196.937 12.5C198.665 11.468 200.537 10.688 202.553 10.16C204.569 9.632 206.645 9.368 208.781 9.368C210.941 9.368 213.029 9.632 215.045 10.16C217.085 10.688 218.957 11.468 220.661 12.5L218.681 16.856ZM235.816 35.432C233.2 35.432 230.836 34.868 228.724 33.74C226.636 32.612 224.992 31.064 223.792 29.096C222.616 27.104 222.028 24.872 222.028 22.4C222.028 19.928 222.616 17.708 223.792 15.74C224.992 13.748 226.636 12.188 228.724 11.06C230.836 9.932 233.2 9.368 235.816 9.368C238.432 9.368 240.784 9.932 242.872 11.06C244.96 12.188 246.604 13.748 247.804 15.74C249.004 17.708 249.604 19.928 249.604 22.4C249.604 24.872 249.004 27.104 247.804 29.096C246.604 31.064 244.96 32.612 242.872 33.74C240.784 34.868 238.432 35.432 235.816 35.432ZM235.816 30.464C237.304 30.464 238.648 30.128 239.848 29.456C241.048 28.76 241.984 27.8 242.656 26.576C243.352 25.352 243.7 23.96 243.7 22.4C243.7 20.84 243.352 19.448 242.656 18.224C241.984 17 241.048 16.052 239.848 15.38C238.648 14.684 237.304 14.336 235.816 14.336C234.328 14.336 232.984 14.684 231.784 15.38C230.584 16.052 229.636 17 228.94 18.224C228.268 19.448 227.932 20.84 227.932 22.4C227.932 23.96 228.268 25.352 228.94 26.576C229.636 27.8 230.584 28.76 231.784 29.456C232.984 30.128 234.328 30.464 235.816 30.464ZM274.768 9.548C278.296 9.548 281.044 10.412 283.012 12.14C285.004 13.868 286 16.292 286 19.412C286 22.364 285.1 24.68 283.3 26.36C281.524 28.04 279.028 28.88 275.812 28.88C274.756 28.88 273.724 28.772 272.716 28.556C271.732 28.34 270.664 27.98 269.512 27.476V35H263.752V20.096C263.752 16.712 264.688 14.108 266.56 12.284C268.456 10.46 271.192 9.548 274.768 9.548ZM274.804 24.488C276.508 24.488 277.816 24.056 278.728 23.192C279.664 22.328 280.132 21.104 280.132 19.52C280.132 17.912 279.664 16.664 278.728 15.776C277.816 14.888 276.544 14.444 274.912 14.444C273.208 14.444 271.876 14.936 270.916 15.92C269.98 16.904 269.512 18.284 269.512 20.06V22.868C270.232 23.372 271.048 23.768 271.96 24.056C272.896 24.344 273.844 24.488 274.804 24.488ZM300.836 9.368C303.164 9.368 305.192 9.824 306.92 10.736C308.648 11.648 309.992 12.992 310.952 14.768C311.912 16.544 312.392 18.692 312.392 21.212V35H306.56V28.952H295.04V35H289.28V21.212C289.28 18.692 289.76 16.544 290.72 14.768C291.68 12.992 293.024 11.648 294.752 10.736C296.48 9.824 298.508 9.368 300.836 9.368ZM306.56 24.272V20.672C306.56 18.584 306.044 17.012 305.012 15.956C303.98 14.876 302.576 14.336 300.8 14.336C299 14.336 297.584 14.876 296.552 15.956C295.544 17.012 295.04 18.584 295.04 20.672V24.272H306.56ZM318.292 9.8H338.632V14.444H324.088V19.628H331.072C334.12 19.628 336.436 20.264 338.02 21.536C339.628 22.808 340.432 24.644 340.432 27.044C340.432 29.564 339.544 31.52 337.768 32.912C335.992 34.304 333.484 35 330.244 35H318.292V9.8ZM329.92 30.68C331.408 30.68 332.548 30.392 333.34 29.816C334.132 29.216 334.528 28.352 334.528 27.224C334.528 25.016 332.992 23.912 329.92 23.912H324.088V30.68H329.92ZM356.894 35.432C354.278 35.432 351.914 34.868 349.802 33.74C347.714 32.612 346.07 31.064 344.87 29.096C343.694 27.104 343.106 24.872 343.106 22.4C343.106 19.928 343.694 17.708 344.87 15.74C346.07 13.748 347.714 12.188 349.802 11.06C351.914 9.932 354.278 9.368 356.894 9.368C359.51 9.368 361.862 9.932 363.95 11.06C366.038 12.188 367.682 13.748 368.882 15.74C370.082 17.708 370.682 19.928 370.682 22.4C370.682 24.872 370.082 27.104 368.882 29.096C367.682 31.064 366.038 32.612 363.95 33.74C361.862 34.868 359.51 35.432 356.894 35.432ZM356.894 30.464C358.382 30.464 359.726 30.128 360.926 29.456C362.126 28.76 363.062 27.8 363.734 26.576C364.43 25.352 364.778 23.96 364.778 22.4C364.778 20.84 364.43 19.448 363.734 18.224C363.062 17 362.126 16.052 360.926 15.38C359.726 14.684 358.382 14.336 356.894 14.336C355.406 14.336 354.062 14.684 352.862 15.38C351.662 16.052 350.714 17 350.018 18.224C349.346 19.448 349.01 20.84 349.01 22.4C349.01 23.96 349.346 25.352 350.018 26.576C350.714 27.8 351.662 28.76 352.862 29.456C354.062 30.128 355.406 30.464 356.894 30.464ZM393.759 16.856C391.599 15.608 389.283 14.804 386.811 14.444V35H380.979V14.444C378.507 14.804 376.179 15.608 373.995 16.856L372.015 12.5C373.743 11.468 375.615 10.688 377.631 10.16C379.647 9.632 381.723 9.368 383.859 9.368C386.019 9.368 388.107 9.632 390.123 10.16C392.163 10.688 394.035 11.468 395.739 12.5L393.759 16.856ZM410.066 9.368C412.394 9.368 414.422 9.824 416.15 10.736C417.878 11.648 419.222 12.992 420.182 14.768C421.142 16.544 421.622 18.692 421.622 21.212V35H415.79V28.952H404.27V35H398.51V21.212C398.51 18.692 398.99 16.544 399.95 14.768C400.91 12.992 402.254 11.648 403.982 10.736C405.71 9.824 407.738 9.368 410.066 9.368ZM415.79 24.272V20.672C415.79 18.584 415.274 17.012 414.242 15.956C413.21 14.876 411.806 14.336 410.03 14.336C408.23 14.336 406.814 14.876 405.782 15.956C404.774 17.012 404.27 18.584 404.27 20.672V24.272H415.79ZM447.725 32.84C446.525 33.656 445.013 34.292 443.189 34.748C441.389 35.204 439.469 35.432 437.429 35.432C434.885 35.432 432.725 35.12 430.949 34.496C429.173 33.848 427.829 32.96 426.917 31.832C426.005 30.68 425.549 29.372 425.549 27.908C425.549 26.564 425.921 25.376 426.665 24.344C427.409 23.312 428.429 22.544 429.725 22.04C428.741 21.512 427.973 20.792 427.421 19.88C426.893 18.968 426.629 17.948 426.629 16.82C426.629 15.452 427.049 14.204 427.889 13.076C428.729 11.948 430.001 11.048 431.705 10.376C433.409 9.704 435.497 9.368 437.969 9.368C439.601 9.368 441.197 9.536 442.757 9.872C444.317 10.184 445.673 10.616 446.825 11.168L445.205 15.632C442.997 14.6 440.657 14.084 438.185 14.084C436.313 14.084 434.897 14.372 433.937 14.948C433.001 15.5 432.533 16.256 432.533 17.216C432.533 18.104 432.845 18.788 433.469 19.268C434.117 19.724 435.089 19.952 436.385 19.952H443.261V24.56H436.025C434.561 24.56 433.433 24.812 432.641 25.316C431.849 25.82 431.453 26.552 431.453 27.512C431.453 28.52 431.957 29.312 432.965 29.888C433.997 30.44 435.569 30.716 437.681 30.716C439.169 30.716 440.657 30.524 442.145 30.14C443.633 29.732 444.893 29.168 445.925 28.448L447.725 32.84ZM470.013 16.856C467.853 15.608 465.537 14.804 463.065 14.444V35H457.233V14.444C454.761 14.804 452.433 15.608 450.249 16.856L448.269 12.5C449.997 11.468 451.869 10.688 453.885 10.16C455.901 9.632 457.977 9.368 460.113 9.368C462.273 9.368 464.361 9.632 466.377 10.16C468.417 10.688 470.289 11.468 471.993 12.5L470.013 16.856Z" fill="#37476A"/>
<path d="M513 22L489 39L489 5L513 22Z" fill="#FFB800"/>
</g>
<defs>
<clipPath id="clip0_1202_147">
<rect width="1280" height="1656" fill="white"/>
</clipPath>
</defs>
</svg>
