<svg width="15" height="15" viewBox="0 0 15 15" fill="none" xmlns="http://www.w3.org/2000/svg">
<path fill-rule="evenodd" clip-rule="evenodd" d="M1.05442 1.05442C0 2.10883 0 3.80589 0 7.2L0 7.8C0 11.1941 0 12.8912 1.05442 13.9456C2.10883 15 3.80589 15 7.2 15L7.8 15C11.1941 15 12.8912 15 13.9456 13.9456C15 12.8912 15 11.1941 15 7.8L15 7.2C15 3.80589 15 2.10883 13.9456 1.05442C12.8912 0 11.1941 0 7.8 0L7.2 0C3.80589 0 2.10883 0 1.05442 1.05442ZM2.53125 4.5625C2.6125 8.4625 4.56248 10.8062 7.98123 10.8062H8.17502V8.57499C9.43127 8.69999 10.3812 9.61874 10.7625 10.8062H12.5375C12.05 9.03124 10.7687 8.04999 9.96869 7.67499C10.7687 7.21249 11.8937 6.0875 12.1624 4.5625L10.5499 4.5625C10.1999 5.8 9.16252 6.92499 8.17502 7.03124V4.5625H6.56247V8.88749C5.56247 8.63749 4.29999 7.425 4.24374 4.5625L2.53125 4.5625Z" fill="#37476A"/>
</svg>
